G75*
%MOIN*%
%OFA0B0*%
%FSLAX25Y25*%
%IPPOS*%
%LPD*%
%AMOC8*
5,1,8,0,0,1.08239X$1,22.5*
%
%ADD10C,0.00000*%
%ADD11R,0.05906X0.05118*%
%ADD12R,0.05118X0.05906*%
%ADD13C,0.06000*%
%ADD14R,0.05512X0.04331*%
%ADD15R,0.04331X0.05512*%
%ADD16R,0.01575X0.03937*%
%ADD17C,0.02381*%
%ADD18C,0.01000*%
D10*
X0001000Y0002294D02*
X0001000Y0034381D01*
X0086827Y0034381D01*
X0086827Y0002294D01*
X0001000Y0002294D01*
D11*
X0077339Y0022255D03*
X0077339Y0029735D03*
D12*
X0066079Y0014144D03*
X0058598Y0014144D03*
X0026315Y0006979D03*
X0018835Y0006979D03*
D13*
X0006472Y0007767D03*
X0006472Y0017767D03*
X0006472Y0027767D03*
D14*
X0061394Y0029932D03*
X0069346Y0029932D03*
X0069346Y0022058D03*
X0061394Y0022058D03*
D15*
X0074150Y0014144D03*
X0082024Y0014144D03*
X0026512Y0015050D03*
X0018638Y0015050D03*
X0018638Y0023318D03*
X0026512Y0023318D03*
D16*
X0033913Y0026743D03*
X0038913Y0026743D03*
X0043913Y0026743D03*
X0048913Y0026743D03*
X0048913Y0007058D03*
X0043913Y0007058D03*
X0038913Y0007058D03*
X0033913Y0007058D03*
D17*
X0030921Y0007019D03*
X0038992Y0007019D03*
X0043913Y0007215D03*
X0049031Y0008003D03*
X0054150Y0005050D03*
X0058677Y0007806D03*
X0066157Y0006428D03*
X0058283Y0014302D03*
X0043913Y0013318D03*
X0030921Y0015089D03*
X0033874Y0025326D03*
X0043913Y0026704D03*
X0051591Y0029656D03*
X0054346Y0026310D03*
X0061433Y0023160D03*
X0068323Y0029853D03*
D18*
X0069307Y0029971D01*
X0069346Y0029932D01*
X0077142Y0029932D01*
X0077339Y0029735D01*
X0061394Y0029932D02*
X0061118Y0029656D01*
X0051591Y0029656D01*
X0048913Y0026743D02*
X0048913Y0018318D01*
X0043913Y0013318D01*
X0035843Y0010759D02*
X0054740Y0010759D01*
X0058283Y0014302D01*
X0058283Y0014026D01*
X0058598Y0014144D01*
X0057654Y0015089D01*
X0058598Y0014144D02*
X0058677Y0014066D01*
X0058677Y0007806D01*
X0054150Y0005050D02*
X0064780Y0005050D01*
X0066157Y0006428D01*
X0049031Y0008003D02*
X0048913Y0007885D01*
X0048913Y0007058D01*
X0045724Y0003869D01*
X0031709Y0003869D01*
X0030921Y0004656D01*
X0030921Y0007019D01*
X0033913Y0007058D02*
X0033913Y0008830D01*
X0035843Y0010759D01*
X0038835Y0007255D02*
X0038992Y0007019D01*
X0038913Y0007058D02*
X0038835Y0007255D01*
X0043913Y0007215D02*
X0043913Y0007058D01*
X0026315Y0006979D02*
X0026315Y0014853D01*
X0026512Y0015050D01*
X0030921Y0015089D02*
X0030921Y0022373D01*
X0033874Y0025326D01*
X0033913Y0025365D01*
X0033913Y0026743D01*
X0035961Y0029853D02*
X0036069Y0029851D01*
X0036177Y0029845D01*
X0036285Y0029836D01*
X0036392Y0029822D01*
X0036499Y0029805D01*
X0036605Y0029784D01*
X0036711Y0029759D01*
X0036815Y0029730D01*
X0036918Y0029698D01*
X0037020Y0029662D01*
X0037121Y0029622D01*
X0037220Y0029579D01*
X0037318Y0029532D01*
X0037414Y0029482D01*
X0037508Y0029429D01*
X0037600Y0029372D01*
X0037690Y0029312D01*
X0037777Y0029248D01*
X0037863Y0029182D01*
X0037946Y0029113D01*
X0038026Y0029040D01*
X0038104Y0028965D01*
X0038179Y0028887D01*
X0038252Y0028807D01*
X0038321Y0028724D01*
X0038387Y0028638D01*
X0038451Y0028551D01*
X0038511Y0028461D01*
X0038568Y0028369D01*
X0038621Y0028275D01*
X0038671Y0028179D01*
X0038718Y0028081D01*
X0038761Y0027982D01*
X0038801Y0027881D01*
X0038837Y0027779D01*
X0038869Y0027676D01*
X0038898Y0027572D01*
X0038923Y0027466D01*
X0038944Y0027360D01*
X0038961Y0027253D01*
X0038975Y0027146D01*
X0038984Y0027038D01*
X0038990Y0026930D01*
X0038992Y0026822D01*
X0038913Y0026743D01*
X0043913Y0028672D02*
X0043915Y0028776D01*
X0043913Y0028880D01*
X0043907Y0028984D01*
X0043897Y0029088D01*
X0043884Y0029192D01*
X0043866Y0029295D01*
X0043845Y0029397D01*
X0043821Y0029498D01*
X0043792Y0029598D01*
X0043760Y0029698D01*
X0043724Y0029796D01*
X0043685Y0029892D01*
X0043642Y0029988D01*
X0043596Y0030081D01*
X0043547Y0030173D01*
X0043494Y0030263D01*
X0043438Y0030351D01*
X0043378Y0030437D01*
X0043316Y0030520D01*
X0043250Y0030601D01*
X0043182Y0030680D01*
X0043111Y0030757D01*
X0043037Y0030830D01*
X0042960Y0030901D01*
X0042881Y0030969D01*
X0042800Y0031034D01*
X0042716Y0031096D01*
X0042630Y0031155D01*
X0042542Y0031211D01*
X0042452Y0031263D01*
X0042360Y0031313D01*
X0042266Y0031358D01*
X0042171Y0031401D01*
X0042074Y0031440D01*
X0041976Y0031475D01*
X0041876Y0031507D01*
X0041776Y0031535D01*
X0041674Y0031559D01*
X0041572Y0031580D01*
X0041469Y0031596D01*
X0041366Y0031610D01*
X0041262Y0031619D01*
X0041157Y0031624D01*
X0041157Y0031625D02*
X0026748Y0031625D01*
X0033047Y0029853D02*
X0035961Y0029853D01*
X0043913Y0028672D02*
X0043913Y0026743D01*
X0043913Y0026704D01*
X0054346Y0026310D02*
X0054346Y0021585D01*
X0057693Y0018239D01*
X0079740Y0018239D01*
X0082024Y0015956D01*
X0082024Y0014144D01*
X0074150Y0014144D02*
X0066079Y0014144D01*
X0069346Y0022058D02*
X0061394Y0022058D01*
X0060291Y0023160D01*
X0061433Y0023160D01*
X0069346Y0022058D02*
X0069543Y0022255D01*
X0077339Y0022255D01*
X0033047Y0029853D02*
X0032887Y0029851D01*
X0032726Y0029845D01*
X0032566Y0029835D01*
X0032406Y0029822D01*
X0032247Y0029804D01*
X0032088Y0029782D01*
X0031930Y0029757D01*
X0031772Y0029727D01*
X0031615Y0029694D01*
X0031459Y0029657D01*
X0031304Y0029616D01*
X0031150Y0029572D01*
X0030997Y0029523D01*
X0030845Y0029471D01*
X0030695Y0029415D01*
X0030546Y0029356D01*
X0030399Y0029292D01*
X0030253Y0029226D01*
X0030109Y0029155D01*
X0029966Y0029081D01*
X0029826Y0029004D01*
X0029687Y0028923D01*
X0029551Y0028839D01*
X0029416Y0028752D01*
X0029284Y0028661D01*
X0029154Y0028567D01*
X0029026Y0028470D01*
X0028901Y0028370D01*
X0028779Y0028266D01*
X0028658Y0028160D01*
X0028541Y0028051D01*
X0028426Y0027939D01*
X0028314Y0027824D01*
X0028205Y0027707D01*
X0028099Y0027586D01*
X0027995Y0027464D01*
X0027895Y0027339D01*
X0027798Y0027211D01*
X0027704Y0027081D01*
X0027613Y0026949D01*
X0027526Y0026814D01*
X0027442Y0026678D01*
X0027361Y0026539D01*
X0027284Y0026399D01*
X0027210Y0026256D01*
X0027139Y0026112D01*
X0027073Y0025966D01*
X0027009Y0025819D01*
X0026950Y0025670D01*
X0026894Y0025520D01*
X0026842Y0025368D01*
X0026793Y0025215D01*
X0026749Y0025061D01*
X0026708Y0024906D01*
X0026671Y0024750D01*
X0026638Y0024593D01*
X0026608Y0024435D01*
X0026583Y0024277D01*
X0026561Y0024118D01*
X0026543Y0023959D01*
X0026530Y0023799D01*
X0026520Y0023639D01*
X0026514Y0023478D01*
X0026512Y0023318D01*
X0018638Y0023318D02*
X0018638Y0023516D01*
X0018642Y0023714D01*
X0018652Y0023912D01*
X0018666Y0024110D01*
X0018686Y0024308D01*
X0018710Y0024505D01*
X0018738Y0024701D01*
X0018772Y0024896D01*
X0018810Y0025091D01*
X0018853Y0025285D01*
X0018900Y0025477D01*
X0018952Y0025669D01*
X0019009Y0025859D01*
X0019070Y0026048D01*
X0019136Y0026235D01*
X0019206Y0026420D01*
X0019281Y0026604D01*
X0019361Y0026786D01*
X0019444Y0026966D01*
X0019532Y0027143D01*
X0019624Y0027319D01*
X0019721Y0027492D01*
X0019821Y0027663D01*
X0019926Y0027832D01*
X0020035Y0027998D01*
X0020147Y0028161D01*
X0020264Y0028322D01*
X0020384Y0028479D01*
X0020509Y0028634D01*
X0020637Y0028786D01*
X0020768Y0028934D01*
X0020903Y0029079D01*
X0021042Y0029221D01*
X0021184Y0029360D01*
X0021329Y0029495D01*
X0021478Y0029626D01*
X0021629Y0029754D01*
X0021784Y0029878D01*
X0021942Y0029999D01*
X0022102Y0030115D01*
X0022265Y0030228D01*
X0022431Y0030337D01*
X0022600Y0030442D01*
X0022771Y0030542D01*
X0022944Y0030638D01*
X0023120Y0030731D01*
X0023298Y0030819D01*
X0023478Y0030902D01*
X0023659Y0030981D01*
X0023843Y0031056D01*
X0024029Y0031126D01*
X0024216Y0031192D01*
X0024405Y0031254D01*
X0024595Y0031310D01*
X0024786Y0031362D01*
X0024979Y0031410D01*
X0025172Y0031453D01*
X0025367Y0031491D01*
X0025563Y0031524D01*
X0025759Y0031553D01*
X0025956Y0031577D01*
X0026153Y0031596D01*
X0026351Y0031610D01*
X0026549Y0031620D01*
X0026748Y0031624D01*
X0018638Y0023318D02*
X0010921Y0023318D01*
X0006472Y0027767D01*
X0006472Y0017806D02*
X0006472Y0017767D01*
X0006591Y0017648D01*
X0009268Y0017648D01*
X0011866Y0015050D01*
X0018638Y0015050D01*
X0007260Y0006979D02*
X0006472Y0007767D01*
X0007260Y0006979D02*
X0018835Y0006979D01*
M02*
