G75*
%MOIN*%
%OFA0B0*%
%FSLAX25Y25*%
%IPPOS*%
%LPD*%
%AMOC8*
5,1,8,0,0,1.08239X$1,22.5*
%
%ADD10C,0.00000*%
%ADD11C,0.00100*%
%ADD12C,0.00400*%
%ADD13C,0.01600*%
%ADD14C,0.00600*%
%ADD15R,0.05512X0.02559*%
%ADD16R,0.02559X0.05512*%
D10*
X0001000Y0002294D02*
X0001000Y0034381D01*
X0086827Y0034381D01*
X0086827Y0002294D01*
X0001000Y0002294D01*
D11*
X0015026Y0028525D02*
X0016027Y0028525D01*
X0015527Y0028525D02*
X0015527Y0030026D01*
X0015026Y0029526D01*
X0016500Y0029776D02*
X0016750Y0030026D01*
X0017250Y0030026D01*
X0017500Y0029776D01*
X0016500Y0028775D01*
X0016750Y0028525D01*
X0017250Y0028525D01*
X0017500Y0028775D01*
X0017500Y0029776D01*
X0016500Y0029776D02*
X0016500Y0028775D01*
X0019446Y0028775D02*
X0019696Y0028525D01*
X0020447Y0028525D01*
X0020447Y0029526D01*
X0020919Y0029276D02*
X0021420Y0029276D01*
X0020919Y0030026D02*
X0020919Y0028525D01*
X0019446Y0028775D02*
X0019446Y0029526D01*
X0020919Y0030026D02*
X0021920Y0030026D01*
X0021675Y0030691D02*
X0021424Y0030691D01*
X0021424Y0031191D01*
X0021675Y0031441D01*
X0021675Y0031942D01*
X0021424Y0032192D01*
X0020924Y0032192D01*
X0020674Y0031942D01*
X0020674Y0031441D01*
X0020924Y0031191D01*
X0020924Y0030691D01*
X0020674Y0030691D01*
X0020197Y0030691D02*
X0019446Y0031191D01*
X0020197Y0031691D01*
X0019446Y0032192D02*
X0019446Y0030691D01*
X0017500Y0030941D02*
X0017250Y0030691D01*
X0016750Y0030691D01*
X0016500Y0030941D01*
X0017500Y0031942D01*
X0017500Y0030941D01*
X0016500Y0030941D02*
X0016500Y0031942D01*
X0016750Y0032192D01*
X0017250Y0032192D01*
X0017500Y0031942D01*
X0017250Y0032659D02*
X0016750Y0032659D01*
X0016500Y0032909D01*
X0017500Y0033910D01*
X0017500Y0032909D01*
X0017250Y0032659D01*
X0016500Y0032909D02*
X0016500Y0033910D01*
X0016750Y0034160D01*
X0017250Y0034160D01*
X0017500Y0033910D01*
X0015527Y0034160D02*
X0015026Y0033660D01*
X0015527Y0034160D02*
X0015527Y0032659D01*
X0015527Y0032192D02*
X0015527Y0030691D01*
X0016027Y0030691D02*
X0015026Y0030691D01*
X0015026Y0031691D02*
X0015527Y0032192D01*
X0015026Y0032659D02*
X0016027Y0032659D01*
X0019446Y0032659D02*
X0019446Y0034160D01*
X0019947Y0033660D01*
X0020447Y0034160D01*
X0020447Y0032659D01*
X0020919Y0032659D02*
X0021170Y0032659D01*
X0021170Y0033159D01*
X0020919Y0033410D01*
X0020919Y0033910D01*
X0021170Y0034160D01*
X0021670Y0034160D01*
X0021920Y0033910D01*
X0021920Y0033410D01*
X0021670Y0033159D01*
X0021670Y0032659D01*
X0021920Y0032659D01*
D12*
X0014152Y0019323D02*
X0014152Y0016254D01*
X0012617Y0017788D02*
X0015687Y0017788D01*
X0015687Y0007552D02*
X0012617Y0007552D01*
D13*
X0031709Y0006428D02*
X0051591Y0006428D01*
X0051591Y0026900D01*
X0031709Y0026900D01*
X0031709Y0006428D01*
X0035723Y0013318D02*
X0035725Y0013371D01*
X0035731Y0013424D01*
X0035741Y0013476D01*
X0035755Y0013527D01*
X0035772Y0013577D01*
X0035793Y0013626D01*
X0035818Y0013673D01*
X0035846Y0013718D01*
X0035878Y0013761D01*
X0035913Y0013801D01*
X0035950Y0013838D01*
X0035990Y0013873D01*
X0036033Y0013905D01*
X0036078Y0013933D01*
X0036125Y0013958D01*
X0036174Y0013979D01*
X0036224Y0013996D01*
X0036275Y0014010D01*
X0036327Y0014020D01*
X0036380Y0014026D01*
X0036433Y0014028D01*
X0036486Y0014026D01*
X0036539Y0014020D01*
X0036591Y0014010D01*
X0036642Y0013996D01*
X0036692Y0013979D01*
X0036741Y0013958D01*
X0036788Y0013933D01*
X0036833Y0013905D01*
X0036876Y0013873D01*
X0036916Y0013838D01*
X0036953Y0013801D01*
X0036988Y0013761D01*
X0037020Y0013718D01*
X0037048Y0013673D01*
X0037073Y0013626D01*
X0037094Y0013577D01*
X0037111Y0013527D01*
X0037125Y0013476D01*
X0037135Y0013424D01*
X0037141Y0013371D01*
X0037143Y0013318D01*
X0037141Y0013265D01*
X0037135Y0013212D01*
X0037125Y0013160D01*
X0037111Y0013109D01*
X0037094Y0013059D01*
X0037073Y0013010D01*
X0037048Y0012963D01*
X0037020Y0012918D01*
X0036988Y0012875D01*
X0036953Y0012835D01*
X0036916Y0012798D01*
X0036876Y0012763D01*
X0036833Y0012731D01*
X0036788Y0012703D01*
X0036741Y0012678D01*
X0036692Y0012657D01*
X0036642Y0012640D01*
X0036591Y0012626D01*
X0036539Y0012616D01*
X0036486Y0012610D01*
X0036433Y0012608D01*
X0036380Y0012610D01*
X0036327Y0012616D01*
X0036275Y0012626D01*
X0036224Y0012640D01*
X0036174Y0012657D01*
X0036125Y0012678D01*
X0036078Y0012703D01*
X0036033Y0012731D01*
X0035990Y0012763D01*
X0035950Y0012798D01*
X0035913Y0012835D01*
X0035878Y0012875D01*
X0035846Y0012918D01*
X0035818Y0012963D01*
X0035793Y0013010D01*
X0035772Y0013059D01*
X0035755Y0013109D01*
X0035741Y0013160D01*
X0035731Y0013212D01*
X0035725Y0013265D01*
X0035723Y0013318D01*
D14*
X0011472Y0015267D02*
X0008972Y0012767D01*
X0011472Y0010267D01*
X0011472Y0005267D01*
X0008972Y0002767D01*
X0003972Y0002767D01*
X0001472Y0005267D01*
X0001472Y0010267D01*
X0003972Y0012767D01*
X0001472Y0015267D01*
X0001472Y0020267D01*
X0003972Y0022767D01*
X0001472Y0025267D01*
X0001472Y0030267D01*
X0003972Y0032767D01*
X0008972Y0032767D01*
X0011472Y0030267D01*
X0011472Y0025267D01*
X0008972Y0022767D01*
X0011472Y0020267D01*
X0011472Y0015267D01*
X0008972Y0012767D02*
X0003972Y0012767D01*
X0003972Y0022767D02*
X0008972Y0022767D01*
D15*
X0061388Y0023074D03*
X0069352Y0023115D03*
X0069352Y0028915D03*
X0061388Y0028874D03*
D16*
X0025495Y0023312D03*
X0019695Y0023312D03*
X0019695Y0015044D03*
X0025495Y0015044D03*
X0075166Y0014150D03*
X0080966Y0014150D03*
M02*
