G75*
%MOIN*%
%OFA0B0*%
%FSLAX25Y25*%
%IPPOS*%
%LPD*%
%AMOC8*
5,1,8,0,0,1.08239X$1,22.5*
%
%ADD10C,0.00000*%
%ADD11R,0.05118X0.05906*%
%ADD12R,0.05906X0.05118*%
%ADD13R,0.09300X0.15000*%
%ADD14R,0.15000X0.09300*%
%ADD15R,0.05700X0.12600*%
%ADD16R,0.04331X0.05512*%
%ADD17R,0.05512X0.04331*%
%ADD18R,0.04600X0.06300*%
%ADD19R,0.01378X0.06693*%
D10*
X0001000Y0012811D02*
X0001000Y0154543D01*
X0001003Y0154828D01*
X0001014Y0155114D01*
X0001031Y0155399D01*
X0001055Y0155683D01*
X0001086Y0155967D01*
X0001124Y0156250D01*
X0001169Y0156531D01*
X0001220Y0156812D01*
X0001278Y0157092D01*
X0001343Y0157370D01*
X0001415Y0157646D01*
X0001493Y0157920D01*
X0001578Y0158193D01*
X0001670Y0158463D01*
X0001768Y0158731D01*
X0001872Y0158997D01*
X0001983Y0159260D01*
X0002100Y0159520D01*
X0002223Y0159778D01*
X0002353Y0160032D01*
X0002489Y0160283D01*
X0002630Y0160531D01*
X0002778Y0160775D01*
X0002931Y0161016D01*
X0003091Y0161252D01*
X0003256Y0161485D01*
X0003426Y0161714D01*
X0003602Y0161939D01*
X0003784Y0162159D01*
X0003970Y0162375D01*
X0004162Y0162586D01*
X0004359Y0162793D01*
X0004561Y0162995D01*
X0004768Y0163192D01*
X0004979Y0163384D01*
X0005195Y0163570D01*
X0005415Y0163752D01*
X0005640Y0163928D01*
X0005869Y0164098D01*
X0006102Y0164263D01*
X0006338Y0164423D01*
X0006579Y0164576D01*
X0006823Y0164724D01*
X0007071Y0164865D01*
X0007322Y0165001D01*
X0007576Y0165131D01*
X0007834Y0165254D01*
X0008094Y0165371D01*
X0008357Y0165482D01*
X0008623Y0165586D01*
X0008891Y0165684D01*
X0009161Y0165776D01*
X0009434Y0165861D01*
X0009708Y0165939D01*
X0009984Y0166011D01*
X0010262Y0166076D01*
X0010542Y0166134D01*
X0010823Y0166185D01*
X0011104Y0166230D01*
X0011387Y0166268D01*
X0011671Y0166299D01*
X0011955Y0166323D01*
X0012240Y0166340D01*
X0012526Y0166351D01*
X0012811Y0166354D01*
X0154543Y0166354D01*
X0154828Y0166351D01*
X0155114Y0166340D01*
X0155399Y0166323D01*
X0155683Y0166299D01*
X0155967Y0166268D01*
X0156250Y0166230D01*
X0156531Y0166185D01*
X0156812Y0166134D01*
X0157092Y0166076D01*
X0157370Y0166011D01*
X0157646Y0165939D01*
X0157920Y0165861D01*
X0158193Y0165776D01*
X0158463Y0165684D01*
X0158731Y0165586D01*
X0158997Y0165482D01*
X0159260Y0165371D01*
X0159520Y0165254D01*
X0159778Y0165131D01*
X0160032Y0165001D01*
X0160283Y0164865D01*
X0160531Y0164724D01*
X0160775Y0164576D01*
X0161016Y0164423D01*
X0161252Y0164263D01*
X0161485Y0164098D01*
X0161714Y0163928D01*
X0161939Y0163752D01*
X0162159Y0163570D01*
X0162375Y0163384D01*
X0162586Y0163192D01*
X0162793Y0162995D01*
X0162995Y0162793D01*
X0163192Y0162586D01*
X0163384Y0162375D01*
X0163570Y0162159D01*
X0163752Y0161939D01*
X0163928Y0161714D01*
X0164098Y0161485D01*
X0164263Y0161252D01*
X0164423Y0161016D01*
X0164576Y0160775D01*
X0164724Y0160531D01*
X0164865Y0160283D01*
X0165001Y0160032D01*
X0165131Y0159778D01*
X0165254Y0159520D01*
X0165371Y0159260D01*
X0165482Y0158997D01*
X0165586Y0158731D01*
X0165684Y0158463D01*
X0165776Y0158193D01*
X0165861Y0157920D01*
X0165939Y0157646D01*
X0166011Y0157370D01*
X0166076Y0157092D01*
X0166134Y0156812D01*
X0166185Y0156531D01*
X0166230Y0156250D01*
X0166268Y0155967D01*
X0166299Y0155683D01*
X0166323Y0155399D01*
X0166340Y0155114D01*
X0166351Y0154828D01*
X0166354Y0154543D01*
X0166354Y0012811D01*
X0166351Y0012526D01*
X0166340Y0012240D01*
X0166323Y0011955D01*
X0166299Y0011671D01*
X0166268Y0011387D01*
X0166230Y0011104D01*
X0166185Y0010823D01*
X0166134Y0010542D01*
X0166076Y0010262D01*
X0166011Y0009984D01*
X0165939Y0009708D01*
X0165861Y0009434D01*
X0165776Y0009161D01*
X0165684Y0008891D01*
X0165586Y0008623D01*
X0165482Y0008357D01*
X0165371Y0008094D01*
X0165254Y0007834D01*
X0165131Y0007576D01*
X0165001Y0007322D01*
X0164865Y0007071D01*
X0164724Y0006823D01*
X0164576Y0006579D01*
X0164423Y0006338D01*
X0164263Y0006102D01*
X0164098Y0005869D01*
X0163928Y0005640D01*
X0163752Y0005415D01*
X0163570Y0005195D01*
X0163384Y0004979D01*
X0163192Y0004768D01*
X0162995Y0004561D01*
X0162793Y0004359D01*
X0162586Y0004162D01*
X0162375Y0003970D01*
X0162159Y0003784D01*
X0161939Y0003602D01*
X0161714Y0003426D01*
X0161485Y0003256D01*
X0161252Y0003091D01*
X0161016Y0002931D01*
X0160775Y0002778D01*
X0160531Y0002630D01*
X0160283Y0002489D01*
X0160032Y0002353D01*
X0159778Y0002223D01*
X0159520Y0002100D01*
X0159260Y0001983D01*
X0158997Y0001872D01*
X0158731Y0001768D01*
X0158463Y0001670D01*
X0158193Y0001578D01*
X0157920Y0001493D01*
X0157646Y0001415D01*
X0157370Y0001343D01*
X0157092Y0001278D01*
X0156812Y0001220D01*
X0156531Y0001169D01*
X0156250Y0001124D01*
X0155967Y0001086D01*
X0155683Y0001055D01*
X0155399Y0001031D01*
X0155114Y0001014D01*
X0154828Y0001003D01*
X0154543Y0001000D01*
X0012811Y0001000D01*
X0012526Y0001003D01*
X0012240Y0001014D01*
X0011955Y0001031D01*
X0011671Y0001055D01*
X0011387Y0001086D01*
X0011104Y0001124D01*
X0010823Y0001169D01*
X0010542Y0001220D01*
X0010262Y0001278D01*
X0009984Y0001343D01*
X0009708Y0001415D01*
X0009434Y0001493D01*
X0009161Y0001578D01*
X0008891Y0001670D01*
X0008623Y0001768D01*
X0008357Y0001872D01*
X0008094Y0001983D01*
X0007834Y0002100D01*
X0007576Y0002223D01*
X0007322Y0002353D01*
X0007071Y0002489D01*
X0006823Y0002630D01*
X0006579Y0002778D01*
X0006338Y0002931D01*
X0006102Y0003091D01*
X0005869Y0003256D01*
X0005640Y0003426D01*
X0005415Y0003602D01*
X0005195Y0003784D01*
X0004979Y0003970D01*
X0004768Y0004162D01*
X0004561Y0004359D01*
X0004359Y0004561D01*
X0004162Y0004768D01*
X0003970Y0004979D01*
X0003784Y0005195D01*
X0003602Y0005415D01*
X0003426Y0005640D01*
X0003256Y0005869D01*
X0003091Y0006102D01*
X0002931Y0006338D01*
X0002778Y0006579D01*
X0002630Y0006823D01*
X0002489Y0007071D01*
X0002353Y0007322D01*
X0002223Y0007576D01*
X0002100Y0007834D01*
X0001983Y0008094D01*
X0001872Y0008357D01*
X0001768Y0008623D01*
X0001670Y0008891D01*
X0001578Y0009161D01*
X0001493Y0009434D01*
X0001415Y0009708D01*
X0001343Y0009984D01*
X0001278Y0010262D01*
X0001220Y0010542D01*
X0001169Y0010823D01*
X0001124Y0011104D01*
X0001086Y0011387D01*
X0001055Y0011671D01*
X0001031Y0011955D01*
X0001014Y0012240D01*
X0001003Y0012526D01*
X0001000Y0012811D01*
D11*
X0035843Y0081709D03*
X0042535Y0081709D03*
X0133087Y0148244D03*
X0139780Y0148244D03*
D12*
X0138795Y0139386D03*
X0138795Y0132693D03*
X0137614Y0094898D03*
X0137614Y0088205D03*
D13*
X0048689Y0138795D03*
X0029689Y0138795D03*
D14*
X0112811Y0129295D03*
X0112811Y0148295D03*
D15*
X0113661Y0111748D03*
X0105661Y0111748D03*
D16*
X0149819Y0138795D03*
X0157693Y0138795D03*
X0145094Y0049031D03*
X0137220Y0049031D03*
X0137220Y0026984D03*
X0145094Y0026984D03*
D17*
X0128559Y0062811D03*
X0128559Y0070685D03*
X0159268Y0091157D03*
X0159268Y0099031D03*
X0087614Y0070685D03*
X0087614Y0062811D03*
D18*
X0096425Y0084071D03*
X0102425Y0084071D03*
X0114142Y0084465D03*
X0120142Y0084465D03*
D19*
X0117929Y0039780D03*
X0115567Y0039780D03*
X0113205Y0039780D03*
X0110843Y0039780D03*
X0108480Y0039780D03*
X0106118Y0039780D03*
X0103756Y0039780D03*
X0101394Y0039780D03*
X0099031Y0039780D03*
X0096669Y0039780D03*
X0094307Y0039780D03*
X0091945Y0039780D03*
X0089583Y0039780D03*
X0087220Y0039780D03*
X0084858Y0039780D03*
X0082496Y0039780D03*
X0080134Y0039780D03*
X0077772Y0039780D03*
X0075409Y0039780D03*
X0073047Y0039780D03*
X0070685Y0039780D03*
X0068323Y0039780D03*
X0065961Y0039780D03*
X0063598Y0039780D03*
X0061236Y0039780D03*
X0058874Y0039780D03*
X0056512Y0039780D03*
X0054150Y0039780D03*
X0051787Y0039780D03*
X0049425Y0039780D03*
X0049425Y0017339D03*
X0051787Y0017339D03*
X0054150Y0017339D03*
X0056512Y0017339D03*
X0058874Y0017339D03*
X0061236Y0017339D03*
X0063598Y0017339D03*
X0065961Y0017339D03*
X0068323Y0017339D03*
X0070685Y0017339D03*
X0073047Y0017339D03*
X0075409Y0017339D03*
X0077772Y0017339D03*
X0080134Y0017339D03*
X0082496Y0017339D03*
X0084858Y0017339D03*
X0087220Y0017339D03*
X0089583Y0017339D03*
X0091945Y0017339D03*
X0094307Y0017339D03*
X0096669Y0017339D03*
X0099031Y0017339D03*
X0101394Y0017339D03*
X0103756Y0017339D03*
X0106118Y0017339D03*
X0108480Y0017339D03*
X0110843Y0017339D03*
X0113205Y0017339D03*
X0115567Y0017339D03*
X0117929Y0017339D03*
M02*
