%
M48
M72
T01C0.01181
T02C0.03543
T03C0.04000
T04C0.07874
%
T01
X49425Y45488
X51787Y49425
X56512Y45488
X58874Y49425
X61236Y45488
X63598Y49425
X70685Y45094
X77772Y45094
X89583Y45094
X99031Y45094
X108480Y45094
X112024Y46276
X109268Y49819
X117142Y56906
X119898Y51394
X125803Y49031
X121472Y37220
X141157Y31315
X150606Y32102
X153756Y33283
X159268Y35370
X149031Y40764
X151000Y49031
X154543Y56906
X142732Y56906
X133283Y66748
X143126Y76197
X142732Y83283
X151394Y75803
X156512Y83283
X142339Y93520
X145488Y100606
X153325Y109624
X159268Y110055
X157693Y128165
X154150Y129740
X149819Y133283
X160449Y133283
X146669Y144701
X134465Y139976
X123047Y126984
X138008Y121866
X131315Y108874
X125016Y108874
X134858Y101394
X125409Y84268
X131315Y79740
X117142Y75803
X108480Y86433
X106906Y91551
X112811Y89976
X99425Y76197
X99425Y67142
X103165Y67142
X99425Y56906
X75409Y57693
X75409Y71866
X79346Y84465
X69898Y86827
X47457Y106118
X50213Y108874
X38795Y107693
X29740Y112024
X46079Y95094
X37220Y86827
X82496Y124622
X90882Y128559
X90370Y133677
X85646Y134465
X82496Y139189
X72260Y139976
X72260Y134465
X74622Y154150
X82102Y154150
X97457Y133677
X108087Y137614
X91157Y26984
X99031Y26591
X101394Y11236
X117929Y10646
X129937Y14976
X82496Y11630
T02
X131315Y6906
X139189Y6906
T03
X159268Y30370
X159268Y40370
X159268Y50370
X138677Y159268
X128677Y159268
X118677Y159268
X108677Y159268
X98677Y159268
X88677Y159268
X78677Y159268
X68677Y159268
X58677Y159268
X48677Y159268
X38677Y159268
X28677Y159268
T04
X12811Y12811
X154543Y12811
X154543Y154543
X12811Y154543
M30
