G75*
%MOIN*%
%OFA0B0*%
%FSLAX25Y25*%
%IPPOS*%
%LPD*%
%AMOC8*
5,1,8,0,0,1.08239X$1,22.5*
%
%ADD10C,0.00000*%
%ADD11C,0.00300*%
%ADD12C,0.00600*%
%ADD13C,0.00400*%
%ADD14R,0.02559X0.05512*%
%ADD15R,0.05512X0.02559*%
D10*
X0001000Y0012811D02*
X0001000Y0154543D01*
X0001003Y0154828D01*
X0001014Y0155114D01*
X0001031Y0155399D01*
X0001055Y0155683D01*
X0001086Y0155967D01*
X0001124Y0156250D01*
X0001169Y0156531D01*
X0001220Y0156812D01*
X0001278Y0157092D01*
X0001343Y0157370D01*
X0001415Y0157646D01*
X0001493Y0157920D01*
X0001578Y0158193D01*
X0001670Y0158463D01*
X0001768Y0158731D01*
X0001872Y0158997D01*
X0001983Y0159260D01*
X0002100Y0159520D01*
X0002223Y0159778D01*
X0002353Y0160032D01*
X0002489Y0160283D01*
X0002630Y0160531D01*
X0002778Y0160775D01*
X0002931Y0161016D01*
X0003091Y0161252D01*
X0003256Y0161485D01*
X0003426Y0161714D01*
X0003602Y0161939D01*
X0003784Y0162159D01*
X0003970Y0162375D01*
X0004162Y0162586D01*
X0004359Y0162793D01*
X0004561Y0162995D01*
X0004768Y0163192D01*
X0004979Y0163384D01*
X0005195Y0163570D01*
X0005415Y0163752D01*
X0005640Y0163928D01*
X0005869Y0164098D01*
X0006102Y0164263D01*
X0006338Y0164423D01*
X0006579Y0164576D01*
X0006823Y0164724D01*
X0007071Y0164865D01*
X0007322Y0165001D01*
X0007576Y0165131D01*
X0007834Y0165254D01*
X0008094Y0165371D01*
X0008357Y0165482D01*
X0008623Y0165586D01*
X0008891Y0165684D01*
X0009161Y0165776D01*
X0009434Y0165861D01*
X0009708Y0165939D01*
X0009984Y0166011D01*
X0010262Y0166076D01*
X0010542Y0166134D01*
X0010823Y0166185D01*
X0011104Y0166230D01*
X0011387Y0166268D01*
X0011671Y0166299D01*
X0011955Y0166323D01*
X0012240Y0166340D01*
X0012526Y0166351D01*
X0012811Y0166354D01*
X0154543Y0166354D01*
X0154828Y0166351D01*
X0155114Y0166340D01*
X0155399Y0166323D01*
X0155683Y0166299D01*
X0155967Y0166268D01*
X0156250Y0166230D01*
X0156531Y0166185D01*
X0156812Y0166134D01*
X0157092Y0166076D01*
X0157370Y0166011D01*
X0157646Y0165939D01*
X0157920Y0165861D01*
X0158193Y0165776D01*
X0158463Y0165684D01*
X0158731Y0165586D01*
X0158997Y0165482D01*
X0159260Y0165371D01*
X0159520Y0165254D01*
X0159778Y0165131D01*
X0160032Y0165001D01*
X0160283Y0164865D01*
X0160531Y0164724D01*
X0160775Y0164576D01*
X0161016Y0164423D01*
X0161252Y0164263D01*
X0161485Y0164098D01*
X0161714Y0163928D01*
X0161939Y0163752D01*
X0162159Y0163570D01*
X0162375Y0163384D01*
X0162586Y0163192D01*
X0162793Y0162995D01*
X0162995Y0162793D01*
X0163192Y0162586D01*
X0163384Y0162375D01*
X0163570Y0162159D01*
X0163752Y0161939D01*
X0163928Y0161714D01*
X0164098Y0161485D01*
X0164263Y0161252D01*
X0164423Y0161016D01*
X0164576Y0160775D01*
X0164724Y0160531D01*
X0164865Y0160283D01*
X0165001Y0160032D01*
X0165131Y0159778D01*
X0165254Y0159520D01*
X0165371Y0159260D01*
X0165482Y0158997D01*
X0165586Y0158731D01*
X0165684Y0158463D01*
X0165776Y0158193D01*
X0165861Y0157920D01*
X0165939Y0157646D01*
X0166011Y0157370D01*
X0166076Y0157092D01*
X0166134Y0156812D01*
X0166185Y0156531D01*
X0166230Y0156250D01*
X0166268Y0155967D01*
X0166299Y0155683D01*
X0166323Y0155399D01*
X0166340Y0155114D01*
X0166351Y0154828D01*
X0166354Y0154543D01*
X0166354Y0012811D01*
X0166351Y0012526D01*
X0166340Y0012240D01*
X0166323Y0011955D01*
X0166299Y0011671D01*
X0166268Y0011387D01*
X0166230Y0011104D01*
X0166185Y0010823D01*
X0166134Y0010542D01*
X0166076Y0010262D01*
X0166011Y0009984D01*
X0165939Y0009708D01*
X0165861Y0009434D01*
X0165776Y0009161D01*
X0165684Y0008891D01*
X0165586Y0008623D01*
X0165482Y0008357D01*
X0165371Y0008094D01*
X0165254Y0007834D01*
X0165131Y0007576D01*
X0165001Y0007322D01*
X0164865Y0007071D01*
X0164724Y0006823D01*
X0164576Y0006579D01*
X0164423Y0006338D01*
X0164263Y0006102D01*
X0164098Y0005869D01*
X0163928Y0005640D01*
X0163752Y0005415D01*
X0163570Y0005195D01*
X0163384Y0004979D01*
X0163192Y0004768D01*
X0162995Y0004561D01*
X0162793Y0004359D01*
X0162586Y0004162D01*
X0162375Y0003970D01*
X0162159Y0003784D01*
X0161939Y0003602D01*
X0161714Y0003426D01*
X0161485Y0003256D01*
X0161252Y0003091D01*
X0161016Y0002931D01*
X0160775Y0002778D01*
X0160531Y0002630D01*
X0160283Y0002489D01*
X0160032Y0002353D01*
X0159778Y0002223D01*
X0159520Y0002100D01*
X0159260Y0001983D01*
X0158997Y0001872D01*
X0158731Y0001768D01*
X0158463Y0001670D01*
X0158193Y0001578D01*
X0157920Y0001493D01*
X0157646Y0001415D01*
X0157370Y0001343D01*
X0157092Y0001278D01*
X0156812Y0001220D01*
X0156531Y0001169D01*
X0156250Y0001124D01*
X0155967Y0001086D01*
X0155683Y0001055D01*
X0155399Y0001031D01*
X0155114Y0001014D01*
X0154828Y0001003D01*
X0154543Y0001000D01*
X0012811Y0001000D01*
X0012526Y0001003D01*
X0012240Y0001014D01*
X0011955Y0001031D01*
X0011671Y0001055D01*
X0011387Y0001086D01*
X0011104Y0001124D01*
X0010823Y0001169D01*
X0010542Y0001220D01*
X0010262Y0001278D01*
X0009984Y0001343D01*
X0009708Y0001415D01*
X0009434Y0001493D01*
X0009161Y0001578D01*
X0008891Y0001670D01*
X0008623Y0001768D01*
X0008357Y0001872D01*
X0008094Y0001983D01*
X0007834Y0002100D01*
X0007576Y0002223D01*
X0007322Y0002353D01*
X0007071Y0002489D01*
X0006823Y0002630D01*
X0006579Y0002778D01*
X0006338Y0002931D01*
X0006102Y0003091D01*
X0005869Y0003256D01*
X0005640Y0003426D01*
X0005415Y0003602D01*
X0005195Y0003784D01*
X0004979Y0003970D01*
X0004768Y0004162D01*
X0004561Y0004359D01*
X0004359Y0004561D01*
X0004162Y0004768D01*
X0003970Y0004979D01*
X0003784Y0005195D01*
X0003602Y0005415D01*
X0003426Y0005640D01*
X0003256Y0005869D01*
X0003091Y0006102D01*
X0002931Y0006338D01*
X0002778Y0006579D01*
X0002630Y0006823D01*
X0002489Y0007071D01*
X0002353Y0007322D01*
X0002223Y0007576D01*
X0002100Y0007834D01*
X0001983Y0008094D01*
X0001872Y0008357D01*
X0001768Y0008623D01*
X0001670Y0008891D01*
X0001578Y0009161D01*
X0001493Y0009434D01*
X0001415Y0009708D01*
X0001343Y0009984D01*
X0001278Y0010262D01*
X0001220Y0010542D01*
X0001169Y0010823D01*
X0001124Y0011104D01*
X0001086Y0011387D01*
X0001055Y0011671D01*
X0001031Y0011955D01*
X0001014Y0012240D01*
X0001003Y0012526D01*
X0001000Y0012811D01*
D11*
X0034399Y0085142D02*
X0037088Y0085142D01*
X0038387Y0085142D02*
X0041076Y0085142D01*
X0039731Y0085142D02*
X0039731Y0089176D01*
X0041076Y0087832D01*
X0042374Y0088504D02*
X0043047Y0089176D01*
X0044391Y0089176D01*
X0045064Y0088504D01*
X0045064Y0085814D01*
X0044391Y0085142D01*
X0043047Y0085142D01*
X0042374Y0085814D01*
X0037088Y0087832D02*
X0035744Y0089176D01*
X0035744Y0085142D01*
X0079953Y0068868D02*
X0079953Y0067654D01*
X0080560Y0067048D01*
X0079953Y0065849D02*
X0081167Y0064636D01*
X0081167Y0065243D02*
X0081167Y0063423D01*
X0079953Y0063423D02*
X0083593Y0063423D01*
X0083593Y0065243D01*
X0082987Y0065849D01*
X0081773Y0065849D01*
X0081167Y0065243D01*
X0082987Y0067048D02*
X0083593Y0067654D01*
X0083593Y0068868D01*
X0082987Y0069474D01*
X0082380Y0069474D01*
X0081773Y0068868D01*
X0081167Y0069474D01*
X0080560Y0069474D01*
X0079953Y0068868D01*
X0081773Y0068868D02*
X0081773Y0068261D01*
X0130221Y0089033D02*
X0130221Y0090246D01*
X0130828Y0090853D01*
X0130828Y0092052D02*
X0130221Y0092052D01*
X0130828Y0092052D02*
X0133254Y0094478D01*
X0133861Y0094478D01*
X0133861Y0092052D01*
X0133254Y0090853D02*
X0133861Y0090246D01*
X0133861Y0089033D01*
X0133254Y0088426D01*
X0130828Y0088426D01*
X0130221Y0089033D01*
X0155754Y0100032D02*
X0158181Y0100032D01*
X0155754Y0102459D01*
X0155754Y0103065D01*
X0156361Y0103672D01*
X0157574Y0103672D01*
X0158181Y0103065D01*
X0159379Y0103065D02*
X0159379Y0101852D01*
X0159986Y0101245D01*
X0161806Y0101245D01*
X0161806Y0100032D02*
X0161806Y0103672D01*
X0159986Y0103672D01*
X0159379Y0103065D01*
X0160592Y0101245D02*
X0159379Y0100032D01*
X0145853Y0130708D02*
X0143426Y0130708D01*
X0142819Y0131315D01*
X0142819Y0132528D01*
X0143426Y0133135D01*
X0142819Y0134333D02*
X0142819Y0136760D01*
X0142819Y0135547D02*
X0146459Y0135547D01*
X0145246Y0134333D01*
X0145853Y0133135D02*
X0146459Y0132528D01*
X0146459Y0131315D01*
X0145853Y0130708D01*
X0145853Y0137959D02*
X0146459Y0138565D01*
X0146459Y0139779D01*
X0145853Y0140385D01*
X0145246Y0140385D01*
X0144639Y0139779D01*
X0144033Y0140385D01*
X0143426Y0140385D01*
X0142819Y0139779D01*
X0142819Y0138565D01*
X0143426Y0137959D01*
X0144639Y0139172D02*
X0144639Y0139779D01*
X0139258Y0151607D02*
X0138045Y0151607D01*
X0137438Y0152213D01*
X0136240Y0151607D02*
X0133813Y0151607D01*
X0135026Y0151607D02*
X0135026Y0155247D01*
X0136240Y0154033D01*
X0137438Y0154640D02*
X0138045Y0155247D01*
X0139258Y0155247D01*
X0139865Y0154640D01*
X0139865Y0152213D01*
X0139258Y0151607D01*
X0160662Y0143909D02*
X0160662Y0142695D01*
X0161268Y0142089D01*
X0160662Y0140890D02*
X0160662Y0138463D01*
X0160662Y0137265D02*
X0161875Y0136052D01*
X0161875Y0136658D02*
X0161875Y0134838D01*
X0160662Y0134838D02*
X0164302Y0134838D01*
X0164302Y0136658D01*
X0163695Y0137265D01*
X0162482Y0137265D01*
X0161875Y0136658D01*
X0163089Y0138463D02*
X0164302Y0139677D01*
X0160662Y0139677D01*
X0163695Y0142089D02*
X0164302Y0142695D01*
X0164302Y0143909D01*
X0163695Y0144515D01*
X0163089Y0144515D01*
X0162482Y0143909D01*
X0161875Y0144515D01*
X0161268Y0144515D01*
X0160662Y0143909D01*
X0162482Y0143909D02*
X0162482Y0143302D01*
X0145807Y0055908D02*
X0143987Y0055908D01*
X0143381Y0055302D01*
X0143381Y0054088D01*
X0143987Y0053481D01*
X0145807Y0053481D01*
X0145807Y0052268D02*
X0145807Y0055908D01*
X0144594Y0053481D02*
X0143381Y0052268D01*
X0142182Y0052268D02*
X0139756Y0052268D01*
X0140969Y0052268D02*
X0140969Y0055908D01*
X0142182Y0054695D01*
X0138557Y0054695D02*
X0137950Y0054088D01*
X0136130Y0054088D01*
X0136130Y0052875D02*
X0136130Y0055302D01*
X0136737Y0055908D01*
X0137950Y0055908D01*
X0138557Y0055302D01*
X0138557Y0054695D01*
X0138557Y0052875D02*
X0137950Y0052268D01*
X0136737Y0052268D01*
X0136130Y0052875D01*
X0137131Y0022444D02*
X0136524Y0021837D01*
X0136524Y0021230D01*
X0137131Y0020624D01*
X0138344Y0020624D01*
X0138951Y0021230D01*
X0138951Y0021837D01*
X0138344Y0022444D01*
X0137131Y0022444D01*
X0137131Y0020624D02*
X0136524Y0020017D01*
X0136524Y0019410D01*
X0137131Y0018804D01*
X0138344Y0018804D01*
X0138951Y0019410D01*
X0138951Y0020017D01*
X0138344Y0020624D01*
X0140149Y0018804D02*
X0142576Y0018804D01*
X0143774Y0018804D02*
X0144988Y0020017D01*
X0144381Y0020017D02*
X0146201Y0020017D01*
X0146201Y0018804D02*
X0146201Y0022444D01*
X0144381Y0022444D01*
X0143774Y0021837D01*
X0143774Y0020624D01*
X0144381Y0020017D01*
X0142576Y0021230D02*
X0141363Y0022444D01*
X0141363Y0018804D01*
D12*
X0104925Y0080071D02*
X0093925Y0080071D01*
X0093865Y0080073D01*
X0093804Y0080078D01*
X0093745Y0080087D01*
X0093686Y0080100D01*
X0093627Y0080116D01*
X0093570Y0080136D01*
X0093515Y0080159D01*
X0093460Y0080186D01*
X0093408Y0080215D01*
X0093357Y0080248D01*
X0093308Y0080284D01*
X0093262Y0080322D01*
X0093218Y0080364D01*
X0093176Y0080408D01*
X0093138Y0080454D01*
X0093102Y0080503D01*
X0093069Y0080554D01*
X0093040Y0080606D01*
X0093013Y0080661D01*
X0092990Y0080716D01*
X0092970Y0080773D01*
X0092954Y0080832D01*
X0092941Y0080891D01*
X0092932Y0080950D01*
X0092927Y0081011D01*
X0092925Y0081071D01*
X0092925Y0087071D01*
X0092927Y0087131D01*
X0092932Y0087192D01*
X0092941Y0087251D01*
X0092954Y0087310D01*
X0092970Y0087369D01*
X0092990Y0087426D01*
X0093013Y0087481D01*
X0093040Y0087536D01*
X0093069Y0087588D01*
X0093102Y0087639D01*
X0093138Y0087688D01*
X0093176Y0087734D01*
X0093218Y0087778D01*
X0093262Y0087820D01*
X0093308Y0087858D01*
X0093357Y0087894D01*
X0093408Y0087927D01*
X0093460Y0087956D01*
X0093515Y0087983D01*
X0093570Y0088006D01*
X0093627Y0088026D01*
X0093686Y0088042D01*
X0093745Y0088055D01*
X0093804Y0088064D01*
X0093865Y0088069D01*
X0093925Y0088071D01*
X0104925Y0088071D01*
X0104985Y0088069D01*
X0105046Y0088064D01*
X0105105Y0088055D01*
X0105164Y0088042D01*
X0105223Y0088026D01*
X0105280Y0088006D01*
X0105335Y0087983D01*
X0105390Y0087956D01*
X0105442Y0087927D01*
X0105493Y0087894D01*
X0105542Y0087858D01*
X0105588Y0087820D01*
X0105632Y0087778D01*
X0105674Y0087734D01*
X0105712Y0087688D01*
X0105748Y0087639D01*
X0105781Y0087588D01*
X0105810Y0087536D01*
X0105837Y0087481D01*
X0105860Y0087426D01*
X0105880Y0087369D01*
X0105896Y0087310D01*
X0105909Y0087251D01*
X0105918Y0087192D01*
X0105923Y0087131D01*
X0105925Y0087071D01*
X0105925Y0081071D01*
X0105923Y0081011D01*
X0105918Y0080950D01*
X0105909Y0080891D01*
X0105896Y0080832D01*
X0105880Y0080773D01*
X0105860Y0080716D01*
X0105837Y0080661D01*
X0105810Y0080606D01*
X0105781Y0080554D01*
X0105748Y0080503D01*
X0105712Y0080454D01*
X0105674Y0080408D01*
X0105632Y0080364D01*
X0105588Y0080322D01*
X0105542Y0080284D01*
X0105493Y0080248D01*
X0105442Y0080215D01*
X0105390Y0080186D01*
X0105335Y0080159D01*
X0105280Y0080136D01*
X0105223Y0080116D01*
X0105164Y0080100D01*
X0105105Y0080087D01*
X0105046Y0080078D01*
X0104985Y0080073D01*
X0104925Y0080071D01*
X0110642Y0081465D02*
X0110642Y0087465D01*
X0110644Y0087525D01*
X0110649Y0087586D01*
X0110658Y0087645D01*
X0110671Y0087704D01*
X0110687Y0087763D01*
X0110707Y0087820D01*
X0110730Y0087875D01*
X0110757Y0087930D01*
X0110786Y0087982D01*
X0110819Y0088033D01*
X0110855Y0088082D01*
X0110893Y0088128D01*
X0110935Y0088172D01*
X0110979Y0088214D01*
X0111025Y0088252D01*
X0111074Y0088288D01*
X0111125Y0088321D01*
X0111177Y0088350D01*
X0111232Y0088377D01*
X0111287Y0088400D01*
X0111344Y0088420D01*
X0111403Y0088436D01*
X0111462Y0088449D01*
X0111521Y0088458D01*
X0111582Y0088463D01*
X0111642Y0088465D01*
X0122642Y0088465D01*
X0122702Y0088463D01*
X0122763Y0088458D01*
X0122822Y0088449D01*
X0122881Y0088436D01*
X0122940Y0088420D01*
X0122997Y0088400D01*
X0123052Y0088377D01*
X0123107Y0088350D01*
X0123159Y0088321D01*
X0123210Y0088288D01*
X0123259Y0088252D01*
X0123305Y0088214D01*
X0123349Y0088172D01*
X0123391Y0088128D01*
X0123429Y0088082D01*
X0123465Y0088033D01*
X0123498Y0087982D01*
X0123527Y0087930D01*
X0123554Y0087875D01*
X0123577Y0087820D01*
X0123597Y0087763D01*
X0123613Y0087704D01*
X0123626Y0087645D01*
X0123635Y0087586D01*
X0123640Y0087525D01*
X0123642Y0087465D01*
X0123642Y0081465D01*
X0123640Y0081405D01*
X0123635Y0081344D01*
X0123626Y0081285D01*
X0123613Y0081226D01*
X0123597Y0081167D01*
X0123577Y0081110D01*
X0123554Y0081055D01*
X0123527Y0081000D01*
X0123498Y0080948D01*
X0123465Y0080897D01*
X0123429Y0080848D01*
X0123391Y0080802D01*
X0123349Y0080758D01*
X0123305Y0080716D01*
X0123259Y0080678D01*
X0123210Y0080642D01*
X0123159Y0080609D01*
X0123107Y0080580D01*
X0123052Y0080553D01*
X0122997Y0080530D01*
X0122940Y0080510D01*
X0122881Y0080494D01*
X0122822Y0080481D01*
X0122763Y0080472D01*
X0122702Y0080467D01*
X0122642Y0080465D01*
X0111642Y0080465D01*
X0111582Y0080467D01*
X0111521Y0080472D01*
X0111462Y0080481D01*
X0111403Y0080494D01*
X0111344Y0080510D01*
X0111287Y0080530D01*
X0111232Y0080553D01*
X0111177Y0080580D01*
X0111125Y0080609D01*
X0111074Y0080642D01*
X0111025Y0080678D01*
X0110979Y0080716D01*
X0110935Y0080758D01*
X0110893Y0080802D01*
X0110855Y0080848D01*
X0110819Y0080897D01*
X0110786Y0080948D01*
X0110757Y0081000D01*
X0110730Y0081055D01*
X0110707Y0081110D01*
X0110687Y0081167D01*
X0110671Y0081226D01*
X0110658Y0081285D01*
X0110649Y0081344D01*
X0110644Y0081405D01*
X0110642Y0081465D01*
X0104011Y0125195D02*
X0100011Y0125195D01*
X0100011Y0152395D01*
X0104011Y0152395D01*
X0121611Y0152395D02*
X0125611Y0152395D01*
X0125611Y0125195D01*
X0121611Y0125195D01*
X0121611Y0127595D02*
X0125611Y0131595D01*
X0104011Y0127595D02*
X0100011Y0131595D01*
X0052789Y0129995D02*
X0052789Y0125995D01*
X0025589Y0125995D01*
X0025589Y0129995D01*
X0025589Y0147595D02*
X0025589Y0151595D01*
X0052789Y0151595D01*
X0052789Y0147595D01*
X0050389Y0147595D02*
X0046389Y0151595D01*
X0050389Y0129995D02*
X0046389Y0125995D01*
D13*
X0042723Y0137054D02*
X0040363Y0137054D01*
X0039098Y0137054D02*
X0036738Y0137054D01*
X0037918Y0137054D02*
X0037918Y0140594D01*
X0039098Y0139414D01*
X0042723Y0140594D02*
X0042723Y0137054D01*
X0094852Y0091776D02*
X0095442Y0092366D01*
X0096622Y0092366D01*
X0097212Y0091776D01*
X0098477Y0092366D02*
X0099657Y0092366D01*
X0099067Y0092366D02*
X0099067Y0089416D01*
X0099657Y0088826D01*
X0100247Y0088826D01*
X0100837Y0089416D01*
X0102102Y0089416D02*
X0102692Y0088826D01*
X0103872Y0088826D01*
X0104462Y0089416D01*
X0103872Y0090596D02*
X0102692Y0090596D01*
X0102102Y0090006D01*
X0102102Y0089416D01*
X0103872Y0090596D02*
X0104462Y0091186D01*
X0104462Y0091776D01*
X0103872Y0092366D01*
X0102692Y0092366D01*
X0102102Y0091776D01*
X0097212Y0088826D02*
X0094852Y0091186D01*
X0094852Y0091776D01*
X0094852Y0088826D02*
X0097212Y0088826D01*
X0112568Y0089220D02*
X0114928Y0089220D01*
X0113748Y0089220D02*
X0113748Y0092760D01*
X0114928Y0091580D01*
X0116194Y0092760D02*
X0117374Y0092760D01*
X0116784Y0092760D02*
X0116784Y0089810D01*
X0117374Y0089220D01*
X0117964Y0089220D01*
X0118554Y0089810D01*
X0119819Y0089810D02*
X0119819Y0090400D01*
X0120409Y0090990D01*
X0121589Y0090990D01*
X0122179Y0091580D01*
X0122179Y0092170D01*
X0121589Y0092760D01*
X0120409Y0092760D01*
X0119819Y0092170D01*
X0119819Y0089810D02*
X0120409Y0089220D01*
X0121589Y0089220D01*
X0122179Y0089810D01*
X0125299Y0076331D02*
X0127601Y0074030D01*
X0124532Y0074030D01*
X0125299Y0076331D02*
X0125299Y0071728D01*
X0129135Y0071728D02*
X0130670Y0073262D01*
X0129903Y0073262D02*
X0132205Y0073262D01*
X0132205Y0071728D02*
X0132205Y0076331D01*
X0129903Y0076331D01*
X0129135Y0075564D01*
X0129135Y0074030D01*
X0129903Y0073262D01*
X0113289Y0109899D02*
X0110929Y0109899D01*
X0109664Y0111669D02*
X0107304Y0111669D01*
X0107894Y0109899D02*
X0107894Y0113439D01*
X0109664Y0111669D01*
X0113289Y0113439D02*
X0113289Y0109899D01*
X0113591Y0126030D02*
X0115951Y0126030D01*
X0115951Y0129570D01*
X0112326Y0128980D02*
X0111736Y0129570D01*
X0110556Y0129570D01*
X0109966Y0128980D01*
X0109966Y0128390D01*
X0110556Y0127800D01*
X0109966Y0127210D01*
X0109966Y0126620D01*
X0110556Y0126030D01*
X0111736Y0126030D01*
X0112326Y0126620D01*
X0111146Y0127800D02*
X0110556Y0127800D01*
D14*
X0150835Y0138789D03*
X0156635Y0138789D03*
X0144037Y0049026D03*
X0138237Y0049026D03*
X0138237Y0026978D03*
X0144037Y0026978D03*
D15*
X0128553Y0063869D03*
X0128553Y0069669D03*
X0159274Y0092174D03*
X0159274Y0097974D03*
X0087620Y0069628D03*
X0087620Y0063828D03*
M02*
