G75*
%MOIN*%
%OFA0B0*%
%FSLAX25Y25*%
%IPPOS*%
%LPD*%
%AMOC8*
5,1,8,0,0,1.08239X$1,22.5*
%
%ADD10C,0.00000*%
%ADD11C,0.00300*%
%ADD12C,0.00600*%
%ADD13C,0.00500*%
%ADD14C,0.00400*%
%ADD15R,0.02559X0.05512*%
%ADD16R,0.05512X0.02559*%
%ADD17C,0.00800*%
%ADD18C,0.00100*%
D10*
X0001000Y0012811D02*
X0001000Y0154543D01*
X0001003Y0154828D01*
X0001014Y0155114D01*
X0001031Y0155399D01*
X0001055Y0155683D01*
X0001086Y0155967D01*
X0001124Y0156250D01*
X0001169Y0156531D01*
X0001220Y0156812D01*
X0001278Y0157092D01*
X0001343Y0157370D01*
X0001415Y0157646D01*
X0001493Y0157920D01*
X0001578Y0158193D01*
X0001670Y0158463D01*
X0001768Y0158731D01*
X0001872Y0158997D01*
X0001983Y0159260D01*
X0002100Y0159520D01*
X0002223Y0159778D01*
X0002353Y0160032D01*
X0002489Y0160283D01*
X0002630Y0160531D01*
X0002778Y0160775D01*
X0002931Y0161016D01*
X0003091Y0161252D01*
X0003256Y0161485D01*
X0003426Y0161714D01*
X0003602Y0161939D01*
X0003784Y0162159D01*
X0003970Y0162375D01*
X0004162Y0162586D01*
X0004359Y0162793D01*
X0004561Y0162995D01*
X0004768Y0163192D01*
X0004979Y0163384D01*
X0005195Y0163570D01*
X0005415Y0163752D01*
X0005640Y0163928D01*
X0005869Y0164098D01*
X0006102Y0164263D01*
X0006338Y0164423D01*
X0006579Y0164576D01*
X0006823Y0164724D01*
X0007071Y0164865D01*
X0007322Y0165001D01*
X0007576Y0165131D01*
X0007834Y0165254D01*
X0008094Y0165371D01*
X0008357Y0165482D01*
X0008623Y0165586D01*
X0008891Y0165684D01*
X0009161Y0165776D01*
X0009434Y0165861D01*
X0009708Y0165939D01*
X0009984Y0166011D01*
X0010262Y0166076D01*
X0010542Y0166134D01*
X0010823Y0166185D01*
X0011104Y0166230D01*
X0011387Y0166268D01*
X0011671Y0166299D01*
X0011955Y0166323D01*
X0012240Y0166340D01*
X0012526Y0166351D01*
X0012811Y0166354D01*
X0154543Y0166354D01*
X0154828Y0166351D01*
X0155114Y0166340D01*
X0155399Y0166323D01*
X0155683Y0166299D01*
X0155967Y0166268D01*
X0156250Y0166230D01*
X0156531Y0166185D01*
X0156812Y0166134D01*
X0157092Y0166076D01*
X0157370Y0166011D01*
X0157646Y0165939D01*
X0157920Y0165861D01*
X0158193Y0165776D01*
X0158463Y0165684D01*
X0158731Y0165586D01*
X0158997Y0165482D01*
X0159260Y0165371D01*
X0159520Y0165254D01*
X0159778Y0165131D01*
X0160032Y0165001D01*
X0160283Y0164865D01*
X0160531Y0164724D01*
X0160775Y0164576D01*
X0161016Y0164423D01*
X0161252Y0164263D01*
X0161485Y0164098D01*
X0161714Y0163928D01*
X0161939Y0163752D01*
X0162159Y0163570D01*
X0162375Y0163384D01*
X0162586Y0163192D01*
X0162793Y0162995D01*
X0162995Y0162793D01*
X0163192Y0162586D01*
X0163384Y0162375D01*
X0163570Y0162159D01*
X0163752Y0161939D01*
X0163928Y0161714D01*
X0164098Y0161485D01*
X0164263Y0161252D01*
X0164423Y0161016D01*
X0164576Y0160775D01*
X0164724Y0160531D01*
X0164865Y0160283D01*
X0165001Y0160032D01*
X0165131Y0159778D01*
X0165254Y0159520D01*
X0165371Y0159260D01*
X0165482Y0158997D01*
X0165586Y0158731D01*
X0165684Y0158463D01*
X0165776Y0158193D01*
X0165861Y0157920D01*
X0165939Y0157646D01*
X0166011Y0157370D01*
X0166076Y0157092D01*
X0166134Y0156812D01*
X0166185Y0156531D01*
X0166230Y0156250D01*
X0166268Y0155967D01*
X0166299Y0155683D01*
X0166323Y0155399D01*
X0166340Y0155114D01*
X0166351Y0154828D01*
X0166354Y0154543D01*
X0166354Y0012811D01*
X0166351Y0012526D01*
X0166340Y0012240D01*
X0166323Y0011955D01*
X0166299Y0011671D01*
X0166268Y0011387D01*
X0166230Y0011104D01*
X0166185Y0010823D01*
X0166134Y0010542D01*
X0166076Y0010262D01*
X0166011Y0009984D01*
X0165939Y0009708D01*
X0165861Y0009434D01*
X0165776Y0009161D01*
X0165684Y0008891D01*
X0165586Y0008623D01*
X0165482Y0008357D01*
X0165371Y0008094D01*
X0165254Y0007834D01*
X0165131Y0007576D01*
X0165001Y0007322D01*
X0164865Y0007071D01*
X0164724Y0006823D01*
X0164576Y0006579D01*
X0164423Y0006338D01*
X0164263Y0006102D01*
X0164098Y0005869D01*
X0163928Y0005640D01*
X0163752Y0005415D01*
X0163570Y0005195D01*
X0163384Y0004979D01*
X0163192Y0004768D01*
X0162995Y0004561D01*
X0162793Y0004359D01*
X0162586Y0004162D01*
X0162375Y0003970D01*
X0162159Y0003784D01*
X0161939Y0003602D01*
X0161714Y0003426D01*
X0161485Y0003256D01*
X0161252Y0003091D01*
X0161016Y0002931D01*
X0160775Y0002778D01*
X0160531Y0002630D01*
X0160283Y0002489D01*
X0160032Y0002353D01*
X0159778Y0002223D01*
X0159520Y0002100D01*
X0159260Y0001983D01*
X0158997Y0001872D01*
X0158731Y0001768D01*
X0158463Y0001670D01*
X0158193Y0001578D01*
X0157920Y0001493D01*
X0157646Y0001415D01*
X0157370Y0001343D01*
X0157092Y0001278D01*
X0156812Y0001220D01*
X0156531Y0001169D01*
X0156250Y0001124D01*
X0155967Y0001086D01*
X0155683Y0001055D01*
X0155399Y0001031D01*
X0155114Y0001014D01*
X0154828Y0001003D01*
X0154543Y0001000D01*
X0012811Y0001000D01*
X0012526Y0001003D01*
X0012240Y0001014D01*
X0011955Y0001031D01*
X0011671Y0001055D01*
X0011387Y0001086D01*
X0011104Y0001124D01*
X0010823Y0001169D01*
X0010542Y0001220D01*
X0010262Y0001278D01*
X0009984Y0001343D01*
X0009708Y0001415D01*
X0009434Y0001493D01*
X0009161Y0001578D01*
X0008891Y0001670D01*
X0008623Y0001768D01*
X0008357Y0001872D01*
X0008094Y0001983D01*
X0007834Y0002100D01*
X0007576Y0002223D01*
X0007322Y0002353D01*
X0007071Y0002489D01*
X0006823Y0002630D01*
X0006579Y0002778D01*
X0006338Y0002931D01*
X0006102Y0003091D01*
X0005869Y0003256D01*
X0005640Y0003426D01*
X0005415Y0003602D01*
X0005195Y0003784D01*
X0004979Y0003970D01*
X0004768Y0004162D01*
X0004561Y0004359D01*
X0004359Y0004561D01*
X0004162Y0004768D01*
X0003970Y0004979D01*
X0003784Y0005195D01*
X0003602Y0005415D01*
X0003426Y0005640D01*
X0003256Y0005869D01*
X0003091Y0006102D01*
X0002931Y0006338D01*
X0002778Y0006579D01*
X0002630Y0006823D01*
X0002489Y0007071D01*
X0002353Y0007322D01*
X0002223Y0007576D01*
X0002100Y0007834D01*
X0001983Y0008094D01*
X0001872Y0008357D01*
X0001768Y0008623D01*
X0001670Y0008891D01*
X0001578Y0009161D01*
X0001493Y0009434D01*
X0001415Y0009708D01*
X0001343Y0009984D01*
X0001278Y0010262D01*
X0001220Y0010542D01*
X0001169Y0010823D01*
X0001124Y0011104D01*
X0001086Y0011387D01*
X0001055Y0011671D01*
X0001031Y0011955D01*
X0001014Y0012240D01*
X0001003Y0012526D01*
X0001000Y0012811D01*
D11*
X0034838Y0066174D02*
X0034838Y0069814D01*
X0036658Y0069814D01*
X0037265Y0069207D01*
X0037265Y0067994D01*
X0036658Y0067387D01*
X0034838Y0067387D01*
X0036052Y0067387D02*
X0037265Y0066174D01*
X0038463Y0066174D02*
X0040890Y0066174D01*
X0042089Y0066174D02*
X0044515Y0066174D01*
X0043302Y0066174D02*
X0043302Y0069814D01*
X0042089Y0068600D01*
X0039677Y0069814D02*
X0039677Y0066174D01*
X0038463Y0068600D02*
X0039677Y0069814D01*
X0048224Y0073260D02*
X0048224Y0076900D01*
X0050044Y0076900D01*
X0050651Y0076294D01*
X0050651Y0075080D01*
X0050044Y0074474D01*
X0048224Y0074474D01*
X0049437Y0074474D02*
X0050651Y0073260D01*
X0051849Y0073260D02*
X0054276Y0073260D01*
X0055474Y0073260D02*
X0055474Y0073867D01*
X0057901Y0076294D01*
X0057901Y0076900D01*
X0055474Y0076900D01*
X0053063Y0076900D02*
X0053063Y0073260D01*
X0051849Y0075687D02*
X0053063Y0076900D01*
X0061100Y0078733D02*
X0061100Y0082373D01*
X0062920Y0082373D01*
X0063526Y0081766D01*
X0063526Y0080553D01*
X0062920Y0079946D01*
X0061100Y0079946D01*
X0062313Y0079946D02*
X0063526Y0078733D01*
X0064725Y0079339D02*
X0064725Y0079946D01*
X0065331Y0080553D01*
X0066545Y0080553D01*
X0067152Y0079946D01*
X0067152Y0079339D01*
X0066545Y0078733D01*
X0065331Y0078733D01*
X0064725Y0079339D01*
X0065331Y0080553D02*
X0064725Y0081159D01*
X0064725Y0081766D01*
X0065331Y0082373D01*
X0066545Y0082373D01*
X0067152Y0081766D01*
X0067152Y0081159D01*
X0066545Y0080553D01*
X0077989Y0074144D02*
X0077989Y0070504D01*
X0077989Y0071718D02*
X0079809Y0071718D01*
X0080416Y0072324D01*
X0080416Y0073538D01*
X0079809Y0074144D01*
X0077989Y0074144D01*
X0079203Y0071718D02*
X0080416Y0070504D01*
X0081615Y0070504D02*
X0081615Y0071111D01*
X0084041Y0073538D01*
X0084041Y0074144D01*
X0081615Y0074144D01*
X0089955Y0061634D02*
X0093091Y0058498D01*
X0091523Y0058498D02*
X0091523Y0061634D01*
X0093091Y0061634D02*
X0089955Y0058498D01*
X0089955Y0060066D02*
X0093091Y0060066D01*
X0095950Y0084221D02*
X0095950Y0087861D01*
X0097770Y0087861D01*
X0098377Y0087254D01*
X0098377Y0086041D01*
X0097770Y0085434D01*
X0095950Y0085434D01*
X0097163Y0085434D02*
X0098377Y0084221D01*
X0099575Y0084828D02*
X0100182Y0084221D01*
X0101395Y0084221D01*
X0102002Y0084828D01*
X0102002Y0086041D01*
X0101395Y0086648D01*
X0100789Y0086648D01*
X0099575Y0086041D01*
X0099575Y0087861D01*
X0102002Y0087861D01*
X0114848Y0087467D02*
X0114848Y0083827D01*
X0114848Y0085041D02*
X0116668Y0085041D01*
X0117274Y0085647D01*
X0117274Y0086861D01*
X0116668Y0087467D01*
X0114848Y0087467D01*
X0116061Y0085041D02*
X0117274Y0083827D01*
X0118473Y0084434D02*
X0119080Y0083827D01*
X0120293Y0083827D01*
X0120900Y0084434D01*
X0120900Y0085041D01*
X0120293Y0085647D01*
X0118473Y0085647D01*
X0118473Y0084434D01*
X0118473Y0085647D02*
X0119686Y0086861D01*
X0120900Y0087467D01*
X0123476Y0074998D02*
X0126612Y0071862D01*
X0126612Y0073430D02*
X0123476Y0073430D01*
X0123476Y0071862D02*
X0126612Y0074998D01*
X0125044Y0074998D02*
X0125044Y0071862D01*
X0135363Y0075442D02*
X0135970Y0074835D01*
X0137184Y0074835D01*
X0137790Y0075442D01*
X0138989Y0075442D02*
X0139595Y0074835D01*
X0140809Y0074835D01*
X0141415Y0075442D01*
X0141415Y0076048D01*
X0140809Y0076655D01*
X0139595Y0076655D01*
X0138989Y0077262D01*
X0138989Y0077868D01*
X0139595Y0078475D01*
X0140809Y0078475D01*
X0141415Y0077868D01*
X0141415Y0077262D01*
X0140809Y0076655D01*
X0139595Y0076655D02*
X0138989Y0076048D01*
X0138989Y0075442D01*
X0137790Y0077868D02*
X0137184Y0078475D01*
X0135970Y0078475D01*
X0135363Y0077868D01*
X0135363Y0075442D01*
X0138241Y0055948D02*
X0140061Y0055948D01*
X0140668Y0055341D01*
X0140668Y0054128D01*
X0140061Y0053521D01*
X0138241Y0053521D01*
X0138241Y0052307D02*
X0138241Y0055948D01*
X0139455Y0053521D02*
X0140668Y0052307D01*
X0141867Y0052307D02*
X0144293Y0052307D01*
X0143080Y0052307D02*
X0143080Y0055948D01*
X0141867Y0054734D01*
X0150912Y0051789D02*
X0153339Y0051789D01*
X0151338Y0028987D02*
X0151338Y0026560D01*
X0150125Y0027773D02*
X0152552Y0027773D01*
X0147021Y0099119D02*
X0147628Y0099725D01*
X0147628Y0100332D01*
X0147021Y0100939D01*
X0145201Y0100939D01*
X0145201Y0099725D01*
X0145808Y0099119D01*
X0147021Y0099119D01*
X0145201Y0100939D02*
X0146415Y0102152D01*
X0147628Y0102759D01*
X0144003Y0102152D02*
X0143396Y0102759D01*
X0142183Y0102759D01*
X0141576Y0102152D01*
X0141576Y0099725D01*
X0142183Y0099119D01*
X0143396Y0099119D01*
X0144003Y0099725D01*
X0157525Y0124409D02*
X0156919Y0125016D01*
X0156919Y0126229D01*
X0157525Y0126836D01*
X0158132Y0128034D02*
X0156919Y0129248D01*
X0160559Y0129248D01*
X0160559Y0130461D02*
X0160559Y0128034D01*
X0159952Y0126836D02*
X0160559Y0126229D01*
X0160559Y0125016D01*
X0159952Y0124409D01*
X0157525Y0124409D01*
X0156919Y0131659D02*
X0158739Y0131659D01*
X0158132Y0132873D01*
X0158132Y0133479D01*
X0158739Y0134086D01*
X0159952Y0134086D01*
X0160559Y0133479D01*
X0160559Y0132266D01*
X0159952Y0131659D01*
X0156919Y0131659D02*
X0156919Y0134086D01*
X0160659Y0134933D02*
X0160659Y0136753D01*
X0161265Y0137359D01*
X0162479Y0137359D01*
X0163085Y0136753D01*
X0163085Y0134933D01*
X0163085Y0136146D02*
X0164299Y0137359D01*
X0164299Y0138558D02*
X0164299Y0140985D01*
X0164299Y0139771D02*
X0160659Y0139771D01*
X0161872Y0138558D01*
X0162479Y0142183D02*
X0162479Y0144610D01*
X0164299Y0144003D02*
X0160659Y0144003D01*
X0162479Y0142183D01*
X0164299Y0134933D02*
X0160659Y0134933D01*
X0133885Y0135104D02*
X0133279Y0135710D01*
X0131459Y0135710D01*
X0131459Y0134497D01*
X0132065Y0133890D01*
X0133279Y0133890D01*
X0133885Y0134497D01*
X0133885Y0135104D01*
X0132672Y0136924D02*
X0131459Y0135710D01*
X0132672Y0136924D02*
X0133885Y0137530D01*
X0129047Y0137530D02*
X0129047Y0133890D01*
X0130260Y0133890D02*
X0127833Y0133890D01*
X0126635Y0133890D02*
X0125422Y0135104D01*
X0126028Y0135104D02*
X0124208Y0135104D01*
X0124208Y0133890D02*
X0124208Y0137530D01*
X0126028Y0137530D01*
X0126635Y0136924D01*
X0126635Y0135710D01*
X0126028Y0135104D01*
X0127833Y0136317D02*
X0129047Y0137530D01*
X0121881Y0144788D02*
X0119455Y0144788D01*
X0121881Y0147215D01*
X0121881Y0147821D01*
X0121275Y0148428D01*
X0120061Y0148428D01*
X0119455Y0147821D01*
X0117043Y0148428D02*
X0117043Y0144788D01*
X0115830Y0144788D02*
X0118256Y0144788D01*
X0115830Y0147215D02*
X0117043Y0148428D01*
X0114631Y0147821D02*
X0114024Y0148428D01*
X0112811Y0148428D01*
X0112204Y0147821D01*
X0112204Y0145394D01*
X0112811Y0144788D01*
X0114024Y0144788D01*
X0114631Y0145394D01*
X0105896Y0136798D02*
X0105289Y0137404D01*
X0104076Y0137404D01*
X0103469Y0136798D01*
X0102270Y0136798D02*
X0101664Y0137404D01*
X0100450Y0137404D01*
X0099844Y0136798D01*
X0099844Y0134371D01*
X0100450Y0133764D01*
X0101664Y0133764D01*
X0102270Y0134371D01*
X0103469Y0133764D02*
X0105896Y0136191D01*
X0105896Y0136798D01*
X0105896Y0133764D02*
X0103469Y0133764D01*
X0103456Y0130444D02*
X0103456Y0126804D01*
X0102243Y0126804D02*
X0104670Y0126804D01*
X0105868Y0127410D02*
X0108295Y0129837D01*
X0108295Y0127410D01*
X0107688Y0126804D01*
X0106475Y0126804D01*
X0105868Y0127410D01*
X0105868Y0129837D01*
X0106475Y0130444D01*
X0107688Y0130444D01*
X0108295Y0129837D01*
X0103456Y0130444D02*
X0102243Y0129230D01*
X0101045Y0128624D02*
X0100438Y0128017D01*
X0098618Y0128017D01*
X0099831Y0128017D02*
X0101045Y0126804D01*
X0101045Y0128624D02*
X0101045Y0129837D01*
X0100438Y0130444D01*
X0098618Y0130444D01*
X0098618Y0126804D01*
X0097791Y0122089D02*
X0096578Y0120876D01*
X0095379Y0121483D02*
X0094772Y0122089D01*
X0093559Y0122089D01*
X0092952Y0121483D01*
X0092952Y0119056D01*
X0093559Y0118449D01*
X0094772Y0118449D01*
X0095379Y0119056D01*
X0096578Y0118449D02*
X0099004Y0118449D01*
X0097791Y0118449D02*
X0097791Y0122089D01*
X0100203Y0121483D02*
X0100203Y0119056D01*
X0102629Y0121483D01*
X0102629Y0119056D01*
X0102023Y0118449D01*
X0100809Y0118449D01*
X0100203Y0119056D01*
X0100203Y0121483D02*
X0100809Y0122089D01*
X0102023Y0122089D01*
X0102629Y0121483D01*
X0111702Y0121176D02*
X0111702Y0118749D01*
X0112309Y0118142D01*
X0113522Y0118142D01*
X0114129Y0118749D01*
X0115327Y0118749D02*
X0115934Y0118142D01*
X0117147Y0118142D01*
X0117754Y0118749D01*
X0117754Y0121176D01*
X0117147Y0121782D01*
X0115934Y0121782D01*
X0115327Y0121176D01*
X0115327Y0120569D01*
X0115934Y0119962D01*
X0117754Y0119962D01*
X0114129Y0121176D02*
X0113522Y0121782D01*
X0112309Y0121782D01*
X0111702Y0121176D01*
X0098633Y0143733D02*
X0097420Y0143733D01*
X0096813Y0144339D01*
X0096813Y0145553D02*
X0098026Y0146159D01*
X0098633Y0146159D01*
X0099240Y0145553D01*
X0099240Y0144339D01*
X0098633Y0143733D01*
X0096813Y0145553D02*
X0096813Y0147373D01*
X0099240Y0147373D01*
X0094401Y0147373D02*
X0094401Y0143733D01*
X0093188Y0143733D02*
X0095615Y0143733D01*
X0093188Y0146159D02*
X0094401Y0147373D01*
X0091989Y0146766D02*
X0091989Y0145553D01*
X0091383Y0144946D01*
X0089563Y0144946D01*
X0090776Y0144946D02*
X0091989Y0143733D01*
X0089563Y0143733D02*
X0089563Y0147373D01*
X0091383Y0147373D01*
X0091989Y0146766D01*
X0077899Y0123270D02*
X0076686Y0123270D01*
X0076079Y0122664D01*
X0076079Y0122057D01*
X0076686Y0121450D01*
X0078506Y0121450D01*
X0078506Y0120237D02*
X0078506Y0122664D01*
X0077899Y0123270D01*
X0074881Y0122664D02*
X0074881Y0121450D01*
X0074274Y0120844D01*
X0072454Y0120844D01*
X0073667Y0120844D02*
X0074881Y0119630D01*
X0076079Y0120237D02*
X0076686Y0119630D01*
X0077899Y0119630D01*
X0078506Y0120237D01*
X0074881Y0122664D02*
X0074274Y0123270D01*
X0072454Y0123270D01*
X0072454Y0119630D01*
X0067031Y0126804D02*
X0067031Y0130444D01*
X0065211Y0128624D01*
X0067637Y0128624D01*
X0064012Y0126804D02*
X0061585Y0126804D01*
X0062799Y0126804D02*
X0062799Y0130444D01*
X0061585Y0129230D01*
X0060387Y0129837D02*
X0059780Y0130444D01*
X0058567Y0130444D01*
X0057960Y0129837D01*
X0057960Y0127410D01*
X0058567Y0126804D01*
X0059780Y0126804D01*
X0060387Y0127410D01*
X0059313Y0139008D02*
X0058099Y0139008D01*
X0057493Y0139615D01*
X0056294Y0139615D02*
X0055687Y0139008D01*
X0054474Y0139008D01*
X0053867Y0139615D01*
X0053867Y0142042D01*
X0054474Y0142648D01*
X0055687Y0142648D01*
X0056294Y0142042D01*
X0057493Y0142648D02*
X0057493Y0140828D01*
X0058706Y0141435D01*
X0059313Y0141435D01*
X0059919Y0140828D01*
X0059919Y0139615D01*
X0059313Y0139008D01*
X0059919Y0142648D02*
X0057493Y0142648D01*
X0044015Y0119814D02*
X0042802Y0119207D01*
X0041589Y0117994D01*
X0043409Y0117994D01*
X0044015Y0117387D01*
X0044015Y0116780D01*
X0043409Y0116174D01*
X0042195Y0116174D01*
X0041589Y0116780D01*
X0041589Y0117994D01*
X0040390Y0116174D02*
X0037963Y0116174D01*
X0039177Y0116174D02*
X0039177Y0119814D01*
X0037963Y0118600D01*
X0036765Y0119207D02*
X0036158Y0119814D01*
X0034945Y0119814D01*
X0034338Y0119207D01*
X0034338Y0116780D01*
X0034945Y0116174D01*
X0036158Y0116174D01*
X0036765Y0116780D01*
X0029305Y0109845D02*
X0029911Y0109239D01*
X0029911Y0108632D01*
X0029305Y0108025D01*
X0029911Y0107418D01*
X0029911Y0106812D01*
X0029305Y0106205D01*
X0028091Y0106205D01*
X0027485Y0106812D01*
X0026286Y0106812D02*
X0025680Y0106205D01*
X0024466Y0106205D01*
X0023859Y0106812D01*
X0023859Y0109239D01*
X0024466Y0109845D01*
X0025680Y0109845D01*
X0026286Y0109239D01*
X0027485Y0109239D02*
X0028091Y0109845D01*
X0029305Y0109845D01*
X0029305Y0108025D02*
X0028698Y0108025D01*
X0028259Y0089892D02*
X0028259Y0086252D01*
X0027046Y0086252D02*
X0029473Y0086252D01*
X0030671Y0086252D02*
X0033098Y0088679D01*
X0033098Y0089286D01*
X0032491Y0089892D01*
X0031278Y0089892D01*
X0030671Y0089286D01*
X0028259Y0089892D02*
X0027046Y0088679D01*
X0025848Y0089286D02*
X0025848Y0088072D01*
X0025241Y0087466D01*
X0023421Y0087466D01*
X0024634Y0087466D02*
X0025848Y0086252D01*
X0023421Y0086252D02*
X0023421Y0089892D01*
X0025241Y0089892D01*
X0025848Y0089286D01*
X0030671Y0086252D02*
X0033098Y0086252D01*
X0053687Y0106331D02*
X0053080Y0106938D01*
X0053080Y0109365D01*
X0053687Y0109971D01*
X0054900Y0109971D01*
X0055507Y0109365D01*
X0056705Y0108151D02*
X0059132Y0108151D01*
X0058525Y0106331D02*
X0058525Y0109971D01*
X0056705Y0108151D01*
X0055507Y0106938D02*
X0054900Y0106331D01*
X0053687Y0106331D01*
X0068059Y0103658D02*
X0071195Y0100522D01*
X0071195Y0102090D02*
X0068059Y0102090D01*
X0068059Y0100522D02*
X0071195Y0103658D01*
X0069627Y0103658D02*
X0069627Y0100522D01*
D12*
X0073809Y0101188D02*
X0073809Y0103388D01*
X0076009Y0103388D01*
X0087409Y0103388D02*
X0089609Y0103388D01*
X0089609Y0101188D01*
X0089609Y0089788D02*
X0089609Y0087588D01*
X0087409Y0087588D01*
X0076009Y0087588D02*
X0073809Y0087588D01*
X0073809Y0089788D01*
X0093425Y0068848D02*
X0093425Y0067948D01*
X0093425Y0065548D01*
X0093425Y0064648D01*
X0093425Y0065548D02*
X0093494Y0065550D01*
X0093562Y0065556D01*
X0093630Y0065566D01*
X0093697Y0065579D01*
X0093763Y0065597D01*
X0093828Y0065618D01*
X0093892Y0065643D01*
X0093954Y0065671D01*
X0094015Y0065703D01*
X0094074Y0065738D01*
X0094130Y0065777D01*
X0094185Y0065819D01*
X0094236Y0065864D01*
X0094286Y0065912D01*
X0094332Y0065962D01*
X0094375Y0066015D01*
X0094416Y0066071D01*
X0094453Y0066128D01*
X0094486Y0066188D01*
X0094517Y0066250D01*
X0094543Y0066313D01*
X0094566Y0066377D01*
X0094586Y0066443D01*
X0094601Y0066510D01*
X0094613Y0066577D01*
X0094621Y0066645D01*
X0094625Y0066714D01*
X0094625Y0066782D01*
X0094621Y0066851D01*
X0094613Y0066919D01*
X0094601Y0066986D01*
X0094586Y0067053D01*
X0094566Y0067119D01*
X0094543Y0067183D01*
X0094517Y0067246D01*
X0094486Y0067308D01*
X0094453Y0067368D01*
X0094416Y0067425D01*
X0094375Y0067481D01*
X0094332Y0067534D01*
X0094286Y0067584D01*
X0094236Y0067632D01*
X0094185Y0067677D01*
X0094130Y0067719D01*
X0094074Y0067758D01*
X0094015Y0067793D01*
X0093954Y0067825D01*
X0093892Y0067853D01*
X0093828Y0067878D01*
X0093763Y0067899D01*
X0093697Y0067917D01*
X0093630Y0067930D01*
X0093562Y0067940D01*
X0093494Y0067946D01*
X0093425Y0067948D01*
X0105425Y0068848D02*
X0105425Y0064648D01*
X0111142Y0064648D02*
X0111142Y0068848D01*
X0123142Y0068848D02*
X0123142Y0067948D01*
X0123142Y0065548D01*
X0123142Y0064648D01*
X0123142Y0065548D02*
X0123073Y0065550D01*
X0123005Y0065556D01*
X0122937Y0065566D01*
X0122870Y0065579D01*
X0122804Y0065597D01*
X0122739Y0065618D01*
X0122675Y0065643D01*
X0122613Y0065671D01*
X0122552Y0065703D01*
X0122493Y0065738D01*
X0122437Y0065777D01*
X0122382Y0065819D01*
X0122331Y0065864D01*
X0122281Y0065912D01*
X0122235Y0065962D01*
X0122192Y0066015D01*
X0122151Y0066071D01*
X0122114Y0066128D01*
X0122081Y0066188D01*
X0122050Y0066250D01*
X0122024Y0066313D01*
X0122001Y0066377D01*
X0121981Y0066443D01*
X0121966Y0066510D01*
X0121954Y0066577D01*
X0121946Y0066645D01*
X0121942Y0066714D01*
X0121942Y0066782D01*
X0121946Y0066851D01*
X0121954Y0066919D01*
X0121966Y0066986D01*
X0121981Y0067053D01*
X0122001Y0067119D01*
X0122024Y0067183D01*
X0122050Y0067246D01*
X0122081Y0067308D01*
X0122114Y0067368D01*
X0122151Y0067425D01*
X0122192Y0067481D01*
X0122235Y0067534D01*
X0122281Y0067584D01*
X0122331Y0067632D01*
X0122382Y0067677D01*
X0122437Y0067719D01*
X0122493Y0067758D01*
X0122552Y0067793D01*
X0122613Y0067825D01*
X0122675Y0067853D01*
X0122739Y0067878D01*
X0122804Y0067899D01*
X0122870Y0067917D01*
X0122937Y0067930D01*
X0123005Y0067940D01*
X0123073Y0067946D01*
X0123142Y0067948D01*
X0143525Y0070054D02*
X0143525Y0072254D01*
X0143525Y0062654D02*
X0143525Y0060454D01*
X0155325Y0060454D02*
X0155325Y0062654D01*
X0155325Y0070054D02*
X0155325Y0072254D01*
X0155325Y0085651D02*
X0155325Y0087851D01*
X0155325Y0095251D02*
X0155325Y0097451D01*
X0143525Y0097451D02*
X0143525Y0095251D01*
X0143525Y0087851D02*
X0143525Y0085651D01*
X0115861Y0094800D02*
X0115861Y0107200D01*
X0103461Y0107200D02*
X0103461Y0094800D01*
X0140336Y0114864D02*
X0140336Y0117064D01*
X0140336Y0124464D02*
X0140336Y0126664D01*
X0152136Y0126664D02*
X0152136Y0124464D01*
X0152136Y0117064D02*
X0152136Y0114864D01*
X0156768Y0055370D02*
X0161768Y0055370D01*
X0164268Y0052870D01*
X0164268Y0047870D01*
X0161768Y0045370D01*
X0164268Y0042870D01*
X0164268Y0037870D01*
X0161768Y0035370D01*
X0164268Y0032870D01*
X0164268Y0027870D01*
X0161768Y0025370D01*
X0156768Y0025370D01*
X0154268Y0027870D01*
X0154268Y0032870D01*
X0156768Y0035370D01*
X0154268Y0037870D01*
X0154268Y0042870D01*
X0156768Y0045370D01*
X0154268Y0047870D01*
X0154268Y0052870D01*
X0156768Y0055370D01*
X0156768Y0045370D02*
X0161768Y0045370D01*
X0161768Y0035370D02*
X0156768Y0035370D01*
X0145257Y0031908D02*
X0137057Y0031908D01*
X0137057Y0044108D02*
X0145257Y0044108D01*
X0066291Y0057480D02*
X0066291Y0061280D01*
X0062691Y0061280D01*
X0057891Y0061280D02*
X0054291Y0061280D01*
X0054291Y0057480D01*
X0058991Y0055680D02*
X0061591Y0055680D01*
X0045089Y0092344D02*
X0045089Y0094544D01*
X0045089Y0101944D02*
X0045089Y0104144D01*
X0033289Y0104144D02*
X0033289Y0101944D01*
X0033289Y0094544D02*
X0033289Y0092344D01*
X0030389Y0125195D02*
X0026389Y0125195D01*
X0026389Y0152395D01*
X0030389Y0152395D01*
X0047989Y0152395D02*
X0051989Y0152395D01*
X0051989Y0125195D01*
X0047989Y0125195D01*
X0047989Y0127595D02*
X0051989Y0131595D01*
X0071872Y0140376D02*
X0074072Y0140376D01*
X0081472Y0140376D02*
X0083672Y0140376D01*
X0083672Y0152176D02*
X0081472Y0152176D01*
X0074072Y0152176D02*
X0071872Y0152176D01*
X0030389Y0127595D02*
X0026389Y0131595D01*
D13*
X0156763Y0088230D02*
X0157513Y0088230D01*
X0159015Y0086728D01*
X0161267Y0086728D01*
X0159015Y0086728D02*
X0157513Y0085227D01*
X0156763Y0085227D01*
X0157513Y0083626D02*
X0156763Y0082875D01*
X0156763Y0080623D01*
X0161267Y0080623D01*
X0159765Y0080623D02*
X0159765Y0082875D01*
X0159015Y0083626D01*
X0157513Y0083626D01*
X0159765Y0082124D02*
X0161267Y0083626D01*
X0161267Y0079022D02*
X0161267Y0076019D01*
X0156763Y0076019D01*
X0156763Y0079022D01*
X0159015Y0077521D02*
X0159015Y0076019D01*
X0156763Y0074418D02*
X0156763Y0071415D01*
X0156763Y0072917D02*
X0161267Y0072917D01*
X0161267Y0068313D02*
X0156763Y0068313D01*
X0156763Y0069814D02*
X0156763Y0066811D01*
X0158264Y0065210D02*
X0156763Y0063709D01*
X0158264Y0062207D01*
X0161267Y0062207D01*
X0160516Y0060606D02*
X0161267Y0059855D01*
X0161267Y0057604D01*
X0156763Y0057604D01*
X0156763Y0059855D01*
X0157513Y0060606D01*
X0158264Y0060606D01*
X0159015Y0059855D01*
X0159015Y0057604D01*
X0159015Y0059855D02*
X0159765Y0060606D01*
X0160516Y0060606D01*
X0159015Y0062207D02*
X0159015Y0065210D01*
X0158264Y0065210D02*
X0161267Y0065210D01*
D14*
X0151983Y0059206D02*
X0149623Y0059206D01*
X0149623Y0057436D01*
X0150803Y0058026D01*
X0151393Y0058026D01*
X0151983Y0057436D01*
X0151983Y0056256D01*
X0151393Y0055666D01*
X0150213Y0055666D01*
X0149623Y0056256D01*
X0148358Y0056256D02*
X0148358Y0059206D01*
X0145998Y0059206D02*
X0145998Y0056256D01*
X0146588Y0055666D01*
X0147768Y0055666D01*
X0148358Y0056256D01*
X0147768Y0081257D02*
X0146588Y0081257D01*
X0145998Y0081847D01*
X0145998Y0084797D01*
X0148358Y0084797D02*
X0148358Y0081847D01*
X0147768Y0081257D01*
X0149623Y0083027D02*
X0151983Y0083027D01*
X0151393Y0081257D02*
X0151393Y0084797D01*
X0149623Y0083027D01*
X0148290Y0110337D02*
X0147110Y0110337D01*
X0146520Y0110927D01*
X0145255Y0110927D02*
X0144665Y0110337D01*
X0143485Y0110337D01*
X0142895Y0110927D01*
X0142895Y0113877D01*
X0145255Y0113877D02*
X0145255Y0110927D01*
X0146520Y0113287D02*
X0147110Y0113877D01*
X0148290Y0113877D01*
X0148880Y0113287D01*
X0148880Y0112697D01*
X0148290Y0112107D01*
X0148880Y0111517D01*
X0148880Y0110927D01*
X0148290Y0110337D01*
X0148290Y0112107D02*
X0147700Y0112107D01*
X0119112Y0068520D02*
X0117932Y0068520D01*
X0117342Y0067930D01*
X0117342Y0067340D01*
X0117932Y0066750D01*
X0119112Y0066750D01*
X0119702Y0066160D01*
X0119702Y0065570D01*
X0119112Y0064980D01*
X0117932Y0064980D01*
X0117342Y0065570D01*
X0117342Y0066160D01*
X0117932Y0066750D01*
X0119112Y0066750D02*
X0119702Y0067340D01*
X0119702Y0067930D01*
X0119112Y0068520D01*
X0116077Y0068520D02*
X0116077Y0065570D01*
X0115487Y0064980D01*
X0114307Y0064980D01*
X0113717Y0065570D01*
X0113717Y0068520D01*
X0092143Y0068520D02*
X0092143Y0067930D01*
X0089783Y0065570D01*
X0089783Y0064980D01*
X0088518Y0065570D02*
X0088518Y0068520D01*
X0089783Y0068520D02*
X0092143Y0068520D01*
X0088518Y0065570D02*
X0087928Y0064980D01*
X0086748Y0064980D01*
X0086158Y0065570D01*
X0086158Y0068520D01*
X0064974Y0064818D02*
X0062614Y0064818D01*
X0063794Y0064818D02*
X0063794Y0068358D01*
X0062614Y0067178D01*
X0061349Y0067768D02*
X0060759Y0068358D01*
X0059579Y0068358D01*
X0058989Y0067768D01*
X0058989Y0067178D01*
X0059579Y0066588D01*
X0060759Y0066588D01*
X0061349Y0065998D01*
X0061349Y0065408D01*
X0060759Y0064818D01*
X0059579Y0064818D01*
X0058989Y0065408D01*
X0057724Y0065408D02*
X0057134Y0064818D01*
X0055954Y0064818D01*
X0055364Y0065408D01*
X0055364Y0068358D01*
X0057724Y0068358D02*
X0057724Y0065408D01*
X0060169Y0064228D02*
X0060169Y0068948D01*
X0052502Y0086361D02*
X0050142Y0086361D01*
X0051322Y0086361D02*
X0051322Y0089901D01*
X0050142Y0088721D01*
X0048877Y0089901D02*
X0048877Y0086951D01*
X0048287Y0086361D01*
X0047107Y0086361D01*
X0046517Y0086951D01*
X0046517Y0089901D01*
X0076869Y0106684D02*
X0077459Y0106094D01*
X0078639Y0106094D01*
X0079229Y0106684D01*
X0079229Y0109635D01*
X0080494Y0108455D02*
X0081674Y0109635D01*
X0081674Y0106094D01*
X0080494Y0106094D02*
X0082854Y0106094D01*
X0084119Y0106684D02*
X0086479Y0109045D01*
X0086479Y0106684D01*
X0085889Y0106094D01*
X0084709Y0106094D01*
X0084119Y0106684D01*
X0084119Y0109045D01*
X0084709Y0109635D01*
X0085889Y0109635D01*
X0086479Y0109045D01*
X0076869Y0109635D02*
X0076869Y0106684D01*
X0098933Y0103346D02*
X0099523Y0102166D01*
X0100703Y0100986D01*
X0100703Y0102756D01*
X0101293Y0103346D01*
X0101883Y0103346D01*
X0102473Y0102756D01*
X0102473Y0101576D01*
X0101883Y0100986D01*
X0100703Y0100986D01*
X0101883Y0099721D02*
X0098933Y0099721D01*
X0098933Y0097361D02*
X0101883Y0097361D01*
X0102473Y0097951D01*
X0102473Y0099131D01*
X0101883Y0099721D01*
X0080455Y0135573D02*
X0078094Y0135573D01*
X0080455Y0137933D01*
X0080455Y0138523D01*
X0079864Y0139113D01*
X0078684Y0139113D01*
X0078094Y0138523D01*
X0076829Y0139113D02*
X0076829Y0136163D01*
X0076239Y0135573D01*
X0075059Y0135573D01*
X0074469Y0136163D01*
X0074469Y0139113D01*
X0041640Y0139414D02*
X0041640Y0140004D01*
X0041050Y0140594D01*
X0039870Y0140594D01*
X0039280Y0140004D01*
X0041640Y0139414D02*
X0039280Y0137054D01*
X0041640Y0137054D01*
X0038015Y0137054D02*
X0035655Y0137054D01*
X0035655Y0140594D01*
X0137912Y0028520D02*
X0137912Y0025570D01*
X0138502Y0024980D01*
X0139682Y0024980D01*
X0140272Y0025570D01*
X0140272Y0028520D01*
X0141537Y0027930D02*
X0141537Y0027340D01*
X0142127Y0026750D01*
X0143897Y0026750D01*
X0143897Y0025570D02*
X0143897Y0027930D01*
X0143307Y0028520D01*
X0142127Y0028520D01*
X0141537Y0027930D01*
X0141537Y0025570D02*
X0142127Y0024980D01*
X0143307Y0024980D01*
X0143897Y0025570D01*
X0143919Y0016198D02*
X0143919Y0011594D01*
X0142384Y0012361D02*
X0141617Y0011594D01*
X0140082Y0011594D01*
X0139315Y0012361D01*
X0139315Y0015430D01*
X0140082Y0016198D01*
X0141617Y0016198D01*
X0142384Y0015430D01*
X0143919Y0013896D02*
X0146988Y0013896D01*
X0146988Y0016198D02*
X0146988Y0011594D01*
X0137780Y0016198D02*
X0134711Y0016198D01*
X0136246Y0016198D02*
X0136246Y0011594D01*
X0133176Y0011594D02*
X0131642Y0011594D01*
X0132409Y0011594D02*
X0132409Y0016198D01*
X0131642Y0016198D02*
X0133176Y0016198D01*
X0130107Y0016198D02*
X0130107Y0011594D01*
X0128572Y0013128D01*
X0127038Y0011594D01*
X0127038Y0016198D01*
X0125503Y0015430D02*
X0124736Y0016198D01*
X0123201Y0016198D01*
X0122434Y0015430D01*
X0122434Y0014663D01*
X0123201Y0013896D01*
X0124736Y0013896D01*
X0125503Y0013128D01*
X0125503Y0012361D01*
X0124736Y0011594D01*
X0123201Y0011594D01*
X0122434Y0012361D01*
D15*
X0138199Y0049065D03*
X0143999Y0049065D03*
X0120456Y0080522D03*
X0114656Y0080522D03*
X0102305Y0080533D03*
X0096505Y0080533D03*
X0082226Y0078959D03*
X0076426Y0078959D03*
X0049943Y0081715D03*
X0044143Y0081715D03*
X0042069Y0073053D03*
X0036269Y0073053D03*
X0034194Y0081715D03*
X0028394Y0081715D03*
X0072806Y0115994D03*
X0078606Y0115994D03*
X0088237Y0128565D03*
X0094037Y0128565D03*
X0091821Y0150207D03*
X0097621Y0150207D03*
X0150876Y0138789D03*
X0156676Y0138789D03*
D16*
X0138801Y0138960D03*
X0138801Y0133160D03*
X0064352Y0093645D03*
X0064352Y0087845D03*
D17*
X0127772Y0010252D02*
X0127772Y0003559D01*
X0133677Y0003559D01*
X0133678Y0003559D02*
X0133714Y0003632D01*
X0133755Y0003703D01*
X0133798Y0003773D01*
X0133845Y0003840D01*
X0133895Y0003905D01*
X0133948Y0003967D01*
X0134003Y0004027D01*
X0134062Y0004084D01*
X0134123Y0004139D01*
X0134187Y0004190D01*
X0134253Y0004239D01*
X0134321Y0004284D01*
X0134391Y0004326D01*
X0134463Y0004365D01*
X0134537Y0004401D01*
X0134612Y0004432D01*
X0134689Y0004461D01*
X0134767Y0004485D01*
X0134846Y0004506D01*
X0134926Y0004523D01*
X0135007Y0004537D01*
X0135088Y0004546D01*
X0135170Y0004552D01*
X0135252Y0004554D01*
X0135334Y0004552D01*
X0135416Y0004546D01*
X0135497Y0004537D01*
X0135578Y0004523D01*
X0135658Y0004506D01*
X0135737Y0004485D01*
X0135815Y0004461D01*
X0135892Y0004432D01*
X0135967Y0004401D01*
X0136041Y0004365D01*
X0136113Y0004326D01*
X0136183Y0004284D01*
X0136251Y0004239D01*
X0136317Y0004190D01*
X0136381Y0004139D01*
X0136442Y0004084D01*
X0136501Y0004027D01*
X0136556Y0003967D01*
X0136609Y0003905D01*
X0136659Y0003840D01*
X0136706Y0003773D01*
X0136749Y0003703D01*
X0136790Y0003632D01*
X0136826Y0003559D01*
X0136827Y0003559D02*
X0142732Y0003559D01*
X0142732Y0010252D01*
X0136827Y0010252D01*
X0136826Y0010252D02*
X0136790Y0010179D01*
X0136749Y0010108D01*
X0136706Y0010038D01*
X0136659Y0009971D01*
X0136609Y0009906D01*
X0136556Y0009844D01*
X0136501Y0009784D01*
X0136442Y0009727D01*
X0136381Y0009672D01*
X0136317Y0009621D01*
X0136251Y0009572D01*
X0136183Y0009527D01*
X0136113Y0009485D01*
X0136041Y0009446D01*
X0135967Y0009410D01*
X0135892Y0009379D01*
X0135815Y0009350D01*
X0135737Y0009326D01*
X0135658Y0009305D01*
X0135578Y0009288D01*
X0135497Y0009274D01*
X0135416Y0009265D01*
X0135334Y0009259D01*
X0135252Y0009257D01*
X0135170Y0009259D01*
X0135088Y0009265D01*
X0135007Y0009274D01*
X0134926Y0009288D01*
X0134846Y0009305D01*
X0134767Y0009326D01*
X0134689Y0009350D01*
X0134612Y0009379D01*
X0134537Y0009410D01*
X0134463Y0009446D01*
X0134391Y0009485D01*
X0134321Y0009527D01*
X0134253Y0009572D01*
X0134187Y0009621D01*
X0134123Y0009672D01*
X0134062Y0009727D01*
X0134003Y0009784D01*
X0133948Y0009844D01*
X0133895Y0009906D01*
X0133845Y0009971D01*
X0133798Y0010038D01*
X0133755Y0010108D01*
X0133714Y0010179D01*
X0133678Y0010252D01*
X0133677Y0010252D02*
X0127772Y0010252D01*
D18*
X0140991Y0004763D02*
X0142092Y0004763D01*
X0142092Y0004396D02*
X0142092Y0005130D01*
X0141358Y0004396D02*
X0140991Y0004763D01*
M02*
