%
M48
M72
T01C0.01181
T02C0.02362
T03C0.03937
T04C0.04000
T05C0.06299
%
T01
X88992Y89780
T02
X161827Y11433
X161827Y21276
X160646Y31118
X159071Y40961
X156709Y50803
X165370Y52772
X171276Y52772
X181118Y52772
X181118Y62614
X171276Y62614
X163008Y62614
X155528Y60646
X146866Y60646
X146866Y70488
X152772Y70488
X161433Y72457
X171276Y72457
X181118Y72457
X181118Y82299
X171276Y82299
X171276Y92142
X171276Y101984
X181118Y101984
X181118Y92142
X190961Y92142
X190961Y101984
X190961Y111827
X181118Y111827
X171276Y111827
X169307Y116551
X163795Y116551
X158283Y116551
X157890Y111827
X152772Y116551
X152772Y122063
X151591Y127181
X158283Y122063
X163795Y122063
X161433Y127181
X169307Y122063
X171276Y127181
X176000Y120882
X181118Y127181
X181118Y137024
X181118Y146866
X171276Y146866
X171276Y137024
X161433Y137024
X161433Y146866
X151591Y146866
X151591Y137024
X141748Y137024
X141748Y146866
X136630Y153953
X131906Y146866
X122063Y146866
X122063Y137024
X131906Y137024
X131906Y127181
X122063Y127181
X112220Y127181
X102378Y127181
X102378Y137024
X95685Y145685
X98047Y155134
X98047Y160646
X107890Y160646
X107890Y155921
X117732Y160646
X117732Y170488
X107890Y170488
X98047Y170488
X88205Y170488
X80331Y168520
X80331Y162614
X80331Y156709
X80331Y150803
X80331Y144898
X80331Y139386
X80331Y133480
X86236Y133480
X70882Y129937
X63008Y129937
X63008Y120094
X70882Y120094
X70882Y112220
X62614Y112220
X62614Y103953
X70882Y101591
X53953Y87811
X53559Y81118
X47654Y81118
X41748Y81118
X35843Y81118
X29937Y81118
X24425Y81118
X29150Y74819
X38992Y74819
X38992Y64976
X38992Y55134
X29150Y55134
X29150Y64976
X19307Y64976
X19307Y55134
X9465Y55134
X9465Y64976
X9465Y74819
X19307Y74819
X19701Y88992
X11039Y88992
X11039Y98047
X19701Y98047
X19701Y107890
X11039Y107890
X11039Y117732
X19701Y117732
X29543Y117732
X29543Y107890
X29543Y98047
X29543Y88992
X39780Y88992
X39780Y98047
X39780Y107890
X39780Y117732
X39780Y127575
X29543Y127575
X19701Y127575
X11039Y127575
X11039Y137417
X19701Y137417
X29543Y137417
X29543Y147260
X19701Y147260
X11039Y147260
X11039Y157102
X19701Y157102
X28756Y157102
X19701Y166945
X25606Y170094
X31118Y174819
X23638Y188992
X23638Y194898
X29543Y194898
X17732Y194898
X11827Y194898
X6315Y194898
X17732Y188992
X11039Y182693
X11039Y174425
X11039Y166945
X18913Y174425
X42929Y179150
X42929Y169307
X42929Y159465
X42929Y149622
X53165Y149622
X53165Y139780
X63008Y139780
X70882Y140173
X70882Y149622
X63008Y149622
X63008Y159465
X70882Y159465
X71276Y169307
X63008Y169307
X63008Y179150
X71276Y179150
X79150Y189780
X88205Y190173
X98047Y190173
X107890Y190173
X107890Y180331
X98047Y180331
X88205Y180331
X88205Y160646
X88205Y154740
X112220Y144504
X112220Y137024
X113008Y116157
X116551Y111039
X120094Y116157
X127181Y109858
X133480Y116551
X138992Y116551
X136236Y111433
X137024Y100016
X146079Y103559
X158283Y101984
X159071Y92142
X159858Y82299
X146866Y80331
X137024Y80331
X137024Y90173
X145291Y90173
X127181Y90173
X127181Y80331
X122063Y72457
X127181Y70488
X122063Y67339
X122063Y62220
X127181Y60646
X122063Y57102
X122063Y51984
X122063Y46866
X35055Y5528
X29150Y5528
X23244Y5528
X17339Y5528
X11433Y5528
X5528Y5528
X13008Y11433
X5528Y17339
X5528Y22850
X11433Y22850
X11433Y34661
X5528Y34661
X5528Y28756
X17339Y34661
X24031Y30724
X32693Y29937
X32693Y21276
X42535Y21276
X42535Y31118
X52378Y31118
X52378Y21276
X62220Y21276
X62220Y31118
X62220Y39386
X58677Y46866
X58677Y55134
X48835Y55134
X48835Y64976
X58677Y64976
X68520Y64976
X68520Y55134
X78362Y55134
X78362Y64976
X88205Y64976
X88205Y57102
X98047Y67732
X105528Y62220
X111039Y67339
X116551Y67339
X116551Y62220
X116551Y57102
X116551Y51984
X116551Y46866
X110646Y40961
X101591Y40961
X101591Y31118
X110646Y31118
X110646Y21276
X101591Y21276
X101591Y11433
X110646Y11433
X127575Y11433
X137024Y11433
X146866Y11433
X146866Y21276
X146866Y31118
X137024Y31118
X127575Y31118
X127575Y21276
X137024Y21276
X137024Y40961
X127575Y40961
X127181Y50803
X137024Y50803
X146866Y50803
X146866Y40961
X137024Y60646
X137024Y70488
X116551Y72457
X113402Y85843
X108283Y85843
X103165Y85843
X100016Y89780
X100016Y94898
X100016Y100409
X100016Y105528
X101591Y111039
X105921Y116157
X109465Y111039
X98047Y74819
X88205Y74819
X78362Y74819
X71276Y81118
X65370Y81118
X59465Y81118
X58677Y74819
X48835Y74819
X68520Y74819
X48835Y45291
X38992Y45291
X29150Y45291
X19307Y45291
X9465Y45291
X22850Y21276
X22850Y11433
X32693Y11433
X42535Y11433
X52378Y11433
X62220Y11433
X72063Y11433
X81906Y11433
X91748Y11433
X91748Y21276
X91748Y31118
X81906Y31118
X72063Y31118
X72063Y21276
X81906Y21276
X81906Y40961
X72063Y40961
X91748Y40961
X101984Y55134
X127181Y100016
X141748Y127181
X151591Y156709
X161433Y158283
X171276Y159858
X173244Y167732
X166945Y173244
X166945Y180331
X166945Y190173
X176787Y190173
X176787Y180331
X181118Y160252
X190961Y160252
X190961Y146866
X190961Y137024
X190961Y127181
X190961Y82299
X190961Y72457
X190961Y62614
X190961Y52772
X190961Y42929
X190961Y33087
X181118Y33087
X173638Y33087
X171276Y42929
X181118Y42929
X181118Y23244
X190961Y23244
X190961Y13402
X53165Y120094
X53165Y129937
X53165Y159465
X53165Y169307
X53165Y179150
X117732Y180331
X117732Y190173
X127575Y190173
X127575Y180331
X137417Y180331
X137417Y190173
X147260Y190173
X147260Y180331
X157102Y180331
X157102Y190173
X157102Y170488
X147260Y170488
X137417Y170488
X137417Y161827
X127575Y160646
X127575Y170488
X186630Y190173
T03
X107890Y92142
X107890Y103953
T04
X81906Y118126
X91945Y118126
X118913Y92142
X118913Y103953
T05
X171669Y15370
X15370Y28362
X184661Y171669
X28362Y184661
M30
