%
M48
M72
T01C0.02362
T02C0.03937
T03C0.04000
%
T01
X23049Y30136
X23049Y80530
X53364Y94703
X101396Y52970
X120687Y23049
X169112Y23049
X145490Y102970
X175018Y120293
X172656Y167144
X95096Y145096
X78955Y174230
X30530Y174230
T02
X14781Y27774
X107301Y103364
X107301Y91553
X171081Y14781
X184073Y171081
X27774Y184073
T03
X91356Y117537
X81317Y117537
X118325Y91553
X118325Y103364
M30
