G75*
%MOIN*%
%OFA0B0*%
%FSLAX25Y25*%
%IPPOS*%
%LPD*%
%AMOC8*
5,1,8,0,0,1.08239X$1,22.5*
%
%ADD10C,0.00004*%
%ADD11C,0.00600*%
%ADD12C,0.00000*%
D10*
X0001591Y0001591D02*
X0040961Y0001591D01*
X0040961Y0007890D01*
X0080331Y0007890D01*
X0080331Y0001591D01*
X0113795Y0001591D01*
X0113795Y0043323D01*
X0124425Y0043323D01*
X0124425Y0007890D01*
X0159071Y0007890D01*
X0159071Y0001591D01*
X0194504Y0001591D01*
X0194504Y0040961D01*
X0198441Y0040961D01*
X0198441Y0080331D01*
X0194504Y0080331D01*
X0194504Y0119701D01*
X0198441Y0119701D01*
X0198441Y0159071D01*
X0194504Y0159071D01*
X0194504Y0198441D01*
X0159071Y0198441D01*
X0159071Y0194504D01*
X0119701Y0194504D01*
X0119701Y0198441D01*
X0080331Y0198441D01*
X0080331Y0194504D01*
X0040961Y0194504D01*
X0040961Y0198441D01*
X0001591Y0198441D01*
X0001591Y0159071D01*
X0005528Y0159071D01*
X0005528Y0119701D01*
X0001591Y0119701D01*
X0001591Y0080331D01*
X0005528Y0080331D01*
X0005528Y0040961D01*
X0001591Y0040961D01*
X0001591Y0001591D01*
D11*
X0082372Y0107683D02*
X0082372Y0111953D01*
X0084406Y0113126D02*
X0079406Y0113126D01*
X0076906Y0115626D01*
X0076906Y0120626D01*
X0079406Y0123126D01*
X0084406Y0123126D01*
X0086906Y0120626D01*
X0086906Y0115626D01*
X0084406Y0113126D01*
X0086945Y0115626D02*
X0089445Y0113126D01*
X0094445Y0113126D01*
X0096945Y0115626D01*
X0096945Y0120626D01*
X0094445Y0123126D01*
X0089445Y0123126D01*
X0086945Y0120626D01*
X0086945Y0115626D01*
X0084507Y0109818D02*
X0080237Y0109818D01*
X0089686Y0109818D02*
X0093956Y0109818D01*
X0113913Y0106453D02*
X0113913Y0101453D01*
X0116413Y0098953D01*
X0121413Y0098953D01*
X0123913Y0101453D01*
X0123913Y0106453D01*
X0121413Y0108953D01*
X0116413Y0108953D01*
X0113913Y0106453D01*
X0116413Y0097142D02*
X0113913Y0094642D01*
X0113913Y0089642D01*
X0116413Y0087142D01*
X0121413Y0087142D01*
X0123913Y0089642D01*
X0123913Y0094642D01*
X0121413Y0097142D01*
X0116413Y0097142D01*
D12*
X0105921Y0092142D02*
X0105923Y0092230D01*
X0105929Y0092318D01*
X0105939Y0092406D01*
X0105953Y0092494D01*
X0105970Y0092580D01*
X0105992Y0092666D01*
X0106017Y0092750D01*
X0106047Y0092834D01*
X0106079Y0092916D01*
X0106116Y0092996D01*
X0106156Y0093075D01*
X0106200Y0093152D01*
X0106247Y0093227D01*
X0106297Y0093299D01*
X0106351Y0093370D01*
X0106407Y0093437D01*
X0106467Y0093503D01*
X0106529Y0093565D01*
X0106595Y0093625D01*
X0106662Y0093681D01*
X0106733Y0093735D01*
X0106805Y0093785D01*
X0106880Y0093832D01*
X0106957Y0093876D01*
X0107036Y0093916D01*
X0107116Y0093953D01*
X0107198Y0093985D01*
X0107282Y0094015D01*
X0107366Y0094040D01*
X0107452Y0094062D01*
X0107538Y0094079D01*
X0107626Y0094093D01*
X0107714Y0094103D01*
X0107802Y0094109D01*
X0107890Y0094111D01*
X0107978Y0094109D01*
X0108066Y0094103D01*
X0108154Y0094093D01*
X0108242Y0094079D01*
X0108328Y0094062D01*
X0108414Y0094040D01*
X0108498Y0094015D01*
X0108582Y0093985D01*
X0108664Y0093953D01*
X0108744Y0093916D01*
X0108823Y0093876D01*
X0108900Y0093832D01*
X0108975Y0093785D01*
X0109047Y0093735D01*
X0109118Y0093681D01*
X0109185Y0093625D01*
X0109251Y0093565D01*
X0109313Y0093503D01*
X0109373Y0093437D01*
X0109429Y0093370D01*
X0109483Y0093299D01*
X0109533Y0093227D01*
X0109580Y0093152D01*
X0109624Y0093075D01*
X0109664Y0092996D01*
X0109701Y0092916D01*
X0109733Y0092834D01*
X0109763Y0092750D01*
X0109788Y0092666D01*
X0109810Y0092580D01*
X0109827Y0092494D01*
X0109841Y0092406D01*
X0109851Y0092318D01*
X0109857Y0092230D01*
X0109859Y0092142D01*
X0109857Y0092054D01*
X0109851Y0091966D01*
X0109841Y0091878D01*
X0109827Y0091790D01*
X0109810Y0091704D01*
X0109788Y0091618D01*
X0109763Y0091534D01*
X0109733Y0091450D01*
X0109701Y0091368D01*
X0109664Y0091288D01*
X0109624Y0091209D01*
X0109580Y0091132D01*
X0109533Y0091057D01*
X0109483Y0090985D01*
X0109429Y0090914D01*
X0109373Y0090847D01*
X0109313Y0090781D01*
X0109251Y0090719D01*
X0109185Y0090659D01*
X0109118Y0090603D01*
X0109047Y0090549D01*
X0108975Y0090499D01*
X0108900Y0090452D01*
X0108823Y0090408D01*
X0108744Y0090368D01*
X0108664Y0090331D01*
X0108582Y0090299D01*
X0108498Y0090269D01*
X0108414Y0090244D01*
X0108328Y0090222D01*
X0108242Y0090205D01*
X0108154Y0090191D01*
X0108066Y0090181D01*
X0107978Y0090175D01*
X0107890Y0090173D01*
X0107802Y0090175D01*
X0107714Y0090181D01*
X0107626Y0090191D01*
X0107538Y0090205D01*
X0107452Y0090222D01*
X0107366Y0090244D01*
X0107282Y0090269D01*
X0107198Y0090299D01*
X0107116Y0090331D01*
X0107036Y0090368D01*
X0106957Y0090408D01*
X0106880Y0090452D01*
X0106805Y0090499D01*
X0106733Y0090549D01*
X0106662Y0090603D01*
X0106595Y0090659D01*
X0106529Y0090719D01*
X0106467Y0090781D01*
X0106407Y0090847D01*
X0106351Y0090914D01*
X0106297Y0090985D01*
X0106247Y0091057D01*
X0106200Y0091132D01*
X0106156Y0091209D01*
X0106116Y0091288D01*
X0106079Y0091368D01*
X0106047Y0091450D01*
X0106017Y0091534D01*
X0105992Y0091618D01*
X0105970Y0091704D01*
X0105953Y0091790D01*
X0105939Y0091878D01*
X0105929Y0091966D01*
X0105923Y0092054D01*
X0105921Y0092142D01*
X0105921Y0103953D02*
X0105923Y0104041D01*
X0105929Y0104129D01*
X0105939Y0104217D01*
X0105953Y0104305D01*
X0105970Y0104391D01*
X0105992Y0104477D01*
X0106017Y0104561D01*
X0106047Y0104645D01*
X0106079Y0104727D01*
X0106116Y0104807D01*
X0106156Y0104886D01*
X0106200Y0104963D01*
X0106247Y0105038D01*
X0106297Y0105110D01*
X0106351Y0105181D01*
X0106407Y0105248D01*
X0106467Y0105314D01*
X0106529Y0105376D01*
X0106595Y0105436D01*
X0106662Y0105492D01*
X0106733Y0105546D01*
X0106805Y0105596D01*
X0106880Y0105643D01*
X0106957Y0105687D01*
X0107036Y0105727D01*
X0107116Y0105764D01*
X0107198Y0105796D01*
X0107282Y0105826D01*
X0107366Y0105851D01*
X0107452Y0105873D01*
X0107538Y0105890D01*
X0107626Y0105904D01*
X0107714Y0105914D01*
X0107802Y0105920D01*
X0107890Y0105922D01*
X0107978Y0105920D01*
X0108066Y0105914D01*
X0108154Y0105904D01*
X0108242Y0105890D01*
X0108328Y0105873D01*
X0108414Y0105851D01*
X0108498Y0105826D01*
X0108582Y0105796D01*
X0108664Y0105764D01*
X0108744Y0105727D01*
X0108823Y0105687D01*
X0108900Y0105643D01*
X0108975Y0105596D01*
X0109047Y0105546D01*
X0109118Y0105492D01*
X0109185Y0105436D01*
X0109251Y0105376D01*
X0109313Y0105314D01*
X0109373Y0105248D01*
X0109429Y0105181D01*
X0109483Y0105110D01*
X0109533Y0105038D01*
X0109580Y0104963D01*
X0109624Y0104886D01*
X0109664Y0104807D01*
X0109701Y0104727D01*
X0109733Y0104645D01*
X0109763Y0104561D01*
X0109788Y0104477D01*
X0109810Y0104391D01*
X0109827Y0104305D01*
X0109841Y0104217D01*
X0109851Y0104129D01*
X0109857Y0104041D01*
X0109859Y0103953D01*
X0109857Y0103865D01*
X0109851Y0103777D01*
X0109841Y0103689D01*
X0109827Y0103601D01*
X0109810Y0103515D01*
X0109788Y0103429D01*
X0109763Y0103345D01*
X0109733Y0103261D01*
X0109701Y0103179D01*
X0109664Y0103099D01*
X0109624Y0103020D01*
X0109580Y0102943D01*
X0109533Y0102868D01*
X0109483Y0102796D01*
X0109429Y0102725D01*
X0109373Y0102658D01*
X0109313Y0102592D01*
X0109251Y0102530D01*
X0109185Y0102470D01*
X0109118Y0102414D01*
X0109047Y0102360D01*
X0108975Y0102310D01*
X0108900Y0102263D01*
X0108823Y0102219D01*
X0108744Y0102179D01*
X0108664Y0102142D01*
X0108582Y0102110D01*
X0108498Y0102080D01*
X0108414Y0102055D01*
X0108328Y0102033D01*
X0108242Y0102016D01*
X0108154Y0102002D01*
X0108066Y0101992D01*
X0107978Y0101986D01*
X0107890Y0101984D01*
X0107802Y0101986D01*
X0107714Y0101992D01*
X0107626Y0102002D01*
X0107538Y0102016D01*
X0107452Y0102033D01*
X0107366Y0102055D01*
X0107282Y0102080D01*
X0107198Y0102110D01*
X0107116Y0102142D01*
X0107036Y0102179D01*
X0106957Y0102219D01*
X0106880Y0102263D01*
X0106805Y0102310D01*
X0106733Y0102360D01*
X0106662Y0102414D01*
X0106595Y0102470D01*
X0106529Y0102530D01*
X0106467Y0102592D01*
X0106407Y0102658D01*
X0106351Y0102725D01*
X0106297Y0102796D01*
X0106247Y0102868D01*
X0106200Y0102943D01*
X0106156Y0103020D01*
X0106116Y0103099D01*
X0106079Y0103179D01*
X0106047Y0103261D01*
X0106017Y0103345D01*
X0105992Y0103429D01*
X0105970Y0103515D01*
X0105953Y0103601D01*
X0105939Y0103689D01*
X0105929Y0103777D01*
X0105923Y0103865D01*
X0105921Y0103953D01*
X0181511Y0171669D02*
X0181513Y0171781D01*
X0181519Y0171892D01*
X0181529Y0172004D01*
X0181543Y0172115D01*
X0181560Y0172225D01*
X0181582Y0172335D01*
X0181608Y0172444D01*
X0181637Y0172552D01*
X0181670Y0172658D01*
X0181707Y0172764D01*
X0181748Y0172868D01*
X0181793Y0172971D01*
X0181841Y0173072D01*
X0181892Y0173171D01*
X0181947Y0173268D01*
X0182006Y0173363D01*
X0182067Y0173457D01*
X0182132Y0173548D01*
X0182201Y0173636D01*
X0182272Y0173722D01*
X0182346Y0173806D01*
X0182424Y0173886D01*
X0182504Y0173964D01*
X0182587Y0174040D01*
X0182672Y0174112D01*
X0182760Y0174181D01*
X0182850Y0174247D01*
X0182943Y0174309D01*
X0183038Y0174369D01*
X0183135Y0174425D01*
X0183233Y0174477D01*
X0183334Y0174526D01*
X0183436Y0174571D01*
X0183540Y0174613D01*
X0183645Y0174651D01*
X0183752Y0174685D01*
X0183859Y0174715D01*
X0183968Y0174742D01*
X0184077Y0174764D01*
X0184188Y0174783D01*
X0184298Y0174798D01*
X0184410Y0174809D01*
X0184521Y0174816D01*
X0184633Y0174819D01*
X0184745Y0174818D01*
X0184857Y0174813D01*
X0184968Y0174804D01*
X0185079Y0174791D01*
X0185190Y0174774D01*
X0185300Y0174754D01*
X0185409Y0174729D01*
X0185517Y0174701D01*
X0185624Y0174668D01*
X0185730Y0174632D01*
X0185834Y0174592D01*
X0185937Y0174549D01*
X0186039Y0174502D01*
X0186138Y0174451D01*
X0186236Y0174397D01*
X0186332Y0174339D01*
X0186426Y0174278D01*
X0186517Y0174214D01*
X0186606Y0174147D01*
X0186693Y0174076D01*
X0186777Y0174002D01*
X0186859Y0173926D01*
X0186937Y0173846D01*
X0187013Y0173764D01*
X0187086Y0173679D01*
X0187156Y0173592D01*
X0187222Y0173502D01*
X0187286Y0173410D01*
X0187346Y0173316D01*
X0187403Y0173220D01*
X0187456Y0173121D01*
X0187506Y0173021D01*
X0187552Y0172920D01*
X0187595Y0172816D01*
X0187634Y0172711D01*
X0187669Y0172605D01*
X0187700Y0172498D01*
X0187728Y0172389D01*
X0187751Y0172280D01*
X0187771Y0172170D01*
X0187787Y0172059D01*
X0187799Y0171948D01*
X0187807Y0171837D01*
X0187811Y0171725D01*
X0187811Y0171613D01*
X0187807Y0171501D01*
X0187799Y0171390D01*
X0187787Y0171279D01*
X0187771Y0171168D01*
X0187751Y0171058D01*
X0187728Y0170949D01*
X0187700Y0170840D01*
X0187669Y0170733D01*
X0187634Y0170627D01*
X0187595Y0170522D01*
X0187552Y0170418D01*
X0187506Y0170317D01*
X0187456Y0170217D01*
X0187403Y0170118D01*
X0187346Y0170022D01*
X0187286Y0169928D01*
X0187222Y0169836D01*
X0187156Y0169746D01*
X0187086Y0169659D01*
X0187013Y0169574D01*
X0186937Y0169492D01*
X0186859Y0169412D01*
X0186777Y0169336D01*
X0186693Y0169262D01*
X0186606Y0169191D01*
X0186517Y0169124D01*
X0186426Y0169060D01*
X0186332Y0168999D01*
X0186236Y0168941D01*
X0186138Y0168887D01*
X0186039Y0168836D01*
X0185937Y0168789D01*
X0185834Y0168746D01*
X0185730Y0168706D01*
X0185624Y0168670D01*
X0185517Y0168637D01*
X0185409Y0168609D01*
X0185300Y0168584D01*
X0185190Y0168564D01*
X0185079Y0168547D01*
X0184968Y0168534D01*
X0184857Y0168525D01*
X0184745Y0168520D01*
X0184633Y0168519D01*
X0184521Y0168522D01*
X0184410Y0168529D01*
X0184298Y0168540D01*
X0184188Y0168555D01*
X0184077Y0168574D01*
X0183968Y0168596D01*
X0183859Y0168623D01*
X0183752Y0168653D01*
X0183645Y0168687D01*
X0183540Y0168725D01*
X0183436Y0168767D01*
X0183334Y0168812D01*
X0183233Y0168861D01*
X0183135Y0168913D01*
X0183038Y0168969D01*
X0182943Y0169029D01*
X0182850Y0169091D01*
X0182760Y0169157D01*
X0182672Y0169226D01*
X0182587Y0169298D01*
X0182504Y0169374D01*
X0182424Y0169452D01*
X0182346Y0169532D01*
X0182272Y0169616D01*
X0182201Y0169702D01*
X0182132Y0169790D01*
X0182067Y0169881D01*
X0182006Y0169975D01*
X0181947Y0170070D01*
X0181892Y0170167D01*
X0181841Y0170266D01*
X0181793Y0170367D01*
X0181748Y0170470D01*
X0181707Y0170574D01*
X0181670Y0170680D01*
X0181637Y0170786D01*
X0181608Y0170894D01*
X0181582Y0171003D01*
X0181560Y0171113D01*
X0181543Y0171223D01*
X0181529Y0171334D01*
X0181519Y0171446D01*
X0181513Y0171557D01*
X0181511Y0171669D01*
X0025212Y0184661D02*
X0025214Y0184773D01*
X0025220Y0184884D01*
X0025230Y0184996D01*
X0025244Y0185107D01*
X0025261Y0185217D01*
X0025283Y0185327D01*
X0025309Y0185436D01*
X0025338Y0185544D01*
X0025371Y0185650D01*
X0025408Y0185756D01*
X0025449Y0185860D01*
X0025494Y0185963D01*
X0025542Y0186064D01*
X0025593Y0186163D01*
X0025648Y0186260D01*
X0025707Y0186355D01*
X0025768Y0186449D01*
X0025833Y0186540D01*
X0025902Y0186628D01*
X0025973Y0186714D01*
X0026047Y0186798D01*
X0026125Y0186878D01*
X0026205Y0186956D01*
X0026288Y0187032D01*
X0026373Y0187104D01*
X0026461Y0187173D01*
X0026551Y0187239D01*
X0026644Y0187301D01*
X0026739Y0187361D01*
X0026836Y0187417D01*
X0026934Y0187469D01*
X0027035Y0187518D01*
X0027137Y0187563D01*
X0027241Y0187605D01*
X0027346Y0187643D01*
X0027453Y0187677D01*
X0027560Y0187707D01*
X0027669Y0187734D01*
X0027778Y0187756D01*
X0027889Y0187775D01*
X0027999Y0187790D01*
X0028111Y0187801D01*
X0028222Y0187808D01*
X0028334Y0187811D01*
X0028446Y0187810D01*
X0028558Y0187805D01*
X0028669Y0187796D01*
X0028780Y0187783D01*
X0028891Y0187766D01*
X0029001Y0187746D01*
X0029110Y0187721D01*
X0029218Y0187693D01*
X0029325Y0187660D01*
X0029431Y0187624D01*
X0029535Y0187584D01*
X0029638Y0187541D01*
X0029740Y0187494D01*
X0029839Y0187443D01*
X0029937Y0187389D01*
X0030033Y0187331D01*
X0030127Y0187270D01*
X0030218Y0187206D01*
X0030307Y0187139D01*
X0030394Y0187068D01*
X0030478Y0186994D01*
X0030560Y0186918D01*
X0030638Y0186838D01*
X0030714Y0186756D01*
X0030787Y0186671D01*
X0030857Y0186584D01*
X0030923Y0186494D01*
X0030987Y0186402D01*
X0031047Y0186308D01*
X0031104Y0186212D01*
X0031157Y0186113D01*
X0031207Y0186013D01*
X0031253Y0185912D01*
X0031296Y0185808D01*
X0031335Y0185703D01*
X0031370Y0185597D01*
X0031401Y0185490D01*
X0031429Y0185381D01*
X0031452Y0185272D01*
X0031472Y0185162D01*
X0031488Y0185051D01*
X0031500Y0184940D01*
X0031508Y0184829D01*
X0031512Y0184717D01*
X0031512Y0184605D01*
X0031508Y0184493D01*
X0031500Y0184382D01*
X0031488Y0184271D01*
X0031472Y0184160D01*
X0031452Y0184050D01*
X0031429Y0183941D01*
X0031401Y0183832D01*
X0031370Y0183725D01*
X0031335Y0183619D01*
X0031296Y0183514D01*
X0031253Y0183410D01*
X0031207Y0183309D01*
X0031157Y0183209D01*
X0031104Y0183110D01*
X0031047Y0183014D01*
X0030987Y0182920D01*
X0030923Y0182828D01*
X0030857Y0182738D01*
X0030787Y0182651D01*
X0030714Y0182566D01*
X0030638Y0182484D01*
X0030560Y0182404D01*
X0030478Y0182328D01*
X0030394Y0182254D01*
X0030307Y0182183D01*
X0030218Y0182116D01*
X0030127Y0182052D01*
X0030033Y0181991D01*
X0029937Y0181933D01*
X0029839Y0181879D01*
X0029740Y0181828D01*
X0029638Y0181781D01*
X0029535Y0181738D01*
X0029431Y0181698D01*
X0029325Y0181662D01*
X0029218Y0181629D01*
X0029110Y0181601D01*
X0029001Y0181576D01*
X0028891Y0181556D01*
X0028780Y0181539D01*
X0028669Y0181526D01*
X0028558Y0181517D01*
X0028446Y0181512D01*
X0028334Y0181511D01*
X0028222Y0181514D01*
X0028111Y0181521D01*
X0027999Y0181532D01*
X0027889Y0181547D01*
X0027778Y0181566D01*
X0027669Y0181588D01*
X0027560Y0181615D01*
X0027453Y0181645D01*
X0027346Y0181679D01*
X0027241Y0181717D01*
X0027137Y0181759D01*
X0027035Y0181804D01*
X0026934Y0181853D01*
X0026836Y0181905D01*
X0026739Y0181961D01*
X0026644Y0182021D01*
X0026551Y0182083D01*
X0026461Y0182149D01*
X0026373Y0182218D01*
X0026288Y0182290D01*
X0026205Y0182366D01*
X0026125Y0182444D01*
X0026047Y0182524D01*
X0025973Y0182608D01*
X0025902Y0182694D01*
X0025833Y0182782D01*
X0025768Y0182873D01*
X0025707Y0182967D01*
X0025648Y0183062D01*
X0025593Y0183159D01*
X0025542Y0183258D01*
X0025494Y0183359D01*
X0025449Y0183462D01*
X0025408Y0183566D01*
X0025371Y0183672D01*
X0025338Y0183778D01*
X0025309Y0183886D01*
X0025283Y0183995D01*
X0025261Y0184105D01*
X0025244Y0184215D01*
X0025230Y0184326D01*
X0025220Y0184438D01*
X0025214Y0184549D01*
X0025212Y0184661D01*
X0012220Y0028362D02*
X0012222Y0028474D01*
X0012228Y0028585D01*
X0012238Y0028697D01*
X0012252Y0028808D01*
X0012269Y0028918D01*
X0012291Y0029028D01*
X0012317Y0029137D01*
X0012346Y0029245D01*
X0012379Y0029351D01*
X0012416Y0029457D01*
X0012457Y0029561D01*
X0012502Y0029664D01*
X0012550Y0029765D01*
X0012601Y0029864D01*
X0012656Y0029961D01*
X0012715Y0030056D01*
X0012776Y0030150D01*
X0012841Y0030241D01*
X0012910Y0030329D01*
X0012981Y0030415D01*
X0013055Y0030499D01*
X0013133Y0030579D01*
X0013213Y0030657D01*
X0013296Y0030733D01*
X0013381Y0030805D01*
X0013469Y0030874D01*
X0013559Y0030940D01*
X0013652Y0031002D01*
X0013747Y0031062D01*
X0013844Y0031118D01*
X0013942Y0031170D01*
X0014043Y0031219D01*
X0014145Y0031264D01*
X0014249Y0031306D01*
X0014354Y0031344D01*
X0014461Y0031378D01*
X0014568Y0031408D01*
X0014677Y0031435D01*
X0014786Y0031457D01*
X0014897Y0031476D01*
X0015007Y0031491D01*
X0015119Y0031502D01*
X0015230Y0031509D01*
X0015342Y0031512D01*
X0015454Y0031511D01*
X0015566Y0031506D01*
X0015677Y0031497D01*
X0015788Y0031484D01*
X0015899Y0031467D01*
X0016009Y0031447D01*
X0016118Y0031422D01*
X0016226Y0031394D01*
X0016333Y0031361D01*
X0016439Y0031325D01*
X0016543Y0031285D01*
X0016646Y0031242D01*
X0016748Y0031195D01*
X0016847Y0031144D01*
X0016945Y0031090D01*
X0017041Y0031032D01*
X0017135Y0030971D01*
X0017226Y0030907D01*
X0017315Y0030840D01*
X0017402Y0030769D01*
X0017486Y0030695D01*
X0017568Y0030619D01*
X0017646Y0030539D01*
X0017722Y0030457D01*
X0017795Y0030372D01*
X0017865Y0030285D01*
X0017931Y0030195D01*
X0017995Y0030103D01*
X0018055Y0030009D01*
X0018112Y0029913D01*
X0018165Y0029814D01*
X0018215Y0029714D01*
X0018261Y0029613D01*
X0018304Y0029509D01*
X0018343Y0029404D01*
X0018378Y0029298D01*
X0018409Y0029191D01*
X0018437Y0029082D01*
X0018460Y0028973D01*
X0018480Y0028863D01*
X0018496Y0028752D01*
X0018508Y0028641D01*
X0018516Y0028530D01*
X0018520Y0028418D01*
X0018520Y0028306D01*
X0018516Y0028194D01*
X0018508Y0028083D01*
X0018496Y0027972D01*
X0018480Y0027861D01*
X0018460Y0027751D01*
X0018437Y0027642D01*
X0018409Y0027533D01*
X0018378Y0027426D01*
X0018343Y0027320D01*
X0018304Y0027215D01*
X0018261Y0027111D01*
X0018215Y0027010D01*
X0018165Y0026910D01*
X0018112Y0026811D01*
X0018055Y0026715D01*
X0017995Y0026621D01*
X0017931Y0026529D01*
X0017865Y0026439D01*
X0017795Y0026352D01*
X0017722Y0026267D01*
X0017646Y0026185D01*
X0017568Y0026105D01*
X0017486Y0026029D01*
X0017402Y0025955D01*
X0017315Y0025884D01*
X0017226Y0025817D01*
X0017135Y0025753D01*
X0017041Y0025692D01*
X0016945Y0025634D01*
X0016847Y0025580D01*
X0016748Y0025529D01*
X0016646Y0025482D01*
X0016543Y0025439D01*
X0016439Y0025399D01*
X0016333Y0025363D01*
X0016226Y0025330D01*
X0016118Y0025302D01*
X0016009Y0025277D01*
X0015899Y0025257D01*
X0015788Y0025240D01*
X0015677Y0025227D01*
X0015566Y0025218D01*
X0015454Y0025213D01*
X0015342Y0025212D01*
X0015230Y0025215D01*
X0015119Y0025222D01*
X0015007Y0025233D01*
X0014897Y0025248D01*
X0014786Y0025267D01*
X0014677Y0025289D01*
X0014568Y0025316D01*
X0014461Y0025346D01*
X0014354Y0025380D01*
X0014249Y0025418D01*
X0014145Y0025460D01*
X0014043Y0025505D01*
X0013942Y0025554D01*
X0013844Y0025606D01*
X0013747Y0025662D01*
X0013652Y0025722D01*
X0013559Y0025784D01*
X0013469Y0025850D01*
X0013381Y0025919D01*
X0013296Y0025991D01*
X0013213Y0026067D01*
X0013133Y0026145D01*
X0013055Y0026225D01*
X0012981Y0026309D01*
X0012910Y0026395D01*
X0012841Y0026483D01*
X0012776Y0026574D01*
X0012715Y0026668D01*
X0012656Y0026763D01*
X0012601Y0026860D01*
X0012550Y0026959D01*
X0012502Y0027060D01*
X0012457Y0027163D01*
X0012416Y0027267D01*
X0012379Y0027373D01*
X0012346Y0027479D01*
X0012317Y0027587D01*
X0012291Y0027696D01*
X0012269Y0027806D01*
X0012252Y0027916D01*
X0012238Y0028027D01*
X0012228Y0028139D01*
X0012222Y0028250D01*
X0012220Y0028362D01*
X0168519Y0015370D02*
X0168521Y0015482D01*
X0168527Y0015593D01*
X0168537Y0015705D01*
X0168551Y0015816D01*
X0168568Y0015926D01*
X0168590Y0016036D01*
X0168616Y0016145D01*
X0168645Y0016253D01*
X0168678Y0016359D01*
X0168715Y0016465D01*
X0168756Y0016569D01*
X0168801Y0016672D01*
X0168849Y0016773D01*
X0168900Y0016872D01*
X0168955Y0016969D01*
X0169014Y0017064D01*
X0169075Y0017158D01*
X0169140Y0017249D01*
X0169209Y0017337D01*
X0169280Y0017423D01*
X0169354Y0017507D01*
X0169432Y0017587D01*
X0169512Y0017665D01*
X0169595Y0017741D01*
X0169680Y0017813D01*
X0169768Y0017882D01*
X0169858Y0017948D01*
X0169951Y0018010D01*
X0170046Y0018070D01*
X0170143Y0018126D01*
X0170241Y0018178D01*
X0170342Y0018227D01*
X0170444Y0018272D01*
X0170548Y0018314D01*
X0170653Y0018352D01*
X0170760Y0018386D01*
X0170867Y0018416D01*
X0170976Y0018443D01*
X0171085Y0018465D01*
X0171196Y0018484D01*
X0171306Y0018499D01*
X0171418Y0018510D01*
X0171529Y0018517D01*
X0171641Y0018520D01*
X0171753Y0018519D01*
X0171865Y0018514D01*
X0171976Y0018505D01*
X0172087Y0018492D01*
X0172198Y0018475D01*
X0172308Y0018455D01*
X0172417Y0018430D01*
X0172525Y0018402D01*
X0172632Y0018369D01*
X0172738Y0018333D01*
X0172842Y0018293D01*
X0172945Y0018250D01*
X0173047Y0018203D01*
X0173146Y0018152D01*
X0173244Y0018098D01*
X0173340Y0018040D01*
X0173434Y0017979D01*
X0173525Y0017915D01*
X0173614Y0017848D01*
X0173701Y0017777D01*
X0173785Y0017703D01*
X0173867Y0017627D01*
X0173945Y0017547D01*
X0174021Y0017465D01*
X0174094Y0017380D01*
X0174164Y0017293D01*
X0174230Y0017203D01*
X0174294Y0017111D01*
X0174354Y0017017D01*
X0174411Y0016921D01*
X0174464Y0016822D01*
X0174514Y0016722D01*
X0174560Y0016621D01*
X0174603Y0016517D01*
X0174642Y0016412D01*
X0174677Y0016306D01*
X0174708Y0016199D01*
X0174736Y0016090D01*
X0174759Y0015981D01*
X0174779Y0015871D01*
X0174795Y0015760D01*
X0174807Y0015649D01*
X0174815Y0015538D01*
X0174819Y0015426D01*
X0174819Y0015314D01*
X0174815Y0015202D01*
X0174807Y0015091D01*
X0174795Y0014980D01*
X0174779Y0014869D01*
X0174759Y0014759D01*
X0174736Y0014650D01*
X0174708Y0014541D01*
X0174677Y0014434D01*
X0174642Y0014328D01*
X0174603Y0014223D01*
X0174560Y0014119D01*
X0174514Y0014018D01*
X0174464Y0013918D01*
X0174411Y0013819D01*
X0174354Y0013723D01*
X0174294Y0013629D01*
X0174230Y0013537D01*
X0174164Y0013447D01*
X0174094Y0013360D01*
X0174021Y0013275D01*
X0173945Y0013193D01*
X0173867Y0013113D01*
X0173785Y0013037D01*
X0173701Y0012963D01*
X0173614Y0012892D01*
X0173525Y0012825D01*
X0173434Y0012761D01*
X0173340Y0012700D01*
X0173244Y0012642D01*
X0173146Y0012588D01*
X0173047Y0012537D01*
X0172945Y0012490D01*
X0172842Y0012447D01*
X0172738Y0012407D01*
X0172632Y0012371D01*
X0172525Y0012338D01*
X0172417Y0012310D01*
X0172308Y0012285D01*
X0172198Y0012265D01*
X0172087Y0012248D01*
X0171976Y0012235D01*
X0171865Y0012226D01*
X0171753Y0012221D01*
X0171641Y0012220D01*
X0171529Y0012223D01*
X0171418Y0012230D01*
X0171306Y0012241D01*
X0171196Y0012256D01*
X0171085Y0012275D01*
X0170976Y0012297D01*
X0170867Y0012324D01*
X0170760Y0012354D01*
X0170653Y0012388D01*
X0170548Y0012426D01*
X0170444Y0012468D01*
X0170342Y0012513D01*
X0170241Y0012562D01*
X0170143Y0012614D01*
X0170046Y0012670D01*
X0169951Y0012730D01*
X0169858Y0012792D01*
X0169768Y0012858D01*
X0169680Y0012927D01*
X0169595Y0012999D01*
X0169512Y0013075D01*
X0169432Y0013153D01*
X0169354Y0013233D01*
X0169280Y0013317D01*
X0169209Y0013403D01*
X0169140Y0013491D01*
X0169075Y0013582D01*
X0169014Y0013676D01*
X0168955Y0013771D01*
X0168900Y0013868D01*
X0168849Y0013967D01*
X0168801Y0014068D01*
X0168756Y0014171D01*
X0168715Y0014275D01*
X0168678Y0014381D01*
X0168645Y0014487D01*
X0168616Y0014595D01*
X0168590Y0014704D01*
X0168568Y0014814D01*
X0168551Y0014924D01*
X0168537Y0015035D01*
X0168527Y0015147D01*
X0168521Y0015258D01*
X0168519Y0015370D01*
M02*
