G75*
%MOIN*%
%OFA0B0*%
%FSLAX25Y25*%
%IPPOS*%
%LPD*%
%AMOC8*
5,1,8,0,0,1.08239X$1,22.5*
%
%ADD10C,0.00004*%
%ADD11C,0.00000*%
%ADD12OC8,0.07600*%
%ADD13C,0.06693*%
%ADD14OC8,0.03562*%
%ADD15C,0.01181*%
%ADD16C,0.01600*%
%ADD17C,0.03562*%
%ADD18C,0.03937*%
%ADD19C,0.02381*%
D10*
X0001591Y0001591D02*
X0040961Y0001591D01*
X0040961Y0007890D01*
X0080331Y0007890D01*
X0080331Y0001591D01*
X0113795Y0001591D01*
X0113795Y0043323D01*
X0124425Y0043323D01*
X0124425Y0007890D01*
X0159071Y0007890D01*
X0159071Y0001591D01*
X0194504Y0001591D01*
X0194504Y0040961D01*
X0198441Y0040961D01*
X0198441Y0080331D01*
X0194504Y0080331D01*
X0194504Y0119701D01*
X0198441Y0119701D01*
X0198441Y0159071D01*
X0194504Y0159071D01*
X0194504Y0198441D01*
X0159071Y0198441D01*
X0159071Y0194504D01*
X0119701Y0194504D01*
X0119701Y0198441D01*
X0080331Y0198441D01*
X0080331Y0194504D01*
X0040961Y0194504D01*
X0040961Y0198441D01*
X0001591Y0198441D01*
X0001591Y0159071D01*
X0005528Y0159071D01*
X0005528Y0119701D01*
X0001591Y0119701D01*
X0001591Y0080331D01*
X0005528Y0080331D01*
X0005528Y0040961D01*
X0001591Y0040961D01*
X0001591Y0001591D01*
D11*
X0012220Y0028362D02*
X0012222Y0028474D01*
X0012228Y0028585D01*
X0012238Y0028697D01*
X0012252Y0028808D01*
X0012269Y0028918D01*
X0012291Y0029028D01*
X0012317Y0029137D01*
X0012346Y0029245D01*
X0012379Y0029351D01*
X0012416Y0029457D01*
X0012457Y0029561D01*
X0012502Y0029664D01*
X0012550Y0029765D01*
X0012601Y0029864D01*
X0012656Y0029961D01*
X0012715Y0030056D01*
X0012776Y0030150D01*
X0012841Y0030241D01*
X0012910Y0030329D01*
X0012981Y0030415D01*
X0013055Y0030499D01*
X0013133Y0030579D01*
X0013213Y0030657D01*
X0013296Y0030733D01*
X0013381Y0030805D01*
X0013469Y0030874D01*
X0013559Y0030940D01*
X0013652Y0031002D01*
X0013747Y0031062D01*
X0013844Y0031118D01*
X0013942Y0031170D01*
X0014043Y0031219D01*
X0014145Y0031264D01*
X0014249Y0031306D01*
X0014354Y0031344D01*
X0014461Y0031378D01*
X0014568Y0031408D01*
X0014677Y0031435D01*
X0014786Y0031457D01*
X0014897Y0031476D01*
X0015007Y0031491D01*
X0015119Y0031502D01*
X0015230Y0031509D01*
X0015342Y0031512D01*
X0015454Y0031511D01*
X0015566Y0031506D01*
X0015677Y0031497D01*
X0015788Y0031484D01*
X0015899Y0031467D01*
X0016009Y0031447D01*
X0016118Y0031422D01*
X0016226Y0031394D01*
X0016333Y0031361D01*
X0016439Y0031325D01*
X0016543Y0031285D01*
X0016646Y0031242D01*
X0016748Y0031195D01*
X0016847Y0031144D01*
X0016945Y0031090D01*
X0017041Y0031032D01*
X0017135Y0030971D01*
X0017226Y0030907D01*
X0017315Y0030840D01*
X0017402Y0030769D01*
X0017486Y0030695D01*
X0017568Y0030619D01*
X0017646Y0030539D01*
X0017722Y0030457D01*
X0017795Y0030372D01*
X0017865Y0030285D01*
X0017931Y0030195D01*
X0017995Y0030103D01*
X0018055Y0030009D01*
X0018112Y0029913D01*
X0018165Y0029814D01*
X0018215Y0029714D01*
X0018261Y0029613D01*
X0018304Y0029509D01*
X0018343Y0029404D01*
X0018378Y0029298D01*
X0018409Y0029191D01*
X0018437Y0029082D01*
X0018460Y0028973D01*
X0018480Y0028863D01*
X0018496Y0028752D01*
X0018508Y0028641D01*
X0018516Y0028530D01*
X0018520Y0028418D01*
X0018520Y0028306D01*
X0018516Y0028194D01*
X0018508Y0028083D01*
X0018496Y0027972D01*
X0018480Y0027861D01*
X0018460Y0027751D01*
X0018437Y0027642D01*
X0018409Y0027533D01*
X0018378Y0027426D01*
X0018343Y0027320D01*
X0018304Y0027215D01*
X0018261Y0027111D01*
X0018215Y0027010D01*
X0018165Y0026910D01*
X0018112Y0026811D01*
X0018055Y0026715D01*
X0017995Y0026621D01*
X0017931Y0026529D01*
X0017865Y0026439D01*
X0017795Y0026352D01*
X0017722Y0026267D01*
X0017646Y0026185D01*
X0017568Y0026105D01*
X0017486Y0026029D01*
X0017402Y0025955D01*
X0017315Y0025884D01*
X0017226Y0025817D01*
X0017135Y0025753D01*
X0017041Y0025692D01*
X0016945Y0025634D01*
X0016847Y0025580D01*
X0016748Y0025529D01*
X0016646Y0025482D01*
X0016543Y0025439D01*
X0016439Y0025399D01*
X0016333Y0025363D01*
X0016226Y0025330D01*
X0016118Y0025302D01*
X0016009Y0025277D01*
X0015899Y0025257D01*
X0015788Y0025240D01*
X0015677Y0025227D01*
X0015566Y0025218D01*
X0015454Y0025213D01*
X0015342Y0025212D01*
X0015230Y0025215D01*
X0015119Y0025222D01*
X0015007Y0025233D01*
X0014897Y0025248D01*
X0014786Y0025267D01*
X0014677Y0025289D01*
X0014568Y0025316D01*
X0014461Y0025346D01*
X0014354Y0025380D01*
X0014249Y0025418D01*
X0014145Y0025460D01*
X0014043Y0025505D01*
X0013942Y0025554D01*
X0013844Y0025606D01*
X0013747Y0025662D01*
X0013652Y0025722D01*
X0013559Y0025784D01*
X0013469Y0025850D01*
X0013381Y0025919D01*
X0013296Y0025991D01*
X0013213Y0026067D01*
X0013133Y0026145D01*
X0013055Y0026225D01*
X0012981Y0026309D01*
X0012910Y0026395D01*
X0012841Y0026483D01*
X0012776Y0026574D01*
X0012715Y0026668D01*
X0012656Y0026763D01*
X0012601Y0026860D01*
X0012550Y0026959D01*
X0012502Y0027060D01*
X0012457Y0027163D01*
X0012416Y0027267D01*
X0012379Y0027373D01*
X0012346Y0027479D01*
X0012317Y0027587D01*
X0012291Y0027696D01*
X0012269Y0027806D01*
X0012252Y0027916D01*
X0012238Y0028027D01*
X0012228Y0028139D01*
X0012222Y0028250D01*
X0012220Y0028362D01*
X0105921Y0092142D02*
X0105923Y0092230D01*
X0105929Y0092318D01*
X0105939Y0092406D01*
X0105953Y0092494D01*
X0105970Y0092580D01*
X0105992Y0092666D01*
X0106017Y0092750D01*
X0106047Y0092834D01*
X0106079Y0092916D01*
X0106116Y0092996D01*
X0106156Y0093075D01*
X0106200Y0093152D01*
X0106247Y0093227D01*
X0106297Y0093299D01*
X0106351Y0093370D01*
X0106407Y0093437D01*
X0106467Y0093503D01*
X0106529Y0093565D01*
X0106595Y0093625D01*
X0106662Y0093681D01*
X0106733Y0093735D01*
X0106805Y0093785D01*
X0106880Y0093832D01*
X0106957Y0093876D01*
X0107036Y0093916D01*
X0107116Y0093953D01*
X0107198Y0093985D01*
X0107282Y0094015D01*
X0107366Y0094040D01*
X0107452Y0094062D01*
X0107538Y0094079D01*
X0107626Y0094093D01*
X0107714Y0094103D01*
X0107802Y0094109D01*
X0107890Y0094111D01*
X0107978Y0094109D01*
X0108066Y0094103D01*
X0108154Y0094093D01*
X0108242Y0094079D01*
X0108328Y0094062D01*
X0108414Y0094040D01*
X0108498Y0094015D01*
X0108582Y0093985D01*
X0108664Y0093953D01*
X0108744Y0093916D01*
X0108823Y0093876D01*
X0108900Y0093832D01*
X0108975Y0093785D01*
X0109047Y0093735D01*
X0109118Y0093681D01*
X0109185Y0093625D01*
X0109251Y0093565D01*
X0109313Y0093503D01*
X0109373Y0093437D01*
X0109429Y0093370D01*
X0109483Y0093299D01*
X0109533Y0093227D01*
X0109580Y0093152D01*
X0109624Y0093075D01*
X0109664Y0092996D01*
X0109701Y0092916D01*
X0109733Y0092834D01*
X0109763Y0092750D01*
X0109788Y0092666D01*
X0109810Y0092580D01*
X0109827Y0092494D01*
X0109841Y0092406D01*
X0109851Y0092318D01*
X0109857Y0092230D01*
X0109859Y0092142D01*
X0109857Y0092054D01*
X0109851Y0091966D01*
X0109841Y0091878D01*
X0109827Y0091790D01*
X0109810Y0091704D01*
X0109788Y0091618D01*
X0109763Y0091534D01*
X0109733Y0091450D01*
X0109701Y0091368D01*
X0109664Y0091288D01*
X0109624Y0091209D01*
X0109580Y0091132D01*
X0109533Y0091057D01*
X0109483Y0090985D01*
X0109429Y0090914D01*
X0109373Y0090847D01*
X0109313Y0090781D01*
X0109251Y0090719D01*
X0109185Y0090659D01*
X0109118Y0090603D01*
X0109047Y0090549D01*
X0108975Y0090499D01*
X0108900Y0090452D01*
X0108823Y0090408D01*
X0108744Y0090368D01*
X0108664Y0090331D01*
X0108582Y0090299D01*
X0108498Y0090269D01*
X0108414Y0090244D01*
X0108328Y0090222D01*
X0108242Y0090205D01*
X0108154Y0090191D01*
X0108066Y0090181D01*
X0107978Y0090175D01*
X0107890Y0090173D01*
X0107802Y0090175D01*
X0107714Y0090181D01*
X0107626Y0090191D01*
X0107538Y0090205D01*
X0107452Y0090222D01*
X0107366Y0090244D01*
X0107282Y0090269D01*
X0107198Y0090299D01*
X0107116Y0090331D01*
X0107036Y0090368D01*
X0106957Y0090408D01*
X0106880Y0090452D01*
X0106805Y0090499D01*
X0106733Y0090549D01*
X0106662Y0090603D01*
X0106595Y0090659D01*
X0106529Y0090719D01*
X0106467Y0090781D01*
X0106407Y0090847D01*
X0106351Y0090914D01*
X0106297Y0090985D01*
X0106247Y0091057D01*
X0106200Y0091132D01*
X0106156Y0091209D01*
X0106116Y0091288D01*
X0106079Y0091368D01*
X0106047Y0091450D01*
X0106017Y0091534D01*
X0105992Y0091618D01*
X0105970Y0091704D01*
X0105953Y0091790D01*
X0105939Y0091878D01*
X0105929Y0091966D01*
X0105923Y0092054D01*
X0105921Y0092142D01*
X0105921Y0103953D02*
X0105923Y0104041D01*
X0105929Y0104129D01*
X0105939Y0104217D01*
X0105953Y0104305D01*
X0105970Y0104391D01*
X0105992Y0104477D01*
X0106017Y0104561D01*
X0106047Y0104645D01*
X0106079Y0104727D01*
X0106116Y0104807D01*
X0106156Y0104886D01*
X0106200Y0104963D01*
X0106247Y0105038D01*
X0106297Y0105110D01*
X0106351Y0105181D01*
X0106407Y0105248D01*
X0106467Y0105314D01*
X0106529Y0105376D01*
X0106595Y0105436D01*
X0106662Y0105492D01*
X0106733Y0105546D01*
X0106805Y0105596D01*
X0106880Y0105643D01*
X0106957Y0105687D01*
X0107036Y0105727D01*
X0107116Y0105764D01*
X0107198Y0105796D01*
X0107282Y0105826D01*
X0107366Y0105851D01*
X0107452Y0105873D01*
X0107538Y0105890D01*
X0107626Y0105904D01*
X0107714Y0105914D01*
X0107802Y0105920D01*
X0107890Y0105922D01*
X0107978Y0105920D01*
X0108066Y0105914D01*
X0108154Y0105904D01*
X0108242Y0105890D01*
X0108328Y0105873D01*
X0108414Y0105851D01*
X0108498Y0105826D01*
X0108582Y0105796D01*
X0108664Y0105764D01*
X0108744Y0105727D01*
X0108823Y0105687D01*
X0108900Y0105643D01*
X0108975Y0105596D01*
X0109047Y0105546D01*
X0109118Y0105492D01*
X0109185Y0105436D01*
X0109251Y0105376D01*
X0109313Y0105314D01*
X0109373Y0105248D01*
X0109429Y0105181D01*
X0109483Y0105110D01*
X0109533Y0105038D01*
X0109580Y0104963D01*
X0109624Y0104886D01*
X0109664Y0104807D01*
X0109701Y0104727D01*
X0109733Y0104645D01*
X0109763Y0104561D01*
X0109788Y0104477D01*
X0109810Y0104391D01*
X0109827Y0104305D01*
X0109841Y0104217D01*
X0109851Y0104129D01*
X0109857Y0104041D01*
X0109859Y0103953D01*
X0109857Y0103865D01*
X0109851Y0103777D01*
X0109841Y0103689D01*
X0109827Y0103601D01*
X0109810Y0103515D01*
X0109788Y0103429D01*
X0109763Y0103345D01*
X0109733Y0103261D01*
X0109701Y0103179D01*
X0109664Y0103099D01*
X0109624Y0103020D01*
X0109580Y0102943D01*
X0109533Y0102868D01*
X0109483Y0102796D01*
X0109429Y0102725D01*
X0109373Y0102658D01*
X0109313Y0102592D01*
X0109251Y0102530D01*
X0109185Y0102470D01*
X0109118Y0102414D01*
X0109047Y0102360D01*
X0108975Y0102310D01*
X0108900Y0102263D01*
X0108823Y0102219D01*
X0108744Y0102179D01*
X0108664Y0102142D01*
X0108582Y0102110D01*
X0108498Y0102080D01*
X0108414Y0102055D01*
X0108328Y0102033D01*
X0108242Y0102016D01*
X0108154Y0102002D01*
X0108066Y0101992D01*
X0107978Y0101986D01*
X0107890Y0101984D01*
X0107802Y0101986D01*
X0107714Y0101992D01*
X0107626Y0102002D01*
X0107538Y0102016D01*
X0107452Y0102033D01*
X0107366Y0102055D01*
X0107282Y0102080D01*
X0107198Y0102110D01*
X0107116Y0102142D01*
X0107036Y0102179D01*
X0106957Y0102219D01*
X0106880Y0102263D01*
X0106805Y0102310D01*
X0106733Y0102360D01*
X0106662Y0102414D01*
X0106595Y0102470D01*
X0106529Y0102530D01*
X0106467Y0102592D01*
X0106407Y0102658D01*
X0106351Y0102725D01*
X0106297Y0102796D01*
X0106247Y0102868D01*
X0106200Y0102943D01*
X0106156Y0103020D01*
X0106116Y0103099D01*
X0106079Y0103179D01*
X0106047Y0103261D01*
X0106017Y0103345D01*
X0105992Y0103429D01*
X0105970Y0103515D01*
X0105953Y0103601D01*
X0105939Y0103689D01*
X0105929Y0103777D01*
X0105923Y0103865D01*
X0105921Y0103953D01*
X0181511Y0171669D02*
X0181513Y0171781D01*
X0181519Y0171892D01*
X0181529Y0172004D01*
X0181543Y0172115D01*
X0181560Y0172225D01*
X0181582Y0172335D01*
X0181608Y0172444D01*
X0181637Y0172552D01*
X0181670Y0172658D01*
X0181707Y0172764D01*
X0181748Y0172868D01*
X0181793Y0172971D01*
X0181841Y0173072D01*
X0181892Y0173171D01*
X0181947Y0173268D01*
X0182006Y0173363D01*
X0182067Y0173457D01*
X0182132Y0173548D01*
X0182201Y0173636D01*
X0182272Y0173722D01*
X0182346Y0173806D01*
X0182424Y0173886D01*
X0182504Y0173964D01*
X0182587Y0174040D01*
X0182672Y0174112D01*
X0182760Y0174181D01*
X0182850Y0174247D01*
X0182943Y0174309D01*
X0183038Y0174369D01*
X0183135Y0174425D01*
X0183233Y0174477D01*
X0183334Y0174526D01*
X0183436Y0174571D01*
X0183540Y0174613D01*
X0183645Y0174651D01*
X0183752Y0174685D01*
X0183859Y0174715D01*
X0183968Y0174742D01*
X0184077Y0174764D01*
X0184188Y0174783D01*
X0184298Y0174798D01*
X0184410Y0174809D01*
X0184521Y0174816D01*
X0184633Y0174819D01*
X0184745Y0174818D01*
X0184857Y0174813D01*
X0184968Y0174804D01*
X0185079Y0174791D01*
X0185190Y0174774D01*
X0185300Y0174754D01*
X0185409Y0174729D01*
X0185517Y0174701D01*
X0185624Y0174668D01*
X0185730Y0174632D01*
X0185834Y0174592D01*
X0185937Y0174549D01*
X0186039Y0174502D01*
X0186138Y0174451D01*
X0186236Y0174397D01*
X0186332Y0174339D01*
X0186426Y0174278D01*
X0186517Y0174214D01*
X0186606Y0174147D01*
X0186693Y0174076D01*
X0186777Y0174002D01*
X0186859Y0173926D01*
X0186937Y0173846D01*
X0187013Y0173764D01*
X0187086Y0173679D01*
X0187156Y0173592D01*
X0187222Y0173502D01*
X0187286Y0173410D01*
X0187346Y0173316D01*
X0187403Y0173220D01*
X0187456Y0173121D01*
X0187506Y0173021D01*
X0187552Y0172920D01*
X0187595Y0172816D01*
X0187634Y0172711D01*
X0187669Y0172605D01*
X0187700Y0172498D01*
X0187728Y0172389D01*
X0187751Y0172280D01*
X0187771Y0172170D01*
X0187787Y0172059D01*
X0187799Y0171948D01*
X0187807Y0171837D01*
X0187811Y0171725D01*
X0187811Y0171613D01*
X0187807Y0171501D01*
X0187799Y0171390D01*
X0187787Y0171279D01*
X0187771Y0171168D01*
X0187751Y0171058D01*
X0187728Y0170949D01*
X0187700Y0170840D01*
X0187669Y0170733D01*
X0187634Y0170627D01*
X0187595Y0170522D01*
X0187552Y0170418D01*
X0187506Y0170317D01*
X0187456Y0170217D01*
X0187403Y0170118D01*
X0187346Y0170022D01*
X0187286Y0169928D01*
X0187222Y0169836D01*
X0187156Y0169746D01*
X0187086Y0169659D01*
X0187013Y0169574D01*
X0186937Y0169492D01*
X0186859Y0169412D01*
X0186777Y0169336D01*
X0186693Y0169262D01*
X0186606Y0169191D01*
X0186517Y0169124D01*
X0186426Y0169060D01*
X0186332Y0168999D01*
X0186236Y0168941D01*
X0186138Y0168887D01*
X0186039Y0168836D01*
X0185937Y0168789D01*
X0185834Y0168746D01*
X0185730Y0168706D01*
X0185624Y0168670D01*
X0185517Y0168637D01*
X0185409Y0168609D01*
X0185300Y0168584D01*
X0185190Y0168564D01*
X0185079Y0168547D01*
X0184968Y0168534D01*
X0184857Y0168525D01*
X0184745Y0168520D01*
X0184633Y0168519D01*
X0184521Y0168522D01*
X0184410Y0168529D01*
X0184298Y0168540D01*
X0184188Y0168555D01*
X0184077Y0168574D01*
X0183968Y0168596D01*
X0183859Y0168623D01*
X0183752Y0168653D01*
X0183645Y0168687D01*
X0183540Y0168725D01*
X0183436Y0168767D01*
X0183334Y0168812D01*
X0183233Y0168861D01*
X0183135Y0168913D01*
X0183038Y0168969D01*
X0182943Y0169029D01*
X0182850Y0169091D01*
X0182760Y0169157D01*
X0182672Y0169226D01*
X0182587Y0169298D01*
X0182504Y0169374D01*
X0182424Y0169452D01*
X0182346Y0169532D01*
X0182272Y0169616D01*
X0182201Y0169702D01*
X0182132Y0169790D01*
X0182067Y0169881D01*
X0182006Y0169975D01*
X0181947Y0170070D01*
X0181892Y0170167D01*
X0181841Y0170266D01*
X0181793Y0170367D01*
X0181748Y0170470D01*
X0181707Y0170574D01*
X0181670Y0170680D01*
X0181637Y0170786D01*
X0181608Y0170894D01*
X0181582Y0171003D01*
X0181560Y0171113D01*
X0181543Y0171223D01*
X0181529Y0171334D01*
X0181519Y0171446D01*
X0181513Y0171557D01*
X0181511Y0171669D01*
X0025212Y0184661D02*
X0025214Y0184773D01*
X0025220Y0184884D01*
X0025230Y0184996D01*
X0025244Y0185107D01*
X0025261Y0185217D01*
X0025283Y0185327D01*
X0025309Y0185436D01*
X0025338Y0185544D01*
X0025371Y0185650D01*
X0025408Y0185756D01*
X0025449Y0185860D01*
X0025494Y0185963D01*
X0025542Y0186064D01*
X0025593Y0186163D01*
X0025648Y0186260D01*
X0025707Y0186355D01*
X0025768Y0186449D01*
X0025833Y0186540D01*
X0025902Y0186628D01*
X0025973Y0186714D01*
X0026047Y0186798D01*
X0026125Y0186878D01*
X0026205Y0186956D01*
X0026288Y0187032D01*
X0026373Y0187104D01*
X0026461Y0187173D01*
X0026551Y0187239D01*
X0026644Y0187301D01*
X0026739Y0187361D01*
X0026836Y0187417D01*
X0026934Y0187469D01*
X0027035Y0187518D01*
X0027137Y0187563D01*
X0027241Y0187605D01*
X0027346Y0187643D01*
X0027453Y0187677D01*
X0027560Y0187707D01*
X0027669Y0187734D01*
X0027778Y0187756D01*
X0027889Y0187775D01*
X0027999Y0187790D01*
X0028111Y0187801D01*
X0028222Y0187808D01*
X0028334Y0187811D01*
X0028446Y0187810D01*
X0028558Y0187805D01*
X0028669Y0187796D01*
X0028780Y0187783D01*
X0028891Y0187766D01*
X0029001Y0187746D01*
X0029110Y0187721D01*
X0029218Y0187693D01*
X0029325Y0187660D01*
X0029431Y0187624D01*
X0029535Y0187584D01*
X0029638Y0187541D01*
X0029740Y0187494D01*
X0029839Y0187443D01*
X0029937Y0187389D01*
X0030033Y0187331D01*
X0030127Y0187270D01*
X0030218Y0187206D01*
X0030307Y0187139D01*
X0030394Y0187068D01*
X0030478Y0186994D01*
X0030560Y0186918D01*
X0030638Y0186838D01*
X0030714Y0186756D01*
X0030787Y0186671D01*
X0030857Y0186584D01*
X0030923Y0186494D01*
X0030987Y0186402D01*
X0031047Y0186308D01*
X0031104Y0186212D01*
X0031157Y0186113D01*
X0031207Y0186013D01*
X0031253Y0185912D01*
X0031296Y0185808D01*
X0031335Y0185703D01*
X0031370Y0185597D01*
X0031401Y0185490D01*
X0031429Y0185381D01*
X0031452Y0185272D01*
X0031472Y0185162D01*
X0031488Y0185051D01*
X0031500Y0184940D01*
X0031508Y0184829D01*
X0031512Y0184717D01*
X0031512Y0184605D01*
X0031508Y0184493D01*
X0031500Y0184382D01*
X0031488Y0184271D01*
X0031472Y0184160D01*
X0031452Y0184050D01*
X0031429Y0183941D01*
X0031401Y0183832D01*
X0031370Y0183725D01*
X0031335Y0183619D01*
X0031296Y0183514D01*
X0031253Y0183410D01*
X0031207Y0183309D01*
X0031157Y0183209D01*
X0031104Y0183110D01*
X0031047Y0183014D01*
X0030987Y0182920D01*
X0030923Y0182828D01*
X0030857Y0182738D01*
X0030787Y0182651D01*
X0030714Y0182566D01*
X0030638Y0182484D01*
X0030560Y0182404D01*
X0030478Y0182328D01*
X0030394Y0182254D01*
X0030307Y0182183D01*
X0030218Y0182116D01*
X0030127Y0182052D01*
X0030033Y0181991D01*
X0029937Y0181933D01*
X0029839Y0181879D01*
X0029740Y0181828D01*
X0029638Y0181781D01*
X0029535Y0181738D01*
X0029431Y0181698D01*
X0029325Y0181662D01*
X0029218Y0181629D01*
X0029110Y0181601D01*
X0029001Y0181576D01*
X0028891Y0181556D01*
X0028780Y0181539D01*
X0028669Y0181526D01*
X0028558Y0181517D01*
X0028446Y0181512D01*
X0028334Y0181511D01*
X0028222Y0181514D01*
X0028111Y0181521D01*
X0027999Y0181532D01*
X0027889Y0181547D01*
X0027778Y0181566D01*
X0027669Y0181588D01*
X0027560Y0181615D01*
X0027453Y0181645D01*
X0027346Y0181679D01*
X0027241Y0181717D01*
X0027137Y0181759D01*
X0027035Y0181804D01*
X0026934Y0181853D01*
X0026836Y0181905D01*
X0026739Y0181961D01*
X0026644Y0182021D01*
X0026551Y0182083D01*
X0026461Y0182149D01*
X0026373Y0182218D01*
X0026288Y0182290D01*
X0026205Y0182366D01*
X0026125Y0182444D01*
X0026047Y0182524D01*
X0025973Y0182608D01*
X0025902Y0182694D01*
X0025833Y0182782D01*
X0025768Y0182873D01*
X0025707Y0182967D01*
X0025648Y0183062D01*
X0025593Y0183159D01*
X0025542Y0183258D01*
X0025494Y0183359D01*
X0025449Y0183462D01*
X0025408Y0183566D01*
X0025371Y0183672D01*
X0025338Y0183778D01*
X0025309Y0183886D01*
X0025283Y0183995D01*
X0025261Y0184105D01*
X0025244Y0184215D01*
X0025230Y0184326D01*
X0025220Y0184438D01*
X0025214Y0184549D01*
X0025212Y0184661D01*
X0168519Y0015370D02*
X0168521Y0015482D01*
X0168527Y0015593D01*
X0168537Y0015705D01*
X0168551Y0015816D01*
X0168568Y0015926D01*
X0168590Y0016036D01*
X0168616Y0016145D01*
X0168645Y0016253D01*
X0168678Y0016359D01*
X0168715Y0016465D01*
X0168756Y0016569D01*
X0168801Y0016672D01*
X0168849Y0016773D01*
X0168900Y0016872D01*
X0168955Y0016969D01*
X0169014Y0017064D01*
X0169075Y0017158D01*
X0169140Y0017249D01*
X0169209Y0017337D01*
X0169280Y0017423D01*
X0169354Y0017507D01*
X0169432Y0017587D01*
X0169512Y0017665D01*
X0169595Y0017741D01*
X0169680Y0017813D01*
X0169768Y0017882D01*
X0169858Y0017948D01*
X0169951Y0018010D01*
X0170046Y0018070D01*
X0170143Y0018126D01*
X0170241Y0018178D01*
X0170342Y0018227D01*
X0170444Y0018272D01*
X0170548Y0018314D01*
X0170653Y0018352D01*
X0170760Y0018386D01*
X0170867Y0018416D01*
X0170976Y0018443D01*
X0171085Y0018465D01*
X0171196Y0018484D01*
X0171306Y0018499D01*
X0171418Y0018510D01*
X0171529Y0018517D01*
X0171641Y0018520D01*
X0171753Y0018519D01*
X0171865Y0018514D01*
X0171976Y0018505D01*
X0172087Y0018492D01*
X0172198Y0018475D01*
X0172308Y0018455D01*
X0172417Y0018430D01*
X0172525Y0018402D01*
X0172632Y0018369D01*
X0172738Y0018333D01*
X0172842Y0018293D01*
X0172945Y0018250D01*
X0173047Y0018203D01*
X0173146Y0018152D01*
X0173244Y0018098D01*
X0173340Y0018040D01*
X0173434Y0017979D01*
X0173525Y0017915D01*
X0173614Y0017848D01*
X0173701Y0017777D01*
X0173785Y0017703D01*
X0173867Y0017627D01*
X0173945Y0017547D01*
X0174021Y0017465D01*
X0174094Y0017380D01*
X0174164Y0017293D01*
X0174230Y0017203D01*
X0174294Y0017111D01*
X0174354Y0017017D01*
X0174411Y0016921D01*
X0174464Y0016822D01*
X0174514Y0016722D01*
X0174560Y0016621D01*
X0174603Y0016517D01*
X0174642Y0016412D01*
X0174677Y0016306D01*
X0174708Y0016199D01*
X0174736Y0016090D01*
X0174759Y0015981D01*
X0174779Y0015871D01*
X0174795Y0015760D01*
X0174807Y0015649D01*
X0174815Y0015538D01*
X0174819Y0015426D01*
X0174819Y0015314D01*
X0174815Y0015202D01*
X0174807Y0015091D01*
X0174795Y0014980D01*
X0174779Y0014869D01*
X0174759Y0014759D01*
X0174736Y0014650D01*
X0174708Y0014541D01*
X0174677Y0014434D01*
X0174642Y0014328D01*
X0174603Y0014223D01*
X0174560Y0014119D01*
X0174514Y0014018D01*
X0174464Y0013918D01*
X0174411Y0013819D01*
X0174354Y0013723D01*
X0174294Y0013629D01*
X0174230Y0013537D01*
X0174164Y0013447D01*
X0174094Y0013360D01*
X0174021Y0013275D01*
X0173945Y0013193D01*
X0173867Y0013113D01*
X0173785Y0013037D01*
X0173701Y0012963D01*
X0173614Y0012892D01*
X0173525Y0012825D01*
X0173434Y0012761D01*
X0173340Y0012700D01*
X0173244Y0012642D01*
X0173146Y0012588D01*
X0173047Y0012537D01*
X0172945Y0012490D01*
X0172842Y0012447D01*
X0172738Y0012407D01*
X0172632Y0012371D01*
X0172525Y0012338D01*
X0172417Y0012310D01*
X0172308Y0012285D01*
X0172198Y0012265D01*
X0172087Y0012248D01*
X0171976Y0012235D01*
X0171865Y0012226D01*
X0171753Y0012221D01*
X0171641Y0012220D01*
X0171529Y0012223D01*
X0171418Y0012230D01*
X0171306Y0012241D01*
X0171196Y0012256D01*
X0171085Y0012275D01*
X0170976Y0012297D01*
X0170867Y0012324D01*
X0170760Y0012354D01*
X0170653Y0012388D01*
X0170548Y0012426D01*
X0170444Y0012468D01*
X0170342Y0012513D01*
X0170241Y0012562D01*
X0170143Y0012614D01*
X0170046Y0012670D01*
X0169951Y0012730D01*
X0169858Y0012792D01*
X0169768Y0012858D01*
X0169680Y0012927D01*
X0169595Y0012999D01*
X0169512Y0013075D01*
X0169432Y0013153D01*
X0169354Y0013233D01*
X0169280Y0013317D01*
X0169209Y0013403D01*
X0169140Y0013491D01*
X0169075Y0013582D01*
X0169014Y0013676D01*
X0168955Y0013771D01*
X0168900Y0013868D01*
X0168849Y0013967D01*
X0168801Y0014068D01*
X0168756Y0014171D01*
X0168715Y0014275D01*
X0168678Y0014381D01*
X0168645Y0014487D01*
X0168616Y0014595D01*
X0168590Y0014704D01*
X0168568Y0014814D01*
X0168551Y0014924D01*
X0168537Y0015035D01*
X0168527Y0015147D01*
X0168521Y0015258D01*
X0168519Y0015370D01*
D12*
X0118913Y0092142D03*
X0118913Y0103953D03*
X0091945Y0118126D03*
X0081906Y0118126D03*
D13*
X0107890Y0103953D03*
X0107890Y0092142D03*
D14*
X0100016Y0089780D03*
X0103165Y0085843D03*
X0108283Y0085843D03*
X0113402Y0085843D03*
X0116551Y0072457D03*
X0116551Y0067339D03*
X0116551Y0062220D03*
X0116551Y0057102D03*
X0116551Y0051984D03*
X0116551Y0046866D03*
X0122063Y0046866D03*
X0122063Y0051984D03*
X0127181Y0050803D03*
X0122063Y0057102D03*
X0127181Y0060646D03*
X0122063Y0062220D03*
X0122063Y0067339D03*
X0127181Y0070488D03*
X0122063Y0072457D03*
X0127181Y0080331D03*
X0127181Y0090173D03*
X0137024Y0090173D03*
X0145291Y0090173D03*
X0146866Y0080331D03*
X0137024Y0080331D03*
X0137024Y0070488D03*
X0146866Y0070488D03*
X0152772Y0070488D03*
X0161433Y0072457D03*
X0171276Y0072457D03*
X0181118Y0072457D03*
X0181118Y0082299D03*
X0171276Y0082299D03*
X0171276Y0092142D03*
X0171276Y0101984D03*
X0181118Y0101984D03*
X0181118Y0092142D03*
X0190961Y0092142D03*
X0190961Y0101984D03*
X0190961Y0111827D03*
X0181118Y0111827D03*
X0171276Y0111827D03*
X0169307Y0116551D03*
X0163795Y0116551D03*
X0158283Y0116551D03*
X0157890Y0111827D03*
X0152772Y0116551D03*
X0152772Y0122063D03*
X0151591Y0127181D03*
X0158283Y0122063D03*
X0163795Y0122063D03*
X0161433Y0127181D03*
X0169307Y0122063D03*
X0171276Y0127181D03*
X0181118Y0127181D03*
X0181118Y0137024D03*
X0181118Y0146866D03*
X0171276Y0146866D03*
X0171276Y0137024D03*
X0161433Y0137024D03*
X0161433Y0146866D03*
X0151591Y0146866D03*
X0151591Y0137024D03*
X0141748Y0137024D03*
X0141748Y0146866D03*
X0136630Y0153953D03*
X0131906Y0146866D03*
X0122063Y0146866D03*
X0122063Y0137024D03*
X0131906Y0137024D03*
X0131906Y0127181D03*
X0122063Y0127181D03*
X0112220Y0127181D03*
X0102378Y0127181D03*
X0102378Y0137024D03*
X0112220Y0137024D03*
X0112220Y0144504D03*
X0107890Y0155921D03*
X0107890Y0160646D03*
X0098047Y0160646D03*
X0098047Y0155134D03*
X0088205Y0154740D03*
X0088205Y0160646D03*
X0080331Y0162614D03*
X0080331Y0156709D03*
X0080331Y0150803D03*
X0080331Y0144898D03*
X0080331Y0139386D03*
X0080331Y0133480D03*
X0086236Y0133480D03*
X0070882Y0129937D03*
X0063008Y0129937D03*
X0063008Y0120094D03*
X0070882Y0120094D03*
X0070882Y0112220D03*
X0062614Y0112220D03*
X0062614Y0103953D03*
X0070882Y0101591D03*
X0053953Y0087811D03*
X0053559Y0081118D03*
X0047654Y0081118D03*
X0041748Y0081118D03*
X0035843Y0081118D03*
X0029937Y0081118D03*
X0029150Y0074819D03*
X0038992Y0074819D03*
X0038992Y0064976D03*
X0038992Y0055134D03*
X0029150Y0055134D03*
X0029150Y0064976D03*
X0019307Y0064976D03*
X0019307Y0055134D03*
X0009465Y0055134D03*
X0009465Y0064976D03*
X0009465Y0074819D03*
X0019307Y0074819D03*
X0019701Y0088992D03*
X0011039Y0088992D03*
X0011039Y0098047D03*
X0019701Y0098047D03*
X0019701Y0107890D03*
X0011039Y0107890D03*
X0011039Y0117732D03*
X0019701Y0117732D03*
X0029543Y0117732D03*
X0029543Y0107890D03*
X0029543Y0098047D03*
X0029543Y0088992D03*
X0039780Y0088992D03*
X0039780Y0098047D03*
X0039780Y0107890D03*
X0039780Y0117732D03*
X0039780Y0127575D03*
X0029543Y0127575D03*
X0019701Y0127575D03*
X0011039Y0127575D03*
X0011039Y0137417D03*
X0019701Y0137417D03*
X0029543Y0137417D03*
X0029543Y0147260D03*
X0019701Y0147260D03*
X0011039Y0147260D03*
X0011039Y0157102D03*
X0019701Y0157102D03*
X0028756Y0157102D03*
X0019701Y0166945D03*
X0025606Y0170094D03*
X0018913Y0174425D03*
X0011039Y0174425D03*
X0011039Y0166945D03*
X0011039Y0182693D03*
X0017732Y0188992D03*
X0017732Y0194898D03*
X0011827Y0194898D03*
X0006315Y0194898D03*
X0023638Y0194898D03*
X0029543Y0194898D03*
X0023638Y0188992D03*
X0042929Y0179150D03*
X0042929Y0169307D03*
X0042929Y0159465D03*
X0042929Y0149622D03*
X0053165Y0149622D03*
X0053165Y0139780D03*
X0063008Y0139780D03*
X0070882Y0140173D03*
X0070882Y0149622D03*
X0063008Y0149622D03*
X0063008Y0159465D03*
X0070882Y0159465D03*
X0071276Y0169307D03*
X0063008Y0169307D03*
X0063008Y0179150D03*
X0071276Y0179150D03*
X0080331Y0168520D03*
X0088205Y0170488D03*
X0098047Y0170488D03*
X0107890Y0170488D03*
X0117732Y0170488D03*
X0117732Y0160646D03*
X0127575Y0160646D03*
X0127575Y0170488D03*
X0137417Y0170488D03*
X0137417Y0161827D03*
X0147260Y0170488D03*
X0157102Y0170488D03*
X0157102Y0180331D03*
X0147260Y0180331D03*
X0147260Y0190173D03*
X0157102Y0190173D03*
X0166945Y0190173D03*
X0166945Y0180331D03*
X0166945Y0173244D03*
X0176787Y0180331D03*
X0176787Y0190173D03*
X0186630Y0190173D03*
X0190961Y0160252D03*
X0181118Y0160252D03*
X0171276Y0159858D03*
X0161433Y0158283D03*
X0151591Y0156709D03*
X0137417Y0180331D03*
X0127575Y0180331D03*
X0127575Y0190173D03*
X0137417Y0190173D03*
X0117732Y0190173D03*
X0107890Y0190173D03*
X0098047Y0190173D03*
X0088205Y0190173D03*
X0088205Y0180331D03*
X0098047Y0180331D03*
X0107890Y0180331D03*
X0117732Y0180331D03*
X0141748Y0127181D03*
X0138992Y0116551D03*
X0133480Y0116551D03*
X0136236Y0111433D03*
X0127181Y0109858D03*
X0120094Y0116157D03*
X0116551Y0111039D03*
X0113008Y0116157D03*
X0109465Y0111039D03*
X0105921Y0116157D03*
X0101591Y0111039D03*
X0100016Y0105528D03*
X0100016Y0100409D03*
X0100016Y0094898D03*
X0098047Y0074819D03*
X0098047Y0067732D03*
X0105528Y0062220D03*
X0111039Y0067339D03*
X0088205Y0064976D03*
X0088205Y0057102D03*
X0078362Y0055134D03*
X0068520Y0055134D03*
X0068520Y0064976D03*
X0078362Y0064976D03*
X0078362Y0074819D03*
X0071276Y0081118D03*
X0065370Y0081118D03*
X0059465Y0081118D03*
X0058677Y0074819D03*
X0048835Y0074819D03*
X0048835Y0064976D03*
X0048835Y0055134D03*
X0058677Y0055134D03*
X0058677Y0046866D03*
X0062220Y0039386D03*
X0062220Y0031118D03*
X0052378Y0031118D03*
X0052378Y0021276D03*
X0062220Y0021276D03*
X0062220Y0011433D03*
X0052378Y0011433D03*
X0042535Y0011433D03*
X0035055Y0005528D03*
X0029150Y0005528D03*
X0023244Y0005528D03*
X0017339Y0005528D03*
X0011433Y0005528D03*
X0005528Y0005528D03*
X0013008Y0011433D03*
X0005528Y0017339D03*
X0005528Y0022850D03*
X0011433Y0022850D03*
X0005528Y0028756D03*
X0005528Y0034661D03*
X0011433Y0034661D03*
X0017339Y0034661D03*
X0019307Y0045291D03*
X0009465Y0045291D03*
X0029150Y0045291D03*
X0038992Y0045291D03*
X0048835Y0045291D03*
X0042535Y0031118D03*
X0042535Y0021276D03*
X0032693Y0021276D03*
X0032693Y0029937D03*
X0022850Y0021276D03*
X0022850Y0011433D03*
X0032693Y0011433D03*
X0072063Y0011433D03*
X0081906Y0011433D03*
X0091748Y0011433D03*
X0101591Y0011433D03*
X0110646Y0011433D03*
X0110646Y0021276D03*
X0101591Y0021276D03*
X0101591Y0031118D03*
X0110646Y0031118D03*
X0110646Y0040961D03*
X0101591Y0040961D03*
X0091748Y0040961D03*
X0081906Y0040961D03*
X0072063Y0040961D03*
X0072063Y0031118D03*
X0081906Y0031118D03*
X0091748Y0031118D03*
X0091748Y0021276D03*
X0081906Y0021276D03*
X0072063Y0021276D03*
X0058677Y0064976D03*
X0068520Y0074819D03*
X0088205Y0074819D03*
X0127181Y0100016D03*
X0137024Y0100016D03*
X0158283Y0101984D03*
X0159071Y0092142D03*
X0159858Y0082299D03*
X0163008Y0062614D03*
X0155528Y0060646D03*
X0146866Y0060646D03*
X0137024Y0060646D03*
X0137024Y0050803D03*
X0146866Y0050803D03*
X0146866Y0040961D03*
X0137024Y0040961D03*
X0127575Y0040961D03*
X0127575Y0031118D03*
X0137024Y0031118D03*
X0146866Y0031118D03*
X0146866Y0021276D03*
X0137024Y0021276D03*
X0127575Y0021276D03*
X0127575Y0011433D03*
X0137024Y0011433D03*
X0146866Y0011433D03*
X0161827Y0011433D03*
X0161827Y0021276D03*
X0160646Y0031118D03*
X0159071Y0040961D03*
X0156709Y0050803D03*
X0165370Y0052772D03*
X0171276Y0052772D03*
X0181118Y0052772D03*
X0181118Y0062614D03*
X0171276Y0062614D03*
X0190961Y0062614D03*
X0190961Y0052772D03*
X0190961Y0042929D03*
X0190961Y0033087D03*
X0181118Y0033087D03*
X0173638Y0033087D03*
X0171276Y0042929D03*
X0181118Y0042929D03*
X0181118Y0023244D03*
X0190961Y0023244D03*
X0190961Y0013402D03*
X0190961Y0072457D03*
X0190961Y0082299D03*
X0190961Y0127181D03*
X0190961Y0137024D03*
X0190961Y0146866D03*
X0053165Y0159465D03*
X0053165Y0169307D03*
X0053165Y0179150D03*
X0053165Y0129937D03*
X0053165Y0120094D03*
D15*
X0052001Y0119552D02*
X0073348Y0119552D01*
X0073353Y0120732D02*
X0051537Y0120732D01*
X0051074Y0121911D02*
X0073359Y0121911D01*
X0073364Y0123091D02*
X0050610Y0123091D01*
X0050147Y0124270D02*
X0073369Y0124270D01*
X0073374Y0125450D02*
X0049683Y0125450D01*
X0049220Y0126630D02*
X0073379Y0126630D01*
X0073384Y0127809D02*
X0048757Y0127809D01*
X0048293Y0128989D02*
X0073390Y0128989D01*
X0073395Y0130168D02*
X0047830Y0130168D01*
X0047366Y0131348D02*
X0073400Y0131348D01*
X0073405Y0132528D02*
X0046903Y0132528D01*
X0046440Y0133707D02*
X0073410Y0133707D01*
X0073415Y0134887D02*
X0045976Y0134887D01*
X0045513Y0136067D02*
X0073420Y0136067D01*
X0073426Y0137246D02*
X0045049Y0137246D01*
X0044586Y0138426D02*
X0073431Y0138426D01*
X0073436Y0139605D02*
X0044122Y0139605D01*
X0043659Y0140785D02*
X0073441Y0140785D01*
X0073446Y0141965D02*
X0043196Y0141965D01*
X0042732Y0143144D02*
X0073451Y0143144D01*
X0073456Y0144324D02*
X0042269Y0144324D01*
X0041805Y0145503D02*
X0073462Y0145503D01*
X0073467Y0146683D02*
X0041342Y0146683D01*
X0040961Y0147654D02*
X0040961Y0185706D01*
X0041097Y0185843D01*
X0073638Y0185843D01*
X0073244Y0095685D01*
X0058283Y0103559D01*
X0040961Y0147654D01*
X0040961Y0147863D02*
X0073472Y0147863D01*
X0073477Y0149042D02*
X0040961Y0149042D01*
X0040961Y0150222D02*
X0073482Y0150222D01*
X0073487Y0151401D02*
X0040961Y0151401D01*
X0040961Y0152581D02*
X0073493Y0152581D01*
X0073498Y0153761D02*
X0040961Y0153761D01*
X0040961Y0154940D02*
X0073503Y0154940D01*
X0073508Y0156120D02*
X0040961Y0156120D01*
X0040961Y0157300D02*
X0073513Y0157300D01*
X0073518Y0158479D02*
X0040961Y0158479D01*
X0040961Y0159659D02*
X0073523Y0159659D01*
X0073529Y0160838D02*
X0040961Y0160838D01*
X0040961Y0162018D02*
X0073534Y0162018D01*
X0073539Y0163198D02*
X0040961Y0163198D01*
X0040961Y0164377D02*
X0073544Y0164377D01*
X0073549Y0165557D02*
X0040961Y0165557D01*
X0040961Y0166736D02*
X0073554Y0166736D01*
X0073560Y0167916D02*
X0040961Y0167916D01*
X0040961Y0169096D02*
X0073565Y0169096D01*
X0073570Y0170275D02*
X0040961Y0170275D01*
X0040961Y0171455D02*
X0073575Y0171455D01*
X0073580Y0172635D02*
X0040961Y0172635D01*
X0040961Y0173814D02*
X0073585Y0173814D01*
X0073590Y0174994D02*
X0040961Y0174994D01*
X0040961Y0176173D02*
X0073596Y0176173D01*
X0073601Y0177353D02*
X0040961Y0177353D01*
X0040961Y0178533D02*
X0073606Y0178533D01*
X0073611Y0179712D02*
X0040961Y0179712D01*
X0040961Y0180892D02*
X0073616Y0180892D01*
X0073621Y0182071D02*
X0040961Y0182071D01*
X0040961Y0183251D02*
X0073626Y0183251D01*
X0073632Y0184431D02*
X0040961Y0184431D01*
X0040961Y0185610D02*
X0073637Y0185610D01*
X0034456Y0147863D02*
X0009465Y0147863D01*
X0009465Y0149042D02*
X0033986Y0149042D01*
X0033517Y0150222D02*
X0009465Y0150222D01*
X0009465Y0151401D02*
X0033047Y0151401D01*
X0032578Y0152581D02*
X0009465Y0152581D01*
X0009465Y0153761D02*
X0032108Y0153761D01*
X0031639Y0154940D02*
X0009465Y0154940D01*
X0009465Y0156120D02*
X0031169Y0156120D01*
X0030699Y0157300D02*
X0009465Y0157300D01*
X0009465Y0158479D02*
X0030230Y0158479D01*
X0029760Y0159659D02*
X0009465Y0159659D01*
X0009465Y0160838D02*
X0029291Y0160838D01*
X0028821Y0162018D02*
X0009465Y0162018D01*
X0009465Y0163198D02*
X0028352Y0163198D01*
X0027882Y0164377D02*
X0009465Y0164377D01*
X0009465Y0165557D02*
X0027413Y0165557D01*
X0026943Y0166736D02*
X0009465Y0166736D01*
X0009465Y0167916D02*
X0026473Y0167916D01*
X0026004Y0169096D02*
X0009465Y0169096D01*
X0009465Y0170275D02*
X0025430Y0170275D01*
X0025606Y0170094D02*
X0041748Y0129543D01*
X0044504Y0087417D01*
X0009465Y0087417D01*
X0009465Y0186630D01*
X0025606Y0170094D01*
X0024278Y0171455D02*
X0009465Y0171455D01*
X0009465Y0172635D02*
X0023127Y0172635D01*
X0021975Y0173814D02*
X0009465Y0173814D01*
X0009465Y0174994D02*
X0020824Y0174994D01*
X0019672Y0176173D02*
X0009465Y0176173D01*
X0009465Y0177353D02*
X0018521Y0177353D01*
X0017369Y0178533D02*
X0009465Y0178533D01*
X0009465Y0179712D02*
X0016218Y0179712D01*
X0015066Y0180892D02*
X0009465Y0180892D01*
X0009465Y0182071D02*
X0013915Y0182071D01*
X0012763Y0183251D02*
X0009465Y0183251D01*
X0009465Y0184431D02*
X0011611Y0184431D01*
X0010460Y0185610D02*
X0009465Y0185610D01*
X0009465Y0146683D02*
X0034925Y0146683D01*
X0035395Y0145503D02*
X0009465Y0145503D01*
X0009465Y0144324D02*
X0035865Y0144324D01*
X0036334Y0143144D02*
X0009465Y0143144D01*
X0009465Y0141965D02*
X0036804Y0141965D01*
X0037273Y0140785D02*
X0009465Y0140785D01*
X0009465Y0139605D02*
X0037743Y0139605D01*
X0038212Y0138426D02*
X0009465Y0138426D01*
X0009465Y0137246D02*
X0038682Y0137246D01*
X0039151Y0136067D02*
X0009465Y0136067D01*
X0009465Y0134887D02*
X0039621Y0134887D01*
X0040091Y0133707D02*
X0009465Y0133707D01*
X0009465Y0132528D02*
X0040560Y0132528D01*
X0041030Y0131348D02*
X0009465Y0131348D01*
X0009465Y0130168D02*
X0041499Y0130168D01*
X0041784Y0128989D02*
X0009465Y0128989D01*
X0009465Y0127809D02*
X0041861Y0127809D01*
X0041939Y0126630D02*
X0009465Y0126630D01*
X0009465Y0125450D02*
X0042016Y0125450D01*
X0042093Y0124270D02*
X0009465Y0124270D01*
X0009465Y0123091D02*
X0042170Y0123091D01*
X0042247Y0121911D02*
X0009465Y0121911D01*
X0009465Y0120732D02*
X0042324Y0120732D01*
X0042402Y0119552D02*
X0009465Y0119552D01*
X0009465Y0118372D02*
X0042479Y0118372D01*
X0042556Y0117193D02*
X0009465Y0117193D01*
X0009465Y0116013D02*
X0042633Y0116013D01*
X0042710Y0114833D02*
X0009465Y0114833D01*
X0009465Y0113654D02*
X0042788Y0113654D01*
X0042865Y0112474D02*
X0009465Y0112474D01*
X0009465Y0111295D02*
X0042942Y0111295D01*
X0043019Y0110115D02*
X0009465Y0110115D01*
X0009465Y0108935D02*
X0043096Y0108935D01*
X0043173Y0107756D02*
X0009465Y0107756D01*
X0009465Y0106576D02*
X0043251Y0106576D01*
X0043328Y0105397D02*
X0009465Y0105397D01*
X0009465Y0104217D02*
X0043405Y0104217D01*
X0043482Y0103037D02*
X0009465Y0103037D01*
X0009465Y0101858D02*
X0043559Y0101858D01*
X0043636Y0100678D02*
X0009465Y0100678D01*
X0009465Y0099498D02*
X0043714Y0099498D01*
X0043791Y0098319D02*
X0009465Y0098319D01*
X0009465Y0097139D02*
X0043868Y0097139D01*
X0043945Y0095960D02*
X0009465Y0095960D01*
X0009465Y0094780D02*
X0044022Y0094780D01*
X0044099Y0093600D02*
X0009465Y0093600D01*
X0009465Y0092421D02*
X0044177Y0092421D01*
X0044254Y0091241D02*
X0009465Y0091241D01*
X0009465Y0090062D02*
X0044331Y0090062D01*
X0044408Y0088882D02*
X0009465Y0088882D01*
X0009465Y0087702D02*
X0044485Y0087702D01*
X0059275Y0103037D02*
X0073276Y0103037D01*
X0073271Y0101858D02*
X0061516Y0101858D01*
X0063757Y0100678D02*
X0073266Y0100678D01*
X0073261Y0099498D02*
X0065999Y0099498D01*
X0068240Y0098319D02*
X0073256Y0098319D01*
X0073250Y0097139D02*
X0070481Y0097139D01*
X0072722Y0095960D02*
X0073245Y0095960D01*
X0073281Y0104217D02*
X0058025Y0104217D01*
X0057562Y0105397D02*
X0073287Y0105397D01*
X0073292Y0106576D02*
X0057098Y0106576D01*
X0056635Y0107756D02*
X0073297Y0107756D01*
X0073302Y0108935D02*
X0056171Y0108935D01*
X0055708Y0110115D02*
X0073307Y0110115D01*
X0073312Y0111295D02*
X0055245Y0111295D01*
X0054781Y0112474D02*
X0073317Y0112474D01*
X0073323Y0113654D02*
X0054318Y0113654D01*
X0053854Y0114833D02*
X0073328Y0114833D01*
X0073333Y0116013D02*
X0053391Y0116013D01*
X0052927Y0117193D02*
X0073338Y0117193D01*
X0073343Y0118372D02*
X0052464Y0118372D01*
D16*
X0087024Y0153559D02*
X0087024Y0191354D01*
X0190961Y0191354D01*
X0174031Y0174031D01*
X0138598Y0160252D01*
X0103953Y0153953D01*
X0087024Y0153559D01*
X0087024Y0155048D02*
X0109975Y0155048D01*
X0115695Y0148654D02*
X0172631Y0148654D01*
X0172631Y0150252D02*
X0119189Y0150252D01*
X0116945Y0149622D02*
X0099054Y0135763D01*
X0099054Y0126000D01*
X0172631Y0126000D01*
X0172631Y0162922D01*
X0161827Y0162220D01*
X0116945Y0149622D01*
X0113631Y0147055D02*
X0172631Y0147055D01*
X0172631Y0145457D02*
X0111568Y0145457D01*
X0109504Y0143858D02*
X0172631Y0143858D01*
X0172631Y0142260D02*
X0107441Y0142260D01*
X0105377Y0140661D02*
X0172631Y0140661D01*
X0172631Y0139063D02*
X0103313Y0139063D01*
X0101250Y0137464D02*
X0172631Y0137464D01*
X0172631Y0135866D02*
X0099186Y0135866D01*
X0099054Y0134267D02*
X0172631Y0134267D01*
X0172631Y0132668D02*
X0099054Y0132668D01*
X0099054Y0131070D02*
X0172631Y0131070D01*
X0172631Y0129471D02*
X0099054Y0129471D01*
X0099054Y0127873D02*
X0172631Y0127873D01*
X0172631Y0126274D02*
X0099054Y0126274D01*
X0126000Y0114189D02*
X0126000Y0044296D01*
X0126227Y0044069D01*
X0126227Y0010252D01*
X0164189Y0010252D01*
X0164189Y0018520D01*
X0161039Y0042929D01*
X0155528Y0066945D01*
X0144504Y0096079D01*
X0126000Y0114189D01*
X0126000Y0113486D02*
X0126718Y0113486D01*
X0126000Y0111888D02*
X0128351Y0111888D01*
X0129984Y0110289D02*
X0126000Y0110289D01*
X0126000Y0108691D02*
X0131618Y0108691D01*
X0133251Y0107092D02*
X0126000Y0107092D01*
X0126000Y0105494D02*
X0134884Y0105494D01*
X0136517Y0103895D02*
X0126000Y0103895D01*
X0126000Y0102297D02*
X0138151Y0102297D01*
X0139784Y0100698D02*
X0126000Y0100698D01*
X0126000Y0099100D02*
X0141417Y0099100D01*
X0143051Y0097501D02*
X0126000Y0097501D01*
X0126000Y0095903D02*
X0144571Y0095903D01*
X0145175Y0094304D02*
X0126000Y0094304D01*
X0126000Y0092706D02*
X0145780Y0092706D01*
X0146385Y0091107D02*
X0126000Y0091107D01*
X0126000Y0089509D02*
X0146990Y0089509D01*
X0147595Y0087910D02*
X0126000Y0087910D01*
X0126000Y0086312D02*
X0148200Y0086312D01*
X0148804Y0084713D02*
X0126000Y0084713D01*
X0126000Y0083115D02*
X0149409Y0083115D01*
X0150014Y0081516D02*
X0126000Y0081516D01*
X0126000Y0079918D02*
X0150619Y0079918D01*
X0151224Y0078319D02*
X0126000Y0078319D01*
X0126000Y0076721D02*
X0151829Y0076721D01*
X0152433Y0075122D02*
X0126000Y0075122D01*
X0126000Y0073524D02*
X0153038Y0073524D01*
X0153643Y0071925D02*
X0126000Y0071925D01*
X0126000Y0070327D02*
X0154248Y0070327D01*
X0154853Y0068728D02*
X0126000Y0068728D01*
X0126000Y0067130D02*
X0155458Y0067130D01*
X0155852Y0065531D02*
X0126000Y0065531D01*
X0126000Y0063932D02*
X0156219Y0063932D01*
X0156586Y0062334D02*
X0126000Y0062334D01*
X0126000Y0060735D02*
X0156953Y0060735D01*
X0157320Y0059137D02*
X0126000Y0059137D01*
X0126000Y0057538D02*
X0157686Y0057538D01*
X0158053Y0055940D02*
X0126000Y0055940D01*
X0126000Y0054341D02*
X0158420Y0054341D01*
X0158787Y0052743D02*
X0126000Y0052743D01*
X0126000Y0051144D02*
X0159154Y0051144D01*
X0159521Y0049546D02*
X0126000Y0049546D01*
X0126000Y0047947D02*
X0159888Y0047947D01*
X0160255Y0046349D02*
X0126000Y0046349D01*
X0126000Y0044750D02*
X0160621Y0044750D01*
X0160988Y0043152D02*
X0126227Y0043152D01*
X0126227Y0041553D02*
X0161217Y0041553D01*
X0161423Y0039955D02*
X0126227Y0039955D01*
X0126227Y0038356D02*
X0161629Y0038356D01*
X0161836Y0036758D02*
X0126227Y0036758D01*
X0126227Y0035159D02*
X0162042Y0035159D01*
X0162248Y0033561D02*
X0126227Y0033561D01*
X0126227Y0031962D02*
X0162454Y0031962D01*
X0162661Y0030364D02*
X0126227Y0030364D01*
X0126227Y0028765D02*
X0162867Y0028765D01*
X0163073Y0027167D02*
X0126227Y0027167D01*
X0126227Y0025568D02*
X0163279Y0025568D01*
X0163486Y0023970D02*
X0126227Y0023970D01*
X0126227Y0022371D02*
X0163692Y0022371D01*
X0163898Y0020773D02*
X0126227Y0020773D01*
X0126227Y0019174D02*
X0164105Y0019174D01*
X0164189Y0017576D02*
X0126227Y0017576D01*
X0126227Y0015977D02*
X0164189Y0015977D01*
X0164189Y0014379D02*
X0126227Y0014379D01*
X0126227Y0012780D02*
X0164189Y0012780D01*
X0164189Y0011182D02*
X0126227Y0011182D01*
X0111993Y0011182D02*
X0009607Y0011182D01*
X0008677Y0010252D02*
X0027969Y0029543D01*
X0061039Y0040961D01*
X0094110Y0047260D01*
X0112220Y0047654D01*
X0112614Y0047654D01*
X0112614Y0044690D01*
X0111993Y0044069D01*
X0111993Y0010252D01*
X0008677Y0010252D01*
X0011205Y0012780D02*
X0111993Y0012780D01*
X0111993Y0014379D02*
X0012804Y0014379D01*
X0014402Y0015977D02*
X0111993Y0015977D01*
X0111993Y0017576D02*
X0016001Y0017576D01*
X0017599Y0019174D02*
X0111993Y0019174D01*
X0111993Y0020773D02*
X0019198Y0020773D01*
X0020796Y0022371D02*
X0111993Y0022371D01*
X0111993Y0023970D02*
X0022395Y0023970D01*
X0023993Y0025568D02*
X0111993Y0025568D01*
X0111993Y0027167D02*
X0025592Y0027167D01*
X0027190Y0028765D02*
X0111993Y0028765D01*
X0111993Y0030364D02*
X0030345Y0030364D01*
X0034975Y0031962D02*
X0111993Y0031962D01*
X0111993Y0033561D02*
X0039605Y0033561D01*
X0044235Y0035159D02*
X0111993Y0035159D01*
X0111993Y0036758D02*
X0048866Y0036758D01*
X0053496Y0038356D02*
X0111993Y0038356D01*
X0111993Y0039955D02*
X0058126Y0039955D01*
X0056244Y0044750D02*
X0027510Y0044750D01*
X0027497Y0043152D02*
X0044621Y0043152D01*
X0055528Y0044504D02*
X0027481Y0041027D01*
X0027757Y0076394D01*
X0090073Y0076394D01*
X0089961Y0064481D01*
X0089954Y0064465D01*
X0089954Y0063812D01*
X0089948Y0063157D01*
X0089954Y0063142D01*
X0089954Y0063125D01*
X0090204Y0062521D01*
X0090449Y0061914D01*
X0090461Y0061902D01*
X0090467Y0061887D01*
X0090930Y0061425D01*
X0091388Y0060958D01*
X0091403Y0060951D01*
X0093728Y0058626D01*
X0092142Y0057102D01*
X0055528Y0044504D01*
X0060889Y0046349D02*
X0027522Y0046349D01*
X0027535Y0047947D02*
X0065535Y0047947D01*
X0070181Y0049546D02*
X0027547Y0049546D01*
X0027560Y0051144D02*
X0074826Y0051144D01*
X0079472Y0052743D02*
X0027572Y0052743D01*
X0027585Y0054341D02*
X0084118Y0054341D01*
X0088763Y0055940D02*
X0027597Y0055940D01*
X0027610Y0057538D02*
X0092596Y0057538D01*
X0093217Y0059137D02*
X0027622Y0059137D01*
X0027635Y0060735D02*
X0091619Y0060735D01*
X0090280Y0062334D02*
X0027647Y0062334D01*
X0027660Y0063932D02*
X0089954Y0063932D01*
X0089971Y0065531D02*
X0027672Y0065531D01*
X0027684Y0067130D02*
X0089986Y0067130D01*
X0090001Y0068728D02*
X0027697Y0068728D01*
X0027709Y0070327D02*
X0090016Y0070327D01*
X0090031Y0071925D02*
X0027722Y0071925D01*
X0027734Y0073524D02*
X0090046Y0073524D01*
X0090061Y0075122D02*
X0027747Y0075122D01*
X0021010Y0075122D02*
X0007890Y0075122D01*
X0007890Y0076394D02*
X0021020Y0076394D01*
X0020737Y0040191D01*
X0007890Y0038598D01*
X0007890Y0076394D01*
X0007890Y0073524D02*
X0020997Y0073524D01*
X0020985Y0071925D02*
X0007890Y0071925D01*
X0007890Y0070327D02*
X0020972Y0070327D01*
X0020960Y0068728D02*
X0007890Y0068728D01*
X0007890Y0067130D02*
X0020947Y0067130D01*
X0020935Y0065531D02*
X0007890Y0065531D01*
X0007890Y0063932D02*
X0020922Y0063932D01*
X0020910Y0062334D02*
X0007890Y0062334D01*
X0007890Y0060735D02*
X0020897Y0060735D01*
X0020885Y0059137D02*
X0007890Y0059137D01*
X0007890Y0057538D02*
X0020872Y0057538D01*
X0020860Y0055940D02*
X0007890Y0055940D01*
X0007890Y0054341D02*
X0020847Y0054341D01*
X0020835Y0052743D02*
X0007890Y0052743D01*
X0007890Y0051144D02*
X0020822Y0051144D01*
X0020810Y0049546D02*
X0007890Y0049546D01*
X0007890Y0047947D02*
X0020797Y0047947D01*
X0020785Y0046349D02*
X0007890Y0046349D01*
X0007890Y0044750D02*
X0020772Y0044750D01*
X0020760Y0043152D02*
X0007890Y0043152D01*
X0007890Y0041553D02*
X0020748Y0041553D01*
X0018831Y0039955D02*
X0007890Y0039955D01*
X0027485Y0041553D02*
X0031726Y0041553D01*
X0064151Y0041553D02*
X0111993Y0041553D01*
X0111993Y0043152D02*
X0072543Y0043152D01*
X0080935Y0044750D02*
X0112614Y0044750D01*
X0112614Y0046349D02*
X0089328Y0046349D01*
X0098587Y0063295D02*
X0096705Y0065177D01*
X0096810Y0076394D01*
X0112220Y0076394D01*
X0098587Y0063295D01*
X0097949Y0063932D02*
X0099251Y0063932D01*
X0100914Y0065531D02*
X0096708Y0065531D01*
X0096723Y0067130D02*
X0102578Y0067130D01*
X0104242Y0068728D02*
X0096738Y0068728D01*
X0096753Y0070327D02*
X0105906Y0070327D01*
X0107569Y0071925D02*
X0096768Y0071925D01*
X0096783Y0073524D02*
X0109233Y0073524D01*
X0110897Y0075122D02*
X0096798Y0075122D01*
X0088992Y0081118D02*
X0088992Y0089780D01*
X0088992Y0081118D02*
X0071276Y0081118D01*
X0113402Y0085843D02*
X0116551Y0085843D01*
X0116551Y0072457D01*
X0155779Y0089509D02*
X0192142Y0089509D01*
X0192142Y0091107D02*
X0155446Y0091107D01*
X0155114Y0092706D02*
X0192142Y0092706D01*
X0192142Y0094304D02*
X0154782Y0094304D01*
X0154740Y0094504D02*
X0154346Y0110646D01*
X0154346Y0113008D01*
X0192142Y0113008D01*
X0192142Y0008677D01*
X0174031Y0026787D01*
X0163008Y0054740D01*
X0154740Y0094504D01*
X0154706Y0095903D02*
X0192142Y0095903D01*
X0192142Y0097501D02*
X0154667Y0097501D01*
X0154628Y0099100D02*
X0192142Y0099100D01*
X0192142Y0100698D02*
X0154589Y0100698D01*
X0154550Y0102297D02*
X0192142Y0102297D01*
X0192142Y0103895D02*
X0154511Y0103895D01*
X0154472Y0105494D02*
X0192142Y0105494D01*
X0192142Y0107092D02*
X0154433Y0107092D01*
X0154394Y0108691D02*
X0192142Y0108691D01*
X0192142Y0110289D02*
X0154355Y0110289D01*
X0154346Y0111888D02*
X0192142Y0111888D01*
X0192142Y0126000D02*
X0179368Y0126000D01*
X0179368Y0163360D01*
X0192142Y0164189D01*
X0192142Y0126000D01*
X0192142Y0126274D02*
X0179368Y0126274D01*
X0179368Y0127873D02*
X0192142Y0127873D01*
X0192142Y0129471D02*
X0179368Y0129471D01*
X0179368Y0131070D02*
X0192142Y0131070D01*
X0192142Y0132668D02*
X0179368Y0132668D01*
X0179368Y0134267D02*
X0192142Y0134267D01*
X0192142Y0135866D02*
X0179368Y0135866D01*
X0179368Y0137464D02*
X0192142Y0137464D01*
X0192142Y0139063D02*
X0179368Y0139063D01*
X0179368Y0140661D02*
X0192142Y0140661D01*
X0192142Y0142260D02*
X0179368Y0142260D01*
X0179368Y0143858D02*
X0192142Y0143858D01*
X0192142Y0145457D02*
X0179368Y0145457D01*
X0179368Y0147055D02*
X0192142Y0147055D01*
X0192142Y0148654D02*
X0179368Y0148654D01*
X0179368Y0150252D02*
X0192142Y0150252D01*
X0192142Y0151851D02*
X0179368Y0151851D01*
X0179368Y0153449D02*
X0192142Y0153449D01*
X0192142Y0155048D02*
X0179368Y0155048D01*
X0179368Y0156646D02*
X0192142Y0156646D01*
X0192142Y0158245D02*
X0179368Y0158245D01*
X0179368Y0159843D02*
X0192142Y0159843D01*
X0192142Y0161442D02*
X0179368Y0161442D01*
X0179368Y0163040D02*
X0192142Y0163040D01*
X0177350Y0177427D02*
X0087024Y0177427D01*
X0087024Y0179025D02*
X0178912Y0179025D01*
X0180474Y0180624D02*
X0087024Y0180624D01*
X0087024Y0182222D02*
X0182036Y0182222D01*
X0183598Y0183821D02*
X0087024Y0183821D01*
X0087024Y0185419D02*
X0185161Y0185419D01*
X0186723Y0187018D02*
X0087024Y0187018D01*
X0087024Y0188616D02*
X0188285Y0188616D01*
X0189847Y0190215D02*
X0087024Y0190215D01*
X0087024Y0175828D02*
X0175787Y0175828D01*
X0174225Y0174230D02*
X0087024Y0174230D01*
X0087024Y0172631D02*
X0170431Y0172631D01*
X0166320Y0171033D02*
X0087024Y0171033D01*
X0087024Y0169434D02*
X0162210Y0169434D01*
X0158100Y0167836D02*
X0087024Y0167836D01*
X0087024Y0166237D02*
X0153989Y0166237D01*
X0149879Y0164639D02*
X0087024Y0164639D01*
X0087024Y0163040D02*
X0145768Y0163040D01*
X0141658Y0161442D02*
X0087024Y0161442D01*
X0087024Y0159843D02*
X0136350Y0159843D01*
X0136274Y0155048D02*
X0172631Y0155048D01*
X0172631Y0156646D02*
X0141968Y0156646D01*
X0147663Y0158245D02*
X0172631Y0158245D01*
X0172631Y0159843D02*
X0153358Y0159843D01*
X0159052Y0161442D02*
X0172631Y0161442D01*
X0172631Y0153449D02*
X0130579Y0153449D01*
X0127558Y0158245D02*
X0087024Y0158245D01*
X0087024Y0156646D02*
X0118766Y0156646D01*
X0124884Y0151851D02*
X0172631Y0151851D01*
X0156111Y0087910D02*
X0192142Y0087910D01*
X0192142Y0086312D02*
X0156444Y0086312D01*
X0156776Y0084713D02*
X0192142Y0084713D01*
X0192142Y0083115D02*
X0157108Y0083115D01*
X0157441Y0081516D02*
X0192142Y0081516D01*
X0192142Y0079918D02*
X0157773Y0079918D01*
X0158105Y0078319D02*
X0192142Y0078319D01*
X0192142Y0076721D02*
X0158438Y0076721D01*
X0158770Y0075122D02*
X0192142Y0075122D01*
X0192142Y0073524D02*
X0159102Y0073524D01*
X0159435Y0071925D02*
X0192142Y0071925D01*
X0192142Y0070327D02*
X0159767Y0070327D01*
X0160100Y0068728D02*
X0192142Y0068728D01*
X0192142Y0067130D02*
X0160432Y0067130D01*
X0160764Y0065531D02*
X0192142Y0065531D01*
X0192142Y0063932D02*
X0161097Y0063932D01*
X0161429Y0062334D02*
X0192142Y0062334D01*
X0192142Y0060735D02*
X0161761Y0060735D01*
X0162094Y0059137D02*
X0192142Y0059137D01*
X0192142Y0057538D02*
X0162426Y0057538D01*
X0162758Y0055940D02*
X0192142Y0055940D01*
X0192142Y0054341D02*
X0163165Y0054341D01*
X0163796Y0052743D02*
X0192142Y0052743D01*
X0192142Y0051144D02*
X0164426Y0051144D01*
X0165056Y0049546D02*
X0192142Y0049546D01*
X0192142Y0047947D02*
X0165687Y0047947D01*
X0166317Y0046349D02*
X0192142Y0046349D01*
X0192142Y0044750D02*
X0166948Y0044750D01*
X0167578Y0043152D02*
X0192142Y0043152D01*
X0192142Y0041553D02*
X0168208Y0041553D01*
X0168839Y0039955D02*
X0192142Y0039955D01*
X0192142Y0038356D02*
X0169469Y0038356D01*
X0170100Y0036758D02*
X0192142Y0036758D01*
X0192142Y0035159D02*
X0170730Y0035159D01*
X0171360Y0033561D02*
X0192142Y0033561D01*
X0192142Y0031962D02*
X0171991Y0031962D01*
X0172621Y0030364D02*
X0192142Y0030364D01*
X0192142Y0028765D02*
X0173252Y0028765D01*
X0173882Y0027167D02*
X0192142Y0027167D01*
X0192142Y0025568D02*
X0175251Y0025568D01*
X0176849Y0023970D02*
X0192142Y0023970D01*
X0192142Y0022371D02*
X0178448Y0022371D01*
X0180046Y0020773D02*
X0192142Y0020773D01*
X0192142Y0019174D02*
X0181645Y0019174D01*
X0183243Y0017576D02*
X0192142Y0017576D01*
X0192142Y0015977D02*
X0184842Y0015977D01*
X0186440Y0014379D02*
X0192142Y0014379D01*
X0192142Y0012780D02*
X0188039Y0012780D01*
X0189637Y0011182D02*
X0192142Y0011182D01*
X0192142Y0009583D02*
X0191236Y0009583D01*
X0031118Y0174819D02*
X0030331Y0174819D01*
X0025606Y0170094D01*
D17*
X0031118Y0174819D03*
X0079150Y0189780D03*
X0095685Y0145685D03*
X0146079Y0103559D03*
X0176000Y0120882D03*
X0173244Y0167732D03*
X0101984Y0055134D03*
X0024031Y0030724D03*
X0024425Y0081118D03*
D18*
X0024031Y0030724D01*
X0053953Y0087811D02*
X0070094Y0087811D01*
X0089976Y0107693D01*
X0091551Y0107693D01*
X0093717Y0105528D01*
X0093323Y0063795D01*
X0101984Y0055134D01*
X0146079Y0103559D02*
X0146079Y0120094D01*
X0144110Y0122063D01*
X0095882Y0122063D01*
X0091945Y0118126D01*
X0095685Y0121866D01*
X0095685Y0145685D01*
X0091945Y0118126D02*
X0092142Y0117929D01*
X0092142Y0108283D01*
X0091551Y0107693D01*
X0031118Y0174819D02*
X0036630Y0180331D01*
X0036630Y0185843D01*
X0040567Y0189780D01*
X0079150Y0189780D01*
X0173244Y0167732D02*
X0176000Y0165370D01*
X0176000Y0120882D01*
D19*
X0088992Y0089780D03*
M02*
