%
M48
M72
T01C0.01181
T02C0.02756
T03C0.04331
T04C0.07874
%
T01
X23547Y46392
X29059Y46392
X49925Y63124
X47169Y66274
X44413Y69423
X47169Y72573
X52287Y66274
X54650Y63124
X57012Y66274
X54650Y69423
X56224Y74935
X59965Y80053
X64492Y82219
X62327Y87533
X57012Y93439
X54896Y96982
X54896Y100329
X57012Y106234
X57406Y115486
X53370Y125526
X48843Y123951
X44315Y116864
X40083Y121293
X37130Y127100
X26697Y120703
X26697Y117258
X35949Y110762
X44413Y110368
X34177Y100329
X25122Y91864
X19217Y84778
X27484Y75722
X23941Y67652
X23941Y63715
X11146Y50427
X42839Y84778
X61736Y65978
X59374Y63124
X64492Y71195
X68823Y65781
X71185Y62927
X78272Y63124
X81028Y65781
X84571Y71195
X90476Y78577
X95496Y80644
X99827Y87533
X102878Y78577
X96972Y71392
X93232Y65781
X90083Y62927
X99531Y63124
X103469Y66077
X109177Y71195
X115280Y78577
X118626Y75230
X120988Y66274
X130831Y66077
X133587Y58596
X121972Y54856
X123941Y46392
X110752Y62927
X129453Y81825
X133980Y87337
X142051Y87533
X144020Y80644
X138902Y74148
X151992Y73557
X153665Y81923
X161638Y72671
X147760Y54069
X148350Y47179
X140280Y48951
X161539Y49935
X118429Y28872
X109276Y21096
X102484Y20998
X99531Y25722
X82996Y29266
X80634Y26116
X78272Y29266
X75909Y26116
X73547Y29266
X71185Y26116
X68823Y29266
X66461Y26116
X64098Y29266
X61736Y26116
X59374Y29266
X57012Y26116
X54650Y29266
X52287Y26116
X49916Y29266
X72366Y71195
X72858Y78577
X77780Y81530
X83094Y87829
X107799Y95506
X111343Y104266
X117740Y101904
X123350Y101904
X130831Y105841
X133390Y110959
X133193Y115683
X138508Y110762
X137228Y102396
X147661Y107022
X147366Y124344
X147465Y132317
X140476Y140093
X155043Y124344
X125614Y159089
X121776Y163124
X112917Y165486
X110161Y158990
X106224Y152888
X100713Y146392
X95004Y146293
X99531Y161451
X92445Y162140
X83587Y164108
X79453Y159187
X71972Y165388
X64787Y163026
X60161Y152888
X51500Y162041
X48646Y157907
X42346Y163813
X37130Y158793
X31028Y165388
X25909Y162533
X18429Y160762
X13902Y152888
X32898Y176411
X53862Y175526
X73350Y176411
X94807Y175526
X117543Y179069
X133390Y161943
X137327Y163124
X136244Y175427
X117543Y126707
X106224Y126707
X89394Y127297
X76894Y117750
X60161Y126707
X53075Y140191
X48843Y146392
X16067Y121392
X13902Y126707
X8291Y107907
X13803Y99344
X116461Y87337
X123350Y115289
T02
X40476Y53281
X40476Y52100
T03
X127878Y53281
X127878Y52100
T04
X13311Y30447
X13311Y172179
X155043Y172179
X155043Y30447
M30
