G75*
%MOIN*%
%OFA0B0*%
%FSLAX25Y25*%
%IPPOS*%
%LPD*%
%AMOC8*
5,1,8,0,0,1.08239X$1,22.5*
%
%ADD10C,0.00600*%
%ADD11C,0.00394*%
%ADD12C,0.01200*%
%ADD13C,0.00500*%
D10*
X0007550Y0011085D02*
X0012550Y0011085D01*
X0015050Y0013585D01*
X0015050Y0028585D01*
X0017550Y0031085D01*
X0022550Y0031085D01*
X0025050Y0028585D01*
X0025050Y0013585D01*
X0027550Y0011085D01*
X0032550Y0011085D01*
X0035050Y0013585D01*
X0035050Y0028585D01*
X0037550Y0031085D01*
X0042550Y0031085D01*
X0045050Y0028585D01*
X0045050Y0013585D01*
X0047550Y0011085D01*
X0052550Y0011085D01*
X0055050Y0013585D01*
X0055050Y0028585D01*
X0057550Y0031085D01*
X0062550Y0031085D01*
X0065050Y0028585D01*
X0065050Y0013585D01*
X0067550Y0011085D01*
X0072550Y0011085D01*
X0075050Y0013585D01*
X0075050Y0028585D01*
X0077550Y0031085D01*
X0082550Y0031085D01*
X0085050Y0028585D01*
X0085050Y0013585D01*
X0082550Y0011085D01*
X0077550Y0011085D01*
X0075050Y0013585D01*
X0065050Y0013585D02*
X0062550Y0011085D01*
X0057550Y0011085D01*
X0055050Y0013585D01*
X0045050Y0013585D02*
X0042550Y0011085D01*
X0037550Y0011085D01*
X0035050Y0013585D01*
X0025050Y0013585D02*
X0022550Y0011085D01*
X0017550Y0011085D01*
X0015050Y0013585D01*
X0007550Y0011085D02*
X0005050Y0013585D01*
X0005050Y0028585D01*
X0007550Y0031085D01*
X0012550Y0031085D01*
X0015050Y0028585D01*
X0025050Y0028585D02*
X0027550Y0031085D01*
X0032550Y0031085D01*
X0035050Y0028585D01*
X0045050Y0028585D02*
X0047550Y0031085D01*
X0052550Y0031085D01*
X0055050Y0028585D01*
X0065050Y0028585D02*
X0067550Y0031085D01*
X0072550Y0031085D01*
X0075050Y0028585D01*
X0085050Y0028585D02*
X0087550Y0031085D01*
X0092550Y0031085D01*
X0095050Y0028585D01*
X0097550Y0031085D01*
X0102550Y0031085D01*
X0105050Y0028585D01*
X0105050Y0013585D01*
X0102550Y0011085D01*
X0097550Y0011085D01*
X0095050Y0013585D01*
X0095050Y0028585D01*
X0095050Y0013585D02*
X0092550Y0011085D01*
X0087550Y0011085D01*
X0085050Y0013585D01*
X0148394Y0012700D02*
X0152664Y0012700D01*
X0150529Y0012700D02*
X0150529Y0019105D01*
X0148394Y0016970D01*
X0154840Y0012700D02*
X0159110Y0019105D01*
X0161285Y0019105D02*
X0161285Y0012700D01*
X0165555Y0012700D02*
X0165555Y0019105D01*
X0163420Y0016970D01*
X0161285Y0019105D01*
X0167731Y0018038D02*
X0167731Y0013768D01*
X0168798Y0012700D01*
X0170933Y0012700D01*
X0172001Y0013768D01*
X0172001Y0018038D01*
X0170933Y0019105D01*
X0168798Y0019105D01*
X0167731Y0018038D01*
X0174176Y0018038D02*
X0174176Y0016970D01*
X0175244Y0015903D01*
X0177379Y0015903D01*
X0178446Y0014835D01*
X0178446Y0013768D01*
X0177379Y0012700D01*
X0175244Y0012700D01*
X0174176Y0013768D01*
X0174176Y0018038D02*
X0175244Y0019105D01*
X0177379Y0019105D01*
X0178446Y0018038D01*
X0180622Y0019105D02*
X0182757Y0019105D01*
X0181689Y0019105D02*
X0181689Y0012700D01*
X0180622Y0012700D02*
X0182757Y0012700D01*
X0184144Y0013585D02*
X0184144Y0028585D01*
X0186644Y0031085D01*
X0191644Y0031085D01*
X0194144Y0028585D01*
X0194144Y0013585D01*
X0196644Y0011085D01*
X0201644Y0011085D01*
X0204144Y0013585D01*
X0206644Y0011085D01*
X0211644Y0011085D01*
X0214144Y0013585D01*
X0214144Y0028585D01*
X0211644Y0031085D01*
X0206644Y0031085D01*
X0204144Y0028585D01*
X0204144Y0013585D01*
X0194144Y0013585D02*
X0191644Y0011085D01*
X0186644Y0011085D01*
X0184144Y0013585D01*
X0194144Y0028585D02*
X0196644Y0031085D01*
X0201644Y0031085D01*
X0204144Y0028585D01*
X0216494Y0027303D02*
X0219697Y0027303D01*
X0220764Y0026235D01*
X0220764Y0025168D01*
X0219697Y0024100D01*
X0217562Y0024100D01*
X0216494Y0025168D01*
X0216494Y0027303D01*
X0218629Y0029438D01*
X0220764Y0030505D01*
X0229385Y0029438D02*
X0229385Y0025168D01*
X0230453Y0024100D01*
X0232588Y0024100D01*
X0233655Y0025168D01*
X0233655Y0027303D01*
X0231520Y0027303D01*
X0229385Y0029438D02*
X0230453Y0030505D01*
X0232588Y0030505D01*
X0233655Y0029438D01*
X0235831Y0030505D02*
X0240101Y0024100D01*
X0240101Y0030505D01*
X0242276Y0030505D02*
X0242276Y0024100D01*
X0245479Y0024100D01*
X0246546Y0025168D01*
X0246546Y0029438D01*
X0245479Y0030505D01*
X0242276Y0030505D01*
X0235831Y0030505D02*
X0235831Y0024100D01*
X0230641Y0040770D02*
X0395995Y0040770D01*
X0395995Y0206124D01*
X0230641Y0206124D01*
X0230641Y0040770D01*
X0284794Y0038900D02*
X0284794Y0029300D01*
X0312794Y0029300D01*
X0312794Y0038900D01*
X0284794Y0038900D01*
X0287594Y0037505D02*
X0290797Y0037505D01*
X0291864Y0036438D01*
X0291864Y0035370D01*
X0290797Y0034303D01*
X0287594Y0034303D01*
X0287594Y0037505D02*
X0287594Y0031100D01*
X0290797Y0031100D01*
X0291864Y0032168D01*
X0291864Y0033235D01*
X0290797Y0034303D01*
X0294040Y0034303D02*
X0298310Y0034303D01*
X0298310Y0035370D02*
X0298310Y0031100D01*
X0300894Y0029200D02*
X0309394Y0029200D01*
X0309394Y0015200D01*
X0306894Y0015300D02*
X0311894Y0015300D01*
X0314394Y0012800D01*
X0316894Y0015300D01*
X0321894Y0015300D01*
X0324394Y0012800D01*
X0326894Y0015300D01*
X0331894Y0015300D01*
X0334394Y0012800D01*
X0336894Y0015300D01*
X0341894Y0015300D01*
X0344394Y0012800D01*
X0346894Y0015300D01*
X0351894Y0015300D01*
X0354394Y0012800D01*
X0356894Y0015300D01*
X0361894Y0015300D01*
X0364394Y0012800D01*
X0366894Y0015300D01*
X0371894Y0015300D01*
X0374394Y0012800D01*
X0376894Y0015300D01*
X0381894Y0015300D01*
X0384394Y0012800D01*
X0386894Y0015300D01*
X0391894Y0015300D01*
X0394394Y0012800D01*
X0394394Y0007800D01*
X0391894Y0005300D01*
X0386894Y0005300D01*
X0384394Y0007800D01*
X0381894Y0005300D01*
X0376894Y0005300D01*
X0374394Y0007800D01*
X0374394Y0012800D01*
X0374394Y0007800D02*
X0371894Y0005300D01*
X0366894Y0005300D01*
X0364394Y0007800D01*
X0361894Y0005300D01*
X0356894Y0005300D01*
X0354394Y0007800D01*
X0351894Y0005300D01*
X0346894Y0005300D01*
X0344394Y0007800D01*
X0344394Y0012800D01*
X0344394Y0007800D02*
X0341894Y0005300D01*
X0336894Y0005300D01*
X0334394Y0007800D01*
X0331894Y0005300D01*
X0326894Y0005300D01*
X0324394Y0007800D01*
X0321894Y0005300D01*
X0316894Y0005300D01*
X0314394Y0007800D01*
X0311894Y0005300D01*
X0306894Y0005300D01*
X0304394Y0007800D01*
X0304394Y0012800D01*
X0306894Y0015300D01*
X0314394Y0012800D02*
X0314394Y0007800D01*
X0319394Y0015300D02*
X0319394Y0018600D01*
X0315594Y0018600D01*
X0315594Y0025400D01*
X0323494Y0025400D01*
X0323494Y0018600D01*
X0319394Y0018600D01*
X0317294Y0022503D02*
X0321564Y0022503D01*
X0323394Y0029500D02*
X0323394Y0039400D01*
X0350394Y0039400D01*
X0350394Y0029500D01*
X0323394Y0029500D01*
X0327329Y0032768D02*
X0327329Y0037038D01*
X0325194Y0034903D02*
X0329464Y0034903D01*
X0331640Y0037038D02*
X0332707Y0038105D01*
X0334842Y0038105D01*
X0335910Y0037038D01*
X0335910Y0035970D01*
X0334842Y0034903D01*
X0335910Y0033835D01*
X0335910Y0032768D01*
X0334842Y0031700D01*
X0332707Y0031700D01*
X0331640Y0032768D01*
X0333775Y0034903D02*
X0334842Y0034903D01*
X0338085Y0033835D02*
X0340220Y0031700D01*
X0342355Y0033835D01*
X0342355Y0038105D01*
X0344531Y0037038D02*
X0345598Y0038105D01*
X0347733Y0038105D01*
X0348801Y0037038D01*
X0348801Y0035970D01*
X0347733Y0034903D01*
X0348801Y0033835D01*
X0348801Y0032768D01*
X0347733Y0031700D01*
X0345598Y0031700D01*
X0344531Y0032768D01*
X0346666Y0034903D02*
X0347733Y0034903D01*
X0338085Y0033835D02*
X0338085Y0038105D01*
X0329794Y0029400D02*
X0329494Y0029400D01*
X0329494Y0015300D01*
X0324394Y0012800D02*
X0324394Y0007800D01*
X0334394Y0007800D02*
X0334394Y0012800D01*
X0354394Y0012800D02*
X0354394Y0007800D01*
X0364394Y0007800D02*
X0364394Y0012800D01*
X0384394Y0012800D02*
X0384394Y0007800D01*
X0311201Y0033235D02*
X0311201Y0037505D01*
X0311201Y0033235D02*
X0309066Y0031100D01*
X0306931Y0033235D01*
X0306931Y0037505D01*
X0304755Y0037505D02*
X0300485Y0037505D01*
X0302620Y0037505D02*
X0302620Y0031100D01*
X0298310Y0035370D02*
X0296175Y0037505D01*
X0294040Y0035370D01*
X0294040Y0031100D01*
X0167648Y0040770D02*
X0002294Y0040770D01*
X0002294Y0206124D01*
X0167648Y0206124D01*
X0167648Y0040770D01*
X0187894Y0154900D02*
X0187894Y0161305D01*
X0191097Y0161305D01*
X0192164Y0160238D01*
X0192164Y0158103D01*
X0191097Y0157035D01*
X0187894Y0157035D01*
X0190029Y0157035D02*
X0192164Y0154900D01*
X0194340Y0155968D02*
X0194340Y0158103D01*
X0195407Y0159170D01*
X0197542Y0159170D01*
X0198610Y0158103D01*
X0198610Y0157035D01*
X0194340Y0157035D01*
X0194340Y0155968D02*
X0195407Y0154900D01*
X0197542Y0154900D01*
X0200785Y0154900D02*
X0203988Y0154900D01*
X0205055Y0155968D01*
X0203988Y0157035D01*
X0201853Y0157035D01*
X0200785Y0158103D01*
X0201853Y0159170D01*
X0205055Y0159170D01*
X0207231Y0158103D02*
X0208298Y0159170D01*
X0210433Y0159170D01*
X0211501Y0158103D01*
X0211501Y0157035D01*
X0207231Y0157035D01*
X0207231Y0155968D02*
X0207231Y0158103D01*
X0207231Y0155968D02*
X0208298Y0154900D01*
X0210433Y0154900D01*
X0214744Y0155968D02*
X0214744Y0160238D01*
X0215811Y0159170D02*
X0213676Y0159170D01*
X0214744Y0155968D02*
X0215811Y0154900D01*
X0230641Y0229746D02*
X0230641Y0395101D01*
X0395995Y0395101D01*
X0395995Y0229746D01*
X0230641Y0229746D01*
X0192094Y0269400D02*
X0192094Y0273670D01*
X0192094Y0271535D02*
X0185689Y0271535D01*
X0187824Y0269400D01*
X0192094Y0275845D02*
X0185689Y0280116D01*
X0185689Y0282291D02*
X0187824Y0284426D01*
X0185689Y0286561D01*
X0192094Y0286561D01*
X0191027Y0288736D02*
X0192094Y0289804D01*
X0192094Y0291939D01*
X0191027Y0293007D01*
X0186756Y0293007D01*
X0185689Y0291939D01*
X0185689Y0289804D01*
X0186756Y0288736D01*
X0191027Y0288736D01*
X0192094Y0282291D02*
X0185689Y0282291D01*
X0186756Y0295182D02*
X0187824Y0295182D01*
X0188891Y0296250D01*
X0188891Y0298385D01*
X0189959Y0299452D01*
X0191027Y0299452D01*
X0192094Y0298385D01*
X0192094Y0296250D01*
X0191027Y0295182D01*
X0186756Y0295182D02*
X0185689Y0296250D01*
X0185689Y0298385D01*
X0186756Y0299452D01*
X0185689Y0301627D02*
X0185689Y0303763D01*
X0185689Y0302695D02*
X0192094Y0302695D01*
X0192094Y0301627D02*
X0192094Y0303763D01*
X0191644Y0306361D02*
X0186644Y0306361D01*
X0184144Y0308861D01*
X0184144Y0323861D01*
X0186644Y0326361D01*
X0191644Y0326361D01*
X0194144Y0323861D01*
X0194144Y0308861D01*
X0196644Y0306361D01*
X0201644Y0306361D01*
X0204144Y0308861D01*
X0206644Y0306361D01*
X0211644Y0306361D01*
X0214144Y0308861D01*
X0214144Y0323861D01*
X0211644Y0326361D01*
X0206644Y0326361D01*
X0204144Y0323861D01*
X0204144Y0308861D01*
X0194144Y0308861D02*
X0191644Y0306361D01*
X0194144Y0323861D02*
X0196644Y0326361D01*
X0201644Y0326361D01*
X0204144Y0323861D01*
X0208591Y0329200D02*
X0208591Y0332403D01*
X0209659Y0333470D01*
X0210727Y0333470D01*
X0211794Y0332403D01*
X0211794Y0330268D01*
X0210727Y0329200D01*
X0208591Y0329200D01*
X0206456Y0331335D01*
X0205389Y0333470D01*
X0205389Y0339916D02*
X0211794Y0335645D01*
X0210727Y0342091D02*
X0206456Y0342091D01*
X0205389Y0343159D01*
X0205389Y0345294D01*
X0206456Y0346361D01*
X0208591Y0346361D02*
X0208591Y0344226D01*
X0208591Y0346361D02*
X0210727Y0346361D01*
X0211794Y0345294D01*
X0211794Y0343159D01*
X0210727Y0342091D01*
X0211794Y0348536D02*
X0205389Y0348536D01*
X0211794Y0352807D01*
X0205389Y0352807D01*
X0205389Y0354982D02*
X0205389Y0358185D01*
X0206456Y0359252D01*
X0210727Y0359252D01*
X0211794Y0358185D01*
X0211794Y0354982D01*
X0205389Y0354982D01*
X0167648Y0395101D02*
X0167648Y0229746D01*
X0002294Y0229746D01*
X0002294Y0395101D01*
X0167648Y0395101D01*
D11*
X0002294Y0395101D02*
X0002294Y0001400D01*
X0395995Y0001400D01*
X0395995Y0395101D01*
X0002294Y0395101D01*
D12*
X0060035Y0228014D02*
X0060035Y0225712D01*
X0060035Y0221108D02*
X0060035Y0211900D01*
X0057733Y0211900D02*
X0062337Y0211900D01*
X0066941Y0211900D02*
X0066941Y0225712D01*
X0060035Y0221108D02*
X0057733Y0221108D01*
X0053129Y0221108D02*
X0048526Y0221108D01*
X0050828Y0223410D02*
X0050828Y0214202D01*
X0053129Y0211900D01*
X0043922Y0221108D02*
X0041620Y0221108D01*
X0037016Y0216504D01*
X0037016Y0211900D02*
X0037016Y0221108D01*
X0032412Y0218806D02*
X0032412Y0211900D01*
X0025506Y0211900D01*
X0023204Y0214202D01*
X0025506Y0216504D01*
X0032412Y0216504D01*
X0032412Y0218806D02*
X0030110Y0221108D01*
X0025506Y0221108D01*
X0018600Y0221108D02*
X0011694Y0216504D01*
X0018600Y0211900D01*
X0011694Y0211900D02*
X0011694Y0225712D01*
X0066941Y0216504D02*
X0073847Y0221108D01*
X0078451Y0221108D02*
X0078451Y0214202D01*
X0080753Y0211900D01*
X0087659Y0211900D01*
X0087659Y0209598D02*
X0085357Y0207296D01*
X0083055Y0207296D01*
X0087659Y0209598D02*
X0087659Y0221108D01*
X0092263Y0218806D02*
X0094565Y0221108D01*
X0099169Y0221108D01*
X0101471Y0218806D01*
X0101471Y0216504D01*
X0092263Y0216504D01*
X0092263Y0214202D02*
X0092263Y0218806D01*
X0092263Y0214202D02*
X0094565Y0211900D01*
X0099169Y0211900D01*
X0106075Y0211900D02*
X0108377Y0211900D01*
X0108377Y0214202D01*
X0106075Y0214202D01*
X0106075Y0211900D01*
X0112981Y0214202D02*
X0112981Y0218806D01*
X0115283Y0221108D01*
X0122188Y0221108D01*
X0126792Y0218806D02*
X0126792Y0214202D01*
X0129094Y0211900D01*
X0133698Y0211900D01*
X0136000Y0214202D01*
X0136000Y0218806D01*
X0133698Y0221108D01*
X0129094Y0221108D01*
X0126792Y0218806D01*
X0122188Y0211900D02*
X0115283Y0211900D01*
X0112981Y0214202D01*
X0140604Y0211900D02*
X0140604Y0221108D01*
X0142906Y0221108D01*
X0145208Y0218806D01*
X0147510Y0221108D01*
X0149812Y0218806D01*
X0149812Y0211900D01*
X0145208Y0211900D02*
X0145208Y0218806D01*
X0073847Y0211900D02*
X0066941Y0216504D01*
X0244594Y0215804D02*
X0251500Y0215804D01*
X0253802Y0218106D01*
X0253802Y0222710D01*
X0251500Y0225012D01*
X0244594Y0225012D01*
X0244594Y0211200D01*
X0258406Y0213502D02*
X0260708Y0211200D01*
X0265312Y0211200D01*
X0267614Y0213502D01*
X0267614Y0222710D01*
X0265312Y0225012D01*
X0260708Y0225012D01*
X0258406Y0222710D01*
X0258406Y0213502D01*
X0263010Y0215804D02*
X0267614Y0211200D01*
X0272218Y0213502D02*
X0272218Y0218106D01*
X0279124Y0218106D01*
X0281426Y0215804D01*
X0281426Y0213502D01*
X0279124Y0211200D01*
X0274520Y0211200D01*
X0272218Y0213502D01*
X0272218Y0218106D02*
X0276822Y0222710D01*
X0281426Y0225012D01*
X0286029Y0222710D02*
X0288331Y0225012D01*
X0292935Y0225012D01*
X0295237Y0222710D01*
X0286029Y0213502D01*
X0288331Y0211200D01*
X0292935Y0211200D01*
X0295237Y0213502D01*
X0295237Y0222710D01*
X0286029Y0222710D02*
X0286029Y0213502D01*
X0313653Y0211200D02*
X0313653Y0225012D01*
X0322861Y0225012D01*
X0327465Y0225012D02*
X0329767Y0225012D01*
X0329767Y0211200D01*
X0327465Y0211200D02*
X0332069Y0211200D01*
X0336673Y0213502D02*
X0338975Y0215804D01*
X0345881Y0215804D01*
X0345881Y0218106D02*
X0345881Y0211200D01*
X0338975Y0211200D01*
X0336673Y0213502D01*
X0338975Y0220408D02*
X0343579Y0220408D01*
X0345881Y0218106D01*
X0350485Y0220408D02*
X0355088Y0220408D01*
X0352787Y0222710D02*
X0352787Y0213502D01*
X0355088Y0211200D01*
X0359692Y0213502D02*
X0361994Y0211200D01*
X0366598Y0211200D01*
X0368900Y0213502D01*
X0368900Y0215804D01*
X0366598Y0218106D01*
X0361994Y0218106D01*
X0359692Y0220408D01*
X0359692Y0222710D01*
X0361994Y0225012D01*
X0366598Y0225012D01*
X0368900Y0222710D01*
X0375806Y0220408D02*
X0380410Y0220408D01*
X0382712Y0218106D01*
X0382712Y0211200D01*
X0375806Y0211200D01*
X0373504Y0213502D01*
X0375806Y0215804D01*
X0382712Y0215804D01*
X0387316Y0220408D02*
X0391920Y0220408D01*
X0389618Y0222710D02*
X0389618Y0213502D01*
X0391920Y0211200D01*
X0318257Y0218106D02*
X0313653Y0218106D01*
D13*
X0213405Y0139811D02*
X0213405Y0116189D01*
X0189389Y0116189D01*
X0189389Y0139811D01*
X0213405Y0139811D01*
X0208982Y0137449D02*
X0208984Y0137508D01*
X0208990Y0137566D01*
X0209000Y0137624D01*
X0209013Y0137681D01*
X0209031Y0137738D01*
X0209052Y0137793D01*
X0209077Y0137846D01*
X0209105Y0137897D01*
X0209136Y0137947D01*
X0209171Y0137994D01*
X0209209Y0138039D01*
X0209250Y0138082D01*
X0209294Y0138121D01*
X0209340Y0138157D01*
X0209388Y0138191D01*
X0209439Y0138221D01*
X0209492Y0138247D01*
X0209546Y0138270D01*
X0209601Y0138289D01*
X0209658Y0138305D01*
X0209716Y0138317D01*
X0209774Y0138325D01*
X0209833Y0138329D01*
X0209891Y0138329D01*
X0209950Y0138325D01*
X0210008Y0138317D01*
X0210066Y0138305D01*
X0210123Y0138289D01*
X0210178Y0138270D01*
X0210232Y0138247D01*
X0210285Y0138221D01*
X0210336Y0138191D01*
X0210384Y0138157D01*
X0210430Y0138121D01*
X0210474Y0138082D01*
X0210515Y0138039D01*
X0210553Y0137994D01*
X0210588Y0137947D01*
X0210619Y0137897D01*
X0210647Y0137846D01*
X0210672Y0137793D01*
X0210693Y0137738D01*
X0210711Y0137681D01*
X0210724Y0137624D01*
X0210734Y0137566D01*
X0210740Y0137508D01*
X0210742Y0137449D01*
X0210740Y0137390D01*
X0210734Y0137332D01*
X0210724Y0137274D01*
X0210711Y0137217D01*
X0210693Y0137160D01*
X0210672Y0137105D01*
X0210647Y0137052D01*
X0210619Y0137001D01*
X0210588Y0136951D01*
X0210553Y0136904D01*
X0210515Y0136859D01*
X0210474Y0136816D01*
X0210430Y0136777D01*
X0210384Y0136741D01*
X0210336Y0136707D01*
X0210285Y0136677D01*
X0210232Y0136651D01*
X0210178Y0136628D01*
X0210123Y0136609D01*
X0210066Y0136593D01*
X0210008Y0136581D01*
X0209950Y0136573D01*
X0209891Y0136569D01*
X0209833Y0136569D01*
X0209774Y0136573D01*
X0209716Y0136581D01*
X0209658Y0136593D01*
X0209601Y0136609D01*
X0209546Y0136628D01*
X0209492Y0136651D01*
X0209439Y0136677D01*
X0209388Y0136707D01*
X0209340Y0136741D01*
X0209294Y0136777D01*
X0209250Y0136816D01*
X0209209Y0136859D01*
X0209171Y0136904D01*
X0209136Y0136951D01*
X0209105Y0137001D01*
X0209077Y0137052D01*
X0209052Y0137105D01*
X0209031Y0137160D01*
X0209013Y0137217D01*
X0209000Y0137274D01*
X0208990Y0137332D01*
X0208984Y0137390D01*
X0208982Y0137449D01*
X0209862Y0136661D02*
X0209862Y0127213D01*
X0209862Y0118945D01*
X0209075Y0117764D02*
X0209077Y0117820D01*
X0209083Y0117875D01*
X0209093Y0117929D01*
X0209106Y0117983D01*
X0209124Y0118036D01*
X0209145Y0118087D01*
X0209169Y0118137D01*
X0209197Y0118185D01*
X0209229Y0118231D01*
X0209263Y0118275D01*
X0209301Y0118316D01*
X0209341Y0118354D01*
X0209384Y0118389D01*
X0209429Y0118421D01*
X0209477Y0118450D01*
X0209526Y0118476D01*
X0209577Y0118498D01*
X0209629Y0118516D01*
X0209683Y0118530D01*
X0209738Y0118541D01*
X0209793Y0118548D01*
X0209848Y0118551D01*
X0209904Y0118550D01*
X0209959Y0118545D01*
X0210014Y0118536D01*
X0210068Y0118524D01*
X0210121Y0118507D01*
X0210173Y0118487D01*
X0210223Y0118463D01*
X0210271Y0118436D01*
X0210318Y0118406D01*
X0210362Y0118372D01*
X0210404Y0118335D01*
X0210442Y0118295D01*
X0210479Y0118253D01*
X0210512Y0118208D01*
X0210541Y0118162D01*
X0210568Y0118113D01*
X0210590Y0118062D01*
X0210610Y0118010D01*
X0210625Y0117956D01*
X0210637Y0117902D01*
X0210645Y0117847D01*
X0210649Y0117792D01*
X0210649Y0117736D01*
X0210645Y0117681D01*
X0210637Y0117626D01*
X0210625Y0117572D01*
X0210610Y0117518D01*
X0210590Y0117466D01*
X0210568Y0117415D01*
X0210541Y0117366D01*
X0210512Y0117320D01*
X0210479Y0117275D01*
X0210442Y0117233D01*
X0210404Y0117193D01*
X0210362Y0117156D01*
X0210318Y0117122D01*
X0210271Y0117092D01*
X0210223Y0117065D01*
X0210173Y0117041D01*
X0210121Y0117021D01*
X0210068Y0117004D01*
X0210014Y0116992D01*
X0209959Y0116983D01*
X0209904Y0116978D01*
X0209848Y0116977D01*
X0209793Y0116980D01*
X0209738Y0116987D01*
X0209683Y0116998D01*
X0209629Y0117012D01*
X0209577Y0117030D01*
X0209526Y0117052D01*
X0209477Y0117078D01*
X0209429Y0117107D01*
X0209384Y0117139D01*
X0209341Y0117174D01*
X0209301Y0117212D01*
X0209263Y0117253D01*
X0209229Y0117297D01*
X0209197Y0117343D01*
X0209169Y0117391D01*
X0209145Y0117441D01*
X0209124Y0117492D01*
X0209106Y0117545D01*
X0209093Y0117599D01*
X0209083Y0117653D01*
X0209077Y0117708D01*
X0209075Y0117764D01*
X0209862Y0127213D02*
X0203563Y0127213D01*
X0203169Y0131937D02*
X0198444Y0127213D01*
X0192933Y0127213D01*
X0192539Y0118945D02*
X0192539Y0136661D01*
X0191659Y0137449D02*
X0191661Y0137508D01*
X0191667Y0137566D01*
X0191677Y0137624D01*
X0191690Y0137681D01*
X0191708Y0137738D01*
X0191729Y0137793D01*
X0191754Y0137846D01*
X0191782Y0137897D01*
X0191813Y0137947D01*
X0191848Y0137994D01*
X0191886Y0138039D01*
X0191927Y0138082D01*
X0191971Y0138121D01*
X0192017Y0138157D01*
X0192065Y0138191D01*
X0192116Y0138221D01*
X0192169Y0138247D01*
X0192223Y0138270D01*
X0192278Y0138289D01*
X0192335Y0138305D01*
X0192393Y0138317D01*
X0192451Y0138325D01*
X0192510Y0138329D01*
X0192568Y0138329D01*
X0192627Y0138325D01*
X0192685Y0138317D01*
X0192743Y0138305D01*
X0192800Y0138289D01*
X0192855Y0138270D01*
X0192909Y0138247D01*
X0192962Y0138221D01*
X0193013Y0138191D01*
X0193061Y0138157D01*
X0193107Y0138121D01*
X0193151Y0138082D01*
X0193192Y0138039D01*
X0193230Y0137994D01*
X0193265Y0137947D01*
X0193296Y0137897D01*
X0193324Y0137846D01*
X0193349Y0137793D01*
X0193370Y0137738D01*
X0193388Y0137681D01*
X0193401Y0137624D01*
X0193411Y0137566D01*
X0193417Y0137508D01*
X0193419Y0137449D01*
X0193417Y0137390D01*
X0193411Y0137332D01*
X0193401Y0137274D01*
X0193388Y0137217D01*
X0193370Y0137160D01*
X0193349Y0137105D01*
X0193324Y0137052D01*
X0193296Y0137001D01*
X0193265Y0136951D01*
X0193230Y0136904D01*
X0193192Y0136859D01*
X0193151Y0136816D01*
X0193107Y0136777D01*
X0193061Y0136741D01*
X0193013Y0136707D01*
X0192962Y0136677D01*
X0192909Y0136651D01*
X0192855Y0136628D01*
X0192800Y0136609D01*
X0192743Y0136593D01*
X0192685Y0136581D01*
X0192627Y0136573D01*
X0192568Y0136569D01*
X0192510Y0136569D01*
X0192451Y0136573D01*
X0192393Y0136581D01*
X0192335Y0136593D01*
X0192278Y0136609D01*
X0192223Y0136628D01*
X0192169Y0136651D01*
X0192116Y0136677D01*
X0192065Y0136707D01*
X0192017Y0136741D01*
X0191971Y0136777D01*
X0191927Y0136816D01*
X0191886Y0136859D01*
X0191848Y0136904D01*
X0191813Y0136951D01*
X0191782Y0137001D01*
X0191754Y0137052D01*
X0191729Y0137105D01*
X0191708Y0137160D01*
X0191690Y0137217D01*
X0191677Y0137274D01*
X0191667Y0137332D01*
X0191661Y0137390D01*
X0191659Y0137449D01*
X0191752Y0118157D02*
X0191754Y0118213D01*
X0191760Y0118268D01*
X0191770Y0118322D01*
X0191783Y0118376D01*
X0191801Y0118429D01*
X0191822Y0118480D01*
X0191846Y0118530D01*
X0191874Y0118578D01*
X0191906Y0118624D01*
X0191940Y0118668D01*
X0191978Y0118709D01*
X0192018Y0118747D01*
X0192061Y0118782D01*
X0192106Y0118814D01*
X0192154Y0118843D01*
X0192203Y0118869D01*
X0192254Y0118891D01*
X0192306Y0118909D01*
X0192360Y0118923D01*
X0192415Y0118934D01*
X0192470Y0118941D01*
X0192525Y0118944D01*
X0192581Y0118943D01*
X0192636Y0118938D01*
X0192691Y0118929D01*
X0192745Y0118917D01*
X0192798Y0118900D01*
X0192850Y0118880D01*
X0192900Y0118856D01*
X0192948Y0118829D01*
X0192995Y0118799D01*
X0193039Y0118765D01*
X0193081Y0118728D01*
X0193119Y0118688D01*
X0193156Y0118646D01*
X0193189Y0118601D01*
X0193218Y0118555D01*
X0193245Y0118506D01*
X0193267Y0118455D01*
X0193287Y0118403D01*
X0193302Y0118349D01*
X0193314Y0118295D01*
X0193322Y0118240D01*
X0193326Y0118185D01*
X0193326Y0118129D01*
X0193322Y0118074D01*
X0193314Y0118019D01*
X0193302Y0117965D01*
X0193287Y0117911D01*
X0193267Y0117859D01*
X0193245Y0117808D01*
X0193218Y0117759D01*
X0193189Y0117713D01*
X0193156Y0117668D01*
X0193119Y0117626D01*
X0193081Y0117586D01*
X0193039Y0117549D01*
X0192995Y0117515D01*
X0192948Y0117485D01*
X0192900Y0117458D01*
X0192850Y0117434D01*
X0192798Y0117414D01*
X0192745Y0117397D01*
X0192691Y0117385D01*
X0192636Y0117376D01*
X0192581Y0117371D01*
X0192525Y0117370D01*
X0192470Y0117373D01*
X0192415Y0117380D01*
X0192360Y0117391D01*
X0192306Y0117405D01*
X0192254Y0117423D01*
X0192203Y0117445D01*
X0192154Y0117471D01*
X0192106Y0117500D01*
X0192061Y0117532D01*
X0192018Y0117567D01*
X0191978Y0117605D01*
X0191940Y0117646D01*
X0191906Y0117690D01*
X0191874Y0117736D01*
X0191846Y0117784D01*
X0191822Y0117834D01*
X0191801Y0117885D01*
X0191783Y0117938D01*
X0191770Y0117992D01*
X0191760Y0118046D01*
X0191754Y0118101D01*
X0191752Y0118157D01*
M02*
