G75*
%MOIN*%
%OFA0B0*%
%FSLAX25Y25*%
%IPPOS*%
%LPD*%
%AMOC8*
5,1,8,0,0,1.08239X$1,22.5*
%
%ADD10C,0.00394*%
%ADD11C,0.00700*%
%ADD12R,0.01778X0.10046*%
%ADD13OC8,0.06400*%
%ADD14C,0.06400*%
%ADD15R,0.05912X0.08668*%
D10*
X0002294Y0001400D02*
X0002294Y0395101D01*
X0395995Y0395101D01*
X0395995Y0001400D01*
X0002294Y0001400D01*
D11*
X0028144Y0379750D02*
X0028144Y0387657D01*
X0032097Y0385021D02*
X0028144Y0382386D01*
X0032097Y0379750D01*
X0034743Y0381068D02*
X0036061Y0382386D01*
X0040014Y0382386D01*
X0040014Y0383703D02*
X0040014Y0379750D01*
X0036061Y0379750D01*
X0034743Y0381068D01*
X0036061Y0385021D02*
X0038696Y0385021D01*
X0040014Y0383703D01*
X0042662Y0382386D02*
X0045297Y0385021D01*
X0046615Y0385021D01*
X0049261Y0385021D02*
X0051896Y0385021D01*
X0050579Y0386339D02*
X0050579Y0381068D01*
X0051896Y0379750D01*
X0054540Y0379750D02*
X0057176Y0379750D01*
X0055858Y0379750D02*
X0055858Y0385021D01*
X0054540Y0385021D01*
X0055858Y0387657D02*
X0055858Y0388975D01*
X0059819Y0387657D02*
X0059819Y0379750D01*
X0059819Y0382386D02*
X0063773Y0385021D01*
X0066418Y0385021D02*
X0066418Y0381068D01*
X0067736Y0379750D01*
X0071689Y0379750D01*
X0071689Y0378432D02*
X0070371Y0377114D01*
X0069054Y0377114D01*
X0071689Y0378432D02*
X0071689Y0385021D01*
X0074337Y0383703D02*
X0075655Y0385021D01*
X0078290Y0385021D01*
X0079608Y0383703D01*
X0079608Y0382386D01*
X0074337Y0382386D01*
X0074337Y0383703D02*
X0074337Y0381068D01*
X0075655Y0379750D01*
X0078290Y0379750D01*
X0082256Y0379750D02*
X0082256Y0381068D01*
X0083573Y0381068D01*
X0083573Y0379750D01*
X0082256Y0379750D01*
X0086215Y0381068D02*
X0087533Y0379750D01*
X0091486Y0379750D01*
X0094134Y0381068D02*
X0095452Y0379750D01*
X0098087Y0379750D01*
X0099405Y0381068D01*
X0099405Y0383703D01*
X0098087Y0385021D01*
X0095452Y0385021D01*
X0094134Y0383703D01*
X0094134Y0381068D01*
X0091486Y0385021D02*
X0087533Y0385021D01*
X0086215Y0383703D01*
X0086215Y0381068D01*
X0102053Y0379750D02*
X0102053Y0385021D01*
X0103370Y0385021D01*
X0104688Y0383703D01*
X0106006Y0385021D01*
X0107324Y0383703D01*
X0107324Y0379750D01*
X0104688Y0379750D02*
X0104688Y0383703D01*
X0063773Y0379750D02*
X0059819Y0382386D01*
X0042662Y0379750D02*
X0042662Y0385021D01*
D12*
X0050719Y0266065D03*
X0053081Y0266065D03*
X0055444Y0266065D03*
X0057806Y0266065D03*
X0060168Y0266065D03*
X0062530Y0266065D03*
X0064893Y0266065D03*
X0067255Y0266065D03*
X0069617Y0266065D03*
X0071979Y0266065D03*
X0074341Y0266065D03*
X0076704Y0266065D03*
X0079066Y0266065D03*
X0081428Y0266065D03*
X0083790Y0266065D03*
X0086152Y0266065D03*
X0088515Y0266065D03*
X0090877Y0266065D03*
X0093239Y0266065D03*
X0095601Y0266065D03*
X0097963Y0266065D03*
X0100326Y0266065D03*
X0102688Y0266065D03*
X0105050Y0266065D03*
X0107412Y0266065D03*
X0109774Y0266065D03*
X0112137Y0266065D03*
X0114499Y0266065D03*
X0116861Y0266065D03*
X0119223Y0266065D03*
X0119223Y0248546D03*
X0116861Y0248546D03*
X0114499Y0248546D03*
X0112137Y0248546D03*
X0109774Y0248546D03*
X0107412Y0248546D03*
X0105050Y0248546D03*
X0102688Y0248546D03*
X0100326Y0248546D03*
X0097963Y0248546D03*
X0095601Y0248546D03*
X0093239Y0248546D03*
X0090877Y0248546D03*
X0088515Y0248546D03*
X0086152Y0248546D03*
X0083790Y0248546D03*
X0081428Y0248546D03*
X0079066Y0248546D03*
X0076704Y0248546D03*
X0074341Y0248546D03*
X0071979Y0248546D03*
X0069617Y0248546D03*
X0067255Y0248546D03*
X0064893Y0248546D03*
X0062530Y0248546D03*
X0060168Y0248546D03*
X0057806Y0248546D03*
X0055444Y0248546D03*
X0053081Y0248546D03*
X0050719Y0248546D03*
X0050719Y0077089D03*
X0053081Y0077089D03*
X0055444Y0077089D03*
X0057806Y0077089D03*
X0060168Y0077089D03*
X0062530Y0077089D03*
X0064893Y0077089D03*
X0067255Y0077089D03*
X0069617Y0077089D03*
X0071979Y0077089D03*
X0074341Y0077089D03*
X0076704Y0077089D03*
X0079066Y0077089D03*
X0081428Y0077089D03*
X0083790Y0077089D03*
X0086152Y0077089D03*
X0088515Y0077089D03*
X0090877Y0077089D03*
X0093239Y0077089D03*
X0095601Y0077089D03*
X0097963Y0077089D03*
X0100326Y0077089D03*
X0102688Y0077089D03*
X0105050Y0077089D03*
X0107412Y0077089D03*
X0109774Y0077089D03*
X0112137Y0077089D03*
X0114499Y0077089D03*
X0116861Y0077089D03*
X0119223Y0077089D03*
X0119223Y0059569D03*
X0116861Y0059569D03*
X0114499Y0059569D03*
X0112137Y0059569D03*
X0109774Y0059569D03*
X0107412Y0059569D03*
X0105050Y0059569D03*
X0102688Y0059569D03*
X0100326Y0059569D03*
X0097963Y0059569D03*
X0095601Y0059569D03*
X0093239Y0059569D03*
X0090877Y0059569D03*
X0088515Y0059569D03*
X0086152Y0059569D03*
X0083790Y0059569D03*
X0081428Y0059569D03*
X0079066Y0059569D03*
X0076704Y0059569D03*
X0074341Y0059569D03*
X0071979Y0059569D03*
X0069617Y0059569D03*
X0067255Y0059569D03*
X0064893Y0059569D03*
X0062530Y0059569D03*
X0060168Y0059569D03*
X0057806Y0059569D03*
X0055444Y0059569D03*
X0053081Y0059569D03*
X0050719Y0059569D03*
X0279066Y0059569D03*
X0281428Y0059569D03*
X0283790Y0059569D03*
X0286152Y0059569D03*
X0288515Y0059569D03*
X0290877Y0059569D03*
X0293239Y0059569D03*
X0295601Y0059569D03*
X0297963Y0059569D03*
X0300326Y0059569D03*
X0302688Y0059569D03*
X0305050Y0059569D03*
X0307412Y0059569D03*
X0309774Y0059569D03*
X0312137Y0059569D03*
X0314499Y0059569D03*
X0316861Y0059569D03*
X0319223Y0059569D03*
X0321585Y0059569D03*
X0323948Y0059569D03*
X0326310Y0059569D03*
X0328672Y0059569D03*
X0331034Y0059569D03*
X0333396Y0059569D03*
X0335759Y0059569D03*
X0338121Y0059569D03*
X0340483Y0059569D03*
X0342845Y0059569D03*
X0345207Y0059569D03*
X0347570Y0059569D03*
X0347570Y0077089D03*
X0345207Y0077089D03*
X0342845Y0077089D03*
X0340483Y0077089D03*
X0338121Y0077089D03*
X0335759Y0077089D03*
X0333396Y0077089D03*
X0331034Y0077089D03*
X0328672Y0077089D03*
X0326310Y0077089D03*
X0323948Y0077089D03*
X0321585Y0077089D03*
X0319223Y0077089D03*
X0316861Y0077089D03*
X0314499Y0077089D03*
X0312137Y0077089D03*
X0309774Y0077089D03*
X0307412Y0077089D03*
X0305050Y0077089D03*
X0302688Y0077089D03*
X0300326Y0077089D03*
X0297963Y0077089D03*
X0295601Y0077089D03*
X0293239Y0077089D03*
X0290877Y0077089D03*
X0288515Y0077089D03*
X0286152Y0077089D03*
X0283790Y0077089D03*
X0281428Y0077089D03*
X0279066Y0077089D03*
X0279066Y0248546D03*
X0281428Y0248546D03*
X0283790Y0248546D03*
X0286152Y0248546D03*
X0288515Y0248546D03*
X0290877Y0248546D03*
X0293239Y0248546D03*
X0295601Y0248546D03*
X0297963Y0248546D03*
X0300326Y0248546D03*
X0302688Y0248546D03*
X0305050Y0248546D03*
X0307412Y0248546D03*
X0309774Y0248546D03*
X0312137Y0248546D03*
X0314499Y0248546D03*
X0316861Y0248546D03*
X0319223Y0248546D03*
X0321585Y0248546D03*
X0323948Y0248546D03*
X0326310Y0248546D03*
X0328672Y0248546D03*
X0331034Y0248546D03*
X0333396Y0248546D03*
X0335759Y0248546D03*
X0338121Y0248546D03*
X0340483Y0248546D03*
X0342845Y0248546D03*
X0345207Y0248546D03*
X0347570Y0248546D03*
X0347570Y0266065D03*
X0345207Y0266065D03*
X0342845Y0266065D03*
X0340483Y0266065D03*
X0338121Y0266065D03*
X0335759Y0266065D03*
X0333396Y0266065D03*
X0331034Y0266065D03*
X0328672Y0266065D03*
X0326310Y0266065D03*
X0323948Y0266065D03*
X0321585Y0266065D03*
X0319223Y0266065D03*
X0316861Y0266065D03*
X0314499Y0266065D03*
X0312137Y0266065D03*
X0309774Y0266065D03*
X0307412Y0266065D03*
X0305050Y0266065D03*
X0302688Y0266065D03*
X0300326Y0266065D03*
X0297963Y0266065D03*
X0295601Y0266065D03*
X0293239Y0266065D03*
X0290877Y0266065D03*
X0288515Y0266065D03*
X0286152Y0266065D03*
X0283790Y0266065D03*
X0281428Y0266065D03*
X0279066Y0266065D03*
D13*
X0209144Y0311361D03*
X0209144Y0321361D03*
X0199144Y0321361D03*
X0189144Y0321361D03*
X0189144Y0311361D03*
X0199144Y0311361D03*
X0199144Y0026085D03*
X0189144Y0026085D03*
X0189144Y0016085D03*
X0199144Y0016085D03*
X0209144Y0016085D03*
X0209144Y0026085D03*
X0100050Y0026085D03*
X0100050Y0016085D03*
X0090050Y0016085D03*
X0090050Y0026085D03*
X0080050Y0026085D03*
X0080050Y0016085D03*
X0070050Y0016085D03*
X0070050Y0026085D03*
X0060050Y0026085D03*
X0060050Y0016085D03*
X0050050Y0016085D03*
X0050050Y0026085D03*
X0040050Y0026085D03*
X0040050Y0016085D03*
X0030050Y0016085D03*
X0030050Y0026085D03*
X0020050Y0026085D03*
X0020050Y0016085D03*
X0010050Y0016085D03*
X0010050Y0026085D03*
D14*
X0309394Y0013300D02*
X0309394Y0007300D01*
X0319394Y0007300D02*
X0319394Y0013300D01*
X0329394Y0013300D02*
X0329394Y0007300D01*
X0339394Y0007300D02*
X0339394Y0013300D01*
X0349394Y0013300D02*
X0349394Y0007300D01*
X0359394Y0007300D02*
X0359394Y0013300D01*
X0369394Y0013300D02*
X0369394Y0007300D01*
X0379394Y0007300D02*
X0379394Y0013300D01*
X0389394Y0013300D02*
X0389394Y0007300D01*
D15*
X0210256Y0110087D03*
X0192539Y0110087D03*
X0192539Y0145913D03*
X0210256Y0145913D03*
M02*
