%
M48
M72
T01C0.01181
T02C0.02756
T03C0.04000
T04C0.04331
T05C0.07874
%
T01
X45601Y82502
X50719Y84865
X53081Y88014
X55394Y84800
X57806Y88014
X60168Y84865
X62530Y88014
X64894Y85000
X71979Y88014
X78694Y99000
X88194Y95600
X90877Y88014
X100326Y88014
X105050Y94707
X109774Y88014
X119223Y88014
X119223Y67542
X114499Y67542
X105050Y67542
X93194Y67542
X81428Y66754
X79094Y69600
X74294Y66700
X67255Y66600
X64893Y69700
X62530Y66600
X60168Y69700
X57806Y66600
X55444Y69700
X53081Y66600
X50719Y69700
X33790Y82502
X30147Y79591
X38121Y91164
X43633Y95494
X42845Y102187
X42494Y109700
X29094Y103762
X25894Y99825
X22694Y103762
X19694Y99825
X16494Y103762
X13294Y99825
X10194Y103762
X5050Y89589
X5050Y85652
X5050Y81715
X5050Y77778
X5050Y73841
X5050Y69904
X5050Y65967
X24722Y40769
X32709Y44076
X35065Y41026
X38315Y38570
X42058Y37189
X54994Y31900
X65088Y39000
X70394Y42200
X65094Y21600
X82594Y10800
X85294Y5500
X109381Y12424
X111349Y19117
X116861Y23054
X121192Y20298
X129459Y34471
X125522Y36439
X121585Y38408
X133396Y32502
X137333Y30534
X141270Y28565
X145207Y26597
X149144Y24628
X160168Y16754
X178475Y43329
X172767Y44707
X177491Y57699
X164499Y69904
X164499Y73841
X164499Y77778
X164499Y81715
X164499Y85652
X164499Y89589
X158200Y99825
X161349Y103762
X155050Y103762
X151900Y99825
X148751Y103762
X128278Y149431
X154656Y176203
X188694Y227500
X212194Y249000
X202894Y260400
X188694Y260700
X189194Y275800
X202894Y276300
X236494Y298000
X251194Y290600
X262494Y264500
X257694Y252400
X251094Y251800
X272394Y249100
X279066Y273841
X281428Y276991
X286152Y276991
X288515Y273841
X290877Y276991
X297963Y273841
X307412Y273841
X316861Y273841
X328672Y276991
X335759Y273841
X345207Y273841
X360994Y254700
X323948Y256912
X268694Y323100
X282290Y332109
X297963Y351794
X290877Y355731
X288515Y359668
X286152Y363605
X281428Y367542
X279066Y371479
X307019Y347857
X319223Y343920
X326310Y339983
X335759Y336046
X149144Y256124
X119223Y276991
X109774Y276991
X100326Y276991
X90877Y276991
X81428Y276991
X71979Y276991
X62530Y276991
X60168Y273841
X57806Y276991
X53081Y276991
X50719Y273841
X95601Y237227
X105194Y237600
X114499Y236439
X109774Y336046
X100326Y339983
X90877Y343920
X81428Y347857
X75129Y351794
X75129Y355731
X75129Y359668
X75129Y363605
X75129Y367542
X75129Y371479
X228278Y124235
X238515Y103762
X241664Y99825
X244814Y103762
X247963Y99825
X251113Y103762
X254263Y99825
X233396Y85652
X233396Y81715
X233396Y77778
X233396Y73841
X233396Y69904
X233396Y65967
X256494Y47500
X254494Y33000
X232822Y23628
X238121Y10061
X228094Y9700
X220094Y9000
X279066Y84865
X281428Y88014
X286152Y88014
X288515Y84865
X290877Y88014
X293239Y84865
X295601Y88014
X297963Y84865
X300326Y88014
X302688Y84865
X305050Y88014
X307412Y84865
X309774Y88014
X312894Y91500
X316861Y84865
X328672Y88014
X335759Y84865
X345207Y84865
X354294Y91500
X367294Y91200
X368394Y104400
X367394Y119400
X351694Y119200
X351794Y104500
X325394Y104500
X318494Y104500
X312694Y104500
X307412Y104500
X321594Y99000
X325394Y119200
X283396Y124235
X266861Y124235
X300326Y67542
X303869Y67542
X307412Y67542
X323948Y67148
X297963Y52187
X295601Y48644
X309774Y25809
X305837Y21872
X301900Y17935
X297963Y13998
X294026Y10061
X290089Y6124
X81428Y88014
X74794Y110500
X62530Y108487
X60168Y102975
X45601Y88014
X19794Y9100
T02
X41270Y74235
X269617Y74235
X269617Y263211
X41270Y263211
T03
X10050Y16085
X20050Y16085
X20050Y26085
X10050Y26085
X30050Y26085
X30050Y16085
X40050Y16085
X40050Y26085
X50050Y26085
X50050Y16085
X60050Y16085
X60050Y26085
X70050Y26085
X70050Y16085
X80050Y16085
X80050Y26085
X90050Y26085
X90050Y16085
X100050Y16085
X100050Y26085
X189144Y26085
X189144Y16085
X199144Y16085
X199144Y26085
X209144Y26085
X209144Y16085
X309394Y10300
X319394Y10300
X329394Y10300
X339394Y10300
X349394Y10300
X359394Y10300
X369394Y10300
X379394Y10300
X389394Y10300
X209144Y311361
X209144Y321361
X199144Y321361
X189144Y321361
X189144Y311361
X199144Y311361
T04
X128672Y74235
X357019Y74235
X357019Y263211
X128672Y263211
T05
X14105Y241557
X14105Y194313
X155837Y241557
X155837Y194313
X242452Y194313
X242452Y241557
X384184Y241557
X384184Y194313
X384184Y52581
X242452Y52581
X155837Y52581
X14105Y52581
X14105Y383290
X155837Y383290
X242452Y383290
X384184Y383290
M30
