G75*
%MOIN*%
%OFA0B0*%
%FSLAX25Y25*%
%IPPOS*%
%LPD*%
%AMOC8*
5,1,8,0,0,1.08239X$1,22.5*
%
%ADD10C,0.00400*%
%ADD11C,0.03937*%
%ADD12C,0.00500*%
D10*
X0010451Y0023291D02*
X0010451Y0026360D01*
X0011985Y0027894D02*
X0012753Y0027894D01*
X0011985Y0027894D02*
X0008916Y0030964D01*
X0008149Y0030964D01*
X0008149Y0027894D01*
X0008149Y0025593D02*
X0010451Y0023291D01*
X0012753Y0025593D02*
X0008149Y0025593D01*
X0009683Y0032498D02*
X0011985Y0032498D01*
X0012753Y0033266D01*
X0012753Y0035568D01*
X0009683Y0035568D01*
X0010451Y0037102D02*
X0010451Y0038637D01*
X0012753Y0037102D02*
X0008149Y0037102D01*
X0008149Y0040172D01*
X0023897Y0041706D02*
X0023897Y0044776D01*
X0026199Y0043241D02*
X0026199Y0041706D01*
X0026199Y0040172D02*
X0028501Y0040172D01*
X0028501Y0041706D02*
X0023897Y0041706D01*
X0025432Y0039404D02*
X0026199Y0040172D01*
X0025432Y0039404D02*
X0025432Y0037102D01*
X0028501Y0037102D01*
X0027733Y0035568D02*
X0028501Y0034800D01*
X0028501Y0033266D01*
X0027733Y0032498D01*
X0024664Y0035568D01*
X0027733Y0035568D01*
X0024664Y0035568D02*
X0023897Y0034800D01*
X0023897Y0033266D01*
X0024664Y0032498D01*
X0027733Y0032498D01*
X0027733Y0030964D02*
X0028501Y0030196D01*
X0028501Y0028662D01*
X0027733Y0027894D01*
X0024664Y0030964D01*
X0027733Y0030964D01*
X0024664Y0030964D02*
X0023897Y0030196D01*
X0023897Y0028662D01*
X0024664Y0027894D01*
X0027733Y0027894D01*
X0028501Y0026360D02*
X0028501Y0023291D01*
X0028501Y0024825D02*
X0023897Y0024825D01*
X0025432Y0023291D01*
D11*
X0026591Y0048244D02*
X0014780Y0048244D01*
X0014780Y0126984D01*
X0026591Y0126984D01*
X0144701Y0032496D02*
X0144701Y0028559D01*
X0148638Y0028559D01*
X0143070Y0028559D02*
X0143072Y0028708D01*
X0143078Y0028857D01*
X0143088Y0029005D01*
X0143102Y0029153D01*
X0143120Y0029301D01*
X0143141Y0029448D01*
X0143167Y0029595D01*
X0143197Y0029741D01*
X0143230Y0029886D01*
X0143268Y0030030D01*
X0143309Y0030173D01*
X0143354Y0030315D01*
X0143403Y0030456D01*
X0143456Y0030595D01*
X0143512Y0030733D01*
X0143572Y0030869D01*
X0143635Y0031004D01*
X0143702Y0031136D01*
X0143773Y0031267D01*
X0143847Y0031397D01*
X0143925Y0031524D01*
X0144006Y0031649D01*
X0144090Y0031771D01*
X0144178Y0031892D01*
X0144268Y0032010D01*
X0144362Y0032125D01*
X0144459Y0032238D01*
X0144559Y0032349D01*
X0144662Y0032456D01*
X0144767Y0032561D01*
X0144876Y0032663D01*
X0144987Y0032763D01*
X0145100Y0032859D01*
X0145217Y0032952D01*
X0145335Y0033042D01*
X0145456Y0033128D01*
X0145579Y0033212D01*
X0145705Y0033292D01*
X0145833Y0033369D01*
X0145962Y0033442D01*
X0146094Y0033512D01*
X0146227Y0033578D01*
X0146362Y0033641D01*
X0146499Y0033700D01*
X0146637Y0033755D01*
X0146776Y0033807D01*
X0146917Y0033854D01*
X0147060Y0033899D01*
X0147203Y0033939D01*
X0147347Y0033975D01*
X0147492Y0034008D01*
X0147639Y0034037D01*
X0147785Y0034061D01*
X0147933Y0034082D01*
X0148081Y0034099D01*
X0148229Y0034112D01*
X0148378Y0034121D01*
X0148526Y0034126D01*
X0148675Y0034127D01*
X0148824Y0034124D01*
X0148973Y0034117D01*
X0149121Y0034106D01*
X0149269Y0034091D01*
X0149417Y0034072D01*
X0149564Y0034049D01*
X0149711Y0034023D01*
X0149856Y0033992D01*
X0150001Y0033958D01*
X0150145Y0033919D01*
X0150288Y0033877D01*
X0150429Y0033831D01*
X0150570Y0033781D01*
X0150708Y0033728D01*
X0150846Y0033671D01*
X0150982Y0033610D01*
X0151116Y0033545D01*
X0151248Y0033477D01*
X0151379Y0033406D01*
X0151508Y0033331D01*
X0151634Y0033252D01*
X0151758Y0033170D01*
X0151881Y0033085D01*
X0152000Y0032997D01*
X0152118Y0032906D01*
X0152233Y0032811D01*
X0152345Y0032713D01*
X0152455Y0032613D01*
X0152562Y0032509D01*
X0152666Y0032403D01*
X0152768Y0032294D01*
X0152866Y0032182D01*
X0152961Y0032068D01*
X0153054Y0031951D01*
X0153143Y0031832D01*
X0153228Y0031710D01*
X0153311Y0031586D01*
X0153390Y0031460D01*
X0153466Y0031332D01*
X0153539Y0031202D01*
X0153608Y0031070D01*
X0153673Y0030936D01*
X0153735Y0030801D01*
X0153793Y0030664D01*
X0153847Y0030525D01*
X0153898Y0030385D01*
X0153945Y0030244D01*
X0153988Y0030102D01*
X0154027Y0029958D01*
X0154063Y0029814D01*
X0154094Y0029668D01*
X0154122Y0029522D01*
X0154146Y0029375D01*
X0154166Y0029227D01*
X0154182Y0029079D01*
X0154194Y0028931D01*
X0154202Y0028782D01*
X0154206Y0028633D01*
X0154206Y0028485D01*
X0154202Y0028336D01*
X0154194Y0028187D01*
X0154182Y0028039D01*
X0154166Y0027891D01*
X0154146Y0027743D01*
X0154122Y0027596D01*
X0154094Y0027450D01*
X0154063Y0027304D01*
X0154027Y0027160D01*
X0153988Y0027016D01*
X0153945Y0026874D01*
X0153898Y0026733D01*
X0153847Y0026593D01*
X0153793Y0026454D01*
X0153735Y0026317D01*
X0153673Y0026182D01*
X0153608Y0026048D01*
X0153539Y0025916D01*
X0153466Y0025786D01*
X0153390Y0025658D01*
X0153311Y0025532D01*
X0153228Y0025408D01*
X0153143Y0025286D01*
X0153054Y0025167D01*
X0152961Y0025050D01*
X0152866Y0024936D01*
X0152768Y0024824D01*
X0152666Y0024715D01*
X0152562Y0024609D01*
X0152455Y0024505D01*
X0152345Y0024405D01*
X0152233Y0024307D01*
X0152118Y0024212D01*
X0152000Y0024121D01*
X0151881Y0024033D01*
X0151758Y0023948D01*
X0151634Y0023866D01*
X0151508Y0023787D01*
X0151379Y0023712D01*
X0151248Y0023641D01*
X0151116Y0023573D01*
X0150982Y0023508D01*
X0150846Y0023447D01*
X0150708Y0023390D01*
X0150570Y0023337D01*
X0150429Y0023287D01*
X0150288Y0023241D01*
X0150145Y0023199D01*
X0150001Y0023160D01*
X0149856Y0023126D01*
X0149711Y0023095D01*
X0149564Y0023069D01*
X0149417Y0023046D01*
X0149269Y0023027D01*
X0149121Y0023012D01*
X0148973Y0023001D01*
X0148824Y0022994D01*
X0148675Y0022991D01*
X0148526Y0022992D01*
X0148378Y0022997D01*
X0148229Y0023006D01*
X0148081Y0023019D01*
X0147933Y0023036D01*
X0147785Y0023057D01*
X0147639Y0023081D01*
X0147492Y0023110D01*
X0147347Y0023143D01*
X0147203Y0023179D01*
X0147060Y0023219D01*
X0146917Y0023264D01*
X0146776Y0023311D01*
X0146637Y0023363D01*
X0146499Y0023418D01*
X0146362Y0023477D01*
X0146227Y0023540D01*
X0146094Y0023606D01*
X0145962Y0023676D01*
X0145833Y0023749D01*
X0145705Y0023826D01*
X0145579Y0023906D01*
X0145456Y0023990D01*
X0145335Y0024076D01*
X0145217Y0024166D01*
X0145100Y0024259D01*
X0144987Y0024355D01*
X0144876Y0024455D01*
X0144767Y0024557D01*
X0144662Y0024662D01*
X0144559Y0024769D01*
X0144459Y0024880D01*
X0144362Y0024993D01*
X0144268Y0025108D01*
X0144178Y0025226D01*
X0144090Y0025347D01*
X0144006Y0025469D01*
X0143925Y0025594D01*
X0143847Y0025721D01*
X0143773Y0025851D01*
X0143702Y0025982D01*
X0143635Y0026114D01*
X0143572Y0026249D01*
X0143512Y0026385D01*
X0143456Y0026523D01*
X0143403Y0026662D01*
X0143354Y0026803D01*
X0143309Y0026945D01*
X0143268Y0027088D01*
X0143230Y0027232D01*
X0143197Y0027377D01*
X0143167Y0027523D01*
X0143141Y0027670D01*
X0143120Y0027817D01*
X0143102Y0027965D01*
X0143088Y0028113D01*
X0143078Y0028261D01*
X0143072Y0028410D01*
X0143070Y0028559D01*
X0144701Y0024622D02*
X0148638Y0024622D01*
X0148638Y0028559D01*
X0148638Y0032496D01*
X0152575Y0032496D02*
X0144701Y0032496D01*
X0148638Y0028559D02*
X0152575Y0028559D01*
X0152575Y0032496D01*
X0152575Y0028559D02*
X0152575Y0024622D01*
X0148638Y0024622D01*
X0152575Y0048244D02*
X0164386Y0048244D01*
X0164386Y0126984D01*
X0152575Y0126984D01*
D12*
X0140882Y0016984D02*
X0040882Y0016984D01*
X0040882Y0006984D01*
X0140882Y0006984D01*
X0140882Y0016984D01*
M02*
