G75*
%MOIN*%
%OFA0B0*%
%FSLAX25Y25*%
%IPPOS*%
%LPD*%
%AMOC8*
5,1,8,0,0,1.08239X$1,22.5*
%
%ADD10R,0.06706X0.05918*%
%ADD11C,0.07800*%
%ADD12R,0.07887X0.12611*%
%ADD13OC8,0.07800*%
%ADD14R,0.04762X0.04762*%
D10*
X0018717Y0027181D03*
X0018717Y0033874D03*
X0034465Y0033874D03*
X0034465Y0027181D03*
D11*
X0161472Y0030016D03*
D12*
X0144701Y0048244D03*
X0128953Y0048244D03*
X0113205Y0048244D03*
X0097457Y0048244D03*
X0081709Y0048244D03*
X0065961Y0048244D03*
X0050213Y0048244D03*
X0034465Y0048244D03*
X0034465Y0126984D03*
X0050213Y0126984D03*
X0065961Y0126984D03*
X0081709Y0126984D03*
X0097457Y0126984D03*
X0113205Y0126984D03*
X0128953Y0126984D03*
X0144701Y0126984D03*
D13*
X0135882Y0011984D03*
X0125882Y0011984D03*
X0115882Y0011984D03*
X0105882Y0011984D03*
X0095882Y0011984D03*
X0085882Y0011984D03*
X0075882Y0011984D03*
X0065882Y0011984D03*
X0055882Y0011984D03*
X0045882Y0011984D03*
D14*
X0050213Y0026591D03*
X0056118Y0032496D03*
X0075803Y0030528D03*
X0075803Y0038402D03*
X0088598Y0024622D03*
X0099425Y0024622D03*
X0109268Y0023638D03*
X0120094Y0023638D03*
X0144701Y0034465D03*
X0081709Y0112220D03*
X0065961Y0112220D03*
X0050213Y0112220D03*
X0034465Y0112220D03*
M02*
