%
M48
M72
T01C0.02362
T02C0.04000
%
T01
X50213Y26591
X56118Y32496
X75803Y30528
X75803Y38402
X88598Y24622
X99425Y24622
X109268Y23638
X120094Y23638
X144701Y34465
X81709Y112220
X65961Y112220
X50213Y112220
X34465Y112220
T02
X45882Y11984
X55882Y11984
X65882Y11984
X75882Y11984
X85882Y11984
X95882Y11984
X105882Y11984
X115882Y11984
X125882Y11984
X135882Y11984
X161472Y30016
M30
