G75*
%MOIN*%
%OFA0B0*%
%FSLAX25Y25*%
%IPPOS*%
%LPD*%
%AMOC8*
5,1,8,0,0,1.08239X$1,22.5*
%
%ADD10C,0.00394*%
%ADD11C,0.06000*%
%ADD12C,0.07000*%
%ADD13C,0.01000*%
%ADD14R,0.03562X0.03562*%
D10*
X0001197Y0002977D02*
X0198047Y0002977D01*
X0198047Y0199827D01*
X0001197Y0199827D01*
X0001197Y0002977D01*
D11*
X0131866Y0014867D03*
X0141866Y0014867D03*
X0151866Y0014867D03*
D12*
X0106748Y0058095D03*
X0096748Y0058095D03*
X0086748Y0058095D03*
X0076748Y0058095D03*
X0063441Y0058095D03*
X0053441Y0058095D03*
X0043441Y0058095D03*
X0033441Y0058095D03*
X0033441Y0026599D03*
X0043441Y0026599D03*
X0053441Y0026599D03*
X0063441Y0026599D03*
D13*
X0074031Y0040378D02*
X0076000Y0042347D01*
X0074031Y0040378D02*
X0038598Y0040378D01*
X0033441Y0035221D01*
X0033441Y0026599D01*
X0060252Y0052189D02*
X0090843Y0052189D01*
X0096748Y0058095D01*
X0085843Y0069906D02*
X0101591Y0085654D01*
X0085843Y0069906D02*
X0038598Y0069906D01*
X0053441Y0058095D02*
X0054346Y0058095D01*
X0060252Y0052189D01*
X0068126Y0077780D02*
X0022850Y0077780D01*
X0042535Y0121087D02*
X0032693Y0130930D01*
X0050409Y0168331D02*
X0058283Y0176205D01*
X0123244Y0144709D02*
X0123244Y0046284D01*
X0119307Y0042347D01*
X0123244Y0144709D02*
X0138992Y0160457D01*
X0138992Y0189985D01*
D14*
X0138992Y0189985D03*
X0058283Y0176205D03*
X0050409Y0168331D03*
X0032693Y0130930D03*
X0042535Y0121087D03*
X0022850Y0077780D03*
X0038598Y0069906D03*
X0068126Y0077780D03*
X0101591Y0085654D03*
X0119307Y0042347D03*
X0076000Y0042347D03*
M02*
