%
M48
M72
T01C0.02362
T02C0.04000
%
T01
X38598Y69906
X22850Y77780
X42535Y121087
X32693Y130930
X50409Y168331
X58283Y176205
X138992Y189985
X101591Y85654
X68126Y77780
X76000Y42347
X119307Y42347
T02
X33441Y26599
X43441Y26599
X53441Y26599
X63441Y26599
X63441Y58095
X53441Y58095
X43441Y58095
X33441Y58095
X76748Y58095
X86748Y58095
X96748Y58095
X106748Y58095
X131866Y14867
X141866Y14867
X151866Y14867
M30
