G75*
%MOIN*%
%OFA0B0*%
%FSLAX25Y25*%
%IPPOS*%
%LPD*%
%AMOC8*
5,1,8,0,0,1.08239X$1,22.5*
%
%ADD10C,0.00394*%
%ADD11C,0.00600*%
%ADD12C,0.00400*%
%ADD13C,0.00500*%
%ADD14C,0.00300*%
%ADD15R,0.00591X0.01181*%
%ADD16R,0.01181X0.01181*%
%ADD17R,0.05512X0.02559*%
D10*
X0001197Y0002977D02*
X0198047Y0002977D01*
X0198047Y0199827D01*
X0001197Y0199827D01*
X0001197Y0002977D01*
D11*
X0032993Y0036007D02*
X0037263Y0036007D01*
X0035128Y0038142D02*
X0035128Y0033872D01*
X0035128Y0047652D02*
X0035128Y0051922D01*
X0032993Y0049787D02*
X0037263Y0049787D01*
X0050709Y0049787D02*
X0054980Y0049787D01*
X0054980Y0036007D02*
X0050709Y0036007D01*
X0072363Y0031336D02*
X0072363Y0024930D01*
X0075566Y0024930D01*
X0076633Y0025998D01*
X0076633Y0027066D01*
X0075566Y0028133D01*
X0072363Y0028133D01*
X0075566Y0028133D02*
X0076633Y0029201D01*
X0076633Y0030268D01*
X0075566Y0031336D01*
X0072363Y0031336D01*
X0078808Y0025998D02*
X0079876Y0027066D01*
X0083079Y0027066D01*
X0083079Y0028133D02*
X0083079Y0024930D01*
X0079876Y0024930D01*
X0078808Y0025998D01*
X0079876Y0029201D02*
X0082011Y0029201D01*
X0083079Y0028133D01*
X0085254Y0029201D02*
X0087389Y0029201D01*
X0086322Y0030268D02*
X0086322Y0025998D01*
X0087389Y0024930D01*
X0090619Y0025998D02*
X0091686Y0024930D01*
X0090619Y0025998D02*
X0090619Y0030268D01*
X0091686Y0029201D02*
X0089551Y0029201D01*
X0093848Y0028133D02*
X0093848Y0025998D01*
X0094916Y0024930D01*
X0097051Y0024930D01*
X0098118Y0027066D02*
X0093848Y0027066D01*
X0093848Y0028133D02*
X0094916Y0029201D01*
X0097051Y0029201D01*
X0098118Y0028133D01*
X0098118Y0027066D01*
X0100293Y0027066D02*
X0102429Y0029201D01*
X0103496Y0029201D01*
X0100293Y0029201D02*
X0100293Y0024930D01*
X0105665Y0025998D02*
X0106732Y0024930D01*
X0109935Y0024930D01*
X0109935Y0023863D02*
X0108867Y0022795D01*
X0107800Y0022795D01*
X0109935Y0023863D02*
X0109935Y0029201D01*
X0105665Y0029201D02*
X0105665Y0025998D01*
X0119607Y0018291D02*
X0123877Y0018291D01*
X0126866Y0017367D02*
X0129366Y0019867D01*
X0134366Y0019867D01*
X0136866Y0017367D01*
X0139366Y0019867D01*
X0144366Y0019867D01*
X0146866Y0017367D01*
X0149366Y0019867D01*
X0154366Y0019867D01*
X0156866Y0017367D01*
X0156866Y0012367D01*
X0154366Y0009867D01*
X0149366Y0009867D01*
X0146866Y0012367D01*
X0144366Y0009867D01*
X0139366Y0009867D01*
X0136866Y0012367D01*
X0134366Y0009867D01*
X0129366Y0009867D01*
X0126866Y0012367D01*
X0126866Y0017367D01*
X0136866Y0017367D02*
X0136866Y0012367D01*
X0146866Y0012367D02*
X0146866Y0017367D01*
X0158977Y0016322D02*
X0163247Y0016322D01*
X0161112Y0018457D02*
X0161112Y0014187D01*
X0098287Y0049787D02*
X0094017Y0049787D01*
X0078602Y0049787D02*
X0074331Y0049787D01*
X0076467Y0051922D02*
X0076467Y0047652D01*
D12*
X0071020Y0082402D02*
X0066417Y0082402D01*
X0066417Y0084704D01*
X0067184Y0085471D01*
X0068719Y0085471D01*
X0069486Y0084704D01*
X0069486Y0082402D01*
X0069486Y0083937D02*
X0071020Y0085471D01*
X0071020Y0087006D02*
X0067951Y0090075D01*
X0067184Y0090075D01*
X0066417Y0089308D01*
X0066417Y0087773D01*
X0067184Y0087006D01*
X0071020Y0087006D02*
X0071020Y0090075D01*
X0082165Y0088541D02*
X0086769Y0088541D01*
X0086769Y0090075D02*
X0086769Y0087006D01*
X0086769Y0085471D02*
X0085234Y0083937D01*
X0085234Y0084704D02*
X0085234Y0082402D01*
X0086769Y0082402D02*
X0082165Y0082402D01*
X0082165Y0084704D01*
X0082932Y0085471D01*
X0084467Y0085471D01*
X0085234Y0084704D01*
X0083699Y0087006D02*
X0082165Y0088541D01*
X0072769Y0106878D02*
X0068165Y0106878D01*
X0072769Y0106878D02*
X0072769Y0109947D01*
X0072769Y0111482D02*
X0072769Y0114551D01*
X0072769Y0116086D02*
X0072769Y0118387D01*
X0072001Y0119155D01*
X0068932Y0119155D01*
X0068165Y0118387D01*
X0068165Y0116086D01*
X0072769Y0116086D01*
X0070467Y0113016D02*
X0070467Y0111482D01*
X0068165Y0111482D02*
X0072769Y0111482D01*
X0068165Y0111482D02*
X0068165Y0114551D01*
X0068932Y0120689D02*
X0068165Y0121457D01*
X0068165Y0122991D01*
X0068932Y0123759D01*
X0069699Y0123759D01*
X0072769Y0120689D01*
X0072769Y0123759D01*
X0057020Y0123759D02*
X0057020Y0120689D01*
X0057020Y0122224D02*
X0052417Y0122224D01*
X0053951Y0120689D01*
X0053184Y0119155D02*
X0052417Y0118387D01*
X0052417Y0116086D01*
X0057020Y0116086D01*
X0057020Y0118387D01*
X0056253Y0119155D01*
X0053184Y0119155D01*
X0052417Y0114551D02*
X0052417Y0111482D01*
X0057020Y0111482D01*
X0057020Y0114551D01*
X0054719Y0113016D02*
X0054719Y0111482D01*
X0057020Y0109947D02*
X0057020Y0106878D01*
X0052417Y0106878D01*
X0103464Y0146575D02*
X0103464Y0148877D01*
X0104231Y0149645D01*
X0105766Y0149645D01*
X0106533Y0148877D01*
X0106533Y0146575D01*
X0108068Y0146575D02*
X0103464Y0146575D01*
X0106533Y0148110D02*
X0108068Y0149645D01*
X0105766Y0151179D02*
X0105766Y0154249D01*
X0108068Y0153481D02*
X0103464Y0153481D01*
X0105766Y0151179D01*
X0105231Y0168260D02*
X0108300Y0168260D01*
X0109068Y0169028D01*
X0109068Y0170562D01*
X0108300Y0171330D01*
X0109068Y0172864D02*
X0109068Y0175934D01*
X0109068Y0174399D02*
X0104464Y0174399D01*
X0105998Y0172864D01*
X0105231Y0171330D02*
X0104464Y0170562D01*
X0104464Y0169028D01*
X0105231Y0168260D01*
X0047595Y0169330D02*
X0046061Y0167795D01*
X0046061Y0168562D02*
X0046061Y0166260D01*
X0047595Y0166260D02*
X0042991Y0166260D01*
X0042991Y0168562D01*
X0043759Y0169330D01*
X0045293Y0169330D01*
X0046061Y0168562D01*
X0046828Y0170864D02*
X0047595Y0171632D01*
X0047595Y0173166D01*
X0046828Y0173934D01*
X0046061Y0173934D01*
X0045293Y0173166D01*
X0045293Y0172399D01*
X0045293Y0173166D02*
X0044526Y0173934D01*
X0043759Y0173934D01*
X0042991Y0173166D01*
X0042991Y0171632D01*
X0043759Y0170864D01*
X0023359Y0169770D02*
X0023359Y0168236D01*
X0022592Y0167468D01*
X0019522Y0167468D01*
X0018755Y0168236D01*
X0018755Y0169770D01*
X0019522Y0170538D01*
X0019522Y0172072D02*
X0018755Y0172839D01*
X0018755Y0174374D01*
X0019522Y0175141D01*
X0020290Y0175141D01*
X0023359Y0172072D01*
X0023359Y0175141D01*
X0022592Y0170538D02*
X0023359Y0169770D01*
X0127076Y0028883D02*
X0129378Y0028883D01*
X0130145Y0028116D01*
X0130145Y0026581D01*
X0129378Y0025814D01*
X0127076Y0025814D01*
X0127076Y0024279D02*
X0127076Y0028883D01*
X0131680Y0027349D02*
X0131680Y0024279D01*
X0131680Y0026581D02*
X0134749Y0026581D01*
X0134749Y0027349D02*
X0134749Y0024279D01*
X0136283Y0024279D02*
X0138585Y0024279D01*
X0139353Y0025047D01*
X0139353Y0028116D01*
X0138585Y0028883D01*
X0136283Y0028883D01*
X0136283Y0024279D01*
X0134749Y0027349D02*
X0133214Y0028883D01*
X0131680Y0027349D01*
X0140887Y0027349D02*
X0142422Y0028883D01*
X0142422Y0024279D01*
X0140887Y0024279D02*
X0143957Y0024279D01*
X0175019Y0193334D02*
X0175019Y0197938D01*
X0177321Y0197938D01*
X0178088Y0197171D01*
X0178088Y0195636D01*
X0177321Y0194869D01*
X0175019Y0194869D01*
X0179623Y0195636D02*
X0182692Y0195636D01*
X0182692Y0196404D02*
X0182692Y0193334D01*
X0184227Y0193334D02*
X0186529Y0193334D01*
X0187296Y0194102D01*
X0187296Y0197171D01*
X0186529Y0197938D01*
X0184227Y0197938D01*
X0184227Y0193334D01*
X0182692Y0196404D02*
X0181157Y0197938D01*
X0179623Y0196404D01*
X0179623Y0193334D01*
X0188831Y0193334D02*
X0191900Y0196404D01*
X0191900Y0197171D01*
X0191133Y0197938D01*
X0189598Y0197938D01*
X0188831Y0197171D01*
X0188831Y0193334D02*
X0191900Y0193334D01*
D13*
X0078165Y0138095D02*
X0078165Y0129040D01*
X0065961Y0129040D01*
X0065961Y0138095D01*
X0078165Y0138095D01*
X0075722Y0139237D02*
X0075724Y0139270D01*
X0075730Y0139302D01*
X0075739Y0139334D01*
X0075753Y0139364D01*
X0075769Y0139392D01*
X0075789Y0139418D01*
X0075812Y0139442D01*
X0075838Y0139463D01*
X0075866Y0139480D01*
X0075896Y0139495D01*
X0075927Y0139505D01*
X0075959Y0139512D01*
X0075992Y0139515D01*
X0076025Y0139514D01*
X0076057Y0139509D01*
X0076089Y0139500D01*
X0076120Y0139488D01*
X0076148Y0139472D01*
X0076175Y0139453D01*
X0076199Y0139431D01*
X0076221Y0139406D01*
X0076239Y0139378D01*
X0076254Y0139349D01*
X0076266Y0139318D01*
X0076274Y0139286D01*
X0076278Y0139253D01*
X0076278Y0139221D01*
X0076274Y0139188D01*
X0076266Y0139156D01*
X0076254Y0139125D01*
X0076239Y0139096D01*
X0076221Y0139068D01*
X0076199Y0139043D01*
X0076175Y0139021D01*
X0076148Y0139002D01*
X0076120Y0138986D01*
X0076089Y0138974D01*
X0076057Y0138965D01*
X0076025Y0138960D01*
X0075992Y0138959D01*
X0075959Y0138962D01*
X0075927Y0138969D01*
X0075896Y0138979D01*
X0075866Y0138994D01*
X0075838Y0139011D01*
X0075812Y0139032D01*
X0075789Y0139056D01*
X0075769Y0139082D01*
X0075753Y0139110D01*
X0075739Y0139140D01*
X0075730Y0139172D01*
X0075724Y0139204D01*
X0075722Y0139237D01*
X0081698Y0070049D02*
X0081698Y0065545D01*
X0084701Y0065545D01*
X0086302Y0066296D02*
X0087053Y0065545D01*
X0088554Y0065545D01*
X0089305Y0066296D01*
X0089305Y0069298D01*
X0088554Y0070049D01*
X0087053Y0070049D01*
X0086302Y0069298D01*
X0086302Y0066296D01*
X0090906Y0065545D02*
X0090906Y0068548D01*
X0092407Y0070049D01*
X0093908Y0068548D01*
X0093908Y0065545D01*
X0095510Y0065545D02*
X0097762Y0065545D01*
X0098512Y0066296D01*
X0098512Y0069298D01*
X0097762Y0070049D01*
X0095510Y0070049D01*
X0095510Y0065545D01*
X0093908Y0067797D02*
X0090906Y0067797D01*
X0059809Y0067797D02*
X0059059Y0067046D01*
X0056807Y0067046D01*
X0058308Y0067046D02*
X0059809Y0065545D01*
X0059809Y0067797D02*
X0059809Y0069298D01*
X0059059Y0070049D01*
X0056807Y0070049D01*
X0056807Y0065545D01*
X0055205Y0065545D02*
X0055205Y0068548D01*
X0053704Y0070049D01*
X0052203Y0068548D01*
X0052203Y0065545D01*
X0050601Y0065545D02*
X0047599Y0065545D01*
X0047599Y0070049D01*
X0045997Y0069298D02*
X0045247Y0070049D01*
X0043746Y0070049D01*
X0042995Y0069298D01*
X0042995Y0066296D01*
X0043746Y0065545D01*
X0045247Y0065545D01*
X0045997Y0066296D01*
X0045997Y0069298D01*
X0041394Y0069298D02*
X0040643Y0070049D01*
X0039142Y0070049D01*
X0038391Y0069298D01*
X0038391Y0068548D01*
X0039142Y0067797D01*
X0040643Y0067797D01*
X0041394Y0067046D01*
X0041394Y0066296D01*
X0040643Y0065545D01*
X0039142Y0065545D01*
X0038391Y0066296D01*
X0052203Y0067797D02*
X0055205Y0067797D01*
X0145106Y0007420D02*
X0146607Y0007420D01*
X0145856Y0007420D02*
X0145856Y0003667D01*
X0145106Y0002917D01*
X0144355Y0002917D01*
X0143604Y0003667D01*
X0148208Y0002917D02*
X0148208Y0007420D01*
X0150460Y0007420D01*
X0151211Y0006670D01*
X0151211Y0005169D01*
X0150460Y0004418D01*
X0148208Y0004418D01*
X0152812Y0005919D02*
X0154313Y0007420D01*
X0154313Y0002917D01*
X0152812Y0002917D02*
X0155815Y0002917D01*
D14*
X0074353Y0102445D02*
X0074353Y0104914D01*
X0073119Y0103679D02*
X0075587Y0103679D01*
X0059839Y0103679D02*
X0057370Y0103679D01*
X0058605Y0102445D02*
X0058605Y0104914D01*
X0059106Y0129977D02*
X0059712Y0130584D01*
X0059712Y0133617D01*
X0060911Y0132404D02*
X0062124Y0133617D01*
X0062124Y0129977D01*
X0060911Y0129977D02*
X0063337Y0129977D01*
X0059106Y0129977D02*
X0057892Y0129977D01*
X0057286Y0130584D01*
X0057286Y0133617D01*
D15*
X0059858Y0112268D03*
X0064583Y0112268D03*
X0075606Y0112268D03*
X0080331Y0112268D03*
D16*
X0077969Y0112268D03*
X0062220Y0112268D03*
D17*
X0062226Y0091330D03*
X0062226Y0085530D03*
X0077974Y0085530D03*
X0077974Y0091330D03*
X0099274Y0149704D03*
X0099274Y0155504D03*
X0038801Y0169389D03*
X0038801Y0175189D03*
M02*
