G75*
%MOIN*%
%OFA0B0*%
%FSLAX25Y25*%
%IPPOS*%
%LPD*%
%AMOC8*
5,1,8,0,0,1.08239X$1,22.5*
%
%ADD10C,0.00394*%
%ADD11R,0.05906X0.05118*%
%ADD12R,0.04724X0.04724*%
%ADD13R,0.10000X0.05000*%
%ADD14R,0.05512X0.04331*%
%ADD15R,0.05000X0.02500*%
%ADD16R,0.01181X0.01378*%
%ADD17C,0.03307*%
D10*
X0001197Y0002977D02*
X0198047Y0002977D01*
X0198047Y0199827D01*
X0001197Y0199827D01*
X0001197Y0002977D01*
D11*
X0028559Y0168528D03*
X0028559Y0176008D03*
X0099268Y0176008D03*
X0099268Y0168528D03*
D12*
X0077969Y0115812D03*
X0077969Y0107544D03*
X0062220Y0107544D03*
X0062220Y0115812D03*
D13*
X0135843Y0032229D03*
X0184268Y0189985D03*
D14*
X0099268Y0156520D03*
X0099268Y0148646D03*
X0077969Y0092347D03*
X0077969Y0084473D03*
X0062220Y0084473D03*
X0062220Y0092347D03*
X0038795Y0168331D03*
X0038795Y0176205D03*
D15*
X0133576Y0038921D03*
X0185904Y0183057D03*
D16*
X0076000Y0137012D03*
X0074031Y0137012D03*
X0072063Y0137012D03*
X0070094Y0137012D03*
X0068126Y0137012D03*
X0068126Y0130123D03*
X0070094Y0130123D03*
X0072063Y0130123D03*
X0074031Y0130123D03*
X0076000Y0130123D03*
D17*
X0068992Y0133567D02*
X0068992Y0133567D01*
X0075134Y0133567D01*
X0075134Y0133567D01*
X0068992Y0133567D01*
M02*
