%
M48
M72
T01C0.01181
T02C0.02756
T03C0.04000
T04C0.04331
T05C0.07874
%
T01
X31822Y33203
X34184Y30841
X33593Y26116
X36940Y26116
X51104Y29266
X53475Y26116
X55837Y29266
X58200Y26116
X60562Y29266
X62924Y26116
X65286Y29266
X67648Y26116
X70011Y29266
X72373Y26116
X74735Y29266
X77097Y26116
X79459Y29266
X81822Y26116
X84184Y29266
X91270Y46589
X100719Y44226
X114893Y47770
X123160Y54856
X110168Y63124
X105388Y63236
X100719Y63124
X95995Y63124
X91270Y63124
X84184Y63124
X79459Y63124
X77097Y66274
X74735Y63124
X72373Y66274
X67648Y66274
X62924Y66274
X60562Y63124
X58200Y66274
X55837Y63124
X53475Y66274
X51113Y63124
X43436Y61746
X35759Y72573
X38908Y74344
X32609Y74344
X36152Y84581
X33790Y86943
X31231Y90289
X29459Y93045
X27294Y95407
X25326Y97967
X36349Y93045
X38515Y95407
X40483Y97967
X42452Y100526
X43042Y107809
X45207Y117455
X44814Y124541
X38908Y118045
X35759Y117455
X32609Y118045
X29459Y117455
X26310Y118045
X23160Y117455
X20011Y115093
X12333Y107219
X12924Y104069
X12137Y94620
X6428Y93242
X5050Y96785
X8593Y86943
X6034Y81431
X5050Y77691
X8593Y72376
X8593Y67652
X12137Y79856
X14499Y82022
X16861Y79856
X19223Y82022
X38121Y90289
X52491Y82022
X52491Y78675
X57412Y84974
X57412Y88321
X62607Y88321
X64499Y97376
X69617Y102297
X67058Y105841
X65483Y111549
X64499Y118636
X53869Y119030
X56822Y107219
X56034Y104069
X77491Y107612
X83003Y115289
X88121Y115289
X95798Y115289
X105050Y115289
X105050Y118833
X92648Y125526
X82019Y132219
X71585Y128478
X65877Y132612
X71979Y140683
X74538Y146392
X72963Y160368
X85562Y167652
X88318Y170407
X119420Y167455
X131822Y170014
X109578Y132612
X127688Y101707
X137333Y95998
X119617Y28281
X103081Y28872
X60562Y72573
X19223Y50722
X16861Y48557
X14499Y50722
X7019Y53085
X26507Y125722
X29263Y127691
X37137Y134581
X42845Y135959
X36349Y143439
X55247Y138911
X36743Y169423
X25719Y178872
X13515Y129856
T02
X41664Y52100
X41664Y53281
T03
X18030Y136911
X18030Y146911
X18030Y156911
X8030Y156911
X8030Y146911
X8030Y136911
T04
X129066Y53281
X129066Y52100
T05
X14499Y30447
X14499Y172179
X156231Y172179
X156231Y30447
M30
