G75*
%MOIN*%
%OFA0B0*%
%FSLAX25Y25*%
%IPPOS*%
%LPD*%
%AMOC8*
5,1,8,0,0,1.08239X$1,22.5*
%
%ADD10C,0.00000*%
%ADD11R,0.01378X0.09646*%
%ADD12R,0.05800X0.02000*%
%ADD13R,0.02000X0.05800*%
%ADD14C,0.06000*%
%ADD15OC8,0.06000*%
%ADD16R,0.05906X0.05118*%
%ADD17R,0.05512X0.04331*%
%ADD18R,0.05118X0.05906*%
%ADD19R,0.01142X0.02756*%
%ADD20R,0.02756X0.01142*%
%ADD21R,0.04600X0.06300*%
%ADD22R,0.01100X0.05500*%
%ADD23R,0.05118X0.06299*%
%ADD24R,0.06102X0.02362*%
%ADD25R,0.06693X0.05512*%
%ADD26R,0.05906X0.03150*%
%ADD27R,0.04528X0.05906*%
%ADD28R,0.04724X0.07087*%
%ADD29R,0.02362X0.05906*%
%ADD30R,0.02008X0.03898*%
%ADD31R,0.07480X0.05118*%
%ADD32R,0.07008X0.20000*%
%ADD33R,0.19685X0.19685*%
%ADD34C,0.02381*%
%ADD35C,0.01000*%
%ADD36C,0.00600*%
%ADD37C,0.01600*%
%ADD38C,0.19685*%
D10*
X0014499Y0018636D02*
X0156231Y0018636D01*
X0156516Y0018639D01*
X0156802Y0018650D01*
X0157087Y0018667D01*
X0157371Y0018691D01*
X0157655Y0018722D01*
X0157938Y0018760D01*
X0158219Y0018805D01*
X0158500Y0018856D01*
X0158780Y0018914D01*
X0159058Y0018979D01*
X0159334Y0019051D01*
X0159608Y0019129D01*
X0159881Y0019214D01*
X0160151Y0019306D01*
X0160419Y0019404D01*
X0160685Y0019508D01*
X0160948Y0019619D01*
X0161208Y0019736D01*
X0161466Y0019859D01*
X0161720Y0019989D01*
X0161971Y0020125D01*
X0162219Y0020266D01*
X0162463Y0020414D01*
X0162704Y0020567D01*
X0162940Y0020727D01*
X0163173Y0020892D01*
X0163402Y0021062D01*
X0163627Y0021238D01*
X0163847Y0021420D01*
X0164063Y0021606D01*
X0164274Y0021798D01*
X0164481Y0021995D01*
X0164683Y0022197D01*
X0164880Y0022404D01*
X0165072Y0022615D01*
X0165258Y0022831D01*
X0165440Y0023051D01*
X0165616Y0023276D01*
X0165786Y0023505D01*
X0165951Y0023738D01*
X0166111Y0023974D01*
X0166264Y0024215D01*
X0166412Y0024459D01*
X0166553Y0024707D01*
X0166689Y0024958D01*
X0166819Y0025212D01*
X0166942Y0025470D01*
X0167059Y0025730D01*
X0167170Y0025993D01*
X0167274Y0026259D01*
X0167372Y0026527D01*
X0167464Y0026797D01*
X0167549Y0027070D01*
X0167627Y0027344D01*
X0167699Y0027620D01*
X0167764Y0027898D01*
X0167822Y0028178D01*
X0167873Y0028459D01*
X0167918Y0028740D01*
X0167956Y0029023D01*
X0167987Y0029307D01*
X0168011Y0029591D01*
X0168028Y0029876D01*
X0168039Y0030162D01*
X0168042Y0030447D01*
X0168042Y0172179D01*
X0168039Y0172464D01*
X0168028Y0172750D01*
X0168011Y0173035D01*
X0167987Y0173319D01*
X0167956Y0173603D01*
X0167918Y0173886D01*
X0167873Y0174167D01*
X0167822Y0174448D01*
X0167764Y0174728D01*
X0167699Y0175006D01*
X0167627Y0175282D01*
X0167549Y0175556D01*
X0167464Y0175829D01*
X0167372Y0176099D01*
X0167274Y0176367D01*
X0167170Y0176633D01*
X0167059Y0176896D01*
X0166942Y0177156D01*
X0166819Y0177414D01*
X0166689Y0177668D01*
X0166553Y0177919D01*
X0166412Y0178167D01*
X0166264Y0178411D01*
X0166111Y0178652D01*
X0165951Y0178888D01*
X0165786Y0179121D01*
X0165616Y0179350D01*
X0165440Y0179575D01*
X0165258Y0179795D01*
X0165072Y0180011D01*
X0164880Y0180222D01*
X0164683Y0180429D01*
X0164481Y0180631D01*
X0164274Y0180828D01*
X0164063Y0181020D01*
X0163847Y0181206D01*
X0163627Y0181388D01*
X0163402Y0181564D01*
X0163173Y0181734D01*
X0162940Y0181899D01*
X0162704Y0182059D01*
X0162463Y0182212D01*
X0162219Y0182360D01*
X0161971Y0182501D01*
X0161720Y0182637D01*
X0161466Y0182767D01*
X0161208Y0182890D01*
X0160948Y0183007D01*
X0160685Y0183118D01*
X0160419Y0183222D01*
X0160151Y0183320D01*
X0159881Y0183412D01*
X0159608Y0183497D01*
X0159334Y0183575D01*
X0159058Y0183647D01*
X0158780Y0183712D01*
X0158500Y0183770D01*
X0158219Y0183821D01*
X0157938Y0183866D01*
X0157655Y0183904D01*
X0157371Y0183935D01*
X0157087Y0183959D01*
X0156802Y0183976D01*
X0156516Y0183987D01*
X0156231Y0183990D01*
X0014499Y0183990D01*
X0014214Y0183987D01*
X0013928Y0183976D01*
X0013643Y0183959D01*
X0013359Y0183935D01*
X0013075Y0183904D01*
X0012792Y0183866D01*
X0012511Y0183821D01*
X0012230Y0183770D01*
X0011950Y0183712D01*
X0011672Y0183647D01*
X0011396Y0183575D01*
X0011122Y0183497D01*
X0010849Y0183412D01*
X0010579Y0183320D01*
X0010311Y0183222D01*
X0010045Y0183118D01*
X0009782Y0183007D01*
X0009522Y0182890D01*
X0009264Y0182767D01*
X0009010Y0182637D01*
X0008759Y0182501D01*
X0008511Y0182360D01*
X0008267Y0182212D01*
X0008026Y0182059D01*
X0007790Y0181899D01*
X0007557Y0181734D01*
X0007328Y0181564D01*
X0007103Y0181388D01*
X0006883Y0181206D01*
X0006667Y0181020D01*
X0006456Y0180828D01*
X0006249Y0180631D01*
X0006047Y0180429D01*
X0005850Y0180222D01*
X0005658Y0180011D01*
X0005472Y0179795D01*
X0005290Y0179575D01*
X0005114Y0179350D01*
X0004944Y0179121D01*
X0004779Y0178888D01*
X0004619Y0178652D01*
X0004466Y0178411D01*
X0004318Y0178167D01*
X0004177Y0177919D01*
X0004041Y0177668D01*
X0003911Y0177414D01*
X0003788Y0177156D01*
X0003671Y0176896D01*
X0003560Y0176633D01*
X0003456Y0176367D01*
X0003358Y0176099D01*
X0003266Y0175829D01*
X0003181Y0175556D01*
X0003103Y0175282D01*
X0003031Y0175006D01*
X0002966Y0174728D01*
X0002908Y0174448D01*
X0002857Y0174167D01*
X0002812Y0173886D01*
X0002774Y0173603D01*
X0002743Y0173319D01*
X0002719Y0173035D01*
X0002702Y0172750D01*
X0002691Y0172464D01*
X0002688Y0172179D01*
X0002688Y0030447D01*
X0002691Y0030162D01*
X0002702Y0029876D01*
X0002719Y0029591D01*
X0002743Y0029307D01*
X0002774Y0029023D01*
X0002812Y0028740D01*
X0002857Y0028459D01*
X0002908Y0028178D01*
X0002966Y0027898D01*
X0003031Y0027620D01*
X0003103Y0027344D01*
X0003181Y0027070D01*
X0003266Y0026797D01*
X0003358Y0026527D01*
X0003456Y0026259D01*
X0003560Y0025993D01*
X0003671Y0025730D01*
X0003788Y0025470D01*
X0003911Y0025212D01*
X0004041Y0024958D01*
X0004177Y0024707D01*
X0004318Y0024459D01*
X0004466Y0024215D01*
X0004619Y0023974D01*
X0004779Y0023738D01*
X0004944Y0023505D01*
X0005114Y0023276D01*
X0005290Y0023051D01*
X0005472Y0022831D01*
X0005658Y0022615D01*
X0005850Y0022404D01*
X0006047Y0022197D01*
X0006249Y0021995D01*
X0006456Y0021798D01*
X0006667Y0021606D01*
X0006883Y0021420D01*
X0007103Y0021238D01*
X0007328Y0021062D01*
X0007557Y0020892D01*
X0007790Y0020727D01*
X0008026Y0020567D01*
X0008267Y0020414D01*
X0008511Y0020266D01*
X0008759Y0020125D01*
X0009010Y0019989D01*
X0009264Y0019859D01*
X0009522Y0019736D01*
X0009782Y0019619D01*
X0010045Y0019508D01*
X0010311Y0019404D01*
X0010579Y0019306D01*
X0010849Y0019214D01*
X0011122Y0019129D01*
X0011396Y0019051D01*
X0011672Y0018979D01*
X0011950Y0018914D01*
X0012230Y0018856D01*
X0012511Y0018805D01*
X0012792Y0018760D01*
X0013075Y0018722D01*
X0013359Y0018691D01*
X0013643Y0018667D01*
X0013928Y0018650D01*
X0014214Y0018639D01*
X0014499Y0018636D01*
X0040286Y0052100D02*
X0040288Y0052174D01*
X0040294Y0052248D01*
X0040304Y0052321D01*
X0040318Y0052394D01*
X0040335Y0052466D01*
X0040357Y0052536D01*
X0040382Y0052606D01*
X0040411Y0052674D01*
X0040444Y0052740D01*
X0040480Y0052805D01*
X0040520Y0052867D01*
X0040562Y0052928D01*
X0040608Y0052986D01*
X0040657Y0053041D01*
X0040709Y0053094D01*
X0040764Y0053144D01*
X0040821Y0053190D01*
X0040881Y0053234D01*
X0040943Y0053274D01*
X0041007Y0053311D01*
X0041073Y0053345D01*
X0041141Y0053375D01*
X0041210Y0053401D01*
X0041281Y0053424D01*
X0041352Y0053442D01*
X0041425Y0053457D01*
X0041498Y0053468D01*
X0041572Y0053475D01*
X0041646Y0053478D01*
X0041719Y0053477D01*
X0041793Y0053472D01*
X0041867Y0053463D01*
X0041940Y0053450D01*
X0042012Y0053433D01*
X0042083Y0053413D01*
X0042153Y0053388D01*
X0042221Y0053360D01*
X0042288Y0053329D01*
X0042353Y0053293D01*
X0042416Y0053255D01*
X0042477Y0053213D01*
X0042536Y0053167D01*
X0042592Y0053119D01*
X0042645Y0053068D01*
X0042695Y0053014D01*
X0042743Y0052957D01*
X0042787Y0052898D01*
X0042829Y0052836D01*
X0042867Y0052773D01*
X0042901Y0052707D01*
X0042932Y0052640D01*
X0042959Y0052571D01*
X0042982Y0052501D01*
X0043002Y0052430D01*
X0043018Y0052357D01*
X0043030Y0052284D01*
X0043038Y0052211D01*
X0043042Y0052137D01*
X0043042Y0052063D01*
X0043038Y0051989D01*
X0043030Y0051916D01*
X0043018Y0051843D01*
X0043002Y0051770D01*
X0042982Y0051699D01*
X0042959Y0051629D01*
X0042932Y0051560D01*
X0042901Y0051493D01*
X0042867Y0051427D01*
X0042829Y0051364D01*
X0042787Y0051302D01*
X0042743Y0051243D01*
X0042695Y0051186D01*
X0042645Y0051132D01*
X0042592Y0051081D01*
X0042536Y0051033D01*
X0042477Y0050987D01*
X0042416Y0050945D01*
X0042353Y0050907D01*
X0042288Y0050871D01*
X0042221Y0050840D01*
X0042153Y0050812D01*
X0042083Y0050787D01*
X0042012Y0050767D01*
X0041940Y0050750D01*
X0041867Y0050737D01*
X0041793Y0050728D01*
X0041719Y0050723D01*
X0041646Y0050722D01*
X0041572Y0050725D01*
X0041498Y0050732D01*
X0041425Y0050743D01*
X0041352Y0050758D01*
X0041281Y0050776D01*
X0041210Y0050799D01*
X0041141Y0050825D01*
X0041073Y0050855D01*
X0041007Y0050889D01*
X0040943Y0050926D01*
X0040881Y0050966D01*
X0040821Y0051010D01*
X0040764Y0051056D01*
X0040709Y0051106D01*
X0040657Y0051159D01*
X0040608Y0051214D01*
X0040562Y0051272D01*
X0040520Y0051333D01*
X0040480Y0051395D01*
X0040444Y0051460D01*
X0040411Y0051526D01*
X0040382Y0051594D01*
X0040357Y0051664D01*
X0040335Y0051734D01*
X0040318Y0051806D01*
X0040304Y0051879D01*
X0040294Y0051952D01*
X0040288Y0052026D01*
X0040286Y0052100D01*
X0040286Y0053281D02*
X0040288Y0053355D01*
X0040294Y0053429D01*
X0040304Y0053502D01*
X0040318Y0053575D01*
X0040335Y0053647D01*
X0040357Y0053717D01*
X0040382Y0053787D01*
X0040411Y0053855D01*
X0040444Y0053921D01*
X0040480Y0053986D01*
X0040520Y0054048D01*
X0040562Y0054109D01*
X0040608Y0054167D01*
X0040657Y0054222D01*
X0040709Y0054275D01*
X0040764Y0054325D01*
X0040821Y0054371D01*
X0040881Y0054415D01*
X0040943Y0054455D01*
X0041007Y0054492D01*
X0041073Y0054526D01*
X0041141Y0054556D01*
X0041210Y0054582D01*
X0041281Y0054605D01*
X0041352Y0054623D01*
X0041425Y0054638D01*
X0041498Y0054649D01*
X0041572Y0054656D01*
X0041646Y0054659D01*
X0041719Y0054658D01*
X0041793Y0054653D01*
X0041867Y0054644D01*
X0041940Y0054631D01*
X0042012Y0054614D01*
X0042083Y0054594D01*
X0042153Y0054569D01*
X0042221Y0054541D01*
X0042288Y0054510D01*
X0042353Y0054474D01*
X0042416Y0054436D01*
X0042477Y0054394D01*
X0042536Y0054348D01*
X0042592Y0054300D01*
X0042645Y0054249D01*
X0042695Y0054195D01*
X0042743Y0054138D01*
X0042787Y0054079D01*
X0042829Y0054017D01*
X0042867Y0053954D01*
X0042901Y0053888D01*
X0042932Y0053821D01*
X0042959Y0053752D01*
X0042982Y0053682D01*
X0043002Y0053611D01*
X0043018Y0053538D01*
X0043030Y0053465D01*
X0043038Y0053392D01*
X0043042Y0053318D01*
X0043042Y0053244D01*
X0043038Y0053170D01*
X0043030Y0053097D01*
X0043018Y0053024D01*
X0043002Y0052951D01*
X0042982Y0052880D01*
X0042959Y0052810D01*
X0042932Y0052741D01*
X0042901Y0052674D01*
X0042867Y0052608D01*
X0042829Y0052545D01*
X0042787Y0052483D01*
X0042743Y0052424D01*
X0042695Y0052367D01*
X0042645Y0052313D01*
X0042592Y0052262D01*
X0042536Y0052214D01*
X0042477Y0052168D01*
X0042416Y0052126D01*
X0042353Y0052088D01*
X0042288Y0052052D01*
X0042221Y0052021D01*
X0042153Y0051993D01*
X0042083Y0051968D01*
X0042012Y0051948D01*
X0041940Y0051931D01*
X0041867Y0051918D01*
X0041793Y0051909D01*
X0041719Y0051904D01*
X0041646Y0051903D01*
X0041572Y0051906D01*
X0041498Y0051913D01*
X0041425Y0051924D01*
X0041352Y0051939D01*
X0041281Y0051957D01*
X0041210Y0051980D01*
X0041141Y0052006D01*
X0041073Y0052036D01*
X0041007Y0052070D01*
X0040943Y0052107D01*
X0040881Y0052147D01*
X0040821Y0052191D01*
X0040764Y0052237D01*
X0040709Y0052287D01*
X0040657Y0052340D01*
X0040608Y0052395D01*
X0040562Y0052453D01*
X0040520Y0052514D01*
X0040480Y0052576D01*
X0040444Y0052641D01*
X0040411Y0052707D01*
X0040382Y0052775D01*
X0040357Y0052845D01*
X0040335Y0052915D01*
X0040318Y0052987D01*
X0040304Y0053060D01*
X0040294Y0053133D01*
X0040288Y0053207D01*
X0040286Y0053281D01*
X0126901Y0053281D02*
X0126903Y0053374D01*
X0126909Y0053466D01*
X0126919Y0053558D01*
X0126933Y0053649D01*
X0126950Y0053740D01*
X0126972Y0053830D01*
X0126997Y0053919D01*
X0127026Y0054007D01*
X0127059Y0054093D01*
X0127096Y0054178D01*
X0127136Y0054262D01*
X0127180Y0054343D01*
X0127227Y0054423D01*
X0127277Y0054501D01*
X0127331Y0054576D01*
X0127388Y0054649D01*
X0127448Y0054719D01*
X0127511Y0054787D01*
X0127577Y0054852D01*
X0127645Y0054914D01*
X0127716Y0054974D01*
X0127790Y0055030D01*
X0127866Y0055083D01*
X0127944Y0055132D01*
X0128024Y0055179D01*
X0128106Y0055221D01*
X0128190Y0055261D01*
X0128275Y0055296D01*
X0128362Y0055328D01*
X0128450Y0055357D01*
X0128539Y0055381D01*
X0128629Y0055402D01*
X0128720Y0055418D01*
X0128812Y0055431D01*
X0128904Y0055440D01*
X0128997Y0055445D01*
X0129089Y0055446D01*
X0129182Y0055443D01*
X0129274Y0055436D01*
X0129366Y0055425D01*
X0129457Y0055410D01*
X0129548Y0055392D01*
X0129638Y0055369D01*
X0129726Y0055343D01*
X0129814Y0055313D01*
X0129900Y0055279D01*
X0129984Y0055242D01*
X0130067Y0055200D01*
X0130148Y0055156D01*
X0130228Y0055108D01*
X0130305Y0055057D01*
X0130379Y0055002D01*
X0130452Y0054944D01*
X0130522Y0054884D01*
X0130589Y0054820D01*
X0130653Y0054754D01*
X0130715Y0054684D01*
X0130773Y0054613D01*
X0130828Y0054539D01*
X0130880Y0054462D01*
X0130929Y0054383D01*
X0130975Y0054303D01*
X0131017Y0054220D01*
X0131055Y0054136D01*
X0131090Y0054050D01*
X0131121Y0053963D01*
X0131148Y0053875D01*
X0131171Y0053785D01*
X0131191Y0053695D01*
X0131207Y0053604D01*
X0131219Y0053512D01*
X0131227Y0053420D01*
X0131231Y0053327D01*
X0131231Y0053235D01*
X0131227Y0053142D01*
X0131219Y0053050D01*
X0131207Y0052958D01*
X0131191Y0052867D01*
X0131171Y0052777D01*
X0131148Y0052687D01*
X0131121Y0052599D01*
X0131090Y0052512D01*
X0131055Y0052426D01*
X0131017Y0052342D01*
X0130975Y0052259D01*
X0130929Y0052179D01*
X0130880Y0052100D01*
X0130828Y0052023D01*
X0130773Y0051949D01*
X0130715Y0051878D01*
X0130653Y0051808D01*
X0130589Y0051742D01*
X0130522Y0051678D01*
X0130452Y0051618D01*
X0130379Y0051560D01*
X0130305Y0051505D01*
X0130228Y0051454D01*
X0130149Y0051406D01*
X0130067Y0051362D01*
X0129984Y0051320D01*
X0129900Y0051283D01*
X0129814Y0051249D01*
X0129726Y0051219D01*
X0129638Y0051193D01*
X0129548Y0051170D01*
X0129457Y0051152D01*
X0129366Y0051137D01*
X0129274Y0051126D01*
X0129182Y0051119D01*
X0129089Y0051116D01*
X0128997Y0051117D01*
X0128904Y0051122D01*
X0128812Y0051131D01*
X0128720Y0051144D01*
X0128629Y0051160D01*
X0128539Y0051181D01*
X0128450Y0051205D01*
X0128362Y0051234D01*
X0128275Y0051266D01*
X0128190Y0051301D01*
X0128106Y0051341D01*
X0128024Y0051383D01*
X0127944Y0051430D01*
X0127866Y0051479D01*
X0127790Y0051532D01*
X0127716Y0051588D01*
X0127645Y0051648D01*
X0127577Y0051710D01*
X0127511Y0051775D01*
X0127448Y0051843D01*
X0127388Y0051913D01*
X0127331Y0051986D01*
X0127277Y0052061D01*
X0127227Y0052139D01*
X0127180Y0052219D01*
X0127136Y0052300D01*
X0127096Y0052384D01*
X0127059Y0052469D01*
X0127026Y0052555D01*
X0126997Y0052643D01*
X0126972Y0052732D01*
X0126950Y0052822D01*
X0126933Y0052913D01*
X0126919Y0053004D01*
X0126909Y0053096D01*
X0126903Y0053188D01*
X0126901Y0053281D01*
X0126901Y0052100D02*
X0126903Y0052193D01*
X0126909Y0052285D01*
X0126919Y0052377D01*
X0126933Y0052468D01*
X0126950Y0052559D01*
X0126972Y0052649D01*
X0126997Y0052738D01*
X0127026Y0052826D01*
X0127059Y0052912D01*
X0127096Y0052997D01*
X0127136Y0053081D01*
X0127180Y0053162D01*
X0127227Y0053242D01*
X0127277Y0053320D01*
X0127331Y0053395D01*
X0127388Y0053468D01*
X0127448Y0053538D01*
X0127511Y0053606D01*
X0127577Y0053671D01*
X0127645Y0053733D01*
X0127716Y0053793D01*
X0127790Y0053849D01*
X0127866Y0053902D01*
X0127944Y0053951D01*
X0128024Y0053998D01*
X0128106Y0054040D01*
X0128190Y0054080D01*
X0128275Y0054115D01*
X0128362Y0054147D01*
X0128450Y0054176D01*
X0128539Y0054200D01*
X0128629Y0054221D01*
X0128720Y0054237D01*
X0128812Y0054250D01*
X0128904Y0054259D01*
X0128997Y0054264D01*
X0129089Y0054265D01*
X0129182Y0054262D01*
X0129274Y0054255D01*
X0129366Y0054244D01*
X0129457Y0054229D01*
X0129548Y0054211D01*
X0129638Y0054188D01*
X0129726Y0054162D01*
X0129814Y0054132D01*
X0129900Y0054098D01*
X0129984Y0054061D01*
X0130067Y0054019D01*
X0130148Y0053975D01*
X0130228Y0053927D01*
X0130305Y0053876D01*
X0130379Y0053821D01*
X0130452Y0053763D01*
X0130522Y0053703D01*
X0130589Y0053639D01*
X0130653Y0053573D01*
X0130715Y0053503D01*
X0130773Y0053432D01*
X0130828Y0053358D01*
X0130880Y0053281D01*
X0130929Y0053202D01*
X0130975Y0053122D01*
X0131017Y0053039D01*
X0131055Y0052955D01*
X0131090Y0052869D01*
X0131121Y0052782D01*
X0131148Y0052694D01*
X0131171Y0052604D01*
X0131191Y0052514D01*
X0131207Y0052423D01*
X0131219Y0052331D01*
X0131227Y0052239D01*
X0131231Y0052146D01*
X0131231Y0052054D01*
X0131227Y0051961D01*
X0131219Y0051869D01*
X0131207Y0051777D01*
X0131191Y0051686D01*
X0131171Y0051596D01*
X0131148Y0051506D01*
X0131121Y0051418D01*
X0131090Y0051331D01*
X0131055Y0051245D01*
X0131017Y0051161D01*
X0130975Y0051078D01*
X0130929Y0050998D01*
X0130880Y0050919D01*
X0130828Y0050842D01*
X0130773Y0050768D01*
X0130715Y0050697D01*
X0130653Y0050627D01*
X0130589Y0050561D01*
X0130522Y0050497D01*
X0130452Y0050437D01*
X0130379Y0050379D01*
X0130305Y0050324D01*
X0130228Y0050273D01*
X0130149Y0050225D01*
X0130067Y0050181D01*
X0129984Y0050139D01*
X0129900Y0050102D01*
X0129814Y0050068D01*
X0129726Y0050038D01*
X0129638Y0050012D01*
X0129548Y0049989D01*
X0129457Y0049971D01*
X0129366Y0049956D01*
X0129274Y0049945D01*
X0129182Y0049938D01*
X0129089Y0049935D01*
X0128997Y0049936D01*
X0128904Y0049941D01*
X0128812Y0049950D01*
X0128720Y0049963D01*
X0128629Y0049979D01*
X0128539Y0050000D01*
X0128450Y0050024D01*
X0128362Y0050053D01*
X0128275Y0050085D01*
X0128190Y0050120D01*
X0128106Y0050160D01*
X0128024Y0050202D01*
X0127944Y0050249D01*
X0127866Y0050298D01*
X0127790Y0050351D01*
X0127716Y0050407D01*
X0127645Y0050467D01*
X0127577Y0050529D01*
X0127511Y0050594D01*
X0127448Y0050662D01*
X0127388Y0050732D01*
X0127331Y0050805D01*
X0127277Y0050880D01*
X0127227Y0050958D01*
X0127180Y0051038D01*
X0127136Y0051119D01*
X0127096Y0051203D01*
X0127059Y0051288D01*
X0127026Y0051374D01*
X0126997Y0051462D01*
X0126972Y0051551D01*
X0126950Y0051641D01*
X0126933Y0051732D01*
X0126919Y0051823D01*
X0126909Y0051915D01*
X0126903Y0052007D01*
X0126901Y0052100D01*
D11*
X0119617Y0054955D03*
X0117255Y0054955D03*
X0114893Y0054955D03*
X0112530Y0054955D03*
X0110168Y0054955D03*
X0107806Y0054955D03*
X0105444Y0054955D03*
X0103081Y0054955D03*
X0100719Y0054955D03*
X0098357Y0054955D03*
X0095995Y0054955D03*
X0093633Y0054955D03*
X0091270Y0054955D03*
X0088908Y0054955D03*
X0086546Y0054955D03*
X0084184Y0054955D03*
X0081822Y0054955D03*
X0079459Y0054955D03*
X0077097Y0054955D03*
X0074735Y0054955D03*
X0072373Y0054955D03*
X0070011Y0054955D03*
X0067648Y0054955D03*
X0065286Y0054955D03*
X0062924Y0054955D03*
X0060562Y0054955D03*
X0058200Y0054955D03*
X0055837Y0054955D03*
X0053475Y0054955D03*
X0051113Y0054955D03*
X0051113Y0037435D03*
X0053475Y0037435D03*
X0055837Y0037435D03*
X0058200Y0037435D03*
X0060562Y0037435D03*
X0062924Y0037435D03*
X0065286Y0037435D03*
X0067648Y0037435D03*
X0070011Y0037435D03*
X0072373Y0037435D03*
X0074735Y0037435D03*
X0077097Y0037435D03*
X0079459Y0037435D03*
X0081822Y0037435D03*
X0084184Y0037435D03*
X0086546Y0037435D03*
X0088908Y0037435D03*
X0091270Y0037435D03*
X0093633Y0037435D03*
X0095995Y0037435D03*
X0098357Y0037435D03*
X0100719Y0037435D03*
X0103081Y0037435D03*
X0105444Y0037435D03*
X0107806Y0037435D03*
X0110168Y0037435D03*
X0112530Y0037435D03*
X0114893Y0037435D03*
X0117255Y0037435D03*
X0119617Y0037435D03*
D12*
X0050884Y0085195D03*
X0050884Y0088295D03*
X0050884Y0091495D03*
X0050884Y0094595D03*
X0050884Y0097795D03*
X0050884Y0100895D03*
X0050884Y0104095D03*
X0050884Y0107195D03*
X0017484Y0107195D03*
X0017484Y0104095D03*
X0017484Y0100895D03*
X0017484Y0097795D03*
X0017484Y0094595D03*
X0017484Y0091495D03*
X0017484Y0088295D03*
X0017484Y0085195D03*
D13*
X0023184Y0079495D03*
X0026284Y0079495D03*
X0029484Y0079495D03*
X0032584Y0079495D03*
X0035784Y0079495D03*
X0038884Y0079495D03*
X0042084Y0079495D03*
X0045184Y0079495D03*
X0045184Y0112895D03*
X0042084Y0112895D03*
X0038884Y0112895D03*
X0035784Y0112895D03*
X0032584Y0112895D03*
X0029484Y0112895D03*
X0026284Y0112895D03*
X0023184Y0112895D03*
D14*
X0018030Y0136911D03*
D15*
X0018030Y0146911D03*
X0018030Y0156911D03*
X0008030Y0156911D03*
X0008030Y0146911D03*
X0008030Y0136911D03*
D16*
X0044814Y0160052D03*
X0044814Y0167533D03*
X0074735Y0101904D03*
X0074735Y0095211D03*
X0138908Y0044785D03*
X0138908Y0037304D03*
X0007137Y0052888D03*
X0007137Y0060368D03*
D17*
X0082854Y0115416D03*
X0082854Y0123290D03*
D18*
X0089202Y0132294D03*
X0096682Y0132294D03*
X0036546Y0159974D03*
X0029066Y0159974D03*
X0029066Y0167951D03*
X0036546Y0167951D03*
X0125752Y0027494D03*
X0133232Y0027494D03*
D19*
X0039570Y0137978D03*
X0037602Y0137978D03*
X0035633Y0137978D03*
X0033665Y0137978D03*
X0031696Y0137978D03*
X0029728Y0137978D03*
X0029728Y0152742D03*
X0031696Y0152742D03*
X0033665Y0152742D03*
X0035633Y0152742D03*
X0037602Y0152742D03*
X0039570Y0152742D03*
D20*
X0042031Y0150281D03*
X0042031Y0148313D03*
X0042031Y0146344D03*
X0042031Y0144376D03*
X0042031Y0142407D03*
X0042031Y0140439D03*
X0027267Y0140439D03*
X0027267Y0142407D03*
X0027267Y0144376D03*
X0027267Y0146344D03*
X0027267Y0148313D03*
X0027267Y0150281D03*
D21*
X0044111Y0130176D03*
X0050111Y0130176D03*
X0056111Y0130176D03*
X0055307Y0138870D03*
X0049307Y0138870D03*
X0061307Y0138870D03*
D22*
X0067667Y0132659D03*
X0069567Y0132659D03*
X0071567Y0132659D03*
X0073567Y0132659D03*
X0075467Y0132659D03*
X0075467Y0115459D03*
X0073567Y0115459D03*
X0071567Y0115459D03*
X0069567Y0115459D03*
X0067667Y0115459D03*
D23*
X0072088Y0140704D03*
X0079568Y0140704D03*
X0089233Y0140645D03*
X0096714Y0140645D03*
D24*
X0064450Y0099885D03*
X0064450Y0091696D03*
D25*
X0155757Y0070312D03*
X0155757Y0118737D03*
D26*
X0144340Y0104761D03*
X0144340Y0100430D03*
X0144340Y0096100D03*
X0144340Y0091769D03*
X0144340Y0087438D03*
X0144340Y0083107D03*
X0144340Y0078777D03*
X0144340Y0074446D03*
D27*
X0098789Y0070509D03*
X0098789Y0104761D03*
D28*
X0085956Y0177494D03*
X0071782Y0177494D03*
D29*
X0076900Y0162337D03*
X0080837Y0162337D03*
D30*
X0119971Y0148911D03*
X0124971Y0148911D03*
X0129971Y0148911D03*
X0134971Y0148911D03*
X0134971Y0126313D03*
X0129971Y0126313D03*
X0124971Y0126313D03*
X0119971Y0126313D03*
D31*
X0143042Y0129856D03*
X0155641Y0129856D03*
X0155641Y0151510D03*
X0143042Y0151510D03*
D32*
X0133200Y0167455D03*
X0096192Y0167455D03*
D33*
X0114696Y0167455D03*
D34*
X0119420Y0167455D03*
X0131822Y0170014D03*
X0109578Y0132612D03*
X0105050Y0118833D03*
X0105050Y0115289D03*
X0095798Y0115289D03*
X0088121Y0115289D03*
X0083003Y0115289D03*
X0077491Y0107612D03*
X0069617Y0102297D03*
X0067058Y0105841D03*
X0065483Y0111549D03*
X0064499Y0118636D03*
X0053869Y0119030D03*
X0045207Y0117455D03*
X0044814Y0124541D03*
X0038908Y0118045D03*
X0035759Y0117455D03*
X0032609Y0118045D03*
X0029459Y0117455D03*
X0026310Y0118045D03*
X0023160Y0117455D03*
X0020011Y0115093D03*
X0012333Y0107219D03*
X0012924Y0104069D03*
X0012137Y0094620D03*
X0006428Y0093242D03*
X0005050Y0096785D03*
X0008593Y0086943D03*
X0006034Y0081431D03*
X0005050Y0077691D03*
X0008593Y0072376D03*
X0008593Y0067652D03*
X0012137Y0079856D03*
X0014499Y0082022D03*
X0016861Y0079856D03*
X0019223Y0082022D03*
X0029459Y0093045D03*
X0027294Y0095407D03*
X0025326Y0097967D03*
X0031231Y0090289D03*
X0033790Y0086943D03*
X0036152Y0084581D03*
X0038121Y0090289D03*
X0036349Y0093045D03*
X0038515Y0095407D03*
X0040483Y0097967D03*
X0042452Y0100526D03*
X0043042Y0107809D03*
X0056034Y0104069D03*
X0056822Y0107219D03*
X0064499Y0097376D03*
X0062607Y0088321D03*
X0057412Y0088321D03*
X0057412Y0084974D03*
X0052491Y0082022D03*
X0052491Y0078675D03*
X0060562Y0072573D03*
X0062924Y0066274D03*
X0060562Y0063124D03*
X0058200Y0066274D03*
X0055837Y0063124D03*
X0053475Y0066274D03*
X0051113Y0063124D03*
X0043436Y0061746D03*
X0035759Y0072573D03*
X0038908Y0074344D03*
X0032609Y0074344D03*
X0019223Y0050722D03*
X0016861Y0048557D03*
X0014499Y0050722D03*
X0007019Y0053085D03*
X0031822Y0033203D03*
X0034184Y0030841D03*
X0033593Y0026116D03*
X0036940Y0026116D03*
X0051104Y0029266D03*
X0053475Y0026116D03*
X0055837Y0029266D03*
X0058200Y0026116D03*
X0060562Y0029266D03*
X0062924Y0026116D03*
X0065286Y0029266D03*
X0067648Y0026116D03*
X0070011Y0029266D03*
X0072373Y0026116D03*
X0074735Y0029266D03*
X0077097Y0026116D03*
X0079459Y0029266D03*
X0081822Y0026116D03*
X0084184Y0029266D03*
X0091270Y0046589D03*
X0100719Y0044226D03*
X0114893Y0047770D03*
X0123160Y0054856D03*
X0110168Y0063124D03*
X0105388Y0063236D03*
X0100719Y0063124D03*
X0095995Y0063124D03*
X0091270Y0063124D03*
X0084184Y0063124D03*
X0079459Y0063124D03*
X0077097Y0066274D03*
X0074735Y0063124D03*
X0072373Y0066274D03*
X0067648Y0066274D03*
X0103081Y0028872D03*
X0119617Y0028281D03*
X0137333Y0095998D03*
X0127688Y0101707D03*
X0092648Y0125526D03*
X0082019Y0132219D03*
X0071585Y0128478D03*
X0065877Y0132612D03*
X0071979Y0140683D03*
X0074538Y0146392D03*
X0072963Y0160368D03*
X0085562Y0167652D03*
X0088318Y0170407D03*
X0055247Y0138911D03*
X0042845Y0135959D03*
X0037137Y0134581D03*
X0029263Y0127691D03*
X0026507Y0125722D03*
X0013515Y0129856D03*
X0036349Y0143439D03*
X0036743Y0169423D03*
X0025719Y0178872D03*
D35*
X0020404Y0182415D02*
X0152688Y0182415D01*
X0156231Y0178478D01*
X0156231Y0172179D01*
X0162137Y0172179D01*
X0166467Y0168242D01*
X0166467Y0033990D01*
X0162530Y0030447D01*
X0156231Y0030447D01*
X0138908Y0037304D02*
X0133232Y0027494D01*
X0119617Y0028281D02*
X0119617Y0037435D01*
X0117255Y0037435D01*
X0114893Y0037435D01*
X0112530Y0037435D01*
X0110168Y0037435D02*
X0107806Y0037435D01*
X0107806Y0043439D01*
X0110562Y0046195D01*
X0113318Y0046195D01*
X0114893Y0047770D01*
X0114893Y0054955D01*
X0112530Y0054955D01*
X0110168Y0054955D02*
X0110168Y0063124D01*
X0105444Y0063180D02*
X0105388Y0063236D01*
X0105444Y0063180D02*
X0105444Y0054955D01*
X0103081Y0054955D01*
X0103081Y0048951D01*
X0101507Y0047376D01*
X0097570Y0047376D01*
X0095995Y0048951D01*
X0095995Y0054955D01*
X0095995Y0063124D01*
X0100719Y0063124D02*
X0100719Y0054955D01*
X0098357Y0054955D01*
X0095995Y0054955D02*
X0093633Y0054955D01*
X0093633Y0048951D01*
X0091270Y0046589D01*
X0091270Y0054955D02*
X0088908Y0054955D01*
X0091270Y0054955D02*
X0091270Y0063124D01*
X0084184Y0063124D02*
X0084184Y0054955D01*
X0086546Y0054955D01*
X0081822Y0054955D02*
X0079459Y0054955D01*
X0079459Y0063124D01*
X0077097Y0066274D02*
X0077097Y0054955D01*
X0074735Y0054955D01*
X0074735Y0063124D01*
X0072373Y0066274D02*
X0072373Y0054955D01*
X0070011Y0054955D01*
X0067648Y0054955D02*
X0067648Y0066274D01*
X0067648Y0069423D01*
X0059971Y0077100D01*
X0059971Y0095604D01*
X0057781Y0097795D01*
X0050884Y0097795D01*
X0047544Y0097795D01*
X0046192Y0099148D01*
X0046192Y0103281D01*
X0044814Y0104659D01*
X0025522Y0104659D01*
X0021782Y0100919D01*
X0022570Y0100132D01*
X0022570Y0095604D01*
X0021585Y0094620D01*
X0017509Y0094620D01*
X0017484Y0094595D01*
X0017311Y0091667D02*
X0017484Y0091495D01*
X0017311Y0091667D02*
X0009774Y0091667D01*
X0008987Y0092455D01*
X0008987Y0096589D01*
X0004263Y0101313D01*
X0004263Y0133144D01*
X0008030Y0136911D01*
X0011934Y0133006D01*
X0014499Y0133006D01*
X0016074Y0131431D01*
X0016074Y0128478D01*
X0014696Y0127100D01*
X0009578Y0127100D01*
X0008003Y0125526D01*
X0008003Y0119030D01*
X0009971Y0117061D01*
X0015680Y0117061D01*
X0019223Y0120604D01*
X0025916Y0120604D01*
X0029263Y0123951D01*
X0029263Y0127691D01*
X0029263Y0132022D01*
X0031696Y0134456D01*
X0031696Y0137978D01*
X0027267Y0144376D02*
X0027220Y0144423D01*
X0024538Y0144423D01*
X0022570Y0146392D01*
X0022570Y0163321D01*
X0027200Y0167951D01*
X0029066Y0167951D01*
X0036546Y0167951D02*
X0044396Y0167951D01*
X0044814Y0167533D01*
X0048673Y0167533D01*
X0050522Y0165683D01*
X0050522Y0155644D01*
X0049538Y0154659D01*
X0046409Y0154659D01*
X0042031Y0150281D01*
X0042031Y0148313D01*
X0042031Y0146344D01*
X0042031Y0144376D01*
X0042031Y0142407D01*
X0039570Y0152742D02*
X0044892Y0158063D01*
X0044814Y0160052D01*
X0037602Y0158919D02*
X0037602Y0152742D01*
X0035633Y0152742D02*
X0035633Y0154588D01*
X0034578Y0155644D01*
X0030247Y0155644D01*
X0029066Y0156825D01*
X0029066Y0159974D01*
X0036546Y0159974D02*
X0037602Y0158919D01*
X0035562Y0152814D02*
X0035633Y0152742D01*
X0036546Y0167951D02*
X0036743Y0168148D01*
X0036743Y0169423D01*
X0020404Y0182415D02*
X0014499Y0176116D01*
X0044111Y0130176D02*
X0044111Y0125244D01*
X0044814Y0124541D01*
X0054459Y0124541D01*
X0061546Y0117455D01*
X0061546Y0107809D01*
X0063318Y0106037D01*
X0064450Y0104905D01*
X0064450Y0099885D01*
X0064450Y0091696D02*
X0064450Y0090163D01*
X0062607Y0088321D01*
X0057412Y0088321D02*
X0050910Y0088321D01*
X0050884Y0088295D01*
X0053475Y0066274D02*
X0053475Y0054955D01*
X0051113Y0054955D02*
X0051113Y0063124D01*
X0055837Y0063124D02*
X0055837Y0054955D01*
X0058200Y0054955D02*
X0058200Y0066274D01*
X0060562Y0063124D02*
X0060562Y0054955D01*
X0062924Y0054955D02*
X0062924Y0066274D01*
X0065286Y0054955D02*
X0067648Y0054955D01*
X0067648Y0037435D02*
X0067648Y0026116D01*
X0065286Y0029266D02*
X0065286Y0037435D01*
X0062924Y0037435D02*
X0062924Y0026116D01*
X0060562Y0029266D02*
X0060562Y0037435D01*
X0058200Y0037435D02*
X0058200Y0026116D01*
X0055837Y0029266D02*
X0055837Y0037435D01*
X0053475Y0037435D02*
X0053475Y0026116D01*
X0051104Y0029266D02*
X0051104Y0037435D01*
X0051113Y0037435D01*
X0070011Y0037435D02*
X0070011Y0029266D01*
X0072373Y0026116D02*
X0072373Y0037435D01*
X0074735Y0037435D02*
X0074735Y0029266D01*
X0077097Y0026116D02*
X0077097Y0037435D01*
X0079459Y0037435D02*
X0079459Y0029266D01*
X0081822Y0026116D02*
X0081822Y0037435D01*
X0084184Y0037435D02*
X0084184Y0029266D01*
X0084184Y0037435D02*
X0086546Y0037435D01*
X0088908Y0037435D01*
X0091270Y0037435D01*
X0093633Y0037435D02*
X0095995Y0037435D01*
X0098357Y0037435D01*
X0100719Y0037435D01*
X0100719Y0044226D01*
X0100719Y0037435D02*
X0100522Y0037238D01*
X0103081Y0037435D02*
X0103081Y0028872D01*
X0103081Y0037435D02*
X0105444Y0037435D01*
X0107806Y0037435D01*
X0107806Y0054955D02*
X0110168Y0054955D01*
X0117255Y0054955D02*
X0119617Y0054955D01*
X0119715Y0054856D01*
X0123160Y0054856D01*
X0021782Y0100919D02*
X0017508Y0100919D01*
X0017484Y0100895D01*
X0017484Y0097795D02*
X0017459Y0097770D01*
X0009774Y0097770D01*
X0008987Y0096982D01*
X0008987Y0096589D01*
D36*
X0008987Y0096982D02*
X0008889Y0097081D01*
X0012137Y0094620D02*
X0017509Y0094620D01*
X0017484Y0088295D02*
X0009807Y0088295D01*
X0008420Y0086490D01*
X0008141Y0086490D01*
X0008593Y0086943D01*
X0008420Y0086490D02*
X0008420Y0077100D01*
X0005444Y0074541D01*
X0005444Y0062061D01*
X0007137Y0060368D01*
X0012924Y0054659D02*
X0011349Y0053085D01*
X0012924Y0054659D02*
X0012924Y0079069D01*
X0012137Y0079856D01*
X0014499Y0082022D02*
X0014499Y0050722D01*
X0016861Y0048557D02*
X0016861Y0079856D01*
X0019223Y0082022D02*
X0019223Y0050722D01*
X0027491Y0041077D02*
X0027491Y0068045D01*
X0029656Y0070211D01*
X0038318Y0070211D01*
X0042058Y0073951D01*
X0042058Y0079469D01*
X0042084Y0079495D01*
X0042084Y0082193D01*
X0039696Y0084581D01*
X0036152Y0084581D01*
X0033790Y0086943D02*
X0041467Y0086943D01*
X0045184Y0083226D01*
X0045184Y0079495D01*
X0045184Y0074715D01*
X0039105Y0068636D01*
X0031231Y0068636D01*
X0029066Y0066470D01*
X0029066Y0041667D01*
X0038908Y0031825D01*
X0040089Y0031825D01*
X0045011Y0026904D01*
X0046389Y0026904D01*
X0046782Y0027297D01*
X0046782Y0030447D01*
X0047570Y0031234D01*
X0047570Y0036943D01*
X0049144Y0038518D01*
X0049144Y0042848D01*
X0049932Y0043636D01*
X0052688Y0043636D01*
X0053475Y0042848D01*
X0053475Y0037435D01*
X0051113Y0037435D02*
X0050621Y0037435D01*
X0049144Y0035959D01*
X0049144Y0030644D01*
X0048357Y0029856D01*
X0048357Y0026116D01*
X0047570Y0025329D01*
X0044420Y0025329D01*
X0039499Y0030250D01*
X0038318Y0030250D01*
X0027491Y0041077D01*
X0025916Y0039108D02*
X0031822Y0033203D01*
X0034184Y0030841D02*
X0028475Y0030841D01*
X0027491Y0032022D01*
X0027491Y0035368D01*
X0024341Y0038518D01*
X0024341Y0072967D01*
X0026310Y0074935D01*
X0026310Y0079469D01*
X0026284Y0079495D01*
X0023184Y0079495D02*
X0023184Y0074565D01*
X0022767Y0074148D01*
X0022767Y0037927D01*
X0025719Y0034974D01*
X0025719Y0030447D01*
X0027688Y0028478D01*
X0038908Y0028478D01*
X0043633Y0023754D01*
X0063908Y0023754D01*
X0065286Y0025132D01*
X0065286Y0037435D01*
X0067648Y0037435D02*
X0067648Y0025329D01*
X0064499Y0022179D01*
X0040877Y0022179D01*
X0036940Y0026116D01*
X0033593Y0026116D02*
X0039105Y0020604D01*
X0065877Y0020604D01*
X0070011Y0024738D01*
X0070011Y0037435D01*
X0079459Y0037435D02*
X0079459Y0043045D01*
X0078869Y0043636D01*
X0057609Y0043636D01*
X0054459Y0046785D01*
X0047373Y0046785D01*
X0045995Y0045407D01*
X0045995Y0040093D01*
X0044420Y0038518D01*
X0044420Y0036549D01*
X0042845Y0034974D01*
X0040089Y0034974D01*
X0032215Y0042848D01*
X0032215Y0063518D01*
X0034184Y0065486D01*
X0040680Y0065486D01*
X0049341Y0074148D01*
X0049341Y0078872D01*
X0052491Y0082022D01*
X0050884Y0085195D02*
X0047152Y0085195D01*
X0044223Y0088124D01*
X0044223Y0098754D01*
X0042452Y0100526D01*
X0040483Y0097967D02*
X0025326Y0097967D01*
X0027294Y0095407D02*
X0038515Y0095407D01*
X0036349Y0093045D02*
X0029459Y0093045D01*
X0031231Y0090289D02*
X0038121Y0090289D01*
X0047570Y0081881D02*
X0047570Y0074738D01*
X0039893Y0067061D01*
X0033003Y0067061D01*
X0030641Y0064699D01*
X0030641Y0042258D01*
X0039499Y0033400D01*
X0040877Y0033400D01*
X0043042Y0031234D01*
X0045404Y0031234D01*
X0045995Y0031825D01*
X0045995Y0037927D01*
X0047570Y0039502D01*
X0047570Y0044226D01*
X0048554Y0045211D01*
X0053869Y0045211D01*
X0055837Y0043242D01*
X0055837Y0037435D01*
X0058200Y0045211D02*
X0055050Y0048360D01*
X0046782Y0048360D01*
X0044420Y0045998D01*
X0044420Y0040683D01*
X0042648Y0038911D01*
X0038515Y0038911D01*
X0033790Y0043636D01*
X0033790Y0061943D01*
X0035365Y0063518D01*
X0041074Y0063518D01*
X0050916Y0073360D01*
X0050916Y0077100D01*
X0052491Y0078675D01*
X0052491Y0075329D02*
X0056231Y0079069D01*
X0056231Y0083793D01*
X0057412Y0084974D01*
X0050884Y0085195D02*
X0047570Y0081881D01*
X0052491Y0075329D02*
X0052491Y0072573D01*
X0044420Y0064502D01*
X0044420Y0062730D01*
X0043436Y0061746D01*
X0053475Y0066274D02*
X0053488Y0066286D01*
X0060562Y0063124D02*
X0060562Y0072573D01*
X0038908Y0074344D02*
X0038884Y0074369D01*
X0038884Y0079495D01*
X0035784Y0079495D02*
X0035784Y0072598D01*
X0035759Y0072573D01*
X0032609Y0074344D02*
X0032584Y0074370D01*
X0032584Y0079495D01*
X0029484Y0079495D02*
X0029484Y0074172D01*
X0025916Y0070604D01*
X0025916Y0039108D01*
X0007137Y0052888D02*
X0007815Y0053881D01*
X0007019Y0053085D01*
X0008593Y0067652D02*
X0009774Y0068833D01*
X0009837Y0071195D01*
X0008593Y0072376D01*
X0009837Y0071195D02*
X0009837Y0083793D01*
X0011152Y0085171D01*
X0017460Y0085171D01*
X0017484Y0085195D01*
X0006034Y0081431D02*
X0006034Y0092848D01*
X0006428Y0093242D01*
X0003672Y0095604D02*
X0005050Y0096785D01*
X0003672Y0095604D02*
X0003672Y0079069D01*
X0005050Y0077691D01*
X0012924Y0104069D02*
X0017458Y0104069D01*
X0017484Y0104095D01*
X0017484Y0107195D02*
X0017460Y0107219D01*
X0012333Y0107219D01*
X0007215Y0115093D02*
X0006231Y0116077D01*
X0006231Y0126707D01*
X0009381Y0129856D01*
X0013515Y0129856D01*
X0017845Y0128478D02*
X0017845Y0131234D01*
X0018436Y0131825D01*
X0019814Y0131825D01*
X0022176Y0134187D01*
X0022176Y0138911D01*
X0020011Y0141077D01*
X0009774Y0141077D01*
X0008030Y0142822D01*
X0008030Y0146911D01*
X0017845Y0128478D02*
X0020601Y0125722D01*
X0026507Y0125722D01*
X0026310Y0118045D02*
X0026310Y0112921D01*
X0026284Y0112895D01*
X0023184Y0112895D02*
X0023160Y0112895D01*
X0023160Y0117455D01*
X0020011Y0115093D02*
X0007215Y0115093D01*
X0029459Y0112919D02*
X0029484Y0112895D01*
X0029459Y0112919D02*
X0029459Y0117455D01*
X0032609Y0118045D02*
X0032609Y0112920D01*
X0032584Y0112895D01*
X0035759Y0112870D02*
X0035759Y0109581D01*
X0037530Y0107809D01*
X0043042Y0107809D01*
X0045184Y0112895D02*
X0045207Y0112919D01*
X0045207Y0117455D01*
X0043436Y0121982D02*
X0052885Y0121982D01*
X0053869Y0120998D01*
X0053869Y0119030D01*
X0064499Y0118636D02*
X0067667Y0115468D01*
X0067667Y0115459D01*
X0069567Y0115459D02*
X0069567Y0111893D01*
X0069223Y0111549D01*
X0065483Y0111549D01*
X0067255Y0109974D02*
X0063318Y0106037D01*
X0067255Y0109974D02*
X0069814Y0109974D01*
X0071389Y0111549D01*
X0075129Y0111549D01*
X0075467Y0111887D01*
X0075467Y0115459D01*
X0075509Y0115416D01*
X0082854Y0115416D01*
X0082981Y0114896D01*
X0083003Y0115289D01*
X0088121Y0115289D02*
X0088121Y0120998D01*
X0092648Y0125526D01*
X0086664Y0127888D02*
X0082854Y0124078D01*
X0082854Y0123290D01*
X0086664Y0127888D02*
X0112333Y0127888D01*
X0113416Y0128970D01*
X0109774Y0132612D01*
X0109578Y0132612D01*
X0113416Y0128970D02*
X0114499Y0130053D01*
X0128475Y0130053D01*
X0129971Y0128557D01*
X0129971Y0126313D01*
X0124971Y0126313D02*
X0124971Y0123400D01*
X0124144Y0122573D01*
X0115680Y0122573D01*
X0108396Y0115289D01*
X0105050Y0115289D01*
X0105050Y0118833D02*
X0108987Y0118833D01*
X0116467Y0126313D01*
X0119971Y0126313D01*
X0118436Y0119620D02*
X0114893Y0119620D01*
X0107609Y0112337D01*
X0104263Y0112337D01*
X0098554Y0118045D01*
X0092058Y0118045D01*
X0090483Y0116470D01*
X0090483Y0113911D01*
X0087924Y0111352D01*
X0077097Y0111352D01*
X0069617Y0103872D01*
X0069617Y0102297D01*
X0074735Y0101904D02*
X0077491Y0104659D01*
X0077491Y0107612D01*
X0073567Y0115459D02*
X0071567Y0115459D01*
X0071585Y0115478D01*
X0071585Y0120211D01*
X0076310Y0120211D01*
X0071585Y0120211D02*
X0067667Y0124130D01*
X0067667Y0132659D01*
X0067667Y0132791D01*
X0065877Y0132612D01*
X0067667Y0132659D02*
X0056185Y0132659D01*
X0056034Y0132809D01*
X0056034Y0130253D01*
X0056111Y0130176D01*
X0056034Y0132809D02*
X0056034Y0133400D01*
X0054853Y0134581D01*
X0050916Y0134581D01*
X0049307Y0136190D01*
X0049307Y0138870D01*
X0045769Y0142407D01*
X0042031Y0142407D01*
X0039570Y0137978D02*
X0039570Y0132290D01*
X0038908Y0131628D01*
X0038908Y0122967D01*
X0042452Y0122967D01*
X0043436Y0121982D01*
X0038908Y0122967D02*
X0038908Y0118045D01*
X0038908Y0112919D01*
X0038884Y0112895D01*
X0035784Y0112895D02*
X0035759Y0112870D01*
X0035784Y0112895D02*
X0035759Y0112920D01*
X0035759Y0117455D01*
X0035759Y0132022D01*
X0033665Y0134115D01*
X0033665Y0137978D01*
X0035633Y0137978D02*
X0035633Y0142723D01*
X0036349Y0143439D01*
X0037602Y0137978D02*
X0037602Y0135046D01*
X0037137Y0134581D01*
X0031696Y0137978D02*
X0029728Y0137978D01*
X0027267Y0140439D01*
X0027267Y0142407D01*
X0027267Y0144376D01*
X0027267Y0146344D01*
X0042845Y0135959D02*
X0044223Y0134581D01*
X0047767Y0134581D01*
X0050111Y0132236D01*
X0050111Y0130176D01*
X0055289Y0138870D02*
X0055247Y0138911D01*
X0055289Y0138870D02*
X0055307Y0138870D01*
X0061307Y0138870D02*
X0062333Y0139896D01*
X0062333Y0141667D01*
X0072963Y0152297D01*
X0072963Y0160368D01*
X0076900Y0162337D02*
X0076900Y0157219D01*
X0079263Y0154856D01*
X0079263Y0150722D01*
X0077294Y0148754D01*
X0071585Y0148754D01*
X0066861Y0144030D01*
X0066861Y0138518D01*
X0069617Y0135762D01*
X0069617Y0132709D01*
X0069567Y0132659D01*
X0071567Y0132659D02*
X0071585Y0132640D01*
X0071585Y0128478D01*
X0075467Y0132659D02*
X0075467Y0136603D01*
X0079568Y0140704D01*
X0079627Y0140645D01*
X0089233Y0140645D01*
X0091558Y0145801D02*
X0086349Y0145801D01*
X0082412Y0149738D01*
X0082412Y0158203D01*
X0083200Y0158990D01*
X0083200Y0171195D01*
X0084774Y0172770D01*
X0088908Y0172770D01*
X0089499Y0173360D01*
X0089499Y0180053D01*
X0090089Y0180644D01*
X0144026Y0180644D01*
X0145207Y0179463D01*
X0145207Y0166864D01*
X0151507Y0160565D01*
X0161152Y0160565D01*
X0164696Y0157022D01*
X0164696Y0042258D01*
X0163908Y0041470D01*
X0150326Y0041470D01*
X0145011Y0036156D01*
X0145011Y0025526D01*
X0148751Y0021785D01*
X0148751Y0020998D01*
X0148160Y0020407D01*
X0096585Y0020407D01*
X0093633Y0023360D01*
X0093633Y0037435D01*
X0095988Y0037442D02*
X0095988Y0040236D01*
X0095988Y0037442D02*
X0095995Y0037435D01*
X0081822Y0037435D02*
X0081822Y0043045D01*
X0079656Y0045211D01*
X0058200Y0045211D01*
X0064499Y0097376D02*
X0064450Y0097425D01*
X0064450Y0099885D01*
X0056822Y0107219D02*
X0050907Y0107219D01*
X0050884Y0107195D01*
X0050884Y0104095D02*
X0050910Y0104069D01*
X0056034Y0104069D01*
X0082019Y0132219D02*
X0082019Y0134384D01*
X0083987Y0136352D01*
X0094420Y0136352D01*
X0096682Y0134090D01*
X0096682Y0132294D01*
X0096714Y0140645D02*
X0091558Y0145801D01*
X0080837Y0150132D02*
X0077097Y0146392D01*
X0074538Y0146392D01*
X0072088Y0140704D02*
X0072067Y0140683D01*
X0071979Y0140683D01*
X0080837Y0150132D02*
X0080837Y0162337D01*
X0085562Y0167652D02*
X0088318Y0170407D01*
X0088908Y0170407D01*
X0091074Y0172573D01*
X0091074Y0178478D01*
X0091664Y0179069D01*
X0142648Y0179069D01*
X0143436Y0178281D01*
X0143436Y0166470D01*
X0151113Y0158793D01*
X0159971Y0158793D01*
X0163121Y0155644D01*
X0163121Y0138124D01*
X0162924Y0137927D01*
X0139302Y0137927D01*
X0134971Y0133596D01*
X0134971Y0126313D01*
X0134971Y0122179D01*
X0149932Y0107219D01*
X0149932Y0092848D01*
X0148751Y0091667D01*
X0144441Y0091667D01*
X0144340Y0091769D01*
X0144238Y0095998D02*
X0144340Y0096100D01*
X0144238Y0095998D02*
X0137333Y0095998D01*
X0130050Y0098360D02*
X0140972Y0087438D01*
X0144340Y0087438D01*
X0139302Y0086943D02*
X0129459Y0096785D01*
X0126704Y0096785D01*
X0123751Y0099738D01*
X0123751Y0111943D01*
X0117648Y0118045D01*
X0115483Y0118045D01*
X0108200Y0110762D01*
X0103672Y0110762D01*
X0099144Y0115289D01*
X0095798Y0115289D01*
X0082019Y0132219D02*
X0082094Y0132294D01*
X0061307Y0138870D02*
X0061307Y0140444D01*
X0014499Y0172179D02*
X0014499Y0176116D01*
X0118436Y0119620D02*
X0125326Y0112730D01*
X0125326Y0100526D01*
X0127491Y0098360D01*
X0130050Y0098360D01*
X0128964Y0100430D02*
X0127688Y0101707D01*
X0128964Y0100430D02*
X0144340Y0100430D01*
X0139302Y0086943D02*
X0139302Y0080053D01*
X0140578Y0078777D01*
X0144340Y0078777D01*
X0149735Y0043045D02*
X0162530Y0043045D01*
X0163121Y0043636D01*
X0163121Y0138124D01*
X0155641Y0151510D02*
X0151704Y0155447D01*
X0134774Y0155447D01*
X0129971Y0150644D01*
X0129971Y0148911D01*
X0124971Y0148911D02*
X0124971Y0155093D01*
X0133200Y0163321D01*
X0133200Y0167455D01*
X0132806Y0169030D01*
X0131822Y0170014D01*
X0140089Y0151510D02*
X0137530Y0148951D01*
X0135011Y0148951D01*
X0134971Y0148911D01*
X0140089Y0151510D02*
X0143042Y0151510D01*
X0149735Y0043045D02*
X0143436Y0036746D01*
X0138908Y0036746D01*
X0138908Y0037304D01*
X0143436Y0036746D02*
X0143436Y0023754D01*
X0141664Y0021982D01*
X0114302Y0021982D01*
X0112530Y0023754D01*
X0112530Y0037435D01*
X0119617Y0028281D02*
X0119663Y0028236D01*
D37*
X0121724Y0031503D02*
X0121724Y0031758D01*
X0121913Y0031947D01*
X0121913Y0042924D01*
X0120972Y0043865D01*
X0111674Y0043865D01*
X0111552Y0043935D01*
X0111094Y0044058D01*
X0110168Y0044058D01*
X0109242Y0044058D01*
X0108987Y0043989D01*
X0108732Y0044058D01*
X0107806Y0044058D01*
X0107806Y0042960D01*
X0107806Y0042960D01*
X0107806Y0044058D01*
X0106880Y0044058D01*
X0106625Y0043989D01*
X0106370Y0044058D01*
X0105444Y0044058D01*
X0105444Y0042960D01*
X0105444Y0042960D01*
X0105444Y0044058D01*
X0104518Y0044058D01*
X0104263Y0043989D01*
X0104007Y0044058D01*
X0103517Y0044058D01*
X0103517Y0044783D01*
X0103091Y0045811D01*
X0102304Y0046598D01*
X0101276Y0047024D01*
X0100163Y0047024D01*
X0099135Y0046598D01*
X0098348Y0045811D01*
X0097922Y0044783D01*
X0097922Y0043865D01*
X0092776Y0043865D01*
X0092654Y0043935D01*
X0092196Y0044058D01*
X0091271Y0044058D01*
X0091271Y0042960D01*
X0091270Y0042960D01*
X0091270Y0044058D01*
X0090345Y0044058D01*
X0090089Y0043989D01*
X0089834Y0044058D01*
X0088908Y0044058D01*
X0087982Y0044058D01*
X0087727Y0043989D01*
X0087472Y0044058D01*
X0086546Y0044058D01*
X0085620Y0044058D01*
X0085365Y0043989D01*
X0085110Y0044058D01*
X0084184Y0044058D01*
X0084184Y0042960D01*
X0084184Y0042960D01*
X0084184Y0044058D01*
X0083506Y0044058D01*
X0081563Y0046001D01*
X0080446Y0047118D01*
X0058990Y0047118D01*
X0057582Y0048525D01*
X0063781Y0048525D01*
X0063902Y0048455D01*
X0064360Y0048332D01*
X0065286Y0048332D01*
X0065286Y0049430D01*
X0065286Y0049430D01*
X0065286Y0048332D01*
X0066212Y0048332D01*
X0066467Y0048400D01*
X0066722Y0048332D01*
X0067648Y0048332D01*
X0067648Y0049430D01*
X0067648Y0049430D01*
X0067648Y0048332D01*
X0068574Y0048332D01*
X0069032Y0048455D01*
X0069154Y0048525D01*
X0073230Y0048525D01*
X0073351Y0048455D01*
X0073809Y0048332D01*
X0074735Y0048332D01*
X0074735Y0049430D01*
X0074735Y0048332D01*
X0075661Y0048332D01*
X0075916Y0048400D01*
X0076171Y0048332D01*
X0077097Y0048332D01*
X0077097Y0049430D01*
X0077097Y0049430D01*
X0077097Y0048332D01*
X0078023Y0048332D01*
X0078481Y0048455D01*
X0078603Y0048525D01*
X0082678Y0048525D01*
X0082800Y0048455D01*
X0083258Y0048332D01*
X0084184Y0048332D01*
X0085110Y0048332D01*
X0085365Y0048400D01*
X0085620Y0048332D01*
X0086546Y0048332D01*
X0086546Y0049430D01*
X0086546Y0049430D01*
X0086546Y0048332D01*
X0087472Y0048332D01*
X0087930Y0048455D01*
X0088051Y0048525D01*
X0092127Y0048525D01*
X0092249Y0048455D01*
X0092707Y0048332D01*
X0093633Y0048332D01*
X0094559Y0048332D01*
X0094814Y0048400D01*
X0095069Y0048332D01*
X0095995Y0048332D01*
X0096921Y0048332D01*
X0097379Y0048455D01*
X0097500Y0048525D01*
X0101576Y0048525D01*
X0101698Y0048455D01*
X0102156Y0048332D01*
X0103081Y0048332D01*
X0103081Y0049430D01*
X0103082Y0049430D01*
X0103082Y0048332D01*
X0104007Y0048332D01*
X0104263Y0048400D01*
X0104518Y0048332D01*
X0105444Y0048332D01*
X0106370Y0048332D01*
X0106827Y0048455D01*
X0106949Y0048525D01*
X0111025Y0048525D01*
X0111147Y0048455D01*
X0111604Y0048332D01*
X0112530Y0048332D01*
X0112530Y0049430D01*
X0112530Y0049430D01*
X0112530Y0048332D01*
X0113456Y0048332D01*
X0113711Y0048400D01*
X0113967Y0048332D01*
X0114892Y0048332D01*
X0114892Y0049430D01*
X0114893Y0049430D01*
X0114893Y0048332D01*
X0115818Y0048332D01*
X0116276Y0048455D01*
X0116398Y0048525D01*
X0120972Y0048525D01*
X0121913Y0049466D01*
X0121913Y0052345D01*
X0122604Y0052059D01*
X0123717Y0052059D01*
X0124745Y0052485D01*
X0125100Y0052840D01*
X0125100Y0051312D01*
X0125704Y0049854D01*
X0126820Y0048739D01*
X0128277Y0048135D01*
X0129855Y0048135D01*
X0131312Y0048739D01*
X0132427Y0049854D01*
X0133031Y0051312D01*
X0133031Y0054070D01*
X0132427Y0055528D01*
X0131312Y0056643D01*
X0129855Y0057247D01*
X0128277Y0057247D01*
X0126820Y0056643D01*
X0125850Y0055673D01*
X0125532Y0056441D01*
X0124745Y0057228D01*
X0123717Y0057654D01*
X0122604Y0057654D01*
X0121913Y0057368D01*
X0121913Y0060443D01*
X0120972Y0061385D01*
X0116398Y0061385D01*
X0116276Y0061455D01*
X0115818Y0061578D01*
X0114893Y0061578D01*
X0114893Y0060479D01*
X0114892Y0060480D01*
X0114892Y0061578D01*
X0113967Y0061578D01*
X0113711Y0061509D01*
X0113456Y0061578D01*
X0112556Y0061578D01*
X0112966Y0062568D01*
X0112966Y0063680D01*
X0112540Y0064709D01*
X0111753Y0065496D01*
X0110725Y0065922D01*
X0109612Y0065922D01*
X0108583Y0065496D01*
X0107796Y0064709D01*
X0107370Y0063680D01*
X0107370Y0062568D01*
X0107796Y0061539D01*
X0107951Y0061385D01*
X0106949Y0061385D01*
X0106827Y0061455D01*
X0106370Y0061578D01*
X0105444Y0061578D01*
X0105444Y0060479D01*
X0105444Y0060480D01*
X0105444Y0061578D01*
X0104518Y0061578D01*
X0104263Y0061509D01*
X0104007Y0061578D01*
X0103107Y0061578D01*
X0103517Y0062568D01*
X0103517Y0063680D01*
X0103091Y0064709D01*
X0102304Y0065496D01*
X0101276Y0065922D01*
X0100163Y0065922D01*
X0099135Y0065496D01*
X0098348Y0064709D01*
X0097922Y0063680D01*
X0097922Y0062568D01*
X0098348Y0061539D01*
X0098502Y0061385D01*
X0097500Y0061385D01*
X0097379Y0061455D01*
X0096921Y0061578D01*
X0095995Y0061578D01*
X0095995Y0060479D01*
X0095995Y0060480D01*
X0095995Y0061578D01*
X0095069Y0061578D01*
X0094814Y0061509D01*
X0094559Y0061578D01*
X0093658Y0061578D01*
X0094068Y0062568D01*
X0094068Y0063680D01*
X0093642Y0064709D01*
X0092855Y0065496D01*
X0091827Y0065922D01*
X0090714Y0065922D01*
X0089686Y0065496D01*
X0088899Y0064709D01*
X0088473Y0063680D01*
X0088473Y0062568D01*
X0088899Y0061539D01*
X0089053Y0061385D01*
X0088051Y0061385D01*
X0087930Y0061455D01*
X0087472Y0061578D01*
X0086546Y0061578D01*
X0085620Y0061578D01*
X0085365Y0061509D01*
X0085110Y0061578D01*
X0084184Y0061578D01*
X0084184Y0060480D01*
X0084184Y0060479D01*
X0084184Y0061578D01*
X0083258Y0061578D01*
X0082800Y0061455D01*
X0082678Y0061385D01*
X0081677Y0061385D01*
X0081831Y0061539D01*
X0082257Y0062568D01*
X0082257Y0063680D01*
X0081831Y0064709D01*
X0081044Y0065496D01*
X0080016Y0065922D01*
X0078903Y0065922D01*
X0077875Y0065496D01*
X0077088Y0064709D01*
X0076662Y0063680D01*
X0076662Y0062568D01*
X0077072Y0061578D01*
X0076171Y0061578D01*
X0075916Y0061509D01*
X0075661Y0061578D01*
X0074735Y0061578D01*
X0074480Y0061578D01*
X0074480Y0064424D01*
X0074745Y0064689D01*
X0075170Y0065717D01*
X0075170Y0066830D01*
X0074745Y0067858D01*
X0073958Y0068645D01*
X0072929Y0069071D01*
X0071816Y0069071D01*
X0070788Y0068645D01*
X0070001Y0067858D01*
X0069575Y0066830D01*
X0069575Y0065717D01*
X0070001Y0064689D01*
X0070266Y0064424D01*
X0070266Y0061385D01*
X0069154Y0061385D01*
X0069032Y0061455D01*
X0068574Y0061578D01*
X0067648Y0061578D01*
X0066722Y0061578D01*
X0066467Y0061509D01*
X0066212Y0061578D01*
X0065286Y0061578D01*
X0065031Y0061578D01*
X0065031Y0064424D01*
X0065296Y0064689D01*
X0065722Y0065717D01*
X0065722Y0066830D01*
X0065296Y0067858D01*
X0064509Y0068645D01*
X0063480Y0069071D01*
X0062469Y0069071D01*
X0062469Y0070523D01*
X0062934Y0070988D01*
X0063359Y0072016D01*
X0063359Y0073129D01*
X0062934Y0074158D01*
X0062147Y0074945D01*
X0061118Y0075370D01*
X0060005Y0075370D01*
X0058977Y0074945D01*
X0058190Y0074158D01*
X0057764Y0073129D01*
X0057764Y0072016D01*
X0058190Y0070988D01*
X0058655Y0070523D01*
X0058655Y0069071D01*
X0057643Y0069071D01*
X0056615Y0068645D01*
X0055837Y0067868D01*
X0055060Y0068645D01*
X0054032Y0069071D01*
X0052919Y0069071D01*
X0051890Y0068645D01*
X0051103Y0067858D01*
X0050678Y0066830D01*
X0050678Y0065922D01*
X0050556Y0065922D01*
X0049528Y0065496D01*
X0048741Y0064709D01*
X0048315Y0063680D01*
X0048315Y0062568D01*
X0048741Y0061539D01*
X0049006Y0061275D01*
X0049006Y0060632D01*
X0048817Y0060443D01*
X0048817Y0050267D01*
X0045992Y0050267D01*
X0043630Y0047905D01*
X0042513Y0046788D01*
X0042513Y0041473D01*
X0041858Y0040818D01*
X0039305Y0040818D01*
X0035697Y0044426D01*
X0035697Y0061153D01*
X0036155Y0061611D01*
X0040638Y0061611D01*
X0040638Y0061190D01*
X0041064Y0060161D01*
X0041851Y0059374D01*
X0042879Y0058948D01*
X0043992Y0058948D01*
X0045021Y0059374D01*
X0045808Y0060161D01*
X0046233Y0061190D01*
X0046233Y0061847D01*
X0046327Y0061940D01*
X0046327Y0063712D01*
X0053281Y0070666D01*
X0054398Y0071783D01*
X0054398Y0074539D01*
X0057021Y0077162D01*
X0058138Y0078279D01*
X0058138Y0082247D01*
X0058997Y0082603D01*
X0059784Y0083390D01*
X0060210Y0084418D01*
X0060210Y0085531D01*
X0059784Y0086559D01*
X0059695Y0086648D01*
X0059784Y0086736D01*
X0060010Y0087282D01*
X0060236Y0086736D01*
X0061023Y0085949D01*
X0062051Y0085523D01*
X0063164Y0085523D01*
X0064192Y0085949D01*
X0064979Y0086736D01*
X0065405Y0087764D01*
X0065405Y0088139D01*
X0066174Y0088907D01*
X0068167Y0088907D01*
X0069108Y0089849D01*
X0069108Y0093542D01*
X0068167Y0094484D01*
X0060733Y0094484D01*
X0059792Y0093542D01*
X0059792Y0089887D01*
X0059784Y0089906D01*
X0058997Y0090693D01*
X0057969Y0091118D01*
X0056856Y0091118D01*
X0055827Y0090693D01*
X0055563Y0090428D01*
X0055391Y0090428D01*
X0055391Y0095978D01*
X0055461Y0096100D01*
X0055584Y0096558D01*
X0055584Y0097795D01*
X0055584Y0099032D01*
X0055461Y0099490D01*
X0055391Y0099611D01*
X0055391Y0101307D01*
X0055478Y0101271D01*
X0056591Y0101271D01*
X0057619Y0101697D01*
X0058406Y0102484D01*
X0058832Y0103512D01*
X0058832Y0104625D01*
X0058642Y0105083D01*
X0059193Y0105634D01*
X0059619Y0106662D01*
X0059619Y0106756D01*
X0061211Y0105165D01*
X0062343Y0104032D01*
X0062343Y0102673D01*
X0060733Y0102673D01*
X0059792Y0101731D01*
X0059792Y0098038D01*
X0060733Y0097096D01*
X0061701Y0097096D01*
X0061701Y0096819D01*
X0062127Y0095791D01*
X0062914Y0095004D01*
X0063942Y0094578D01*
X0065055Y0094578D01*
X0066084Y0095004D01*
X0066871Y0095791D01*
X0067296Y0096819D01*
X0067296Y0097096D01*
X0068167Y0097096D01*
X0069108Y0098038D01*
X0069108Y0099500D01*
X0070173Y0099500D01*
X0070175Y0099500D01*
X0070175Y0098679D01*
X0070209Y0098645D01*
X0070105Y0098464D01*
X0069982Y0098007D01*
X0069982Y0095690D01*
X0074255Y0095690D01*
X0074255Y0094731D01*
X0069982Y0094731D01*
X0069982Y0092415D01*
X0070105Y0091957D01*
X0070342Y0091546D01*
X0070677Y0091211D01*
X0071088Y0090974D01*
X0071545Y0090852D01*
X0074255Y0090852D01*
X0074255Y0094731D01*
X0075215Y0094731D01*
X0075215Y0095690D01*
X0079488Y0095690D01*
X0079488Y0098007D01*
X0079365Y0098464D01*
X0079261Y0098645D01*
X0079295Y0098679D01*
X0079295Y0103766D01*
X0079398Y0103870D01*
X0079398Y0105563D01*
X0079863Y0106027D01*
X0080289Y0107056D01*
X0080289Y0108169D01*
X0079863Y0109197D01*
X0079614Y0109445D01*
X0088714Y0109445D01*
X0089831Y0110562D01*
X0092390Y0113121D01*
X0092390Y0115681D01*
X0092848Y0116138D01*
X0093121Y0116138D01*
X0093000Y0115846D01*
X0093000Y0114733D01*
X0093426Y0113705D01*
X0094213Y0112918D01*
X0095242Y0112492D01*
X0096355Y0112492D01*
X0097383Y0112918D01*
X0097847Y0113382D01*
X0098355Y0113382D01*
X0102882Y0108855D01*
X0108990Y0108855D01*
X0116273Y0116138D01*
X0116858Y0116138D01*
X0121844Y0111153D01*
X0121844Y0098948D01*
X0122961Y0097831D01*
X0125914Y0094878D01*
X0128670Y0094878D01*
X0137395Y0086153D01*
X0137395Y0079263D01*
X0138512Y0078146D01*
X0139780Y0076878D01*
X0139780Y0072206D01*
X0140721Y0071264D01*
X0147958Y0071264D01*
X0148900Y0072206D01*
X0148900Y0080716D01*
X0148970Y0080838D01*
X0149093Y0081296D01*
X0149093Y0083107D01*
X0144340Y0083107D01*
X0144340Y0083108D01*
X0149093Y0083108D01*
X0149093Y0084919D01*
X0148970Y0085377D01*
X0148900Y0085499D01*
X0148900Y0089760D01*
X0149541Y0089760D01*
X0150658Y0090877D01*
X0151839Y0092058D01*
X0151839Y0108008D01*
X0150722Y0109126D01*
X0150722Y0109126D01*
X0136878Y0122969D01*
X0136878Y0122995D01*
X0137582Y0123698D01*
X0137582Y0128927D01*
X0136878Y0129631D01*
X0136878Y0132807D01*
X0140092Y0136020D01*
X0161214Y0136020D01*
X0161214Y0044952D01*
X0148945Y0044952D01*
X0143468Y0039475D01*
X0143468Y0040529D01*
X0143089Y0040908D01*
X0143301Y0041120D01*
X0143538Y0041531D01*
X0143661Y0041989D01*
X0143661Y0044305D01*
X0139388Y0044305D01*
X0139388Y0045264D01*
X0143661Y0045264D01*
X0143661Y0047581D01*
X0143538Y0048038D01*
X0143301Y0048449D01*
X0142966Y0048784D01*
X0142556Y0049021D01*
X0142098Y0049144D01*
X0139388Y0049144D01*
X0139388Y0045264D01*
X0138429Y0045264D01*
X0138429Y0049144D01*
X0135719Y0049144D01*
X0135261Y0049021D01*
X0134850Y0048784D01*
X0134515Y0048449D01*
X0134278Y0048038D01*
X0134156Y0047581D01*
X0134156Y0045264D01*
X0138429Y0045264D01*
X0138429Y0044305D01*
X0134156Y0044305D01*
X0134156Y0041989D01*
X0134278Y0041531D01*
X0134515Y0041120D01*
X0134727Y0040908D01*
X0134348Y0040529D01*
X0134348Y0034080D01*
X0134513Y0033915D01*
X0133436Y0032054D01*
X0130007Y0032054D01*
X0129628Y0031675D01*
X0129416Y0031887D01*
X0129005Y0032124D01*
X0128548Y0032247D01*
X0126231Y0032247D01*
X0126231Y0027974D01*
X0125272Y0027974D01*
X0125272Y0032247D01*
X0122956Y0032247D01*
X0122498Y0032124D01*
X0122087Y0031887D01*
X0121752Y0031552D01*
X0121724Y0031503D01*
X0121913Y0033022D02*
X0133996Y0033022D01*
X0134348Y0034621D02*
X0121913Y0034621D01*
X0121913Y0036219D02*
X0134348Y0036219D01*
X0134348Y0037818D02*
X0121913Y0037818D01*
X0121913Y0039416D02*
X0134348Y0039416D01*
X0134621Y0041015D02*
X0121913Y0041015D01*
X0121913Y0042613D02*
X0134156Y0042613D01*
X0134156Y0044212D02*
X0103517Y0044212D01*
X0103091Y0045811D02*
X0134156Y0045811D01*
X0134156Y0047409D02*
X0058698Y0047409D01*
X0065286Y0049008D02*
X0065286Y0049008D01*
X0067648Y0049008D02*
X0067648Y0049008D01*
X0067648Y0054955D02*
X0065286Y0054955D01*
X0067648Y0054955D01*
X0067648Y0054955D01*
X0065286Y0054955D02*
X0065286Y0054955D01*
X0065286Y0060479D02*
X0065286Y0061578D01*
X0065286Y0060480D01*
X0065286Y0060479D01*
X0065031Y0061796D02*
X0070266Y0061796D01*
X0070266Y0063394D02*
X0065031Y0063394D01*
X0065422Y0064993D02*
X0069875Y0064993D01*
X0069575Y0066591D02*
X0065722Y0066591D01*
X0064964Y0068190D02*
X0070332Y0068190D01*
X0074413Y0068190D02*
X0094918Y0068190D01*
X0094918Y0066891D02*
X0095859Y0065949D01*
X0101718Y0065949D01*
X0102659Y0066891D01*
X0102659Y0074127D01*
X0101718Y0075069D01*
X0095859Y0075069D01*
X0094918Y0074127D01*
X0094918Y0066891D01*
X0095217Y0066591D02*
X0075170Y0066591D01*
X0074870Y0064993D02*
X0077372Y0064993D01*
X0076662Y0063394D02*
X0074480Y0063394D01*
X0074480Y0061796D02*
X0076982Y0061796D01*
X0074735Y0061578D02*
X0074735Y0060480D01*
X0074735Y0060479D01*
X0074735Y0061578D01*
X0074735Y0054955D02*
X0077097Y0054955D01*
X0077097Y0054955D01*
X0074735Y0054955D01*
X0074735Y0054955D01*
X0074735Y0049430D02*
X0074735Y0049430D01*
X0074735Y0049008D02*
X0074735Y0049008D01*
X0077097Y0049008D02*
X0077097Y0049008D01*
X0081753Y0045811D02*
X0098347Y0045811D01*
X0097922Y0044212D02*
X0083352Y0044212D01*
X0086546Y0044058D02*
X0086546Y0042960D01*
X0086546Y0042960D01*
X0086546Y0042960D01*
X0086546Y0044058D01*
X0088908Y0044058D02*
X0088908Y0042960D01*
X0088908Y0042960D01*
X0088908Y0042960D01*
X0088908Y0044058D01*
X0086546Y0049008D02*
X0086546Y0049008D01*
X0084184Y0049008D02*
X0084184Y0049008D01*
X0084184Y0049430D02*
X0084184Y0048332D01*
X0084184Y0049430D01*
X0084184Y0049430D01*
X0084184Y0054955D02*
X0084184Y0054955D01*
X0086546Y0054955D01*
X0086546Y0054955D01*
X0084184Y0054955D01*
X0086546Y0060479D02*
X0086546Y0060480D01*
X0086546Y0061578D01*
X0086546Y0060479D01*
X0088793Y0061796D02*
X0081937Y0061796D01*
X0082257Y0063394D02*
X0088473Y0063394D01*
X0089183Y0064993D02*
X0081547Y0064993D01*
X0093358Y0064993D02*
X0098631Y0064993D01*
X0097922Y0063394D02*
X0094068Y0063394D01*
X0093748Y0061796D02*
X0098241Y0061796D01*
X0103197Y0061796D02*
X0107690Y0061796D01*
X0107370Y0063394D02*
X0103517Y0063394D01*
X0102807Y0064993D02*
X0108080Y0064993D01*
X0112256Y0064993D02*
X0161214Y0064993D01*
X0161214Y0066591D02*
X0160411Y0066591D01*
X0160711Y0066891D02*
X0159769Y0065949D01*
X0151745Y0065949D01*
X0150804Y0066891D01*
X0150804Y0073734D01*
X0151745Y0074675D01*
X0159769Y0074675D01*
X0160711Y0073734D01*
X0160711Y0066891D01*
X0160711Y0068190D02*
X0161214Y0068190D01*
X0161214Y0069788D02*
X0160711Y0069788D01*
X0160711Y0071387D02*
X0161214Y0071387D01*
X0161214Y0072985D02*
X0160711Y0072985D01*
X0161214Y0074584D02*
X0159861Y0074584D01*
X0161214Y0076182D02*
X0148900Y0076182D01*
X0148900Y0074584D02*
X0151653Y0074584D01*
X0150804Y0072985D02*
X0148900Y0072985D01*
X0148081Y0071387D02*
X0150804Y0071387D01*
X0150804Y0069788D02*
X0102659Y0069788D01*
X0102659Y0068190D02*
X0150804Y0068190D01*
X0151103Y0066591D02*
X0102360Y0066591D01*
X0102659Y0071387D02*
X0140599Y0071387D01*
X0139780Y0072985D02*
X0102659Y0072985D01*
X0102203Y0074584D02*
X0139780Y0074584D01*
X0139780Y0076182D02*
X0056041Y0076182D01*
X0054443Y0074584D02*
X0058616Y0074584D01*
X0057764Y0072985D02*
X0054398Y0072985D01*
X0054002Y0071387D02*
X0058025Y0071387D01*
X0058655Y0069788D02*
X0052403Y0069788D01*
X0051435Y0068190D02*
X0050805Y0068190D01*
X0050678Y0066591D02*
X0049206Y0066591D01*
X0049025Y0064993D02*
X0047608Y0064993D01*
X0048315Y0063394D02*
X0046327Y0063394D01*
X0046233Y0061796D02*
X0048635Y0061796D01*
X0048817Y0060197D02*
X0045822Y0060197D01*
X0048817Y0058599D02*
X0035697Y0058599D01*
X0035697Y0060197D02*
X0041049Y0060197D01*
X0041032Y0056459D02*
X0039864Y0055976D01*
X0038970Y0055082D01*
X0038486Y0053914D01*
X0038486Y0051468D01*
X0038970Y0050300D01*
X0039864Y0049406D01*
X0041032Y0048922D01*
X0042296Y0048922D01*
X0043464Y0049406D01*
X0044358Y0050300D01*
X0044842Y0051468D01*
X0044842Y0052733D01*
X0044842Y0053914D01*
X0044358Y0055082D01*
X0043464Y0055976D01*
X0042296Y0056459D01*
X0041032Y0056459D01*
X0039290Y0055402D02*
X0035697Y0055402D01*
X0035697Y0057000D02*
X0048817Y0057000D01*
X0048817Y0055402D02*
X0044038Y0055402D01*
X0044842Y0053803D02*
X0048817Y0053803D01*
X0048817Y0052205D02*
X0044842Y0052205D01*
X0044485Y0050606D02*
X0048817Y0050606D01*
X0044733Y0049008D02*
X0042502Y0049008D01*
X0040827Y0049008D02*
X0035697Y0049008D01*
X0035697Y0050606D02*
X0038843Y0050606D01*
X0038486Y0052205D02*
X0035697Y0052205D01*
X0035697Y0053803D02*
X0038486Y0053803D01*
X0035697Y0047409D02*
X0043134Y0047409D01*
X0042513Y0045811D02*
X0035697Y0045811D01*
X0035911Y0044212D02*
X0042513Y0044212D01*
X0042513Y0042613D02*
X0037509Y0042613D01*
X0039108Y0041015D02*
X0042055Y0041015D01*
X0055837Y0054955D02*
X0055837Y0061578D01*
X0055582Y0061578D01*
X0055582Y0064424D01*
X0055837Y0064679D01*
X0056093Y0064424D01*
X0056093Y0061578D01*
X0055837Y0061578D01*
X0055837Y0054955D01*
X0055837Y0054955D01*
X0055837Y0055402D02*
X0055837Y0055402D01*
X0055837Y0057000D02*
X0055837Y0057000D01*
X0055837Y0058599D02*
X0055837Y0058599D01*
X0055837Y0060197D02*
X0055837Y0060197D01*
X0055582Y0061796D02*
X0056093Y0061796D01*
X0056093Y0063394D02*
X0055582Y0063394D01*
X0055516Y0068190D02*
X0056159Y0068190D01*
X0062469Y0069788D02*
X0094918Y0069788D01*
X0094918Y0071387D02*
X0063099Y0071387D01*
X0063359Y0072985D02*
X0094918Y0072985D01*
X0095374Y0074584D02*
X0062507Y0074584D01*
X0058138Y0079379D02*
X0137395Y0079379D01*
X0137395Y0080978D02*
X0058138Y0080978D01*
X0058933Y0082576D02*
X0137395Y0082576D01*
X0137395Y0084175D02*
X0060109Y0084175D01*
X0060109Y0085773D02*
X0061447Y0085773D01*
X0063768Y0085773D02*
X0137395Y0085773D01*
X0136176Y0087372D02*
X0065242Y0087372D01*
X0068230Y0088970D02*
X0134578Y0088970D01*
X0132979Y0090569D02*
X0069108Y0090569D01*
X0069108Y0092167D02*
X0070049Y0092167D01*
X0069982Y0093766D02*
X0068885Y0093766D01*
X0066444Y0095364D02*
X0074255Y0095364D01*
X0075215Y0095364D02*
X0125428Y0095364D01*
X0123829Y0096963D02*
X0079488Y0096963D01*
X0079309Y0098561D02*
X0122231Y0098561D01*
X0121844Y0100160D02*
X0079295Y0100160D01*
X0079295Y0101758D02*
X0094918Y0101758D01*
X0094918Y0101143D02*
X0095859Y0100201D01*
X0101718Y0100201D01*
X0102659Y0101143D01*
X0102659Y0108379D01*
X0101718Y0109321D01*
X0095859Y0109321D01*
X0094918Y0108379D01*
X0094918Y0101143D01*
X0094918Y0103357D02*
X0079295Y0103357D01*
X0079398Y0104955D02*
X0094918Y0104955D01*
X0094918Y0106554D02*
X0080081Y0106554D01*
X0080289Y0108152D02*
X0094918Y0108152D01*
X0094183Y0112948D02*
X0092217Y0112948D01*
X0092390Y0114547D02*
X0093078Y0114547D01*
X0090618Y0111349D02*
X0100387Y0111349D01*
X0101986Y0109751D02*
X0089020Y0109751D01*
X0097413Y0112948D02*
X0098789Y0112948D01*
X0102659Y0108152D02*
X0121844Y0108152D01*
X0121844Y0106554D02*
X0102659Y0106554D01*
X0102659Y0104955D02*
X0121844Y0104955D01*
X0121844Y0103357D02*
X0102659Y0103357D01*
X0102659Y0101758D02*
X0121844Y0101758D01*
X0121844Y0109751D02*
X0109886Y0109751D01*
X0111484Y0111349D02*
X0121647Y0111349D01*
X0120049Y0112948D02*
X0113083Y0112948D01*
X0114681Y0114547D02*
X0118450Y0114547D01*
X0109895Y0129795D02*
X0100848Y0129795D01*
X0100848Y0135913D01*
X0100405Y0136356D01*
X0100880Y0136830D01*
X0100880Y0144461D01*
X0099939Y0145402D01*
X0094654Y0145402D01*
X0092348Y0147708D01*
X0087139Y0147708D01*
X0084319Y0150528D01*
X0084319Y0157413D01*
X0085107Y0158200D01*
X0085107Y0164854D01*
X0086118Y0164854D01*
X0087147Y0165280D01*
X0087934Y0166067D01*
X0088359Y0167095D01*
X0088359Y0167610D01*
X0088874Y0167610D01*
X0089902Y0168036D01*
X0090689Y0168823D01*
X0091081Y0169767D01*
X0091081Y0156789D01*
X0092022Y0155848D01*
X0100361Y0155848D01*
X0101303Y0156789D01*
X0101303Y0177162D01*
X0103053Y0177162D01*
X0103053Y0168255D01*
X0113896Y0168255D01*
X0113896Y0166655D01*
X0115496Y0166655D01*
X0115496Y0168255D01*
X0126338Y0168255D01*
X0126338Y0177162D01*
X0128089Y0177162D01*
X0128089Y0160907D01*
X0126338Y0159156D01*
X0126338Y0166655D01*
X0115496Y0166655D01*
X0115496Y0155812D01*
X0123064Y0155812D01*
X0123064Y0152230D01*
X0122556Y0151722D01*
X0122416Y0151965D01*
X0122080Y0152301D01*
X0121670Y0152538D01*
X0121212Y0152660D01*
X0119971Y0152660D01*
X0118730Y0152660D01*
X0118273Y0152538D01*
X0117862Y0152301D01*
X0117527Y0151965D01*
X0117290Y0151555D01*
X0117167Y0151097D01*
X0117167Y0148911D01*
X0117167Y0146726D01*
X0117290Y0146268D01*
X0117527Y0145857D01*
X0117862Y0145522D01*
X0118273Y0145285D01*
X0118730Y0145163D01*
X0119971Y0145163D01*
X0119971Y0148911D01*
X0119971Y0148911D01*
X0117167Y0148911D01*
X0119971Y0148911D01*
X0119971Y0148911D01*
X0119971Y0145163D01*
X0121212Y0145163D01*
X0121670Y0145285D01*
X0122080Y0145522D01*
X0122416Y0145857D01*
X0122556Y0146101D01*
X0123302Y0145356D01*
X0126641Y0145356D01*
X0127471Y0146186D01*
X0128302Y0145356D01*
X0131641Y0145356D01*
X0132471Y0146186D01*
X0133302Y0145356D01*
X0136641Y0145356D01*
X0137582Y0146297D01*
X0137582Y0147044D01*
X0138320Y0147044D01*
X0138628Y0147352D01*
X0138636Y0147344D01*
X0147448Y0147344D01*
X0148389Y0148285D01*
X0148389Y0153540D01*
X0150293Y0153540D01*
X0150293Y0148285D01*
X0151235Y0147344D01*
X0160046Y0147344D01*
X0160988Y0148285D01*
X0160988Y0154735D01*
X0160046Y0155676D01*
X0154171Y0155676D01*
X0152961Y0156886D01*
X0159181Y0156886D01*
X0161214Y0154854D01*
X0161214Y0139834D01*
X0138512Y0139834D01*
X0137395Y0138717D01*
X0133064Y0134386D01*
X0133064Y0129631D01*
X0132471Y0129038D01*
X0131641Y0129869D01*
X0131356Y0129869D01*
X0129265Y0131960D01*
X0113709Y0131960D01*
X0113416Y0131667D01*
X0112375Y0132708D01*
X0112375Y0133169D01*
X0111949Y0134197D01*
X0111162Y0134984D01*
X0110134Y0135410D01*
X0109021Y0135410D01*
X0107993Y0134984D01*
X0107206Y0134197D01*
X0106780Y0133169D01*
X0106780Y0132056D01*
X0107206Y0131027D01*
X0107993Y0130240D01*
X0109021Y0129815D01*
X0109875Y0129815D01*
X0109895Y0129795D01*
X0107702Y0130532D02*
X0100848Y0130532D01*
X0100848Y0132130D02*
X0106780Y0132130D01*
X0107012Y0133729D02*
X0100848Y0133729D01*
X0100848Y0135327D02*
X0108821Y0135327D01*
X0110334Y0135327D02*
X0134005Y0135327D01*
X0133064Y0133729D02*
X0112143Y0133729D01*
X0112953Y0132130D02*
X0133064Y0132130D01*
X0133064Y0130532D02*
X0130694Y0130532D01*
X0135603Y0136926D02*
X0100880Y0136926D01*
X0100880Y0138524D02*
X0137202Y0138524D01*
X0139399Y0135327D02*
X0161214Y0135327D01*
X0161214Y0133729D02*
X0160340Y0133729D01*
X0160046Y0134022D02*
X0160988Y0133081D01*
X0160988Y0126632D01*
X0160046Y0125690D01*
X0151235Y0125690D01*
X0150293Y0126632D01*
X0150293Y0133081D01*
X0151235Y0134022D01*
X0160046Y0134022D01*
X0160988Y0132130D02*
X0161214Y0132130D01*
X0161214Y0130532D02*
X0160988Y0130532D01*
X0160988Y0128933D02*
X0161214Y0128933D01*
X0161214Y0127335D02*
X0160988Y0127335D01*
X0161214Y0125736D02*
X0160092Y0125736D01*
X0161214Y0124138D02*
X0137582Y0124138D01*
X0137582Y0125736D02*
X0138590Y0125736D01*
X0138636Y0125690D02*
X0137695Y0126632D01*
X0137695Y0133081D01*
X0138636Y0134022D01*
X0147448Y0134022D01*
X0148389Y0133081D01*
X0148389Y0126632D01*
X0147448Y0125690D01*
X0138636Y0125690D01*
X0137695Y0127335D02*
X0137582Y0127335D01*
X0137577Y0128933D02*
X0137695Y0128933D01*
X0137695Y0130532D02*
X0136878Y0130532D01*
X0136878Y0132130D02*
X0137695Y0132130D01*
X0137800Y0133729D02*
X0138342Y0133729D01*
X0147742Y0133729D02*
X0150941Y0133729D01*
X0150293Y0132130D02*
X0148389Y0132130D01*
X0148389Y0130532D02*
X0150293Y0130532D01*
X0150293Y0128933D02*
X0148389Y0128933D01*
X0148389Y0127335D02*
X0150293Y0127335D01*
X0151189Y0125736D02*
X0147494Y0125736D01*
X0150804Y0122159D02*
X0150804Y0115316D01*
X0151745Y0114374D01*
X0159769Y0114374D01*
X0160711Y0115316D01*
X0160711Y0122159D01*
X0159769Y0123100D01*
X0151745Y0123100D01*
X0150804Y0122159D01*
X0151184Y0122539D02*
X0137308Y0122539D01*
X0138907Y0120941D02*
X0150804Y0120941D01*
X0150804Y0119342D02*
X0140505Y0119342D01*
X0142104Y0117744D02*
X0150804Y0117744D01*
X0150804Y0116145D02*
X0143702Y0116145D01*
X0145301Y0114547D02*
X0151573Y0114547D01*
X0148498Y0111349D02*
X0161214Y0111349D01*
X0161214Y0109751D02*
X0150096Y0109751D01*
X0151695Y0108152D02*
X0161214Y0108152D01*
X0161214Y0106554D02*
X0151839Y0106554D01*
X0151839Y0104955D02*
X0161214Y0104955D01*
X0161214Y0103357D02*
X0151839Y0103357D01*
X0151839Y0101758D02*
X0161214Y0101758D01*
X0161214Y0100160D02*
X0151839Y0100160D01*
X0151839Y0098561D02*
X0161214Y0098561D01*
X0161214Y0096963D02*
X0151839Y0096963D01*
X0151839Y0095364D02*
X0161214Y0095364D01*
X0161214Y0093766D02*
X0151839Y0093766D01*
X0151839Y0092167D02*
X0161214Y0092167D01*
X0161214Y0090569D02*
X0150349Y0090569D01*
X0148900Y0088970D02*
X0161214Y0088970D01*
X0161214Y0087372D02*
X0148900Y0087372D01*
X0148900Y0085773D02*
X0161214Y0085773D01*
X0161214Y0084175D02*
X0149093Y0084175D01*
X0149093Y0082576D02*
X0161214Y0082576D01*
X0161214Y0080978D02*
X0149007Y0080978D01*
X0148900Y0079379D02*
X0161214Y0079379D01*
X0161214Y0077781D02*
X0148900Y0077781D01*
X0138877Y0077781D02*
X0057640Y0077781D01*
X0046377Y0088667D02*
X0046130Y0088914D01*
X0046130Y0099544D01*
X0045249Y0100425D01*
X0045249Y0101082D01*
X0044823Y0102110D01*
X0044036Y0102897D01*
X0043008Y0103323D01*
X0041895Y0103323D01*
X0040867Y0102897D01*
X0040080Y0102110D01*
X0039654Y0101082D01*
X0039654Y0100651D01*
X0038898Y0100338D01*
X0038434Y0099874D01*
X0027375Y0099874D01*
X0026910Y0100338D01*
X0025882Y0100764D01*
X0024769Y0100764D01*
X0023741Y0100338D01*
X0022954Y0099551D01*
X0022528Y0098523D01*
X0022528Y0097410D01*
X0022954Y0096382D01*
X0023741Y0095595D01*
X0024496Y0095282D01*
X0024496Y0094851D01*
X0024922Y0093823D01*
X0025709Y0093036D01*
X0026662Y0092641D01*
X0026662Y0092489D01*
X0027088Y0091461D01*
X0027875Y0090674D01*
X0028433Y0090442D01*
X0028433Y0089733D01*
X0028859Y0088705D01*
X0029646Y0087918D01*
X0030675Y0087492D01*
X0030993Y0087492D01*
X0030993Y0086386D01*
X0031418Y0085358D01*
X0032205Y0084571D01*
X0033234Y0084145D01*
X0033355Y0084145D01*
X0033355Y0084024D01*
X0033364Y0084002D01*
X0021991Y0084002D01*
X0021991Y0092778D01*
X0022061Y0092900D01*
X0022184Y0093358D01*
X0022184Y0094595D01*
X0022184Y0095832D01*
X0022061Y0096290D01*
X0021991Y0096411D01*
X0021991Y0099078D01*
X0022061Y0099200D01*
X0022184Y0099658D01*
X0022184Y0100895D01*
X0022184Y0102132D01*
X0022061Y0102590D01*
X0021991Y0102711D01*
X0021991Y0108388D01*
X0034255Y0108388D01*
X0036740Y0105902D01*
X0040993Y0105902D01*
X0041457Y0105437D01*
X0042486Y0105011D01*
X0043599Y0105011D01*
X0044627Y0105437D01*
X0045414Y0106224D01*
X0045840Y0107253D01*
X0045840Y0108366D01*
X0045831Y0108388D01*
X0046377Y0108388D01*
X0046377Y0099611D01*
X0046307Y0099490D01*
X0046184Y0099032D01*
X0046184Y0097795D01*
X0050884Y0097795D01*
X0055584Y0097795D01*
X0050884Y0097795D01*
X0050884Y0097795D01*
X0050884Y0097795D01*
X0046184Y0097795D01*
X0046184Y0096558D01*
X0046307Y0096100D01*
X0046377Y0095978D01*
X0046377Y0088667D01*
X0046377Y0088970D02*
X0046130Y0088970D01*
X0046130Y0090569D02*
X0046377Y0090569D01*
X0046377Y0092167D02*
X0046130Y0092167D01*
X0046130Y0093766D02*
X0046377Y0093766D01*
X0046377Y0095364D02*
X0046130Y0095364D01*
X0046130Y0096963D02*
X0046184Y0096963D01*
X0046130Y0098561D02*
X0046184Y0098561D01*
X0046377Y0100160D02*
X0045514Y0100160D01*
X0044969Y0101758D02*
X0046377Y0101758D01*
X0046377Y0103357D02*
X0021991Y0103357D01*
X0021991Y0104955D02*
X0046377Y0104955D01*
X0046377Y0106554D02*
X0045550Y0106554D01*
X0045840Y0108152D02*
X0046377Y0108152D01*
X0039934Y0101758D02*
X0022184Y0101758D01*
X0022184Y0100895D02*
X0017484Y0100895D01*
X0017484Y0100895D01*
X0022184Y0100895D01*
X0022184Y0100160D02*
X0023562Y0100160D01*
X0022544Y0098561D02*
X0021991Y0098561D01*
X0021991Y0096963D02*
X0022713Y0096963D01*
X0022184Y0095364D02*
X0024297Y0095364D01*
X0024979Y0093766D02*
X0022184Y0093766D01*
X0022184Y0094595D02*
X0017484Y0094595D01*
X0022184Y0094595D01*
X0021991Y0092167D02*
X0026795Y0092167D01*
X0028127Y0090569D02*
X0021991Y0090569D01*
X0021991Y0088970D02*
X0028749Y0088970D01*
X0030993Y0087372D02*
X0021991Y0087372D01*
X0021991Y0085773D02*
X0031246Y0085773D01*
X0033162Y0084175D02*
X0021991Y0084175D01*
X0012592Y0079972D02*
X0012592Y0052772D01*
X0012127Y0052307D01*
X0011889Y0051733D01*
X0011889Y0052408D01*
X0007616Y0052408D01*
X0007616Y0048529D01*
X0010326Y0048529D01*
X0010784Y0048651D01*
X0011195Y0048888D01*
X0011530Y0049224D01*
X0011767Y0049634D01*
X0011828Y0049861D01*
X0012127Y0049138D01*
X0012914Y0048351D01*
X0013942Y0047925D01*
X0014095Y0047925D01*
X0014489Y0046972D01*
X0015276Y0046185D01*
X0016305Y0045759D01*
X0017418Y0045759D01*
X0018446Y0046185D01*
X0019233Y0046972D01*
X0019627Y0047925D01*
X0019780Y0047925D01*
X0020808Y0048351D01*
X0020859Y0048402D01*
X0020859Y0039995D01*
X0018918Y0041116D01*
X0016006Y0041896D01*
X0012991Y0041896D01*
X0010079Y0041116D01*
X0007469Y0039609D01*
X0005337Y0037477D01*
X0004488Y0036006D01*
X0004488Y0048529D01*
X0006657Y0048529D01*
X0006657Y0052408D01*
X0007616Y0052408D01*
X0007616Y0053367D01*
X0011889Y0053367D01*
X0011889Y0055684D01*
X0011767Y0056142D01*
X0011530Y0056552D01*
X0011317Y0056764D01*
X0011696Y0057143D01*
X0011696Y0063593D01*
X0010755Y0064534D01*
X0007351Y0064534D01*
X0007351Y0065138D01*
X0008037Y0064854D01*
X0009150Y0064854D01*
X0010178Y0065280D01*
X0010965Y0066067D01*
X0011391Y0067095D01*
X0011391Y0067737D01*
X0011660Y0067992D01*
X0011661Y0068022D01*
X0011681Y0068043D01*
X0011681Y0068807D01*
X0011724Y0070384D01*
X0011744Y0070405D01*
X0011744Y0070434D01*
X0011764Y0070455D01*
X0011745Y0071194D01*
X0011765Y0071934D01*
X0011744Y0071955D01*
X0011744Y0081361D01*
X0012127Y0080437D01*
X0012592Y0079972D01*
X0012592Y0079379D02*
X0011744Y0079379D01*
X0011744Y0077781D02*
X0012592Y0077781D01*
X0012592Y0076182D02*
X0011744Y0076182D01*
X0011744Y0074584D02*
X0012592Y0074584D01*
X0012592Y0072985D02*
X0011744Y0072985D01*
X0011750Y0071387D02*
X0012592Y0071387D01*
X0012592Y0069788D02*
X0011708Y0069788D01*
X0011681Y0068190D02*
X0012592Y0068190D01*
X0012592Y0066591D02*
X0011182Y0066591D01*
X0012592Y0064993D02*
X0009485Y0064993D01*
X0007702Y0064993D02*
X0007351Y0064993D01*
X0011696Y0063394D02*
X0012592Y0063394D01*
X0012592Y0061796D02*
X0011696Y0061796D01*
X0011696Y0060197D02*
X0012592Y0060197D01*
X0012592Y0058599D02*
X0011696Y0058599D01*
X0011553Y0057000D02*
X0012592Y0057000D01*
X0012592Y0055402D02*
X0011889Y0055402D01*
X0011889Y0053803D02*
X0012592Y0053803D01*
X0012085Y0052205D02*
X0011889Y0052205D01*
X0012257Y0049008D02*
X0011314Y0049008D01*
X0014308Y0047409D02*
X0004488Y0047409D01*
X0004488Y0045811D02*
X0016181Y0045811D01*
X0017541Y0045811D02*
X0020859Y0045811D01*
X0020859Y0047409D02*
X0019414Y0047409D01*
X0020859Y0044212D02*
X0004488Y0044212D01*
X0004488Y0042613D02*
X0020859Y0042613D01*
X0020859Y0041015D02*
X0019093Y0041015D01*
X0009904Y0041015D02*
X0004488Y0041015D01*
X0004488Y0039416D02*
X0007276Y0039416D01*
X0005678Y0037818D02*
X0004488Y0037818D01*
X0004488Y0036219D02*
X0004611Y0036219D01*
X0006657Y0049008D02*
X0007616Y0049008D01*
X0007616Y0050606D02*
X0006657Y0050606D01*
X0006657Y0052205D02*
X0007616Y0052205D01*
X0006657Y0052408D02*
X0004488Y0052408D01*
X0004488Y0053367D01*
X0006657Y0053367D01*
X0006657Y0052408D01*
X0006657Y0053367D02*
X0006657Y0056202D01*
X0007616Y0056202D01*
X0007616Y0053367D01*
X0006657Y0053367D01*
X0006657Y0053803D02*
X0007616Y0053803D01*
X0007616Y0055402D02*
X0006657Y0055402D01*
X0006513Y0080113D02*
X0005606Y0080489D01*
X0005579Y0080489D01*
X0005579Y0093988D01*
X0005606Y0093988D01*
X0006635Y0094414D01*
X0006880Y0094659D01*
X0006880Y0091582D01*
X0007667Y0090795D01*
X0008604Y0089858D01*
X0008513Y0089741D01*
X0008037Y0089741D01*
X0007009Y0089315D01*
X0006222Y0088528D01*
X0005796Y0087499D01*
X0005796Y0086386D01*
X0006222Y0085358D01*
X0006513Y0085067D01*
X0006513Y0080113D01*
X0006513Y0080978D02*
X0005579Y0080978D01*
X0005579Y0082576D02*
X0006513Y0082576D01*
X0006513Y0084175D02*
X0005579Y0084175D01*
X0005579Y0085773D02*
X0006050Y0085773D01*
X0005796Y0087372D02*
X0005579Y0087372D01*
X0005579Y0088970D02*
X0006664Y0088970D01*
X0005579Y0090569D02*
X0007893Y0090569D01*
X0006880Y0092167D02*
X0005579Y0092167D01*
X0005579Y0093766D02*
X0006880Y0093766D01*
X0011094Y0093774D02*
X0011094Y0095663D01*
X0012784Y0095663D01*
X0012784Y0094595D01*
X0017484Y0094595D01*
X0017484Y0094595D01*
X0017484Y0094595D01*
X0012784Y0094595D01*
X0012784Y0093774D01*
X0011094Y0093774D01*
X0011094Y0095364D02*
X0012784Y0095364D01*
X0012784Y0099877D02*
X0008902Y0099877D01*
X0008790Y0099765D01*
X0006370Y0102186D01*
X0006370Y0113241D01*
X0006425Y0113185D01*
X0017961Y0113185D01*
X0018426Y0112721D01*
X0019454Y0112295D01*
X0020567Y0112295D01*
X0020577Y0112299D01*
X0020577Y0109802D01*
X0013918Y0109802D01*
X0013768Y0109652D01*
X0012890Y0110016D01*
X0011777Y0110016D01*
X0010749Y0109590D01*
X0009962Y0108803D01*
X0009536Y0107775D01*
X0009536Y0106662D01*
X0009962Y0105634D01*
X0010374Y0105222D01*
X0010126Y0104625D01*
X0010126Y0103512D01*
X0010552Y0102484D01*
X0011339Y0101697D01*
X0012368Y0101271D01*
X0012784Y0101271D01*
X0012784Y0100895D01*
X0017484Y0100895D01*
X0017484Y0100895D01*
X0012784Y0100895D01*
X0012784Y0099877D01*
X0012784Y0100160D02*
X0008396Y0100160D01*
X0006797Y0101758D02*
X0011278Y0101758D01*
X0010191Y0103357D02*
X0006370Y0103357D01*
X0006370Y0104955D02*
X0010263Y0104955D01*
X0009581Y0106554D02*
X0006370Y0106554D01*
X0006370Y0108152D02*
X0009692Y0108152D01*
X0011137Y0109751D02*
X0006370Y0109751D01*
X0006370Y0111349D02*
X0020577Y0111349D01*
X0021991Y0108152D02*
X0034490Y0108152D01*
X0036088Y0106554D02*
X0021991Y0106554D01*
X0018199Y0112948D02*
X0006370Y0112948D01*
X0013530Y0109751D02*
X0013867Y0109751D01*
X0027089Y0100160D02*
X0038720Y0100160D01*
X0055391Y0100160D02*
X0059792Y0100160D01*
X0059792Y0098561D02*
X0055584Y0098561D01*
X0055584Y0096963D02*
X0061701Y0096963D01*
X0062554Y0095364D02*
X0055391Y0095364D01*
X0055391Y0093766D02*
X0060015Y0093766D01*
X0059792Y0092167D02*
X0055391Y0092167D01*
X0055391Y0090569D02*
X0055704Y0090569D01*
X0059121Y0090569D02*
X0059792Y0090569D01*
X0067296Y0096963D02*
X0069982Y0096963D01*
X0070161Y0098561D02*
X0069108Y0098561D01*
X0066819Y0102673D02*
X0066557Y0102673D01*
X0066557Y0105778D01*
X0066156Y0106179D01*
X0068045Y0108067D01*
X0070604Y0108067D01*
X0071721Y0109184D01*
X0072179Y0109642D01*
X0072690Y0109642D01*
X0068827Y0105779D01*
X0067710Y0104662D01*
X0067710Y0104347D01*
X0067245Y0103882D01*
X0066819Y0102854D01*
X0066819Y0102673D01*
X0067028Y0103357D02*
X0066557Y0103357D01*
X0066557Y0104955D02*
X0068003Y0104955D01*
X0066531Y0106554D02*
X0069602Y0106554D01*
X0070689Y0108152D02*
X0071200Y0108152D01*
X0071724Y0115459D02*
X0073309Y0115459D01*
X0073309Y0115459D01*
X0071724Y0115459D01*
X0071724Y0115459D01*
X0071566Y0119297D02*
X0071566Y0120009D01*
X0070780Y0120009D01*
X0070322Y0119886D01*
X0070200Y0119816D01*
X0067038Y0119816D01*
X0066871Y0120221D01*
X0066084Y0121008D01*
X0065055Y0121433D01*
X0063942Y0121433D01*
X0062914Y0121008D01*
X0062127Y0120221D01*
X0062020Y0119961D01*
X0056755Y0125226D01*
X0058648Y0125226D01*
X0059106Y0125349D01*
X0059517Y0125586D01*
X0059852Y0125921D01*
X0060089Y0126331D01*
X0060211Y0126789D01*
X0060211Y0129826D01*
X0056461Y0129826D01*
X0056461Y0130526D01*
X0056461Y0134113D01*
X0055761Y0134113D01*
X0055761Y0130526D01*
X0056461Y0130526D01*
X0060211Y0130526D01*
X0060211Y0133563D01*
X0060089Y0134021D01*
X0060036Y0134113D01*
X0064272Y0134113D01*
X0065214Y0135054D01*
X0065214Y0137468D01*
X0065922Y0136760D01*
X0065676Y0136514D01*
X0065439Y0136103D01*
X0065317Y0135646D01*
X0065317Y0132659D01*
X0067409Y0132659D01*
X0067409Y0132659D01*
X0065317Y0132659D01*
X0065317Y0129672D01*
X0065439Y0129214D01*
X0065676Y0128803D01*
X0066011Y0128468D01*
X0066422Y0128231D01*
X0066880Y0128109D01*
X0067666Y0128109D01*
X0067666Y0128986D01*
X0067667Y0128986D01*
X0067667Y0128109D01*
X0068454Y0128109D01*
X0068788Y0128198D01*
X0068788Y0127922D01*
X0069214Y0126894D01*
X0070001Y0126107D01*
X0071029Y0125681D01*
X0072142Y0125681D01*
X0073170Y0126107D01*
X0073957Y0126894D01*
X0074383Y0127922D01*
X0074383Y0128302D01*
X0076682Y0128302D01*
X0077624Y0129243D01*
X0077624Y0135948D01*
X0080885Y0135948D01*
X0080111Y0135174D01*
X0080111Y0134268D01*
X0079647Y0133803D01*
X0079221Y0132775D01*
X0079221Y0131662D01*
X0079647Y0130634D01*
X0080434Y0129847D01*
X0081462Y0129421D01*
X0082575Y0129421D01*
X0083603Y0129847D01*
X0084390Y0130634D01*
X0084816Y0131662D01*
X0084816Y0132775D01*
X0084390Y0133803D01*
X0084263Y0133931D01*
X0084777Y0134445D01*
X0084843Y0134445D01*
X0084843Y0132774D01*
X0088722Y0132774D01*
X0088722Y0131815D01*
X0084843Y0131815D01*
X0084843Y0129104D01*
X0084915Y0128836D01*
X0083142Y0127063D01*
X0079432Y0127063D01*
X0078491Y0126121D01*
X0078491Y0120459D01*
X0079432Y0119518D01*
X0086214Y0119518D01*
X0086214Y0119189D01*
X0079432Y0119189D01*
X0078491Y0118247D01*
X0078491Y0117323D01*
X0077624Y0117323D01*
X0077624Y0118874D01*
X0076682Y0119816D01*
X0074933Y0119816D01*
X0074811Y0119886D01*
X0074354Y0120009D01*
X0073567Y0120009D01*
X0073567Y0119297D01*
X0073566Y0119297D01*
X0073566Y0120009D01*
X0072780Y0120009D01*
X0072567Y0119952D01*
X0072354Y0120009D01*
X0071567Y0120009D01*
X0071567Y0119297D01*
X0071566Y0119297D01*
X0071566Y0119342D02*
X0071567Y0119342D01*
X0073566Y0119342D02*
X0073567Y0119342D01*
X0077156Y0119342D02*
X0086214Y0119342D01*
X0078491Y0117744D02*
X0077624Y0117744D01*
X0078491Y0120941D02*
X0066151Y0120941D01*
X0062847Y0120941D02*
X0061040Y0120941D01*
X0059442Y0122539D02*
X0078491Y0122539D01*
X0078491Y0124138D02*
X0057843Y0124138D01*
X0059667Y0125736D02*
X0070895Y0125736D01*
X0072276Y0125736D02*
X0078491Y0125736D01*
X0077314Y0128933D02*
X0084889Y0128933D01*
X0084843Y0130532D02*
X0084288Y0130532D01*
X0084816Y0132130D02*
X0088722Y0132130D01*
X0084843Y0133729D02*
X0084421Y0133729D01*
X0080265Y0135327D02*
X0077624Y0135327D01*
X0077624Y0133729D02*
X0079616Y0133729D01*
X0079221Y0132130D02*
X0077624Y0132130D01*
X0077624Y0130532D02*
X0079749Y0130532D01*
X0083414Y0127335D02*
X0074140Y0127335D01*
X0069031Y0127335D02*
X0060211Y0127335D01*
X0060211Y0128933D02*
X0065601Y0128933D01*
X0065317Y0130532D02*
X0060211Y0130532D01*
X0060211Y0132130D02*
X0065317Y0132130D01*
X0065317Y0133729D02*
X0060167Y0133729D01*
X0056461Y0133729D02*
X0055761Y0133729D01*
X0055761Y0132130D02*
X0056461Y0132130D01*
X0056461Y0130532D02*
X0055761Y0130532D01*
X0049657Y0135388D02*
X0048957Y0136088D01*
X0048957Y0138520D01*
X0045207Y0138520D01*
X0045207Y0137554D01*
X0044430Y0138330D01*
X0044228Y0138414D01*
X0045016Y0139202D01*
X0045016Y0141020D01*
X0045086Y0141142D01*
X0045207Y0141591D01*
X0045207Y0139220D01*
X0048957Y0139220D01*
X0048957Y0143820D01*
X0046770Y0143820D01*
X0046312Y0143697D01*
X0045901Y0143460D01*
X0045566Y0143125D01*
X0045329Y0142714D01*
X0045209Y0142265D01*
X0045209Y0142407D01*
X0044557Y0142407D01*
X0044557Y0142408D01*
X0045209Y0142408D01*
X0045209Y0143215D01*
X0045162Y0143392D01*
X0045209Y0143568D01*
X0045209Y0144376D01*
X0045209Y0145184D01*
X0045162Y0145360D01*
X0045209Y0145537D01*
X0045209Y0146344D01*
X0044557Y0146344D01*
X0044557Y0146344D01*
X0044557Y0146345D01*
X0045209Y0146345D01*
X0045209Y0147152D01*
X0045162Y0147329D01*
X0045209Y0147505D01*
X0045209Y0148313D01*
X0045209Y0149121D01*
X0045162Y0149297D01*
X0045209Y0149474D01*
X0045209Y0150281D01*
X0044557Y0150281D01*
X0044557Y0150282D01*
X0045209Y0150282D01*
X0045209Y0151089D01*
X0045086Y0151547D01*
X0044849Y0151958D01*
X0044514Y0152293D01*
X0044104Y0152530D01*
X0043646Y0152652D01*
X0042461Y0152652D01*
X0045694Y0155886D01*
X0048432Y0155886D01*
X0049374Y0156828D01*
X0049374Y0163277D01*
X0048995Y0163656D01*
X0049207Y0163868D01*
X0049444Y0164279D01*
X0049567Y0164737D01*
X0049567Y0167053D01*
X0045293Y0167053D01*
X0045293Y0168012D01*
X0044334Y0168012D01*
X0044334Y0167053D01*
X0040905Y0167053D01*
X0040905Y0167471D01*
X0037026Y0167471D01*
X0037026Y0168430D01*
X0040061Y0168430D01*
X0040061Y0168012D01*
X0044334Y0168012D01*
X0044334Y0171892D01*
X0041624Y0171892D01*
X0041166Y0171769D01*
X0040794Y0171554D01*
X0040782Y0171598D01*
X0040545Y0172009D01*
X0040210Y0172344D01*
X0039800Y0172581D01*
X0039342Y0172704D01*
X0037026Y0172704D01*
X0037026Y0168430D01*
X0036067Y0168430D01*
X0036067Y0172704D01*
X0033750Y0172704D01*
X0033292Y0172581D01*
X0032882Y0172344D01*
X0032669Y0172132D01*
X0032290Y0172511D01*
X0025948Y0172511D01*
X0025948Y0173687D01*
X0025168Y0176599D01*
X0023661Y0179209D01*
X0022562Y0180308D01*
X0067813Y0180308D01*
X0067813Y0173285D01*
X0068754Y0172344D01*
X0074810Y0172344D01*
X0075752Y0173285D01*
X0075752Y0180308D01*
X0081986Y0180308D01*
X0081986Y0173285D01*
X0082290Y0172982D01*
X0081293Y0171985D01*
X0081293Y0166896D01*
X0078991Y0166896D01*
X0078869Y0166775D01*
X0078747Y0166896D01*
X0075054Y0166896D01*
X0074112Y0165955D01*
X0074112Y0162920D01*
X0073520Y0163166D01*
X0072407Y0163166D01*
X0071379Y0162740D01*
X0070592Y0161953D01*
X0070166Y0160925D01*
X0070166Y0159812D01*
X0070592Y0158783D01*
X0071056Y0158319D01*
X0071056Y0153087D01*
X0061596Y0143627D01*
X0058341Y0143627D01*
X0058307Y0143592D01*
X0058272Y0143627D01*
X0052423Y0143627D01*
X0052301Y0143697D01*
X0051844Y0143820D01*
X0049657Y0143820D01*
X0049657Y0139220D01*
X0048957Y0139220D01*
X0048957Y0138520D01*
X0049657Y0138520D01*
X0049657Y0135388D01*
X0049657Y0136926D02*
X0048957Y0136926D01*
X0048957Y0138524D02*
X0044338Y0138524D01*
X0045016Y0140123D02*
X0045207Y0140123D01*
X0045181Y0143320D02*
X0045761Y0143320D01*
X0045209Y0144376D02*
X0044557Y0144376D01*
X0044557Y0144376D01*
X0044557Y0144376D01*
X0045209Y0144376D01*
X0045209Y0144918D02*
X0062887Y0144918D01*
X0064486Y0146517D02*
X0045209Y0146517D01*
X0045209Y0148115D02*
X0066084Y0148115D01*
X0067683Y0149714D02*
X0045209Y0149714D01*
X0045209Y0148313D02*
X0044557Y0148313D01*
X0044557Y0148313D01*
X0044557Y0148313D01*
X0045209Y0148313D01*
X0045149Y0151312D02*
X0069281Y0151312D01*
X0070880Y0152911D02*
X0042719Y0152911D01*
X0044317Y0154509D02*
X0071056Y0154509D01*
X0071056Y0156108D02*
X0048654Y0156108D01*
X0049374Y0157706D02*
X0071056Y0157706D01*
X0070376Y0159305D02*
X0049374Y0159305D01*
X0049374Y0160903D02*
X0070166Y0160903D01*
X0071141Y0162502D02*
X0049374Y0162502D01*
X0049341Y0164100D02*
X0074112Y0164100D01*
X0074112Y0165699D02*
X0049567Y0165699D01*
X0049567Y0168012D02*
X0049567Y0170329D01*
X0049444Y0170787D01*
X0049207Y0171197D01*
X0048872Y0171532D01*
X0048461Y0171769D01*
X0048004Y0171892D01*
X0045293Y0171892D01*
X0045293Y0168012D01*
X0049567Y0168012D01*
X0049567Y0168896D02*
X0081293Y0168896D01*
X0081293Y0170494D02*
X0049522Y0170494D01*
X0045293Y0170494D02*
X0044334Y0170494D01*
X0044334Y0168896D02*
X0045293Y0168896D01*
X0045293Y0167297D02*
X0081293Y0167297D01*
X0081401Y0172093D02*
X0040461Y0172093D01*
X0037026Y0172093D02*
X0036067Y0172093D01*
X0036067Y0170494D02*
X0037026Y0170494D01*
X0037026Y0168896D02*
X0036067Y0168896D01*
X0040905Y0167297D02*
X0044334Y0167297D01*
X0042031Y0150281D02*
X0042031Y0148313D01*
X0042031Y0148715D01*
X0042031Y0150281D01*
X0042031Y0150281D01*
X0042031Y0149714D02*
X0042031Y0149714D01*
X0042031Y0148313D02*
X0042031Y0148313D01*
X0042031Y0146345D01*
X0042031Y0146345D01*
X0042031Y0148313D01*
X0042031Y0148313D01*
X0042031Y0148115D02*
X0042031Y0148115D01*
X0042031Y0146517D02*
X0042031Y0146517D01*
X0042031Y0146344D02*
X0042031Y0144376D01*
X0042031Y0144376D01*
X0042031Y0144376D01*
X0042031Y0143974D01*
X0042031Y0142617D01*
X0042031Y0142617D01*
X0042031Y0144376D01*
X0042031Y0146344D01*
X0042031Y0146344D01*
X0042031Y0144918D02*
X0042031Y0144918D01*
X0042031Y0143320D02*
X0042031Y0143320D01*
X0048957Y0143320D02*
X0049657Y0143320D01*
X0049657Y0141721D02*
X0048957Y0141721D01*
X0048957Y0140123D02*
X0049657Y0140123D01*
X0065214Y0136926D02*
X0065756Y0136926D01*
X0065317Y0135327D02*
X0065214Y0135327D01*
X0068768Y0140225D02*
X0068768Y0141184D01*
X0071608Y0141184D01*
X0071608Y0140225D01*
X0068768Y0140225D01*
X0071608Y0140225D02*
X0071608Y0137016D01*
X0072567Y0137016D01*
X0072567Y0140225D01*
X0071608Y0140225D01*
X0071608Y0140123D02*
X0072567Y0140123D01*
X0072567Y0140225D02*
X0075402Y0140225D01*
X0075402Y0141184D01*
X0072567Y0141184D01*
X0071608Y0141184D01*
X0071608Y0145654D01*
X0071182Y0145654D01*
X0071741Y0146212D01*
X0071741Y0145835D01*
X0072166Y0144807D01*
X0072567Y0144406D01*
X0072567Y0141184D01*
X0072567Y0140225D01*
X0072567Y0141721D02*
X0071608Y0141721D01*
X0071608Y0143320D02*
X0072567Y0143320D01*
X0072120Y0144918D02*
X0071608Y0144918D01*
X0071608Y0138524D02*
X0072567Y0138524D01*
X0067666Y0128933D02*
X0067667Y0128933D01*
X0085134Y0149714D02*
X0117167Y0149714D01*
X0117167Y0148115D02*
X0086732Y0148115D01*
X0084319Y0151312D02*
X0117225Y0151312D01*
X0119971Y0151312D02*
X0119971Y0151312D01*
X0119971Y0152660D02*
X0119971Y0148912D01*
X0119971Y0148912D01*
X0119971Y0152660D01*
X0119971Y0149714D02*
X0119971Y0149714D01*
X0119971Y0148115D02*
X0119971Y0148115D01*
X0119971Y0146517D02*
X0119971Y0146517D01*
X0117223Y0146517D02*
X0093539Y0146517D01*
X0100422Y0144918D02*
X0161214Y0144918D01*
X0161214Y0143320D02*
X0100880Y0143320D01*
X0100880Y0141721D02*
X0161214Y0141721D01*
X0161214Y0140123D02*
X0100880Y0140123D01*
X0100622Y0156108D02*
X0103859Y0156108D01*
X0103748Y0156172D02*
X0104158Y0155935D01*
X0104616Y0155812D01*
X0113896Y0155812D01*
X0113896Y0166655D01*
X0103053Y0166655D01*
X0103053Y0157375D01*
X0103176Y0156917D01*
X0103413Y0156507D01*
X0103748Y0156172D01*
X0103053Y0157706D02*
X0101303Y0157706D01*
X0101303Y0159305D02*
X0103053Y0159305D01*
X0103053Y0160903D02*
X0101303Y0160903D01*
X0101303Y0162502D02*
X0103053Y0162502D01*
X0103053Y0164100D02*
X0101303Y0164100D01*
X0101303Y0165699D02*
X0103053Y0165699D01*
X0101303Y0167297D02*
X0113896Y0167297D01*
X0113896Y0165699D02*
X0115496Y0165699D01*
X0115496Y0167297D02*
X0128089Y0167297D01*
X0128089Y0165699D02*
X0126338Y0165699D01*
X0126338Y0164100D02*
X0128089Y0164100D01*
X0128089Y0162502D02*
X0126338Y0162502D01*
X0126338Y0160903D02*
X0128085Y0160903D01*
X0126487Y0159305D02*
X0126338Y0159305D01*
X0123064Y0154509D02*
X0084319Y0154509D01*
X0084319Y0152911D02*
X0123064Y0152911D01*
X0115496Y0156108D02*
X0113896Y0156108D01*
X0113896Y0157706D02*
X0115496Y0157706D01*
X0115496Y0159305D02*
X0113896Y0159305D01*
X0113896Y0160903D02*
X0115496Y0160903D01*
X0115496Y0162502D02*
X0113896Y0162502D01*
X0113896Y0164100D02*
X0115496Y0164100D01*
X0126338Y0168896D02*
X0128089Y0168896D01*
X0128089Y0170494D02*
X0126338Y0170494D01*
X0126338Y0172093D02*
X0128089Y0172093D01*
X0128089Y0173691D02*
X0126338Y0173691D01*
X0126338Y0175290D02*
X0128089Y0175290D01*
X0128089Y0176888D02*
X0126338Y0176888D01*
X0148389Y0152911D02*
X0150293Y0152911D01*
X0150293Y0151312D02*
X0148389Y0151312D01*
X0148389Y0149714D02*
X0150293Y0149714D01*
X0150463Y0148115D02*
X0148220Y0148115D01*
X0153740Y0156108D02*
X0159960Y0156108D01*
X0160988Y0154509D02*
X0161214Y0154509D01*
X0161214Y0152911D02*
X0160988Y0152911D01*
X0160988Y0151312D02*
X0161214Y0151312D01*
X0161214Y0149714D02*
X0160988Y0149714D01*
X0160818Y0148115D02*
X0161214Y0148115D01*
X0161214Y0146517D02*
X0137582Y0146517D01*
X0160331Y0122539D02*
X0161214Y0122539D01*
X0161214Y0120941D02*
X0160711Y0120941D01*
X0160711Y0119342D02*
X0161214Y0119342D01*
X0161214Y0117744D02*
X0160711Y0117744D01*
X0160711Y0116145D02*
X0161214Y0116145D01*
X0161214Y0114547D02*
X0159941Y0114547D01*
X0161214Y0112948D02*
X0146899Y0112948D01*
X0129782Y0093766D02*
X0079488Y0093766D01*
X0079488Y0094731D02*
X0075215Y0094731D01*
X0075215Y0090852D01*
X0077925Y0090852D01*
X0078383Y0090974D01*
X0078793Y0091211D01*
X0079128Y0091546D01*
X0079365Y0091957D01*
X0079488Y0092415D01*
X0079488Y0094731D01*
X0079422Y0092167D02*
X0131380Y0092167D01*
X0112966Y0063394D02*
X0161214Y0063394D01*
X0161214Y0061796D02*
X0112646Y0061796D01*
X0112530Y0054955D02*
X0114892Y0054955D01*
X0114892Y0054955D01*
X0112530Y0054955D01*
X0112530Y0054955D01*
X0112530Y0049008D02*
X0112530Y0049008D01*
X0114892Y0049008D02*
X0114893Y0049008D01*
X0110168Y0044058D02*
X0110168Y0042960D01*
X0110168Y0044058D01*
X0110168Y0042960D02*
X0110168Y0042960D01*
X0107806Y0042960D02*
X0107806Y0042960D01*
X0105444Y0042960D02*
X0105444Y0042960D01*
X0105444Y0048332D02*
X0105444Y0049430D01*
X0105444Y0048332D01*
X0105444Y0049008D02*
X0105444Y0049008D01*
X0105444Y0049430D02*
X0105444Y0049430D01*
X0103082Y0049008D02*
X0103081Y0049008D01*
X0103082Y0054955D02*
X0103082Y0054955D01*
X0105444Y0054955D01*
X0105444Y0054955D01*
X0103082Y0054955D01*
X0095995Y0054955D02*
X0093633Y0054955D01*
X0093633Y0054955D01*
X0095995Y0054955D01*
X0095995Y0054955D01*
X0095995Y0049430D02*
X0095995Y0048332D01*
X0095995Y0049430D01*
X0095995Y0049430D01*
X0095995Y0049008D02*
X0095995Y0049008D01*
X0093633Y0049008D02*
X0093633Y0049008D01*
X0093633Y0049430D02*
X0093633Y0048332D01*
X0093633Y0049430D01*
X0093633Y0049430D01*
X0091270Y0037435D02*
X0089035Y0037435D01*
X0088908Y0037435D01*
X0086546Y0037435D01*
X0084184Y0037435D01*
X0084184Y0037435D01*
X0086546Y0037435D01*
X0086546Y0037435D01*
X0086546Y0037435D01*
X0088908Y0037435D01*
X0088908Y0037435D01*
X0088908Y0037435D01*
X0091270Y0037435D01*
X0091270Y0037435D01*
X0091271Y0031910D02*
X0091271Y0030812D01*
X0091726Y0030812D01*
X0091726Y0022570D01*
X0092843Y0021453D01*
X0093860Y0020436D01*
X0068405Y0020436D01*
X0071443Y0023473D01*
X0071816Y0023319D01*
X0072929Y0023319D01*
X0073958Y0023744D01*
X0074735Y0024522D01*
X0075513Y0023744D01*
X0076541Y0023319D01*
X0077654Y0023319D01*
X0078682Y0023744D01*
X0079459Y0024522D01*
X0080237Y0023744D01*
X0081265Y0023319D01*
X0082378Y0023319D01*
X0083406Y0023744D01*
X0084193Y0024531D01*
X0084619Y0025560D01*
X0084619Y0026673D01*
X0084193Y0027701D01*
X0083929Y0027966D01*
X0083929Y0030812D01*
X0084184Y0030812D01*
X0085110Y0030812D01*
X0085365Y0030881D01*
X0085620Y0030812D01*
X0086546Y0030812D01*
X0086546Y0031910D01*
X0086546Y0031910D01*
X0086546Y0030812D01*
X0087472Y0030812D01*
X0087727Y0030881D01*
X0087982Y0030812D01*
X0088908Y0030812D01*
X0088908Y0031910D01*
X0088908Y0031910D01*
X0088908Y0030812D01*
X0089834Y0030812D01*
X0090089Y0030881D01*
X0090345Y0030812D01*
X0091270Y0030812D01*
X0091270Y0031910D01*
X0091271Y0031910D01*
X0091270Y0031424D02*
X0091271Y0031424D01*
X0091726Y0029825D02*
X0083929Y0029825D01*
X0084184Y0030812D02*
X0084184Y0031910D01*
X0084184Y0030812D01*
X0084184Y0031424D02*
X0084184Y0031424D01*
X0084184Y0031910D02*
X0084184Y0031910D01*
X0086546Y0031910D02*
X0086546Y0031910D01*
X0086546Y0031424D02*
X0086546Y0031424D01*
X0083929Y0028227D02*
X0091726Y0028227D01*
X0091726Y0026628D02*
X0084619Y0026628D01*
X0084400Y0025030D02*
X0091726Y0025030D01*
X0091726Y0023431D02*
X0082651Y0023431D01*
X0080993Y0023431D02*
X0077926Y0023431D01*
X0076268Y0023431D02*
X0073202Y0023431D01*
X0071544Y0023431D02*
X0071401Y0023431D01*
X0069802Y0021833D02*
X0092463Y0021833D01*
X0095540Y0024150D02*
X0095540Y0031005D01*
X0101576Y0031005D01*
X0101698Y0030935D01*
X0102156Y0030812D01*
X0103081Y0030812D01*
X0103081Y0031910D01*
X0103082Y0031910D02*
X0103082Y0030812D01*
X0104007Y0030812D01*
X0104263Y0030881D01*
X0104518Y0030812D01*
X0105444Y0030812D01*
X0106370Y0030812D01*
X0106625Y0030881D01*
X0106880Y0030812D01*
X0107806Y0030812D01*
X0108732Y0030812D01*
X0108987Y0030881D01*
X0109242Y0030812D01*
X0110168Y0030812D01*
X0110168Y0031910D01*
X0110168Y0031910D01*
X0110168Y0030812D01*
X0110623Y0030812D01*
X0110623Y0022964D01*
X0111273Y0022315D01*
X0097375Y0022315D01*
X0095540Y0024150D01*
X0095540Y0025030D02*
X0110623Y0025030D01*
X0110623Y0026628D02*
X0095540Y0026628D01*
X0095540Y0028227D02*
X0110623Y0028227D01*
X0110623Y0029825D02*
X0095540Y0029825D01*
X0096259Y0023431D02*
X0110623Y0023431D01*
X0107806Y0030812D02*
X0107806Y0031910D01*
X0107806Y0031910D01*
X0107806Y0031910D01*
X0107806Y0030812D01*
X0107806Y0031424D02*
X0107806Y0031424D01*
X0110168Y0031424D02*
X0110168Y0031424D01*
X0105444Y0031424D02*
X0105444Y0031424D01*
X0105444Y0031910D02*
X0105444Y0030812D01*
X0105444Y0031910D01*
X0105444Y0031910D01*
X0105444Y0031910D01*
X0103082Y0031910D02*
X0103081Y0031910D01*
X0103081Y0031424D02*
X0103082Y0031424D01*
X0103082Y0037435D02*
X0105317Y0037435D01*
X0105444Y0037435D01*
X0107679Y0037435D01*
X0107806Y0037435D01*
X0110168Y0037435D01*
X0110168Y0037435D01*
X0107806Y0037435D01*
X0107806Y0037435D01*
X0107806Y0037435D01*
X0105444Y0037435D01*
X0105444Y0037435D01*
X0105444Y0037435D01*
X0103082Y0037435D01*
X0103082Y0037435D01*
X0088908Y0031910D02*
X0088908Y0031910D01*
X0088908Y0031424D02*
X0088908Y0031424D01*
X0067648Y0060479D02*
X0067648Y0060480D01*
X0067648Y0061578D01*
X0067648Y0060479D01*
X0074255Y0092167D02*
X0075215Y0092167D01*
X0075215Y0093766D02*
X0074255Y0093766D01*
X0062343Y0103357D02*
X0058767Y0103357D01*
X0058695Y0104955D02*
X0061420Y0104955D01*
X0059821Y0106554D02*
X0059575Y0106554D01*
X0059819Y0101758D02*
X0057680Y0101758D01*
X0015441Y0142984D02*
X0010618Y0142984D01*
X0012637Y0145002D01*
X0012637Y0148819D01*
X0009938Y0151518D01*
X0006121Y0151518D01*
X0004488Y0149884D01*
X0004488Y0153664D01*
X0006041Y0152111D01*
X0007830Y0152111D01*
X0007830Y0156711D01*
X0008230Y0156711D01*
X0008230Y0157111D01*
X0012830Y0157111D01*
X0012830Y0158899D01*
X0010269Y0161459D01*
X0012991Y0160730D01*
X0015333Y0160730D01*
X0013422Y0158819D01*
X0013422Y0155002D01*
X0016121Y0152304D01*
X0019938Y0152304D01*
X0020463Y0152828D01*
X0020463Y0150993D01*
X0019938Y0151518D01*
X0016121Y0151518D01*
X0013422Y0148819D01*
X0013422Y0145002D01*
X0015441Y0142984D01*
X0015105Y0143320D02*
X0010954Y0143320D01*
X0012552Y0144918D02*
X0013507Y0144918D01*
X0013422Y0146517D02*
X0012637Y0146517D01*
X0012637Y0148115D02*
X0013422Y0148115D01*
X0014317Y0149714D02*
X0011742Y0149714D01*
X0010143Y0151312D02*
X0015916Y0151312D01*
X0015514Y0152911D02*
X0010818Y0152911D01*
X0010018Y0152111D02*
X0012830Y0154922D01*
X0012830Y0156711D01*
X0008230Y0156711D01*
X0008230Y0152111D01*
X0010018Y0152111D01*
X0008230Y0152911D02*
X0007830Y0152911D01*
X0007830Y0154509D02*
X0008230Y0154509D01*
X0008230Y0156108D02*
X0007830Y0156108D01*
X0007830Y0157111D02*
X0007830Y0161711D01*
X0006041Y0161711D01*
X0004488Y0160157D01*
X0004488Y0166620D01*
X0005337Y0165149D01*
X0007469Y0163017D01*
X0009732Y0161711D01*
X0008230Y0161711D01*
X0008230Y0157111D01*
X0007830Y0157111D01*
X0007830Y0157706D02*
X0008230Y0157706D01*
X0008230Y0159305D02*
X0007830Y0159305D01*
X0007830Y0160903D02*
X0008230Y0160903D01*
X0008361Y0162502D02*
X0004488Y0162502D01*
X0004488Y0164100D02*
X0006385Y0164100D01*
X0005019Y0165699D02*
X0004488Y0165699D01*
X0004488Y0160903D02*
X0005234Y0160903D01*
X0010825Y0160903D02*
X0012343Y0160903D01*
X0012424Y0159305D02*
X0013908Y0159305D01*
X0013422Y0157706D02*
X0012830Y0157706D01*
X0012830Y0156108D02*
X0013422Y0156108D01*
X0013915Y0154509D02*
X0012416Y0154509D01*
X0005916Y0151312D02*
X0004488Y0151312D01*
X0004488Y0152911D02*
X0005241Y0152911D01*
X0020143Y0151312D02*
X0020463Y0151312D01*
X0025947Y0173691D02*
X0067813Y0173691D01*
X0067813Y0175290D02*
X0025519Y0175290D01*
X0025001Y0176888D02*
X0067813Y0176888D01*
X0067813Y0178487D02*
X0024078Y0178487D01*
X0022785Y0180085D02*
X0067813Y0180085D01*
X0075752Y0180085D02*
X0081986Y0180085D01*
X0081986Y0178487D02*
X0075752Y0178487D01*
X0075752Y0176888D02*
X0081986Y0176888D01*
X0081986Y0175290D02*
X0075752Y0175290D01*
X0075752Y0173691D02*
X0081986Y0173691D01*
X0088359Y0167297D02*
X0091081Y0167297D01*
X0091081Y0165699D02*
X0087566Y0165699D01*
X0085107Y0164100D02*
X0091081Y0164100D01*
X0091081Y0162502D02*
X0085107Y0162502D01*
X0085107Y0160903D02*
X0091081Y0160903D01*
X0091081Y0159305D02*
X0085107Y0159305D01*
X0084613Y0157706D02*
X0091081Y0157706D01*
X0091762Y0156108D02*
X0084319Y0156108D01*
X0090720Y0168896D02*
X0091081Y0168896D01*
X0101303Y0168896D02*
X0103053Y0168896D01*
X0103053Y0170494D02*
X0101303Y0170494D01*
X0101303Y0172093D02*
X0103053Y0172093D01*
X0103053Y0173691D02*
X0101303Y0173691D01*
X0101303Y0175290D02*
X0103053Y0175290D01*
X0103053Y0176888D02*
X0101303Y0176888D01*
X0011903Y0080978D02*
X0011744Y0080978D01*
X0121913Y0060197D02*
X0161214Y0060197D01*
X0161214Y0058599D02*
X0121913Y0058599D01*
X0124973Y0057000D02*
X0127681Y0057000D01*
X0130450Y0057000D02*
X0161214Y0057000D01*
X0161214Y0055402D02*
X0132480Y0055402D01*
X0133031Y0053803D02*
X0161214Y0053803D01*
X0161214Y0052205D02*
X0133031Y0052205D01*
X0132739Y0050606D02*
X0161214Y0050606D01*
X0161214Y0049008D02*
X0142579Y0049008D01*
X0143661Y0047409D02*
X0161214Y0047409D01*
X0161214Y0045811D02*
X0143661Y0045811D01*
X0143661Y0044212D02*
X0148205Y0044212D01*
X0146606Y0042613D02*
X0143661Y0042613D01*
X0143196Y0041015D02*
X0145008Y0041015D01*
X0139388Y0045811D02*
X0138429Y0045811D01*
X0138429Y0047409D02*
X0139388Y0047409D01*
X0139388Y0049008D02*
X0138429Y0049008D01*
X0135237Y0049008D02*
X0131581Y0049008D01*
X0126551Y0049008D02*
X0121454Y0049008D01*
X0121913Y0050606D02*
X0125393Y0050606D01*
X0125100Y0052205D02*
X0124069Y0052205D01*
X0122251Y0052205D02*
X0121913Y0052205D01*
X0125272Y0031424D02*
X0126231Y0031424D01*
X0126231Y0029825D02*
X0125272Y0029825D01*
X0125272Y0028227D02*
X0126231Y0028227D01*
D38*
X0156231Y0030447D03*
X0156231Y0172179D03*
X0014499Y0172179D03*
X0014499Y0030447D03*
M02*
