G75*
%MOIN*%
%OFA0B0*%
%FSLAX25Y25*%
%IPPOS*%
%LPD*%
%AMOC8*
5,1,8,0,0,1.08239X$1,22.5*
%
%ADD10C,0.00000*%
%ADD11C,0.04731*%
%ADD12C,0.03156*%
%ADD13R,0.01778X0.10046*%
%ADD14R,0.06200X0.02400*%
%ADD15R,0.02400X0.06200*%
%ADD16C,0.06400*%
%ADD17OC8,0.06400*%
%ADD18R,0.06306X0.05518*%
%ADD19R,0.05912X0.04731*%
%ADD20R,0.05518X0.06306*%
%ADD21R,0.01542X0.03156*%
%ADD22R,0.03156X0.01542*%
%ADD23R,0.05000X0.06700*%
%ADD24R,0.01500X0.05900*%
%ADD25R,0.05518X0.06699*%
%ADD26R,0.06502X0.02762*%
%ADD27R,0.07093X0.05912*%
%ADD28R,0.06306X0.03550*%
%ADD29R,0.04928X0.06306*%
%ADD30R,0.05124X0.07487*%
%ADD31R,0.02762X0.06306*%
%ADD32R,0.02408X0.04298*%
%ADD33R,0.07880X0.05518*%
%ADD34R,0.07408X0.20400*%
%ADD35R,0.20085X0.20085*%
D10*
X0014499Y0018636D02*
X0156231Y0018636D01*
X0156516Y0018639D01*
X0156802Y0018650D01*
X0157087Y0018667D01*
X0157371Y0018691D01*
X0157655Y0018722D01*
X0157938Y0018760D01*
X0158219Y0018805D01*
X0158500Y0018856D01*
X0158780Y0018914D01*
X0159058Y0018979D01*
X0159334Y0019051D01*
X0159608Y0019129D01*
X0159881Y0019214D01*
X0160151Y0019306D01*
X0160419Y0019404D01*
X0160685Y0019508D01*
X0160948Y0019619D01*
X0161208Y0019736D01*
X0161466Y0019859D01*
X0161720Y0019989D01*
X0161971Y0020125D01*
X0162219Y0020266D01*
X0162463Y0020414D01*
X0162704Y0020567D01*
X0162940Y0020727D01*
X0163173Y0020892D01*
X0163402Y0021062D01*
X0163627Y0021238D01*
X0163847Y0021420D01*
X0164063Y0021606D01*
X0164274Y0021798D01*
X0164481Y0021995D01*
X0164683Y0022197D01*
X0164880Y0022404D01*
X0165072Y0022615D01*
X0165258Y0022831D01*
X0165440Y0023051D01*
X0165616Y0023276D01*
X0165786Y0023505D01*
X0165951Y0023738D01*
X0166111Y0023974D01*
X0166264Y0024215D01*
X0166412Y0024459D01*
X0166553Y0024707D01*
X0166689Y0024958D01*
X0166819Y0025212D01*
X0166942Y0025470D01*
X0167059Y0025730D01*
X0167170Y0025993D01*
X0167274Y0026259D01*
X0167372Y0026527D01*
X0167464Y0026797D01*
X0167549Y0027070D01*
X0167627Y0027344D01*
X0167699Y0027620D01*
X0167764Y0027898D01*
X0167822Y0028178D01*
X0167873Y0028459D01*
X0167918Y0028740D01*
X0167956Y0029023D01*
X0167987Y0029307D01*
X0168011Y0029591D01*
X0168028Y0029876D01*
X0168039Y0030162D01*
X0168042Y0030447D01*
X0168042Y0172179D01*
X0168039Y0172464D01*
X0168028Y0172750D01*
X0168011Y0173035D01*
X0167987Y0173319D01*
X0167956Y0173603D01*
X0167918Y0173886D01*
X0167873Y0174167D01*
X0167822Y0174448D01*
X0167764Y0174728D01*
X0167699Y0175006D01*
X0167627Y0175282D01*
X0167549Y0175556D01*
X0167464Y0175829D01*
X0167372Y0176099D01*
X0167274Y0176367D01*
X0167170Y0176633D01*
X0167059Y0176896D01*
X0166942Y0177156D01*
X0166819Y0177414D01*
X0166689Y0177668D01*
X0166553Y0177919D01*
X0166412Y0178167D01*
X0166264Y0178411D01*
X0166111Y0178652D01*
X0165951Y0178888D01*
X0165786Y0179121D01*
X0165616Y0179350D01*
X0165440Y0179575D01*
X0165258Y0179795D01*
X0165072Y0180011D01*
X0164880Y0180222D01*
X0164683Y0180429D01*
X0164481Y0180631D01*
X0164274Y0180828D01*
X0164063Y0181020D01*
X0163847Y0181206D01*
X0163627Y0181388D01*
X0163402Y0181564D01*
X0163173Y0181734D01*
X0162940Y0181899D01*
X0162704Y0182059D01*
X0162463Y0182212D01*
X0162219Y0182360D01*
X0161971Y0182501D01*
X0161720Y0182637D01*
X0161466Y0182767D01*
X0161208Y0182890D01*
X0160948Y0183007D01*
X0160685Y0183118D01*
X0160419Y0183222D01*
X0160151Y0183320D01*
X0159881Y0183412D01*
X0159608Y0183497D01*
X0159334Y0183575D01*
X0159058Y0183647D01*
X0158780Y0183712D01*
X0158500Y0183770D01*
X0158219Y0183821D01*
X0157938Y0183866D01*
X0157655Y0183904D01*
X0157371Y0183935D01*
X0157087Y0183959D01*
X0156802Y0183976D01*
X0156516Y0183987D01*
X0156231Y0183990D01*
X0014499Y0183990D01*
X0014214Y0183987D01*
X0013928Y0183976D01*
X0013643Y0183959D01*
X0013359Y0183935D01*
X0013075Y0183904D01*
X0012792Y0183866D01*
X0012511Y0183821D01*
X0012230Y0183770D01*
X0011950Y0183712D01*
X0011672Y0183647D01*
X0011396Y0183575D01*
X0011122Y0183497D01*
X0010849Y0183412D01*
X0010579Y0183320D01*
X0010311Y0183222D01*
X0010045Y0183118D01*
X0009782Y0183007D01*
X0009522Y0182890D01*
X0009264Y0182767D01*
X0009010Y0182637D01*
X0008759Y0182501D01*
X0008511Y0182360D01*
X0008267Y0182212D01*
X0008026Y0182059D01*
X0007790Y0181899D01*
X0007557Y0181734D01*
X0007328Y0181564D01*
X0007103Y0181388D01*
X0006883Y0181206D01*
X0006667Y0181020D01*
X0006456Y0180828D01*
X0006249Y0180631D01*
X0006047Y0180429D01*
X0005850Y0180222D01*
X0005658Y0180011D01*
X0005472Y0179795D01*
X0005290Y0179575D01*
X0005114Y0179350D01*
X0004944Y0179121D01*
X0004779Y0178888D01*
X0004619Y0178652D01*
X0004466Y0178411D01*
X0004318Y0178167D01*
X0004177Y0177919D01*
X0004041Y0177668D01*
X0003911Y0177414D01*
X0003788Y0177156D01*
X0003671Y0176896D01*
X0003560Y0176633D01*
X0003456Y0176367D01*
X0003358Y0176099D01*
X0003266Y0175829D01*
X0003181Y0175556D01*
X0003103Y0175282D01*
X0003031Y0175006D01*
X0002966Y0174728D01*
X0002908Y0174448D01*
X0002857Y0174167D01*
X0002812Y0173886D01*
X0002774Y0173603D01*
X0002743Y0173319D01*
X0002719Y0173035D01*
X0002702Y0172750D01*
X0002691Y0172464D01*
X0002688Y0172179D01*
X0002688Y0030447D01*
X0002691Y0030162D01*
X0002702Y0029876D01*
X0002719Y0029591D01*
X0002743Y0029307D01*
X0002774Y0029023D01*
X0002812Y0028740D01*
X0002857Y0028459D01*
X0002908Y0028178D01*
X0002966Y0027898D01*
X0003031Y0027620D01*
X0003103Y0027344D01*
X0003181Y0027070D01*
X0003266Y0026797D01*
X0003358Y0026527D01*
X0003456Y0026259D01*
X0003560Y0025993D01*
X0003671Y0025730D01*
X0003788Y0025470D01*
X0003911Y0025212D01*
X0004041Y0024958D01*
X0004177Y0024707D01*
X0004318Y0024459D01*
X0004466Y0024215D01*
X0004619Y0023974D01*
X0004779Y0023738D01*
X0004944Y0023505D01*
X0005114Y0023276D01*
X0005290Y0023051D01*
X0005472Y0022831D01*
X0005658Y0022615D01*
X0005850Y0022404D01*
X0006047Y0022197D01*
X0006249Y0021995D01*
X0006456Y0021798D01*
X0006667Y0021606D01*
X0006883Y0021420D01*
X0007103Y0021238D01*
X0007328Y0021062D01*
X0007557Y0020892D01*
X0007790Y0020727D01*
X0008026Y0020567D01*
X0008267Y0020414D01*
X0008511Y0020266D01*
X0008759Y0020125D01*
X0009010Y0019989D01*
X0009264Y0019859D01*
X0009522Y0019736D01*
X0009782Y0019619D01*
X0010045Y0019508D01*
X0010311Y0019404D01*
X0010579Y0019306D01*
X0010849Y0019214D01*
X0011122Y0019129D01*
X0011396Y0019051D01*
X0011672Y0018979D01*
X0011950Y0018914D01*
X0012230Y0018856D01*
X0012511Y0018805D01*
X0012792Y0018760D01*
X0013075Y0018722D01*
X0013359Y0018691D01*
X0013643Y0018667D01*
X0013928Y0018650D01*
X0014214Y0018639D01*
X0014499Y0018636D01*
X0040286Y0052100D02*
X0040288Y0052174D01*
X0040294Y0052248D01*
X0040304Y0052321D01*
X0040318Y0052394D01*
X0040335Y0052466D01*
X0040357Y0052536D01*
X0040382Y0052606D01*
X0040411Y0052674D01*
X0040444Y0052740D01*
X0040480Y0052805D01*
X0040520Y0052867D01*
X0040562Y0052928D01*
X0040608Y0052986D01*
X0040657Y0053041D01*
X0040709Y0053094D01*
X0040764Y0053144D01*
X0040821Y0053190D01*
X0040881Y0053234D01*
X0040943Y0053274D01*
X0041007Y0053311D01*
X0041073Y0053345D01*
X0041141Y0053375D01*
X0041210Y0053401D01*
X0041281Y0053424D01*
X0041352Y0053442D01*
X0041425Y0053457D01*
X0041498Y0053468D01*
X0041572Y0053475D01*
X0041646Y0053478D01*
X0041719Y0053477D01*
X0041793Y0053472D01*
X0041867Y0053463D01*
X0041940Y0053450D01*
X0042012Y0053433D01*
X0042083Y0053413D01*
X0042153Y0053388D01*
X0042221Y0053360D01*
X0042288Y0053329D01*
X0042353Y0053293D01*
X0042416Y0053255D01*
X0042477Y0053213D01*
X0042536Y0053167D01*
X0042592Y0053119D01*
X0042645Y0053068D01*
X0042695Y0053014D01*
X0042743Y0052957D01*
X0042787Y0052898D01*
X0042829Y0052836D01*
X0042867Y0052773D01*
X0042901Y0052707D01*
X0042932Y0052640D01*
X0042959Y0052571D01*
X0042982Y0052501D01*
X0043002Y0052430D01*
X0043018Y0052357D01*
X0043030Y0052284D01*
X0043038Y0052211D01*
X0043042Y0052137D01*
X0043042Y0052063D01*
X0043038Y0051989D01*
X0043030Y0051916D01*
X0043018Y0051843D01*
X0043002Y0051770D01*
X0042982Y0051699D01*
X0042959Y0051629D01*
X0042932Y0051560D01*
X0042901Y0051493D01*
X0042867Y0051427D01*
X0042829Y0051364D01*
X0042787Y0051302D01*
X0042743Y0051243D01*
X0042695Y0051186D01*
X0042645Y0051132D01*
X0042592Y0051081D01*
X0042536Y0051033D01*
X0042477Y0050987D01*
X0042416Y0050945D01*
X0042353Y0050907D01*
X0042288Y0050871D01*
X0042221Y0050840D01*
X0042153Y0050812D01*
X0042083Y0050787D01*
X0042012Y0050767D01*
X0041940Y0050750D01*
X0041867Y0050737D01*
X0041793Y0050728D01*
X0041719Y0050723D01*
X0041646Y0050722D01*
X0041572Y0050725D01*
X0041498Y0050732D01*
X0041425Y0050743D01*
X0041352Y0050758D01*
X0041281Y0050776D01*
X0041210Y0050799D01*
X0041141Y0050825D01*
X0041073Y0050855D01*
X0041007Y0050889D01*
X0040943Y0050926D01*
X0040881Y0050966D01*
X0040821Y0051010D01*
X0040764Y0051056D01*
X0040709Y0051106D01*
X0040657Y0051159D01*
X0040608Y0051214D01*
X0040562Y0051272D01*
X0040520Y0051333D01*
X0040480Y0051395D01*
X0040444Y0051460D01*
X0040411Y0051526D01*
X0040382Y0051594D01*
X0040357Y0051664D01*
X0040335Y0051734D01*
X0040318Y0051806D01*
X0040304Y0051879D01*
X0040294Y0051952D01*
X0040288Y0052026D01*
X0040286Y0052100D01*
X0040286Y0053281D02*
X0040288Y0053355D01*
X0040294Y0053429D01*
X0040304Y0053502D01*
X0040318Y0053575D01*
X0040335Y0053647D01*
X0040357Y0053717D01*
X0040382Y0053787D01*
X0040411Y0053855D01*
X0040444Y0053921D01*
X0040480Y0053986D01*
X0040520Y0054048D01*
X0040562Y0054109D01*
X0040608Y0054167D01*
X0040657Y0054222D01*
X0040709Y0054275D01*
X0040764Y0054325D01*
X0040821Y0054371D01*
X0040881Y0054415D01*
X0040943Y0054455D01*
X0041007Y0054492D01*
X0041073Y0054526D01*
X0041141Y0054556D01*
X0041210Y0054582D01*
X0041281Y0054605D01*
X0041352Y0054623D01*
X0041425Y0054638D01*
X0041498Y0054649D01*
X0041572Y0054656D01*
X0041646Y0054659D01*
X0041719Y0054658D01*
X0041793Y0054653D01*
X0041867Y0054644D01*
X0041940Y0054631D01*
X0042012Y0054614D01*
X0042083Y0054594D01*
X0042153Y0054569D01*
X0042221Y0054541D01*
X0042288Y0054510D01*
X0042353Y0054474D01*
X0042416Y0054436D01*
X0042477Y0054394D01*
X0042536Y0054348D01*
X0042592Y0054300D01*
X0042645Y0054249D01*
X0042695Y0054195D01*
X0042743Y0054138D01*
X0042787Y0054079D01*
X0042829Y0054017D01*
X0042867Y0053954D01*
X0042901Y0053888D01*
X0042932Y0053821D01*
X0042959Y0053752D01*
X0042982Y0053682D01*
X0043002Y0053611D01*
X0043018Y0053538D01*
X0043030Y0053465D01*
X0043038Y0053392D01*
X0043042Y0053318D01*
X0043042Y0053244D01*
X0043038Y0053170D01*
X0043030Y0053097D01*
X0043018Y0053024D01*
X0043002Y0052951D01*
X0042982Y0052880D01*
X0042959Y0052810D01*
X0042932Y0052741D01*
X0042901Y0052674D01*
X0042867Y0052608D01*
X0042829Y0052545D01*
X0042787Y0052483D01*
X0042743Y0052424D01*
X0042695Y0052367D01*
X0042645Y0052313D01*
X0042592Y0052262D01*
X0042536Y0052214D01*
X0042477Y0052168D01*
X0042416Y0052126D01*
X0042353Y0052088D01*
X0042288Y0052052D01*
X0042221Y0052021D01*
X0042153Y0051993D01*
X0042083Y0051968D01*
X0042012Y0051948D01*
X0041940Y0051931D01*
X0041867Y0051918D01*
X0041793Y0051909D01*
X0041719Y0051904D01*
X0041646Y0051903D01*
X0041572Y0051906D01*
X0041498Y0051913D01*
X0041425Y0051924D01*
X0041352Y0051939D01*
X0041281Y0051957D01*
X0041210Y0051980D01*
X0041141Y0052006D01*
X0041073Y0052036D01*
X0041007Y0052070D01*
X0040943Y0052107D01*
X0040881Y0052147D01*
X0040821Y0052191D01*
X0040764Y0052237D01*
X0040709Y0052287D01*
X0040657Y0052340D01*
X0040608Y0052395D01*
X0040562Y0052453D01*
X0040520Y0052514D01*
X0040480Y0052576D01*
X0040444Y0052641D01*
X0040411Y0052707D01*
X0040382Y0052775D01*
X0040357Y0052845D01*
X0040335Y0052915D01*
X0040318Y0052987D01*
X0040304Y0053060D01*
X0040294Y0053133D01*
X0040288Y0053207D01*
X0040286Y0053281D01*
X0126901Y0053281D02*
X0126903Y0053374D01*
X0126909Y0053466D01*
X0126919Y0053558D01*
X0126933Y0053649D01*
X0126950Y0053740D01*
X0126972Y0053830D01*
X0126997Y0053919D01*
X0127026Y0054007D01*
X0127059Y0054093D01*
X0127096Y0054178D01*
X0127136Y0054262D01*
X0127180Y0054343D01*
X0127227Y0054423D01*
X0127277Y0054501D01*
X0127331Y0054576D01*
X0127388Y0054649D01*
X0127448Y0054719D01*
X0127511Y0054787D01*
X0127577Y0054852D01*
X0127645Y0054914D01*
X0127716Y0054974D01*
X0127790Y0055030D01*
X0127866Y0055083D01*
X0127944Y0055132D01*
X0128024Y0055179D01*
X0128106Y0055221D01*
X0128190Y0055261D01*
X0128275Y0055296D01*
X0128362Y0055328D01*
X0128450Y0055357D01*
X0128539Y0055381D01*
X0128629Y0055402D01*
X0128720Y0055418D01*
X0128812Y0055431D01*
X0128904Y0055440D01*
X0128997Y0055445D01*
X0129089Y0055446D01*
X0129182Y0055443D01*
X0129274Y0055436D01*
X0129366Y0055425D01*
X0129457Y0055410D01*
X0129548Y0055392D01*
X0129638Y0055369D01*
X0129726Y0055343D01*
X0129814Y0055313D01*
X0129900Y0055279D01*
X0129984Y0055242D01*
X0130067Y0055200D01*
X0130148Y0055156D01*
X0130228Y0055108D01*
X0130305Y0055057D01*
X0130379Y0055002D01*
X0130452Y0054944D01*
X0130522Y0054884D01*
X0130589Y0054820D01*
X0130653Y0054754D01*
X0130715Y0054684D01*
X0130773Y0054613D01*
X0130828Y0054539D01*
X0130880Y0054462D01*
X0130929Y0054383D01*
X0130975Y0054303D01*
X0131017Y0054220D01*
X0131055Y0054136D01*
X0131090Y0054050D01*
X0131121Y0053963D01*
X0131148Y0053875D01*
X0131171Y0053785D01*
X0131191Y0053695D01*
X0131207Y0053604D01*
X0131219Y0053512D01*
X0131227Y0053420D01*
X0131231Y0053327D01*
X0131231Y0053235D01*
X0131227Y0053142D01*
X0131219Y0053050D01*
X0131207Y0052958D01*
X0131191Y0052867D01*
X0131171Y0052777D01*
X0131148Y0052687D01*
X0131121Y0052599D01*
X0131090Y0052512D01*
X0131055Y0052426D01*
X0131017Y0052342D01*
X0130975Y0052259D01*
X0130929Y0052179D01*
X0130880Y0052100D01*
X0130828Y0052023D01*
X0130773Y0051949D01*
X0130715Y0051878D01*
X0130653Y0051808D01*
X0130589Y0051742D01*
X0130522Y0051678D01*
X0130452Y0051618D01*
X0130379Y0051560D01*
X0130305Y0051505D01*
X0130228Y0051454D01*
X0130149Y0051406D01*
X0130067Y0051362D01*
X0129984Y0051320D01*
X0129900Y0051283D01*
X0129814Y0051249D01*
X0129726Y0051219D01*
X0129638Y0051193D01*
X0129548Y0051170D01*
X0129457Y0051152D01*
X0129366Y0051137D01*
X0129274Y0051126D01*
X0129182Y0051119D01*
X0129089Y0051116D01*
X0128997Y0051117D01*
X0128904Y0051122D01*
X0128812Y0051131D01*
X0128720Y0051144D01*
X0128629Y0051160D01*
X0128539Y0051181D01*
X0128450Y0051205D01*
X0128362Y0051234D01*
X0128275Y0051266D01*
X0128190Y0051301D01*
X0128106Y0051341D01*
X0128024Y0051383D01*
X0127944Y0051430D01*
X0127866Y0051479D01*
X0127790Y0051532D01*
X0127716Y0051588D01*
X0127645Y0051648D01*
X0127577Y0051710D01*
X0127511Y0051775D01*
X0127448Y0051843D01*
X0127388Y0051913D01*
X0127331Y0051986D01*
X0127277Y0052061D01*
X0127227Y0052139D01*
X0127180Y0052219D01*
X0127136Y0052300D01*
X0127096Y0052384D01*
X0127059Y0052469D01*
X0127026Y0052555D01*
X0126997Y0052643D01*
X0126972Y0052732D01*
X0126950Y0052822D01*
X0126933Y0052913D01*
X0126919Y0053004D01*
X0126909Y0053096D01*
X0126903Y0053188D01*
X0126901Y0053281D01*
X0126901Y0052100D02*
X0126903Y0052193D01*
X0126909Y0052285D01*
X0126919Y0052377D01*
X0126933Y0052468D01*
X0126950Y0052559D01*
X0126972Y0052649D01*
X0126997Y0052738D01*
X0127026Y0052826D01*
X0127059Y0052912D01*
X0127096Y0052997D01*
X0127136Y0053081D01*
X0127180Y0053162D01*
X0127227Y0053242D01*
X0127277Y0053320D01*
X0127331Y0053395D01*
X0127388Y0053468D01*
X0127448Y0053538D01*
X0127511Y0053606D01*
X0127577Y0053671D01*
X0127645Y0053733D01*
X0127716Y0053793D01*
X0127790Y0053849D01*
X0127866Y0053902D01*
X0127944Y0053951D01*
X0128024Y0053998D01*
X0128106Y0054040D01*
X0128190Y0054080D01*
X0128275Y0054115D01*
X0128362Y0054147D01*
X0128450Y0054176D01*
X0128539Y0054200D01*
X0128629Y0054221D01*
X0128720Y0054237D01*
X0128812Y0054250D01*
X0128904Y0054259D01*
X0128997Y0054264D01*
X0129089Y0054265D01*
X0129182Y0054262D01*
X0129274Y0054255D01*
X0129366Y0054244D01*
X0129457Y0054229D01*
X0129548Y0054211D01*
X0129638Y0054188D01*
X0129726Y0054162D01*
X0129814Y0054132D01*
X0129900Y0054098D01*
X0129984Y0054061D01*
X0130067Y0054019D01*
X0130148Y0053975D01*
X0130228Y0053927D01*
X0130305Y0053876D01*
X0130379Y0053821D01*
X0130452Y0053763D01*
X0130522Y0053703D01*
X0130589Y0053639D01*
X0130653Y0053573D01*
X0130715Y0053503D01*
X0130773Y0053432D01*
X0130828Y0053358D01*
X0130880Y0053281D01*
X0130929Y0053202D01*
X0130975Y0053122D01*
X0131017Y0053039D01*
X0131055Y0052955D01*
X0131090Y0052869D01*
X0131121Y0052782D01*
X0131148Y0052694D01*
X0131171Y0052604D01*
X0131191Y0052514D01*
X0131207Y0052423D01*
X0131219Y0052331D01*
X0131227Y0052239D01*
X0131231Y0052146D01*
X0131231Y0052054D01*
X0131227Y0051961D01*
X0131219Y0051869D01*
X0131207Y0051777D01*
X0131191Y0051686D01*
X0131171Y0051596D01*
X0131148Y0051506D01*
X0131121Y0051418D01*
X0131090Y0051331D01*
X0131055Y0051245D01*
X0131017Y0051161D01*
X0130975Y0051078D01*
X0130929Y0050998D01*
X0130880Y0050919D01*
X0130828Y0050842D01*
X0130773Y0050768D01*
X0130715Y0050697D01*
X0130653Y0050627D01*
X0130589Y0050561D01*
X0130522Y0050497D01*
X0130452Y0050437D01*
X0130379Y0050379D01*
X0130305Y0050324D01*
X0130228Y0050273D01*
X0130149Y0050225D01*
X0130067Y0050181D01*
X0129984Y0050139D01*
X0129900Y0050102D01*
X0129814Y0050068D01*
X0129726Y0050038D01*
X0129638Y0050012D01*
X0129548Y0049989D01*
X0129457Y0049971D01*
X0129366Y0049956D01*
X0129274Y0049945D01*
X0129182Y0049938D01*
X0129089Y0049935D01*
X0128997Y0049936D01*
X0128904Y0049941D01*
X0128812Y0049950D01*
X0128720Y0049963D01*
X0128629Y0049979D01*
X0128539Y0050000D01*
X0128450Y0050024D01*
X0128362Y0050053D01*
X0128275Y0050085D01*
X0128190Y0050120D01*
X0128106Y0050160D01*
X0128024Y0050202D01*
X0127944Y0050249D01*
X0127866Y0050298D01*
X0127790Y0050351D01*
X0127716Y0050407D01*
X0127645Y0050467D01*
X0127577Y0050529D01*
X0127511Y0050594D01*
X0127448Y0050662D01*
X0127388Y0050732D01*
X0127331Y0050805D01*
X0127277Y0050880D01*
X0127227Y0050958D01*
X0127180Y0051038D01*
X0127136Y0051119D01*
X0127096Y0051203D01*
X0127059Y0051288D01*
X0127026Y0051374D01*
X0126997Y0051462D01*
X0126972Y0051551D01*
X0126950Y0051641D01*
X0126933Y0051732D01*
X0126919Y0051823D01*
X0126909Y0051915D01*
X0126903Y0052007D01*
X0126901Y0052100D01*
D11*
X0129066Y0052100D03*
X0129066Y0053281D03*
D12*
X0041664Y0053281D03*
X0041664Y0052100D03*
D13*
X0051113Y0054955D03*
X0053475Y0054955D03*
X0055837Y0054955D03*
X0058200Y0054955D03*
X0060562Y0054955D03*
X0062924Y0054955D03*
X0065286Y0054955D03*
X0067648Y0054955D03*
X0070011Y0054955D03*
X0072373Y0054955D03*
X0074735Y0054955D03*
X0077097Y0054955D03*
X0079459Y0054955D03*
X0081822Y0054955D03*
X0084184Y0054955D03*
X0086546Y0054955D03*
X0088908Y0054955D03*
X0091270Y0054955D03*
X0093633Y0054955D03*
X0095995Y0054955D03*
X0098357Y0054955D03*
X0100719Y0054955D03*
X0103081Y0054955D03*
X0105444Y0054955D03*
X0107806Y0054955D03*
X0110168Y0054955D03*
X0112530Y0054955D03*
X0114893Y0054955D03*
X0117255Y0054955D03*
X0119617Y0054955D03*
X0119617Y0037435D03*
X0117255Y0037435D03*
X0114893Y0037435D03*
X0112530Y0037435D03*
X0110168Y0037435D03*
X0107806Y0037435D03*
X0105444Y0037435D03*
X0103081Y0037435D03*
X0100719Y0037435D03*
X0098357Y0037435D03*
X0095995Y0037435D03*
X0093633Y0037435D03*
X0091270Y0037435D03*
X0088908Y0037435D03*
X0086546Y0037435D03*
X0084184Y0037435D03*
X0081822Y0037435D03*
X0079459Y0037435D03*
X0077097Y0037435D03*
X0074735Y0037435D03*
X0072373Y0037435D03*
X0070011Y0037435D03*
X0067648Y0037435D03*
X0065286Y0037435D03*
X0062924Y0037435D03*
X0060562Y0037435D03*
X0058200Y0037435D03*
X0055837Y0037435D03*
X0053475Y0037435D03*
X0051113Y0037435D03*
D14*
X0050884Y0085195D03*
X0050884Y0088295D03*
X0050884Y0091495D03*
X0050884Y0094595D03*
X0050884Y0097795D03*
X0050884Y0100895D03*
X0050884Y0104095D03*
X0050884Y0107195D03*
X0017484Y0107195D03*
X0017484Y0104095D03*
X0017484Y0100895D03*
X0017484Y0097795D03*
X0017484Y0094595D03*
X0017484Y0091495D03*
X0017484Y0088295D03*
X0017484Y0085195D03*
D15*
X0023184Y0079495D03*
X0026284Y0079495D03*
X0029484Y0079495D03*
X0032584Y0079495D03*
X0035784Y0079495D03*
X0038884Y0079495D03*
X0042084Y0079495D03*
X0045184Y0079495D03*
X0045184Y0112895D03*
X0042084Y0112895D03*
X0038884Y0112895D03*
X0035784Y0112895D03*
X0032584Y0112895D03*
X0029484Y0112895D03*
X0026284Y0112895D03*
X0023184Y0112895D03*
D16*
X0018030Y0136911D03*
D17*
X0018030Y0146911D03*
X0018030Y0156911D03*
X0008030Y0156911D03*
X0008030Y0146911D03*
X0008030Y0136911D03*
D18*
X0044814Y0160052D03*
X0044814Y0167533D03*
X0074735Y0101904D03*
X0074735Y0095211D03*
X0138908Y0044785D03*
X0138908Y0037304D03*
X0007137Y0052888D03*
X0007137Y0060368D03*
D19*
X0082854Y0115416D03*
X0082854Y0123290D03*
D20*
X0089202Y0132294D03*
X0096682Y0132294D03*
X0036546Y0159974D03*
X0029066Y0159974D03*
X0029066Y0167951D03*
X0036546Y0167951D03*
X0125752Y0027494D03*
X0133232Y0027494D03*
D21*
X0039570Y0137978D03*
X0037602Y0137978D03*
X0035633Y0137978D03*
X0033665Y0137978D03*
X0031696Y0137978D03*
X0029728Y0137978D03*
X0029728Y0152742D03*
X0031696Y0152742D03*
X0033665Y0152742D03*
X0035633Y0152742D03*
X0037602Y0152742D03*
X0039570Y0152742D03*
D22*
X0042031Y0150281D03*
X0042031Y0148313D03*
X0042031Y0146344D03*
X0042031Y0144376D03*
X0042031Y0142407D03*
X0042031Y0140439D03*
X0027267Y0140439D03*
X0027267Y0142407D03*
X0027267Y0144376D03*
X0027267Y0146344D03*
X0027267Y0148313D03*
X0027267Y0150281D03*
D23*
X0044111Y0130176D03*
X0050111Y0130176D03*
X0056111Y0130176D03*
X0055307Y0138870D03*
X0049307Y0138870D03*
X0061307Y0138870D03*
D24*
X0067667Y0132659D03*
X0069567Y0132659D03*
X0071567Y0132659D03*
X0073567Y0132659D03*
X0075467Y0132659D03*
X0075467Y0115459D03*
X0073567Y0115459D03*
X0071567Y0115459D03*
X0069567Y0115459D03*
X0067667Y0115459D03*
D25*
X0072088Y0140704D03*
X0079568Y0140704D03*
X0089233Y0140645D03*
X0096714Y0140645D03*
D26*
X0064450Y0099885D03*
X0064450Y0091696D03*
D27*
X0155757Y0070312D03*
X0155757Y0118737D03*
D28*
X0144340Y0104761D03*
X0144340Y0100430D03*
X0144340Y0096100D03*
X0144340Y0091769D03*
X0144340Y0087438D03*
X0144340Y0083107D03*
X0144340Y0078777D03*
X0144340Y0074446D03*
D29*
X0098789Y0070509D03*
X0098789Y0104761D03*
D30*
X0085956Y0177494D03*
X0071782Y0177494D03*
D31*
X0076900Y0162337D03*
X0080837Y0162337D03*
D32*
X0119971Y0148911D03*
X0124971Y0148911D03*
X0129971Y0148911D03*
X0134971Y0148911D03*
X0134971Y0126313D03*
X0129971Y0126313D03*
X0124971Y0126313D03*
X0119971Y0126313D03*
D33*
X0143042Y0129856D03*
X0155641Y0129856D03*
X0155641Y0151510D03*
X0143042Y0151510D03*
D34*
X0133200Y0167455D03*
X0096192Y0167455D03*
D35*
X0114696Y0167455D03*
M02*
