G75*
%MOIN*%
%OFA0B0*%
%FSLAX25Y25*%
%IPPOS*%
%LPD*%
%AMOC8*
5,1,8,0,0,1.08239X$1,22.5*
%
%ADD10C,0.00000*%
%ADD11C,0.00591*%
%ADD12C,0.00300*%
%ADD13C,0.01000*%
%ADD14C,0.00400*%
%ADD15C,0.00600*%
%ADD16C,0.00500*%
%ADD17R,0.05512X0.02559*%
D10*
X0014499Y0018636D02*
X0156231Y0018636D01*
X0156516Y0018639D01*
X0156802Y0018650D01*
X0157087Y0018667D01*
X0157371Y0018691D01*
X0157655Y0018722D01*
X0157938Y0018760D01*
X0158219Y0018805D01*
X0158500Y0018856D01*
X0158780Y0018914D01*
X0159058Y0018979D01*
X0159334Y0019051D01*
X0159608Y0019129D01*
X0159881Y0019214D01*
X0160151Y0019306D01*
X0160419Y0019404D01*
X0160685Y0019508D01*
X0160948Y0019619D01*
X0161208Y0019736D01*
X0161466Y0019859D01*
X0161720Y0019989D01*
X0161971Y0020125D01*
X0162219Y0020266D01*
X0162463Y0020414D01*
X0162704Y0020567D01*
X0162940Y0020727D01*
X0163173Y0020892D01*
X0163402Y0021062D01*
X0163627Y0021238D01*
X0163847Y0021420D01*
X0164063Y0021606D01*
X0164274Y0021798D01*
X0164481Y0021995D01*
X0164683Y0022197D01*
X0164880Y0022404D01*
X0165072Y0022615D01*
X0165258Y0022831D01*
X0165440Y0023051D01*
X0165616Y0023276D01*
X0165786Y0023505D01*
X0165951Y0023738D01*
X0166111Y0023974D01*
X0166264Y0024215D01*
X0166412Y0024459D01*
X0166553Y0024707D01*
X0166689Y0024958D01*
X0166819Y0025212D01*
X0166942Y0025470D01*
X0167059Y0025730D01*
X0167170Y0025993D01*
X0167274Y0026259D01*
X0167372Y0026527D01*
X0167464Y0026797D01*
X0167549Y0027070D01*
X0167627Y0027344D01*
X0167699Y0027620D01*
X0167764Y0027898D01*
X0167822Y0028178D01*
X0167873Y0028459D01*
X0167918Y0028740D01*
X0167956Y0029023D01*
X0167987Y0029307D01*
X0168011Y0029591D01*
X0168028Y0029876D01*
X0168039Y0030162D01*
X0168042Y0030447D01*
X0168042Y0172179D01*
X0168039Y0172464D01*
X0168028Y0172750D01*
X0168011Y0173035D01*
X0167987Y0173319D01*
X0167956Y0173603D01*
X0167918Y0173886D01*
X0167873Y0174167D01*
X0167822Y0174448D01*
X0167764Y0174728D01*
X0167699Y0175006D01*
X0167627Y0175282D01*
X0167549Y0175556D01*
X0167464Y0175829D01*
X0167372Y0176099D01*
X0167274Y0176367D01*
X0167170Y0176633D01*
X0167059Y0176896D01*
X0166942Y0177156D01*
X0166819Y0177414D01*
X0166689Y0177668D01*
X0166553Y0177919D01*
X0166412Y0178167D01*
X0166264Y0178411D01*
X0166111Y0178652D01*
X0165951Y0178888D01*
X0165786Y0179121D01*
X0165616Y0179350D01*
X0165440Y0179575D01*
X0165258Y0179795D01*
X0165072Y0180011D01*
X0164880Y0180222D01*
X0164683Y0180429D01*
X0164481Y0180631D01*
X0164274Y0180828D01*
X0164063Y0181020D01*
X0163847Y0181206D01*
X0163627Y0181388D01*
X0163402Y0181564D01*
X0163173Y0181734D01*
X0162940Y0181899D01*
X0162704Y0182059D01*
X0162463Y0182212D01*
X0162219Y0182360D01*
X0161971Y0182501D01*
X0161720Y0182637D01*
X0161466Y0182767D01*
X0161208Y0182890D01*
X0160948Y0183007D01*
X0160685Y0183118D01*
X0160419Y0183222D01*
X0160151Y0183320D01*
X0159881Y0183412D01*
X0159608Y0183497D01*
X0159334Y0183575D01*
X0159058Y0183647D01*
X0158780Y0183712D01*
X0158500Y0183770D01*
X0158219Y0183821D01*
X0157938Y0183866D01*
X0157655Y0183904D01*
X0157371Y0183935D01*
X0157087Y0183959D01*
X0156802Y0183976D01*
X0156516Y0183987D01*
X0156231Y0183990D01*
X0014499Y0183990D01*
X0014214Y0183987D01*
X0013928Y0183976D01*
X0013643Y0183959D01*
X0013359Y0183935D01*
X0013075Y0183904D01*
X0012792Y0183866D01*
X0012511Y0183821D01*
X0012230Y0183770D01*
X0011950Y0183712D01*
X0011672Y0183647D01*
X0011396Y0183575D01*
X0011122Y0183497D01*
X0010849Y0183412D01*
X0010579Y0183320D01*
X0010311Y0183222D01*
X0010045Y0183118D01*
X0009782Y0183007D01*
X0009522Y0182890D01*
X0009264Y0182767D01*
X0009010Y0182637D01*
X0008759Y0182501D01*
X0008511Y0182360D01*
X0008267Y0182212D01*
X0008026Y0182059D01*
X0007790Y0181899D01*
X0007557Y0181734D01*
X0007328Y0181564D01*
X0007103Y0181388D01*
X0006883Y0181206D01*
X0006667Y0181020D01*
X0006456Y0180828D01*
X0006249Y0180631D01*
X0006047Y0180429D01*
X0005850Y0180222D01*
X0005658Y0180011D01*
X0005472Y0179795D01*
X0005290Y0179575D01*
X0005114Y0179350D01*
X0004944Y0179121D01*
X0004779Y0178888D01*
X0004619Y0178652D01*
X0004466Y0178411D01*
X0004318Y0178167D01*
X0004177Y0177919D01*
X0004041Y0177668D01*
X0003911Y0177414D01*
X0003788Y0177156D01*
X0003671Y0176896D01*
X0003560Y0176633D01*
X0003456Y0176367D01*
X0003358Y0176099D01*
X0003266Y0175829D01*
X0003181Y0175556D01*
X0003103Y0175282D01*
X0003031Y0175006D01*
X0002966Y0174728D01*
X0002908Y0174448D01*
X0002857Y0174167D01*
X0002812Y0173886D01*
X0002774Y0173603D01*
X0002743Y0173319D01*
X0002719Y0173035D01*
X0002702Y0172750D01*
X0002691Y0172464D01*
X0002688Y0172179D01*
X0002688Y0030447D01*
X0002691Y0030162D01*
X0002702Y0029876D01*
X0002719Y0029591D01*
X0002743Y0029307D01*
X0002774Y0029023D01*
X0002812Y0028740D01*
X0002857Y0028459D01*
X0002908Y0028178D01*
X0002966Y0027898D01*
X0003031Y0027620D01*
X0003103Y0027344D01*
X0003181Y0027070D01*
X0003266Y0026797D01*
X0003358Y0026527D01*
X0003456Y0026259D01*
X0003560Y0025993D01*
X0003671Y0025730D01*
X0003788Y0025470D01*
X0003911Y0025212D01*
X0004041Y0024958D01*
X0004177Y0024707D01*
X0004318Y0024459D01*
X0004466Y0024215D01*
X0004619Y0023974D01*
X0004779Y0023738D01*
X0004944Y0023505D01*
X0005114Y0023276D01*
X0005290Y0023051D01*
X0005472Y0022831D01*
X0005658Y0022615D01*
X0005850Y0022404D01*
X0006047Y0022197D01*
X0006249Y0021995D01*
X0006456Y0021798D01*
X0006667Y0021606D01*
X0006883Y0021420D01*
X0007103Y0021238D01*
X0007328Y0021062D01*
X0007557Y0020892D01*
X0007790Y0020727D01*
X0008026Y0020567D01*
X0008267Y0020414D01*
X0008511Y0020266D01*
X0008759Y0020125D01*
X0009010Y0019989D01*
X0009264Y0019859D01*
X0009522Y0019736D01*
X0009782Y0019619D01*
X0010045Y0019508D01*
X0010311Y0019404D01*
X0010579Y0019306D01*
X0010849Y0019214D01*
X0011122Y0019129D01*
X0011396Y0019051D01*
X0011672Y0018979D01*
X0011950Y0018914D01*
X0012230Y0018856D01*
X0012511Y0018805D01*
X0012792Y0018760D01*
X0013075Y0018722D01*
X0013359Y0018691D01*
X0013643Y0018667D01*
X0013928Y0018650D01*
X0014214Y0018639D01*
X0014499Y0018636D01*
X0040286Y0052100D02*
X0040288Y0052174D01*
X0040294Y0052248D01*
X0040304Y0052321D01*
X0040318Y0052394D01*
X0040335Y0052466D01*
X0040357Y0052536D01*
X0040382Y0052606D01*
X0040411Y0052674D01*
X0040444Y0052740D01*
X0040480Y0052805D01*
X0040520Y0052867D01*
X0040562Y0052928D01*
X0040608Y0052986D01*
X0040657Y0053041D01*
X0040709Y0053094D01*
X0040764Y0053144D01*
X0040821Y0053190D01*
X0040881Y0053234D01*
X0040943Y0053274D01*
X0041007Y0053311D01*
X0041073Y0053345D01*
X0041141Y0053375D01*
X0041210Y0053401D01*
X0041281Y0053424D01*
X0041352Y0053442D01*
X0041425Y0053457D01*
X0041498Y0053468D01*
X0041572Y0053475D01*
X0041646Y0053478D01*
X0041719Y0053477D01*
X0041793Y0053472D01*
X0041867Y0053463D01*
X0041940Y0053450D01*
X0042012Y0053433D01*
X0042083Y0053413D01*
X0042153Y0053388D01*
X0042221Y0053360D01*
X0042288Y0053329D01*
X0042353Y0053293D01*
X0042416Y0053255D01*
X0042477Y0053213D01*
X0042536Y0053167D01*
X0042592Y0053119D01*
X0042645Y0053068D01*
X0042695Y0053014D01*
X0042743Y0052957D01*
X0042787Y0052898D01*
X0042829Y0052836D01*
X0042867Y0052773D01*
X0042901Y0052707D01*
X0042932Y0052640D01*
X0042959Y0052571D01*
X0042982Y0052501D01*
X0043002Y0052430D01*
X0043018Y0052357D01*
X0043030Y0052284D01*
X0043038Y0052211D01*
X0043042Y0052137D01*
X0043042Y0052063D01*
X0043038Y0051989D01*
X0043030Y0051916D01*
X0043018Y0051843D01*
X0043002Y0051770D01*
X0042982Y0051699D01*
X0042959Y0051629D01*
X0042932Y0051560D01*
X0042901Y0051493D01*
X0042867Y0051427D01*
X0042829Y0051364D01*
X0042787Y0051302D01*
X0042743Y0051243D01*
X0042695Y0051186D01*
X0042645Y0051132D01*
X0042592Y0051081D01*
X0042536Y0051033D01*
X0042477Y0050987D01*
X0042416Y0050945D01*
X0042353Y0050907D01*
X0042288Y0050871D01*
X0042221Y0050840D01*
X0042153Y0050812D01*
X0042083Y0050787D01*
X0042012Y0050767D01*
X0041940Y0050750D01*
X0041867Y0050737D01*
X0041793Y0050728D01*
X0041719Y0050723D01*
X0041646Y0050722D01*
X0041572Y0050725D01*
X0041498Y0050732D01*
X0041425Y0050743D01*
X0041352Y0050758D01*
X0041281Y0050776D01*
X0041210Y0050799D01*
X0041141Y0050825D01*
X0041073Y0050855D01*
X0041007Y0050889D01*
X0040943Y0050926D01*
X0040881Y0050966D01*
X0040821Y0051010D01*
X0040764Y0051056D01*
X0040709Y0051106D01*
X0040657Y0051159D01*
X0040608Y0051214D01*
X0040562Y0051272D01*
X0040520Y0051333D01*
X0040480Y0051395D01*
X0040444Y0051460D01*
X0040411Y0051526D01*
X0040382Y0051594D01*
X0040357Y0051664D01*
X0040335Y0051734D01*
X0040318Y0051806D01*
X0040304Y0051879D01*
X0040294Y0051952D01*
X0040288Y0052026D01*
X0040286Y0052100D01*
X0040286Y0053281D02*
X0040288Y0053355D01*
X0040294Y0053429D01*
X0040304Y0053502D01*
X0040318Y0053575D01*
X0040335Y0053647D01*
X0040357Y0053717D01*
X0040382Y0053787D01*
X0040411Y0053855D01*
X0040444Y0053921D01*
X0040480Y0053986D01*
X0040520Y0054048D01*
X0040562Y0054109D01*
X0040608Y0054167D01*
X0040657Y0054222D01*
X0040709Y0054275D01*
X0040764Y0054325D01*
X0040821Y0054371D01*
X0040881Y0054415D01*
X0040943Y0054455D01*
X0041007Y0054492D01*
X0041073Y0054526D01*
X0041141Y0054556D01*
X0041210Y0054582D01*
X0041281Y0054605D01*
X0041352Y0054623D01*
X0041425Y0054638D01*
X0041498Y0054649D01*
X0041572Y0054656D01*
X0041646Y0054659D01*
X0041719Y0054658D01*
X0041793Y0054653D01*
X0041867Y0054644D01*
X0041940Y0054631D01*
X0042012Y0054614D01*
X0042083Y0054594D01*
X0042153Y0054569D01*
X0042221Y0054541D01*
X0042288Y0054510D01*
X0042353Y0054474D01*
X0042416Y0054436D01*
X0042477Y0054394D01*
X0042536Y0054348D01*
X0042592Y0054300D01*
X0042645Y0054249D01*
X0042695Y0054195D01*
X0042743Y0054138D01*
X0042787Y0054079D01*
X0042829Y0054017D01*
X0042867Y0053954D01*
X0042901Y0053888D01*
X0042932Y0053821D01*
X0042959Y0053752D01*
X0042982Y0053682D01*
X0043002Y0053611D01*
X0043018Y0053538D01*
X0043030Y0053465D01*
X0043038Y0053392D01*
X0043042Y0053318D01*
X0043042Y0053244D01*
X0043038Y0053170D01*
X0043030Y0053097D01*
X0043018Y0053024D01*
X0043002Y0052951D01*
X0042982Y0052880D01*
X0042959Y0052810D01*
X0042932Y0052741D01*
X0042901Y0052674D01*
X0042867Y0052608D01*
X0042829Y0052545D01*
X0042787Y0052483D01*
X0042743Y0052424D01*
X0042695Y0052367D01*
X0042645Y0052313D01*
X0042592Y0052262D01*
X0042536Y0052214D01*
X0042477Y0052168D01*
X0042416Y0052126D01*
X0042353Y0052088D01*
X0042288Y0052052D01*
X0042221Y0052021D01*
X0042153Y0051993D01*
X0042083Y0051968D01*
X0042012Y0051948D01*
X0041940Y0051931D01*
X0041867Y0051918D01*
X0041793Y0051909D01*
X0041719Y0051904D01*
X0041646Y0051903D01*
X0041572Y0051906D01*
X0041498Y0051913D01*
X0041425Y0051924D01*
X0041352Y0051939D01*
X0041281Y0051957D01*
X0041210Y0051980D01*
X0041141Y0052006D01*
X0041073Y0052036D01*
X0041007Y0052070D01*
X0040943Y0052107D01*
X0040881Y0052147D01*
X0040821Y0052191D01*
X0040764Y0052237D01*
X0040709Y0052287D01*
X0040657Y0052340D01*
X0040608Y0052395D01*
X0040562Y0052453D01*
X0040520Y0052514D01*
X0040480Y0052576D01*
X0040444Y0052641D01*
X0040411Y0052707D01*
X0040382Y0052775D01*
X0040357Y0052845D01*
X0040335Y0052915D01*
X0040318Y0052987D01*
X0040304Y0053060D01*
X0040294Y0053133D01*
X0040288Y0053207D01*
X0040286Y0053281D01*
X0126901Y0053281D02*
X0126903Y0053374D01*
X0126909Y0053466D01*
X0126919Y0053558D01*
X0126933Y0053649D01*
X0126950Y0053740D01*
X0126972Y0053830D01*
X0126997Y0053919D01*
X0127026Y0054007D01*
X0127059Y0054093D01*
X0127096Y0054178D01*
X0127136Y0054262D01*
X0127180Y0054343D01*
X0127227Y0054423D01*
X0127277Y0054501D01*
X0127331Y0054576D01*
X0127388Y0054649D01*
X0127448Y0054719D01*
X0127511Y0054787D01*
X0127577Y0054852D01*
X0127645Y0054914D01*
X0127716Y0054974D01*
X0127790Y0055030D01*
X0127866Y0055083D01*
X0127944Y0055132D01*
X0128024Y0055179D01*
X0128106Y0055221D01*
X0128190Y0055261D01*
X0128275Y0055296D01*
X0128362Y0055328D01*
X0128450Y0055357D01*
X0128539Y0055381D01*
X0128629Y0055402D01*
X0128720Y0055418D01*
X0128812Y0055431D01*
X0128904Y0055440D01*
X0128997Y0055445D01*
X0129089Y0055446D01*
X0129182Y0055443D01*
X0129274Y0055436D01*
X0129366Y0055425D01*
X0129457Y0055410D01*
X0129548Y0055392D01*
X0129638Y0055369D01*
X0129726Y0055343D01*
X0129814Y0055313D01*
X0129900Y0055279D01*
X0129984Y0055242D01*
X0130067Y0055200D01*
X0130148Y0055156D01*
X0130228Y0055108D01*
X0130305Y0055057D01*
X0130379Y0055002D01*
X0130452Y0054944D01*
X0130522Y0054884D01*
X0130589Y0054820D01*
X0130653Y0054754D01*
X0130715Y0054684D01*
X0130773Y0054613D01*
X0130828Y0054539D01*
X0130880Y0054462D01*
X0130929Y0054383D01*
X0130975Y0054303D01*
X0131017Y0054220D01*
X0131055Y0054136D01*
X0131090Y0054050D01*
X0131121Y0053963D01*
X0131148Y0053875D01*
X0131171Y0053785D01*
X0131191Y0053695D01*
X0131207Y0053604D01*
X0131219Y0053512D01*
X0131227Y0053420D01*
X0131231Y0053327D01*
X0131231Y0053235D01*
X0131227Y0053142D01*
X0131219Y0053050D01*
X0131207Y0052958D01*
X0131191Y0052867D01*
X0131171Y0052777D01*
X0131148Y0052687D01*
X0131121Y0052599D01*
X0131090Y0052512D01*
X0131055Y0052426D01*
X0131017Y0052342D01*
X0130975Y0052259D01*
X0130929Y0052179D01*
X0130880Y0052100D01*
X0130828Y0052023D01*
X0130773Y0051949D01*
X0130715Y0051878D01*
X0130653Y0051808D01*
X0130589Y0051742D01*
X0130522Y0051678D01*
X0130452Y0051618D01*
X0130379Y0051560D01*
X0130305Y0051505D01*
X0130228Y0051454D01*
X0130149Y0051406D01*
X0130067Y0051362D01*
X0129984Y0051320D01*
X0129900Y0051283D01*
X0129814Y0051249D01*
X0129726Y0051219D01*
X0129638Y0051193D01*
X0129548Y0051170D01*
X0129457Y0051152D01*
X0129366Y0051137D01*
X0129274Y0051126D01*
X0129182Y0051119D01*
X0129089Y0051116D01*
X0128997Y0051117D01*
X0128904Y0051122D01*
X0128812Y0051131D01*
X0128720Y0051144D01*
X0128629Y0051160D01*
X0128539Y0051181D01*
X0128450Y0051205D01*
X0128362Y0051234D01*
X0128275Y0051266D01*
X0128190Y0051301D01*
X0128106Y0051341D01*
X0128024Y0051383D01*
X0127944Y0051430D01*
X0127866Y0051479D01*
X0127790Y0051532D01*
X0127716Y0051588D01*
X0127645Y0051648D01*
X0127577Y0051710D01*
X0127511Y0051775D01*
X0127448Y0051843D01*
X0127388Y0051913D01*
X0127331Y0051986D01*
X0127277Y0052061D01*
X0127227Y0052139D01*
X0127180Y0052219D01*
X0127136Y0052300D01*
X0127096Y0052384D01*
X0127059Y0052469D01*
X0127026Y0052555D01*
X0126997Y0052643D01*
X0126972Y0052732D01*
X0126950Y0052822D01*
X0126933Y0052913D01*
X0126919Y0053004D01*
X0126909Y0053096D01*
X0126903Y0053188D01*
X0126901Y0053281D01*
X0126901Y0052100D02*
X0126903Y0052193D01*
X0126909Y0052285D01*
X0126919Y0052377D01*
X0126933Y0052468D01*
X0126950Y0052559D01*
X0126972Y0052649D01*
X0126997Y0052738D01*
X0127026Y0052826D01*
X0127059Y0052912D01*
X0127096Y0052997D01*
X0127136Y0053081D01*
X0127180Y0053162D01*
X0127227Y0053242D01*
X0127277Y0053320D01*
X0127331Y0053395D01*
X0127388Y0053468D01*
X0127448Y0053538D01*
X0127511Y0053606D01*
X0127577Y0053671D01*
X0127645Y0053733D01*
X0127716Y0053793D01*
X0127790Y0053849D01*
X0127866Y0053902D01*
X0127944Y0053951D01*
X0128024Y0053998D01*
X0128106Y0054040D01*
X0128190Y0054080D01*
X0128275Y0054115D01*
X0128362Y0054147D01*
X0128450Y0054176D01*
X0128539Y0054200D01*
X0128629Y0054221D01*
X0128720Y0054237D01*
X0128812Y0054250D01*
X0128904Y0054259D01*
X0128997Y0054264D01*
X0129089Y0054265D01*
X0129182Y0054262D01*
X0129274Y0054255D01*
X0129366Y0054244D01*
X0129457Y0054229D01*
X0129548Y0054211D01*
X0129638Y0054188D01*
X0129726Y0054162D01*
X0129814Y0054132D01*
X0129900Y0054098D01*
X0129984Y0054061D01*
X0130067Y0054019D01*
X0130148Y0053975D01*
X0130228Y0053927D01*
X0130305Y0053876D01*
X0130379Y0053821D01*
X0130452Y0053763D01*
X0130522Y0053703D01*
X0130589Y0053639D01*
X0130653Y0053573D01*
X0130715Y0053503D01*
X0130773Y0053432D01*
X0130828Y0053358D01*
X0130880Y0053281D01*
X0130929Y0053202D01*
X0130975Y0053122D01*
X0131017Y0053039D01*
X0131055Y0052955D01*
X0131090Y0052869D01*
X0131121Y0052782D01*
X0131148Y0052694D01*
X0131171Y0052604D01*
X0131191Y0052514D01*
X0131207Y0052423D01*
X0131219Y0052331D01*
X0131227Y0052239D01*
X0131231Y0052146D01*
X0131231Y0052054D01*
X0131227Y0051961D01*
X0131219Y0051869D01*
X0131207Y0051777D01*
X0131191Y0051686D01*
X0131171Y0051596D01*
X0131148Y0051506D01*
X0131121Y0051418D01*
X0131090Y0051331D01*
X0131055Y0051245D01*
X0131017Y0051161D01*
X0130975Y0051078D01*
X0130929Y0050998D01*
X0130880Y0050919D01*
X0130828Y0050842D01*
X0130773Y0050768D01*
X0130715Y0050697D01*
X0130653Y0050627D01*
X0130589Y0050561D01*
X0130522Y0050497D01*
X0130452Y0050437D01*
X0130379Y0050379D01*
X0130305Y0050324D01*
X0130228Y0050273D01*
X0130149Y0050225D01*
X0130067Y0050181D01*
X0129984Y0050139D01*
X0129900Y0050102D01*
X0129814Y0050068D01*
X0129726Y0050038D01*
X0129638Y0050012D01*
X0129548Y0049989D01*
X0129457Y0049971D01*
X0129366Y0049956D01*
X0129274Y0049945D01*
X0129182Y0049938D01*
X0129089Y0049935D01*
X0128997Y0049936D01*
X0128904Y0049941D01*
X0128812Y0049950D01*
X0128720Y0049963D01*
X0128629Y0049979D01*
X0128539Y0050000D01*
X0128450Y0050024D01*
X0128362Y0050053D01*
X0128275Y0050085D01*
X0128190Y0050120D01*
X0128106Y0050160D01*
X0128024Y0050202D01*
X0127944Y0050249D01*
X0127866Y0050298D01*
X0127790Y0050351D01*
X0127716Y0050407D01*
X0127645Y0050467D01*
X0127577Y0050529D01*
X0127511Y0050594D01*
X0127448Y0050662D01*
X0127388Y0050732D01*
X0127331Y0050805D01*
X0127277Y0050880D01*
X0127227Y0050958D01*
X0127180Y0051038D01*
X0127136Y0051119D01*
X0127096Y0051203D01*
X0127059Y0051288D01*
X0127026Y0051374D01*
X0126997Y0051462D01*
X0126972Y0051551D01*
X0126950Y0051641D01*
X0126933Y0051732D01*
X0126919Y0051823D01*
X0126909Y0051915D01*
X0126903Y0052007D01*
X0126901Y0052100D01*
D11*
X0129459Y0056431D02*
X0036940Y0056431D01*
X0036940Y0036352D01*
X0133790Y0036352D01*
X0133790Y0052100D01*
X0129459Y0056431D01*
X0129459Y0057219D02*
X0133790Y0052888D01*
X0133790Y0035171D01*
X0036940Y0035171D01*
X0010956Y0048951D02*
X0003278Y0048951D01*
X0003278Y0064305D01*
X0010956Y0064305D01*
X0010956Y0048951D01*
X0070798Y0090683D02*
X0070798Y0106234D01*
X0078672Y0106234D01*
X0078672Y0090683D01*
X0070798Y0090683D01*
X0078869Y0111549D02*
X0078869Y0127100D01*
X0086743Y0127100D01*
X0086743Y0111549D01*
X0078869Y0111549D01*
X0085168Y0128478D02*
X0085168Y0136156D01*
X0100719Y0136156D01*
X0100719Y0128478D01*
X0085168Y0128478D01*
X0085168Y0136746D02*
X0085168Y0144620D01*
X0100719Y0144620D01*
X0100719Y0136746D01*
X0085168Y0136746D01*
X0083593Y0136746D02*
X0068042Y0136746D01*
X0068042Y0144620D01*
X0083593Y0144620D01*
X0083593Y0136746D01*
X0118436Y0129069D02*
X0118436Y0145998D01*
X0136546Y0145998D01*
X0136546Y0139305D01*
X0136546Y0135762D01*
X0136546Y0129069D01*
X0118436Y0129069D01*
X0136546Y0135761D02*
X0136463Y0135763D01*
X0136380Y0135769D01*
X0136298Y0135779D01*
X0136216Y0135792D01*
X0136134Y0135809D01*
X0136054Y0135831D01*
X0135975Y0135856D01*
X0135897Y0135884D01*
X0135820Y0135916D01*
X0135745Y0135952D01*
X0135672Y0135992D01*
X0135601Y0136034D01*
X0135532Y0136080D01*
X0135465Y0136129D01*
X0135400Y0136182D01*
X0135338Y0136237D01*
X0135278Y0136295D01*
X0135222Y0136356D01*
X0135168Y0136419D01*
X0135117Y0136485D01*
X0135070Y0136553D01*
X0135025Y0136623D01*
X0134984Y0136695D01*
X0134947Y0136770D01*
X0134913Y0136845D01*
X0134882Y0136923D01*
X0134856Y0137001D01*
X0134833Y0137081D01*
X0134813Y0137162D01*
X0134798Y0137243D01*
X0134786Y0137326D01*
X0134778Y0137408D01*
X0134774Y0137491D01*
X0134774Y0137575D01*
X0134778Y0137658D01*
X0134786Y0137740D01*
X0134798Y0137823D01*
X0134813Y0137904D01*
X0134833Y0137985D01*
X0134856Y0138065D01*
X0134882Y0138143D01*
X0134913Y0138221D01*
X0134947Y0138296D01*
X0134984Y0138371D01*
X0135025Y0138443D01*
X0135070Y0138513D01*
X0135117Y0138581D01*
X0135168Y0138647D01*
X0135222Y0138710D01*
X0135278Y0138771D01*
X0135338Y0138829D01*
X0135400Y0138884D01*
X0135465Y0138937D01*
X0135532Y0138986D01*
X0135601Y0139032D01*
X0135672Y0139074D01*
X0135745Y0139114D01*
X0135820Y0139150D01*
X0135897Y0139182D01*
X0135975Y0139210D01*
X0136054Y0139235D01*
X0136134Y0139257D01*
X0136216Y0139274D01*
X0136298Y0139287D01*
X0136380Y0139297D01*
X0136463Y0139303D01*
X0136546Y0139305D01*
X0137663Y0152297D02*
X0137665Y0152367D01*
X0137671Y0152438D01*
X0137681Y0152507D01*
X0137695Y0152576D01*
X0137713Y0152645D01*
X0137734Y0152712D01*
X0137759Y0152778D01*
X0137788Y0152842D01*
X0137821Y0152904D01*
X0137857Y0152965D01*
X0137897Y0153023D01*
X0137939Y0153079D01*
X0137985Y0153133D01*
X0138034Y0153184D01*
X0138085Y0153232D01*
X0138140Y0153277D01*
X0138196Y0153319D01*
X0138255Y0153357D01*
X0138316Y0153392D01*
X0138379Y0153424D01*
X0138444Y0153452D01*
X0138510Y0153477D01*
X0138577Y0153497D01*
X0138646Y0153514D01*
X0138715Y0153527D01*
X0138785Y0153536D01*
X0138855Y0153541D01*
X0138926Y0153542D01*
X0138996Y0153539D01*
X0139066Y0153532D01*
X0139136Y0153521D01*
X0139205Y0153506D01*
X0139273Y0153487D01*
X0139339Y0153465D01*
X0139405Y0153439D01*
X0139469Y0153409D01*
X0139531Y0153375D01*
X0139591Y0153338D01*
X0139648Y0153298D01*
X0139704Y0153254D01*
X0139757Y0153208D01*
X0139807Y0153158D01*
X0139854Y0153106D01*
X0139898Y0153051D01*
X0139939Y0152994D01*
X0139977Y0152935D01*
X0140012Y0152873D01*
X0140042Y0152810D01*
X0140070Y0152745D01*
X0140093Y0152678D01*
X0140113Y0152611D01*
X0140129Y0152542D01*
X0140141Y0152473D01*
X0140149Y0152403D01*
X0140153Y0152332D01*
X0140153Y0152262D01*
X0140149Y0152191D01*
X0140141Y0152121D01*
X0140129Y0152052D01*
X0140113Y0151983D01*
X0140093Y0151916D01*
X0140070Y0151849D01*
X0140042Y0151784D01*
X0140012Y0151721D01*
X0139977Y0151659D01*
X0139939Y0151600D01*
X0139898Y0151543D01*
X0139854Y0151488D01*
X0139807Y0151436D01*
X0139757Y0151386D01*
X0139704Y0151340D01*
X0139648Y0151296D01*
X0139591Y0151256D01*
X0139530Y0151219D01*
X0139469Y0151185D01*
X0139405Y0151155D01*
X0139339Y0151129D01*
X0139273Y0151107D01*
X0139205Y0151088D01*
X0139136Y0151073D01*
X0139066Y0151062D01*
X0138996Y0151055D01*
X0138926Y0151052D01*
X0138855Y0151053D01*
X0138785Y0151058D01*
X0138715Y0151067D01*
X0138646Y0151080D01*
X0138577Y0151097D01*
X0138510Y0151117D01*
X0138444Y0151142D01*
X0138379Y0151170D01*
X0138316Y0151202D01*
X0138255Y0151237D01*
X0138196Y0151275D01*
X0138140Y0151317D01*
X0138085Y0151362D01*
X0138034Y0151410D01*
X0137985Y0151461D01*
X0137939Y0151515D01*
X0137897Y0151571D01*
X0137857Y0151629D01*
X0137821Y0151690D01*
X0137788Y0151752D01*
X0137759Y0151816D01*
X0137734Y0151882D01*
X0137713Y0151949D01*
X0137695Y0152018D01*
X0137681Y0152087D01*
X0137671Y0152156D01*
X0137665Y0152227D01*
X0137663Y0152297D01*
X0134971Y0048754D02*
X0142845Y0048754D01*
X0142845Y0033203D01*
X0134971Y0033203D01*
X0134971Y0048754D01*
X0137333Y0031431D02*
X0121782Y0031431D01*
X0121782Y0023557D01*
X0137333Y0023557D01*
X0137333Y0031431D01*
D12*
X0083653Y0096622D02*
X0081184Y0096622D01*
X0082419Y0101686D02*
X0082419Y0104155D01*
X0081184Y0102921D02*
X0083653Y0102921D01*
X0080137Y0132673D02*
X0077001Y0135809D01*
X0078569Y0135809D02*
X0078569Y0132673D01*
X0077001Y0132673D02*
X0080137Y0135809D01*
X0080137Y0134241D02*
X0077001Y0134241D01*
X0013070Y0111865D02*
X0009934Y0108729D01*
X0011502Y0108729D02*
X0011502Y0111865D01*
X0009934Y0111865D02*
X0013070Y0108729D01*
X0013070Y0110297D02*
X0009934Y0110297D01*
D13*
X0012530Y0090880D02*
X0003278Y0090880D01*
X0012530Y0090880D02*
X0012530Y0069030D01*
X0003278Y0069030D01*
X0048948Y0156037D02*
X0048948Y0156234D01*
X0040680Y0156234D01*
X0040680Y0163911D01*
X0025129Y0163911D01*
X0025129Y0156234D01*
X0040680Y0156234D01*
X0040680Y0163911D02*
X0040680Y0171785D01*
X0048948Y0171785D01*
X0048948Y0156234D01*
X0040680Y0171785D02*
X0025129Y0171785D01*
X0025129Y0163911D01*
D14*
X0105250Y0092791D02*
X0105250Y0092023D01*
X0106017Y0091256D01*
X0107552Y0091256D01*
X0108319Y0090489D01*
X0108319Y0089721D01*
X0107552Y0088954D01*
X0106017Y0088954D01*
X0105250Y0089721D01*
X0105250Y0092791D02*
X0106017Y0093558D01*
X0107552Y0093558D01*
X0108319Y0092791D01*
X0109854Y0092023D02*
X0110621Y0092023D01*
X0110621Y0088954D01*
X0109854Y0088954D02*
X0111389Y0088954D01*
X0112923Y0088954D02*
X0112923Y0092023D01*
X0113691Y0092023D01*
X0114458Y0091256D01*
X0115225Y0092023D01*
X0115992Y0091256D01*
X0115992Y0088954D01*
X0114458Y0088954D02*
X0114458Y0091256D01*
X0117527Y0092023D02*
X0117527Y0087419D01*
X0117527Y0088954D02*
X0119829Y0088954D01*
X0120596Y0089721D01*
X0120596Y0091256D01*
X0119829Y0092023D01*
X0117527Y0092023D01*
X0122131Y0093558D02*
X0122898Y0093558D01*
X0122898Y0088954D01*
X0122131Y0088954D02*
X0123666Y0088954D01*
X0125200Y0089721D02*
X0125200Y0091256D01*
X0125968Y0092023D01*
X0127502Y0092023D01*
X0128270Y0091256D01*
X0128270Y0090489D01*
X0125200Y0090489D01*
X0125200Y0089721D02*
X0125968Y0088954D01*
X0127502Y0088954D01*
X0125968Y0084523D02*
X0124433Y0084523D01*
X0123666Y0083756D01*
X0123666Y0082221D01*
X0124433Y0081454D01*
X0125968Y0081454D01*
X0126735Y0082989D02*
X0123666Y0082989D01*
X0122131Y0084523D02*
X0119829Y0084523D01*
X0119062Y0083756D01*
X0119062Y0082221D01*
X0119829Y0081454D01*
X0122131Y0081454D01*
X0119829Y0077791D02*
X0119829Y0074721D01*
X0120596Y0073954D01*
X0122131Y0074721D02*
X0122131Y0076256D01*
X0122898Y0077023D01*
X0124433Y0077023D01*
X0125200Y0076256D01*
X0125200Y0075489D01*
X0122131Y0075489D01*
X0122131Y0074721D02*
X0122898Y0073954D01*
X0124433Y0073954D01*
X0126735Y0073954D02*
X0126735Y0077023D01*
X0127502Y0077023D01*
X0128270Y0076256D01*
X0129037Y0077023D01*
X0129804Y0076256D01*
X0129804Y0073954D01*
X0128270Y0073954D02*
X0128270Y0076256D01*
X0131339Y0076256D02*
X0132106Y0075489D01*
X0133641Y0075489D01*
X0134408Y0074721D01*
X0133641Y0073954D01*
X0131339Y0073954D01*
X0131339Y0076256D02*
X0132106Y0077023D01*
X0134408Y0077023D01*
X0126735Y0082989D02*
X0126735Y0083756D01*
X0125968Y0084523D01*
X0120596Y0077023D02*
X0119062Y0077023D01*
X0117527Y0077023D02*
X0115225Y0077023D01*
X0114458Y0076256D01*
X0115225Y0075489D01*
X0116760Y0075489D01*
X0117527Y0074721D01*
X0116760Y0073954D01*
X0114458Y0073954D01*
X0112923Y0073954D02*
X0110621Y0073954D01*
X0109854Y0074721D01*
X0109854Y0077023D01*
X0108319Y0077791D02*
X0107552Y0078558D01*
X0106017Y0078558D01*
X0105250Y0077791D01*
X0105250Y0077023D01*
X0106017Y0076256D01*
X0107552Y0076256D01*
X0108319Y0075489D01*
X0108319Y0074721D01*
X0107552Y0073954D01*
X0106017Y0073954D01*
X0105250Y0074721D01*
X0106017Y0081454D02*
X0105250Y0082221D01*
X0106017Y0081454D02*
X0107552Y0081454D01*
X0108319Y0082221D01*
X0108319Y0082989D01*
X0107552Y0083756D01*
X0106017Y0083756D01*
X0105250Y0084523D01*
X0105250Y0085291D01*
X0106017Y0086058D01*
X0107552Y0086058D01*
X0108319Y0085291D01*
X0109854Y0084523D02*
X0112156Y0084523D01*
X0112923Y0083756D01*
X0112923Y0082221D01*
X0112156Y0081454D01*
X0109854Y0081454D01*
X0109854Y0079919D02*
X0109854Y0084523D01*
X0114458Y0082221D02*
X0115225Y0081454D01*
X0117527Y0081454D01*
X0117527Y0083756D01*
X0116760Y0084523D01*
X0115225Y0084523D01*
X0115225Y0082989D02*
X0117527Y0082989D01*
X0115225Y0082989D02*
X0114458Y0082221D01*
X0112923Y0077023D02*
X0112923Y0073187D01*
X0112156Y0072419D01*
X0111389Y0072419D01*
X0110621Y0093558D02*
X0110621Y0094325D01*
D15*
X0077467Y0118159D02*
X0077467Y0122859D01*
X0077467Y0125259D01*
X0077467Y0129959D01*
X0077467Y0125259D02*
X0077398Y0125257D01*
X0077330Y0125251D01*
X0077262Y0125241D01*
X0077195Y0125228D01*
X0077129Y0125210D01*
X0077064Y0125189D01*
X0077000Y0125164D01*
X0076938Y0125136D01*
X0076877Y0125104D01*
X0076818Y0125069D01*
X0076762Y0125030D01*
X0076707Y0124988D01*
X0076656Y0124943D01*
X0076606Y0124895D01*
X0076560Y0124845D01*
X0076517Y0124792D01*
X0076476Y0124736D01*
X0076439Y0124679D01*
X0076406Y0124619D01*
X0076375Y0124557D01*
X0076349Y0124494D01*
X0076326Y0124430D01*
X0076306Y0124364D01*
X0076291Y0124297D01*
X0076279Y0124230D01*
X0076271Y0124162D01*
X0076267Y0124093D01*
X0076267Y0124025D01*
X0076271Y0123956D01*
X0076279Y0123888D01*
X0076291Y0123821D01*
X0076306Y0123754D01*
X0076326Y0123688D01*
X0076349Y0123624D01*
X0076375Y0123561D01*
X0076406Y0123499D01*
X0076439Y0123439D01*
X0076476Y0123382D01*
X0076517Y0123326D01*
X0076560Y0123273D01*
X0076606Y0123223D01*
X0076656Y0123175D01*
X0076707Y0123130D01*
X0076762Y0123088D01*
X0076818Y0123049D01*
X0076877Y0123014D01*
X0076938Y0122982D01*
X0077000Y0122954D01*
X0077064Y0122929D01*
X0077129Y0122908D01*
X0077195Y0122890D01*
X0077262Y0122877D01*
X0077330Y0122867D01*
X0077398Y0122861D01*
X0077467Y0122859D01*
X0075567Y0111459D02*
X0075567Y0107559D01*
X0065667Y0118159D02*
X0065667Y0129959D01*
X0063807Y0134870D02*
X0046807Y0134870D01*
X0046747Y0134872D01*
X0046686Y0134877D01*
X0046627Y0134886D01*
X0046568Y0134899D01*
X0046509Y0134915D01*
X0046452Y0134935D01*
X0046397Y0134958D01*
X0046342Y0134985D01*
X0046290Y0135014D01*
X0046239Y0135047D01*
X0046190Y0135083D01*
X0046144Y0135121D01*
X0046100Y0135163D01*
X0046058Y0135207D01*
X0046020Y0135253D01*
X0045984Y0135302D01*
X0045951Y0135353D01*
X0045922Y0135405D01*
X0045895Y0135460D01*
X0045872Y0135515D01*
X0045852Y0135572D01*
X0045836Y0135631D01*
X0045823Y0135690D01*
X0045814Y0135749D01*
X0045809Y0135810D01*
X0045807Y0135870D01*
X0045807Y0141870D01*
X0045809Y0141930D01*
X0045814Y0141991D01*
X0045823Y0142050D01*
X0045836Y0142109D01*
X0045852Y0142168D01*
X0045872Y0142225D01*
X0045895Y0142280D01*
X0045922Y0142335D01*
X0045951Y0142387D01*
X0045984Y0142438D01*
X0046020Y0142487D01*
X0046058Y0142533D01*
X0046100Y0142577D01*
X0046144Y0142619D01*
X0046190Y0142657D01*
X0046239Y0142693D01*
X0046290Y0142726D01*
X0046342Y0142755D01*
X0046397Y0142782D01*
X0046452Y0142805D01*
X0046509Y0142825D01*
X0046568Y0142841D01*
X0046627Y0142854D01*
X0046686Y0142863D01*
X0046747Y0142868D01*
X0046807Y0142870D01*
X0063807Y0142870D01*
X0063867Y0142868D01*
X0063928Y0142863D01*
X0063987Y0142854D01*
X0064046Y0142841D01*
X0064105Y0142825D01*
X0064162Y0142805D01*
X0064217Y0142782D01*
X0064272Y0142755D01*
X0064324Y0142726D01*
X0064375Y0142693D01*
X0064424Y0142657D01*
X0064470Y0142619D01*
X0064514Y0142577D01*
X0064556Y0142533D01*
X0064594Y0142487D01*
X0064630Y0142438D01*
X0064663Y0142387D01*
X0064692Y0142335D01*
X0064719Y0142280D01*
X0064742Y0142225D01*
X0064762Y0142168D01*
X0064778Y0142109D01*
X0064791Y0142050D01*
X0064800Y0141991D01*
X0064805Y0141930D01*
X0064807Y0141870D01*
X0064807Y0135870D01*
X0064805Y0135810D01*
X0064800Y0135749D01*
X0064791Y0135690D01*
X0064778Y0135631D01*
X0064762Y0135572D01*
X0064742Y0135515D01*
X0064719Y0135460D01*
X0064692Y0135405D01*
X0064663Y0135353D01*
X0064630Y0135302D01*
X0064594Y0135253D01*
X0064556Y0135207D01*
X0064514Y0135163D01*
X0064470Y0135121D01*
X0064424Y0135083D01*
X0064375Y0135047D01*
X0064324Y0135014D01*
X0064272Y0134985D01*
X0064217Y0134958D01*
X0064162Y0134935D01*
X0064105Y0134915D01*
X0064046Y0134899D01*
X0063987Y0134886D01*
X0063928Y0134877D01*
X0063867Y0134872D01*
X0063807Y0134870D01*
X0059611Y0133176D02*
X0059611Y0127176D01*
X0059609Y0127116D01*
X0059604Y0127055D01*
X0059595Y0126996D01*
X0059582Y0126937D01*
X0059566Y0126878D01*
X0059546Y0126821D01*
X0059523Y0126766D01*
X0059496Y0126711D01*
X0059467Y0126659D01*
X0059434Y0126608D01*
X0059398Y0126559D01*
X0059360Y0126513D01*
X0059318Y0126469D01*
X0059274Y0126427D01*
X0059228Y0126389D01*
X0059179Y0126353D01*
X0059128Y0126320D01*
X0059076Y0126291D01*
X0059021Y0126264D01*
X0058966Y0126241D01*
X0058909Y0126221D01*
X0058850Y0126205D01*
X0058791Y0126192D01*
X0058732Y0126183D01*
X0058671Y0126178D01*
X0058611Y0126176D01*
X0041611Y0126176D01*
X0041551Y0126178D01*
X0041490Y0126183D01*
X0041431Y0126192D01*
X0041372Y0126205D01*
X0041313Y0126221D01*
X0041256Y0126241D01*
X0041201Y0126264D01*
X0041146Y0126291D01*
X0041094Y0126320D01*
X0041043Y0126353D01*
X0040994Y0126389D01*
X0040948Y0126427D01*
X0040904Y0126469D01*
X0040862Y0126513D01*
X0040824Y0126559D01*
X0040788Y0126608D01*
X0040755Y0126659D01*
X0040726Y0126711D01*
X0040699Y0126766D01*
X0040676Y0126821D01*
X0040656Y0126878D01*
X0040640Y0126937D01*
X0040627Y0126996D01*
X0040618Y0127055D01*
X0040613Y0127116D01*
X0040611Y0127176D01*
X0040611Y0133176D01*
X0040613Y0133236D01*
X0040618Y0133297D01*
X0040627Y0133356D01*
X0040640Y0133415D01*
X0040656Y0133474D01*
X0040676Y0133531D01*
X0040699Y0133586D01*
X0040726Y0133641D01*
X0040755Y0133693D01*
X0040788Y0133744D01*
X0040824Y0133793D01*
X0040862Y0133839D01*
X0040904Y0133883D01*
X0040948Y0133925D01*
X0040994Y0133963D01*
X0041043Y0133999D01*
X0041094Y0134032D01*
X0041146Y0134061D01*
X0041201Y0134088D01*
X0041256Y0134111D01*
X0041313Y0134131D01*
X0041372Y0134147D01*
X0041431Y0134160D01*
X0041490Y0134169D01*
X0041551Y0134174D01*
X0041611Y0134176D01*
X0058611Y0134176D01*
X0058671Y0134174D01*
X0058732Y0134169D01*
X0058791Y0134160D01*
X0058850Y0134147D01*
X0058909Y0134131D01*
X0058966Y0134111D01*
X0059021Y0134088D01*
X0059076Y0134061D01*
X0059128Y0134032D01*
X0059179Y0133999D01*
X0059228Y0133963D01*
X0059274Y0133925D01*
X0059318Y0133883D01*
X0059360Y0133839D01*
X0059398Y0133793D01*
X0059434Y0133744D01*
X0059467Y0133693D01*
X0059496Y0133641D01*
X0059523Y0133586D01*
X0059546Y0133531D01*
X0059566Y0133474D01*
X0059582Y0133415D01*
X0059595Y0133356D01*
X0059604Y0133297D01*
X0059609Y0133236D01*
X0059611Y0133176D01*
X0048184Y0110195D02*
X0047484Y0110195D01*
X0048184Y0110195D02*
X0048184Y0109495D01*
X0055184Y0094695D02*
X0059184Y0094695D01*
X0048184Y0082895D02*
X0048184Y0082195D01*
X0047484Y0082195D01*
X0026184Y0075295D02*
X0026184Y0071295D01*
X0020884Y0082195D02*
X0020184Y0082195D01*
X0020184Y0082895D01*
X0021684Y0106595D02*
X0023784Y0108695D01*
X0020884Y0110195D02*
X0020184Y0110195D01*
X0020184Y0109495D01*
X0029484Y0117095D02*
X0029484Y0121095D01*
X0020530Y0131911D02*
X0023030Y0134411D01*
X0023030Y0139411D01*
X0020530Y0141911D01*
X0023030Y0144411D01*
X0023030Y0149411D01*
X0020530Y0151911D01*
X0023030Y0154411D01*
X0023030Y0159411D01*
X0020530Y0161911D01*
X0005530Y0161911D01*
X0003030Y0159411D01*
X0003030Y0154411D01*
X0005530Y0151911D01*
X0003030Y0149411D01*
X0003030Y0144411D01*
X0005530Y0141911D01*
X0003030Y0139411D01*
X0003030Y0134411D01*
X0005530Y0131911D01*
X0020530Y0131911D01*
D16*
X0024776Y0136162D02*
X0029280Y0136162D01*
X0029280Y0134661D02*
X0029280Y0137663D01*
X0028350Y0137486D02*
X0026775Y0137486D01*
X0026775Y0139061D01*
X0024776Y0136162D02*
X0026277Y0134661D01*
X0040948Y0137486D02*
X0042523Y0139061D01*
X0042523Y0151659D02*
X0042523Y0153234D01*
X0040948Y0153234D01*
X0028350Y0153234D02*
X0026775Y0153234D01*
X0026775Y0151659D01*
X0010280Y0163911D02*
X0010280Y0165413D01*
X0009529Y0166163D01*
X0008778Y0166163D01*
X0008028Y0165413D01*
X0008028Y0163161D01*
X0009529Y0163161D01*
X0010280Y0163911D01*
X0008028Y0163161D02*
X0006526Y0164662D01*
X0005776Y0166163D01*
X0060119Y0100278D02*
X0060119Y0091223D01*
X0060513Y0091223D01*
X0068387Y0091223D01*
X0068781Y0091223D01*
X0068781Y0100278D01*
X0060119Y0100278D01*
X0096111Y0121887D02*
X0096111Y0066966D01*
X0159497Y0066966D01*
X0167568Y0066966D01*
X0167568Y0121887D01*
X0159497Y0121887D01*
X0096111Y0121887D01*
X0098948Y0152100D02*
X0098948Y0183596D01*
X0086349Y0173557D02*
X0086349Y0163715D01*
X0082412Y0163715D01*
X0075326Y0163715D02*
X0071389Y0163715D01*
X0071389Y0173557D01*
X0074538Y0179856D02*
X0083200Y0179856D01*
X0098948Y0152100D02*
X0130444Y0152100D01*
X0130444Y0183596D01*
X0101310Y0167455D02*
X0101314Y0167784D01*
X0101326Y0168112D01*
X0101346Y0168440D01*
X0101374Y0168767D01*
X0101411Y0169094D01*
X0101455Y0169419D01*
X0101507Y0169743D01*
X0101567Y0170066D01*
X0101635Y0170388D01*
X0101711Y0170708D01*
X0101795Y0171025D01*
X0101886Y0171341D01*
X0101986Y0171654D01*
X0102092Y0171965D01*
X0102207Y0172273D01*
X0102329Y0172578D01*
X0102458Y0172880D01*
X0102595Y0173178D01*
X0102739Y0173473D01*
X0102891Y0173765D01*
X0103049Y0174053D01*
X0103214Y0174337D01*
X0103387Y0174616D01*
X0103566Y0174892D01*
X0103752Y0175163D01*
X0103944Y0175429D01*
X0104143Y0175690D01*
X0104348Y0175947D01*
X0104560Y0176198D01*
X0104778Y0176444D01*
X0105001Y0176685D01*
X0105231Y0176920D01*
X0105466Y0177150D01*
X0105707Y0177373D01*
X0105953Y0177591D01*
X0106204Y0177803D01*
X0106461Y0178008D01*
X0106722Y0178207D01*
X0106988Y0178399D01*
X0107259Y0178585D01*
X0107535Y0178764D01*
X0107814Y0178937D01*
X0108098Y0179102D01*
X0108386Y0179260D01*
X0108678Y0179412D01*
X0108973Y0179556D01*
X0109271Y0179693D01*
X0109573Y0179822D01*
X0109878Y0179944D01*
X0110186Y0180059D01*
X0110497Y0180165D01*
X0110810Y0180265D01*
X0111126Y0180356D01*
X0111443Y0180440D01*
X0111763Y0180516D01*
X0112085Y0180584D01*
X0112408Y0180644D01*
X0112732Y0180696D01*
X0113057Y0180740D01*
X0113384Y0180777D01*
X0113711Y0180805D01*
X0114039Y0180825D01*
X0114367Y0180837D01*
X0114696Y0180841D01*
X0115025Y0180837D01*
X0115353Y0180825D01*
X0115681Y0180805D01*
X0116008Y0180777D01*
X0116335Y0180740D01*
X0116660Y0180696D01*
X0116984Y0180644D01*
X0117307Y0180584D01*
X0117629Y0180516D01*
X0117949Y0180440D01*
X0118266Y0180356D01*
X0118582Y0180265D01*
X0118895Y0180165D01*
X0119206Y0180059D01*
X0119514Y0179944D01*
X0119819Y0179822D01*
X0120121Y0179693D01*
X0120419Y0179556D01*
X0120714Y0179412D01*
X0121006Y0179260D01*
X0121294Y0179102D01*
X0121578Y0178937D01*
X0121857Y0178764D01*
X0122133Y0178585D01*
X0122404Y0178399D01*
X0122670Y0178207D01*
X0122931Y0178008D01*
X0123188Y0177803D01*
X0123439Y0177591D01*
X0123685Y0177373D01*
X0123926Y0177150D01*
X0124161Y0176920D01*
X0124391Y0176685D01*
X0124614Y0176444D01*
X0124832Y0176198D01*
X0125044Y0175947D01*
X0125249Y0175690D01*
X0125448Y0175429D01*
X0125640Y0175163D01*
X0125826Y0174892D01*
X0126005Y0174616D01*
X0126178Y0174337D01*
X0126343Y0174053D01*
X0126501Y0173765D01*
X0126653Y0173473D01*
X0126797Y0173178D01*
X0126934Y0172880D01*
X0127063Y0172578D01*
X0127185Y0172273D01*
X0127300Y0171965D01*
X0127406Y0171654D01*
X0127506Y0171341D01*
X0127597Y0171025D01*
X0127681Y0170708D01*
X0127757Y0170388D01*
X0127825Y0170066D01*
X0127885Y0169743D01*
X0127937Y0169419D01*
X0127981Y0169094D01*
X0128018Y0168767D01*
X0128046Y0168440D01*
X0128066Y0168112D01*
X0128078Y0167784D01*
X0128082Y0167455D01*
X0128078Y0167126D01*
X0128066Y0166798D01*
X0128046Y0166470D01*
X0128018Y0166143D01*
X0127981Y0165816D01*
X0127937Y0165491D01*
X0127885Y0165167D01*
X0127825Y0164844D01*
X0127757Y0164522D01*
X0127681Y0164202D01*
X0127597Y0163885D01*
X0127506Y0163569D01*
X0127406Y0163256D01*
X0127300Y0162945D01*
X0127185Y0162637D01*
X0127063Y0162332D01*
X0126934Y0162030D01*
X0126797Y0161732D01*
X0126653Y0161437D01*
X0126501Y0161145D01*
X0126343Y0160857D01*
X0126178Y0160573D01*
X0126005Y0160294D01*
X0125826Y0160018D01*
X0125640Y0159747D01*
X0125448Y0159481D01*
X0125249Y0159220D01*
X0125044Y0158963D01*
X0124832Y0158712D01*
X0124614Y0158466D01*
X0124391Y0158225D01*
X0124161Y0157990D01*
X0123926Y0157760D01*
X0123685Y0157537D01*
X0123439Y0157319D01*
X0123188Y0157107D01*
X0122931Y0156902D01*
X0122670Y0156703D01*
X0122404Y0156511D01*
X0122133Y0156325D01*
X0121857Y0156146D01*
X0121578Y0155973D01*
X0121294Y0155808D01*
X0121006Y0155650D01*
X0120714Y0155498D01*
X0120419Y0155354D01*
X0120121Y0155217D01*
X0119819Y0155088D01*
X0119514Y0154966D01*
X0119206Y0154851D01*
X0118895Y0154745D01*
X0118582Y0154645D01*
X0118266Y0154554D01*
X0117949Y0154470D01*
X0117629Y0154394D01*
X0117307Y0154326D01*
X0116984Y0154266D01*
X0116660Y0154214D01*
X0116335Y0154170D01*
X0116008Y0154133D01*
X0115681Y0154105D01*
X0115353Y0154085D01*
X0115025Y0154073D01*
X0114696Y0154069D01*
X0114367Y0154073D01*
X0114039Y0154085D01*
X0113711Y0154105D01*
X0113384Y0154133D01*
X0113057Y0154170D01*
X0112732Y0154214D01*
X0112408Y0154266D01*
X0112085Y0154326D01*
X0111763Y0154394D01*
X0111443Y0154470D01*
X0111126Y0154554D01*
X0110810Y0154645D01*
X0110497Y0154745D01*
X0110186Y0154851D01*
X0109878Y0154966D01*
X0109573Y0155088D01*
X0109271Y0155217D01*
X0108973Y0155354D01*
X0108678Y0155498D01*
X0108386Y0155650D01*
X0108098Y0155808D01*
X0107814Y0155973D01*
X0107535Y0156146D01*
X0107259Y0156325D01*
X0106988Y0156511D01*
X0106722Y0156703D01*
X0106461Y0156902D01*
X0106204Y0157107D01*
X0105953Y0157319D01*
X0105707Y0157537D01*
X0105466Y0157760D01*
X0105231Y0157990D01*
X0105001Y0158225D01*
X0104778Y0158466D01*
X0104560Y0158712D01*
X0104348Y0158963D01*
X0104143Y0159220D01*
X0103944Y0159481D01*
X0103752Y0159747D01*
X0103566Y0160018D01*
X0103387Y0160294D01*
X0103214Y0160573D01*
X0103049Y0160857D01*
X0102891Y0161145D01*
X0102739Y0161437D01*
X0102595Y0161732D01*
X0102458Y0162030D01*
X0102329Y0162332D01*
X0102207Y0162637D01*
X0102092Y0162945D01*
X0101986Y0163256D01*
X0101886Y0163569D01*
X0101795Y0163885D01*
X0101711Y0164202D01*
X0101635Y0164522D01*
X0101567Y0164844D01*
X0101507Y0165167D01*
X0101455Y0165491D01*
X0101411Y0165816D01*
X0101374Y0166143D01*
X0101346Y0166470D01*
X0101326Y0166798D01*
X0101314Y0167126D01*
X0101310Y0167455D01*
X0141861Y0156234D02*
X0141861Y0124738D01*
X0156822Y0124738D01*
X0156822Y0156234D01*
X0141861Y0156234D01*
D17*
X0082848Y0122233D03*
X0082848Y0116433D03*
M02*
