G75*
%MOIN*%
%OFA0B0*%
%FSLAX25Y25*%
%IPPOS*%
%LPD*%
%AMOC8*
5,1,8,0,0,1.08239X$1,22.5*
%
%ADD10C,0.00600*%
%ADD11C,0.00000*%
%ADD12C,0.00004*%
%ADD13R,0.05000X0.02500*%
%ADD14C,0.00256*%
%ADD15R,0.02500X0.05000*%
%ADD16R,0.10000X0.05000*%
%ADD17R,0.05000X0.10000*%
%ADD18OC8,0.07600*%
%ADD19C,0.03937*%
%ADD20C,0.01000*%
%ADD21C,0.03962*%
D10*
X0093595Y0118905D02*
X0093595Y0123175D01*
X0095730Y0121040D02*
X0091459Y0121040D01*
X0100908Y0121040D02*
X0105179Y0121040D01*
D11*
X0037616Y0195884D02*
X0037618Y0195972D01*
X0037624Y0196060D01*
X0037634Y0196148D01*
X0037648Y0196236D01*
X0037665Y0196322D01*
X0037687Y0196408D01*
X0037712Y0196492D01*
X0037742Y0196576D01*
X0037774Y0196658D01*
X0037811Y0196738D01*
X0037851Y0196817D01*
X0037895Y0196894D01*
X0037942Y0196969D01*
X0037992Y0197041D01*
X0038046Y0197112D01*
X0038102Y0197179D01*
X0038162Y0197245D01*
X0038224Y0197307D01*
X0038290Y0197367D01*
X0038357Y0197423D01*
X0038428Y0197477D01*
X0038500Y0197527D01*
X0038575Y0197574D01*
X0038652Y0197618D01*
X0038731Y0197658D01*
X0038811Y0197695D01*
X0038893Y0197727D01*
X0038977Y0197757D01*
X0039061Y0197782D01*
X0039147Y0197804D01*
X0039233Y0197821D01*
X0039321Y0197835D01*
X0039409Y0197845D01*
X0039497Y0197851D01*
X0039585Y0197853D01*
X0039673Y0197851D01*
X0039761Y0197845D01*
X0039849Y0197835D01*
X0039937Y0197821D01*
X0040023Y0197804D01*
X0040109Y0197782D01*
X0040193Y0197757D01*
X0040277Y0197727D01*
X0040359Y0197695D01*
X0040439Y0197658D01*
X0040518Y0197618D01*
X0040595Y0197574D01*
X0040670Y0197527D01*
X0040742Y0197477D01*
X0040813Y0197423D01*
X0040880Y0197367D01*
X0040946Y0197307D01*
X0041008Y0197245D01*
X0041068Y0197179D01*
X0041124Y0197112D01*
X0041178Y0197041D01*
X0041228Y0196969D01*
X0041275Y0196894D01*
X0041319Y0196817D01*
X0041359Y0196738D01*
X0041396Y0196658D01*
X0041428Y0196576D01*
X0041458Y0196492D01*
X0041483Y0196408D01*
X0041505Y0196322D01*
X0041522Y0196236D01*
X0041536Y0196148D01*
X0041546Y0196060D01*
X0041552Y0195972D01*
X0041554Y0195884D01*
X0041552Y0195796D01*
X0041546Y0195708D01*
X0041536Y0195620D01*
X0041522Y0195532D01*
X0041505Y0195446D01*
X0041483Y0195360D01*
X0041458Y0195276D01*
X0041428Y0195192D01*
X0041396Y0195110D01*
X0041359Y0195030D01*
X0041319Y0194951D01*
X0041275Y0194874D01*
X0041228Y0194799D01*
X0041178Y0194727D01*
X0041124Y0194656D01*
X0041068Y0194589D01*
X0041008Y0194523D01*
X0040946Y0194461D01*
X0040880Y0194401D01*
X0040813Y0194345D01*
X0040742Y0194291D01*
X0040670Y0194241D01*
X0040595Y0194194D01*
X0040518Y0194150D01*
X0040439Y0194110D01*
X0040359Y0194073D01*
X0040277Y0194041D01*
X0040193Y0194011D01*
X0040109Y0193986D01*
X0040023Y0193964D01*
X0039937Y0193947D01*
X0039849Y0193933D01*
X0039761Y0193923D01*
X0039673Y0193917D01*
X0039585Y0193915D01*
X0039497Y0193917D01*
X0039409Y0193923D01*
X0039321Y0193933D01*
X0039233Y0193947D01*
X0039147Y0193964D01*
X0039061Y0193986D01*
X0038977Y0194011D01*
X0038893Y0194041D01*
X0038811Y0194073D01*
X0038731Y0194110D01*
X0038652Y0194150D01*
X0038575Y0194194D01*
X0038500Y0194241D01*
X0038428Y0194291D01*
X0038357Y0194345D01*
X0038290Y0194401D01*
X0038224Y0194461D01*
X0038162Y0194523D01*
X0038102Y0194589D01*
X0038046Y0194656D01*
X0037992Y0194727D01*
X0037942Y0194799D01*
X0037895Y0194874D01*
X0037851Y0194951D01*
X0037811Y0195030D01*
X0037774Y0195110D01*
X0037742Y0195192D01*
X0037712Y0195276D01*
X0037687Y0195360D01*
X0037665Y0195446D01*
X0037648Y0195532D01*
X0037634Y0195620D01*
X0037624Y0195708D01*
X0037618Y0195796D01*
X0037616Y0195884D01*
X0024624Y0039585D02*
X0024626Y0039673D01*
X0024632Y0039761D01*
X0024642Y0039849D01*
X0024656Y0039937D01*
X0024673Y0040023D01*
X0024695Y0040109D01*
X0024720Y0040193D01*
X0024750Y0040277D01*
X0024782Y0040359D01*
X0024819Y0040439D01*
X0024859Y0040518D01*
X0024903Y0040595D01*
X0024950Y0040670D01*
X0025000Y0040742D01*
X0025054Y0040813D01*
X0025110Y0040880D01*
X0025170Y0040946D01*
X0025232Y0041008D01*
X0025298Y0041068D01*
X0025365Y0041124D01*
X0025436Y0041178D01*
X0025508Y0041228D01*
X0025583Y0041275D01*
X0025660Y0041319D01*
X0025739Y0041359D01*
X0025819Y0041396D01*
X0025901Y0041428D01*
X0025985Y0041458D01*
X0026069Y0041483D01*
X0026155Y0041505D01*
X0026241Y0041522D01*
X0026329Y0041536D01*
X0026417Y0041546D01*
X0026505Y0041552D01*
X0026593Y0041554D01*
X0026681Y0041552D01*
X0026769Y0041546D01*
X0026857Y0041536D01*
X0026945Y0041522D01*
X0027031Y0041505D01*
X0027117Y0041483D01*
X0027201Y0041458D01*
X0027285Y0041428D01*
X0027367Y0041396D01*
X0027447Y0041359D01*
X0027526Y0041319D01*
X0027603Y0041275D01*
X0027678Y0041228D01*
X0027750Y0041178D01*
X0027821Y0041124D01*
X0027888Y0041068D01*
X0027954Y0041008D01*
X0028016Y0040946D01*
X0028076Y0040880D01*
X0028132Y0040813D01*
X0028186Y0040742D01*
X0028236Y0040670D01*
X0028283Y0040595D01*
X0028327Y0040518D01*
X0028367Y0040439D01*
X0028404Y0040359D01*
X0028436Y0040277D01*
X0028466Y0040193D01*
X0028491Y0040109D01*
X0028513Y0040023D01*
X0028530Y0039937D01*
X0028544Y0039849D01*
X0028554Y0039761D01*
X0028560Y0039673D01*
X0028562Y0039585D01*
X0028560Y0039497D01*
X0028554Y0039409D01*
X0028544Y0039321D01*
X0028530Y0039233D01*
X0028513Y0039147D01*
X0028491Y0039061D01*
X0028466Y0038977D01*
X0028436Y0038893D01*
X0028404Y0038811D01*
X0028367Y0038731D01*
X0028327Y0038652D01*
X0028283Y0038575D01*
X0028236Y0038500D01*
X0028186Y0038428D01*
X0028132Y0038357D01*
X0028076Y0038290D01*
X0028016Y0038224D01*
X0027954Y0038162D01*
X0027888Y0038102D01*
X0027821Y0038046D01*
X0027750Y0037992D01*
X0027678Y0037942D01*
X0027603Y0037895D01*
X0027526Y0037851D01*
X0027447Y0037811D01*
X0027367Y0037774D01*
X0027285Y0037742D01*
X0027201Y0037712D01*
X0027117Y0037687D01*
X0027031Y0037665D01*
X0026945Y0037648D01*
X0026857Y0037634D01*
X0026769Y0037624D01*
X0026681Y0037618D01*
X0026593Y0037616D01*
X0026505Y0037618D01*
X0026417Y0037624D01*
X0026329Y0037634D01*
X0026241Y0037648D01*
X0026155Y0037665D01*
X0026069Y0037687D01*
X0025985Y0037712D01*
X0025901Y0037742D01*
X0025819Y0037774D01*
X0025739Y0037811D01*
X0025660Y0037851D01*
X0025583Y0037895D01*
X0025508Y0037942D01*
X0025436Y0037992D01*
X0025365Y0038046D01*
X0025298Y0038102D01*
X0025232Y0038162D01*
X0025170Y0038224D01*
X0025110Y0038290D01*
X0025054Y0038357D01*
X0025000Y0038428D01*
X0024950Y0038500D01*
X0024903Y0038575D01*
X0024859Y0038652D01*
X0024819Y0038731D01*
X0024782Y0038811D01*
X0024750Y0038893D01*
X0024720Y0038977D01*
X0024695Y0039061D01*
X0024673Y0039147D01*
X0024656Y0039233D01*
X0024642Y0039321D01*
X0024632Y0039409D01*
X0024626Y0039497D01*
X0024624Y0039585D01*
X0180923Y0026593D02*
X0180925Y0026681D01*
X0180931Y0026769D01*
X0180941Y0026857D01*
X0180955Y0026945D01*
X0180972Y0027031D01*
X0180994Y0027117D01*
X0181019Y0027201D01*
X0181049Y0027285D01*
X0181081Y0027367D01*
X0181118Y0027447D01*
X0181158Y0027526D01*
X0181202Y0027603D01*
X0181249Y0027678D01*
X0181299Y0027750D01*
X0181353Y0027821D01*
X0181409Y0027888D01*
X0181469Y0027954D01*
X0181531Y0028016D01*
X0181597Y0028076D01*
X0181664Y0028132D01*
X0181735Y0028186D01*
X0181807Y0028236D01*
X0181882Y0028283D01*
X0181959Y0028327D01*
X0182038Y0028367D01*
X0182118Y0028404D01*
X0182200Y0028436D01*
X0182284Y0028466D01*
X0182368Y0028491D01*
X0182454Y0028513D01*
X0182540Y0028530D01*
X0182628Y0028544D01*
X0182716Y0028554D01*
X0182804Y0028560D01*
X0182892Y0028562D01*
X0182980Y0028560D01*
X0183068Y0028554D01*
X0183156Y0028544D01*
X0183244Y0028530D01*
X0183330Y0028513D01*
X0183416Y0028491D01*
X0183500Y0028466D01*
X0183584Y0028436D01*
X0183666Y0028404D01*
X0183746Y0028367D01*
X0183825Y0028327D01*
X0183902Y0028283D01*
X0183977Y0028236D01*
X0184049Y0028186D01*
X0184120Y0028132D01*
X0184187Y0028076D01*
X0184253Y0028016D01*
X0184315Y0027954D01*
X0184375Y0027888D01*
X0184431Y0027821D01*
X0184485Y0027750D01*
X0184535Y0027678D01*
X0184582Y0027603D01*
X0184626Y0027526D01*
X0184666Y0027447D01*
X0184703Y0027367D01*
X0184735Y0027285D01*
X0184765Y0027201D01*
X0184790Y0027117D01*
X0184812Y0027031D01*
X0184829Y0026945D01*
X0184843Y0026857D01*
X0184853Y0026769D01*
X0184859Y0026681D01*
X0184861Y0026593D01*
X0184859Y0026505D01*
X0184853Y0026417D01*
X0184843Y0026329D01*
X0184829Y0026241D01*
X0184812Y0026155D01*
X0184790Y0026069D01*
X0184765Y0025985D01*
X0184735Y0025901D01*
X0184703Y0025819D01*
X0184666Y0025739D01*
X0184626Y0025660D01*
X0184582Y0025583D01*
X0184535Y0025508D01*
X0184485Y0025436D01*
X0184431Y0025365D01*
X0184375Y0025298D01*
X0184315Y0025232D01*
X0184253Y0025170D01*
X0184187Y0025110D01*
X0184120Y0025054D01*
X0184049Y0025000D01*
X0183977Y0024950D01*
X0183902Y0024903D01*
X0183825Y0024859D01*
X0183746Y0024819D01*
X0183666Y0024782D01*
X0183584Y0024750D01*
X0183500Y0024720D01*
X0183416Y0024695D01*
X0183330Y0024673D01*
X0183244Y0024656D01*
X0183156Y0024642D01*
X0183068Y0024632D01*
X0182980Y0024626D01*
X0182892Y0024624D01*
X0182804Y0024626D01*
X0182716Y0024632D01*
X0182628Y0024642D01*
X0182540Y0024656D01*
X0182454Y0024673D01*
X0182368Y0024695D01*
X0182284Y0024720D01*
X0182200Y0024750D01*
X0182118Y0024782D01*
X0182038Y0024819D01*
X0181959Y0024859D01*
X0181882Y0024903D01*
X0181807Y0024950D01*
X0181735Y0025000D01*
X0181664Y0025054D01*
X0181597Y0025110D01*
X0181531Y0025170D01*
X0181469Y0025232D01*
X0181409Y0025298D01*
X0181353Y0025365D01*
X0181299Y0025436D01*
X0181249Y0025508D01*
X0181202Y0025583D01*
X0181158Y0025660D01*
X0181118Y0025739D01*
X0181081Y0025819D01*
X0181049Y0025901D01*
X0181019Y0025985D01*
X0180994Y0026069D01*
X0180972Y0026155D01*
X0180955Y0026241D01*
X0180941Y0026329D01*
X0180931Y0026417D01*
X0180925Y0026505D01*
X0180923Y0026593D01*
X0193915Y0182892D02*
X0193917Y0182980D01*
X0193923Y0183068D01*
X0193933Y0183156D01*
X0193947Y0183244D01*
X0193964Y0183330D01*
X0193986Y0183416D01*
X0194011Y0183500D01*
X0194041Y0183584D01*
X0194073Y0183666D01*
X0194110Y0183746D01*
X0194150Y0183825D01*
X0194194Y0183902D01*
X0194241Y0183977D01*
X0194291Y0184049D01*
X0194345Y0184120D01*
X0194401Y0184187D01*
X0194461Y0184253D01*
X0194523Y0184315D01*
X0194589Y0184375D01*
X0194656Y0184431D01*
X0194727Y0184485D01*
X0194799Y0184535D01*
X0194874Y0184582D01*
X0194951Y0184626D01*
X0195030Y0184666D01*
X0195110Y0184703D01*
X0195192Y0184735D01*
X0195276Y0184765D01*
X0195360Y0184790D01*
X0195446Y0184812D01*
X0195532Y0184829D01*
X0195620Y0184843D01*
X0195708Y0184853D01*
X0195796Y0184859D01*
X0195884Y0184861D01*
X0195972Y0184859D01*
X0196060Y0184853D01*
X0196148Y0184843D01*
X0196236Y0184829D01*
X0196322Y0184812D01*
X0196408Y0184790D01*
X0196492Y0184765D01*
X0196576Y0184735D01*
X0196658Y0184703D01*
X0196738Y0184666D01*
X0196817Y0184626D01*
X0196894Y0184582D01*
X0196969Y0184535D01*
X0197041Y0184485D01*
X0197112Y0184431D01*
X0197179Y0184375D01*
X0197245Y0184315D01*
X0197307Y0184253D01*
X0197367Y0184187D01*
X0197423Y0184120D01*
X0197477Y0184049D01*
X0197527Y0183977D01*
X0197574Y0183902D01*
X0197618Y0183825D01*
X0197658Y0183746D01*
X0197695Y0183666D01*
X0197727Y0183584D01*
X0197757Y0183500D01*
X0197782Y0183416D01*
X0197804Y0183330D01*
X0197821Y0183244D01*
X0197835Y0183156D01*
X0197845Y0183068D01*
X0197851Y0182980D01*
X0197853Y0182892D01*
X0197851Y0182804D01*
X0197845Y0182716D01*
X0197835Y0182628D01*
X0197821Y0182540D01*
X0197804Y0182454D01*
X0197782Y0182368D01*
X0197757Y0182284D01*
X0197727Y0182200D01*
X0197695Y0182118D01*
X0197658Y0182038D01*
X0197618Y0181959D01*
X0197574Y0181882D01*
X0197527Y0181807D01*
X0197477Y0181735D01*
X0197423Y0181664D01*
X0197367Y0181597D01*
X0197307Y0181531D01*
X0197245Y0181469D01*
X0197179Y0181409D01*
X0197112Y0181353D01*
X0197041Y0181299D01*
X0196969Y0181249D01*
X0196894Y0181202D01*
X0196817Y0181158D01*
X0196738Y0181118D01*
X0196658Y0181081D01*
X0196576Y0181049D01*
X0196492Y0181019D01*
X0196408Y0180994D01*
X0196322Y0180972D01*
X0196236Y0180955D01*
X0196148Y0180941D01*
X0196060Y0180931D01*
X0195972Y0180925D01*
X0195884Y0180923D01*
X0195796Y0180925D01*
X0195708Y0180931D01*
X0195620Y0180941D01*
X0195532Y0180955D01*
X0195446Y0180972D01*
X0195360Y0180994D01*
X0195276Y0181019D01*
X0195192Y0181049D01*
X0195110Y0181081D01*
X0195030Y0181118D01*
X0194951Y0181158D01*
X0194874Y0181202D01*
X0194799Y0181249D01*
X0194727Y0181299D01*
X0194656Y0181353D01*
X0194589Y0181409D01*
X0194523Y0181469D01*
X0194461Y0181531D01*
X0194401Y0181597D01*
X0194345Y0181664D01*
X0194291Y0181735D01*
X0194241Y0181807D01*
X0194194Y0181882D01*
X0194150Y0181959D01*
X0194110Y0182038D01*
X0194073Y0182118D01*
X0194041Y0182200D01*
X0194011Y0182284D01*
X0193986Y0182368D01*
X0193964Y0182454D01*
X0193947Y0182540D01*
X0193933Y0182628D01*
X0193923Y0182716D01*
X0193917Y0182804D01*
X0193915Y0182892D01*
D12*
X0001002Y0221474D02*
X0001002Y0001002D01*
X0221474Y0001002D01*
X0221474Y0221474D01*
X0001002Y0221474D01*
X0011632Y0210844D02*
X0052183Y0210844D01*
X0052970Y0210844D01*
X0052970Y0205726D01*
X0052183Y0205726D01*
X0016750Y0205726D01*
X0016750Y0170293D01*
X0016750Y0169506D01*
X0011632Y0169506D01*
X0011632Y0170293D01*
X0011632Y0210844D01*
X0011632Y0131711D02*
X0016750Y0131711D01*
X0016750Y0130923D01*
X0016750Y0091553D01*
X0016750Y0090766D01*
X0011632Y0090766D01*
X0011632Y0091553D01*
X0011632Y0130923D01*
X0011632Y0131711D01*
X0090766Y0205726D02*
X0090766Y0210844D01*
X0091553Y0210844D01*
X0091159Y0210844D02*
X0130923Y0210844D01*
X0131711Y0210844D01*
X0131711Y0205726D01*
X0130923Y0205726D01*
X0091553Y0205726D01*
X0090766Y0205726D01*
X0169506Y0205726D02*
X0170293Y0205726D01*
X0205726Y0205726D01*
X0205726Y0170293D01*
X0205726Y0169506D01*
X0210844Y0169506D01*
X0210844Y0170293D01*
X0210844Y0210844D01*
X0170293Y0210844D01*
X0169506Y0210844D01*
X0169506Y0205726D01*
X0205726Y0131711D02*
X0210844Y0131711D01*
X0210844Y0130923D01*
X0210844Y0091553D01*
X0210844Y0090766D01*
X0205726Y0090766D01*
X0205726Y0091553D01*
X0205726Y0130923D01*
X0205726Y0131711D01*
X0205726Y0052970D02*
X0205726Y0052183D01*
X0205726Y0016750D01*
X0170293Y0016750D01*
X0169506Y0016750D01*
X0169506Y0011632D01*
X0170293Y0011632D01*
X0210844Y0011632D01*
X0210844Y0052183D01*
X0210844Y0052970D01*
X0205726Y0052970D01*
X0131711Y0016750D02*
X0131711Y0011632D01*
X0130923Y0011632D01*
X0091553Y0011632D01*
X0090766Y0011632D01*
X0090766Y0016750D01*
X0091553Y0016750D01*
X0130923Y0016750D01*
X0131711Y0016750D01*
X0052970Y0016750D02*
X0052970Y0011632D01*
X0052183Y0011632D01*
X0011632Y0011632D01*
X0011632Y0052183D01*
X0011632Y0052970D01*
X0016750Y0052970D01*
X0016750Y0052183D01*
X0016750Y0016750D01*
X0052183Y0016750D01*
X0052970Y0016750D01*
D13*
X0021019Y0098088D03*
X0083347Y0201948D03*
X0201457Y0123601D03*
X0139130Y0019741D03*
D14*
X0136573Y0019810D02*
X0175943Y0019810D01*
X0175943Y0020064D02*
X0136573Y0020064D01*
X0136573Y0020318D02*
X0175943Y0020318D01*
X0175943Y0020572D02*
X0136573Y0020572D01*
X0136573Y0020826D02*
X0175943Y0020826D01*
X0175943Y0021080D02*
X0136573Y0021080D01*
X0136573Y0021335D02*
X0175943Y0021335D01*
X0175943Y0021589D02*
X0136573Y0021589D01*
X0136573Y0021843D02*
X0175943Y0021843D01*
X0175943Y0022097D02*
X0136573Y0022097D01*
X0136573Y0022351D02*
X0175943Y0022351D01*
X0175943Y0022605D02*
X0136573Y0022605D01*
X0136573Y0022860D02*
X0175943Y0022860D01*
X0175943Y0023114D02*
X0136573Y0023114D01*
X0136573Y0023368D02*
X0175943Y0023368D01*
X0175943Y0023622D02*
X0136573Y0023622D01*
X0136573Y0023876D02*
X0175943Y0023876D01*
X0175943Y0024130D02*
X0136573Y0024130D01*
X0136573Y0024385D02*
X0175943Y0024385D01*
X0175943Y0024639D02*
X0136573Y0024639D01*
X0136573Y0024893D02*
X0175943Y0024893D01*
X0175943Y0025147D02*
X0136573Y0025147D01*
X0136573Y0025401D02*
X0175943Y0025401D01*
X0175943Y0025655D02*
X0136573Y0025655D01*
X0136573Y0025909D02*
X0175943Y0025909D01*
X0175943Y0026164D02*
X0136573Y0026164D01*
X0136573Y0026418D02*
X0175943Y0026418D01*
X0175943Y0026672D02*
X0136573Y0026672D01*
X0136573Y0026926D02*
X0175943Y0026926D01*
X0175943Y0027180D02*
X0136573Y0027180D01*
X0136573Y0027434D02*
X0175943Y0027434D01*
X0175943Y0027689D02*
X0136573Y0027689D01*
X0136573Y0027943D02*
X0175943Y0027943D01*
X0175943Y0028197D02*
X0136573Y0028197D01*
X0136573Y0028451D02*
X0175943Y0028451D01*
X0175943Y0028705D02*
X0136573Y0028705D01*
X0136573Y0028959D02*
X0175943Y0028959D01*
X0175943Y0029214D02*
X0136573Y0029214D01*
X0136573Y0029468D02*
X0175943Y0029468D01*
X0175943Y0029722D02*
X0136573Y0029722D01*
X0136573Y0029976D02*
X0175943Y0029976D01*
X0175943Y0030230D02*
X0136573Y0030230D01*
X0136573Y0030484D02*
X0175943Y0030484D01*
X0175943Y0030739D02*
X0136573Y0030739D01*
X0136573Y0030993D02*
X0175943Y0030993D01*
X0175943Y0031247D02*
X0136573Y0031247D01*
X0136573Y0031501D02*
X0175943Y0031501D01*
X0175943Y0031755D02*
X0136573Y0031755D01*
X0136573Y0032009D02*
X0175432Y0032009D01*
X0175432Y0031757D02*
X0175432Y0038404D01*
X0174921Y0038404D01*
X0174921Y0043005D01*
X0174409Y0043005D01*
X0174409Y0047096D01*
X0173898Y0047096D01*
X0173898Y0050163D01*
X0173387Y0050163D01*
X0173387Y0053231D01*
X0172875Y0053231D01*
X0172875Y0055788D01*
X0172364Y0055788D01*
X0172364Y0058344D01*
X0171853Y0058344D01*
X0171853Y0060901D01*
X0171341Y0060901D01*
X0171341Y0062946D01*
X0170830Y0062946D01*
X0170830Y0065502D01*
X0170319Y0065502D01*
X0170319Y0067548D01*
X0169808Y0067548D01*
X0169808Y0069593D01*
X0169296Y0069593D01*
X0169296Y0071127D01*
X0168785Y0071127D01*
X0168785Y0072661D01*
X0168274Y0072661D01*
X0168274Y0074706D01*
X0167762Y0074706D01*
X0167762Y0076751D01*
X0167251Y0076751D01*
X0167251Y0077774D01*
X0166740Y0077774D01*
X0166740Y0079819D01*
X0166228Y0079819D01*
X0166228Y0081353D01*
X0165717Y0081353D01*
X0165717Y0082887D01*
X0165206Y0082887D01*
X0165206Y0084421D01*
X0164695Y0084421D01*
X0164695Y0085954D01*
X0164183Y0085954D01*
X0164183Y0086977D01*
X0163672Y0086977D01*
X0163672Y0088511D01*
X0163161Y0088511D01*
X0163161Y0090045D01*
X0162649Y0090045D01*
X0162649Y0091067D01*
X0162138Y0091067D01*
X0162138Y0092601D01*
X0161627Y0092601D01*
X0161627Y0094135D01*
X0161115Y0094135D01*
X0161115Y0095669D01*
X0160604Y0095669D01*
X0160604Y0096692D01*
X0160093Y0096692D01*
X0160093Y0097714D01*
X0159582Y0097714D01*
X0159582Y0099248D01*
X0159070Y0099248D01*
X0159070Y0100271D01*
X0158559Y0100271D01*
X0158559Y0101293D01*
X0158048Y0101293D01*
X0158048Y0102316D01*
X0157536Y0102316D01*
X0157536Y0103339D01*
X0157025Y0103339D01*
X0157025Y0104361D01*
X0156514Y0104361D01*
X0156514Y0105384D01*
X0156002Y0105384D01*
X0156002Y0105895D01*
X0155491Y0105895D01*
X0155491Y0106406D01*
X0154980Y0106406D01*
X0154980Y0106918D01*
X0154469Y0106918D01*
X0154469Y0107429D01*
X0153957Y0107429D01*
X0153957Y0107940D01*
X0153446Y0107940D01*
X0153446Y0108452D01*
X0152935Y0108452D01*
X0152935Y0108963D01*
X0152423Y0108963D01*
X0152423Y0109474D01*
X0151912Y0109474D01*
X0151912Y0109985D01*
X0151401Y0109985D01*
X0151401Y0110497D01*
X0150889Y0110497D01*
X0150889Y0111008D01*
X0150378Y0111008D01*
X0150378Y0111519D01*
X0149867Y0111519D01*
X0149867Y0112031D01*
X0149356Y0112031D01*
X0149356Y0112542D01*
X0148844Y0112542D01*
X0148844Y0113053D01*
X0148333Y0113053D01*
X0148333Y0113565D01*
X0147822Y0113565D01*
X0147822Y0114076D01*
X0147310Y0114076D01*
X0147310Y0114587D01*
X0146799Y0114587D01*
X0146799Y0115098D01*
X0146288Y0115098D01*
X0146288Y0115610D01*
X0145776Y0115610D01*
X0145776Y0116121D01*
X0145265Y0116121D01*
X0145265Y0116632D01*
X0144754Y0116632D01*
X0144754Y0117144D01*
X0144243Y0117144D01*
X0144243Y0117655D01*
X0143731Y0117655D01*
X0143731Y0118166D01*
X0143220Y0118166D01*
X0143220Y0118678D01*
X0142709Y0118678D01*
X0142709Y0119189D01*
X0142197Y0119189D01*
X0142197Y0119700D01*
X0141686Y0119700D01*
X0141686Y0120211D01*
X0141175Y0120211D01*
X0141175Y0120723D01*
X0140663Y0120723D01*
X0140663Y0121234D01*
X0140152Y0121234D01*
X0140152Y0121745D01*
X0139641Y0121745D01*
X0139641Y0122257D01*
X0139130Y0122257D01*
X0139130Y0122768D01*
X0138618Y0122768D01*
X0138618Y0123279D01*
X0138107Y0123279D01*
X0138107Y0123791D01*
X0137596Y0123791D01*
X0137596Y0124302D01*
X0137084Y0124302D01*
X0137084Y0124813D01*
X0136573Y0124813D01*
X0136573Y0101293D01*
X0136573Y0018463D01*
X0175943Y0018463D01*
X0175943Y0031757D01*
X0175432Y0031757D01*
X0175432Y0032263D02*
X0136573Y0032263D01*
X0136573Y0032518D02*
X0175432Y0032518D01*
X0175432Y0032772D02*
X0136573Y0032772D01*
X0136573Y0033026D02*
X0175432Y0033026D01*
X0175432Y0033280D02*
X0136573Y0033280D01*
X0136573Y0033534D02*
X0175432Y0033534D01*
X0175432Y0033788D02*
X0136573Y0033788D01*
X0136573Y0034043D02*
X0175432Y0034043D01*
X0175432Y0034297D02*
X0136573Y0034297D01*
X0136573Y0034551D02*
X0175432Y0034551D01*
X0175432Y0034805D02*
X0136573Y0034805D01*
X0136573Y0035059D02*
X0175432Y0035059D01*
X0175432Y0035313D02*
X0136573Y0035313D01*
X0136573Y0035568D02*
X0175432Y0035568D01*
X0175432Y0035822D02*
X0136573Y0035822D01*
X0136573Y0036076D02*
X0175432Y0036076D01*
X0175432Y0036330D02*
X0136573Y0036330D01*
X0136573Y0036584D02*
X0175432Y0036584D01*
X0175432Y0036838D02*
X0136573Y0036838D01*
X0136573Y0037092D02*
X0175432Y0037092D01*
X0175432Y0037347D02*
X0136573Y0037347D01*
X0136573Y0037601D02*
X0175432Y0037601D01*
X0175432Y0037855D02*
X0136573Y0037855D01*
X0136573Y0038109D02*
X0175432Y0038109D01*
X0175432Y0038363D02*
X0136573Y0038363D01*
X0136573Y0038617D02*
X0174921Y0038617D01*
X0174921Y0038872D02*
X0136573Y0038872D01*
X0136573Y0039126D02*
X0174921Y0039126D01*
X0174921Y0039380D02*
X0136573Y0039380D01*
X0136573Y0039634D02*
X0174921Y0039634D01*
X0174921Y0039888D02*
X0136573Y0039888D01*
X0136573Y0040142D02*
X0174921Y0040142D01*
X0174921Y0040397D02*
X0136573Y0040397D01*
X0136573Y0040651D02*
X0174921Y0040651D01*
X0174921Y0040905D02*
X0136573Y0040905D01*
X0136573Y0041159D02*
X0174921Y0041159D01*
X0174921Y0041413D02*
X0136573Y0041413D01*
X0136573Y0041667D02*
X0174921Y0041667D01*
X0174921Y0041921D02*
X0136573Y0041921D01*
X0136573Y0042176D02*
X0174921Y0042176D01*
X0174921Y0042430D02*
X0136573Y0042430D01*
X0136573Y0042684D02*
X0174921Y0042684D01*
X0174921Y0042938D02*
X0136573Y0042938D01*
X0136573Y0043192D02*
X0174409Y0043192D01*
X0174409Y0043446D02*
X0136573Y0043446D01*
X0136573Y0043701D02*
X0174409Y0043701D01*
X0174409Y0043955D02*
X0136573Y0043955D01*
X0136573Y0044209D02*
X0174409Y0044209D01*
X0174409Y0044463D02*
X0136573Y0044463D01*
X0136573Y0044717D02*
X0174409Y0044717D01*
X0174409Y0044971D02*
X0136573Y0044971D01*
X0136573Y0045226D02*
X0174409Y0045226D01*
X0174409Y0045480D02*
X0136573Y0045480D01*
X0136573Y0045734D02*
X0174409Y0045734D01*
X0174409Y0045988D02*
X0136573Y0045988D01*
X0136573Y0046242D02*
X0174409Y0046242D01*
X0174409Y0046496D02*
X0136573Y0046496D01*
X0136573Y0046750D02*
X0174409Y0046750D01*
X0174409Y0047005D02*
X0136573Y0047005D01*
X0136573Y0047259D02*
X0173898Y0047259D01*
X0173898Y0047513D02*
X0136573Y0047513D01*
X0136573Y0047767D02*
X0173898Y0047767D01*
X0173898Y0048021D02*
X0136573Y0048021D01*
X0136573Y0048275D02*
X0173898Y0048275D01*
X0173898Y0048530D02*
X0136573Y0048530D01*
X0136573Y0048784D02*
X0173898Y0048784D01*
X0173898Y0049038D02*
X0136573Y0049038D01*
X0136573Y0049292D02*
X0173898Y0049292D01*
X0173898Y0049546D02*
X0136573Y0049546D01*
X0136573Y0049800D02*
X0173898Y0049800D01*
X0173898Y0050055D02*
X0136573Y0050055D01*
X0136573Y0050309D02*
X0173387Y0050309D01*
X0173387Y0050563D02*
X0136573Y0050563D01*
X0136573Y0050817D02*
X0173387Y0050817D01*
X0173387Y0051071D02*
X0136573Y0051071D01*
X0136573Y0051325D02*
X0173387Y0051325D01*
X0173387Y0051580D02*
X0136573Y0051580D01*
X0136573Y0051834D02*
X0173387Y0051834D01*
X0173387Y0052088D02*
X0136573Y0052088D01*
X0136573Y0052342D02*
X0173387Y0052342D01*
X0173387Y0052596D02*
X0136573Y0052596D01*
X0136573Y0052850D02*
X0173387Y0052850D01*
X0173387Y0053104D02*
X0136573Y0053104D01*
X0136573Y0053359D02*
X0172875Y0053359D01*
X0172875Y0053613D02*
X0136573Y0053613D01*
X0136573Y0053867D02*
X0172875Y0053867D01*
X0172875Y0054121D02*
X0136573Y0054121D01*
X0136573Y0054375D02*
X0172875Y0054375D01*
X0172875Y0054629D02*
X0136573Y0054629D01*
X0136573Y0054884D02*
X0172875Y0054884D01*
X0172875Y0055138D02*
X0136573Y0055138D01*
X0136573Y0055392D02*
X0172875Y0055392D01*
X0172875Y0055646D02*
X0136573Y0055646D01*
X0136573Y0055900D02*
X0172364Y0055900D01*
X0172364Y0056154D02*
X0136573Y0056154D01*
X0136573Y0056409D02*
X0172364Y0056409D01*
X0172364Y0056663D02*
X0136573Y0056663D01*
X0136573Y0056917D02*
X0172364Y0056917D01*
X0172364Y0057171D02*
X0136573Y0057171D01*
X0136573Y0057425D02*
X0172364Y0057425D01*
X0172364Y0057679D02*
X0136573Y0057679D01*
X0136573Y0057933D02*
X0172364Y0057933D01*
X0172364Y0058188D02*
X0136573Y0058188D01*
X0136573Y0058442D02*
X0171853Y0058442D01*
X0171853Y0058696D02*
X0136573Y0058696D01*
X0136573Y0058950D02*
X0171853Y0058950D01*
X0171853Y0059204D02*
X0136573Y0059204D01*
X0136573Y0059458D02*
X0171853Y0059458D01*
X0171853Y0059713D02*
X0136573Y0059713D01*
X0136573Y0059967D02*
X0171853Y0059967D01*
X0171853Y0060221D02*
X0136573Y0060221D01*
X0136573Y0060475D02*
X0171853Y0060475D01*
X0171853Y0060729D02*
X0136573Y0060729D01*
X0136573Y0060983D02*
X0171341Y0060983D01*
X0171341Y0061238D02*
X0136573Y0061238D01*
X0136573Y0061492D02*
X0171341Y0061492D01*
X0171341Y0061746D02*
X0136573Y0061746D01*
X0136573Y0062000D02*
X0171341Y0062000D01*
X0171341Y0062254D02*
X0136573Y0062254D01*
X0136573Y0062508D02*
X0171341Y0062508D01*
X0171341Y0062762D02*
X0136573Y0062762D01*
X0136573Y0063017D02*
X0170830Y0063017D01*
X0170830Y0063271D02*
X0136573Y0063271D01*
X0136573Y0063525D02*
X0170830Y0063525D01*
X0170830Y0063779D02*
X0136573Y0063779D01*
X0136573Y0064033D02*
X0170830Y0064033D01*
X0170830Y0064287D02*
X0136573Y0064287D01*
X0136573Y0064542D02*
X0170830Y0064542D01*
X0170830Y0064796D02*
X0136573Y0064796D01*
X0136573Y0065050D02*
X0170830Y0065050D01*
X0170830Y0065304D02*
X0136573Y0065304D01*
X0136573Y0065558D02*
X0170319Y0065558D01*
X0170319Y0065812D02*
X0136573Y0065812D01*
X0136573Y0066067D02*
X0170319Y0066067D01*
X0170319Y0066321D02*
X0136573Y0066321D01*
X0136573Y0066575D02*
X0170319Y0066575D01*
X0170319Y0066829D02*
X0136573Y0066829D01*
X0136573Y0067083D02*
X0170319Y0067083D01*
X0170319Y0067337D02*
X0136573Y0067337D01*
X0136573Y0067591D02*
X0169808Y0067591D01*
X0169808Y0067846D02*
X0136573Y0067846D01*
X0136573Y0068100D02*
X0169808Y0068100D01*
X0169808Y0068354D02*
X0136573Y0068354D01*
X0136573Y0068608D02*
X0169808Y0068608D01*
X0169808Y0068862D02*
X0136573Y0068862D01*
X0136573Y0069116D02*
X0169808Y0069116D01*
X0169808Y0069371D02*
X0136573Y0069371D01*
X0136573Y0069625D02*
X0169296Y0069625D01*
X0169296Y0069879D02*
X0136573Y0069879D01*
X0136573Y0070133D02*
X0169296Y0070133D01*
X0169296Y0070387D02*
X0136573Y0070387D01*
X0136573Y0070641D02*
X0169296Y0070641D01*
X0169296Y0070896D02*
X0136573Y0070896D01*
X0136573Y0071150D02*
X0168785Y0071150D01*
X0168785Y0071404D02*
X0136573Y0071404D01*
X0136573Y0071658D02*
X0168785Y0071658D01*
X0168785Y0071912D02*
X0136573Y0071912D01*
X0136573Y0072166D02*
X0168785Y0072166D01*
X0168785Y0072420D02*
X0136573Y0072420D01*
X0136573Y0072675D02*
X0168274Y0072675D01*
X0168274Y0072929D02*
X0136573Y0072929D01*
X0136573Y0073183D02*
X0168274Y0073183D01*
X0168274Y0073437D02*
X0136573Y0073437D01*
X0136573Y0073691D02*
X0168274Y0073691D01*
X0168274Y0073945D02*
X0136573Y0073945D01*
X0136573Y0074200D02*
X0168274Y0074200D01*
X0168274Y0074454D02*
X0136573Y0074454D01*
X0136573Y0074708D02*
X0167762Y0074708D01*
X0167762Y0074962D02*
X0136573Y0074962D01*
X0136573Y0075216D02*
X0167762Y0075216D01*
X0167762Y0075470D02*
X0136573Y0075470D01*
X0136573Y0075725D02*
X0167762Y0075725D01*
X0167762Y0075979D02*
X0136573Y0075979D01*
X0136573Y0076233D02*
X0167762Y0076233D01*
X0167762Y0076487D02*
X0136573Y0076487D01*
X0136573Y0076741D02*
X0167762Y0076741D01*
X0167251Y0076995D02*
X0136573Y0076995D01*
X0136573Y0077250D02*
X0167251Y0077250D01*
X0167251Y0077504D02*
X0136573Y0077504D01*
X0136573Y0077758D02*
X0167251Y0077758D01*
X0166740Y0078012D02*
X0136573Y0078012D01*
X0136573Y0078266D02*
X0166740Y0078266D01*
X0166740Y0078520D02*
X0136573Y0078520D01*
X0136573Y0078774D02*
X0166740Y0078774D01*
X0166740Y0079029D02*
X0136573Y0079029D01*
X0136573Y0079283D02*
X0166740Y0079283D01*
X0166740Y0079537D02*
X0136573Y0079537D01*
X0136573Y0079791D02*
X0166740Y0079791D01*
X0166228Y0080045D02*
X0136573Y0080045D01*
X0136573Y0080299D02*
X0166228Y0080299D01*
X0166228Y0080554D02*
X0136573Y0080554D01*
X0136573Y0080808D02*
X0166228Y0080808D01*
X0166228Y0081062D02*
X0136573Y0081062D01*
X0136573Y0081316D02*
X0166228Y0081316D01*
X0165717Y0081570D02*
X0136573Y0081570D01*
X0136573Y0081824D02*
X0165717Y0081824D01*
X0165717Y0082079D02*
X0136573Y0082079D01*
X0136573Y0082333D02*
X0165717Y0082333D01*
X0165717Y0082587D02*
X0136573Y0082587D01*
X0136573Y0082841D02*
X0165717Y0082841D01*
X0165206Y0083095D02*
X0136573Y0083095D01*
X0136573Y0083349D02*
X0165206Y0083349D01*
X0165206Y0083603D02*
X0136573Y0083603D01*
X0136573Y0083858D02*
X0165206Y0083858D01*
X0165206Y0084112D02*
X0136573Y0084112D01*
X0136573Y0084366D02*
X0165206Y0084366D01*
X0164695Y0084620D02*
X0136573Y0084620D01*
X0136573Y0084874D02*
X0164695Y0084874D01*
X0164695Y0085128D02*
X0136573Y0085128D01*
X0136573Y0085383D02*
X0164695Y0085383D01*
X0164695Y0085637D02*
X0136573Y0085637D01*
X0136573Y0085891D02*
X0164695Y0085891D01*
X0164183Y0086145D02*
X0136573Y0086145D01*
X0136573Y0086399D02*
X0164183Y0086399D01*
X0164183Y0086653D02*
X0136573Y0086653D01*
X0136573Y0086908D02*
X0164183Y0086908D01*
X0163672Y0087162D02*
X0136573Y0087162D01*
X0136573Y0087416D02*
X0163672Y0087416D01*
X0163672Y0087670D02*
X0136573Y0087670D01*
X0136573Y0087924D02*
X0163672Y0087924D01*
X0163672Y0088178D02*
X0136573Y0088178D01*
X0136573Y0088432D02*
X0163672Y0088432D01*
X0163161Y0088687D02*
X0136573Y0088687D01*
X0136573Y0088941D02*
X0163161Y0088941D01*
X0163161Y0089195D02*
X0136573Y0089195D01*
X0136573Y0089449D02*
X0163161Y0089449D01*
X0163161Y0089703D02*
X0136573Y0089703D01*
X0136573Y0089957D02*
X0163161Y0089957D01*
X0162649Y0090212D02*
X0136573Y0090212D01*
X0136573Y0090466D02*
X0162649Y0090466D01*
X0162649Y0090720D02*
X0136573Y0090720D01*
X0136573Y0090974D02*
X0162649Y0090974D01*
X0162138Y0091228D02*
X0136573Y0091228D01*
X0136573Y0091482D02*
X0162138Y0091482D01*
X0162138Y0091737D02*
X0136573Y0091737D01*
X0136573Y0091991D02*
X0162138Y0091991D01*
X0162138Y0092245D02*
X0136573Y0092245D01*
X0136573Y0092499D02*
X0162138Y0092499D01*
X0161627Y0092753D02*
X0136573Y0092753D01*
X0136573Y0093007D02*
X0161627Y0093007D01*
X0161627Y0093261D02*
X0136573Y0093261D01*
X0136573Y0093516D02*
X0161627Y0093516D01*
X0161627Y0093770D02*
X0136573Y0093770D01*
X0136573Y0094024D02*
X0161627Y0094024D01*
X0161115Y0094278D02*
X0136573Y0094278D01*
X0136573Y0094532D02*
X0161115Y0094532D01*
X0161115Y0094786D02*
X0136573Y0094786D01*
X0136573Y0095041D02*
X0161115Y0095041D01*
X0161115Y0095295D02*
X0136573Y0095295D01*
X0136573Y0095549D02*
X0161115Y0095549D01*
X0160604Y0095803D02*
X0136573Y0095803D01*
X0136573Y0096057D02*
X0160604Y0096057D01*
X0160604Y0096311D02*
X0136573Y0096311D01*
X0136573Y0096566D02*
X0160604Y0096566D01*
X0160093Y0096820D02*
X0136573Y0096820D01*
X0136573Y0097074D02*
X0160093Y0097074D01*
X0160093Y0097328D02*
X0136573Y0097328D01*
X0136573Y0097582D02*
X0160093Y0097582D01*
X0159582Y0097836D02*
X0136573Y0097836D01*
X0136573Y0098091D02*
X0159582Y0098091D01*
X0159582Y0098345D02*
X0136573Y0098345D01*
X0136573Y0098599D02*
X0159582Y0098599D01*
X0159582Y0098853D02*
X0136573Y0098853D01*
X0136573Y0099107D02*
X0159582Y0099107D01*
X0159070Y0099361D02*
X0136573Y0099361D01*
X0136573Y0099615D02*
X0159070Y0099615D01*
X0159070Y0099870D02*
X0136573Y0099870D01*
X0136573Y0100124D02*
X0159070Y0100124D01*
X0158559Y0100378D02*
X0136573Y0100378D01*
X0136573Y0100632D02*
X0158559Y0100632D01*
X0158559Y0100886D02*
X0136573Y0100886D01*
X0136573Y0101140D02*
X0158559Y0101140D01*
X0158048Y0101395D02*
X0136573Y0101395D01*
X0136573Y0101649D02*
X0158048Y0101649D01*
X0158048Y0101903D02*
X0136573Y0101903D01*
X0136573Y0102157D02*
X0158048Y0102157D01*
X0157536Y0102411D02*
X0136573Y0102411D01*
X0136573Y0102665D02*
X0157536Y0102665D01*
X0157536Y0102920D02*
X0136573Y0102920D01*
X0136573Y0103174D02*
X0157536Y0103174D01*
X0157025Y0103428D02*
X0136573Y0103428D01*
X0136573Y0103682D02*
X0157025Y0103682D01*
X0157025Y0103936D02*
X0136573Y0103936D01*
X0136573Y0104190D02*
X0157025Y0104190D01*
X0156514Y0104444D02*
X0136573Y0104444D01*
X0136573Y0104699D02*
X0156514Y0104699D01*
X0156514Y0104953D02*
X0136573Y0104953D01*
X0136573Y0105207D02*
X0156514Y0105207D01*
X0156002Y0105461D02*
X0136573Y0105461D01*
X0136573Y0105715D02*
X0156002Y0105715D01*
X0155491Y0105969D02*
X0136573Y0105969D01*
X0136573Y0106224D02*
X0155491Y0106224D01*
X0154980Y0106478D02*
X0136573Y0106478D01*
X0136573Y0106732D02*
X0154980Y0106732D01*
X0154469Y0106986D02*
X0136573Y0106986D01*
X0136573Y0107240D02*
X0154469Y0107240D01*
X0153957Y0107494D02*
X0136573Y0107494D01*
X0136573Y0107749D02*
X0153957Y0107749D01*
X0153446Y0108003D02*
X0136573Y0108003D01*
X0136573Y0108257D02*
X0153446Y0108257D01*
X0152935Y0108511D02*
X0136573Y0108511D01*
X0136573Y0108765D02*
X0152935Y0108765D01*
X0152423Y0109019D02*
X0136573Y0109019D01*
X0136573Y0109273D02*
X0152423Y0109273D01*
X0151912Y0109528D02*
X0136573Y0109528D01*
X0136573Y0109782D02*
X0151912Y0109782D01*
X0151401Y0110036D02*
X0136573Y0110036D01*
X0136573Y0110290D02*
X0151401Y0110290D01*
X0150889Y0110544D02*
X0136573Y0110544D01*
X0136573Y0110798D02*
X0150889Y0110798D01*
X0150378Y0111053D02*
X0136573Y0111053D01*
X0136573Y0111307D02*
X0150378Y0111307D01*
X0149867Y0111561D02*
X0136573Y0111561D01*
X0136573Y0111815D02*
X0149867Y0111815D01*
X0149356Y0112069D02*
X0136573Y0112069D01*
X0136573Y0112323D02*
X0149356Y0112323D01*
X0148844Y0112578D02*
X0136573Y0112578D01*
X0136573Y0112832D02*
X0148844Y0112832D01*
X0148333Y0113086D02*
X0136573Y0113086D01*
X0136573Y0113340D02*
X0148333Y0113340D01*
X0147822Y0113594D02*
X0136573Y0113594D01*
X0136573Y0113848D02*
X0147822Y0113848D01*
X0147310Y0114102D02*
X0136573Y0114102D01*
X0136573Y0114357D02*
X0147310Y0114357D01*
X0146799Y0114611D02*
X0136573Y0114611D01*
X0136573Y0114865D02*
X0146799Y0114865D01*
X0146288Y0115119D02*
X0136573Y0115119D01*
X0136573Y0115373D02*
X0146288Y0115373D01*
X0145776Y0115627D02*
X0136573Y0115627D01*
X0136573Y0115882D02*
X0145776Y0115882D01*
X0145265Y0116136D02*
X0136573Y0116136D01*
X0136573Y0116390D02*
X0145265Y0116390D01*
X0144754Y0116644D02*
X0136573Y0116644D01*
X0136573Y0116898D02*
X0144754Y0116898D01*
X0144243Y0117152D02*
X0136573Y0117152D01*
X0136573Y0117407D02*
X0144243Y0117407D01*
X0143731Y0117661D02*
X0136573Y0117661D01*
X0136573Y0117915D02*
X0143731Y0117915D01*
X0143220Y0118169D02*
X0136573Y0118169D01*
X0136573Y0118423D02*
X0143220Y0118423D01*
X0143220Y0118677D02*
X0136573Y0118677D01*
X0136573Y0118931D02*
X0142709Y0118931D01*
X0142709Y0119186D02*
X0136573Y0119186D01*
X0136573Y0119440D02*
X0142197Y0119440D01*
X0142197Y0119694D02*
X0136573Y0119694D01*
X0136573Y0119948D02*
X0141686Y0119948D01*
X0141686Y0120202D02*
X0136573Y0120202D01*
X0136573Y0120456D02*
X0141175Y0120456D01*
X0141175Y0120711D02*
X0136573Y0120711D01*
X0136573Y0120965D02*
X0140663Y0120965D01*
X0140663Y0121219D02*
X0136573Y0121219D01*
X0136573Y0121473D02*
X0140152Y0121473D01*
X0140152Y0121727D02*
X0136573Y0121727D01*
X0136573Y0121981D02*
X0139641Y0121981D01*
X0139641Y0122236D02*
X0136573Y0122236D01*
X0136573Y0122490D02*
X0139130Y0122490D01*
X0139130Y0122744D02*
X0136573Y0122744D01*
X0136573Y0122998D02*
X0138618Y0122998D01*
X0138618Y0123252D02*
X0136573Y0123252D01*
X0136573Y0123506D02*
X0138107Y0123506D01*
X0138107Y0123761D02*
X0136573Y0123761D01*
X0136573Y0124015D02*
X0137596Y0124015D01*
X0137596Y0124269D02*
X0136573Y0124269D01*
X0136573Y0124523D02*
X0137084Y0124523D01*
X0137084Y0124777D02*
X0136573Y0124777D01*
X0121183Y0136573D02*
X0204014Y0136573D01*
X0204014Y0175943D01*
X0190720Y0175943D01*
X0190720Y0175432D01*
X0184073Y0175432D01*
X0184073Y0174921D01*
X0179471Y0174921D01*
X0179471Y0174409D01*
X0175381Y0174409D01*
X0175381Y0173898D01*
X0172313Y0173898D01*
X0172313Y0173387D01*
X0169245Y0173387D01*
X0169245Y0172875D01*
X0166689Y0172875D01*
X0166689Y0172364D01*
X0164132Y0172364D01*
X0164132Y0171853D01*
X0161576Y0171853D01*
X0161576Y0171341D01*
X0159530Y0171341D01*
X0159530Y0170830D01*
X0156974Y0170830D01*
X0156974Y0170319D01*
X0154929Y0170319D01*
X0154929Y0169808D01*
X0152884Y0169808D01*
X0152884Y0169296D01*
X0151350Y0169296D01*
X0151350Y0168785D01*
X0149816Y0168785D01*
X0149816Y0168274D01*
X0147771Y0168274D01*
X0147771Y0167762D01*
X0145725Y0167762D01*
X0145725Y0167251D01*
X0144703Y0167251D01*
X0144703Y0166740D01*
X0142658Y0166740D01*
X0142658Y0166228D01*
X0141124Y0166228D01*
X0141124Y0165717D01*
X0139590Y0165717D01*
X0139590Y0165206D01*
X0138056Y0165206D01*
X0138056Y0164695D01*
X0136522Y0164695D01*
X0136522Y0164183D01*
X0135499Y0164183D01*
X0135499Y0163672D01*
X0133965Y0163672D01*
X0133965Y0163161D01*
X0132432Y0163161D01*
X0132432Y0162649D01*
X0131409Y0162649D01*
X0131409Y0162138D01*
X0129875Y0162138D01*
X0129875Y0161627D01*
X0128341Y0161627D01*
X0128341Y0161115D01*
X0126807Y0161115D01*
X0126807Y0160604D01*
X0125785Y0160604D01*
X0125785Y0160093D01*
X0124762Y0160093D01*
X0124762Y0159582D01*
X0123228Y0159582D01*
X0123228Y0159070D01*
X0122206Y0159070D01*
X0122206Y0158559D01*
X0121183Y0158559D01*
X0121183Y0158048D01*
X0120160Y0158048D01*
X0120160Y0157536D01*
X0119138Y0157536D01*
X0119138Y0157025D01*
X0118115Y0157025D01*
X0118115Y0156514D01*
X0117093Y0156514D01*
X0117093Y0156002D01*
X0116581Y0156002D01*
X0116581Y0155491D01*
X0116070Y0155491D01*
X0116070Y0154980D01*
X0115559Y0154980D01*
X0115559Y0154469D01*
X0115047Y0154469D01*
X0115047Y0153957D01*
X0114536Y0153957D01*
X0114536Y0153446D01*
X0114025Y0153446D01*
X0114025Y0152935D01*
X0113513Y0152935D01*
X0113513Y0152423D01*
X0113002Y0152423D01*
X0113002Y0151912D01*
X0112491Y0151912D01*
X0112491Y0151401D01*
X0111980Y0151401D01*
X0111980Y0150889D01*
X0111468Y0150889D01*
X0111468Y0150378D01*
X0110957Y0150378D01*
X0110957Y0149867D01*
X0110446Y0149867D01*
X0110446Y0149356D01*
X0109934Y0149356D01*
X0109934Y0148844D01*
X0109423Y0148844D01*
X0109423Y0148333D01*
X0108912Y0148333D01*
X0108912Y0147822D01*
X0108400Y0147822D01*
X0108400Y0147310D01*
X0107889Y0147310D01*
X0107889Y0146799D01*
X0107378Y0146799D01*
X0107378Y0146288D01*
X0106867Y0146288D01*
X0106867Y0145776D01*
X0106355Y0145776D01*
X0106355Y0145265D01*
X0105844Y0145265D01*
X0105844Y0144754D01*
X0105333Y0144754D01*
X0105333Y0144243D01*
X0104821Y0144243D01*
X0104821Y0143731D01*
X0104310Y0143731D01*
X0104310Y0143220D01*
X0103799Y0143220D01*
X0103799Y0142709D01*
X0103287Y0142709D01*
X0103287Y0142197D01*
X0102776Y0142197D01*
X0102776Y0141686D01*
X0102265Y0141686D01*
X0102265Y0141175D01*
X0101754Y0141175D01*
X0101754Y0140663D01*
X0101242Y0140663D01*
X0101242Y0140152D01*
X0100731Y0140152D01*
X0100731Y0139641D01*
X0100220Y0139641D01*
X0100220Y0139130D01*
X0099708Y0139130D01*
X0099708Y0138618D01*
X0099197Y0138618D01*
X0099197Y0138107D01*
X0098686Y0138107D01*
X0098686Y0137596D01*
X0098175Y0137596D01*
X0098175Y0137084D01*
X0097663Y0137084D01*
X0097663Y0136573D01*
X0121183Y0136573D01*
X0109423Y0148414D02*
X0204014Y0148414D01*
X0204014Y0148668D02*
X0109423Y0148668D01*
X0109934Y0148922D02*
X0204014Y0148922D01*
X0204014Y0149176D02*
X0109934Y0149176D01*
X0110446Y0149431D02*
X0204014Y0149431D01*
X0204014Y0149685D02*
X0110446Y0149685D01*
X0110957Y0149939D02*
X0204014Y0149939D01*
X0204014Y0150193D02*
X0110957Y0150193D01*
X0111468Y0150447D02*
X0204014Y0150447D01*
X0204014Y0150701D02*
X0111468Y0150701D01*
X0111980Y0150955D02*
X0204014Y0150955D01*
X0204014Y0151210D02*
X0111980Y0151210D01*
X0112491Y0151464D02*
X0204014Y0151464D01*
X0204014Y0151718D02*
X0112491Y0151718D01*
X0113002Y0151972D02*
X0204014Y0151972D01*
X0204014Y0152226D02*
X0113002Y0152226D01*
X0113513Y0152480D02*
X0204014Y0152480D01*
X0204014Y0152735D02*
X0113513Y0152735D01*
X0114025Y0152989D02*
X0204014Y0152989D01*
X0204014Y0153243D02*
X0114025Y0153243D01*
X0114536Y0153497D02*
X0204014Y0153497D01*
X0204014Y0153751D02*
X0114536Y0153751D01*
X0115047Y0154005D02*
X0204014Y0154005D01*
X0204014Y0154260D02*
X0115047Y0154260D01*
X0115559Y0154514D02*
X0204014Y0154514D01*
X0204014Y0154768D02*
X0115559Y0154768D01*
X0116070Y0155022D02*
X0204014Y0155022D01*
X0204014Y0155276D02*
X0116070Y0155276D01*
X0116581Y0155530D02*
X0204014Y0155530D01*
X0204014Y0155784D02*
X0116581Y0155784D01*
X0117093Y0156039D02*
X0204014Y0156039D01*
X0204014Y0156293D02*
X0117093Y0156293D01*
X0118115Y0156547D02*
X0204014Y0156547D01*
X0204014Y0156801D02*
X0118115Y0156801D01*
X0119138Y0157055D02*
X0204014Y0157055D01*
X0204014Y0157309D02*
X0119138Y0157309D01*
X0120160Y0157564D02*
X0204014Y0157564D01*
X0204014Y0157818D02*
X0120160Y0157818D01*
X0121183Y0158072D02*
X0204014Y0158072D01*
X0204014Y0158326D02*
X0121183Y0158326D01*
X0122206Y0158580D02*
X0204014Y0158580D01*
X0204014Y0158834D02*
X0122206Y0158834D01*
X0123228Y0159089D02*
X0204014Y0159089D01*
X0204014Y0159343D02*
X0123228Y0159343D01*
X0124762Y0159597D02*
X0204014Y0159597D01*
X0204014Y0159851D02*
X0124762Y0159851D01*
X0125785Y0160105D02*
X0204014Y0160105D01*
X0204014Y0160359D02*
X0125785Y0160359D01*
X0126807Y0160613D02*
X0204014Y0160613D01*
X0204014Y0160868D02*
X0126807Y0160868D01*
X0128341Y0161122D02*
X0204014Y0161122D01*
X0204014Y0161376D02*
X0128341Y0161376D01*
X0129875Y0161630D02*
X0204014Y0161630D01*
X0204014Y0161884D02*
X0129875Y0161884D01*
X0131409Y0162138D02*
X0204014Y0162138D01*
X0204014Y0162393D02*
X0131409Y0162393D01*
X0131409Y0162647D02*
X0204014Y0162647D01*
X0204014Y0162901D02*
X0132432Y0162901D01*
X0132432Y0163155D02*
X0204014Y0163155D01*
X0204014Y0163409D02*
X0133965Y0163409D01*
X0133965Y0163663D02*
X0204014Y0163663D01*
X0204014Y0163918D02*
X0135499Y0163918D01*
X0135499Y0164172D02*
X0204014Y0164172D01*
X0204014Y0164426D02*
X0136522Y0164426D01*
X0136522Y0164680D02*
X0204014Y0164680D01*
X0204014Y0164934D02*
X0138056Y0164934D01*
X0138056Y0165188D02*
X0204014Y0165188D01*
X0204014Y0165442D02*
X0139590Y0165442D01*
X0139590Y0165697D02*
X0204014Y0165697D01*
X0204014Y0165951D02*
X0141124Y0165951D01*
X0141124Y0166205D02*
X0204014Y0166205D01*
X0204014Y0166459D02*
X0142658Y0166459D01*
X0142658Y0166713D02*
X0204014Y0166713D01*
X0204014Y0166967D02*
X0144703Y0166967D01*
X0144703Y0167222D02*
X0204014Y0167222D01*
X0204014Y0167476D02*
X0145725Y0167476D01*
X0145725Y0167730D02*
X0204014Y0167730D01*
X0204014Y0167984D02*
X0147771Y0167984D01*
X0147771Y0168238D02*
X0204014Y0168238D01*
X0204014Y0168492D02*
X0149816Y0168492D01*
X0149816Y0168747D02*
X0204014Y0168747D01*
X0204014Y0169001D02*
X0151350Y0169001D01*
X0151350Y0169255D02*
X0204014Y0169255D01*
X0204014Y0169509D02*
X0152884Y0169509D01*
X0152884Y0169763D02*
X0204014Y0169763D01*
X0204014Y0170017D02*
X0154929Y0170017D01*
X0154929Y0170272D02*
X0204014Y0170272D01*
X0204014Y0170526D02*
X0156974Y0170526D01*
X0156974Y0170780D02*
X0204014Y0170780D01*
X0204014Y0171034D02*
X0159530Y0171034D01*
X0159530Y0171288D02*
X0204014Y0171288D01*
X0204014Y0171542D02*
X0161576Y0171542D01*
X0161576Y0171796D02*
X0204014Y0171796D01*
X0204014Y0172051D02*
X0164132Y0172051D01*
X0164132Y0172305D02*
X0204014Y0172305D01*
X0204014Y0172559D02*
X0166689Y0172559D01*
X0166689Y0172813D02*
X0204014Y0172813D01*
X0204014Y0173067D02*
X0169245Y0173067D01*
X0169245Y0173321D02*
X0204014Y0173321D01*
X0204014Y0173576D02*
X0172313Y0173576D01*
X0172313Y0173830D02*
X0204014Y0173830D01*
X0204014Y0174084D02*
X0175381Y0174084D01*
X0175381Y0174338D02*
X0204014Y0174338D01*
X0204014Y0174592D02*
X0179471Y0174592D01*
X0179471Y0174846D02*
X0204014Y0174846D01*
X0204014Y0175101D02*
X0184073Y0175101D01*
X0184073Y0175355D02*
X0204014Y0175355D01*
X0204014Y0175609D02*
X0190720Y0175609D01*
X0190720Y0175863D02*
X0204014Y0175863D01*
X0190653Y0189421D02*
X0190653Y0189932D01*
X0191165Y0189932D01*
X0191165Y0190444D01*
X0191676Y0190444D01*
X0191676Y0190955D01*
X0192187Y0190955D01*
X0192187Y0191466D01*
X0192698Y0191466D01*
X0192698Y0191978D01*
X0193210Y0191978D01*
X0193210Y0192489D01*
X0193721Y0192489D01*
X0193721Y0193000D01*
X0194232Y0193000D01*
X0194232Y0193511D01*
X0194744Y0193511D01*
X0194744Y0194023D01*
X0195255Y0194023D01*
X0195255Y0194534D01*
X0195766Y0194534D01*
X0195766Y0195045D01*
X0196278Y0195045D01*
X0196278Y0195557D01*
X0196789Y0195557D01*
X0196789Y0196068D01*
X0197300Y0196068D01*
X0197300Y0196579D01*
X0197811Y0196579D01*
X0197811Y0197091D01*
X0198323Y0197091D01*
X0198323Y0197602D01*
X0198834Y0197602D01*
X0198834Y0198113D01*
X0199345Y0198113D01*
X0199345Y0198624D01*
X0199857Y0198624D01*
X0199857Y0199136D01*
X0200368Y0199136D01*
X0200368Y0199647D01*
X0200879Y0199647D01*
X0200879Y0200158D01*
X0201391Y0200158D01*
X0201391Y0200670D01*
X0201902Y0200670D01*
X0201902Y0201181D01*
X0202413Y0201181D01*
X0202413Y0201692D01*
X0202924Y0201692D01*
X0202924Y0202204D01*
X0203436Y0202204D01*
X0203436Y0202715D01*
X0203947Y0202715D01*
X0203947Y0203226D01*
X0180427Y0203226D01*
X0097597Y0203226D01*
X0097597Y0163856D01*
X0110891Y0163856D01*
X0110891Y0164367D01*
X0117537Y0164367D01*
X0117537Y0164879D01*
X0122139Y0164879D01*
X0122139Y0165390D01*
X0126229Y0165390D01*
X0126229Y0165901D01*
X0129297Y0165901D01*
X0129297Y0166413D01*
X0132365Y0166413D01*
X0132365Y0166924D01*
X0134922Y0166924D01*
X0134922Y0167435D01*
X0137478Y0167435D01*
X0137478Y0167946D01*
X0140035Y0167946D01*
X0140035Y0168458D01*
X0142080Y0168458D01*
X0142080Y0168969D01*
X0144636Y0168969D01*
X0144636Y0169480D01*
X0146681Y0169480D01*
X0146681Y0169992D01*
X0148727Y0169992D01*
X0148727Y0170503D01*
X0150261Y0170503D01*
X0150261Y0171014D01*
X0151794Y0171014D01*
X0151794Y0171526D01*
X0153840Y0171526D01*
X0153840Y0172037D01*
X0155885Y0172037D01*
X0155885Y0172548D01*
X0156907Y0172548D01*
X0156907Y0173059D01*
X0158953Y0173059D01*
X0158953Y0173571D01*
X0160487Y0173571D01*
X0160487Y0174082D01*
X0162020Y0174082D01*
X0162020Y0174593D01*
X0163554Y0174593D01*
X0163554Y0175105D01*
X0165088Y0175105D01*
X0165088Y0175616D01*
X0166111Y0175616D01*
X0166111Y0176127D01*
X0167645Y0176127D01*
X0167645Y0176639D01*
X0169179Y0176639D01*
X0169179Y0177150D01*
X0170201Y0177150D01*
X0170201Y0177661D01*
X0171735Y0177661D01*
X0171735Y0178172D01*
X0173269Y0178172D01*
X0173269Y0178684D01*
X0174803Y0178684D01*
X0174803Y0179195D01*
X0175826Y0179195D01*
X0175826Y0179706D01*
X0176848Y0179706D01*
X0176848Y0180218D01*
X0178382Y0180218D01*
X0178382Y0180729D01*
X0179405Y0180729D01*
X0179405Y0181240D01*
X0180427Y0181240D01*
X0180427Y0181752D01*
X0181450Y0181752D01*
X0181450Y0182263D01*
X0182472Y0182263D01*
X0182472Y0182774D01*
X0183495Y0182774D01*
X0183495Y0183285D01*
X0184518Y0183285D01*
X0184518Y0183797D01*
X0185029Y0183797D01*
X0185029Y0184308D01*
X0185540Y0184308D01*
X0185540Y0184819D01*
X0186052Y0184819D01*
X0186052Y0185331D01*
X0186563Y0185331D01*
X0186563Y0185842D01*
X0187074Y0185842D01*
X0187074Y0186353D01*
X0187585Y0186353D01*
X0187585Y0186865D01*
X0188097Y0186865D01*
X0188097Y0187376D01*
X0188608Y0187376D01*
X0188608Y0187887D01*
X0189119Y0187887D01*
X0189119Y0188398D01*
X0189631Y0188398D01*
X0189631Y0188910D01*
X0190142Y0188910D01*
X0190142Y0189421D01*
X0190653Y0189421D01*
X0190653Y0189588D02*
X0097597Y0189588D01*
X0097597Y0189842D02*
X0190653Y0189842D01*
X0191165Y0190096D02*
X0097597Y0190096D01*
X0097597Y0190350D02*
X0191165Y0190350D01*
X0191676Y0190604D02*
X0097597Y0190604D01*
X0097597Y0190858D02*
X0191676Y0190858D01*
X0192187Y0191112D02*
X0097597Y0191112D01*
X0097597Y0191367D02*
X0192187Y0191367D01*
X0192698Y0191621D02*
X0097597Y0191621D01*
X0097597Y0191875D02*
X0192698Y0191875D01*
X0193210Y0192129D02*
X0097597Y0192129D01*
X0097597Y0192383D02*
X0193210Y0192383D01*
X0193721Y0192637D02*
X0097597Y0192637D01*
X0097597Y0192892D02*
X0193721Y0192892D01*
X0194232Y0193146D02*
X0097597Y0193146D01*
X0097597Y0193400D02*
X0194232Y0193400D01*
X0194744Y0193654D02*
X0097597Y0193654D01*
X0097597Y0193908D02*
X0194744Y0193908D01*
X0195255Y0194162D02*
X0097597Y0194162D01*
X0097597Y0194417D02*
X0195255Y0194417D01*
X0195766Y0194671D02*
X0097597Y0194671D01*
X0097597Y0194925D02*
X0195766Y0194925D01*
X0196278Y0195179D02*
X0097597Y0195179D01*
X0097597Y0195433D02*
X0196278Y0195433D01*
X0196789Y0195687D02*
X0097597Y0195687D01*
X0097597Y0195942D02*
X0196789Y0195942D01*
X0197300Y0196196D02*
X0097597Y0196196D01*
X0097597Y0196450D02*
X0197300Y0196450D01*
X0197811Y0196704D02*
X0097597Y0196704D01*
X0097597Y0196958D02*
X0197811Y0196958D01*
X0198323Y0197212D02*
X0097597Y0197212D01*
X0097597Y0197466D02*
X0198323Y0197466D01*
X0198834Y0197721D02*
X0097597Y0197721D01*
X0097597Y0197975D02*
X0198834Y0197975D01*
X0199345Y0198229D02*
X0097597Y0198229D01*
X0097597Y0198483D02*
X0199345Y0198483D01*
X0199857Y0198737D02*
X0097597Y0198737D01*
X0097597Y0198991D02*
X0199857Y0198991D01*
X0200368Y0199246D02*
X0097597Y0199246D01*
X0097597Y0199500D02*
X0200368Y0199500D01*
X0200879Y0199754D02*
X0097597Y0199754D01*
X0097597Y0200008D02*
X0200879Y0200008D01*
X0201391Y0200262D02*
X0097597Y0200262D01*
X0097597Y0200516D02*
X0201391Y0200516D01*
X0201902Y0200771D02*
X0097597Y0200771D01*
X0097597Y0201025D02*
X0201902Y0201025D01*
X0202413Y0201279D02*
X0097597Y0201279D01*
X0097597Y0201533D02*
X0202413Y0201533D01*
X0202924Y0201787D02*
X0097597Y0201787D01*
X0097597Y0202041D02*
X0202924Y0202041D01*
X0203436Y0202295D02*
X0097597Y0202295D01*
X0097597Y0202550D02*
X0203436Y0202550D01*
X0203947Y0202804D02*
X0097597Y0202804D01*
X0097597Y0203058D02*
X0203947Y0203058D01*
X0190142Y0189333D02*
X0097597Y0189333D01*
X0097597Y0189079D02*
X0190142Y0189079D01*
X0189631Y0188825D02*
X0097597Y0188825D01*
X0097597Y0188571D02*
X0189631Y0188571D01*
X0189119Y0188317D02*
X0097597Y0188317D01*
X0097597Y0188063D02*
X0189119Y0188063D01*
X0188608Y0187808D02*
X0097597Y0187808D01*
X0097597Y0187554D02*
X0188608Y0187554D01*
X0188097Y0187300D02*
X0097597Y0187300D01*
X0097597Y0187046D02*
X0188097Y0187046D01*
X0187585Y0186792D02*
X0097597Y0186792D01*
X0097597Y0186538D02*
X0187585Y0186538D01*
X0187074Y0186283D02*
X0097597Y0186283D01*
X0097597Y0186029D02*
X0187074Y0186029D01*
X0186563Y0185775D02*
X0097597Y0185775D01*
X0097597Y0185521D02*
X0186563Y0185521D01*
X0186052Y0185267D02*
X0097597Y0185267D01*
X0097597Y0185013D02*
X0186052Y0185013D01*
X0185540Y0184759D02*
X0097597Y0184759D01*
X0097597Y0184504D02*
X0185540Y0184504D01*
X0185029Y0184250D02*
X0097597Y0184250D01*
X0097597Y0183996D02*
X0185029Y0183996D01*
X0184518Y0183742D02*
X0097597Y0183742D01*
X0097597Y0183488D02*
X0184518Y0183488D01*
X0183495Y0183234D02*
X0097597Y0183234D01*
X0097597Y0182979D02*
X0183495Y0182979D01*
X0182472Y0182725D02*
X0097597Y0182725D01*
X0097597Y0182471D02*
X0182472Y0182471D01*
X0181450Y0182217D02*
X0097597Y0182217D01*
X0097597Y0181963D02*
X0181450Y0181963D01*
X0180427Y0181709D02*
X0097597Y0181709D01*
X0097597Y0181454D02*
X0180427Y0181454D01*
X0179405Y0181200D02*
X0097597Y0181200D01*
X0097597Y0180946D02*
X0179405Y0180946D01*
X0178382Y0180692D02*
X0097597Y0180692D01*
X0097597Y0180438D02*
X0178382Y0180438D01*
X0176848Y0180184D02*
X0097597Y0180184D01*
X0097597Y0179930D02*
X0176848Y0179930D01*
X0175826Y0179675D02*
X0097597Y0179675D01*
X0097597Y0179421D02*
X0175826Y0179421D01*
X0174803Y0179167D02*
X0097597Y0179167D01*
X0097597Y0178913D02*
X0174803Y0178913D01*
X0173269Y0178659D02*
X0097597Y0178659D01*
X0097597Y0178405D02*
X0173269Y0178405D01*
X0171735Y0178150D02*
X0097597Y0178150D01*
X0097597Y0177896D02*
X0171735Y0177896D01*
X0170201Y0177642D02*
X0097597Y0177642D01*
X0097597Y0177388D02*
X0170201Y0177388D01*
X0169179Y0177134D02*
X0097597Y0177134D01*
X0097597Y0176880D02*
X0169179Y0176880D01*
X0167645Y0176625D02*
X0097597Y0176625D01*
X0097597Y0176371D02*
X0167645Y0176371D01*
X0166111Y0176117D02*
X0097597Y0176117D01*
X0097597Y0175863D02*
X0166111Y0175863D01*
X0165088Y0175609D02*
X0097597Y0175609D01*
X0097597Y0175355D02*
X0165088Y0175355D01*
X0163554Y0175101D02*
X0097597Y0175101D01*
X0097597Y0174846D02*
X0163554Y0174846D01*
X0162020Y0174592D02*
X0097597Y0174592D01*
X0097597Y0174338D02*
X0162020Y0174338D01*
X0162020Y0174084D02*
X0097597Y0174084D01*
X0097597Y0173830D02*
X0160487Y0173830D01*
X0160487Y0173576D02*
X0097597Y0173576D01*
X0097597Y0173321D02*
X0158953Y0173321D01*
X0158953Y0173067D02*
X0097597Y0173067D01*
X0097597Y0172813D02*
X0156907Y0172813D01*
X0156907Y0172559D02*
X0097597Y0172559D01*
X0097597Y0172305D02*
X0155885Y0172305D01*
X0155885Y0172051D02*
X0097597Y0172051D01*
X0097597Y0171796D02*
X0153840Y0171796D01*
X0153840Y0171542D02*
X0097597Y0171542D01*
X0097597Y0171288D02*
X0151794Y0171288D01*
X0151794Y0171034D02*
X0097597Y0171034D01*
X0097597Y0170780D02*
X0150261Y0170780D01*
X0150261Y0170526D02*
X0097597Y0170526D01*
X0097597Y0170272D02*
X0148727Y0170272D01*
X0148727Y0170017D02*
X0097597Y0170017D01*
X0097597Y0169763D02*
X0146681Y0169763D01*
X0146681Y0169509D02*
X0097597Y0169509D01*
X0097597Y0169255D02*
X0144636Y0169255D01*
X0144636Y0169001D02*
X0097597Y0169001D01*
X0097597Y0168747D02*
X0142080Y0168747D01*
X0142080Y0168492D02*
X0097597Y0168492D01*
X0097597Y0168238D02*
X0140035Y0168238D01*
X0140035Y0167984D02*
X0097597Y0167984D01*
X0097597Y0167730D02*
X0137478Y0167730D01*
X0137478Y0167476D02*
X0097597Y0167476D01*
X0097597Y0167222D02*
X0134922Y0167222D01*
X0134922Y0166967D02*
X0097597Y0166967D01*
X0097597Y0166713D02*
X0132365Y0166713D01*
X0132365Y0166459D02*
X0097597Y0166459D01*
X0097597Y0166205D02*
X0129297Y0166205D01*
X0129297Y0165951D02*
X0097597Y0165951D01*
X0097597Y0165697D02*
X0126229Y0165697D01*
X0126229Y0165442D02*
X0097597Y0165442D01*
X0097597Y0165188D02*
X0122139Y0165188D01*
X0122139Y0164934D02*
X0097597Y0164934D01*
X0097597Y0164680D02*
X0117537Y0164680D01*
X0117537Y0164426D02*
X0097597Y0164426D01*
X0097597Y0164172D02*
X0110891Y0164172D01*
X0110891Y0163918D02*
X0097597Y0163918D01*
X0085903Y0163918D02*
X0050112Y0163918D01*
X0050112Y0164172D02*
X0085903Y0164172D01*
X0085903Y0164426D02*
X0050112Y0164426D01*
X0050112Y0164680D02*
X0085903Y0164680D01*
X0085903Y0164934D02*
X0050112Y0164934D01*
X0050112Y0165188D02*
X0085903Y0165188D01*
X0085903Y0165442D02*
X0050112Y0165442D01*
X0050112Y0165697D02*
X0085903Y0165697D01*
X0085903Y0165951D02*
X0049601Y0165951D01*
X0049601Y0165901D02*
X0050112Y0165901D01*
X0050112Y0163345D01*
X0050624Y0163345D01*
X0050624Y0160788D01*
X0051135Y0160788D01*
X0051135Y0158743D01*
X0051646Y0158743D01*
X0051646Y0156187D01*
X0052158Y0156187D01*
X0052158Y0154141D01*
X0052669Y0154141D01*
X0052669Y0152096D01*
X0053180Y0152096D01*
X0053180Y0150562D01*
X0053691Y0150562D01*
X0053691Y0149028D01*
X0054203Y0149028D01*
X0054203Y0146983D01*
X0054714Y0146983D01*
X0054714Y0144938D01*
X0055225Y0144938D01*
X0055225Y0143915D01*
X0055737Y0143915D01*
X0055737Y0141870D01*
X0056248Y0141870D01*
X0056248Y0140336D01*
X0056759Y0140336D01*
X0056759Y0138802D01*
X0057271Y0138802D01*
X0057271Y0137268D01*
X0057782Y0137268D01*
X0057782Y0135735D01*
X0058293Y0135735D01*
X0058293Y0134712D01*
X0058804Y0134712D01*
X0058804Y0133178D01*
X0059316Y0133178D01*
X0059316Y0131644D01*
X0059827Y0131644D01*
X0059827Y0130622D01*
X0060338Y0130622D01*
X0060338Y0129088D01*
X0060850Y0129088D01*
X0060850Y0127554D01*
X0061361Y0127554D01*
X0061361Y0126020D01*
X0061872Y0126020D01*
X0061872Y0124997D01*
X0062384Y0124997D01*
X0062384Y0123975D01*
X0062895Y0123975D01*
X0062895Y0122441D01*
X0063406Y0122441D01*
X0063406Y0121418D01*
X0063917Y0121418D01*
X0063917Y0120396D01*
X0064429Y0120396D01*
X0064429Y0119373D01*
X0064940Y0119373D01*
X0064940Y0118350D01*
X0065451Y0118350D01*
X0065451Y0117328D01*
X0065963Y0117328D01*
X0065963Y0116305D01*
X0066474Y0116305D01*
X0066474Y0115794D01*
X0066985Y0115794D01*
X0066985Y0115283D01*
X0067497Y0115283D01*
X0067497Y0114771D01*
X0068008Y0114771D01*
X0068008Y0114260D01*
X0068519Y0114260D01*
X0068519Y0113749D01*
X0069030Y0113749D01*
X0069030Y0113237D01*
X0069542Y0113237D01*
X0069542Y0112726D01*
X0070053Y0112726D01*
X0070053Y0112215D01*
X0070564Y0112215D01*
X0070564Y0111703D01*
X0071076Y0111703D01*
X0071076Y0111192D01*
X0071587Y0111192D01*
X0071587Y0110681D01*
X0072098Y0110681D01*
X0072098Y0110170D01*
X0072609Y0110170D01*
X0072609Y0109658D01*
X0073121Y0109658D01*
X0073121Y0109147D01*
X0073632Y0109147D01*
X0073632Y0108636D01*
X0074143Y0108636D01*
X0074143Y0108124D01*
X0074655Y0108124D01*
X0074655Y0107613D01*
X0075166Y0107613D01*
X0075166Y0107102D01*
X0075677Y0107102D01*
X0075677Y0106591D01*
X0076189Y0106591D01*
X0076189Y0106079D01*
X0076700Y0106079D01*
X0076700Y0105568D01*
X0077211Y0105568D01*
X0077211Y0105057D01*
X0077722Y0105057D01*
X0077722Y0104545D01*
X0078234Y0104545D01*
X0078234Y0104034D01*
X0078745Y0104034D01*
X0078745Y0103523D01*
X0079256Y0103523D01*
X0079256Y0103011D01*
X0079768Y0103011D01*
X0079768Y0102500D01*
X0080279Y0102500D01*
X0080279Y0101989D01*
X0080790Y0101989D01*
X0080790Y0101477D01*
X0081302Y0101477D01*
X0081302Y0100966D01*
X0081813Y0100966D01*
X0081813Y0100455D01*
X0082324Y0100455D01*
X0082324Y0099944D01*
X0082835Y0099944D01*
X0082835Y0099432D01*
X0083347Y0099432D01*
X0083347Y0098921D01*
X0083858Y0098921D01*
X0083858Y0098410D01*
X0084369Y0098410D01*
X0084369Y0097898D01*
X0084881Y0097898D01*
X0084881Y0097387D01*
X0085392Y0097387D01*
X0085392Y0096876D01*
X0085903Y0096876D01*
X0085903Y0120396D01*
X0085903Y0203226D01*
X0046533Y0203226D01*
X0046533Y0189932D01*
X0047045Y0189932D01*
X0047045Y0183285D01*
X0047556Y0183285D01*
X0047556Y0178684D01*
X0048067Y0178684D01*
X0048067Y0174593D01*
X0048578Y0174593D01*
X0048578Y0171526D01*
X0049090Y0171526D01*
X0049090Y0168458D01*
X0049601Y0168458D01*
X0049601Y0165901D01*
X0049601Y0166205D02*
X0085903Y0166205D01*
X0085903Y0166459D02*
X0049601Y0166459D01*
X0049601Y0166713D02*
X0085903Y0166713D01*
X0085903Y0166967D02*
X0049601Y0166967D01*
X0049601Y0167222D02*
X0085903Y0167222D01*
X0085903Y0167476D02*
X0049601Y0167476D01*
X0049601Y0167730D02*
X0085903Y0167730D01*
X0085903Y0167984D02*
X0049601Y0167984D01*
X0049601Y0168238D02*
X0085903Y0168238D01*
X0085903Y0168492D02*
X0049090Y0168492D01*
X0049090Y0168747D02*
X0085903Y0168747D01*
X0085903Y0169001D02*
X0049090Y0169001D01*
X0049090Y0169255D02*
X0085903Y0169255D01*
X0085903Y0169509D02*
X0049090Y0169509D01*
X0049090Y0169763D02*
X0085903Y0169763D01*
X0085903Y0170017D02*
X0049090Y0170017D01*
X0049090Y0170272D02*
X0085903Y0170272D01*
X0085903Y0170526D02*
X0049090Y0170526D01*
X0049090Y0170780D02*
X0085903Y0170780D01*
X0085903Y0171034D02*
X0049090Y0171034D01*
X0049090Y0171288D02*
X0085903Y0171288D01*
X0085903Y0171542D02*
X0048578Y0171542D01*
X0048578Y0171796D02*
X0085903Y0171796D01*
X0085903Y0172051D02*
X0048578Y0172051D01*
X0048578Y0172305D02*
X0085903Y0172305D01*
X0085903Y0172559D02*
X0048578Y0172559D01*
X0048578Y0172813D02*
X0085903Y0172813D01*
X0085903Y0173067D02*
X0048578Y0173067D01*
X0048578Y0173321D02*
X0085903Y0173321D01*
X0085903Y0173576D02*
X0048578Y0173576D01*
X0048578Y0173830D02*
X0085903Y0173830D01*
X0085903Y0174084D02*
X0048578Y0174084D01*
X0048578Y0174338D02*
X0085903Y0174338D01*
X0085903Y0174592D02*
X0048578Y0174592D01*
X0048067Y0174846D02*
X0085903Y0174846D01*
X0085903Y0175101D02*
X0048067Y0175101D01*
X0048067Y0175355D02*
X0085903Y0175355D01*
X0085903Y0175609D02*
X0048067Y0175609D01*
X0048067Y0175863D02*
X0085903Y0175863D01*
X0085903Y0176117D02*
X0048067Y0176117D01*
X0048067Y0176371D02*
X0085903Y0176371D01*
X0085903Y0176625D02*
X0048067Y0176625D01*
X0048067Y0176880D02*
X0085903Y0176880D01*
X0085903Y0177134D02*
X0048067Y0177134D01*
X0048067Y0177388D02*
X0085903Y0177388D01*
X0085903Y0177642D02*
X0048067Y0177642D01*
X0048067Y0177896D02*
X0085903Y0177896D01*
X0085903Y0178150D02*
X0048067Y0178150D01*
X0048067Y0178405D02*
X0085903Y0178405D01*
X0085903Y0178659D02*
X0048067Y0178659D01*
X0047556Y0178913D02*
X0085903Y0178913D01*
X0085903Y0179167D02*
X0047556Y0179167D01*
X0047556Y0179421D02*
X0085903Y0179421D01*
X0085903Y0179675D02*
X0047556Y0179675D01*
X0047556Y0179930D02*
X0085903Y0179930D01*
X0085903Y0180184D02*
X0047556Y0180184D01*
X0047556Y0180438D02*
X0085903Y0180438D01*
X0085903Y0180692D02*
X0047556Y0180692D01*
X0047556Y0180946D02*
X0085903Y0180946D01*
X0085903Y0181200D02*
X0047556Y0181200D01*
X0047556Y0181454D02*
X0085903Y0181454D01*
X0085903Y0181709D02*
X0047556Y0181709D01*
X0047556Y0181963D02*
X0085903Y0181963D01*
X0085903Y0182217D02*
X0047556Y0182217D01*
X0047556Y0182471D02*
X0085903Y0182471D01*
X0085903Y0182725D02*
X0047556Y0182725D01*
X0047556Y0182979D02*
X0085903Y0182979D01*
X0085903Y0183234D02*
X0047556Y0183234D01*
X0047045Y0183488D02*
X0085903Y0183488D01*
X0085903Y0183742D02*
X0047045Y0183742D01*
X0047045Y0183996D02*
X0085903Y0183996D01*
X0085903Y0184250D02*
X0047045Y0184250D01*
X0047045Y0184504D02*
X0085903Y0184504D01*
X0085903Y0184759D02*
X0047045Y0184759D01*
X0047045Y0185013D02*
X0085903Y0185013D01*
X0085903Y0185267D02*
X0047045Y0185267D01*
X0047045Y0185521D02*
X0085903Y0185521D01*
X0085903Y0185775D02*
X0047045Y0185775D01*
X0047045Y0186029D02*
X0085903Y0186029D01*
X0085903Y0186283D02*
X0047045Y0186283D01*
X0047045Y0186538D02*
X0085903Y0186538D01*
X0085903Y0186792D02*
X0047045Y0186792D01*
X0047045Y0187046D02*
X0085903Y0187046D01*
X0085903Y0187300D02*
X0047045Y0187300D01*
X0047045Y0187554D02*
X0085903Y0187554D01*
X0085903Y0187808D02*
X0047045Y0187808D01*
X0047045Y0188063D02*
X0085903Y0188063D01*
X0085903Y0188317D02*
X0047045Y0188317D01*
X0047045Y0188571D02*
X0085903Y0188571D01*
X0085903Y0188825D02*
X0047045Y0188825D01*
X0047045Y0189079D02*
X0085903Y0189079D01*
X0085903Y0189333D02*
X0047045Y0189333D01*
X0047045Y0189588D02*
X0085903Y0189588D01*
X0085903Y0189842D02*
X0047045Y0189842D01*
X0046533Y0190096D02*
X0085903Y0190096D01*
X0085903Y0190350D02*
X0046533Y0190350D01*
X0046533Y0190604D02*
X0085903Y0190604D01*
X0085903Y0190858D02*
X0046533Y0190858D01*
X0046533Y0191112D02*
X0085903Y0191112D01*
X0085903Y0191367D02*
X0046533Y0191367D01*
X0046533Y0191621D02*
X0085903Y0191621D01*
X0085903Y0191875D02*
X0046533Y0191875D01*
X0046533Y0192129D02*
X0085903Y0192129D01*
X0085903Y0192383D02*
X0046533Y0192383D01*
X0046533Y0192637D02*
X0085903Y0192637D01*
X0085903Y0192892D02*
X0046533Y0192892D01*
X0046533Y0193146D02*
X0085903Y0193146D01*
X0085903Y0193400D02*
X0046533Y0193400D01*
X0046533Y0193654D02*
X0085903Y0193654D01*
X0085903Y0193908D02*
X0046533Y0193908D01*
X0046533Y0194162D02*
X0085903Y0194162D01*
X0085903Y0194417D02*
X0046533Y0194417D01*
X0046533Y0194671D02*
X0085903Y0194671D01*
X0085903Y0194925D02*
X0046533Y0194925D01*
X0046533Y0195179D02*
X0085903Y0195179D01*
X0085903Y0195433D02*
X0046533Y0195433D01*
X0046533Y0195687D02*
X0085903Y0195687D01*
X0085903Y0195942D02*
X0046533Y0195942D01*
X0046533Y0196196D02*
X0085903Y0196196D01*
X0085903Y0196450D02*
X0046533Y0196450D01*
X0046533Y0196704D02*
X0085903Y0196704D01*
X0085903Y0196958D02*
X0046533Y0196958D01*
X0046533Y0197212D02*
X0085903Y0197212D01*
X0085903Y0197466D02*
X0046533Y0197466D01*
X0046533Y0197721D02*
X0085903Y0197721D01*
X0085903Y0197975D02*
X0046533Y0197975D01*
X0046533Y0198229D02*
X0085903Y0198229D01*
X0085903Y0198483D02*
X0046533Y0198483D01*
X0046533Y0198737D02*
X0085903Y0198737D01*
X0085903Y0198991D02*
X0046533Y0198991D01*
X0046533Y0199246D02*
X0085903Y0199246D01*
X0085903Y0199500D02*
X0046533Y0199500D01*
X0046533Y0199754D02*
X0085903Y0199754D01*
X0085903Y0200008D02*
X0046533Y0200008D01*
X0046533Y0200262D02*
X0085903Y0200262D01*
X0085903Y0200516D02*
X0046533Y0200516D01*
X0046533Y0200771D02*
X0085903Y0200771D01*
X0085903Y0201025D02*
X0046533Y0201025D01*
X0046533Y0201279D02*
X0085903Y0201279D01*
X0085903Y0201533D02*
X0046533Y0201533D01*
X0046533Y0201787D02*
X0085903Y0201787D01*
X0085903Y0202041D02*
X0046533Y0202041D01*
X0046533Y0202295D02*
X0085903Y0202295D01*
X0085903Y0202550D02*
X0046533Y0202550D01*
X0046533Y0202804D02*
X0085903Y0202804D01*
X0085903Y0203058D02*
X0046533Y0203058D01*
X0032779Y0189355D02*
X0032268Y0189355D01*
X0032268Y0189866D01*
X0031757Y0189866D01*
X0031757Y0190377D01*
X0031245Y0190377D01*
X0031245Y0190888D01*
X0030734Y0190888D01*
X0030734Y0191400D01*
X0030223Y0191400D01*
X0030223Y0191911D01*
X0029711Y0191911D01*
X0029711Y0192422D01*
X0029200Y0192422D01*
X0029200Y0192934D01*
X0028689Y0192934D01*
X0028689Y0193445D01*
X0028178Y0193445D01*
X0028178Y0193956D01*
X0027666Y0193956D01*
X0027666Y0194468D01*
X0027155Y0194468D01*
X0027155Y0194979D01*
X0026644Y0194979D01*
X0026644Y0195490D01*
X0026132Y0195490D01*
X0026132Y0196001D01*
X0025621Y0196001D01*
X0025621Y0196513D01*
X0025110Y0196513D01*
X0025110Y0197024D01*
X0024598Y0197024D01*
X0024598Y0197535D01*
X0024087Y0197535D01*
X0024087Y0198047D01*
X0023576Y0198047D01*
X0023576Y0198558D01*
X0023065Y0198558D01*
X0023065Y0199069D01*
X0022553Y0199069D01*
X0022553Y0199581D01*
X0022042Y0199581D01*
X0022042Y0200092D01*
X0021531Y0200092D01*
X0021531Y0200603D01*
X0021019Y0200603D01*
X0021019Y0201114D01*
X0020508Y0201114D01*
X0020508Y0201626D01*
X0019997Y0201626D01*
X0019997Y0202137D01*
X0019485Y0202137D01*
X0019485Y0202648D01*
X0018974Y0202648D01*
X0018974Y0203160D01*
X0018463Y0203160D01*
X0018463Y0179640D01*
X0018463Y0096809D01*
X0057833Y0096809D01*
X0057833Y0110103D01*
X0057322Y0110103D01*
X0057322Y0116750D01*
X0056810Y0116750D01*
X0056810Y0121352D01*
X0056299Y0121352D01*
X0056299Y0125442D01*
X0055788Y0125442D01*
X0055788Y0128510D01*
X0055276Y0128510D01*
X0055276Y0131578D01*
X0054765Y0131578D01*
X0054765Y0134134D01*
X0054254Y0134134D01*
X0054254Y0136691D01*
X0053743Y0136691D01*
X0053743Y0139247D01*
X0053231Y0139247D01*
X0053231Y0141292D01*
X0052720Y0141292D01*
X0052720Y0143849D01*
X0052209Y0143849D01*
X0052209Y0145894D01*
X0051697Y0145894D01*
X0051697Y0147939D01*
X0051186Y0147939D01*
X0051186Y0149473D01*
X0050675Y0149473D01*
X0050675Y0151007D01*
X0050163Y0151007D01*
X0050163Y0153052D01*
X0049652Y0153052D01*
X0049652Y0155097D01*
X0049141Y0155097D01*
X0049141Y0156120D01*
X0048630Y0156120D01*
X0048630Y0158165D01*
X0048118Y0158165D01*
X0048118Y0159699D01*
X0047607Y0159699D01*
X0047607Y0161233D01*
X0047096Y0161233D01*
X0047096Y0162767D01*
X0046584Y0162767D01*
X0046584Y0164301D01*
X0046073Y0164301D01*
X0046073Y0165323D01*
X0045562Y0165323D01*
X0045562Y0166857D01*
X0045050Y0166857D01*
X0045050Y0168391D01*
X0044539Y0168391D01*
X0044539Y0169414D01*
X0044028Y0169414D01*
X0044028Y0170948D01*
X0043517Y0170948D01*
X0043517Y0172482D01*
X0043005Y0172482D01*
X0043005Y0174016D01*
X0042494Y0174016D01*
X0042494Y0175038D01*
X0041983Y0175038D01*
X0041983Y0176061D01*
X0041471Y0176061D01*
X0041471Y0177595D01*
X0040960Y0177595D01*
X0040960Y0178617D01*
X0040449Y0178617D01*
X0040449Y0179640D01*
X0039937Y0179640D01*
X0039937Y0180662D01*
X0039426Y0180662D01*
X0039426Y0181685D01*
X0038915Y0181685D01*
X0038915Y0182708D01*
X0038404Y0182708D01*
X0038404Y0183730D01*
X0037892Y0183730D01*
X0037892Y0184242D01*
X0037381Y0184242D01*
X0037381Y0184753D01*
X0036870Y0184753D01*
X0036870Y0185264D01*
X0036358Y0185264D01*
X0036358Y0185775D01*
X0018463Y0185775D01*
X0018463Y0185521D02*
X0036358Y0185521D01*
X0036358Y0185267D02*
X0018463Y0185267D01*
X0018463Y0185013D02*
X0036870Y0185013D01*
X0036870Y0184759D02*
X0018463Y0184759D01*
X0018463Y0184504D02*
X0037381Y0184504D01*
X0037381Y0184250D02*
X0018463Y0184250D01*
X0018463Y0183996D02*
X0037892Y0183996D01*
X0037892Y0183742D02*
X0018463Y0183742D01*
X0018463Y0183488D02*
X0038404Y0183488D01*
X0038404Y0183234D02*
X0018463Y0183234D01*
X0018463Y0182979D02*
X0038404Y0182979D01*
X0038404Y0182725D02*
X0018463Y0182725D01*
X0018463Y0182471D02*
X0038915Y0182471D01*
X0038915Y0182217D02*
X0018463Y0182217D01*
X0018463Y0181963D02*
X0038915Y0181963D01*
X0038915Y0181709D02*
X0018463Y0181709D01*
X0018463Y0181454D02*
X0039426Y0181454D01*
X0039426Y0181200D02*
X0018463Y0181200D01*
X0018463Y0180946D02*
X0039426Y0180946D01*
X0039426Y0180692D02*
X0018463Y0180692D01*
X0018463Y0180438D02*
X0039937Y0180438D01*
X0039937Y0180184D02*
X0018463Y0180184D01*
X0018463Y0179930D02*
X0039937Y0179930D01*
X0039937Y0179675D02*
X0018463Y0179675D01*
X0018463Y0179421D02*
X0040449Y0179421D01*
X0040449Y0179167D02*
X0018463Y0179167D01*
X0018463Y0178913D02*
X0040449Y0178913D01*
X0040449Y0178659D02*
X0018463Y0178659D01*
X0018463Y0178405D02*
X0040960Y0178405D01*
X0040960Y0178150D02*
X0018463Y0178150D01*
X0018463Y0177896D02*
X0040960Y0177896D01*
X0040960Y0177642D02*
X0018463Y0177642D01*
X0018463Y0177388D02*
X0041471Y0177388D01*
X0041471Y0177134D02*
X0018463Y0177134D01*
X0018463Y0176880D02*
X0041471Y0176880D01*
X0041471Y0176625D02*
X0018463Y0176625D01*
X0018463Y0176371D02*
X0041471Y0176371D01*
X0041471Y0176117D02*
X0018463Y0176117D01*
X0018463Y0175863D02*
X0041983Y0175863D01*
X0041983Y0175609D02*
X0018463Y0175609D01*
X0018463Y0175355D02*
X0041983Y0175355D01*
X0041983Y0175101D02*
X0018463Y0175101D01*
X0018463Y0174846D02*
X0042494Y0174846D01*
X0042494Y0174592D02*
X0018463Y0174592D01*
X0018463Y0174338D02*
X0042494Y0174338D01*
X0042494Y0174084D02*
X0018463Y0174084D01*
X0018463Y0173830D02*
X0043005Y0173830D01*
X0043005Y0173576D02*
X0018463Y0173576D01*
X0018463Y0173321D02*
X0043005Y0173321D01*
X0043005Y0173067D02*
X0018463Y0173067D01*
X0018463Y0172813D02*
X0043005Y0172813D01*
X0043005Y0172559D02*
X0018463Y0172559D01*
X0018463Y0172305D02*
X0043517Y0172305D01*
X0043517Y0172051D02*
X0018463Y0172051D01*
X0018463Y0171796D02*
X0043517Y0171796D01*
X0043517Y0171542D02*
X0018463Y0171542D01*
X0018463Y0171288D02*
X0043517Y0171288D01*
X0043517Y0171034D02*
X0018463Y0171034D01*
X0018463Y0170780D02*
X0044028Y0170780D01*
X0044028Y0170526D02*
X0018463Y0170526D01*
X0018463Y0170272D02*
X0044028Y0170272D01*
X0044028Y0170017D02*
X0018463Y0170017D01*
X0018463Y0169763D02*
X0044028Y0169763D01*
X0044028Y0169509D02*
X0018463Y0169509D01*
X0018463Y0169255D02*
X0044539Y0169255D01*
X0044539Y0169001D02*
X0018463Y0169001D01*
X0018463Y0168747D02*
X0044539Y0168747D01*
X0044539Y0168492D02*
X0018463Y0168492D01*
X0018463Y0168238D02*
X0045050Y0168238D01*
X0045050Y0167984D02*
X0018463Y0167984D01*
X0018463Y0167730D02*
X0045050Y0167730D01*
X0045050Y0167476D02*
X0018463Y0167476D01*
X0018463Y0167222D02*
X0045050Y0167222D01*
X0045050Y0166967D02*
X0018463Y0166967D01*
X0018463Y0166713D02*
X0045562Y0166713D01*
X0045562Y0166459D02*
X0018463Y0166459D01*
X0018463Y0166205D02*
X0045562Y0166205D01*
X0045562Y0165951D02*
X0018463Y0165951D01*
X0018463Y0165697D02*
X0045562Y0165697D01*
X0045562Y0165442D02*
X0018463Y0165442D01*
X0018463Y0165188D02*
X0046073Y0165188D01*
X0046073Y0164934D02*
X0018463Y0164934D01*
X0018463Y0164680D02*
X0046073Y0164680D01*
X0046073Y0164426D02*
X0018463Y0164426D01*
X0018463Y0164172D02*
X0046584Y0164172D01*
X0046584Y0163918D02*
X0018463Y0163918D01*
X0018463Y0163663D02*
X0046584Y0163663D01*
X0046584Y0163409D02*
X0018463Y0163409D01*
X0018463Y0163155D02*
X0046584Y0163155D01*
X0046584Y0162901D02*
X0018463Y0162901D01*
X0018463Y0162647D02*
X0047096Y0162647D01*
X0047096Y0162393D02*
X0018463Y0162393D01*
X0018463Y0162138D02*
X0047096Y0162138D01*
X0047096Y0161884D02*
X0018463Y0161884D01*
X0018463Y0161630D02*
X0047096Y0161630D01*
X0047096Y0161376D02*
X0018463Y0161376D01*
X0018463Y0161122D02*
X0047607Y0161122D01*
X0047607Y0160868D02*
X0018463Y0160868D01*
X0018463Y0160613D02*
X0047607Y0160613D01*
X0047607Y0160359D02*
X0018463Y0160359D01*
X0018463Y0160105D02*
X0047607Y0160105D01*
X0047607Y0159851D02*
X0018463Y0159851D01*
X0018463Y0159597D02*
X0048118Y0159597D01*
X0048118Y0159343D02*
X0018463Y0159343D01*
X0018463Y0159089D02*
X0048118Y0159089D01*
X0048118Y0158834D02*
X0018463Y0158834D01*
X0018463Y0158580D02*
X0048118Y0158580D01*
X0048118Y0158326D02*
X0018463Y0158326D01*
X0018463Y0158072D02*
X0048630Y0158072D01*
X0048630Y0157818D02*
X0018463Y0157818D01*
X0018463Y0157564D02*
X0048630Y0157564D01*
X0048630Y0157309D02*
X0018463Y0157309D01*
X0018463Y0157055D02*
X0048630Y0157055D01*
X0048630Y0156801D02*
X0018463Y0156801D01*
X0018463Y0156547D02*
X0048630Y0156547D01*
X0048630Y0156293D02*
X0018463Y0156293D01*
X0018463Y0156039D02*
X0049141Y0156039D01*
X0049141Y0155784D02*
X0018463Y0155784D01*
X0018463Y0155530D02*
X0049141Y0155530D01*
X0049141Y0155276D02*
X0018463Y0155276D01*
X0018463Y0155022D02*
X0049652Y0155022D01*
X0049652Y0154768D02*
X0018463Y0154768D01*
X0018463Y0154514D02*
X0049652Y0154514D01*
X0049652Y0154260D02*
X0018463Y0154260D01*
X0018463Y0154005D02*
X0049652Y0154005D01*
X0049652Y0153751D02*
X0018463Y0153751D01*
X0018463Y0153497D02*
X0049652Y0153497D01*
X0049652Y0153243D02*
X0018463Y0153243D01*
X0018463Y0152989D02*
X0050163Y0152989D01*
X0050163Y0152735D02*
X0018463Y0152735D01*
X0018463Y0152480D02*
X0050163Y0152480D01*
X0050163Y0152226D02*
X0018463Y0152226D01*
X0018463Y0151972D02*
X0050163Y0151972D01*
X0050163Y0151718D02*
X0018463Y0151718D01*
X0018463Y0151464D02*
X0050163Y0151464D01*
X0050163Y0151210D02*
X0018463Y0151210D01*
X0018463Y0150955D02*
X0050675Y0150955D01*
X0050675Y0150701D02*
X0018463Y0150701D01*
X0018463Y0150447D02*
X0050675Y0150447D01*
X0050675Y0150193D02*
X0018463Y0150193D01*
X0018463Y0149939D02*
X0050675Y0149939D01*
X0050675Y0149685D02*
X0018463Y0149685D01*
X0018463Y0149431D02*
X0051186Y0149431D01*
X0051186Y0149176D02*
X0018463Y0149176D01*
X0018463Y0148922D02*
X0051186Y0148922D01*
X0051186Y0148668D02*
X0018463Y0148668D01*
X0018463Y0148414D02*
X0051186Y0148414D01*
X0051186Y0148160D02*
X0018463Y0148160D01*
X0018463Y0147906D02*
X0051697Y0147906D01*
X0051697Y0147651D02*
X0018463Y0147651D01*
X0018463Y0147397D02*
X0051697Y0147397D01*
X0051697Y0147143D02*
X0018463Y0147143D01*
X0018463Y0146889D02*
X0051697Y0146889D01*
X0051697Y0146635D02*
X0018463Y0146635D01*
X0018463Y0146381D02*
X0051697Y0146381D01*
X0051697Y0146126D02*
X0018463Y0146126D01*
X0018463Y0145872D02*
X0052209Y0145872D01*
X0052209Y0145618D02*
X0018463Y0145618D01*
X0018463Y0145364D02*
X0052209Y0145364D01*
X0052209Y0145110D02*
X0018463Y0145110D01*
X0018463Y0144856D02*
X0052209Y0144856D01*
X0052209Y0144602D02*
X0018463Y0144602D01*
X0018463Y0144347D02*
X0052209Y0144347D01*
X0052209Y0144093D02*
X0018463Y0144093D01*
X0018463Y0143839D02*
X0052720Y0143839D01*
X0052720Y0143585D02*
X0018463Y0143585D01*
X0018463Y0143331D02*
X0052720Y0143331D01*
X0052720Y0143077D02*
X0018463Y0143077D01*
X0018463Y0142822D02*
X0052720Y0142822D01*
X0052720Y0142568D02*
X0018463Y0142568D01*
X0018463Y0142314D02*
X0052720Y0142314D01*
X0052720Y0142060D02*
X0018463Y0142060D01*
X0018463Y0141806D02*
X0052720Y0141806D01*
X0052720Y0141552D02*
X0018463Y0141552D01*
X0018463Y0141297D02*
X0052720Y0141297D01*
X0053231Y0141043D02*
X0018463Y0141043D01*
X0018463Y0140789D02*
X0053231Y0140789D01*
X0053231Y0140535D02*
X0018463Y0140535D01*
X0018463Y0140281D02*
X0053231Y0140281D01*
X0053231Y0140027D02*
X0018463Y0140027D01*
X0018463Y0139772D02*
X0053231Y0139772D01*
X0053231Y0139518D02*
X0018463Y0139518D01*
X0018463Y0139264D02*
X0053231Y0139264D01*
X0053743Y0139010D02*
X0018463Y0139010D01*
X0018463Y0138756D02*
X0053743Y0138756D01*
X0053743Y0138502D02*
X0018463Y0138502D01*
X0018463Y0138248D02*
X0053743Y0138248D01*
X0053743Y0137993D02*
X0018463Y0137993D01*
X0018463Y0137739D02*
X0053743Y0137739D01*
X0053743Y0137485D02*
X0018463Y0137485D01*
X0018463Y0137231D02*
X0053743Y0137231D01*
X0053743Y0136977D02*
X0018463Y0136977D01*
X0018463Y0136723D02*
X0053743Y0136723D01*
X0054254Y0136468D02*
X0018463Y0136468D01*
X0018463Y0136214D02*
X0054254Y0136214D01*
X0054254Y0135960D02*
X0018463Y0135960D01*
X0018463Y0135706D02*
X0054254Y0135706D01*
X0054254Y0135452D02*
X0018463Y0135452D01*
X0018463Y0135198D02*
X0054254Y0135198D01*
X0054254Y0134943D02*
X0018463Y0134943D01*
X0018463Y0134689D02*
X0054254Y0134689D01*
X0054254Y0134435D02*
X0018463Y0134435D01*
X0018463Y0134181D02*
X0054254Y0134181D01*
X0054765Y0133927D02*
X0018463Y0133927D01*
X0018463Y0133673D02*
X0054765Y0133673D01*
X0054765Y0133419D02*
X0018463Y0133419D01*
X0018463Y0133164D02*
X0054765Y0133164D01*
X0054765Y0132910D02*
X0018463Y0132910D01*
X0018463Y0132656D02*
X0054765Y0132656D01*
X0054765Y0132402D02*
X0018463Y0132402D01*
X0018463Y0132148D02*
X0054765Y0132148D01*
X0054765Y0131894D02*
X0018463Y0131894D01*
X0018463Y0131639D02*
X0054765Y0131639D01*
X0055276Y0131385D02*
X0018463Y0131385D01*
X0018463Y0131131D02*
X0055276Y0131131D01*
X0055276Y0130877D02*
X0018463Y0130877D01*
X0018463Y0130623D02*
X0055276Y0130623D01*
X0055276Y0130369D02*
X0018463Y0130369D01*
X0018463Y0130114D02*
X0055276Y0130114D01*
X0055276Y0129860D02*
X0018463Y0129860D01*
X0018463Y0129606D02*
X0055276Y0129606D01*
X0055276Y0129352D02*
X0018463Y0129352D01*
X0018463Y0129098D02*
X0055276Y0129098D01*
X0055276Y0128844D02*
X0018463Y0128844D01*
X0018463Y0128590D02*
X0055276Y0128590D01*
X0055788Y0128335D02*
X0018463Y0128335D01*
X0018463Y0128081D02*
X0055788Y0128081D01*
X0055788Y0127827D02*
X0018463Y0127827D01*
X0018463Y0127573D02*
X0055788Y0127573D01*
X0055788Y0127319D02*
X0018463Y0127319D01*
X0018463Y0127065D02*
X0055788Y0127065D01*
X0055788Y0126810D02*
X0018463Y0126810D01*
X0018463Y0126556D02*
X0055788Y0126556D01*
X0055788Y0126302D02*
X0018463Y0126302D01*
X0018463Y0126048D02*
X0055788Y0126048D01*
X0055788Y0125794D02*
X0018463Y0125794D01*
X0018463Y0125540D02*
X0055788Y0125540D01*
X0056299Y0125285D02*
X0018463Y0125285D01*
X0018463Y0125031D02*
X0056299Y0125031D01*
X0056299Y0124777D02*
X0018463Y0124777D01*
X0018463Y0124523D02*
X0056299Y0124523D01*
X0056299Y0124269D02*
X0018463Y0124269D01*
X0018463Y0124015D02*
X0056299Y0124015D01*
X0056299Y0123761D02*
X0018463Y0123761D01*
X0018463Y0123506D02*
X0056299Y0123506D01*
X0056299Y0123252D02*
X0018463Y0123252D01*
X0018463Y0122998D02*
X0056299Y0122998D01*
X0056299Y0122744D02*
X0018463Y0122744D01*
X0018463Y0122490D02*
X0056299Y0122490D01*
X0056299Y0122236D02*
X0018463Y0122236D01*
X0018463Y0121981D02*
X0056299Y0121981D01*
X0056299Y0121727D02*
X0018463Y0121727D01*
X0018463Y0121473D02*
X0056299Y0121473D01*
X0056810Y0121219D02*
X0018463Y0121219D01*
X0018463Y0120965D02*
X0056810Y0120965D01*
X0056810Y0120711D02*
X0018463Y0120711D01*
X0018463Y0120456D02*
X0056810Y0120456D01*
X0056810Y0120202D02*
X0018463Y0120202D01*
X0018463Y0119948D02*
X0056810Y0119948D01*
X0056810Y0119694D02*
X0018463Y0119694D01*
X0018463Y0119440D02*
X0056810Y0119440D01*
X0056810Y0119186D02*
X0018463Y0119186D01*
X0018463Y0118931D02*
X0056810Y0118931D01*
X0056810Y0118677D02*
X0018463Y0118677D01*
X0018463Y0118423D02*
X0056810Y0118423D01*
X0056810Y0118169D02*
X0018463Y0118169D01*
X0018463Y0117915D02*
X0056810Y0117915D01*
X0056810Y0117661D02*
X0018463Y0117661D01*
X0018463Y0117407D02*
X0056810Y0117407D01*
X0056810Y0117152D02*
X0018463Y0117152D01*
X0018463Y0116898D02*
X0056810Y0116898D01*
X0057322Y0116644D02*
X0018463Y0116644D01*
X0018463Y0116390D02*
X0057322Y0116390D01*
X0057322Y0116136D02*
X0018463Y0116136D01*
X0018463Y0115882D02*
X0057322Y0115882D01*
X0057322Y0115627D02*
X0018463Y0115627D01*
X0018463Y0115373D02*
X0057322Y0115373D01*
X0057322Y0115119D02*
X0018463Y0115119D01*
X0018463Y0114865D02*
X0057322Y0114865D01*
X0057322Y0114611D02*
X0018463Y0114611D01*
X0018463Y0114357D02*
X0057322Y0114357D01*
X0057322Y0114102D02*
X0018463Y0114102D01*
X0018463Y0113848D02*
X0057322Y0113848D01*
X0057322Y0113594D02*
X0018463Y0113594D01*
X0018463Y0113340D02*
X0057322Y0113340D01*
X0057322Y0113086D02*
X0018463Y0113086D01*
X0018463Y0112832D02*
X0057322Y0112832D01*
X0057322Y0112578D02*
X0018463Y0112578D01*
X0018463Y0112323D02*
X0057322Y0112323D01*
X0057322Y0112069D02*
X0018463Y0112069D01*
X0018463Y0111815D02*
X0057322Y0111815D01*
X0057322Y0111561D02*
X0018463Y0111561D01*
X0018463Y0111307D02*
X0057322Y0111307D01*
X0057322Y0111053D02*
X0018463Y0111053D01*
X0018463Y0110798D02*
X0057322Y0110798D01*
X0057322Y0110544D02*
X0018463Y0110544D01*
X0018463Y0110290D02*
X0057322Y0110290D01*
X0057833Y0110036D02*
X0018463Y0110036D01*
X0018463Y0109782D02*
X0057833Y0109782D01*
X0057833Y0109528D02*
X0018463Y0109528D01*
X0018463Y0109273D02*
X0057833Y0109273D01*
X0057833Y0109019D02*
X0018463Y0109019D01*
X0018463Y0108765D02*
X0057833Y0108765D01*
X0057833Y0108511D02*
X0018463Y0108511D01*
X0018463Y0108257D02*
X0057833Y0108257D01*
X0057833Y0108003D02*
X0018463Y0108003D01*
X0018463Y0107749D02*
X0057833Y0107749D01*
X0057833Y0107494D02*
X0018463Y0107494D01*
X0018463Y0107240D02*
X0057833Y0107240D01*
X0057833Y0106986D02*
X0018463Y0106986D01*
X0018463Y0106732D02*
X0057833Y0106732D01*
X0057833Y0106478D02*
X0018463Y0106478D01*
X0018463Y0106224D02*
X0057833Y0106224D01*
X0057833Y0105969D02*
X0018463Y0105969D01*
X0018463Y0105715D02*
X0057833Y0105715D01*
X0057833Y0105461D02*
X0018463Y0105461D01*
X0018463Y0105207D02*
X0057833Y0105207D01*
X0057833Y0104953D02*
X0018463Y0104953D01*
X0018463Y0104699D02*
X0057833Y0104699D01*
X0057833Y0104444D02*
X0018463Y0104444D01*
X0018463Y0104190D02*
X0057833Y0104190D01*
X0057833Y0103936D02*
X0018463Y0103936D01*
X0018463Y0103682D02*
X0057833Y0103682D01*
X0057833Y0103428D02*
X0018463Y0103428D01*
X0018463Y0103174D02*
X0057833Y0103174D01*
X0057833Y0102920D02*
X0018463Y0102920D01*
X0018463Y0102665D02*
X0057833Y0102665D01*
X0057833Y0102411D02*
X0018463Y0102411D01*
X0018463Y0102157D02*
X0057833Y0102157D01*
X0057833Y0101903D02*
X0018463Y0101903D01*
X0018463Y0101649D02*
X0057833Y0101649D01*
X0057833Y0101395D02*
X0018463Y0101395D01*
X0018463Y0101140D02*
X0057833Y0101140D01*
X0057833Y0100886D02*
X0018463Y0100886D01*
X0018463Y0100632D02*
X0057833Y0100632D01*
X0057833Y0100378D02*
X0018463Y0100378D01*
X0018463Y0100124D02*
X0057833Y0100124D01*
X0057833Y0099870D02*
X0018463Y0099870D01*
X0018463Y0099615D02*
X0057833Y0099615D01*
X0057833Y0099361D02*
X0018463Y0099361D01*
X0018463Y0099107D02*
X0057833Y0099107D01*
X0057833Y0098853D02*
X0018463Y0098853D01*
X0018463Y0098599D02*
X0057833Y0098599D01*
X0057833Y0098345D02*
X0018463Y0098345D01*
X0018463Y0098091D02*
X0057833Y0098091D01*
X0057833Y0097836D02*
X0018463Y0097836D01*
X0018463Y0097582D02*
X0057833Y0097582D01*
X0057833Y0097328D02*
X0018463Y0097328D01*
X0018463Y0097074D02*
X0057833Y0097074D01*
X0057833Y0096820D02*
X0018463Y0096820D01*
X0018463Y0085903D02*
X0101293Y0085903D01*
X0124813Y0085903D01*
X0124813Y0085392D01*
X0124302Y0085392D01*
X0124302Y0084881D01*
X0123791Y0084881D01*
X0123791Y0084369D01*
X0123279Y0084369D01*
X0123279Y0083858D01*
X0122768Y0083858D01*
X0122768Y0083347D01*
X0122257Y0083347D01*
X0122257Y0082835D01*
X0121745Y0082835D01*
X0121745Y0082324D01*
X0121234Y0082324D01*
X0121234Y0081813D01*
X0120723Y0081813D01*
X0120723Y0081302D01*
X0120211Y0081302D01*
X0120211Y0080790D01*
X0119700Y0080790D01*
X0119700Y0080279D01*
X0119189Y0080279D01*
X0119189Y0079768D01*
X0118678Y0079768D01*
X0118678Y0079256D01*
X0118166Y0079256D01*
X0118166Y0078745D01*
X0117655Y0078745D01*
X0117655Y0078234D01*
X0117144Y0078234D01*
X0117144Y0077722D01*
X0116632Y0077722D01*
X0116632Y0077211D01*
X0116121Y0077211D01*
X0116121Y0076700D01*
X0115610Y0076700D01*
X0115610Y0076189D01*
X0115098Y0076189D01*
X0115098Y0075677D01*
X0114587Y0075677D01*
X0114587Y0075166D01*
X0114076Y0075166D01*
X0114076Y0074655D01*
X0113565Y0074655D01*
X0113565Y0074143D01*
X0113053Y0074143D01*
X0113053Y0073632D01*
X0112542Y0073632D01*
X0112542Y0073121D01*
X0112031Y0073121D01*
X0112031Y0072609D01*
X0111519Y0072609D01*
X0111519Y0072098D01*
X0111008Y0072098D01*
X0111008Y0071587D01*
X0110497Y0071587D01*
X0110497Y0071076D01*
X0109985Y0071076D01*
X0109985Y0070564D01*
X0109474Y0070564D01*
X0109474Y0070053D01*
X0108963Y0070053D01*
X0108963Y0069542D01*
X0108452Y0069542D01*
X0108452Y0069030D01*
X0107940Y0069030D01*
X0107940Y0068519D01*
X0107429Y0068519D01*
X0107429Y0068008D01*
X0106918Y0068008D01*
X0106918Y0067497D01*
X0106406Y0067497D01*
X0106406Y0066985D01*
X0105895Y0066985D01*
X0105895Y0066474D01*
X0105384Y0066474D01*
X0105384Y0065963D01*
X0104361Y0065963D01*
X0104361Y0065451D01*
X0103339Y0065451D01*
X0103339Y0064940D01*
X0102316Y0064940D01*
X0102316Y0064429D01*
X0101293Y0064429D01*
X0101293Y0063917D01*
X0100271Y0063917D01*
X0100271Y0063406D01*
X0099248Y0063406D01*
X0099248Y0062895D01*
X0097714Y0062895D01*
X0097714Y0062384D01*
X0096692Y0062384D01*
X0096692Y0061872D01*
X0095669Y0061872D01*
X0095669Y0061361D01*
X0094135Y0061361D01*
X0094135Y0060850D01*
X0092601Y0060850D01*
X0092601Y0060338D01*
X0091067Y0060338D01*
X0091067Y0059827D01*
X0090045Y0059827D01*
X0090045Y0059316D01*
X0088511Y0059316D01*
X0088511Y0058804D01*
X0086977Y0058804D01*
X0086977Y0058293D01*
X0085954Y0058293D01*
X0085954Y0057782D01*
X0084421Y0057782D01*
X0084421Y0057271D01*
X0082887Y0057271D01*
X0082887Y0056759D01*
X0081353Y0056759D01*
X0081353Y0056248D01*
X0079819Y0056248D01*
X0079819Y0055737D01*
X0077774Y0055737D01*
X0077774Y0055225D01*
X0076751Y0055225D01*
X0076751Y0054714D01*
X0074706Y0054714D01*
X0074706Y0054203D01*
X0072661Y0054203D01*
X0072661Y0053691D01*
X0071127Y0053691D01*
X0071127Y0053180D01*
X0069593Y0053180D01*
X0069593Y0052669D01*
X0067548Y0052669D01*
X0067548Y0052158D01*
X0065502Y0052158D01*
X0065502Y0051646D01*
X0062946Y0051646D01*
X0062946Y0051135D01*
X0060901Y0051135D01*
X0060901Y0050624D01*
X0058344Y0050624D01*
X0058344Y0050112D01*
X0055788Y0050112D01*
X0055788Y0049601D01*
X0053231Y0049601D01*
X0053231Y0049090D01*
X0050163Y0049090D01*
X0050163Y0048578D01*
X0047096Y0048578D01*
X0047096Y0048067D01*
X0043005Y0048067D01*
X0043005Y0047556D01*
X0038404Y0047556D01*
X0038404Y0047045D01*
X0031757Y0047045D01*
X0031757Y0046533D01*
X0018463Y0046533D01*
X0018463Y0085903D01*
X0018463Y0085891D02*
X0124813Y0085891D01*
X0124813Y0085637D02*
X0018463Y0085637D01*
X0018463Y0085383D02*
X0124302Y0085383D01*
X0124302Y0085128D02*
X0018463Y0085128D01*
X0018463Y0084874D02*
X0123791Y0084874D01*
X0123791Y0084620D02*
X0018463Y0084620D01*
X0018463Y0084366D02*
X0123279Y0084366D01*
X0123279Y0084112D02*
X0018463Y0084112D01*
X0018463Y0083858D02*
X0122768Y0083858D01*
X0122768Y0083603D02*
X0018463Y0083603D01*
X0018463Y0083349D02*
X0122768Y0083349D01*
X0122257Y0083095D02*
X0018463Y0083095D01*
X0018463Y0082841D02*
X0122257Y0082841D01*
X0121745Y0082587D02*
X0018463Y0082587D01*
X0018463Y0082333D02*
X0121745Y0082333D01*
X0121234Y0082079D02*
X0018463Y0082079D01*
X0018463Y0081824D02*
X0121234Y0081824D01*
X0120723Y0081570D02*
X0018463Y0081570D01*
X0018463Y0081316D02*
X0120723Y0081316D01*
X0120211Y0081062D02*
X0018463Y0081062D01*
X0018463Y0080808D02*
X0120211Y0080808D01*
X0119700Y0080554D02*
X0018463Y0080554D01*
X0018463Y0080299D02*
X0119700Y0080299D01*
X0119189Y0080045D02*
X0018463Y0080045D01*
X0018463Y0079791D02*
X0119189Y0079791D01*
X0118678Y0079537D02*
X0018463Y0079537D01*
X0018463Y0079283D02*
X0118678Y0079283D01*
X0118166Y0079029D02*
X0018463Y0079029D01*
X0018463Y0078774D02*
X0118166Y0078774D01*
X0117655Y0078520D02*
X0018463Y0078520D01*
X0018463Y0078266D02*
X0117655Y0078266D01*
X0117144Y0078012D02*
X0018463Y0078012D01*
X0018463Y0077758D02*
X0117144Y0077758D01*
X0116632Y0077504D02*
X0018463Y0077504D01*
X0018463Y0077250D02*
X0116632Y0077250D01*
X0116121Y0076995D02*
X0018463Y0076995D01*
X0018463Y0076741D02*
X0116121Y0076741D01*
X0115610Y0076487D02*
X0018463Y0076487D01*
X0018463Y0076233D02*
X0115610Y0076233D01*
X0115098Y0075979D02*
X0018463Y0075979D01*
X0018463Y0075725D02*
X0115098Y0075725D01*
X0114587Y0075470D02*
X0018463Y0075470D01*
X0018463Y0075216D02*
X0114587Y0075216D01*
X0114076Y0074962D02*
X0018463Y0074962D01*
X0018463Y0074708D02*
X0114076Y0074708D01*
X0113565Y0074454D02*
X0018463Y0074454D01*
X0018463Y0074200D02*
X0113565Y0074200D01*
X0113053Y0073945D02*
X0018463Y0073945D01*
X0018463Y0073691D02*
X0113053Y0073691D01*
X0112542Y0073437D02*
X0018463Y0073437D01*
X0018463Y0073183D02*
X0112542Y0073183D01*
X0112031Y0072929D02*
X0018463Y0072929D01*
X0018463Y0072675D02*
X0112031Y0072675D01*
X0111519Y0072420D02*
X0018463Y0072420D01*
X0018463Y0072166D02*
X0111519Y0072166D01*
X0111008Y0071912D02*
X0018463Y0071912D01*
X0018463Y0071658D02*
X0111008Y0071658D01*
X0110497Y0071404D02*
X0018463Y0071404D01*
X0018463Y0071150D02*
X0110497Y0071150D01*
X0109985Y0070896D02*
X0018463Y0070896D01*
X0018463Y0070641D02*
X0109985Y0070641D01*
X0109474Y0070387D02*
X0018463Y0070387D01*
X0018463Y0070133D02*
X0109474Y0070133D01*
X0108963Y0069879D02*
X0018463Y0069879D01*
X0018463Y0069625D02*
X0108963Y0069625D01*
X0108452Y0069371D02*
X0018463Y0069371D01*
X0018463Y0069116D02*
X0108452Y0069116D01*
X0107940Y0068862D02*
X0018463Y0068862D01*
X0018463Y0068608D02*
X0107940Y0068608D01*
X0107429Y0068354D02*
X0018463Y0068354D01*
X0018463Y0068100D02*
X0107429Y0068100D01*
X0106918Y0067846D02*
X0018463Y0067846D01*
X0018463Y0067591D02*
X0106918Y0067591D01*
X0106406Y0067337D02*
X0018463Y0067337D01*
X0018463Y0067083D02*
X0106406Y0067083D01*
X0105895Y0066829D02*
X0018463Y0066829D01*
X0018463Y0066575D02*
X0105895Y0066575D01*
X0105384Y0066321D02*
X0018463Y0066321D01*
X0018463Y0066067D02*
X0105384Y0066067D01*
X0104361Y0065812D02*
X0018463Y0065812D01*
X0018463Y0065558D02*
X0104361Y0065558D01*
X0103339Y0065304D02*
X0018463Y0065304D01*
X0018463Y0065050D02*
X0103339Y0065050D01*
X0102316Y0064796D02*
X0018463Y0064796D01*
X0018463Y0064542D02*
X0102316Y0064542D01*
X0101293Y0064287D02*
X0018463Y0064287D01*
X0018463Y0064033D02*
X0101293Y0064033D01*
X0100271Y0063779D02*
X0018463Y0063779D01*
X0018463Y0063525D02*
X0100271Y0063525D01*
X0099248Y0063271D02*
X0018463Y0063271D01*
X0018463Y0063017D02*
X0099248Y0063017D01*
X0097714Y0062762D02*
X0018463Y0062762D01*
X0018463Y0062508D02*
X0097714Y0062508D01*
X0096692Y0062254D02*
X0018463Y0062254D01*
X0018463Y0062000D02*
X0096692Y0062000D01*
X0095669Y0061746D02*
X0018463Y0061746D01*
X0018463Y0061492D02*
X0095669Y0061492D01*
X0094135Y0061238D02*
X0018463Y0061238D01*
X0018463Y0060983D02*
X0094135Y0060983D01*
X0092601Y0060729D02*
X0018463Y0060729D01*
X0018463Y0060475D02*
X0092601Y0060475D01*
X0091067Y0060221D02*
X0018463Y0060221D01*
X0018463Y0059967D02*
X0091067Y0059967D01*
X0090045Y0059713D02*
X0018463Y0059713D01*
X0018463Y0059458D02*
X0090045Y0059458D01*
X0088511Y0059204D02*
X0018463Y0059204D01*
X0018463Y0058950D02*
X0088511Y0058950D01*
X0086977Y0058696D02*
X0018463Y0058696D01*
X0018463Y0058442D02*
X0086977Y0058442D01*
X0085954Y0058188D02*
X0018463Y0058188D01*
X0018463Y0057933D02*
X0085954Y0057933D01*
X0084421Y0057679D02*
X0018463Y0057679D01*
X0018463Y0057425D02*
X0084421Y0057425D01*
X0082887Y0057171D02*
X0018463Y0057171D01*
X0018463Y0056917D02*
X0082887Y0056917D01*
X0081353Y0056663D02*
X0018463Y0056663D01*
X0018463Y0056409D02*
X0081353Y0056409D01*
X0079819Y0056154D02*
X0018463Y0056154D01*
X0018463Y0055900D02*
X0079819Y0055900D01*
X0077774Y0055646D02*
X0018463Y0055646D01*
X0018463Y0055392D02*
X0077774Y0055392D01*
X0076751Y0055138D02*
X0018463Y0055138D01*
X0018463Y0054884D02*
X0076751Y0054884D01*
X0074706Y0054629D02*
X0018463Y0054629D01*
X0018463Y0054375D02*
X0074706Y0054375D01*
X0072661Y0054121D02*
X0018463Y0054121D01*
X0018463Y0053867D02*
X0072661Y0053867D01*
X0071127Y0053613D02*
X0018463Y0053613D01*
X0018463Y0053359D02*
X0071127Y0053359D01*
X0069593Y0053104D02*
X0018463Y0053104D01*
X0018463Y0052850D02*
X0069593Y0052850D01*
X0067548Y0052596D02*
X0018463Y0052596D01*
X0018463Y0052342D02*
X0067548Y0052342D01*
X0065502Y0052088D02*
X0018463Y0052088D01*
X0018463Y0051834D02*
X0065502Y0051834D01*
X0066198Y0049652D02*
X0066198Y0049141D01*
X0065175Y0049141D01*
X0065175Y0048630D01*
X0063130Y0048630D01*
X0063130Y0048118D01*
X0061596Y0048118D01*
X0061596Y0047607D01*
X0060062Y0047607D01*
X0060062Y0047096D01*
X0058528Y0047096D01*
X0058528Y0046584D01*
X0056994Y0046584D01*
X0056994Y0046073D01*
X0055972Y0046073D01*
X0055972Y0045562D01*
X0054438Y0045562D01*
X0054438Y0045050D01*
X0052904Y0045050D01*
X0052904Y0044539D01*
X0051881Y0044539D01*
X0051881Y0044028D01*
X0050348Y0044028D01*
X0050348Y0043517D01*
X0048814Y0043517D01*
X0048814Y0043005D01*
X0047280Y0043005D01*
X0047280Y0042494D01*
X0046257Y0042494D01*
X0046257Y0041983D01*
X0045235Y0041983D01*
X0045235Y0041471D01*
X0043701Y0041471D01*
X0043701Y0040960D01*
X0042678Y0040960D01*
X0042678Y0040449D01*
X0041655Y0040449D01*
X0041655Y0039937D01*
X0040633Y0039937D01*
X0040633Y0039426D01*
X0039610Y0039426D01*
X0039610Y0038915D01*
X0038588Y0038915D01*
X0038588Y0038404D01*
X0037565Y0038404D01*
X0037565Y0037892D01*
X0037054Y0037892D01*
X0037054Y0037381D01*
X0036542Y0037381D01*
X0036542Y0036870D01*
X0036031Y0036870D01*
X0036031Y0036358D01*
X0035520Y0036358D01*
X0035520Y0035847D01*
X0035009Y0035847D01*
X0035009Y0035336D01*
X0034497Y0035336D01*
X0034497Y0034824D01*
X0033986Y0034824D01*
X0033986Y0034313D01*
X0033475Y0034313D01*
X0033475Y0033802D01*
X0032963Y0033802D01*
X0032963Y0033291D01*
X0032452Y0033291D01*
X0032452Y0032779D01*
X0031941Y0032779D01*
X0031941Y0032268D01*
X0031429Y0032268D01*
X0031429Y0031757D01*
X0030918Y0031757D01*
X0030918Y0031245D01*
X0030407Y0031245D01*
X0030407Y0030734D01*
X0029896Y0030734D01*
X0029896Y0030223D01*
X0029384Y0030223D01*
X0029384Y0029711D01*
X0028873Y0029711D01*
X0028873Y0029200D01*
X0028362Y0029200D01*
X0028362Y0028689D01*
X0027850Y0028689D01*
X0027850Y0028178D01*
X0027339Y0028178D01*
X0027339Y0027666D01*
X0026828Y0027666D01*
X0026828Y0027155D01*
X0026316Y0027155D01*
X0026316Y0026644D01*
X0025805Y0026644D01*
X0025805Y0026132D01*
X0025294Y0026132D01*
X0025294Y0025621D01*
X0024783Y0025621D01*
X0024783Y0025110D01*
X0024271Y0025110D01*
X0024271Y0024598D01*
X0023760Y0024598D01*
X0023760Y0024087D01*
X0023249Y0024087D01*
X0023249Y0023576D01*
X0022737Y0023576D01*
X0022737Y0023065D01*
X0022226Y0023065D01*
X0022226Y0022553D01*
X0021715Y0022553D01*
X0021715Y0022042D01*
X0021203Y0022042D01*
X0021203Y0021531D01*
X0020692Y0021531D01*
X0020692Y0021019D01*
X0020181Y0021019D01*
X0020181Y0020508D01*
X0019670Y0020508D01*
X0019670Y0019997D01*
X0019158Y0019997D01*
X0019158Y0019485D01*
X0018647Y0019485D01*
X0018647Y0018974D01*
X0018136Y0018974D01*
X0018136Y0018463D01*
X0041655Y0018463D01*
X0124486Y0018463D01*
X0124486Y0057833D01*
X0111192Y0057833D01*
X0111192Y0057322D01*
X0104545Y0057322D01*
X0104545Y0056810D01*
X0099944Y0056810D01*
X0099944Y0056299D01*
X0095853Y0056299D01*
X0095853Y0055788D01*
X0092785Y0055788D01*
X0092785Y0055276D01*
X0089718Y0055276D01*
X0089718Y0054765D01*
X0087161Y0054765D01*
X0087161Y0054254D01*
X0084605Y0054254D01*
X0084605Y0053743D01*
X0082048Y0053743D01*
X0082048Y0053231D01*
X0080003Y0053231D01*
X0080003Y0052720D01*
X0077446Y0052720D01*
X0077446Y0052209D01*
X0075401Y0052209D01*
X0075401Y0051697D01*
X0073356Y0051697D01*
X0073356Y0051186D01*
X0071822Y0051186D01*
X0071822Y0050675D01*
X0070288Y0050675D01*
X0070288Y0050163D01*
X0068243Y0050163D01*
X0068243Y0049652D01*
X0066198Y0049652D01*
X0066198Y0049546D02*
X0124486Y0049546D01*
X0124486Y0049292D02*
X0066198Y0049292D01*
X0065175Y0049038D02*
X0124486Y0049038D01*
X0124486Y0048784D02*
X0065175Y0048784D01*
X0063130Y0048530D02*
X0124486Y0048530D01*
X0124486Y0048275D02*
X0063130Y0048275D01*
X0061596Y0048021D02*
X0124486Y0048021D01*
X0124486Y0047767D02*
X0061596Y0047767D01*
X0060062Y0047513D02*
X0124486Y0047513D01*
X0124486Y0047259D02*
X0060062Y0047259D01*
X0058528Y0047005D02*
X0124486Y0047005D01*
X0124486Y0046750D02*
X0058528Y0046750D01*
X0056994Y0046496D02*
X0124486Y0046496D01*
X0124486Y0046242D02*
X0056994Y0046242D01*
X0055972Y0045988D02*
X0124486Y0045988D01*
X0124486Y0045734D02*
X0055972Y0045734D01*
X0054438Y0045480D02*
X0124486Y0045480D01*
X0124486Y0045226D02*
X0054438Y0045226D01*
X0052904Y0044971D02*
X0124486Y0044971D01*
X0124486Y0044717D02*
X0052904Y0044717D01*
X0051881Y0044463D02*
X0124486Y0044463D01*
X0124486Y0044209D02*
X0051881Y0044209D01*
X0050348Y0043955D02*
X0124486Y0043955D01*
X0124486Y0043701D02*
X0050348Y0043701D01*
X0048814Y0043446D02*
X0124486Y0043446D01*
X0124486Y0043192D02*
X0048814Y0043192D01*
X0047280Y0042938D02*
X0124486Y0042938D01*
X0124486Y0042684D02*
X0047280Y0042684D01*
X0046257Y0042430D02*
X0124486Y0042430D01*
X0124486Y0042176D02*
X0046257Y0042176D01*
X0045235Y0041921D02*
X0124486Y0041921D01*
X0124486Y0041667D02*
X0045235Y0041667D01*
X0043701Y0041413D02*
X0124486Y0041413D01*
X0124486Y0041159D02*
X0043701Y0041159D01*
X0042678Y0040905D02*
X0124486Y0040905D01*
X0124486Y0040651D02*
X0042678Y0040651D01*
X0041655Y0040397D02*
X0124486Y0040397D01*
X0124486Y0040142D02*
X0041655Y0040142D01*
X0040633Y0039888D02*
X0124486Y0039888D01*
X0124486Y0039634D02*
X0040633Y0039634D01*
X0039610Y0039380D02*
X0124486Y0039380D01*
X0124486Y0039126D02*
X0039610Y0039126D01*
X0038588Y0038872D02*
X0124486Y0038872D01*
X0124486Y0038617D02*
X0038588Y0038617D01*
X0037565Y0038363D02*
X0124486Y0038363D01*
X0124486Y0038109D02*
X0037565Y0038109D01*
X0037054Y0037855D02*
X0124486Y0037855D01*
X0124486Y0037601D02*
X0037054Y0037601D01*
X0036542Y0037347D02*
X0124486Y0037347D01*
X0124486Y0037092D02*
X0036542Y0037092D01*
X0036031Y0036838D02*
X0124486Y0036838D01*
X0124486Y0036584D02*
X0036031Y0036584D01*
X0035520Y0036330D02*
X0124486Y0036330D01*
X0124486Y0036076D02*
X0035520Y0036076D01*
X0035009Y0035822D02*
X0124486Y0035822D01*
X0124486Y0035568D02*
X0035009Y0035568D01*
X0034497Y0035313D02*
X0124486Y0035313D01*
X0124486Y0035059D02*
X0034497Y0035059D01*
X0033986Y0034805D02*
X0124486Y0034805D01*
X0124486Y0034551D02*
X0033986Y0034551D01*
X0033475Y0034297D02*
X0124486Y0034297D01*
X0124486Y0034043D02*
X0033475Y0034043D01*
X0032963Y0033788D02*
X0124486Y0033788D01*
X0124486Y0033534D02*
X0032963Y0033534D01*
X0032452Y0033280D02*
X0124486Y0033280D01*
X0124486Y0033026D02*
X0032452Y0033026D01*
X0031941Y0032772D02*
X0124486Y0032772D01*
X0124486Y0032518D02*
X0031941Y0032518D01*
X0031429Y0032263D02*
X0124486Y0032263D01*
X0124486Y0032009D02*
X0031429Y0032009D01*
X0030918Y0031755D02*
X0124486Y0031755D01*
X0124486Y0031501D02*
X0030918Y0031501D01*
X0030918Y0031247D02*
X0124486Y0031247D01*
X0124486Y0030993D02*
X0030407Y0030993D01*
X0030407Y0030739D02*
X0124486Y0030739D01*
X0124486Y0030484D02*
X0029896Y0030484D01*
X0029896Y0030230D02*
X0124486Y0030230D01*
X0124486Y0029976D02*
X0029384Y0029976D01*
X0029384Y0029722D02*
X0124486Y0029722D01*
X0124486Y0029468D02*
X0028873Y0029468D01*
X0028873Y0029214D02*
X0124486Y0029214D01*
X0124486Y0028959D02*
X0028362Y0028959D01*
X0028362Y0028705D02*
X0124486Y0028705D01*
X0124486Y0028451D02*
X0027850Y0028451D01*
X0027850Y0028197D02*
X0124486Y0028197D01*
X0124486Y0027943D02*
X0027339Y0027943D01*
X0027339Y0027689D02*
X0124486Y0027689D01*
X0124486Y0027434D02*
X0026828Y0027434D01*
X0026828Y0027180D02*
X0124486Y0027180D01*
X0124486Y0026926D02*
X0026316Y0026926D01*
X0026316Y0026672D02*
X0124486Y0026672D01*
X0124486Y0026418D02*
X0025805Y0026418D01*
X0025805Y0026164D02*
X0124486Y0026164D01*
X0124486Y0025909D02*
X0025294Y0025909D01*
X0025294Y0025655D02*
X0124486Y0025655D01*
X0124486Y0025401D02*
X0024783Y0025401D01*
X0024783Y0025147D02*
X0124486Y0025147D01*
X0124486Y0024893D02*
X0024271Y0024893D01*
X0024271Y0024639D02*
X0124486Y0024639D01*
X0124486Y0024385D02*
X0023760Y0024385D01*
X0023760Y0024130D02*
X0124486Y0024130D01*
X0124486Y0023876D02*
X0023249Y0023876D01*
X0023249Y0023622D02*
X0124486Y0023622D01*
X0124486Y0023368D02*
X0022737Y0023368D01*
X0022737Y0023114D02*
X0124486Y0023114D01*
X0124486Y0022860D02*
X0022226Y0022860D01*
X0022226Y0022605D02*
X0124486Y0022605D01*
X0124486Y0022351D02*
X0021715Y0022351D01*
X0021715Y0022097D02*
X0124486Y0022097D01*
X0124486Y0021843D02*
X0021203Y0021843D01*
X0021203Y0021589D02*
X0124486Y0021589D01*
X0124486Y0021335D02*
X0020692Y0021335D01*
X0020692Y0021080D02*
X0124486Y0021080D01*
X0124486Y0020826D02*
X0020181Y0020826D01*
X0020181Y0020572D02*
X0124486Y0020572D01*
X0124486Y0020318D02*
X0019670Y0020318D01*
X0019670Y0020064D02*
X0124486Y0020064D01*
X0124486Y0019810D02*
X0019158Y0019810D01*
X0019158Y0019556D02*
X0124486Y0019556D01*
X0124486Y0019301D02*
X0018647Y0019301D01*
X0018647Y0019047D02*
X0124486Y0019047D01*
X0124486Y0018793D02*
X0018136Y0018793D01*
X0018136Y0018539D02*
X0124486Y0018539D01*
X0136573Y0018539D02*
X0175943Y0018539D01*
X0175943Y0018793D02*
X0136573Y0018793D01*
X0136573Y0019047D02*
X0175943Y0019047D01*
X0175943Y0019301D02*
X0136573Y0019301D01*
X0136573Y0019556D02*
X0175943Y0019556D01*
X0189186Y0032846D02*
X0189697Y0032846D01*
X0189697Y0032334D01*
X0190208Y0032334D01*
X0190208Y0031823D01*
X0190720Y0031823D01*
X0190720Y0031312D01*
X0191231Y0031312D01*
X0191231Y0030801D01*
X0191742Y0030801D01*
X0191742Y0030289D01*
X0192254Y0030289D01*
X0192254Y0029778D01*
X0192765Y0029778D01*
X0192765Y0029267D01*
X0193276Y0029267D01*
X0193276Y0028755D01*
X0193788Y0028755D01*
X0193788Y0028244D01*
X0194299Y0028244D01*
X0194299Y0027733D01*
X0194810Y0027733D01*
X0194810Y0027221D01*
X0195321Y0027221D01*
X0195321Y0026710D01*
X0195833Y0026710D01*
X0195833Y0026199D01*
X0196344Y0026199D01*
X0196344Y0025688D01*
X0196855Y0025688D01*
X0196855Y0025176D01*
X0197367Y0025176D01*
X0197367Y0024665D01*
X0197878Y0024665D01*
X0197878Y0024154D01*
X0198389Y0024154D01*
X0198389Y0023642D01*
X0198901Y0023642D01*
X0198901Y0023131D01*
X0199412Y0023131D01*
X0199412Y0022620D01*
X0199923Y0022620D01*
X0199923Y0022108D01*
X0200434Y0022108D01*
X0200434Y0021597D01*
X0200946Y0021597D01*
X0200946Y0021086D01*
X0201457Y0021086D01*
X0201457Y0020575D01*
X0201968Y0020575D01*
X0201968Y0020063D01*
X0202480Y0020063D01*
X0202480Y0019552D01*
X0202991Y0019552D01*
X0202991Y0019041D01*
X0203502Y0019041D01*
X0203502Y0018529D01*
X0204014Y0018529D01*
X0204014Y0042049D01*
X0204014Y0124880D01*
X0164643Y0124880D01*
X0164643Y0111586D01*
X0165155Y0111586D01*
X0165155Y0104939D01*
X0165666Y0104939D01*
X0165666Y0100337D01*
X0166177Y0100337D01*
X0166177Y0096247D01*
X0166689Y0096247D01*
X0166689Y0093179D01*
X0167200Y0093179D01*
X0167200Y0090111D01*
X0167711Y0090111D01*
X0167711Y0087555D01*
X0168223Y0087555D01*
X0168223Y0084998D01*
X0168734Y0084998D01*
X0168734Y0082442D01*
X0169245Y0082442D01*
X0169245Y0080397D01*
X0169756Y0080397D01*
X0169756Y0077840D01*
X0170268Y0077840D01*
X0170268Y0075795D01*
X0170779Y0075795D01*
X0170779Y0073750D01*
X0171290Y0073750D01*
X0171290Y0072216D01*
X0171802Y0072216D01*
X0171802Y0070682D01*
X0172313Y0070682D01*
X0172313Y0068637D01*
X0172824Y0068637D01*
X0172824Y0066592D01*
X0173336Y0066592D01*
X0173336Y0065569D01*
X0173847Y0065569D01*
X0173847Y0063524D01*
X0174358Y0063524D01*
X0174358Y0061990D01*
X0174869Y0061990D01*
X0174869Y0060456D01*
X0175381Y0060456D01*
X0175381Y0058922D01*
X0175892Y0058922D01*
X0175892Y0057388D01*
X0176403Y0057388D01*
X0176403Y0056366D01*
X0176915Y0056366D01*
X0176915Y0054832D01*
X0177426Y0054832D01*
X0177426Y0053298D01*
X0177937Y0053298D01*
X0177937Y0052275D01*
X0178449Y0052275D01*
X0178449Y0050741D01*
X0178960Y0050741D01*
X0178960Y0049207D01*
X0179471Y0049207D01*
X0179471Y0047673D01*
X0179982Y0047673D01*
X0179982Y0046651D01*
X0180494Y0046651D01*
X0180494Y0045628D01*
X0181005Y0045628D01*
X0181005Y0044094D01*
X0181516Y0044094D01*
X0181516Y0043072D01*
X0182028Y0043072D01*
X0182028Y0042049D01*
X0182539Y0042049D01*
X0182539Y0041027D01*
X0183050Y0041027D01*
X0183050Y0040004D01*
X0183562Y0040004D01*
X0183562Y0038981D01*
X0184073Y0038981D01*
X0184073Y0037959D01*
X0184584Y0037959D01*
X0184584Y0037447D01*
X0185095Y0037447D01*
X0185095Y0036936D01*
X0185607Y0036936D01*
X0185607Y0036425D01*
X0186118Y0036425D01*
X0186118Y0035914D01*
X0186629Y0035914D01*
X0186629Y0035402D01*
X0187141Y0035402D01*
X0187141Y0034891D01*
X0187652Y0034891D01*
X0187652Y0034380D01*
X0188163Y0034380D01*
X0188163Y0033868D01*
X0188675Y0033868D01*
X0188675Y0033357D01*
X0189186Y0033357D01*
X0189186Y0032846D01*
X0189186Y0033026D02*
X0204014Y0033026D01*
X0204014Y0033280D02*
X0189186Y0033280D01*
X0188675Y0033534D02*
X0204014Y0033534D01*
X0204014Y0033788D02*
X0188675Y0033788D01*
X0188163Y0034043D02*
X0204014Y0034043D01*
X0204014Y0034297D02*
X0188163Y0034297D01*
X0187652Y0034551D02*
X0204014Y0034551D01*
X0204014Y0034805D02*
X0187652Y0034805D01*
X0187141Y0035059D02*
X0204014Y0035059D01*
X0204014Y0035313D02*
X0187141Y0035313D01*
X0186629Y0035568D02*
X0204014Y0035568D01*
X0204014Y0035822D02*
X0186629Y0035822D01*
X0186118Y0036076D02*
X0204014Y0036076D01*
X0204014Y0036330D02*
X0186118Y0036330D01*
X0185607Y0036584D02*
X0204014Y0036584D01*
X0204014Y0036838D02*
X0185607Y0036838D01*
X0185095Y0037092D02*
X0204014Y0037092D01*
X0204014Y0037347D02*
X0185095Y0037347D01*
X0184584Y0037601D02*
X0204014Y0037601D01*
X0204014Y0037855D02*
X0184584Y0037855D01*
X0184073Y0038109D02*
X0204014Y0038109D01*
X0204014Y0038363D02*
X0184073Y0038363D01*
X0184073Y0038617D02*
X0204014Y0038617D01*
X0204014Y0038872D02*
X0184073Y0038872D01*
X0183562Y0039126D02*
X0204014Y0039126D01*
X0204014Y0039380D02*
X0183562Y0039380D01*
X0183562Y0039634D02*
X0204014Y0039634D01*
X0204014Y0039888D02*
X0183562Y0039888D01*
X0183050Y0040142D02*
X0204014Y0040142D01*
X0204014Y0040397D02*
X0183050Y0040397D01*
X0183050Y0040651D02*
X0204014Y0040651D01*
X0204014Y0040905D02*
X0183050Y0040905D01*
X0182539Y0041159D02*
X0204014Y0041159D01*
X0204014Y0041413D02*
X0182539Y0041413D01*
X0182539Y0041667D02*
X0204014Y0041667D01*
X0204014Y0041921D02*
X0182539Y0041921D01*
X0182028Y0042176D02*
X0204014Y0042176D01*
X0204014Y0042430D02*
X0182028Y0042430D01*
X0182028Y0042684D02*
X0204014Y0042684D01*
X0204014Y0042938D02*
X0182028Y0042938D01*
X0181516Y0043192D02*
X0204014Y0043192D01*
X0204014Y0043446D02*
X0181516Y0043446D01*
X0181516Y0043701D02*
X0204014Y0043701D01*
X0204014Y0043955D02*
X0181516Y0043955D01*
X0181005Y0044209D02*
X0204014Y0044209D01*
X0204014Y0044463D02*
X0181005Y0044463D01*
X0181005Y0044717D02*
X0204014Y0044717D01*
X0204014Y0044971D02*
X0181005Y0044971D01*
X0181005Y0045226D02*
X0204014Y0045226D01*
X0204014Y0045480D02*
X0181005Y0045480D01*
X0180494Y0045734D02*
X0204014Y0045734D01*
X0204014Y0045988D02*
X0180494Y0045988D01*
X0180494Y0046242D02*
X0204014Y0046242D01*
X0204014Y0046496D02*
X0180494Y0046496D01*
X0179982Y0046750D02*
X0204014Y0046750D01*
X0204014Y0047005D02*
X0179982Y0047005D01*
X0179982Y0047259D02*
X0204014Y0047259D01*
X0204014Y0047513D02*
X0179982Y0047513D01*
X0179471Y0047767D02*
X0204014Y0047767D01*
X0204014Y0048021D02*
X0179471Y0048021D01*
X0179471Y0048275D02*
X0204014Y0048275D01*
X0204014Y0048530D02*
X0179471Y0048530D01*
X0179471Y0048784D02*
X0204014Y0048784D01*
X0204014Y0049038D02*
X0179471Y0049038D01*
X0178960Y0049292D02*
X0204014Y0049292D01*
X0204014Y0049546D02*
X0178960Y0049546D01*
X0178960Y0049800D02*
X0204014Y0049800D01*
X0204014Y0050055D02*
X0178960Y0050055D01*
X0178960Y0050309D02*
X0204014Y0050309D01*
X0204014Y0050563D02*
X0178960Y0050563D01*
X0178449Y0050817D02*
X0204014Y0050817D01*
X0204014Y0051071D02*
X0178449Y0051071D01*
X0178449Y0051325D02*
X0204014Y0051325D01*
X0204014Y0051580D02*
X0178449Y0051580D01*
X0178449Y0051834D02*
X0204014Y0051834D01*
X0204014Y0052088D02*
X0178449Y0052088D01*
X0177937Y0052342D02*
X0204014Y0052342D01*
X0204014Y0052596D02*
X0177937Y0052596D01*
X0177937Y0052850D02*
X0204014Y0052850D01*
X0204014Y0053104D02*
X0177937Y0053104D01*
X0177426Y0053359D02*
X0204014Y0053359D01*
X0204014Y0053613D02*
X0177426Y0053613D01*
X0177426Y0053867D02*
X0204014Y0053867D01*
X0204014Y0054121D02*
X0177426Y0054121D01*
X0177426Y0054375D02*
X0204014Y0054375D01*
X0204014Y0054629D02*
X0177426Y0054629D01*
X0176915Y0054884D02*
X0204014Y0054884D01*
X0204014Y0055138D02*
X0176915Y0055138D01*
X0176915Y0055392D02*
X0204014Y0055392D01*
X0204014Y0055646D02*
X0176915Y0055646D01*
X0176915Y0055900D02*
X0204014Y0055900D01*
X0204014Y0056154D02*
X0176915Y0056154D01*
X0176403Y0056409D02*
X0204014Y0056409D01*
X0204014Y0056663D02*
X0176403Y0056663D01*
X0176403Y0056917D02*
X0204014Y0056917D01*
X0204014Y0057171D02*
X0176403Y0057171D01*
X0175892Y0057425D02*
X0204014Y0057425D01*
X0204014Y0057679D02*
X0175892Y0057679D01*
X0175892Y0057933D02*
X0204014Y0057933D01*
X0204014Y0058188D02*
X0175892Y0058188D01*
X0175892Y0058442D02*
X0204014Y0058442D01*
X0204014Y0058696D02*
X0175892Y0058696D01*
X0175381Y0058950D02*
X0204014Y0058950D01*
X0204014Y0059204D02*
X0175381Y0059204D01*
X0175381Y0059458D02*
X0204014Y0059458D01*
X0204014Y0059713D02*
X0175381Y0059713D01*
X0175381Y0059967D02*
X0204014Y0059967D01*
X0204014Y0060221D02*
X0175381Y0060221D01*
X0174869Y0060475D02*
X0204014Y0060475D01*
X0204014Y0060729D02*
X0174869Y0060729D01*
X0174869Y0060983D02*
X0204014Y0060983D01*
X0204014Y0061238D02*
X0174869Y0061238D01*
X0174869Y0061492D02*
X0204014Y0061492D01*
X0204014Y0061746D02*
X0174869Y0061746D01*
X0174358Y0062000D02*
X0204014Y0062000D01*
X0204014Y0062254D02*
X0174358Y0062254D01*
X0174358Y0062508D02*
X0204014Y0062508D01*
X0204014Y0062762D02*
X0174358Y0062762D01*
X0174358Y0063017D02*
X0204014Y0063017D01*
X0204014Y0063271D02*
X0174358Y0063271D01*
X0173847Y0063525D02*
X0204014Y0063525D01*
X0204014Y0063779D02*
X0173847Y0063779D01*
X0173847Y0064033D02*
X0204014Y0064033D01*
X0204014Y0064287D02*
X0173847Y0064287D01*
X0173847Y0064542D02*
X0204014Y0064542D01*
X0204014Y0064796D02*
X0173847Y0064796D01*
X0173847Y0065050D02*
X0204014Y0065050D01*
X0204014Y0065304D02*
X0173847Y0065304D01*
X0173847Y0065558D02*
X0204014Y0065558D01*
X0204014Y0065812D02*
X0173336Y0065812D01*
X0173336Y0066067D02*
X0204014Y0066067D01*
X0204014Y0066321D02*
X0173336Y0066321D01*
X0173336Y0066575D02*
X0204014Y0066575D01*
X0204014Y0066829D02*
X0172824Y0066829D01*
X0172824Y0067083D02*
X0204014Y0067083D01*
X0204014Y0067337D02*
X0172824Y0067337D01*
X0172824Y0067591D02*
X0204014Y0067591D01*
X0204014Y0067846D02*
X0172824Y0067846D01*
X0172824Y0068100D02*
X0204014Y0068100D01*
X0204014Y0068354D02*
X0172824Y0068354D01*
X0172824Y0068608D02*
X0204014Y0068608D01*
X0204014Y0068862D02*
X0172313Y0068862D01*
X0172313Y0069116D02*
X0204014Y0069116D01*
X0204014Y0069371D02*
X0172313Y0069371D01*
X0172313Y0069625D02*
X0204014Y0069625D01*
X0204014Y0069879D02*
X0172313Y0069879D01*
X0172313Y0070133D02*
X0204014Y0070133D01*
X0204014Y0070387D02*
X0172313Y0070387D01*
X0172313Y0070641D02*
X0204014Y0070641D01*
X0204014Y0070896D02*
X0171802Y0070896D01*
X0171802Y0071150D02*
X0204014Y0071150D01*
X0204014Y0071404D02*
X0171802Y0071404D01*
X0171802Y0071658D02*
X0204014Y0071658D01*
X0204014Y0071912D02*
X0171802Y0071912D01*
X0171802Y0072166D02*
X0204014Y0072166D01*
X0204014Y0072420D02*
X0171290Y0072420D01*
X0171290Y0072675D02*
X0204014Y0072675D01*
X0204014Y0072929D02*
X0171290Y0072929D01*
X0171290Y0073183D02*
X0204014Y0073183D01*
X0204014Y0073437D02*
X0171290Y0073437D01*
X0171290Y0073691D02*
X0204014Y0073691D01*
X0204014Y0073945D02*
X0170779Y0073945D01*
X0170779Y0074200D02*
X0204014Y0074200D01*
X0204014Y0074454D02*
X0170779Y0074454D01*
X0170779Y0074708D02*
X0204014Y0074708D01*
X0204014Y0074962D02*
X0170779Y0074962D01*
X0170779Y0075216D02*
X0204014Y0075216D01*
X0204014Y0075470D02*
X0170779Y0075470D01*
X0170779Y0075725D02*
X0204014Y0075725D01*
X0204014Y0075979D02*
X0170268Y0075979D01*
X0170268Y0076233D02*
X0204014Y0076233D01*
X0204014Y0076487D02*
X0170268Y0076487D01*
X0170268Y0076741D02*
X0204014Y0076741D01*
X0204014Y0076995D02*
X0170268Y0076995D01*
X0170268Y0077250D02*
X0204014Y0077250D01*
X0204014Y0077504D02*
X0170268Y0077504D01*
X0170268Y0077758D02*
X0204014Y0077758D01*
X0204014Y0078012D02*
X0169756Y0078012D01*
X0169756Y0078266D02*
X0204014Y0078266D01*
X0204014Y0078520D02*
X0169756Y0078520D01*
X0169756Y0078774D02*
X0204014Y0078774D01*
X0204014Y0079029D02*
X0169756Y0079029D01*
X0169756Y0079283D02*
X0204014Y0079283D01*
X0204014Y0079537D02*
X0169756Y0079537D01*
X0169756Y0079791D02*
X0204014Y0079791D01*
X0204014Y0080045D02*
X0169756Y0080045D01*
X0169756Y0080299D02*
X0204014Y0080299D01*
X0204014Y0080554D02*
X0169245Y0080554D01*
X0169245Y0080808D02*
X0204014Y0080808D01*
X0204014Y0081062D02*
X0169245Y0081062D01*
X0169245Y0081316D02*
X0204014Y0081316D01*
X0204014Y0081570D02*
X0169245Y0081570D01*
X0169245Y0081824D02*
X0204014Y0081824D01*
X0204014Y0082079D02*
X0169245Y0082079D01*
X0169245Y0082333D02*
X0204014Y0082333D01*
X0204014Y0082587D02*
X0168734Y0082587D01*
X0168734Y0082841D02*
X0204014Y0082841D01*
X0204014Y0083095D02*
X0168734Y0083095D01*
X0168734Y0083349D02*
X0204014Y0083349D01*
X0204014Y0083603D02*
X0168734Y0083603D01*
X0168734Y0083858D02*
X0204014Y0083858D01*
X0204014Y0084112D02*
X0168734Y0084112D01*
X0168734Y0084366D02*
X0204014Y0084366D01*
X0204014Y0084620D02*
X0168734Y0084620D01*
X0168734Y0084874D02*
X0204014Y0084874D01*
X0204014Y0085128D02*
X0168223Y0085128D01*
X0168223Y0085383D02*
X0204014Y0085383D01*
X0204014Y0085637D02*
X0168223Y0085637D01*
X0168223Y0085891D02*
X0204014Y0085891D01*
X0204014Y0086145D02*
X0168223Y0086145D01*
X0168223Y0086399D02*
X0204014Y0086399D01*
X0204014Y0086653D02*
X0168223Y0086653D01*
X0168223Y0086908D02*
X0204014Y0086908D01*
X0204014Y0087162D02*
X0168223Y0087162D01*
X0168223Y0087416D02*
X0204014Y0087416D01*
X0204014Y0087670D02*
X0167711Y0087670D01*
X0167711Y0087924D02*
X0204014Y0087924D01*
X0204014Y0088178D02*
X0167711Y0088178D01*
X0167711Y0088432D02*
X0204014Y0088432D01*
X0204014Y0088687D02*
X0167711Y0088687D01*
X0167711Y0088941D02*
X0204014Y0088941D01*
X0204014Y0089195D02*
X0167711Y0089195D01*
X0167711Y0089449D02*
X0204014Y0089449D01*
X0204014Y0089703D02*
X0167711Y0089703D01*
X0167711Y0089957D02*
X0204014Y0089957D01*
X0204014Y0090212D02*
X0167200Y0090212D01*
X0167200Y0090466D02*
X0204014Y0090466D01*
X0204014Y0090720D02*
X0167200Y0090720D01*
X0167200Y0090974D02*
X0204014Y0090974D01*
X0204014Y0091228D02*
X0167200Y0091228D01*
X0167200Y0091482D02*
X0204014Y0091482D01*
X0204014Y0091737D02*
X0167200Y0091737D01*
X0167200Y0091991D02*
X0204014Y0091991D01*
X0204014Y0092245D02*
X0167200Y0092245D01*
X0167200Y0092499D02*
X0204014Y0092499D01*
X0204014Y0092753D02*
X0167200Y0092753D01*
X0167200Y0093007D02*
X0204014Y0093007D01*
X0204014Y0093261D02*
X0166689Y0093261D01*
X0166689Y0093516D02*
X0204014Y0093516D01*
X0204014Y0093770D02*
X0166689Y0093770D01*
X0166689Y0094024D02*
X0204014Y0094024D01*
X0204014Y0094278D02*
X0166689Y0094278D01*
X0166689Y0094532D02*
X0204014Y0094532D01*
X0204014Y0094786D02*
X0166689Y0094786D01*
X0166689Y0095041D02*
X0204014Y0095041D01*
X0204014Y0095295D02*
X0166689Y0095295D01*
X0166689Y0095549D02*
X0204014Y0095549D01*
X0204014Y0095803D02*
X0166689Y0095803D01*
X0166689Y0096057D02*
X0204014Y0096057D01*
X0204014Y0096311D02*
X0166177Y0096311D01*
X0166177Y0096566D02*
X0204014Y0096566D01*
X0204014Y0096820D02*
X0166177Y0096820D01*
X0166177Y0097074D02*
X0204014Y0097074D01*
X0204014Y0097328D02*
X0166177Y0097328D01*
X0166177Y0097582D02*
X0204014Y0097582D01*
X0204014Y0097836D02*
X0166177Y0097836D01*
X0166177Y0098091D02*
X0204014Y0098091D01*
X0204014Y0098345D02*
X0166177Y0098345D01*
X0166177Y0098599D02*
X0204014Y0098599D01*
X0204014Y0098853D02*
X0166177Y0098853D01*
X0166177Y0099107D02*
X0204014Y0099107D01*
X0204014Y0099361D02*
X0166177Y0099361D01*
X0166177Y0099615D02*
X0204014Y0099615D01*
X0204014Y0099870D02*
X0166177Y0099870D01*
X0166177Y0100124D02*
X0204014Y0100124D01*
X0204014Y0100378D02*
X0165666Y0100378D01*
X0165666Y0100632D02*
X0204014Y0100632D01*
X0204014Y0100886D02*
X0165666Y0100886D01*
X0165666Y0101140D02*
X0204014Y0101140D01*
X0204014Y0101395D02*
X0165666Y0101395D01*
X0165666Y0101649D02*
X0204014Y0101649D01*
X0204014Y0101903D02*
X0165666Y0101903D01*
X0165666Y0102157D02*
X0204014Y0102157D01*
X0204014Y0102411D02*
X0165666Y0102411D01*
X0165666Y0102665D02*
X0204014Y0102665D01*
X0204014Y0102920D02*
X0165666Y0102920D01*
X0165666Y0103174D02*
X0204014Y0103174D01*
X0204014Y0103428D02*
X0165666Y0103428D01*
X0165666Y0103682D02*
X0204014Y0103682D01*
X0204014Y0103936D02*
X0165666Y0103936D01*
X0165666Y0104190D02*
X0204014Y0104190D01*
X0204014Y0104444D02*
X0165666Y0104444D01*
X0165666Y0104699D02*
X0204014Y0104699D01*
X0204014Y0104953D02*
X0165155Y0104953D01*
X0165155Y0105207D02*
X0204014Y0105207D01*
X0204014Y0105461D02*
X0165155Y0105461D01*
X0165155Y0105715D02*
X0204014Y0105715D01*
X0204014Y0105969D02*
X0165155Y0105969D01*
X0165155Y0106224D02*
X0204014Y0106224D01*
X0204014Y0106478D02*
X0165155Y0106478D01*
X0165155Y0106732D02*
X0204014Y0106732D01*
X0204014Y0106986D02*
X0165155Y0106986D01*
X0165155Y0107240D02*
X0204014Y0107240D01*
X0204014Y0107494D02*
X0165155Y0107494D01*
X0165155Y0107749D02*
X0204014Y0107749D01*
X0204014Y0108003D02*
X0165155Y0108003D01*
X0165155Y0108257D02*
X0204014Y0108257D01*
X0204014Y0108511D02*
X0165155Y0108511D01*
X0165155Y0108765D02*
X0204014Y0108765D01*
X0204014Y0109019D02*
X0165155Y0109019D01*
X0165155Y0109273D02*
X0204014Y0109273D01*
X0204014Y0109528D02*
X0165155Y0109528D01*
X0165155Y0109782D02*
X0204014Y0109782D01*
X0204014Y0110036D02*
X0165155Y0110036D01*
X0165155Y0110290D02*
X0204014Y0110290D01*
X0204014Y0110544D02*
X0165155Y0110544D01*
X0165155Y0110798D02*
X0204014Y0110798D01*
X0204014Y0111053D02*
X0165155Y0111053D01*
X0165155Y0111307D02*
X0204014Y0111307D01*
X0204014Y0111561D02*
X0165155Y0111561D01*
X0164643Y0111815D02*
X0204014Y0111815D01*
X0204014Y0112069D02*
X0164643Y0112069D01*
X0164643Y0112323D02*
X0204014Y0112323D01*
X0204014Y0112578D02*
X0164643Y0112578D01*
X0164643Y0112832D02*
X0204014Y0112832D01*
X0204014Y0113086D02*
X0164643Y0113086D01*
X0164643Y0113340D02*
X0204014Y0113340D01*
X0204014Y0113594D02*
X0164643Y0113594D01*
X0164643Y0113848D02*
X0204014Y0113848D01*
X0204014Y0114102D02*
X0164643Y0114102D01*
X0164643Y0114357D02*
X0204014Y0114357D01*
X0204014Y0114611D02*
X0164643Y0114611D01*
X0164643Y0114865D02*
X0204014Y0114865D01*
X0204014Y0115119D02*
X0164643Y0115119D01*
X0164643Y0115373D02*
X0204014Y0115373D01*
X0204014Y0115627D02*
X0164643Y0115627D01*
X0164643Y0115882D02*
X0204014Y0115882D01*
X0204014Y0116136D02*
X0164643Y0116136D01*
X0164643Y0116390D02*
X0204014Y0116390D01*
X0204014Y0116644D02*
X0164643Y0116644D01*
X0164643Y0116898D02*
X0204014Y0116898D01*
X0204014Y0117152D02*
X0164643Y0117152D01*
X0164643Y0117407D02*
X0204014Y0117407D01*
X0204014Y0117661D02*
X0164643Y0117661D01*
X0164643Y0117915D02*
X0204014Y0117915D01*
X0204014Y0118169D02*
X0164643Y0118169D01*
X0164643Y0118423D02*
X0204014Y0118423D01*
X0204014Y0118677D02*
X0164643Y0118677D01*
X0164643Y0118931D02*
X0204014Y0118931D01*
X0204014Y0119186D02*
X0164643Y0119186D01*
X0164643Y0119440D02*
X0204014Y0119440D01*
X0204014Y0119694D02*
X0164643Y0119694D01*
X0164643Y0119948D02*
X0204014Y0119948D01*
X0204014Y0120202D02*
X0164643Y0120202D01*
X0164643Y0120456D02*
X0204014Y0120456D01*
X0204014Y0120711D02*
X0164643Y0120711D01*
X0164643Y0120965D02*
X0204014Y0120965D01*
X0204014Y0121219D02*
X0164643Y0121219D01*
X0164643Y0121473D02*
X0204014Y0121473D01*
X0204014Y0121727D02*
X0164643Y0121727D01*
X0164643Y0121981D02*
X0204014Y0121981D01*
X0204014Y0122236D02*
X0164643Y0122236D01*
X0164643Y0122490D02*
X0204014Y0122490D01*
X0204014Y0122744D02*
X0164643Y0122744D01*
X0164643Y0122998D02*
X0204014Y0122998D01*
X0204014Y0123252D02*
X0164643Y0123252D01*
X0164643Y0123506D02*
X0204014Y0123506D01*
X0204014Y0123761D02*
X0164643Y0123761D01*
X0164643Y0124015D02*
X0204014Y0124015D01*
X0204014Y0124269D02*
X0164643Y0124269D01*
X0164643Y0124523D02*
X0204014Y0124523D01*
X0204014Y0124777D02*
X0164643Y0124777D01*
X0204014Y0136723D02*
X0097663Y0136723D01*
X0097663Y0136977D02*
X0204014Y0136977D01*
X0204014Y0137231D02*
X0098175Y0137231D01*
X0098175Y0137485D02*
X0204014Y0137485D01*
X0204014Y0137739D02*
X0098686Y0137739D01*
X0098686Y0137993D02*
X0204014Y0137993D01*
X0204014Y0138248D02*
X0099197Y0138248D01*
X0099197Y0138502D02*
X0204014Y0138502D01*
X0204014Y0138756D02*
X0099708Y0138756D01*
X0099708Y0139010D02*
X0204014Y0139010D01*
X0204014Y0139264D02*
X0100220Y0139264D01*
X0100220Y0139518D02*
X0204014Y0139518D01*
X0204014Y0139772D02*
X0100731Y0139772D01*
X0100731Y0140027D02*
X0204014Y0140027D01*
X0204014Y0140281D02*
X0101242Y0140281D01*
X0101242Y0140535D02*
X0204014Y0140535D01*
X0204014Y0140789D02*
X0101754Y0140789D01*
X0101754Y0141043D02*
X0204014Y0141043D01*
X0204014Y0141297D02*
X0102265Y0141297D01*
X0102265Y0141552D02*
X0204014Y0141552D01*
X0204014Y0141806D02*
X0102776Y0141806D01*
X0102776Y0142060D02*
X0204014Y0142060D01*
X0204014Y0142314D02*
X0103287Y0142314D01*
X0103287Y0142568D02*
X0204014Y0142568D01*
X0204014Y0142822D02*
X0103799Y0142822D01*
X0103799Y0143077D02*
X0204014Y0143077D01*
X0204014Y0143331D02*
X0104310Y0143331D01*
X0104310Y0143585D02*
X0204014Y0143585D01*
X0204014Y0143839D02*
X0104821Y0143839D01*
X0104821Y0144093D02*
X0204014Y0144093D01*
X0204014Y0144347D02*
X0105333Y0144347D01*
X0105333Y0144602D02*
X0204014Y0144602D01*
X0204014Y0144856D02*
X0105844Y0144856D01*
X0105844Y0145110D02*
X0204014Y0145110D01*
X0204014Y0145364D02*
X0106355Y0145364D01*
X0106355Y0145618D02*
X0204014Y0145618D01*
X0204014Y0145872D02*
X0106867Y0145872D01*
X0106867Y0146126D02*
X0204014Y0146126D01*
X0204014Y0146381D02*
X0107378Y0146381D01*
X0107378Y0146635D02*
X0204014Y0146635D01*
X0204014Y0146889D02*
X0107889Y0146889D01*
X0107889Y0147143D02*
X0204014Y0147143D01*
X0204014Y0147397D02*
X0108400Y0147397D01*
X0108400Y0147651D02*
X0204014Y0147651D01*
X0204014Y0147906D02*
X0108912Y0147906D01*
X0108912Y0148160D02*
X0204014Y0148160D01*
X0124486Y0057679D02*
X0111192Y0057679D01*
X0111192Y0057425D02*
X0124486Y0057425D01*
X0124486Y0057171D02*
X0104545Y0057171D01*
X0104545Y0056917D02*
X0124486Y0056917D01*
X0124486Y0056663D02*
X0099944Y0056663D01*
X0099944Y0056409D02*
X0124486Y0056409D01*
X0124486Y0056154D02*
X0095853Y0056154D01*
X0095853Y0055900D02*
X0124486Y0055900D01*
X0124486Y0055646D02*
X0092785Y0055646D01*
X0092785Y0055392D02*
X0124486Y0055392D01*
X0124486Y0055138D02*
X0089718Y0055138D01*
X0089718Y0054884D02*
X0124486Y0054884D01*
X0124486Y0054629D02*
X0087161Y0054629D01*
X0087161Y0054375D02*
X0124486Y0054375D01*
X0124486Y0054121D02*
X0084605Y0054121D01*
X0084605Y0053867D02*
X0124486Y0053867D01*
X0124486Y0053613D02*
X0082048Y0053613D01*
X0082048Y0053359D02*
X0124486Y0053359D01*
X0124486Y0053104D02*
X0080003Y0053104D01*
X0080003Y0052850D02*
X0124486Y0052850D01*
X0124486Y0052596D02*
X0077446Y0052596D01*
X0077446Y0052342D02*
X0124486Y0052342D01*
X0124486Y0052088D02*
X0075401Y0052088D01*
X0075401Y0051834D02*
X0124486Y0051834D01*
X0124486Y0051580D02*
X0073356Y0051580D01*
X0073356Y0051325D02*
X0124486Y0051325D01*
X0124486Y0051071D02*
X0071822Y0051071D01*
X0071822Y0050817D02*
X0124486Y0050817D01*
X0124486Y0050563D02*
X0070288Y0050563D01*
X0070288Y0050309D02*
X0124486Y0050309D01*
X0124486Y0050055D02*
X0068243Y0050055D01*
X0068243Y0049800D02*
X0124486Y0049800D01*
X0085903Y0097074D02*
X0085392Y0097074D01*
X0085392Y0097328D02*
X0085903Y0097328D01*
X0085903Y0097582D02*
X0084881Y0097582D01*
X0084881Y0097836D02*
X0085903Y0097836D01*
X0085903Y0098091D02*
X0084369Y0098091D01*
X0084369Y0098345D02*
X0085903Y0098345D01*
X0085903Y0098599D02*
X0083858Y0098599D01*
X0083858Y0098853D02*
X0085903Y0098853D01*
X0085903Y0099107D02*
X0083347Y0099107D01*
X0083347Y0099361D02*
X0085903Y0099361D01*
X0085903Y0099615D02*
X0082835Y0099615D01*
X0082835Y0099870D02*
X0085903Y0099870D01*
X0085903Y0100124D02*
X0082324Y0100124D01*
X0082324Y0100378D02*
X0085903Y0100378D01*
X0085903Y0100632D02*
X0081813Y0100632D01*
X0081813Y0100886D02*
X0085903Y0100886D01*
X0085903Y0101140D02*
X0081302Y0101140D01*
X0081302Y0101395D02*
X0085903Y0101395D01*
X0085903Y0101649D02*
X0080790Y0101649D01*
X0080790Y0101903D02*
X0085903Y0101903D01*
X0085903Y0102157D02*
X0080279Y0102157D01*
X0080279Y0102411D02*
X0085903Y0102411D01*
X0085903Y0102665D02*
X0079768Y0102665D01*
X0079768Y0102920D02*
X0085903Y0102920D01*
X0085903Y0103174D02*
X0079256Y0103174D01*
X0079256Y0103428D02*
X0085903Y0103428D01*
X0085903Y0103682D02*
X0078745Y0103682D01*
X0078745Y0103936D02*
X0085903Y0103936D01*
X0085903Y0104190D02*
X0078234Y0104190D01*
X0078234Y0104444D02*
X0085903Y0104444D01*
X0085903Y0104699D02*
X0077722Y0104699D01*
X0077722Y0104953D02*
X0085903Y0104953D01*
X0085903Y0105207D02*
X0077211Y0105207D01*
X0077211Y0105461D02*
X0085903Y0105461D01*
X0085903Y0105715D02*
X0076700Y0105715D01*
X0076700Y0105969D02*
X0085903Y0105969D01*
X0085903Y0106224D02*
X0076189Y0106224D01*
X0076189Y0106478D02*
X0085903Y0106478D01*
X0085903Y0106732D02*
X0075677Y0106732D01*
X0075677Y0106986D02*
X0085903Y0106986D01*
X0085903Y0107240D02*
X0075166Y0107240D01*
X0075166Y0107494D02*
X0085903Y0107494D01*
X0085903Y0107749D02*
X0074655Y0107749D01*
X0074655Y0108003D02*
X0085903Y0108003D01*
X0085903Y0108257D02*
X0074143Y0108257D01*
X0074143Y0108511D02*
X0085903Y0108511D01*
X0085903Y0108765D02*
X0073632Y0108765D01*
X0073632Y0109019D02*
X0085903Y0109019D01*
X0085903Y0109273D02*
X0073121Y0109273D01*
X0073121Y0109528D02*
X0085903Y0109528D01*
X0085903Y0109782D02*
X0072609Y0109782D01*
X0072609Y0110036D02*
X0085903Y0110036D01*
X0085903Y0110290D02*
X0072098Y0110290D01*
X0072098Y0110544D02*
X0085903Y0110544D01*
X0085903Y0110798D02*
X0071587Y0110798D01*
X0071587Y0111053D02*
X0085903Y0111053D01*
X0085903Y0111307D02*
X0071076Y0111307D01*
X0071076Y0111561D02*
X0085903Y0111561D01*
X0085903Y0111815D02*
X0070564Y0111815D01*
X0070564Y0112069D02*
X0085903Y0112069D01*
X0085903Y0112323D02*
X0070053Y0112323D01*
X0070053Y0112578D02*
X0085903Y0112578D01*
X0085903Y0112832D02*
X0069542Y0112832D01*
X0069542Y0113086D02*
X0085903Y0113086D01*
X0085903Y0113340D02*
X0069030Y0113340D01*
X0069030Y0113594D02*
X0085903Y0113594D01*
X0085903Y0113848D02*
X0068519Y0113848D01*
X0068519Y0114102D02*
X0085903Y0114102D01*
X0085903Y0114357D02*
X0068008Y0114357D01*
X0068008Y0114611D02*
X0085903Y0114611D01*
X0085903Y0114865D02*
X0067497Y0114865D01*
X0067497Y0115119D02*
X0085903Y0115119D01*
X0085903Y0115373D02*
X0066985Y0115373D01*
X0066985Y0115627D02*
X0085903Y0115627D01*
X0085903Y0115882D02*
X0066474Y0115882D01*
X0066474Y0116136D02*
X0085903Y0116136D01*
X0085903Y0116390D02*
X0065963Y0116390D01*
X0065963Y0116644D02*
X0085903Y0116644D01*
X0085903Y0116898D02*
X0065963Y0116898D01*
X0065963Y0117152D02*
X0085903Y0117152D01*
X0085903Y0117407D02*
X0065451Y0117407D01*
X0065451Y0117661D02*
X0085903Y0117661D01*
X0085903Y0117915D02*
X0065451Y0117915D01*
X0065451Y0118169D02*
X0085903Y0118169D01*
X0085903Y0118423D02*
X0064940Y0118423D01*
X0064940Y0118677D02*
X0085903Y0118677D01*
X0085903Y0118931D02*
X0064940Y0118931D01*
X0064940Y0119186D02*
X0085903Y0119186D01*
X0085903Y0119440D02*
X0064429Y0119440D01*
X0064429Y0119694D02*
X0085903Y0119694D01*
X0085903Y0119948D02*
X0064429Y0119948D01*
X0064429Y0120202D02*
X0085903Y0120202D01*
X0085903Y0120456D02*
X0063917Y0120456D01*
X0063917Y0120711D02*
X0085903Y0120711D01*
X0085903Y0120965D02*
X0063917Y0120965D01*
X0063917Y0121219D02*
X0085903Y0121219D01*
X0085903Y0121473D02*
X0063406Y0121473D01*
X0063406Y0121727D02*
X0085903Y0121727D01*
X0085903Y0121981D02*
X0063406Y0121981D01*
X0063406Y0122236D02*
X0085903Y0122236D01*
X0085903Y0122490D02*
X0062895Y0122490D01*
X0062895Y0122744D02*
X0085903Y0122744D01*
X0085903Y0122998D02*
X0062895Y0122998D01*
X0062895Y0123252D02*
X0085903Y0123252D01*
X0085903Y0123506D02*
X0062895Y0123506D01*
X0062895Y0123761D02*
X0085903Y0123761D01*
X0085903Y0124015D02*
X0062384Y0124015D01*
X0062384Y0124269D02*
X0085903Y0124269D01*
X0085903Y0124523D02*
X0062384Y0124523D01*
X0062384Y0124777D02*
X0085903Y0124777D01*
X0085903Y0125031D02*
X0061872Y0125031D01*
X0061872Y0125285D02*
X0085903Y0125285D01*
X0085903Y0125540D02*
X0061872Y0125540D01*
X0061872Y0125794D02*
X0085903Y0125794D01*
X0085903Y0126048D02*
X0061361Y0126048D01*
X0061361Y0126302D02*
X0085903Y0126302D01*
X0085903Y0126556D02*
X0061361Y0126556D01*
X0061361Y0126810D02*
X0085903Y0126810D01*
X0085903Y0127065D02*
X0061361Y0127065D01*
X0061361Y0127319D02*
X0085903Y0127319D01*
X0085903Y0127573D02*
X0060850Y0127573D01*
X0060850Y0127827D02*
X0085903Y0127827D01*
X0085903Y0128081D02*
X0060850Y0128081D01*
X0060850Y0128335D02*
X0085903Y0128335D01*
X0085903Y0128590D02*
X0060850Y0128590D01*
X0060850Y0128844D02*
X0085903Y0128844D01*
X0085903Y0129098D02*
X0060338Y0129098D01*
X0060338Y0129352D02*
X0085903Y0129352D01*
X0085903Y0129606D02*
X0060338Y0129606D01*
X0060338Y0129860D02*
X0085903Y0129860D01*
X0085903Y0130114D02*
X0060338Y0130114D01*
X0060338Y0130369D02*
X0085903Y0130369D01*
X0085903Y0130623D02*
X0059827Y0130623D01*
X0059827Y0130877D02*
X0085903Y0130877D01*
X0085903Y0131131D02*
X0059827Y0131131D01*
X0059827Y0131385D02*
X0085903Y0131385D01*
X0085903Y0131639D02*
X0059827Y0131639D01*
X0059316Y0131894D02*
X0085903Y0131894D01*
X0085903Y0132148D02*
X0059316Y0132148D01*
X0059316Y0132402D02*
X0085903Y0132402D01*
X0085903Y0132656D02*
X0059316Y0132656D01*
X0059316Y0132910D02*
X0085903Y0132910D01*
X0085903Y0133164D02*
X0059316Y0133164D01*
X0058804Y0133419D02*
X0085903Y0133419D01*
X0085903Y0133673D02*
X0058804Y0133673D01*
X0058804Y0133927D02*
X0085903Y0133927D01*
X0085903Y0134181D02*
X0058804Y0134181D01*
X0058804Y0134435D02*
X0085903Y0134435D01*
X0085903Y0134689D02*
X0058804Y0134689D01*
X0058293Y0134943D02*
X0085903Y0134943D01*
X0085903Y0135198D02*
X0058293Y0135198D01*
X0058293Y0135452D02*
X0085903Y0135452D01*
X0085903Y0135706D02*
X0058293Y0135706D01*
X0057782Y0135960D02*
X0085903Y0135960D01*
X0085903Y0136214D02*
X0057782Y0136214D01*
X0057782Y0136468D02*
X0085903Y0136468D01*
X0085903Y0136723D02*
X0057782Y0136723D01*
X0057782Y0136977D02*
X0085903Y0136977D01*
X0085903Y0137231D02*
X0057782Y0137231D01*
X0057271Y0137485D02*
X0085903Y0137485D01*
X0085903Y0137739D02*
X0057271Y0137739D01*
X0057271Y0137993D02*
X0085903Y0137993D01*
X0085903Y0138248D02*
X0057271Y0138248D01*
X0057271Y0138502D02*
X0085903Y0138502D01*
X0085903Y0138756D02*
X0057271Y0138756D01*
X0056759Y0139010D02*
X0085903Y0139010D01*
X0085903Y0139264D02*
X0056759Y0139264D01*
X0056759Y0139518D02*
X0085903Y0139518D01*
X0085903Y0139772D02*
X0056759Y0139772D01*
X0056759Y0140027D02*
X0085903Y0140027D01*
X0085903Y0140281D02*
X0056759Y0140281D01*
X0056248Y0140535D02*
X0085903Y0140535D01*
X0085903Y0140789D02*
X0056248Y0140789D01*
X0056248Y0141043D02*
X0085903Y0141043D01*
X0085903Y0141297D02*
X0056248Y0141297D01*
X0056248Y0141552D02*
X0085903Y0141552D01*
X0085903Y0141806D02*
X0056248Y0141806D01*
X0055737Y0142060D02*
X0085903Y0142060D01*
X0085903Y0142314D02*
X0055737Y0142314D01*
X0055737Y0142568D02*
X0085903Y0142568D01*
X0085903Y0142822D02*
X0055737Y0142822D01*
X0055737Y0143077D02*
X0085903Y0143077D01*
X0085903Y0143331D02*
X0055737Y0143331D01*
X0055737Y0143585D02*
X0085903Y0143585D01*
X0085903Y0143839D02*
X0055737Y0143839D01*
X0055225Y0144093D02*
X0085903Y0144093D01*
X0085903Y0144347D02*
X0055225Y0144347D01*
X0055225Y0144602D02*
X0085903Y0144602D01*
X0085903Y0144856D02*
X0055225Y0144856D01*
X0054714Y0145110D02*
X0085903Y0145110D01*
X0085903Y0145364D02*
X0054714Y0145364D01*
X0054714Y0145618D02*
X0085903Y0145618D01*
X0085903Y0145872D02*
X0054714Y0145872D01*
X0054714Y0146126D02*
X0085903Y0146126D01*
X0085903Y0146381D02*
X0054714Y0146381D01*
X0054714Y0146635D02*
X0085903Y0146635D01*
X0085903Y0146889D02*
X0054714Y0146889D01*
X0054203Y0147143D02*
X0085903Y0147143D01*
X0085903Y0147397D02*
X0054203Y0147397D01*
X0054203Y0147651D02*
X0085903Y0147651D01*
X0085903Y0147906D02*
X0054203Y0147906D01*
X0054203Y0148160D02*
X0085903Y0148160D01*
X0085903Y0148414D02*
X0054203Y0148414D01*
X0054203Y0148668D02*
X0085903Y0148668D01*
X0085903Y0148922D02*
X0054203Y0148922D01*
X0053691Y0149176D02*
X0085903Y0149176D01*
X0085903Y0149431D02*
X0053691Y0149431D01*
X0053691Y0149685D02*
X0085903Y0149685D01*
X0085903Y0149939D02*
X0053691Y0149939D01*
X0053691Y0150193D02*
X0085903Y0150193D01*
X0085903Y0150447D02*
X0053691Y0150447D01*
X0053180Y0150701D02*
X0085903Y0150701D01*
X0085903Y0150955D02*
X0053180Y0150955D01*
X0053180Y0151210D02*
X0085903Y0151210D01*
X0085903Y0151464D02*
X0053180Y0151464D01*
X0053180Y0151718D02*
X0085903Y0151718D01*
X0085903Y0151972D02*
X0053180Y0151972D01*
X0052669Y0152226D02*
X0085903Y0152226D01*
X0085903Y0152480D02*
X0052669Y0152480D01*
X0052669Y0152735D02*
X0085903Y0152735D01*
X0085903Y0152989D02*
X0052669Y0152989D01*
X0052669Y0153243D02*
X0085903Y0153243D01*
X0085903Y0153497D02*
X0052669Y0153497D01*
X0052669Y0153751D02*
X0085903Y0153751D01*
X0085903Y0154005D02*
X0052669Y0154005D01*
X0052158Y0154260D02*
X0085903Y0154260D01*
X0085903Y0154514D02*
X0052158Y0154514D01*
X0052158Y0154768D02*
X0085903Y0154768D01*
X0085903Y0155022D02*
X0052158Y0155022D01*
X0052158Y0155276D02*
X0085903Y0155276D01*
X0085903Y0155530D02*
X0052158Y0155530D01*
X0052158Y0155784D02*
X0085903Y0155784D01*
X0085903Y0156039D02*
X0052158Y0156039D01*
X0051646Y0156293D02*
X0085903Y0156293D01*
X0085903Y0156547D02*
X0051646Y0156547D01*
X0051646Y0156801D02*
X0085903Y0156801D01*
X0085903Y0157055D02*
X0051646Y0157055D01*
X0051646Y0157309D02*
X0085903Y0157309D01*
X0085903Y0157564D02*
X0051646Y0157564D01*
X0051646Y0157818D02*
X0085903Y0157818D01*
X0085903Y0158072D02*
X0051646Y0158072D01*
X0051646Y0158326D02*
X0085903Y0158326D01*
X0085903Y0158580D02*
X0051646Y0158580D01*
X0051135Y0158834D02*
X0085903Y0158834D01*
X0085903Y0159089D02*
X0051135Y0159089D01*
X0051135Y0159343D02*
X0085903Y0159343D01*
X0085903Y0159597D02*
X0051135Y0159597D01*
X0051135Y0159851D02*
X0085903Y0159851D01*
X0085903Y0160105D02*
X0051135Y0160105D01*
X0051135Y0160359D02*
X0085903Y0160359D01*
X0085903Y0160613D02*
X0051135Y0160613D01*
X0050624Y0160868D02*
X0085903Y0160868D01*
X0085903Y0161122D02*
X0050624Y0161122D01*
X0050624Y0161376D02*
X0085903Y0161376D01*
X0085903Y0161630D02*
X0050624Y0161630D01*
X0050624Y0161884D02*
X0085903Y0161884D01*
X0085903Y0162138D02*
X0050624Y0162138D01*
X0050624Y0162393D02*
X0085903Y0162393D01*
X0085903Y0162647D02*
X0050624Y0162647D01*
X0050624Y0162901D02*
X0085903Y0162901D01*
X0085903Y0163155D02*
X0050624Y0163155D01*
X0050112Y0163409D02*
X0085903Y0163409D01*
X0085903Y0163663D02*
X0050112Y0163663D01*
X0036358Y0185775D02*
X0035847Y0185775D01*
X0035847Y0186287D01*
X0035336Y0186287D01*
X0035336Y0186798D01*
X0034824Y0186798D01*
X0034824Y0187309D01*
X0034313Y0187309D01*
X0034313Y0187821D01*
X0033802Y0187821D01*
X0033802Y0188332D01*
X0033291Y0188332D01*
X0033291Y0188843D01*
X0032779Y0188843D01*
X0032779Y0189355D01*
X0032779Y0189333D02*
X0018463Y0189333D01*
X0018463Y0189079D02*
X0032779Y0189079D01*
X0033291Y0188825D02*
X0018463Y0188825D01*
X0018463Y0188571D02*
X0033291Y0188571D01*
X0033802Y0188317D02*
X0018463Y0188317D01*
X0018463Y0188063D02*
X0033802Y0188063D01*
X0034313Y0187808D02*
X0018463Y0187808D01*
X0018463Y0187554D02*
X0034313Y0187554D01*
X0034824Y0187300D02*
X0018463Y0187300D01*
X0018463Y0187046D02*
X0034824Y0187046D01*
X0035336Y0186792D02*
X0018463Y0186792D01*
X0018463Y0186538D02*
X0035336Y0186538D01*
X0035847Y0186283D02*
X0018463Y0186283D01*
X0018463Y0186029D02*
X0035847Y0186029D01*
X0032268Y0189588D02*
X0018463Y0189588D01*
X0018463Y0189842D02*
X0032268Y0189842D01*
X0031757Y0190096D02*
X0018463Y0190096D01*
X0018463Y0190350D02*
X0031757Y0190350D01*
X0031245Y0190604D02*
X0018463Y0190604D01*
X0018463Y0190858D02*
X0031245Y0190858D01*
X0030734Y0191112D02*
X0018463Y0191112D01*
X0018463Y0191367D02*
X0030734Y0191367D01*
X0030223Y0191621D02*
X0018463Y0191621D01*
X0018463Y0191875D02*
X0030223Y0191875D01*
X0029711Y0192129D02*
X0018463Y0192129D01*
X0018463Y0192383D02*
X0029711Y0192383D01*
X0029200Y0192637D02*
X0018463Y0192637D01*
X0018463Y0192892D02*
X0029200Y0192892D01*
X0028689Y0193146D02*
X0018463Y0193146D01*
X0018463Y0193400D02*
X0028689Y0193400D01*
X0028178Y0193654D02*
X0018463Y0193654D01*
X0018463Y0193908D02*
X0028178Y0193908D01*
X0027666Y0194162D02*
X0018463Y0194162D01*
X0018463Y0194417D02*
X0027666Y0194417D01*
X0027155Y0194671D02*
X0018463Y0194671D01*
X0018463Y0194925D02*
X0027155Y0194925D01*
X0026644Y0195179D02*
X0018463Y0195179D01*
X0018463Y0195433D02*
X0026644Y0195433D01*
X0026132Y0195687D02*
X0018463Y0195687D01*
X0018463Y0195942D02*
X0026132Y0195942D01*
X0025621Y0196196D02*
X0018463Y0196196D01*
X0018463Y0196450D02*
X0025621Y0196450D01*
X0025110Y0196704D02*
X0018463Y0196704D01*
X0018463Y0196958D02*
X0025110Y0196958D01*
X0024598Y0197212D02*
X0018463Y0197212D01*
X0018463Y0197466D02*
X0024598Y0197466D01*
X0024087Y0197721D02*
X0018463Y0197721D01*
X0018463Y0197975D02*
X0024087Y0197975D01*
X0023576Y0198229D02*
X0018463Y0198229D01*
X0018463Y0198483D02*
X0023576Y0198483D01*
X0023065Y0198737D02*
X0018463Y0198737D01*
X0018463Y0198991D02*
X0023065Y0198991D01*
X0022553Y0199246D02*
X0018463Y0199246D01*
X0018463Y0199500D02*
X0022553Y0199500D01*
X0022042Y0199754D02*
X0018463Y0199754D01*
X0018463Y0200008D02*
X0022042Y0200008D01*
X0021531Y0200262D02*
X0018463Y0200262D01*
X0018463Y0200516D02*
X0021531Y0200516D01*
X0021019Y0200771D02*
X0018463Y0200771D01*
X0018463Y0201025D02*
X0021019Y0201025D01*
X0020508Y0201279D02*
X0018463Y0201279D01*
X0018463Y0201533D02*
X0020508Y0201533D01*
X0019997Y0201787D02*
X0018463Y0201787D01*
X0018463Y0202041D02*
X0019997Y0202041D01*
X0019485Y0202295D02*
X0018463Y0202295D01*
X0018463Y0202550D02*
X0019485Y0202550D01*
X0018974Y0202804D02*
X0018463Y0202804D01*
X0018463Y0203058D02*
X0018974Y0203058D01*
X0018463Y0051580D02*
X0062946Y0051580D01*
X0062946Y0051325D02*
X0018463Y0051325D01*
X0018463Y0051071D02*
X0060901Y0051071D01*
X0060901Y0050817D02*
X0018463Y0050817D01*
X0018463Y0050563D02*
X0058344Y0050563D01*
X0058344Y0050309D02*
X0018463Y0050309D01*
X0018463Y0050055D02*
X0055788Y0050055D01*
X0055788Y0049800D02*
X0018463Y0049800D01*
X0018463Y0049546D02*
X0053231Y0049546D01*
X0053231Y0049292D02*
X0018463Y0049292D01*
X0018463Y0049038D02*
X0050163Y0049038D01*
X0050163Y0048784D02*
X0018463Y0048784D01*
X0018463Y0048530D02*
X0047096Y0048530D01*
X0047096Y0048275D02*
X0018463Y0048275D01*
X0018463Y0048021D02*
X0043005Y0048021D01*
X0043005Y0047767D02*
X0018463Y0047767D01*
X0018463Y0047513D02*
X0038404Y0047513D01*
X0038404Y0047259D02*
X0018463Y0047259D01*
X0018463Y0047005D02*
X0031757Y0047005D01*
X0031757Y0046750D02*
X0018463Y0046750D01*
X0189697Y0032772D02*
X0204014Y0032772D01*
X0204014Y0032518D02*
X0189697Y0032518D01*
X0190208Y0032263D02*
X0204014Y0032263D01*
X0204014Y0032009D02*
X0190208Y0032009D01*
X0190720Y0031755D02*
X0204014Y0031755D01*
X0204014Y0031501D02*
X0190720Y0031501D01*
X0191231Y0031247D02*
X0204014Y0031247D01*
X0204014Y0030993D02*
X0191231Y0030993D01*
X0191742Y0030739D02*
X0204014Y0030739D01*
X0204014Y0030484D02*
X0191742Y0030484D01*
X0192254Y0030230D02*
X0204014Y0030230D01*
X0204014Y0029976D02*
X0192254Y0029976D01*
X0192765Y0029722D02*
X0204014Y0029722D01*
X0204014Y0029468D02*
X0192765Y0029468D01*
X0193276Y0029214D02*
X0204014Y0029214D01*
X0204014Y0028959D02*
X0193276Y0028959D01*
X0193788Y0028705D02*
X0204014Y0028705D01*
X0204014Y0028451D02*
X0193788Y0028451D01*
X0194299Y0028197D02*
X0204014Y0028197D01*
X0204014Y0027943D02*
X0194299Y0027943D01*
X0194810Y0027689D02*
X0204014Y0027689D01*
X0204014Y0027434D02*
X0194810Y0027434D01*
X0195321Y0027180D02*
X0204014Y0027180D01*
X0204014Y0026926D02*
X0195321Y0026926D01*
X0195833Y0026672D02*
X0204014Y0026672D01*
X0204014Y0026418D02*
X0195833Y0026418D01*
X0196344Y0026164D02*
X0204014Y0026164D01*
X0204014Y0025909D02*
X0196344Y0025909D01*
X0196855Y0025655D02*
X0204014Y0025655D01*
X0204014Y0025401D02*
X0196855Y0025401D01*
X0197367Y0025147D02*
X0204014Y0025147D01*
X0204014Y0024893D02*
X0197367Y0024893D01*
X0197878Y0024639D02*
X0204014Y0024639D01*
X0204014Y0024385D02*
X0197878Y0024385D01*
X0198389Y0024130D02*
X0204014Y0024130D01*
X0204014Y0023876D02*
X0198389Y0023876D01*
X0198901Y0023622D02*
X0204014Y0023622D01*
X0204014Y0023368D02*
X0198901Y0023368D01*
X0199412Y0023114D02*
X0204014Y0023114D01*
X0204014Y0022860D02*
X0199412Y0022860D01*
X0199923Y0022605D02*
X0204014Y0022605D01*
X0204014Y0022351D02*
X0199923Y0022351D01*
X0200434Y0022097D02*
X0204014Y0022097D01*
X0204014Y0021843D02*
X0200434Y0021843D01*
X0200946Y0021589D02*
X0204014Y0021589D01*
X0204014Y0021335D02*
X0200946Y0021335D01*
X0201457Y0021080D02*
X0204014Y0021080D01*
X0204014Y0020826D02*
X0201457Y0020826D01*
X0201968Y0020572D02*
X0204014Y0020572D01*
X0204014Y0020318D02*
X0201968Y0020318D01*
X0201968Y0020064D02*
X0204014Y0020064D01*
X0204014Y0019810D02*
X0202480Y0019810D01*
X0202480Y0019556D02*
X0204014Y0019556D01*
X0204014Y0019301D02*
X0202991Y0019301D01*
X0202991Y0019047D02*
X0204014Y0019047D01*
X0204014Y0018793D02*
X0203502Y0018793D01*
X0203502Y0018539D02*
X0204014Y0018539D01*
D15*
X0123208Y0021019D03*
X0019741Y0083347D03*
X0098875Y0200670D03*
X0202735Y0139130D03*
D16*
X0199033Y0132104D03*
X0157498Y0122459D03*
X0064978Y0099230D03*
X0023246Y0090372D03*
D17*
X0100018Y0156907D03*
X0090569Y0198246D03*
X0122065Y0064781D03*
X0132301Y0023443D03*
D18*
X0103167Y0129348D03*
X0093128Y0129348D03*
D19*
X0093128Y0096278D01*
X0098640Y0090766D01*
X0133285Y0090766D01*
X0136041Y0088010D01*
X0137616Y0088010D01*
X0122065Y0064781D02*
X0116356Y0064781D01*
X0093522Y0080530D02*
X0089585Y0080530D01*
X0087616Y0082498D01*
X0093128Y0080923D02*
X0093522Y0080530D01*
X0093128Y0080923D02*
X0093128Y0096278D01*
X0093128Y0129348D02*
X0083285Y0129348D01*
X0093128Y0129348D02*
X0093128Y0134860D01*
X0095884Y0137616D01*
X0106120Y0137616D01*
X0100608Y0180923D02*
X0093915Y0180923D01*
X0090569Y0190175D02*
X0090569Y0198246D01*
X0157498Y0122459D02*
X0157498Y0116553D01*
X0178955Y0120293D02*
X0179348Y0119900D01*
X0190766Y0119900D01*
X0191159Y0120293D01*
X0178955Y0120293D02*
X0178955Y0127774D01*
X0188010Y0132104D02*
X0199033Y0132104D01*
X0127380Y0035254D02*
X0121081Y0035254D01*
X0132301Y0032695D02*
X0132301Y0023443D01*
X0036435Y0093915D02*
X0036435Y0097459D01*
X0031317Y0090372D02*
X0023246Y0090372D01*
D20*
X0021255Y0097852D02*
X0021019Y0098088D01*
X0021255Y0097852D02*
X0036829Y0097852D01*
X0036435Y0097459D01*
X0020590Y0082498D02*
X0019741Y0083347D01*
X0020590Y0082498D02*
X0087616Y0082498D01*
X0064978Y0099230D02*
X0064978Y0105136D01*
X0083285Y0129348D02*
X0082892Y0129742D01*
X0082892Y0201493D01*
X0083347Y0201948D01*
X0090569Y0190175D02*
X0090372Y0189978D01*
X0100608Y0198936D02*
X0098875Y0200670D01*
X0100608Y0198936D02*
X0100608Y0180923D01*
X0100018Y0156907D02*
X0106120Y0156907D01*
X0106514Y0138010D02*
X0132104Y0138010D01*
X0133679Y0139585D01*
X0147065Y0139585D01*
X0154545Y0147065D01*
X0202735Y0139130D01*
X0201457Y0123601D02*
X0198149Y0120293D01*
X0191159Y0120293D01*
X0191553Y0120687D01*
X0139130Y0086496D02*
X0137616Y0088010D01*
X0139130Y0086496D02*
X0139130Y0019741D01*
X0132301Y0032695D02*
X0132498Y0032892D01*
X0121081Y0035254D02*
X0120687Y0035648D01*
X0120687Y0023540D01*
X0123208Y0021019D01*
X0093128Y0126986D02*
X0093128Y0129348D01*
X0106120Y0137616D02*
X0106514Y0138010D01*
D21*
X0106120Y0156907D03*
X0093915Y0180923D03*
X0090372Y0189978D03*
X0157498Y0116553D03*
X0178955Y0127774D03*
X0188010Y0132104D03*
X0116356Y0064781D03*
X0127380Y0035254D03*
X0132498Y0032892D03*
X0064978Y0105136D03*
X0036435Y0093915D03*
X0031317Y0090372D03*
M02*
