G75*
%MOIN*%
%OFA0B0*%
%FSLAX25Y25*%
%IPPOS*%
%LPD*%
%AMOC8*
5,1,8,0,0,1.08239X$1,22.5*
%
%ADD10C,0.00000*%
%ADD11R,0.05906X0.05118*%
%ADD12R,0.05512X0.04331*%
%ADD13R,0.05000X0.02200*%
%ADD14R,0.01378X0.09646*%
%ADD15R,0.01200X0.03200*%
%ADD16R,0.09400X0.06500*%
%ADD17R,0.03200X0.01200*%
%ADD18R,0.06500X0.09400*%
%ADD19R,0.01181X0.00984*%
%ADD20R,0.06299X0.03937*%
%ADD21R,0.01181X0.00591*%
%ADD22R,0.02600X0.01200*%
%ADD23R,0.03300X0.09400*%
%ADD24R,0.04724X0.07087*%
%ADD25R,0.02362X0.05906*%
%ADD26R,0.07087X0.04724*%
%ADD27R,0.05906X0.02362*%
%ADD28R,0.05118X0.05906*%
%ADD29R,0.00984X0.01181*%
%ADD30R,0.03937X0.06299*%
%ADD31R,0.00591X0.01181*%
%ADD32C,0.02381*%
%ADD33C,0.01000*%
%ADD34C,0.01200*%
%ADD35C,0.01181*%
%ADD36C,0.00900*%
%ADD37C,0.00600*%
%ADD38C,0.00893*%
%ADD39C,0.01600*%
%ADD40C,0.19685*%
D10*
X0013311Y0018636D02*
X0155043Y0018636D01*
X0155328Y0018639D01*
X0155614Y0018650D01*
X0155899Y0018667D01*
X0156183Y0018691D01*
X0156467Y0018722D01*
X0156750Y0018760D01*
X0157031Y0018805D01*
X0157312Y0018856D01*
X0157592Y0018914D01*
X0157870Y0018979D01*
X0158146Y0019051D01*
X0158420Y0019129D01*
X0158693Y0019214D01*
X0158963Y0019306D01*
X0159231Y0019404D01*
X0159497Y0019508D01*
X0159760Y0019619D01*
X0160020Y0019736D01*
X0160278Y0019859D01*
X0160532Y0019989D01*
X0160783Y0020125D01*
X0161031Y0020266D01*
X0161275Y0020414D01*
X0161516Y0020567D01*
X0161752Y0020727D01*
X0161985Y0020892D01*
X0162214Y0021062D01*
X0162439Y0021238D01*
X0162659Y0021420D01*
X0162875Y0021606D01*
X0163086Y0021798D01*
X0163293Y0021995D01*
X0163495Y0022197D01*
X0163692Y0022404D01*
X0163884Y0022615D01*
X0164070Y0022831D01*
X0164252Y0023051D01*
X0164428Y0023276D01*
X0164598Y0023505D01*
X0164763Y0023738D01*
X0164923Y0023974D01*
X0165076Y0024215D01*
X0165224Y0024459D01*
X0165365Y0024707D01*
X0165501Y0024958D01*
X0165631Y0025212D01*
X0165754Y0025470D01*
X0165871Y0025730D01*
X0165982Y0025993D01*
X0166086Y0026259D01*
X0166184Y0026527D01*
X0166276Y0026797D01*
X0166361Y0027070D01*
X0166439Y0027344D01*
X0166511Y0027620D01*
X0166576Y0027898D01*
X0166634Y0028178D01*
X0166685Y0028459D01*
X0166730Y0028740D01*
X0166768Y0029023D01*
X0166799Y0029307D01*
X0166823Y0029591D01*
X0166840Y0029876D01*
X0166851Y0030162D01*
X0166854Y0030447D01*
X0166854Y0172179D01*
X0166851Y0172464D01*
X0166840Y0172750D01*
X0166823Y0173035D01*
X0166799Y0173319D01*
X0166768Y0173603D01*
X0166730Y0173886D01*
X0166685Y0174167D01*
X0166634Y0174448D01*
X0166576Y0174728D01*
X0166511Y0175006D01*
X0166439Y0175282D01*
X0166361Y0175556D01*
X0166276Y0175829D01*
X0166184Y0176099D01*
X0166086Y0176367D01*
X0165982Y0176633D01*
X0165871Y0176896D01*
X0165754Y0177156D01*
X0165631Y0177414D01*
X0165501Y0177668D01*
X0165365Y0177919D01*
X0165224Y0178167D01*
X0165076Y0178411D01*
X0164923Y0178652D01*
X0164763Y0178888D01*
X0164598Y0179121D01*
X0164428Y0179350D01*
X0164252Y0179575D01*
X0164070Y0179795D01*
X0163884Y0180011D01*
X0163692Y0180222D01*
X0163495Y0180429D01*
X0163293Y0180631D01*
X0163086Y0180828D01*
X0162875Y0181020D01*
X0162659Y0181206D01*
X0162439Y0181388D01*
X0162214Y0181564D01*
X0161985Y0181734D01*
X0161752Y0181899D01*
X0161516Y0182059D01*
X0161275Y0182212D01*
X0161031Y0182360D01*
X0160783Y0182501D01*
X0160532Y0182637D01*
X0160278Y0182767D01*
X0160020Y0182890D01*
X0159760Y0183007D01*
X0159497Y0183118D01*
X0159231Y0183222D01*
X0158963Y0183320D01*
X0158693Y0183412D01*
X0158420Y0183497D01*
X0158146Y0183575D01*
X0157870Y0183647D01*
X0157592Y0183712D01*
X0157312Y0183770D01*
X0157031Y0183821D01*
X0156750Y0183866D01*
X0156467Y0183904D01*
X0156183Y0183935D01*
X0155899Y0183959D01*
X0155614Y0183976D01*
X0155328Y0183987D01*
X0155043Y0183990D01*
X0013311Y0183990D01*
X0013026Y0183987D01*
X0012740Y0183976D01*
X0012455Y0183959D01*
X0012171Y0183935D01*
X0011887Y0183904D01*
X0011604Y0183866D01*
X0011323Y0183821D01*
X0011042Y0183770D01*
X0010762Y0183712D01*
X0010484Y0183647D01*
X0010208Y0183575D01*
X0009934Y0183497D01*
X0009661Y0183412D01*
X0009391Y0183320D01*
X0009123Y0183222D01*
X0008857Y0183118D01*
X0008594Y0183007D01*
X0008334Y0182890D01*
X0008076Y0182767D01*
X0007822Y0182637D01*
X0007571Y0182501D01*
X0007323Y0182360D01*
X0007079Y0182212D01*
X0006838Y0182059D01*
X0006602Y0181899D01*
X0006369Y0181734D01*
X0006140Y0181564D01*
X0005915Y0181388D01*
X0005695Y0181206D01*
X0005479Y0181020D01*
X0005268Y0180828D01*
X0005061Y0180631D01*
X0004859Y0180429D01*
X0004662Y0180222D01*
X0004470Y0180011D01*
X0004284Y0179795D01*
X0004102Y0179575D01*
X0003926Y0179350D01*
X0003756Y0179121D01*
X0003591Y0178888D01*
X0003431Y0178652D01*
X0003278Y0178411D01*
X0003130Y0178167D01*
X0002989Y0177919D01*
X0002853Y0177668D01*
X0002723Y0177414D01*
X0002600Y0177156D01*
X0002483Y0176896D01*
X0002372Y0176633D01*
X0002268Y0176367D01*
X0002170Y0176099D01*
X0002078Y0175829D01*
X0001993Y0175556D01*
X0001915Y0175282D01*
X0001843Y0175006D01*
X0001778Y0174728D01*
X0001720Y0174448D01*
X0001669Y0174167D01*
X0001624Y0173886D01*
X0001586Y0173603D01*
X0001555Y0173319D01*
X0001531Y0173035D01*
X0001514Y0172750D01*
X0001503Y0172464D01*
X0001500Y0172179D01*
X0001500Y0030447D01*
X0001503Y0030162D01*
X0001514Y0029876D01*
X0001531Y0029591D01*
X0001555Y0029307D01*
X0001586Y0029023D01*
X0001624Y0028740D01*
X0001669Y0028459D01*
X0001720Y0028178D01*
X0001778Y0027898D01*
X0001843Y0027620D01*
X0001915Y0027344D01*
X0001993Y0027070D01*
X0002078Y0026797D01*
X0002170Y0026527D01*
X0002268Y0026259D01*
X0002372Y0025993D01*
X0002483Y0025730D01*
X0002600Y0025470D01*
X0002723Y0025212D01*
X0002853Y0024958D01*
X0002989Y0024707D01*
X0003130Y0024459D01*
X0003278Y0024215D01*
X0003431Y0023974D01*
X0003591Y0023738D01*
X0003756Y0023505D01*
X0003926Y0023276D01*
X0004102Y0023051D01*
X0004284Y0022831D01*
X0004470Y0022615D01*
X0004662Y0022404D01*
X0004859Y0022197D01*
X0005061Y0021995D01*
X0005268Y0021798D01*
X0005479Y0021606D01*
X0005695Y0021420D01*
X0005915Y0021238D01*
X0006140Y0021062D01*
X0006369Y0020892D01*
X0006602Y0020727D01*
X0006838Y0020567D01*
X0007079Y0020414D01*
X0007323Y0020266D01*
X0007571Y0020125D01*
X0007822Y0019989D01*
X0008076Y0019859D01*
X0008334Y0019736D01*
X0008594Y0019619D01*
X0008857Y0019508D01*
X0009123Y0019404D01*
X0009391Y0019306D01*
X0009661Y0019214D01*
X0009934Y0019129D01*
X0010208Y0019051D01*
X0010484Y0018979D01*
X0010762Y0018914D01*
X0011042Y0018856D01*
X0011323Y0018805D01*
X0011604Y0018760D01*
X0011887Y0018722D01*
X0012171Y0018691D01*
X0012455Y0018667D01*
X0012740Y0018650D01*
X0013026Y0018639D01*
X0013311Y0018636D01*
X0039098Y0052100D02*
X0039100Y0052174D01*
X0039106Y0052248D01*
X0039116Y0052321D01*
X0039130Y0052394D01*
X0039147Y0052466D01*
X0039169Y0052536D01*
X0039194Y0052606D01*
X0039223Y0052674D01*
X0039256Y0052740D01*
X0039292Y0052805D01*
X0039332Y0052867D01*
X0039374Y0052928D01*
X0039420Y0052986D01*
X0039469Y0053041D01*
X0039521Y0053094D01*
X0039576Y0053144D01*
X0039633Y0053190D01*
X0039693Y0053234D01*
X0039755Y0053274D01*
X0039819Y0053311D01*
X0039885Y0053345D01*
X0039953Y0053375D01*
X0040022Y0053401D01*
X0040093Y0053424D01*
X0040164Y0053442D01*
X0040237Y0053457D01*
X0040310Y0053468D01*
X0040384Y0053475D01*
X0040458Y0053478D01*
X0040531Y0053477D01*
X0040605Y0053472D01*
X0040679Y0053463D01*
X0040752Y0053450D01*
X0040824Y0053433D01*
X0040895Y0053413D01*
X0040965Y0053388D01*
X0041033Y0053360D01*
X0041100Y0053329D01*
X0041165Y0053293D01*
X0041228Y0053255D01*
X0041289Y0053213D01*
X0041348Y0053167D01*
X0041404Y0053119D01*
X0041457Y0053068D01*
X0041507Y0053014D01*
X0041555Y0052957D01*
X0041599Y0052898D01*
X0041641Y0052836D01*
X0041679Y0052773D01*
X0041713Y0052707D01*
X0041744Y0052640D01*
X0041771Y0052571D01*
X0041794Y0052501D01*
X0041814Y0052430D01*
X0041830Y0052357D01*
X0041842Y0052284D01*
X0041850Y0052211D01*
X0041854Y0052137D01*
X0041854Y0052063D01*
X0041850Y0051989D01*
X0041842Y0051916D01*
X0041830Y0051843D01*
X0041814Y0051770D01*
X0041794Y0051699D01*
X0041771Y0051629D01*
X0041744Y0051560D01*
X0041713Y0051493D01*
X0041679Y0051427D01*
X0041641Y0051364D01*
X0041599Y0051302D01*
X0041555Y0051243D01*
X0041507Y0051186D01*
X0041457Y0051132D01*
X0041404Y0051081D01*
X0041348Y0051033D01*
X0041289Y0050987D01*
X0041228Y0050945D01*
X0041165Y0050907D01*
X0041100Y0050871D01*
X0041033Y0050840D01*
X0040965Y0050812D01*
X0040895Y0050787D01*
X0040824Y0050767D01*
X0040752Y0050750D01*
X0040679Y0050737D01*
X0040605Y0050728D01*
X0040531Y0050723D01*
X0040458Y0050722D01*
X0040384Y0050725D01*
X0040310Y0050732D01*
X0040237Y0050743D01*
X0040164Y0050758D01*
X0040093Y0050776D01*
X0040022Y0050799D01*
X0039953Y0050825D01*
X0039885Y0050855D01*
X0039819Y0050889D01*
X0039755Y0050926D01*
X0039693Y0050966D01*
X0039633Y0051010D01*
X0039576Y0051056D01*
X0039521Y0051106D01*
X0039469Y0051159D01*
X0039420Y0051214D01*
X0039374Y0051272D01*
X0039332Y0051333D01*
X0039292Y0051395D01*
X0039256Y0051460D01*
X0039223Y0051526D01*
X0039194Y0051594D01*
X0039169Y0051664D01*
X0039147Y0051734D01*
X0039130Y0051806D01*
X0039116Y0051879D01*
X0039106Y0051952D01*
X0039100Y0052026D01*
X0039098Y0052100D01*
X0039098Y0053281D02*
X0039100Y0053355D01*
X0039106Y0053429D01*
X0039116Y0053502D01*
X0039130Y0053575D01*
X0039147Y0053647D01*
X0039169Y0053717D01*
X0039194Y0053787D01*
X0039223Y0053855D01*
X0039256Y0053921D01*
X0039292Y0053986D01*
X0039332Y0054048D01*
X0039374Y0054109D01*
X0039420Y0054167D01*
X0039469Y0054222D01*
X0039521Y0054275D01*
X0039576Y0054325D01*
X0039633Y0054371D01*
X0039693Y0054415D01*
X0039755Y0054455D01*
X0039819Y0054492D01*
X0039885Y0054526D01*
X0039953Y0054556D01*
X0040022Y0054582D01*
X0040093Y0054605D01*
X0040164Y0054623D01*
X0040237Y0054638D01*
X0040310Y0054649D01*
X0040384Y0054656D01*
X0040458Y0054659D01*
X0040531Y0054658D01*
X0040605Y0054653D01*
X0040679Y0054644D01*
X0040752Y0054631D01*
X0040824Y0054614D01*
X0040895Y0054594D01*
X0040965Y0054569D01*
X0041033Y0054541D01*
X0041100Y0054510D01*
X0041165Y0054474D01*
X0041228Y0054436D01*
X0041289Y0054394D01*
X0041348Y0054348D01*
X0041404Y0054300D01*
X0041457Y0054249D01*
X0041507Y0054195D01*
X0041555Y0054138D01*
X0041599Y0054079D01*
X0041641Y0054017D01*
X0041679Y0053954D01*
X0041713Y0053888D01*
X0041744Y0053821D01*
X0041771Y0053752D01*
X0041794Y0053682D01*
X0041814Y0053611D01*
X0041830Y0053538D01*
X0041842Y0053465D01*
X0041850Y0053392D01*
X0041854Y0053318D01*
X0041854Y0053244D01*
X0041850Y0053170D01*
X0041842Y0053097D01*
X0041830Y0053024D01*
X0041814Y0052951D01*
X0041794Y0052880D01*
X0041771Y0052810D01*
X0041744Y0052741D01*
X0041713Y0052674D01*
X0041679Y0052608D01*
X0041641Y0052545D01*
X0041599Y0052483D01*
X0041555Y0052424D01*
X0041507Y0052367D01*
X0041457Y0052313D01*
X0041404Y0052262D01*
X0041348Y0052214D01*
X0041289Y0052168D01*
X0041228Y0052126D01*
X0041165Y0052088D01*
X0041100Y0052052D01*
X0041033Y0052021D01*
X0040965Y0051993D01*
X0040895Y0051968D01*
X0040824Y0051948D01*
X0040752Y0051931D01*
X0040679Y0051918D01*
X0040605Y0051909D01*
X0040531Y0051904D01*
X0040458Y0051903D01*
X0040384Y0051906D01*
X0040310Y0051913D01*
X0040237Y0051924D01*
X0040164Y0051939D01*
X0040093Y0051957D01*
X0040022Y0051980D01*
X0039953Y0052006D01*
X0039885Y0052036D01*
X0039819Y0052070D01*
X0039755Y0052107D01*
X0039693Y0052147D01*
X0039633Y0052191D01*
X0039576Y0052237D01*
X0039521Y0052287D01*
X0039469Y0052340D01*
X0039420Y0052395D01*
X0039374Y0052453D01*
X0039332Y0052514D01*
X0039292Y0052576D01*
X0039256Y0052641D01*
X0039223Y0052707D01*
X0039194Y0052775D01*
X0039169Y0052845D01*
X0039147Y0052915D01*
X0039130Y0052987D01*
X0039116Y0053060D01*
X0039106Y0053133D01*
X0039100Y0053207D01*
X0039098Y0053281D01*
X0125713Y0053281D02*
X0125715Y0053374D01*
X0125721Y0053466D01*
X0125731Y0053558D01*
X0125745Y0053649D01*
X0125762Y0053740D01*
X0125784Y0053830D01*
X0125809Y0053919D01*
X0125838Y0054007D01*
X0125871Y0054093D01*
X0125908Y0054178D01*
X0125948Y0054262D01*
X0125992Y0054343D01*
X0126039Y0054423D01*
X0126089Y0054501D01*
X0126143Y0054576D01*
X0126200Y0054649D01*
X0126260Y0054719D01*
X0126323Y0054787D01*
X0126389Y0054852D01*
X0126457Y0054914D01*
X0126528Y0054974D01*
X0126602Y0055030D01*
X0126678Y0055083D01*
X0126756Y0055132D01*
X0126836Y0055179D01*
X0126918Y0055221D01*
X0127002Y0055261D01*
X0127087Y0055296D01*
X0127174Y0055328D01*
X0127262Y0055357D01*
X0127351Y0055381D01*
X0127441Y0055402D01*
X0127532Y0055418D01*
X0127624Y0055431D01*
X0127716Y0055440D01*
X0127809Y0055445D01*
X0127901Y0055446D01*
X0127994Y0055443D01*
X0128086Y0055436D01*
X0128178Y0055425D01*
X0128269Y0055410D01*
X0128360Y0055392D01*
X0128450Y0055369D01*
X0128538Y0055343D01*
X0128626Y0055313D01*
X0128712Y0055279D01*
X0128796Y0055242D01*
X0128879Y0055200D01*
X0128960Y0055156D01*
X0129040Y0055108D01*
X0129117Y0055057D01*
X0129191Y0055002D01*
X0129264Y0054944D01*
X0129334Y0054884D01*
X0129401Y0054820D01*
X0129465Y0054754D01*
X0129527Y0054684D01*
X0129585Y0054613D01*
X0129640Y0054539D01*
X0129692Y0054462D01*
X0129741Y0054383D01*
X0129787Y0054303D01*
X0129829Y0054220D01*
X0129867Y0054136D01*
X0129902Y0054050D01*
X0129933Y0053963D01*
X0129960Y0053875D01*
X0129983Y0053785D01*
X0130003Y0053695D01*
X0130019Y0053604D01*
X0130031Y0053512D01*
X0130039Y0053420D01*
X0130043Y0053327D01*
X0130043Y0053235D01*
X0130039Y0053142D01*
X0130031Y0053050D01*
X0130019Y0052958D01*
X0130003Y0052867D01*
X0129983Y0052777D01*
X0129960Y0052687D01*
X0129933Y0052599D01*
X0129902Y0052512D01*
X0129867Y0052426D01*
X0129829Y0052342D01*
X0129787Y0052259D01*
X0129741Y0052179D01*
X0129692Y0052100D01*
X0129640Y0052023D01*
X0129585Y0051949D01*
X0129527Y0051878D01*
X0129465Y0051808D01*
X0129401Y0051742D01*
X0129334Y0051678D01*
X0129264Y0051618D01*
X0129191Y0051560D01*
X0129117Y0051505D01*
X0129040Y0051454D01*
X0128961Y0051406D01*
X0128879Y0051362D01*
X0128796Y0051320D01*
X0128712Y0051283D01*
X0128626Y0051249D01*
X0128538Y0051219D01*
X0128450Y0051193D01*
X0128360Y0051170D01*
X0128269Y0051152D01*
X0128178Y0051137D01*
X0128086Y0051126D01*
X0127994Y0051119D01*
X0127901Y0051116D01*
X0127809Y0051117D01*
X0127716Y0051122D01*
X0127624Y0051131D01*
X0127532Y0051144D01*
X0127441Y0051160D01*
X0127351Y0051181D01*
X0127262Y0051205D01*
X0127174Y0051234D01*
X0127087Y0051266D01*
X0127002Y0051301D01*
X0126918Y0051341D01*
X0126836Y0051383D01*
X0126756Y0051430D01*
X0126678Y0051479D01*
X0126602Y0051532D01*
X0126528Y0051588D01*
X0126457Y0051648D01*
X0126389Y0051710D01*
X0126323Y0051775D01*
X0126260Y0051843D01*
X0126200Y0051913D01*
X0126143Y0051986D01*
X0126089Y0052061D01*
X0126039Y0052139D01*
X0125992Y0052219D01*
X0125948Y0052300D01*
X0125908Y0052384D01*
X0125871Y0052469D01*
X0125838Y0052555D01*
X0125809Y0052643D01*
X0125784Y0052732D01*
X0125762Y0052822D01*
X0125745Y0052913D01*
X0125731Y0053004D01*
X0125721Y0053096D01*
X0125715Y0053188D01*
X0125713Y0053281D01*
X0125713Y0052100D02*
X0125715Y0052193D01*
X0125721Y0052285D01*
X0125731Y0052377D01*
X0125745Y0052468D01*
X0125762Y0052559D01*
X0125784Y0052649D01*
X0125809Y0052738D01*
X0125838Y0052826D01*
X0125871Y0052912D01*
X0125908Y0052997D01*
X0125948Y0053081D01*
X0125992Y0053162D01*
X0126039Y0053242D01*
X0126089Y0053320D01*
X0126143Y0053395D01*
X0126200Y0053468D01*
X0126260Y0053538D01*
X0126323Y0053606D01*
X0126389Y0053671D01*
X0126457Y0053733D01*
X0126528Y0053793D01*
X0126602Y0053849D01*
X0126678Y0053902D01*
X0126756Y0053951D01*
X0126836Y0053998D01*
X0126918Y0054040D01*
X0127002Y0054080D01*
X0127087Y0054115D01*
X0127174Y0054147D01*
X0127262Y0054176D01*
X0127351Y0054200D01*
X0127441Y0054221D01*
X0127532Y0054237D01*
X0127624Y0054250D01*
X0127716Y0054259D01*
X0127809Y0054264D01*
X0127901Y0054265D01*
X0127994Y0054262D01*
X0128086Y0054255D01*
X0128178Y0054244D01*
X0128269Y0054229D01*
X0128360Y0054211D01*
X0128450Y0054188D01*
X0128538Y0054162D01*
X0128626Y0054132D01*
X0128712Y0054098D01*
X0128796Y0054061D01*
X0128879Y0054019D01*
X0128960Y0053975D01*
X0129040Y0053927D01*
X0129117Y0053876D01*
X0129191Y0053821D01*
X0129264Y0053763D01*
X0129334Y0053703D01*
X0129401Y0053639D01*
X0129465Y0053573D01*
X0129527Y0053503D01*
X0129585Y0053432D01*
X0129640Y0053358D01*
X0129692Y0053281D01*
X0129741Y0053202D01*
X0129787Y0053122D01*
X0129829Y0053039D01*
X0129867Y0052955D01*
X0129902Y0052869D01*
X0129933Y0052782D01*
X0129960Y0052694D01*
X0129983Y0052604D01*
X0130003Y0052514D01*
X0130019Y0052423D01*
X0130031Y0052331D01*
X0130039Y0052239D01*
X0130043Y0052146D01*
X0130043Y0052054D01*
X0130039Y0051961D01*
X0130031Y0051869D01*
X0130019Y0051777D01*
X0130003Y0051686D01*
X0129983Y0051596D01*
X0129960Y0051506D01*
X0129933Y0051418D01*
X0129902Y0051331D01*
X0129867Y0051245D01*
X0129829Y0051161D01*
X0129787Y0051078D01*
X0129741Y0050998D01*
X0129692Y0050919D01*
X0129640Y0050842D01*
X0129585Y0050768D01*
X0129527Y0050697D01*
X0129465Y0050627D01*
X0129401Y0050561D01*
X0129334Y0050497D01*
X0129264Y0050437D01*
X0129191Y0050379D01*
X0129117Y0050324D01*
X0129040Y0050273D01*
X0128961Y0050225D01*
X0128879Y0050181D01*
X0128796Y0050139D01*
X0128712Y0050102D01*
X0128626Y0050068D01*
X0128538Y0050038D01*
X0128450Y0050012D01*
X0128360Y0049989D01*
X0128269Y0049971D01*
X0128178Y0049956D01*
X0128086Y0049945D01*
X0127994Y0049938D01*
X0127901Y0049935D01*
X0127809Y0049936D01*
X0127716Y0049941D01*
X0127624Y0049950D01*
X0127532Y0049963D01*
X0127441Y0049979D01*
X0127351Y0050000D01*
X0127262Y0050024D01*
X0127174Y0050053D01*
X0127087Y0050085D01*
X0127002Y0050120D01*
X0126918Y0050160D01*
X0126836Y0050202D01*
X0126756Y0050249D01*
X0126678Y0050298D01*
X0126602Y0050351D01*
X0126528Y0050407D01*
X0126457Y0050467D01*
X0126389Y0050529D01*
X0126323Y0050594D01*
X0126260Y0050662D01*
X0126200Y0050732D01*
X0126143Y0050805D01*
X0126089Y0050880D01*
X0126039Y0050958D01*
X0125992Y0051038D01*
X0125948Y0051119D01*
X0125908Y0051203D01*
X0125871Y0051288D01*
X0125838Y0051374D01*
X0125809Y0051462D01*
X0125784Y0051551D01*
X0125762Y0051641D01*
X0125745Y0051732D01*
X0125731Y0051823D01*
X0125721Y0051915D01*
X0125715Y0052007D01*
X0125713Y0052100D01*
D11*
X0133980Y0087829D03*
X0133980Y0094522D03*
X0142150Y0094620D03*
X0142150Y0087927D03*
X0138508Y0110959D03*
X0138508Y0117652D03*
X0135358Y0127297D03*
X0135358Y0133990D03*
X0111736Y0146195D03*
X0111736Y0152888D03*
X0100713Y0152888D03*
X0100713Y0146195D03*
X0100713Y0133990D03*
X0100713Y0127297D03*
X0089295Y0127297D03*
X0089295Y0133990D03*
X0065673Y0146195D03*
X0065673Y0152888D03*
X0054650Y0152888D03*
X0054650Y0146195D03*
X0054846Y0133990D03*
X0054846Y0127297D03*
X0044310Y0117061D03*
X0044310Y0110368D03*
X0043035Y0127297D03*
X0043035Y0133990D03*
X0019413Y0146195D03*
X0019413Y0152888D03*
X0008390Y0152888D03*
X0008390Y0146195D03*
X0008390Y0133990D03*
X0008390Y0127297D03*
X0008291Y0114600D03*
X0008291Y0107907D03*
D12*
X0008193Y0092652D03*
X0008193Y0084778D03*
X0019217Y0084778D03*
X0019217Y0092652D03*
X0031028Y0092652D03*
X0031028Y0084778D03*
X0042839Y0084778D03*
X0042839Y0092652D03*
X0031224Y0126707D03*
X0031224Y0134581D03*
X0019413Y0134581D03*
X0019413Y0126707D03*
X0043035Y0145604D03*
X0043035Y0153478D03*
X0065673Y0134581D03*
X0065673Y0126707D03*
X0077484Y0126707D03*
X0077484Y0134581D03*
X0089295Y0145604D03*
X0089295Y0153478D03*
X0111736Y0134581D03*
X0111736Y0126707D03*
X0123547Y0126707D03*
X0123547Y0134581D03*
X0135358Y0145604D03*
X0135358Y0153478D03*
D13*
X0064404Y0078515D03*
X0064404Y0071115D03*
X0056204Y0074815D03*
D14*
X0057012Y0054955D03*
X0054650Y0054955D03*
X0052287Y0054955D03*
X0049925Y0054955D03*
X0059374Y0054955D03*
X0061736Y0054955D03*
X0064098Y0054955D03*
X0066461Y0054955D03*
X0068823Y0054955D03*
X0071185Y0054955D03*
X0073547Y0054955D03*
X0075909Y0054955D03*
X0078272Y0054955D03*
X0080634Y0054955D03*
X0082996Y0054955D03*
X0085358Y0054955D03*
X0087720Y0054955D03*
X0090083Y0054955D03*
X0092445Y0054955D03*
X0094807Y0054955D03*
X0097169Y0054955D03*
X0099531Y0054955D03*
X0101894Y0054955D03*
X0104256Y0054955D03*
X0106618Y0054955D03*
X0108980Y0054955D03*
X0111343Y0054955D03*
X0113705Y0054955D03*
X0116067Y0054955D03*
X0118429Y0054955D03*
X0118429Y0037435D03*
X0116067Y0037435D03*
X0113705Y0037435D03*
X0111343Y0037435D03*
X0108980Y0037435D03*
X0106618Y0037435D03*
X0104256Y0037435D03*
X0101894Y0037435D03*
X0099531Y0037435D03*
X0097169Y0037435D03*
X0094807Y0037435D03*
X0092445Y0037435D03*
X0090083Y0037435D03*
X0087720Y0037435D03*
X0085358Y0037435D03*
X0082996Y0037435D03*
X0080634Y0037435D03*
X0078272Y0037435D03*
X0075909Y0037435D03*
X0073547Y0037435D03*
X0071185Y0037435D03*
X0068823Y0037435D03*
X0066461Y0037435D03*
X0064098Y0037435D03*
X0061736Y0037435D03*
X0059374Y0037435D03*
X0057012Y0037435D03*
X0054650Y0037435D03*
X0052287Y0037435D03*
X0049925Y0037435D03*
D15*
X0037290Y0105652D03*
X0035390Y0105652D03*
X0033390Y0105652D03*
X0031390Y0105652D03*
X0029490Y0105652D03*
X0023904Y0105652D03*
X0022004Y0105652D03*
X0020004Y0105652D03*
X0018004Y0105652D03*
X0016104Y0105652D03*
X0016104Y0117052D03*
X0018004Y0117052D03*
X0020004Y0117052D03*
X0022004Y0117052D03*
X0023904Y0117052D03*
X0029490Y0117052D03*
X0031390Y0117052D03*
X0033390Y0117052D03*
X0035390Y0117052D03*
X0037290Y0117052D03*
X0035124Y0144235D03*
X0033224Y0144235D03*
X0031224Y0144235D03*
X0029224Y0144235D03*
X0027324Y0144235D03*
X0027324Y0155635D03*
X0029224Y0155635D03*
X0031224Y0155635D03*
X0033224Y0155635D03*
X0035124Y0155635D03*
X0073584Y0155635D03*
X0075484Y0155635D03*
X0077484Y0155635D03*
X0079484Y0155635D03*
X0081384Y0155635D03*
X0081384Y0144235D03*
X0079484Y0144235D03*
X0077484Y0144235D03*
X0075484Y0144235D03*
X0073584Y0144235D03*
X0119647Y0144235D03*
X0121547Y0144235D03*
X0123547Y0144235D03*
X0125547Y0144235D03*
X0127447Y0144235D03*
X0127447Y0155635D03*
X0125547Y0155635D03*
X0123547Y0155635D03*
X0121547Y0155635D03*
X0119647Y0155635D03*
D16*
X0123547Y0149935D03*
X0077484Y0149935D03*
X0033390Y0111352D03*
X0020004Y0111352D03*
X0031224Y0149935D03*
D17*
X0117550Y0118402D03*
X0117550Y0116502D03*
X0117550Y0114502D03*
X0117550Y0112502D03*
X0117550Y0110602D03*
X0129150Y0110602D03*
X0129150Y0112502D03*
X0129150Y0114502D03*
X0129150Y0116502D03*
X0129150Y0118402D03*
D18*
X0123350Y0114502D03*
D19*
X0145102Y0117159D03*
X0147661Y0117159D03*
X0150220Y0117159D03*
X0150220Y0110270D03*
X0147661Y0110270D03*
X0145102Y0110270D03*
X0123646Y0069817D03*
X0121087Y0069817D03*
X0118528Y0069817D03*
X0118528Y0062927D03*
X0121087Y0062927D03*
X0123646Y0062927D03*
X0135752Y0051904D03*
X0138311Y0051904D03*
X0140870Y0051904D03*
X0140870Y0045014D03*
X0138311Y0045014D03*
X0135752Y0045014D03*
D20*
X0138311Y0048459D03*
X0121087Y0066372D03*
X0147661Y0113715D03*
D21*
X0147661Y0117947D03*
X0145102Y0117947D03*
X0150220Y0117947D03*
X0150220Y0109482D03*
X0147661Y0109482D03*
X0145102Y0109482D03*
X0123646Y0070604D03*
X0121087Y0070604D03*
X0118528Y0070604D03*
X0118528Y0062140D03*
X0121087Y0062140D03*
X0123646Y0062140D03*
X0135752Y0052691D03*
X0138311Y0052691D03*
X0140870Y0052691D03*
X0140870Y0044226D03*
X0138311Y0044226D03*
X0135752Y0044226D03*
D22*
X0061406Y0111586D03*
X0061406Y0113486D03*
X0061406Y0115486D03*
X0061406Y0117486D03*
X0061406Y0119386D03*
X0053406Y0119386D03*
X0053406Y0117486D03*
X0053406Y0115486D03*
X0053406Y0113486D03*
X0053406Y0111586D03*
D23*
X0057406Y0115486D03*
D24*
X0060555Y0178872D03*
X0066854Y0178872D03*
X0081028Y0178872D03*
X0087327Y0178872D03*
X0101500Y0178872D03*
X0107799Y0178872D03*
X0121972Y0178872D03*
X0128272Y0178872D03*
X0142445Y0178872D03*
X0046382Y0178872D03*
X0040083Y0178872D03*
X0025909Y0178872D03*
D25*
X0031028Y0163715D03*
X0034965Y0163715D03*
X0051500Y0163715D03*
X0055437Y0163715D03*
X0071972Y0163715D03*
X0075909Y0163715D03*
X0092445Y0163715D03*
X0096382Y0163715D03*
X0112917Y0163715D03*
X0116854Y0163715D03*
X0133390Y0163715D03*
X0137327Y0163715D03*
D26*
X0161736Y0159384D03*
X0161736Y0145211D03*
X0007012Y0076707D03*
X0007012Y0058596D03*
D27*
X0022169Y0063715D03*
X0022169Y0067652D03*
X0022169Y0071589D03*
X0146579Y0150329D03*
X0146579Y0154266D03*
D28*
X0147858Y0132317D03*
X0154551Y0132317D03*
X0154551Y0124344D03*
X0147858Y0124344D03*
X0123252Y0095506D03*
X0116559Y0095506D03*
X0116559Y0087238D03*
X0123252Y0087238D03*
X0131520Y0074148D03*
X0138213Y0074148D03*
X0138213Y0065978D03*
X0131520Y0065978D03*
X0148350Y0062140D03*
X0155043Y0062140D03*
X0155043Y0053970D03*
X0148350Y0053970D03*
X0106815Y0087238D03*
X0100122Y0087238D03*
X0100122Y0095506D03*
X0106815Y0095506D03*
X0090280Y0095506D03*
X0083587Y0095506D03*
X0083587Y0087238D03*
X0090280Y0087238D03*
X0073843Y0087238D03*
X0067150Y0087238D03*
X0067150Y0095506D03*
X0073843Y0095506D03*
D29*
X0075713Y0073656D03*
X0075713Y0071096D03*
X0075713Y0068537D03*
X0081028Y0068537D03*
X0081028Y0071096D03*
X0081028Y0073656D03*
X0087917Y0073656D03*
X0087917Y0071096D03*
X0087917Y0068537D03*
X0093232Y0068537D03*
X0093232Y0071096D03*
X0093232Y0073656D03*
X0100122Y0073656D03*
X0100122Y0071096D03*
X0100122Y0068537D03*
X0105634Y0068833D03*
X0105634Y0071392D03*
X0105634Y0073951D03*
X0112524Y0073951D03*
X0112524Y0071392D03*
X0112524Y0068833D03*
X0148646Y0070998D03*
X0148646Y0073557D03*
X0148646Y0076116D03*
X0155535Y0076116D03*
X0155535Y0073557D03*
X0155535Y0070998D03*
X0068823Y0071096D03*
X0068823Y0073656D03*
X0068823Y0068537D03*
D30*
X0072268Y0071096D03*
X0084472Y0071096D03*
X0096677Y0071096D03*
X0109079Y0071392D03*
X0152091Y0073557D03*
D31*
X0156323Y0073557D03*
X0156323Y0070998D03*
X0156323Y0076116D03*
X0147858Y0076116D03*
X0147858Y0073557D03*
X0147858Y0070998D03*
X0113311Y0071392D03*
X0113311Y0073951D03*
X0113311Y0068833D03*
X0104846Y0068833D03*
X0104846Y0071392D03*
X0104846Y0073951D03*
X0100909Y0073656D03*
X0100909Y0071096D03*
X0100909Y0068537D03*
X0092445Y0068537D03*
X0092445Y0071096D03*
X0092445Y0073656D03*
X0088705Y0073656D03*
X0088705Y0071096D03*
X0088705Y0068537D03*
X0080240Y0068537D03*
X0080240Y0071096D03*
X0080240Y0073656D03*
X0076500Y0073656D03*
X0076500Y0071096D03*
X0076500Y0068537D03*
X0068035Y0068537D03*
X0068035Y0071096D03*
X0068035Y0073656D03*
D32*
X0064492Y0071195D03*
X0061736Y0065978D03*
X0059374Y0063124D03*
X0057012Y0066274D03*
X0054650Y0063124D03*
X0052287Y0066274D03*
X0054650Y0069423D03*
X0056224Y0074935D03*
X0059965Y0080053D03*
X0064492Y0082219D03*
X0062327Y0087533D03*
X0057012Y0093439D03*
X0054896Y0096982D03*
X0054896Y0100329D03*
X0057012Y0106234D03*
X0057406Y0115486D03*
X0053370Y0125526D03*
X0048843Y0123951D03*
X0044315Y0116864D03*
X0040083Y0121293D03*
X0037130Y0127100D03*
X0026697Y0120703D03*
X0026697Y0117258D03*
X0035949Y0110762D03*
X0044413Y0110368D03*
X0034177Y0100329D03*
X0025122Y0091864D03*
X0019217Y0084778D03*
X0027484Y0075722D03*
X0023941Y0067652D03*
X0023941Y0063715D03*
X0011146Y0050427D03*
X0023547Y0046392D03*
X0029059Y0046392D03*
X0047169Y0066274D03*
X0049925Y0063124D03*
X0044413Y0069423D03*
X0047169Y0072573D03*
X0042839Y0084778D03*
X0068823Y0065781D03*
X0071185Y0062927D03*
X0078272Y0063124D03*
X0081028Y0065781D03*
X0084571Y0071195D03*
X0090476Y0078577D03*
X0095496Y0080644D03*
X0099827Y0087533D03*
X0102878Y0078577D03*
X0096972Y0071392D03*
X0093232Y0065781D03*
X0090083Y0062927D03*
X0099531Y0063124D03*
X0103469Y0066077D03*
X0109177Y0071195D03*
X0115280Y0078577D03*
X0118626Y0075230D03*
X0120988Y0066274D03*
X0130831Y0066077D03*
X0133587Y0058596D03*
X0140280Y0048951D03*
X0147760Y0054069D03*
X0148350Y0047179D03*
X0161539Y0049935D03*
X0161638Y0072671D03*
X0153665Y0081923D03*
X0151992Y0073557D03*
X0144020Y0080644D03*
X0142051Y0087533D03*
X0133980Y0087337D03*
X0129453Y0081825D03*
X0138902Y0074148D03*
X0121972Y0054856D03*
X0123941Y0046392D03*
X0110752Y0062927D03*
X0116461Y0087337D03*
X0107799Y0095506D03*
X0111343Y0104266D03*
X0117740Y0101904D03*
X0123350Y0101904D03*
X0130831Y0105841D03*
X0133390Y0110959D03*
X0133193Y0115683D03*
X0138508Y0110762D03*
X0137228Y0102396D03*
X0147661Y0107022D03*
X0147366Y0124344D03*
X0147465Y0132317D03*
X0140476Y0140093D03*
X0155043Y0124344D03*
X0125614Y0159089D03*
X0121776Y0163124D03*
X0112917Y0165486D03*
X0110161Y0158990D03*
X0106224Y0152888D03*
X0100713Y0146392D03*
X0095004Y0146293D03*
X0099531Y0161451D03*
X0092445Y0162140D03*
X0083587Y0164108D03*
X0079453Y0159187D03*
X0071972Y0165388D03*
X0064787Y0163026D03*
X0060161Y0152888D03*
X0051500Y0162041D03*
X0048646Y0157907D03*
X0042346Y0163813D03*
X0037130Y0158793D03*
X0031028Y0165388D03*
X0025909Y0162533D03*
X0018429Y0160762D03*
X0013902Y0152888D03*
X0032898Y0176411D03*
X0053862Y0175526D03*
X0073350Y0176411D03*
X0094807Y0175526D03*
X0117543Y0179069D03*
X0133390Y0161943D03*
X0137327Y0163124D03*
X0136244Y0175427D03*
X0117543Y0126707D03*
X0106224Y0126707D03*
X0089394Y0127297D03*
X0076894Y0117750D03*
X0060161Y0126707D03*
X0053075Y0140191D03*
X0048843Y0146392D03*
X0016067Y0121392D03*
X0013902Y0126707D03*
X0008291Y0107907D03*
X0013803Y0099344D03*
X0072366Y0071195D03*
X0072858Y0078577D03*
X0077780Y0081530D03*
X0083094Y0087829D03*
X0123350Y0115289D03*
X0118429Y0028872D03*
X0126205Y0021687D03*
X0102484Y0020998D03*
X0099531Y0025722D03*
X0082996Y0029266D03*
X0080634Y0026116D03*
X0078272Y0029266D03*
X0075909Y0026116D03*
X0073547Y0029266D03*
X0071185Y0026116D03*
X0068823Y0029266D03*
X0066461Y0026116D03*
X0064098Y0029266D03*
X0061736Y0026116D03*
X0059374Y0029266D03*
X0057012Y0026116D03*
X0054650Y0029266D03*
X0052287Y0026116D03*
X0049916Y0029266D03*
D33*
X0049916Y0037435D01*
X0049925Y0037435D01*
X0047929Y0037608D02*
X0028201Y0037608D01*
X0028201Y0038606D02*
X0047929Y0038606D01*
X0047929Y0039605D02*
X0028201Y0039605D01*
X0028201Y0040603D02*
X0047929Y0040603D01*
X0047929Y0041602D02*
X0028201Y0041602D01*
X0028201Y0042600D02*
X0047929Y0042600D01*
X0047929Y0042799D02*
X0047929Y0032071D01*
X0048109Y0031891D01*
X0048109Y0030991D01*
X0047799Y0030681D01*
X0047419Y0029763D01*
X0047419Y0028769D01*
X0047799Y0027851D01*
X0048501Y0027148D01*
X0049419Y0026768D01*
X0049854Y0026768D01*
X0049790Y0026613D01*
X0049790Y0025619D01*
X0050170Y0024701D01*
X0050873Y0023999D01*
X0051791Y0023619D01*
X0052784Y0023619D01*
X0053702Y0023999D01*
X0054405Y0024701D01*
X0054650Y0025292D01*
X0054894Y0024701D01*
X0055597Y0023999D01*
X0056515Y0023619D01*
X0057509Y0023619D01*
X0058427Y0023999D01*
X0059129Y0024701D01*
X0059374Y0025292D01*
X0059619Y0024701D01*
X0060321Y0023999D01*
X0061239Y0023619D01*
X0062233Y0023619D01*
X0063151Y0023999D01*
X0063854Y0024701D01*
X0064098Y0025292D01*
X0064343Y0024701D01*
X0065046Y0023999D01*
X0065964Y0023619D01*
X0066957Y0023619D01*
X0067875Y0023999D01*
X0068578Y0024701D01*
X0068823Y0025292D01*
X0069068Y0024701D01*
X0069770Y0023999D01*
X0070688Y0023619D01*
X0071682Y0023619D01*
X0072600Y0023999D01*
X0073302Y0024701D01*
X0073547Y0025292D01*
X0073792Y0024701D01*
X0074495Y0023999D01*
X0075413Y0023619D01*
X0076406Y0023619D01*
X0077324Y0023999D01*
X0078027Y0024701D01*
X0078272Y0025292D01*
X0078516Y0024701D01*
X0079219Y0023999D01*
X0080137Y0023619D01*
X0081131Y0023619D01*
X0082049Y0023999D01*
X0082751Y0024701D01*
X0083131Y0025619D01*
X0083131Y0026613D01*
X0082751Y0027531D01*
X0082441Y0027841D01*
X0082441Y0031112D01*
X0082996Y0031112D01*
X0082996Y0037435D01*
X0082996Y0037435D01*
X0082996Y0031112D01*
X0083883Y0031112D01*
X0084177Y0031191D01*
X0084472Y0031112D01*
X0085358Y0031112D01*
X0085358Y0037435D01*
X0085185Y0037435D01*
X0082996Y0037435D01*
X0082996Y0043758D01*
X0082110Y0043758D01*
X0081728Y0043656D01*
X0081571Y0043565D01*
X0048695Y0043565D01*
X0047929Y0042799D01*
X0048695Y0048825D02*
X0053225Y0048825D01*
X0053382Y0048734D01*
X0053763Y0048632D01*
X0054650Y0048632D01*
X0055536Y0048632D01*
X0055918Y0048734D01*
X0056075Y0048825D01*
X0062673Y0048825D01*
X0062830Y0048734D01*
X0063212Y0048632D01*
X0064098Y0048632D01*
X0064098Y0054955D01*
X0064098Y0061278D01*
X0063543Y0061278D01*
X0063543Y0064253D01*
X0063854Y0064564D01*
X0064197Y0065392D01*
X0064555Y0065033D01*
X0065614Y0063974D01*
X0067098Y0063974D01*
X0067408Y0063664D01*
X0068326Y0063284D01*
X0068687Y0063284D01*
X0068687Y0062430D01*
X0069068Y0061512D01*
X0069378Y0061202D01*
X0069378Y0061085D01*
X0067886Y0061085D01*
X0067729Y0061175D01*
X0067347Y0061278D01*
X0066461Y0061278D01*
X0066461Y0054955D01*
X0066461Y0054955D01*
X0066461Y0061278D01*
X0065574Y0061278D01*
X0065280Y0061199D01*
X0064985Y0061278D01*
X0064098Y0061278D01*
X0064098Y0054955D01*
X0064098Y0054955D01*
X0066461Y0054955D01*
X0066461Y0048632D01*
X0067347Y0048632D01*
X0067729Y0048734D01*
X0067886Y0048825D01*
X0072122Y0048825D01*
X0072279Y0048734D01*
X0072661Y0048632D01*
X0073547Y0048632D01*
X0073547Y0054955D01*
X0075909Y0054955D01*
X0075909Y0054955D01*
X0075736Y0054955D01*
X0073547Y0054955D01*
X0073547Y0054955D01*
X0073547Y0054955D01*
X0073547Y0048632D01*
X0074434Y0048632D01*
X0074728Y0048711D01*
X0075023Y0048632D01*
X0075909Y0048632D01*
X0075909Y0054955D01*
X0075909Y0061278D01*
X0075023Y0061278D01*
X0074782Y0061213D01*
X0075898Y0062328D01*
X0076154Y0061709D01*
X0076465Y0061399D01*
X0076465Y0061278D01*
X0075909Y0061278D01*
X0075909Y0054955D01*
X0075909Y0054955D01*
X0073547Y0054955D01*
X0073547Y0054582D02*
X0073547Y0054582D01*
X0073547Y0053584D02*
X0073547Y0053584D01*
X0073547Y0052585D02*
X0073547Y0052585D01*
X0073547Y0051587D02*
X0073547Y0051587D01*
X0073547Y0050588D02*
X0073547Y0050588D01*
X0073547Y0049590D02*
X0073547Y0049590D01*
X0075909Y0049590D02*
X0075909Y0049590D01*
X0075909Y0048632D02*
X0076796Y0048632D01*
X0077177Y0048734D01*
X0077334Y0048825D01*
X0081571Y0048825D01*
X0081728Y0048734D01*
X0082110Y0048632D01*
X0082996Y0048632D01*
X0082996Y0054955D01*
X0085358Y0054955D01*
X0085358Y0054955D01*
X0085185Y0054955D01*
X0082996Y0054955D01*
X0082996Y0054955D01*
X0085358Y0054955D01*
X0085358Y0054955D01*
X0085358Y0048632D01*
X0084472Y0048632D01*
X0084177Y0048711D01*
X0083883Y0048632D01*
X0082996Y0048632D01*
X0082996Y0054955D01*
X0082996Y0054955D01*
X0082996Y0054582D02*
X0082996Y0054582D01*
X0082996Y0053584D02*
X0082996Y0053584D01*
X0082996Y0052585D02*
X0082996Y0052585D01*
X0082996Y0051587D02*
X0082996Y0051587D01*
X0082996Y0050588D02*
X0082996Y0050588D01*
X0082996Y0049590D02*
X0082996Y0049590D01*
X0085358Y0049590D02*
X0085358Y0049590D01*
X0085358Y0048632D02*
X0086245Y0048632D01*
X0086626Y0048734D01*
X0086783Y0048825D01*
X0091020Y0048825D01*
X0091177Y0048734D01*
X0091558Y0048632D01*
X0092445Y0048632D01*
X0093331Y0048632D01*
X0093626Y0048711D01*
X0093921Y0048632D01*
X0094807Y0048632D01*
X0094807Y0054955D01*
X0094807Y0054955D01*
X0092618Y0054955D01*
X0092445Y0054955D01*
X0092445Y0054955D01*
X0094807Y0054955D01*
X0092445Y0054955D01*
X0092445Y0048632D01*
X0092445Y0054955D01*
X0092445Y0054955D01*
X0092445Y0054582D02*
X0092445Y0054582D01*
X0092445Y0053584D02*
X0092445Y0053584D01*
X0092445Y0052585D02*
X0092445Y0052585D01*
X0092445Y0051587D02*
X0092445Y0051587D01*
X0092445Y0050588D02*
X0092445Y0050588D01*
X0092445Y0049590D02*
X0092445Y0049590D01*
X0094807Y0049590D02*
X0094807Y0049590D01*
X0094807Y0048632D02*
X0095694Y0048632D01*
X0096075Y0048734D01*
X0096232Y0048825D01*
X0100469Y0048825D01*
X0100626Y0048734D01*
X0101007Y0048632D01*
X0101894Y0048632D01*
X0102780Y0048632D01*
X0103075Y0048711D01*
X0103369Y0048632D01*
X0104256Y0048632D01*
X0105142Y0048632D01*
X0105524Y0048734D01*
X0105681Y0048825D01*
X0109917Y0048825D01*
X0110075Y0048734D01*
X0110456Y0048632D01*
X0111342Y0048632D01*
X0111342Y0054955D01*
X0111343Y0054955D02*
X0113705Y0054955D01*
X0113705Y0054955D01*
X0113531Y0054955D01*
X0111343Y0054955D01*
X0111343Y0054955D01*
X0113705Y0054955D01*
X0113705Y0048632D01*
X0114591Y0048632D01*
X0114973Y0048734D01*
X0115130Y0048825D01*
X0119660Y0048825D01*
X0120425Y0049590D01*
X0120425Y0051555D01*
X0121383Y0050596D01*
X0123194Y0048786D01*
X0122526Y0048509D01*
X0122306Y0048289D01*
X0045126Y0048289D01*
X0046220Y0049383D01*
X0046220Y0063963D01*
X0046672Y0063776D01*
X0047492Y0063776D01*
X0047428Y0063621D01*
X0047428Y0062627D01*
X0047808Y0061709D01*
X0048118Y0061399D01*
X0048118Y0060508D01*
X0047929Y0060319D01*
X0047929Y0049590D01*
X0048695Y0048825D01*
X0047930Y0049590D02*
X0046220Y0049590D01*
X0046220Y0050588D02*
X0047929Y0050588D01*
X0047929Y0051587D02*
X0046220Y0051587D01*
X0046220Y0052585D02*
X0047929Y0052585D01*
X0047929Y0053584D02*
X0046220Y0053584D01*
X0046220Y0054582D02*
X0047929Y0054582D01*
X0047929Y0055581D02*
X0046220Y0055581D01*
X0046220Y0056579D02*
X0047929Y0056579D01*
X0047929Y0057578D02*
X0046220Y0057578D01*
X0046220Y0058576D02*
X0047929Y0058576D01*
X0047929Y0059575D02*
X0046220Y0059575D01*
X0046220Y0060573D02*
X0048118Y0060573D01*
X0047945Y0061572D02*
X0046220Y0061572D01*
X0046220Y0062570D02*
X0047451Y0062570D01*
X0047428Y0063569D02*
X0046220Y0063569D01*
X0042606Y0063569D02*
X0026439Y0063569D01*
X0026439Y0063218D02*
X0026439Y0064211D01*
X0026429Y0064234D01*
X0026429Y0065437D01*
X0026183Y0065683D01*
X0026429Y0065929D01*
X0026429Y0067132D01*
X0026439Y0067155D01*
X0026439Y0068148D01*
X0026429Y0068171D01*
X0026429Y0069374D01*
X0026320Y0069484D01*
X0026322Y0069486D01*
X0026520Y0069828D01*
X0026622Y0070210D01*
X0026622Y0071498D01*
X0022260Y0071498D01*
X0022260Y0071679D01*
X0026622Y0071679D01*
X0026622Y0072967D01*
X0026520Y0073349D01*
X0026322Y0073691D01*
X0026043Y0073970D01*
X0025701Y0074167D01*
X0025320Y0074270D01*
X0022260Y0074270D01*
X0022260Y0071679D01*
X0022079Y0071679D01*
X0022079Y0074270D01*
X0019019Y0074270D01*
X0018638Y0074167D01*
X0018296Y0073970D01*
X0018016Y0073691D01*
X0017819Y0073349D01*
X0017717Y0072967D01*
X0017717Y0071679D01*
X0022079Y0071679D01*
X0022079Y0071498D01*
X0017717Y0071498D01*
X0017717Y0070210D01*
X0017819Y0069828D01*
X0018016Y0069486D01*
X0018019Y0069484D01*
X0017909Y0069374D01*
X0017909Y0065929D01*
X0018155Y0065683D01*
X0017960Y0065488D01*
X0017627Y0065820D01*
X0017627Y0074404D01*
X0020535Y0077312D01*
X0047110Y0077312D01*
X0048139Y0078341D01*
X0048318Y0078520D01*
X0048318Y0074800D01*
X0047666Y0075070D01*
X0046672Y0075070D01*
X0045754Y0074690D01*
X0045052Y0073988D01*
X0044672Y0073070D01*
X0044672Y0072076D01*
X0044736Y0071921D01*
X0043917Y0071921D01*
X0042999Y0071541D01*
X0042296Y0070838D01*
X0041916Y0069920D01*
X0041916Y0068926D01*
X0042296Y0068008D01*
X0042606Y0067698D01*
X0042606Y0055222D01*
X0042107Y0055721D01*
X0041049Y0056159D01*
X0039904Y0056159D01*
X0038846Y0055721D01*
X0038037Y0054912D01*
X0037598Y0053854D01*
X0037598Y0052709D01*
X0037606Y0052691D01*
X0037598Y0052673D01*
X0037598Y0051528D01*
X0037917Y0050758D01*
X0028164Y0050758D01*
X0027089Y0051833D01*
X0023083Y0055839D01*
X0021971Y0056951D01*
X0016656Y0056951D01*
X0015405Y0058201D01*
X0015405Y0063072D01*
X0015491Y0062987D01*
X0015491Y0062987D01*
X0016520Y0061957D01*
X0017944Y0061957D01*
X0018675Y0061226D01*
X0023421Y0061226D01*
X0023444Y0061217D01*
X0024438Y0061217D01*
X0024461Y0061226D01*
X0025663Y0061226D01*
X0026429Y0061992D01*
X0026429Y0063195D01*
X0026439Y0063218D01*
X0026429Y0062570D02*
X0042606Y0062570D01*
X0042606Y0061572D02*
X0026009Y0061572D01*
X0026429Y0064567D02*
X0042606Y0064567D01*
X0042606Y0065566D02*
X0026300Y0065566D01*
X0026429Y0066564D02*
X0042606Y0066564D01*
X0042606Y0067563D02*
X0026439Y0067563D01*
X0026429Y0068561D02*
X0042067Y0068561D01*
X0041916Y0069560D02*
X0026365Y0069560D01*
X0026622Y0070558D02*
X0042180Y0070558D01*
X0043038Y0071557D02*
X0022260Y0071557D01*
X0022079Y0071557D02*
X0017627Y0071557D01*
X0017627Y0072555D02*
X0017717Y0072555D01*
X0017627Y0073554D02*
X0017937Y0073554D01*
X0017776Y0074552D02*
X0045617Y0074552D01*
X0044872Y0073554D02*
X0026401Y0073554D01*
X0026622Y0072555D02*
X0044672Y0072555D01*
X0044413Y0069423D02*
X0044413Y0050132D01*
X0043232Y0048951D01*
X0026697Y0048951D01*
X0026303Y0049344D01*
X0024406Y0049149D02*
X0024406Y0048740D01*
X0024044Y0048889D01*
X0023050Y0048889D01*
X0022132Y0048509D01*
X0021430Y0047807D01*
X0021050Y0046889D01*
X0021050Y0046183D01*
X0016868Y0041037D01*
X0014779Y0041596D01*
X0011843Y0041596D01*
X0009007Y0040837D01*
X0006465Y0039369D01*
X0004389Y0037293D01*
X0003000Y0034887D01*
X0003000Y0054927D01*
X0011097Y0054927D01*
X0011862Y0055693D01*
X0011862Y0056377D01*
X0012722Y0055518D01*
X0013972Y0054267D01*
X0015084Y0053156D01*
X0020399Y0053156D01*
X0024406Y0049149D01*
X0023965Y0049590D02*
X0003000Y0049590D01*
X0003000Y0050588D02*
X0022966Y0050588D01*
X0021968Y0051587D02*
X0003000Y0051587D01*
X0003000Y0052585D02*
X0020969Y0052585D01*
X0023341Y0055581D02*
X0038706Y0055581D01*
X0037900Y0054582D02*
X0024340Y0054582D01*
X0025338Y0053584D02*
X0037598Y0053584D01*
X0037598Y0052585D02*
X0026337Y0052585D01*
X0027089Y0051833D02*
X0027089Y0051833D01*
X0027335Y0051587D02*
X0037598Y0051587D01*
X0042247Y0055581D02*
X0042606Y0055581D01*
X0042606Y0056579D02*
X0022343Y0056579D01*
X0018330Y0061572D02*
X0015405Y0061572D01*
X0015405Y0062570D02*
X0015907Y0062570D01*
X0015405Y0060573D02*
X0042606Y0060573D01*
X0042606Y0059575D02*
X0015405Y0059575D01*
X0015405Y0058576D02*
X0042606Y0058576D01*
X0042606Y0057578D02*
X0016029Y0057578D01*
X0013657Y0054582D02*
X0003000Y0054582D01*
X0003000Y0053584D02*
X0014656Y0053584D01*
X0013972Y0054267D02*
X0013972Y0054267D01*
X0012722Y0055518D02*
X0012722Y0055518D01*
X0012659Y0055581D02*
X0011750Y0055581D01*
X0003000Y0048591D02*
X0022331Y0048591D01*
X0021341Y0047593D02*
X0003000Y0047593D01*
X0003000Y0046594D02*
X0021050Y0046594D01*
X0020572Y0045596D02*
X0003000Y0045596D01*
X0003000Y0044597D02*
X0019761Y0044597D01*
X0018949Y0043599D02*
X0003000Y0043599D01*
X0003000Y0042600D02*
X0018138Y0042600D01*
X0017327Y0041602D02*
X0003000Y0041602D01*
X0003000Y0040603D02*
X0008603Y0040603D01*
X0006873Y0039605D02*
X0003000Y0039605D01*
X0003000Y0038606D02*
X0005702Y0038606D01*
X0004704Y0037608D02*
X0003000Y0037608D01*
X0003000Y0036609D02*
X0003994Y0036609D01*
X0003418Y0035611D02*
X0003000Y0035611D01*
X0013311Y0033793D02*
X0013311Y0030447D01*
X0013311Y0033793D02*
X0023547Y0046392D01*
X0028201Y0044044D02*
X0028562Y0043894D01*
X0029556Y0043894D01*
X0030474Y0044274D01*
X0030694Y0044494D01*
X0122306Y0044494D01*
X0122526Y0044274D01*
X0123444Y0043894D01*
X0124438Y0043894D01*
X0125356Y0044274D01*
X0126058Y0044977D01*
X0126335Y0045645D01*
X0127752Y0044228D01*
X0128864Y0043116D01*
X0134128Y0043116D01*
X0134620Y0042624D01*
X0136413Y0042624D01*
X0136413Y0042062D01*
X0137398Y0041078D01*
X0138509Y0039967D01*
X0141997Y0039967D01*
X0138185Y0036154D01*
X0138185Y0030445D01*
X0138116Y0030376D01*
X0120457Y0030376D01*
X0120236Y0030597D01*
X0120236Y0031882D01*
X0120425Y0032071D01*
X0120425Y0042799D01*
X0119660Y0043565D01*
X0110405Y0043565D01*
X0110248Y0043656D01*
X0109867Y0043758D01*
X0108980Y0043758D01*
X0108094Y0043758D01*
X0107799Y0043679D01*
X0107505Y0043758D01*
X0106618Y0043758D01*
X0105732Y0043758D01*
X0105437Y0043679D01*
X0105142Y0043758D01*
X0104256Y0043758D01*
X0104256Y0037435D01*
X0104256Y0037435D01*
X0104429Y0037435D01*
X0106618Y0037435D01*
X0106618Y0037435D01*
X0104256Y0037435D01*
X0104256Y0031112D01*
X0105142Y0031112D01*
X0105437Y0031191D01*
X0105732Y0031112D01*
X0106618Y0031112D01*
X0106618Y0037435D01*
X0106618Y0037435D01*
X0108980Y0037435D01*
X0108807Y0037435D01*
X0106618Y0037435D01*
X0104256Y0037435D01*
X0104256Y0037435D01*
X0101894Y0037435D01*
X0101894Y0037435D01*
X0102067Y0037435D01*
X0104256Y0037435D01*
X0104256Y0037435D01*
X0104256Y0031112D01*
X0103369Y0031112D01*
X0103075Y0031191D01*
X0102780Y0031112D01*
X0101894Y0031112D01*
X0101894Y0037435D01*
X0104256Y0037435D01*
X0104256Y0037435D01*
X0104256Y0043758D01*
X0103369Y0043758D01*
X0103075Y0043679D01*
X0102780Y0043758D01*
X0101894Y0043758D01*
X0101894Y0037435D01*
X0101894Y0037435D01*
X0101894Y0037435D01*
X0101894Y0031112D01*
X0101339Y0031112D01*
X0101339Y0027448D01*
X0101649Y0027137D01*
X0102029Y0026219D01*
X0102029Y0025226D01*
X0101649Y0024308D01*
X0100946Y0023605D01*
X0100028Y0023225D01*
X0099035Y0023225D01*
X0098117Y0023605D01*
X0097414Y0024308D01*
X0097034Y0025226D01*
X0097034Y0026219D01*
X0097414Y0027137D01*
X0097724Y0027448D01*
X0097724Y0031305D01*
X0094343Y0031305D01*
X0094343Y0022771D01*
X0091707Y0020136D01*
X0100138Y0020136D01*
X0099987Y0020501D01*
X0099987Y0021495D01*
X0100367Y0022413D01*
X0101069Y0023115D01*
X0101987Y0023496D01*
X0102298Y0023496D01*
X0105242Y0026439D01*
X0117776Y0026439D01*
X0117014Y0026755D01*
X0116312Y0027457D01*
X0115931Y0028375D01*
X0115931Y0029369D01*
X0116312Y0030287D01*
X0116622Y0030597D01*
X0116622Y0031305D01*
X0110405Y0031305D01*
X0110248Y0031214D01*
X0109867Y0031112D01*
X0108980Y0031112D01*
X0108980Y0037435D01*
X0108980Y0037435D01*
X0106618Y0037435D01*
X0106618Y0043758D01*
X0106618Y0037435D01*
X0106618Y0037435D01*
X0106618Y0031112D01*
X0107505Y0031112D01*
X0107799Y0031191D01*
X0108094Y0031112D01*
X0108980Y0031112D01*
X0108980Y0037435D01*
X0108980Y0037435D01*
X0108980Y0043758D01*
X0108980Y0037435D01*
X0108980Y0037435D01*
X0108980Y0037608D02*
X0108980Y0037608D01*
X0108980Y0038606D02*
X0108980Y0038606D01*
X0108980Y0039605D02*
X0108980Y0039605D01*
X0108980Y0040603D02*
X0108980Y0040603D01*
X0108980Y0041602D02*
X0108980Y0041602D01*
X0108980Y0042600D02*
X0108980Y0042600D01*
X0108980Y0043599D02*
X0108980Y0043599D01*
X0110347Y0043599D02*
X0128381Y0043599D01*
X0127383Y0044597D02*
X0125679Y0044597D01*
X0126315Y0045596D02*
X0126384Y0045596D01*
X0128823Y0048524D02*
X0129954Y0048993D01*
X0130985Y0050024D01*
X0131543Y0051371D01*
X0131543Y0054011D01*
X0130985Y0055358D01*
X0129954Y0056389D01*
X0129206Y0056699D01*
X0131952Y0056699D01*
X0132172Y0056479D01*
X0133090Y0056099D01*
X0133845Y0056099D01*
X0133845Y0054657D01*
X0133845Y0051147D01*
X0133764Y0051006D01*
X0133661Y0050625D01*
X0133661Y0048943D01*
X0137827Y0048943D01*
X0137827Y0047974D01*
X0133661Y0047974D01*
X0133661Y0046911D01*
X0130436Y0046911D01*
X0128823Y0048524D01*
X0128984Y0048591D02*
X0137827Y0048591D01*
X0138311Y0048459D02*
X0138311Y0051904D01*
X0137659Y0054293D02*
X0137659Y0054657D01*
X0144291Y0061289D01*
X0144291Y0058990D01*
X0144394Y0058608D01*
X0144591Y0058266D01*
X0144870Y0057987D01*
X0144957Y0057937D01*
X0144484Y0057465D01*
X0144484Y0053801D01*
X0142494Y0053801D01*
X0142002Y0054293D01*
X0139738Y0054293D01*
X0139591Y0054146D01*
X0139443Y0054293D01*
X0137659Y0054293D01*
X0137659Y0054582D02*
X0144484Y0054582D01*
X0144484Y0055581D02*
X0138583Y0055581D01*
X0139581Y0056579D02*
X0144484Y0056579D01*
X0144597Y0057578D02*
X0140580Y0057578D01*
X0141578Y0058576D02*
X0144412Y0058576D01*
X0144291Y0059575D02*
X0142577Y0059575D01*
X0143575Y0060573D02*
X0144291Y0060573D01*
X0144642Y0061640D02*
X0144746Y0061744D01*
X0144746Y0062640D01*
X0147850Y0062640D01*
X0147850Y0061640D01*
X0144642Y0061640D01*
X0144746Y0062570D02*
X0147850Y0062570D01*
X0147850Y0061640D02*
X0148850Y0061640D01*
X0148850Y0058230D01*
X0147850Y0058230D01*
X0147850Y0061640D01*
X0147850Y0061572D02*
X0148850Y0061572D01*
X0148850Y0060573D02*
X0147850Y0060573D01*
X0147850Y0059575D02*
X0148850Y0059575D01*
X0148850Y0058576D02*
X0147850Y0058576D01*
X0154543Y0053470D02*
X0155543Y0053470D01*
X0155543Y0049518D01*
X0157800Y0049518D01*
X0158181Y0049620D01*
X0158523Y0049817D01*
X0158803Y0050097D01*
X0159000Y0050439D01*
X0159102Y0050820D01*
X0159102Y0053470D01*
X0155543Y0053470D01*
X0155543Y0054470D01*
X0159102Y0054470D01*
X0159102Y0057121D01*
X0159000Y0057502D01*
X0158803Y0057844D01*
X0158523Y0058124D01*
X0158437Y0058173D01*
X0158909Y0058646D01*
X0158909Y0065634D01*
X0158144Y0066400D01*
X0156617Y0066400D01*
X0155366Y0067650D01*
X0154255Y0068762D01*
X0150445Y0068762D01*
X0150445Y0068907D01*
X0151606Y0068907D01*
X0151606Y0073073D01*
X0150638Y0073073D01*
X0150638Y0073557D01*
X0149461Y0073557D01*
X0149461Y0073557D01*
X0150638Y0073557D01*
X0150638Y0074041D01*
X0151606Y0074041D01*
X0151606Y0073073D01*
X0152575Y0073073D01*
X0153638Y0073073D01*
X0153638Y0074041D01*
X0152575Y0074041D01*
X0152575Y0073073D01*
X0152575Y0068907D01*
X0154257Y0068907D01*
X0154638Y0069010D01*
X0154795Y0069100D01*
X0157604Y0069100D01*
X0159248Y0067456D01*
X0159248Y0050930D01*
X0159042Y0050432D01*
X0159042Y0050121D01*
X0155242Y0046321D01*
X0150698Y0046321D01*
X0150848Y0046682D01*
X0150848Y0047676D01*
X0150468Y0048594D01*
X0149765Y0049297D01*
X0148847Y0049677D01*
X0147854Y0049677D01*
X0146936Y0049297D01*
X0146233Y0048594D01*
X0145853Y0047676D01*
X0145853Y0047365D01*
X0145327Y0046839D01*
X0145327Y0049711D01*
X0151451Y0049711D01*
X0151560Y0049820D01*
X0151563Y0049817D01*
X0151905Y0049620D01*
X0152287Y0049518D01*
X0154543Y0049518D01*
X0154543Y0053470D01*
X0154543Y0052585D02*
X0155543Y0052585D01*
X0155543Y0051587D02*
X0154543Y0051587D01*
X0154543Y0050588D02*
X0155543Y0050588D01*
X0155543Y0049590D02*
X0154543Y0049590D01*
X0152018Y0049590D02*
X0149057Y0049590D01*
X0147643Y0049590D02*
X0145327Y0049590D01*
X0145327Y0048591D02*
X0146232Y0048591D01*
X0145853Y0047593D02*
X0145327Y0047593D01*
X0150469Y0048591D02*
X0157512Y0048591D01*
X0158068Y0049590D02*
X0158510Y0049590D01*
X0159040Y0050588D02*
X0159106Y0050588D01*
X0159102Y0051587D02*
X0159248Y0051587D01*
X0159248Y0052585D02*
X0159102Y0052585D01*
X0159248Y0053584D02*
X0155543Y0053584D01*
X0159102Y0054582D02*
X0159248Y0054582D01*
X0159248Y0055581D02*
X0159102Y0055581D01*
X0159102Y0056579D02*
X0159248Y0056579D01*
X0159248Y0057578D02*
X0158956Y0057578D01*
X0158840Y0058576D02*
X0159248Y0058576D01*
X0159248Y0059575D02*
X0158909Y0059575D01*
X0158909Y0060573D02*
X0159248Y0060573D01*
X0159248Y0061572D02*
X0158909Y0061572D01*
X0158909Y0062570D02*
X0159248Y0062570D01*
X0159248Y0063569D02*
X0158909Y0063569D01*
X0158909Y0064567D02*
X0159248Y0064567D01*
X0159248Y0065566D02*
X0158909Y0065566D01*
X0159248Y0066564D02*
X0156452Y0066564D01*
X0155453Y0067563D02*
X0159141Y0067563D01*
X0158143Y0068561D02*
X0154455Y0068561D01*
X0152575Y0069560D02*
X0151606Y0069560D01*
X0151606Y0070558D02*
X0152575Y0070558D01*
X0152575Y0071557D02*
X0151606Y0071557D01*
X0151606Y0072555D02*
X0152575Y0072555D01*
X0152575Y0073554D02*
X0153638Y0073554D01*
X0152575Y0074041D02*
X0152575Y0076778D01*
X0151606Y0076778D01*
X0151606Y0074041D01*
X0152575Y0074041D01*
X0152575Y0074552D02*
X0151606Y0074552D01*
X0151606Y0073554D02*
X0150638Y0073554D01*
X0151606Y0075551D02*
X0152575Y0075551D01*
X0152575Y0076549D02*
X0151606Y0076549D01*
X0148843Y0078183D02*
X0146480Y0078183D01*
X0144020Y0080644D01*
X0146351Y0081542D02*
X0151168Y0081542D01*
X0151168Y0081426D02*
X0151521Y0080573D01*
X0148549Y0080573D01*
X0147966Y0079990D01*
X0147229Y0079990D01*
X0146517Y0080702D01*
X0146517Y0081141D01*
X0146137Y0082058D01*
X0145434Y0082761D01*
X0144516Y0083141D01*
X0143523Y0083141D01*
X0142605Y0082761D01*
X0141902Y0082058D01*
X0141741Y0081669D01*
X0141656Y0081754D01*
X0141386Y0081754D01*
X0143661Y0084029D01*
X0143661Y0084061D01*
X0145644Y0084061D01*
X0146409Y0084827D01*
X0146409Y0091028D01*
X0146300Y0091137D01*
X0146303Y0091140D01*
X0146500Y0091482D01*
X0146602Y0091864D01*
X0146602Y0094120D01*
X0142650Y0094120D01*
X0142650Y0095120D01*
X0146602Y0095120D01*
X0146602Y0097377D01*
X0146500Y0097758D01*
X0146303Y0098100D01*
X0146023Y0098379D01*
X0145681Y0098577D01*
X0145300Y0098679D01*
X0142650Y0098679D01*
X0142650Y0095120D01*
X0141650Y0095120D01*
X0141650Y0098679D01*
X0138999Y0098679D01*
X0138618Y0098577D01*
X0138276Y0098379D01*
X0138016Y0098119D01*
X0137854Y0098281D01*
X0137512Y0098478D01*
X0137131Y0098581D01*
X0134480Y0098581D01*
X0134480Y0095022D01*
X0133480Y0095022D01*
X0133480Y0098581D01*
X0131060Y0098581D01*
X0131060Y0100010D01*
X0130118Y0100952D01*
X0129989Y0101081D01*
X0133351Y0101081D01*
X0134409Y0102139D01*
X0136008Y0103738D01*
X0143882Y0103738D01*
X0145648Y0105503D01*
X0146247Y0104904D01*
X0147165Y0104524D01*
X0148158Y0104524D01*
X0149076Y0104904D01*
X0149779Y0105607D01*
X0150159Y0106525D01*
X0150159Y0107518D01*
X0150009Y0107880D01*
X0151352Y0107880D01*
X0151935Y0108463D01*
X0153233Y0108463D01*
X0154291Y0109521D01*
X0154291Y0115352D01*
X0156776Y0115352D01*
X0157835Y0116411D01*
X0161870Y0120446D01*
X0161870Y0136117D01*
X0160394Y0137593D01*
X0159792Y0138195D01*
X0161836Y0138195D01*
X0162791Y0137240D01*
X0162791Y0069280D01*
X0161932Y0070140D01*
X0159597Y0072474D01*
X0159894Y0072771D01*
X0160583Y0073460D01*
X0160583Y0079166D01*
X0159471Y0080278D01*
X0155928Y0083821D01*
X0155300Y0083821D01*
X0155080Y0084041D01*
X0154162Y0084421D01*
X0153169Y0084421D01*
X0152251Y0084041D01*
X0151548Y0083338D01*
X0151168Y0082420D01*
X0151168Y0081426D01*
X0151218Y0082541D02*
X0145655Y0082541D01*
X0146120Y0084538D02*
X0162791Y0084538D01*
X0162791Y0085536D02*
X0146409Y0085536D01*
X0146409Y0086535D02*
X0162791Y0086535D01*
X0162791Y0087533D02*
X0146409Y0087533D01*
X0146409Y0088532D02*
X0162791Y0088532D01*
X0162791Y0089530D02*
X0146409Y0089530D01*
X0146409Y0090529D02*
X0162791Y0090529D01*
X0162791Y0091527D02*
X0146512Y0091527D01*
X0146602Y0092526D02*
X0162791Y0092526D01*
X0162791Y0093524D02*
X0146602Y0093524D01*
X0146602Y0095521D02*
X0162791Y0095521D01*
X0162791Y0094523D02*
X0142650Y0094523D01*
X0142650Y0095521D02*
X0141650Y0095521D01*
X0141650Y0095120D02*
X0141650Y0094120D01*
X0137697Y0094120D01*
X0137697Y0094022D01*
X0134480Y0094022D01*
X0134480Y0095022D01*
X0138433Y0095022D01*
X0138433Y0095120D01*
X0141650Y0095120D01*
X0141650Y0094523D02*
X0134480Y0094523D01*
X0134480Y0095521D02*
X0133480Y0095521D01*
X0133480Y0096520D02*
X0134480Y0096520D01*
X0134480Y0097518D02*
X0133480Y0097518D01*
X0133480Y0098517D02*
X0134480Y0098517D01*
X0133782Y0101512D02*
X0162791Y0101512D01*
X0162791Y0100514D02*
X0130556Y0100514D01*
X0131060Y0099515D02*
X0162791Y0099515D01*
X0162791Y0098517D02*
X0145786Y0098517D01*
X0146564Y0097518D02*
X0162791Y0097518D01*
X0162791Y0096520D02*
X0146602Y0096520D01*
X0142650Y0096520D02*
X0141650Y0096520D01*
X0141650Y0097518D02*
X0142650Y0097518D01*
X0142650Y0098517D02*
X0141650Y0098517D01*
X0138514Y0098517D02*
X0137369Y0098517D01*
X0134409Y0102139D02*
X0134409Y0102139D01*
X0134781Y0102511D02*
X0162791Y0102511D01*
X0162791Y0103509D02*
X0135779Y0103509D01*
X0135260Y0105545D02*
X0143134Y0105545D01*
X0145102Y0107514D01*
X0145102Y0110270D01*
X0143205Y0110499D02*
X0139008Y0110499D01*
X0139008Y0110459D02*
X0139008Y0111459D01*
X0139008Y0113785D01*
X0138008Y0113785D01*
X0138008Y0111459D01*
X0139008Y0111459D01*
X0142961Y0111459D01*
X0142961Y0113715D01*
X0142858Y0114097D01*
X0142661Y0114439D01*
X0142658Y0114442D01*
X0142768Y0114551D01*
X0142768Y0115754D01*
X0143012Y0115754D01*
X0143012Y0114199D01*
X0147177Y0114199D01*
X0147177Y0113230D01*
X0143012Y0113230D01*
X0143012Y0111549D01*
X0143114Y0111167D01*
X0143205Y0111010D01*
X0143205Y0108646D01*
X0143295Y0108555D01*
X0143295Y0108262D01*
X0142860Y0107827D01*
X0142961Y0108202D01*
X0142961Y0110459D01*
X0139008Y0110459D01*
X0139008Y0107352D01*
X0138008Y0107352D01*
X0138008Y0110459D01*
X0135886Y0110459D01*
X0135887Y0110462D01*
X0135887Y0111455D01*
X0135886Y0111459D01*
X0138008Y0111459D01*
X0138008Y0110459D01*
X0139008Y0110459D01*
X0139008Y0109500D02*
X0138008Y0109500D01*
X0138008Y0108502D02*
X0139008Y0108502D01*
X0139008Y0107503D02*
X0138008Y0107503D01*
X0135260Y0105545D02*
X0132602Y0102888D01*
X0128665Y0102888D01*
X0125516Y0106037D01*
X0113902Y0106037D01*
X0112524Y0107415D01*
X0112524Y0118931D01*
X0110555Y0120900D01*
X0082406Y0120900D01*
X0081421Y0119915D01*
X0081421Y0115585D01*
X0078764Y0112927D01*
X0074827Y0112927D01*
X0073843Y0113911D01*
X0067543Y0113911D01*
X0066264Y0112632D01*
X0066264Y0108892D01*
X0059866Y0102494D01*
X0059866Y0099935D01*
X0073843Y0099935D01*
X0090083Y0099935D01*
X0100122Y0099935D01*
X0100220Y0099837D01*
X0100220Y0095604D01*
X0100122Y0095506D01*
X0096256Y0095521D02*
X0094146Y0095521D01*
X0094146Y0094523D02*
X0096256Y0094523D01*
X0096256Y0093524D02*
X0094146Y0093524D01*
X0094146Y0092526D02*
X0096256Y0092526D01*
X0096256Y0092012D02*
X0096896Y0091372D01*
X0096256Y0090732D01*
X0096256Y0083744D01*
X0097022Y0082978D01*
X0098315Y0082978D01*
X0098315Y0078439D01*
X0097996Y0078120D01*
X0092974Y0078120D01*
X0092974Y0079074D01*
X0092594Y0079992D01*
X0091891Y0080694D01*
X0090973Y0081074D01*
X0089980Y0081074D01*
X0089062Y0080694D01*
X0088359Y0079992D01*
X0087979Y0079074D01*
X0087979Y0078120D01*
X0082957Y0078120D01*
X0082835Y0078243D01*
X0082835Y0082978D01*
X0086687Y0082978D01*
X0086797Y0083088D01*
X0086799Y0083085D01*
X0087141Y0082888D01*
X0087523Y0082785D01*
X0089780Y0082785D01*
X0089780Y0086738D01*
X0090779Y0086738D01*
X0090779Y0082785D01*
X0093036Y0082785D01*
X0093418Y0082888D01*
X0093760Y0083085D01*
X0094039Y0083364D01*
X0094236Y0083706D01*
X0094339Y0084088D01*
X0094339Y0086738D01*
X0090780Y0086738D01*
X0090780Y0087738D01*
X0094339Y0087738D01*
X0094339Y0090388D01*
X0094236Y0090770D01*
X0094039Y0091112D01*
X0093760Y0091391D01*
X0093611Y0091477D01*
X0094146Y0092012D01*
X0094146Y0098128D01*
X0096256Y0098128D01*
X0096256Y0092012D01*
X0096740Y0091527D02*
X0093661Y0091527D01*
X0094301Y0090529D02*
X0096256Y0090529D01*
X0096256Y0089530D02*
X0094339Y0089530D01*
X0094339Y0088532D02*
X0096256Y0088532D01*
X0096256Y0087533D02*
X0090780Y0087533D01*
X0090779Y0086535D02*
X0089780Y0086535D01*
X0089780Y0085536D02*
X0090779Y0085536D01*
X0090779Y0084538D02*
X0089780Y0084538D01*
X0089780Y0083539D02*
X0090779Y0083539D01*
X0092042Y0080544D02*
X0098315Y0080544D01*
X0098315Y0081542D02*
X0082835Y0081542D01*
X0082835Y0080544D02*
X0088911Y0080544D01*
X0088174Y0079545D02*
X0082835Y0079545D01*
X0082835Y0078547D02*
X0087979Y0078547D01*
X0087917Y0076313D02*
X0086736Y0076313D01*
X0087720Y0075329D01*
X0087917Y0076313D02*
X0087917Y0073656D01*
X0087917Y0071096D02*
X0089591Y0071096D01*
X0090476Y0071982D01*
X0090476Y0078577D01*
X0092779Y0079545D02*
X0098315Y0079545D01*
X0098315Y0078547D02*
X0092974Y0078547D01*
X0093232Y0076313D02*
X0094217Y0076313D01*
X0098744Y0076313D01*
X0099925Y0077494D01*
X0100122Y0076313D02*
X0100122Y0087238D01*
X0099827Y0087533D01*
X0096256Y0086535D02*
X0094339Y0086535D01*
X0094339Y0085536D02*
X0096256Y0085536D01*
X0096256Y0084538D02*
X0094339Y0084538D01*
X0094140Y0083539D02*
X0096461Y0083539D01*
X0098315Y0082541D02*
X0082835Y0082541D01*
X0081028Y0084679D02*
X0083587Y0087238D01*
X0081028Y0084679D02*
X0081028Y0077494D01*
X0082209Y0076313D01*
X0086736Y0076313D01*
X0084957Y0074506D02*
X0084957Y0071581D01*
X0086110Y0071581D01*
X0086110Y0070612D01*
X0084957Y0070612D01*
X0084957Y0071581D01*
X0083988Y0071581D01*
X0083988Y0074506D01*
X0084957Y0074506D01*
X0084957Y0073554D02*
X0083988Y0073554D01*
X0083988Y0072555D02*
X0084957Y0072555D01*
X0084957Y0071557D02*
X0086110Y0071557D01*
X0084957Y0070612D02*
X0084957Y0066447D01*
X0086020Y0066447D01*
X0086020Y0066272D01*
X0084769Y0065022D01*
X0083416Y0065022D01*
X0083525Y0065285D01*
X0083525Y0066278D01*
X0083455Y0066447D01*
X0083988Y0066447D01*
X0083988Y0070612D01*
X0084957Y0070612D01*
X0084957Y0070558D02*
X0083988Y0070558D01*
X0083988Y0070612D02*
X0083020Y0070612D01*
X0083020Y0071096D01*
X0081843Y0071096D01*
X0081843Y0071097D01*
X0083020Y0071097D01*
X0083020Y0071581D01*
X0083988Y0071581D01*
X0083988Y0070612D01*
X0084472Y0071096D02*
X0081028Y0071096D01*
X0083020Y0071557D02*
X0083988Y0071557D01*
X0083988Y0069560D02*
X0084957Y0069560D01*
X0084957Y0068561D02*
X0083988Y0068561D01*
X0083988Y0067563D02*
X0084957Y0067563D01*
X0084957Y0066564D02*
X0083988Y0066564D01*
X0083525Y0065566D02*
X0085313Y0065566D01*
X0081028Y0065781D02*
X0081028Y0068537D01*
X0078173Y0071785D02*
X0077484Y0071096D01*
X0075713Y0071096D01*
X0073906Y0071557D02*
X0072752Y0071557D01*
X0072752Y0071581D02*
X0073906Y0071581D01*
X0073906Y0070612D01*
X0072752Y0070612D01*
X0072752Y0066447D01*
X0073906Y0066447D01*
X0073906Y0065447D01*
X0073192Y0064734D01*
X0072910Y0064734D01*
X0072600Y0065045D01*
X0071682Y0065425D01*
X0071320Y0065425D01*
X0071320Y0066278D01*
X0071251Y0066447D01*
X0071783Y0066447D01*
X0071783Y0070612D01*
X0070815Y0070612D01*
X0070815Y0071096D01*
X0069638Y0071096D01*
X0069638Y0071097D01*
X0070815Y0071097D01*
X0070815Y0071581D01*
X0071783Y0071581D01*
X0071783Y0070612D01*
X0072752Y0070612D01*
X0072752Y0071581D01*
X0072752Y0074022D01*
X0071783Y0074022D01*
X0071783Y0071581D01*
X0072752Y0071581D01*
X0071783Y0071557D02*
X0070815Y0071557D01*
X0071783Y0072555D02*
X0072752Y0072555D01*
X0072752Y0073554D02*
X0071783Y0073554D01*
X0070004Y0075919D02*
X0068823Y0074738D01*
X0071783Y0070558D02*
X0072752Y0070558D01*
X0072752Y0069560D02*
X0071783Y0069560D01*
X0071783Y0068561D02*
X0072752Y0068561D01*
X0072752Y0067563D02*
X0071783Y0067563D01*
X0071783Y0066564D02*
X0072752Y0066564D01*
X0073906Y0065566D02*
X0071320Y0065566D01*
X0068823Y0065781D02*
X0066362Y0065781D01*
X0063606Y0068537D01*
X0061441Y0068537D01*
X0060555Y0069423D01*
X0058980Y0069423D01*
X0060555Y0070998D01*
X0060555Y0069423D01*
X0058980Y0069423D02*
X0056618Y0069423D01*
X0056284Y0071321D02*
X0056064Y0071541D01*
X0055146Y0071921D01*
X0054153Y0071921D01*
X0053894Y0071814D01*
X0053894Y0072215D01*
X0056154Y0072215D01*
X0056154Y0074765D01*
X0056254Y0074765D01*
X0056254Y0072215D01*
X0058748Y0072215D01*
X0058748Y0071747D01*
X0058232Y0071230D01*
X0057495Y0071230D01*
X0057404Y0071321D01*
X0056284Y0071321D01*
X0056025Y0071557D02*
X0058558Y0071557D01*
X0060555Y0070998D02*
X0060555Y0076707D01*
X0059768Y0077494D01*
X0054650Y0077494D01*
X0054059Y0078085D01*
X0054059Y0079463D01*
X0055437Y0080841D01*
X0055437Y0085959D01*
X0059866Y0090388D01*
X0059866Y0099935D01*
X0058059Y0099515D02*
X0057262Y0099515D01*
X0057393Y0099832D02*
X0057393Y0100826D01*
X0057013Y0101744D01*
X0056310Y0102446D01*
X0056024Y0102565D01*
X0056210Y0102751D01*
X0056210Y0106688D01*
X0056559Y0107036D01*
X0061853Y0107036D01*
X0058059Y0103243D01*
X0058059Y0091136D01*
X0055272Y0088350D01*
X0055272Y0094485D01*
X0055392Y0094485D01*
X0056310Y0094865D01*
X0057013Y0095567D01*
X0057393Y0096485D01*
X0057393Y0097479D01*
X0057013Y0098397D01*
X0056755Y0098656D01*
X0057013Y0098914D01*
X0057393Y0099832D01*
X0057393Y0100514D02*
X0058059Y0100514D01*
X0058059Y0101512D02*
X0057109Y0101512D01*
X0058059Y0102511D02*
X0056154Y0102511D01*
X0056210Y0103509D02*
X0058326Y0103509D01*
X0059324Y0104508D02*
X0056210Y0104508D01*
X0056210Y0105506D02*
X0060323Y0105506D01*
X0061321Y0106505D02*
X0056210Y0106505D01*
X0057080Y0110550D02*
X0057080Y0115161D01*
X0056205Y0115161D01*
X0056205Y0115486D01*
X0053406Y0115486D01*
X0053406Y0115486D01*
X0056205Y0115486D01*
X0056205Y0115811D01*
X0057080Y0115811D01*
X0057080Y0115161D01*
X0057731Y0115161D01*
X0057731Y0115811D01*
X0058798Y0115811D01*
X0058798Y0115161D01*
X0057731Y0115161D01*
X0057731Y0110550D01*
X0057080Y0110550D01*
X0057080Y0111497D02*
X0057731Y0111497D01*
X0057731Y0112496D02*
X0057080Y0112496D01*
X0057080Y0113494D02*
X0057731Y0113494D01*
X0057731Y0114493D02*
X0057080Y0114493D01*
X0057080Y0115491D02*
X0056205Y0115491D01*
X0057080Y0115811D02*
X0057080Y0120963D01*
X0057731Y0120963D01*
X0057731Y0115811D01*
X0057080Y0115811D01*
X0057406Y0115486D02*
X0053406Y0115486D01*
X0057080Y0116490D02*
X0057731Y0116490D01*
X0057731Y0117488D02*
X0057080Y0117488D01*
X0057080Y0118487D02*
X0057731Y0118487D01*
X0057731Y0119485D02*
X0057080Y0119485D01*
X0057080Y0120484D02*
X0057731Y0120484D01*
X0057731Y0115491D02*
X0058798Y0115491D01*
X0053406Y0119386D02*
X0046635Y0119386D01*
X0044310Y0117061D01*
X0044310Y0116869D01*
X0044315Y0116864D01*
X0044310Y0117061D02*
X0037298Y0117061D01*
X0037290Y0117052D01*
X0039197Y0118868D02*
X0039197Y0119194D01*
X0038431Y0119959D01*
X0033228Y0119959D01*
X0033228Y0120467D01*
X0031186Y0122510D01*
X0028422Y0122510D01*
X0028112Y0122820D01*
X0027194Y0123200D01*
X0026200Y0123200D01*
X0025778Y0123026D01*
X0023476Y0125327D01*
X0023476Y0129413D01*
X0022711Y0130179D01*
X0016116Y0130179D01*
X0015350Y0129413D01*
X0015350Y0128790D01*
X0015316Y0128824D01*
X0014398Y0129204D01*
X0013405Y0129204D01*
X0012843Y0128971D01*
X0012843Y0130054D01*
X0012740Y0130435D01*
X0012543Y0130777D01*
X0012540Y0130780D01*
X0012650Y0130890D01*
X0012650Y0137091D01*
X0011884Y0137856D01*
X0011001Y0137856D01*
X0011677Y0138532D01*
X0024275Y0138532D01*
X0025304Y0139562D01*
X0025567Y0139825D01*
X0025567Y0137753D01*
X0026982Y0136338D01*
X0023476Y0136338D01*
X0023476Y0137287D01*
X0022711Y0138053D01*
X0016116Y0138053D01*
X0015350Y0137287D01*
X0015350Y0131874D01*
X0016116Y0131108D01*
X0022711Y0131108D01*
X0023476Y0131874D01*
X0023476Y0132824D01*
X0027161Y0132824D01*
X0027161Y0131874D01*
X0027927Y0131108D01*
X0034522Y0131108D01*
X0035287Y0131874D01*
X0035287Y0136711D01*
X0037759Y0136711D01*
X0038776Y0135694D01*
X0038776Y0130890D01*
X0038885Y0130780D01*
X0038882Y0130777D01*
X0038685Y0130435D01*
X0038583Y0130054D01*
X0038583Y0127797D01*
X0042535Y0127797D01*
X0042535Y0126797D01*
X0038583Y0126797D01*
X0038583Y0124541D01*
X0038685Y0124159D01*
X0038882Y0123817D01*
X0039162Y0123538D01*
X0039504Y0123340D01*
X0039885Y0123238D01*
X0042535Y0123238D01*
X0042535Y0126797D01*
X0043535Y0126797D01*
X0043535Y0123238D01*
X0046186Y0123238D01*
X0046409Y0123298D01*
X0046725Y0122536D01*
X0047428Y0121833D01*
X0048346Y0121453D01*
X0048785Y0121453D01*
X0049044Y0121193D01*
X0045887Y0121193D01*
X0045621Y0120927D01*
X0040816Y0120927D01*
X0040050Y0120161D01*
X0040050Y0118868D01*
X0039197Y0118868D01*
X0038905Y0119485D02*
X0040050Y0119485D01*
X0040373Y0120484D02*
X0033211Y0120484D01*
X0032213Y0121482D02*
X0048275Y0121482D01*
X0046780Y0122481D02*
X0031214Y0122481D01*
X0030724Y0123041D02*
X0030724Y0126207D01*
X0026969Y0126207D01*
X0026969Y0124344D01*
X0027071Y0123962D01*
X0027268Y0123620D01*
X0027547Y0123341D01*
X0027890Y0123144D01*
X0028271Y0123041D01*
X0030724Y0123041D01*
X0030724Y0123480D02*
X0031724Y0123480D01*
X0031724Y0123041D02*
X0034178Y0123041D01*
X0034559Y0123144D01*
X0034901Y0123341D01*
X0035181Y0123620D01*
X0035378Y0123962D01*
X0035480Y0124344D01*
X0035480Y0126207D01*
X0031724Y0126207D01*
X0031724Y0123041D01*
X0031724Y0124478D02*
X0030724Y0124478D01*
X0030724Y0125477D02*
X0031724Y0125477D01*
X0031724Y0126207D02*
X0030724Y0126207D01*
X0030724Y0127207D01*
X0030724Y0130372D01*
X0028271Y0130372D01*
X0027890Y0130270D01*
X0027547Y0130072D01*
X0027268Y0129793D01*
X0027071Y0129451D01*
X0026969Y0129070D01*
X0026969Y0127207D01*
X0030724Y0127207D01*
X0031724Y0127207D01*
X0031724Y0130372D01*
X0034178Y0130372D01*
X0034559Y0130270D01*
X0034901Y0130072D01*
X0035181Y0129793D01*
X0035378Y0129451D01*
X0035480Y0129070D01*
X0035480Y0127207D01*
X0031724Y0127207D01*
X0031724Y0126207D01*
X0031724Y0126475D02*
X0038583Y0126475D01*
X0038583Y0125477D02*
X0035480Y0125477D01*
X0035480Y0124478D02*
X0038599Y0124478D01*
X0039263Y0123480D02*
X0035040Y0123480D01*
X0035480Y0127474D02*
X0042535Y0127474D01*
X0042535Y0126475D02*
X0043535Y0126475D01*
X0043535Y0125477D02*
X0042535Y0125477D01*
X0042535Y0124478D02*
X0043535Y0124478D01*
X0043535Y0123480D02*
X0042535Y0123480D01*
X0038583Y0128472D02*
X0035480Y0128472D01*
X0035367Y0129471D02*
X0038583Y0129471D01*
X0038704Y0130469D02*
X0012721Y0130469D01*
X0012650Y0131468D02*
X0015757Y0131468D01*
X0015350Y0132466D02*
X0012650Y0132466D01*
X0012650Y0133465D02*
X0015350Y0133465D01*
X0015350Y0134463D02*
X0012650Y0134463D01*
X0012650Y0135462D02*
X0015350Y0135462D01*
X0015350Y0136460D02*
X0012650Y0136460D01*
X0012282Y0137459D02*
X0015522Y0137459D01*
X0016263Y0142136D02*
X0018913Y0142136D01*
X0018913Y0145695D01*
X0014961Y0145695D01*
X0014961Y0143438D01*
X0015063Y0143057D01*
X0015260Y0142715D01*
X0015540Y0142436D01*
X0015882Y0142238D01*
X0016263Y0142136D01*
X0015524Y0142451D02*
X0012279Y0142451D01*
X0012264Y0142436D02*
X0012543Y0142715D01*
X0012740Y0143057D01*
X0012843Y0143438D01*
X0012843Y0145695D01*
X0008890Y0145695D01*
X0008890Y0146695D01*
X0012843Y0146695D01*
X0012843Y0148951D01*
X0012740Y0149333D01*
X0012543Y0149675D01*
X0012540Y0149678D01*
X0012650Y0149787D01*
X0012650Y0150703D01*
X0013405Y0150390D01*
X0014398Y0150390D01*
X0015154Y0150703D01*
X0015154Y0149787D01*
X0015263Y0149678D01*
X0015260Y0149675D01*
X0015063Y0149333D01*
X0014961Y0148951D01*
X0014961Y0146695D01*
X0018913Y0146695D01*
X0018913Y0145695D01*
X0019913Y0145695D01*
X0019913Y0142136D01*
X0022564Y0142136D01*
X0022945Y0142238D01*
X0023101Y0142328D01*
X0022819Y0142046D01*
X0010221Y0142046D01*
X0007662Y0139487D01*
X0006633Y0138458D01*
X0006633Y0137856D01*
X0004896Y0137856D01*
X0004130Y0137091D01*
X0004130Y0130890D01*
X0004240Y0130780D01*
X0004237Y0130777D01*
X0004039Y0130435D01*
X0003937Y0130054D01*
X0003937Y0127797D01*
X0007890Y0127797D01*
X0007890Y0126797D01*
X0008890Y0126797D01*
X0008890Y0123238D01*
X0011540Y0123238D01*
X0011921Y0123340D01*
X0012264Y0123538D01*
X0012543Y0123817D01*
X0012740Y0124159D01*
X0012819Y0124452D01*
X0013405Y0124209D01*
X0014398Y0124209D01*
X0015316Y0124589D01*
X0015350Y0124623D01*
X0015350Y0124000D01*
X0015493Y0123857D01*
X0014652Y0123509D01*
X0013950Y0122807D01*
X0013569Y0121889D01*
X0013569Y0120895D01*
X0013950Y0119977D01*
X0014297Y0119630D01*
X0014297Y0119294D01*
X0014197Y0119194D01*
X0014197Y0115617D01*
X0014104Y0115523D01*
X0013906Y0115181D01*
X0013804Y0114800D01*
X0013804Y0111852D01*
X0019504Y0111852D01*
X0019504Y0110852D01*
X0013804Y0110852D01*
X0013804Y0109409D01*
X0013802Y0109411D01*
X0012551Y0109411D01*
X0012551Y0111008D01*
X0012442Y0111118D01*
X0012444Y0111120D01*
X0012642Y0111462D01*
X0012744Y0111844D01*
X0012744Y0114100D01*
X0008791Y0114100D01*
X0008791Y0115100D01*
X0012744Y0115100D01*
X0012744Y0117357D01*
X0012642Y0117738D01*
X0012444Y0118080D01*
X0012165Y0118360D01*
X0011823Y0118557D01*
X0011442Y0118659D01*
X0008791Y0118659D01*
X0008791Y0115100D01*
X0007791Y0115100D01*
X0007791Y0114100D01*
X0003839Y0114100D01*
X0003839Y0111844D01*
X0003941Y0111462D01*
X0004138Y0111120D01*
X0004141Y0111118D01*
X0004031Y0111008D01*
X0004031Y0104807D01*
X0004797Y0104041D01*
X0011786Y0104041D01*
X0012551Y0104807D01*
X0012551Y0105295D01*
X0013946Y0103900D01*
X0011147Y0103900D01*
X0010035Y0102788D01*
X0006295Y0099048D01*
X0006295Y0096124D01*
X0004896Y0096124D01*
X0004130Y0095358D01*
X0004130Y0089945D01*
X0004896Y0089179D01*
X0011490Y0089179D01*
X0011610Y0089299D01*
X0011610Y0088130D01*
X0011490Y0088250D01*
X0004896Y0088250D01*
X0004130Y0087484D01*
X0004130Y0082071D01*
X0004896Y0081305D01*
X0011490Y0081305D01*
X0011610Y0081425D01*
X0011610Y0079862D01*
X0011097Y0080376D01*
X0003000Y0080376D01*
X0003000Y0167739D01*
X0004389Y0165333D01*
X0006465Y0163257D01*
X0009007Y0161789D01*
X0009855Y0161562D01*
X0007662Y0159369D01*
X0006633Y0158340D01*
X0006633Y0156754D01*
X0004896Y0156754D01*
X0004130Y0155988D01*
X0004130Y0149787D01*
X0004240Y0149678D01*
X0004237Y0149675D01*
X0004039Y0149333D01*
X0003937Y0148951D01*
X0003937Y0146695D01*
X0007890Y0146695D01*
X0007890Y0145695D01*
X0008890Y0145695D01*
X0008890Y0142136D01*
X0011540Y0142136D01*
X0011921Y0142238D01*
X0012264Y0142436D01*
X0012843Y0143450D02*
X0014961Y0143450D01*
X0014961Y0144448D02*
X0012843Y0144448D01*
X0012843Y0145447D02*
X0014961Y0145447D01*
X0014961Y0147444D02*
X0012843Y0147444D01*
X0012843Y0148442D02*
X0014961Y0148442D01*
X0015125Y0149441D02*
X0012678Y0149441D01*
X0012650Y0150439D02*
X0013286Y0150439D01*
X0014517Y0150439D02*
X0015154Y0150439D01*
X0019413Y0152888D02*
X0019413Y0157809D01*
X0020398Y0158793D01*
X0028272Y0158793D01*
X0029256Y0157809D01*
X0029256Y0155667D01*
X0029256Y0155635D02*
X0029224Y0155635D01*
X0033224Y0155635D02*
X0033224Y0157841D01*
X0034177Y0158793D01*
X0037130Y0158793D01*
X0039504Y0159589D02*
X0039247Y0160208D01*
X0038545Y0160911D01*
X0037646Y0161283D01*
X0037646Y0163624D01*
X0035055Y0163624D01*
X0035055Y0163805D01*
X0035055Y0167616D01*
X0034874Y0167616D01*
X0034874Y0163805D01*
X0035055Y0163805D01*
X0037646Y0163805D01*
X0037646Y0166865D01*
X0037543Y0167246D01*
X0037346Y0167588D01*
X0037318Y0167616D01*
X0044059Y0167616D01*
X0044280Y0167395D01*
X0044280Y0164365D01*
X0039504Y0159589D01*
X0039031Y0160424D02*
X0040339Y0160424D01*
X0041338Y0161423D02*
X0037646Y0161423D01*
X0037646Y0162421D02*
X0042336Y0162421D01*
X0043335Y0163420D02*
X0037646Y0163420D01*
X0037646Y0164418D02*
X0044280Y0164418D01*
X0044280Y0165417D02*
X0037646Y0165417D01*
X0037646Y0166416D02*
X0044280Y0166416D01*
X0044261Y0167414D02*
X0037447Y0167414D01*
X0036638Y0166667D02*
X0040043Y0166667D01*
X0036638Y0166667D02*
X0034965Y0164994D01*
X0034965Y0163715D01*
X0034874Y0164418D02*
X0035055Y0164418D01*
X0035055Y0165417D02*
X0034874Y0165417D01*
X0034874Y0166416D02*
X0035055Y0166416D01*
X0035055Y0167414D02*
X0034874Y0167414D01*
X0034374Y0169620D02*
X0032996Y0170998D01*
X0032799Y0170998D01*
X0031815Y0170014D01*
X0032307Y0170014D01*
X0032898Y0169423D01*
X0032898Y0176411D01*
X0035192Y0177399D02*
X0036413Y0177399D01*
X0036413Y0176401D02*
X0035395Y0176401D01*
X0035395Y0175915D02*
X0035395Y0176908D01*
X0035015Y0177826D01*
X0034312Y0178529D01*
X0033394Y0178909D01*
X0032401Y0178909D01*
X0031483Y0178529D01*
X0030780Y0177826D01*
X0030400Y0176908D01*
X0030400Y0175915D01*
X0030780Y0174997D01*
X0031091Y0174686D01*
X0031091Y0171845D01*
X0030992Y0171747D01*
X0030476Y0171230D01*
X0026933Y0171230D01*
X0023746Y0168044D01*
X0024461Y0170711D01*
X0024461Y0173647D01*
X0024360Y0174022D01*
X0028813Y0174022D01*
X0029579Y0174787D01*
X0029579Y0182490D01*
X0036413Y0182490D01*
X0036413Y0174787D01*
X0037179Y0174022D01*
X0042986Y0174022D01*
X0043232Y0174268D01*
X0043478Y0174022D01*
X0049286Y0174022D01*
X0050051Y0174787D01*
X0050051Y0182490D01*
X0056886Y0182490D01*
X0056886Y0174787D01*
X0057651Y0174022D01*
X0063459Y0174022D01*
X0063705Y0174268D01*
X0063951Y0174022D01*
X0069758Y0174022D01*
X0070524Y0174787D01*
X0070524Y0182490D01*
X0077358Y0182490D01*
X0077358Y0174787D01*
X0078124Y0174022D01*
X0083931Y0174022D01*
X0084177Y0174268D01*
X0084423Y0174022D01*
X0089894Y0174022D01*
X0088188Y0172707D01*
X0075378Y0172707D01*
X0075354Y0172731D01*
X0075157Y0172928D01*
X0075157Y0174686D01*
X0075468Y0174997D01*
X0075848Y0175915D01*
X0075848Y0176908D01*
X0075468Y0177826D01*
X0074765Y0178529D01*
X0073847Y0178909D01*
X0072854Y0178909D01*
X0071936Y0178529D01*
X0071233Y0177826D01*
X0070853Y0176908D01*
X0070853Y0175915D01*
X0071233Y0174997D01*
X0071543Y0174686D01*
X0071543Y0172337D01*
X0070854Y0171648D01*
X0064729Y0165523D01*
X0064291Y0165523D01*
X0063373Y0165143D01*
X0062670Y0164440D01*
X0062290Y0163522D01*
X0062290Y0163013D01*
X0056031Y0156754D01*
X0051155Y0156754D01*
X0050390Y0155988D01*
X0050390Y0149787D01*
X0050499Y0149678D01*
X0050497Y0149675D01*
X0050299Y0149333D01*
X0050197Y0148951D01*
X0050197Y0148534D01*
X0049339Y0148889D01*
X0048346Y0148889D01*
X0047428Y0148509D01*
X0047098Y0148180D01*
X0047098Y0148311D01*
X0046333Y0149077D01*
X0039738Y0149077D01*
X0038972Y0148311D01*
X0038972Y0147361D01*
X0038764Y0147361D01*
X0037386Y0145983D01*
X0037251Y0145983D01*
X0037322Y0146106D01*
X0037424Y0146488D01*
X0037424Y0149435D01*
X0031724Y0149435D01*
X0031724Y0147335D01*
X0031224Y0147335D01*
X0030724Y0147335D01*
X0030724Y0149435D01*
X0031724Y0149435D01*
X0031724Y0150435D01*
X0037424Y0150435D01*
X0037424Y0153383D01*
X0037322Y0153764D01*
X0037285Y0153828D01*
X0038854Y0153828D01*
X0039004Y0153978D01*
X0042535Y0153978D01*
X0042535Y0152978D01*
X0038780Y0152978D01*
X0038780Y0151116D01*
X0038882Y0150734D01*
X0039079Y0150392D01*
X0039359Y0150113D01*
X0039701Y0149915D01*
X0040082Y0149813D01*
X0042535Y0149813D01*
X0042535Y0152978D01*
X0043535Y0152978D01*
X0043535Y0149813D01*
X0045989Y0149813D01*
X0046370Y0149915D01*
X0046712Y0150113D01*
X0046992Y0150392D01*
X0047189Y0150734D01*
X0047291Y0151116D01*
X0047291Y0152978D01*
X0043535Y0152978D01*
X0043535Y0153978D01*
X0042535Y0153978D01*
X0042535Y0157144D01*
X0042170Y0157144D01*
X0046835Y0161809D01*
X0047894Y0162868D01*
X0047894Y0167395D01*
X0048115Y0167616D01*
X0048607Y0167616D01*
X0048613Y0167622D01*
X0048621Y0167622D01*
X0049142Y0168151D01*
X0049665Y0168675D01*
X0049665Y0168683D01*
X0053940Y0173028D01*
X0054359Y0173028D01*
X0055277Y0173408D01*
X0055980Y0174111D01*
X0056360Y0175029D01*
X0056360Y0176022D01*
X0055980Y0176940D01*
X0055277Y0177643D01*
X0054359Y0178023D01*
X0053365Y0178023D01*
X0052447Y0177643D01*
X0051745Y0176940D01*
X0051365Y0176022D01*
X0051365Y0175564D01*
X0047101Y0171230D01*
X0035319Y0171230D01*
X0034803Y0171747D01*
X0034705Y0171845D01*
X0034705Y0174686D01*
X0035015Y0174997D01*
X0035395Y0175915D01*
X0035183Y0175402D02*
X0036413Y0175402D01*
X0036797Y0174404D02*
X0034705Y0174404D01*
X0034705Y0173405D02*
X0049241Y0173405D01*
X0049667Y0174404D02*
X0050223Y0174404D01*
X0050051Y0175402D02*
X0051206Y0175402D01*
X0051521Y0176401D02*
X0050051Y0176401D01*
X0050051Y0177399D02*
X0052204Y0177399D01*
X0053862Y0175526D02*
X0047858Y0169423D01*
X0047366Y0169423D01*
X0046185Y0168242D01*
X0045988Y0168242D02*
X0044807Y0169423D01*
X0046087Y0169423D01*
X0046087Y0163616D01*
X0038106Y0155635D01*
X0035124Y0155635D01*
X0037410Y0153435D02*
X0042535Y0153435D01*
X0042535Y0154433D02*
X0043535Y0154433D01*
X0043535Y0153978D02*
X0043535Y0157144D01*
X0045989Y0157144D01*
X0046370Y0157041D01*
X0046712Y0156844D01*
X0046992Y0156565D01*
X0047189Y0156223D01*
X0047291Y0155841D01*
X0047291Y0153978D01*
X0043535Y0153978D01*
X0043535Y0153435D02*
X0050390Y0153435D01*
X0050390Y0154433D02*
X0047291Y0154433D01*
X0047291Y0155432D02*
X0050390Y0155432D01*
X0050832Y0156430D02*
X0047069Y0156430D01*
X0044452Y0159426D02*
X0053570Y0159426D01*
X0053677Y0159364D02*
X0054058Y0159262D01*
X0055346Y0159262D01*
X0055346Y0163624D01*
X0055528Y0163624D01*
X0055528Y0163805D01*
X0058118Y0163805D01*
X0058118Y0166865D01*
X0058016Y0167246D01*
X0057818Y0167588D01*
X0057539Y0167868D01*
X0057197Y0168065D01*
X0056816Y0168167D01*
X0055528Y0168167D01*
X0055528Y0163805D01*
X0055346Y0163805D01*
X0055346Y0168167D01*
X0054058Y0168167D01*
X0053677Y0168065D01*
X0053335Y0167868D01*
X0053332Y0167865D01*
X0053223Y0167974D01*
X0049777Y0167974D01*
X0049012Y0167209D01*
X0049012Y0162561D01*
X0049002Y0162538D01*
X0049002Y0161545D01*
X0049012Y0161522D01*
X0049012Y0160220D01*
X0049777Y0159455D01*
X0053223Y0159455D01*
X0053332Y0159564D01*
X0053335Y0159562D01*
X0053677Y0159364D01*
X0055346Y0159426D02*
X0055528Y0159426D01*
X0055528Y0159262D02*
X0056816Y0159262D01*
X0057197Y0159364D01*
X0057539Y0159562D01*
X0057818Y0159841D01*
X0058016Y0160183D01*
X0058118Y0160564D01*
X0058118Y0163624D01*
X0055528Y0163624D01*
X0055528Y0159262D01*
X0055528Y0160424D02*
X0055346Y0160424D01*
X0055346Y0161423D02*
X0055528Y0161423D01*
X0055528Y0162421D02*
X0055346Y0162421D01*
X0055346Y0163420D02*
X0055528Y0163420D01*
X0055528Y0164418D02*
X0055346Y0164418D01*
X0055346Y0165417D02*
X0055528Y0165417D01*
X0055528Y0166416D02*
X0055346Y0166416D01*
X0055346Y0167414D02*
X0055528Y0167414D01*
X0057919Y0167414D02*
X0066620Y0167414D01*
X0065622Y0166416D02*
X0058118Y0166416D01*
X0058118Y0165417D02*
X0064034Y0165417D01*
X0062661Y0164418D02*
X0058118Y0164418D01*
X0058118Y0163420D02*
X0062290Y0163420D01*
X0061698Y0162421D02*
X0058118Y0162421D01*
X0058118Y0161423D02*
X0060700Y0161423D01*
X0059701Y0160424D02*
X0058081Y0160424D01*
X0058703Y0159426D02*
X0057304Y0159426D01*
X0057704Y0158427D02*
X0043453Y0158427D01*
X0042455Y0157429D02*
X0056706Y0157429D01*
X0051500Y0162041D02*
X0051500Y0163715D01*
X0049012Y0163420D02*
X0047894Y0163420D01*
X0047894Y0164418D02*
X0049012Y0164418D01*
X0049012Y0165417D02*
X0047894Y0165417D01*
X0047894Y0166416D02*
X0049012Y0166416D01*
X0049217Y0167414D02*
X0047913Y0167414D01*
X0049403Y0168413D02*
X0067619Y0168413D01*
X0068617Y0169411D02*
X0050381Y0169411D01*
X0051364Y0170410D02*
X0069616Y0170410D01*
X0070614Y0171408D02*
X0052346Y0171408D01*
X0053329Y0172407D02*
X0071543Y0172407D01*
X0071543Y0173405D02*
X0055269Y0173405D01*
X0056101Y0174404D02*
X0057270Y0174404D01*
X0056886Y0175402D02*
X0056360Y0175402D01*
X0056203Y0176401D02*
X0056886Y0176401D01*
X0056886Y0177399D02*
X0055521Y0177399D01*
X0056886Y0178398D02*
X0050051Y0178398D01*
X0050051Y0179396D02*
X0056886Y0179396D01*
X0056886Y0180395D02*
X0050051Y0180395D01*
X0050051Y0181393D02*
X0056886Y0181393D01*
X0056886Y0182392D02*
X0050051Y0182392D01*
X0048258Y0172407D02*
X0034705Y0172407D01*
X0035142Y0171408D02*
X0047276Y0171408D01*
X0047366Y0169423D02*
X0046087Y0169423D01*
X0044807Y0169423D02*
X0032898Y0169423D01*
X0027681Y0169423D01*
X0019020Y0160762D01*
X0018429Y0160762D01*
X0021414Y0160600D02*
X0028430Y0167616D01*
X0028947Y0167616D01*
X0028539Y0167209D01*
X0028539Y0165907D01*
X0028530Y0165885D01*
X0028530Y0164891D01*
X0028539Y0164868D01*
X0028539Y0160600D01*
X0021414Y0160600D01*
X0022236Y0161423D02*
X0028539Y0161423D01*
X0028539Y0162421D02*
X0023235Y0162421D01*
X0024233Y0163420D02*
X0028539Y0163420D01*
X0028539Y0164418D02*
X0025232Y0164418D01*
X0026230Y0165417D02*
X0028530Y0165417D01*
X0028539Y0166416D02*
X0027229Y0166416D01*
X0028227Y0167414D02*
X0028745Y0167414D01*
X0031028Y0165388D02*
X0031028Y0163715D01*
X0031618Y0169817D02*
X0031815Y0170014D01*
X0030654Y0171408D02*
X0024461Y0171408D01*
X0024461Y0172407D02*
X0031091Y0172407D01*
X0031091Y0173405D02*
X0024461Y0173405D01*
X0024380Y0170410D02*
X0026112Y0170410D01*
X0025113Y0169411D02*
X0024112Y0169411D01*
X0024115Y0168413D02*
X0023845Y0168413D01*
X0029195Y0174404D02*
X0031091Y0174404D01*
X0030612Y0175402D02*
X0029579Y0175402D01*
X0029579Y0176401D02*
X0030400Y0176401D01*
X0030603Y0177399D02*
X0029579Y0177399D01*
X0029579Y0178398D02*
X0031352Y0178398D01*
X0029579Y0179396D02*
X0036413Y0179396D01*
X0036413Y0178398D02*
X0034444Y0178398D01*
X0036413Y0180395D02*
X0029579Y0180395D01*
X0029579Y0181393D02*
X0036413Y0181393D01*
X0036413Y0182392D02*
X0029579Y0182392D01*
X0047448Y0162421D02*
X0049002Y0162421D01*
X0049012Y0161423D02*
X0046449Y0161423D01*
X0045450Y0160424D02*
X0049012Y0160424D01*
X0043535Y0156430D02*
X0042535Y0156430D01*
X0042535Y0155432D02*
X0043535Y0155432D01*
X0043535Y0152436D02*
X0042535Y0152436D01*
X0042535Y0151438D02*
X0043535Y0151438D01*
X0043535Y0150439D02*
X0042535Y0150439D01*
X0039052Y0150439D02*
X0037424Y0150439D01*
X0037424Y0151438D02*
X0038780Y0151438D01*
X0038780Y0152436D02*
X0037424Y0152436D01*
X0037424Y0148442D02*
X0039104Y0148442D01*
X0038972Y0147444D02*
X0037424Y0147444D01*
X0037413Y0146445D02*
X0037848Y0146445D01*
X0035133Y0144226D02*
X0035124Y0144235D01*
X0031224Y0144235D02*
X0031224Y0147335D01*
X0031224Y0144235D01*
X0031224Y0144235D01*
X0031224Y0141135D01*
X0031163Y0141135D01*
X0031973Y0140325D01*
X0032051Y0140325D01*
X0031467Y0140908D01*
X0031467Y0141135D01*
X0031224Y0141135D01*
X0031224Y0144235D01*
X0031224Y0144235D01*
X0031224Y0144448D02*
X0031224Y0144448D01*
X0031224Y0143450D02*
X0031224Y0143450D01*
X0031224Y0142451D02*
X0031224Y0142451D01*
X0031224Y0141453D02*
X0031224Y0141453D01*
X0031844Y0140454D02*
X0031921Y0140454D01*
X0031224Y0138518D02*
X0038508Y0138518D01*
X0043035Y0133990D01*
X0038776Y0134463D02*
X0035287Y0134463D01*
X0035287Y0133465D02*
X0038776Y0133465D01*
X0038776Y0132466D02*
X0035287Y0132466D01*
X0034881Y0131468D02*
X0038776Y0131468D01*
X0038776Y0135462D02*
X0035287Y0135462D01*
X0035287Y0136460D02*
X0038010Y0136460D01*
X0031224Y0138518D02*
X0029224Y0140518D01*
X0029224Y0144235D01*
X0031224Y0145447D02*
X0031224Y0145447D01*
X0031224Y0146445D02*
X0031224Y0146445D01*
X0030724Y0147444D02*
X0031724Y0147444D01*
X0031724Y0148442D02*
X0030724Y0148442D01*
X0031724Y0149441D02*
X0050361Y0149441D01*
X0050390Y0150439D02*
X0047019Y0150439D01*
X0047291Y0151438D02*
X0050390Y0151438D01*
X0050390Y0152436D02*
X0047291Y0152436D01*
X0047361Y0148442D02*
X0046967Y0148442D01*
X0048843Y0146392D02*
X0048843Y0140289D01*
X0048843Y0123951D01*
X0050024Y0122770D01*
X0093429Y0122770D01*
X0095004Y0124344D02*
X0095004Y0140486D01*
X0093823Y0140486D01*
X0093429Y0140486D01*
X0080732Y0140486D01*
X0079484Y0141734D01*
X0079484Y0144235D01*
X0081384Y0144235D02*
X0081393Y0144226D01*
X0083658Y0146389D02*
X0083684Y0146488D01*
X0083684Y0149435D01*
X0077984Y0149435D01*
X0077984Y0147335D01*
X0077484Y0147335D01*
X0076984Y0147335D01*
X0076984Y0149435D01*
X0077984Y0149435D01*
X0077984Y0150435D01*
X0083684Y0150435D01*
X0083684Y0153383D01*
X0083582Y0153764D01*
X0083385Y0154106D01*
X0083291Y0154199D01*
X0083291Y0156407D01*
X0084461Y0157577D01*
X0084532Y0157577D01*
X0089552Y0162596D01*
X0089957Y0163002D01*
X0089957Y0162659D01*
X0089947Y0162637D01*
X0089947Y0161643D01*
X0089957Y0161620D01*
X0089957Y0160220D01*
X0090722Y0159455D01*
X0094167Y0159455D01*
X0094277Y0159564D01*
X0094280Y0159562D01*
X0094622Y0159364D01*
X0095003Y0159262D01*
X0096291Y0159262D01*
X0096291Y0163624D01*
X0096472Y0163624D01*
X0096472Y0159262D01*
X0097760Y0159262D01*
X0098142Y0159364D01*
X0098484Y0159562D01*
X0098763Y0159841D01*
X0098961Y0160183D01*
X0099063Y0160564D01*
X0099063Y0163624D01*
X0096473Y0163624D01*
X0096473Y0163805D01*
X0099063Y0163805D01*
X0099063Y0166865D01*
X0098961Y0167246D01*
X0098763Y0167588D01*
X0098484Y0167868D01*
X0098142Y0168065D01*
X0097760Y0168167D01*
X0096472Y0168167D01*
X0096472Y0163805D01*
X0096291Y0163805D01*
X0096291Y0168167D01*
X0095003Y0168167D01*
X0094622Y0168065D01*
X0094280Y0167868D01*
X0094277Y0167865D01*
X0094167Y0167974D01*
X0090722Y0167974D01*
X0090610Y0167862D01*
X0090610Y0170011D01*
X0094526Y0173028D01*
X0095304Y0173028D01*
X0096222Y0173408D01*
X0096924Y0174111D01*
X0097305Y0175029D01*
X0097305Y0176022D01*
X0096924Y0176940D01*
X0096222Y0177643D01*
X0095304Y0178023D01*
X0094310Y0178023D01*
X0093392Y0177643D01*
X0092690Y0176940D01*
X0092309Y0176022D01*
X0092309Y0175882D01*
X0090996Y0174870D01*
X0090996Y0182490D01*
X0097831Y0182490D01*
X0097831Y0174787D01*
X0098596Y0174022D01*
X0104404Y0174022D01*
X0104650Y0174268D01*
X0104896Y0174022D01*
X0110703Y0174022D01*
X0111468Y0174787D01*
X0111468Y0182490D01*
X0118303Y0182490D01*
X0118303Y0181458D01*
X0118040Y0181567D01*
X0117046Y0181567D01*
X0116129Y0181186D01*
X0115426Y0180484D01*
X0115046Y0179566D01*
X0115046Y0178572D01*
X0115426Y0177654D01*
X0115638Y0177442D01*
X0115638Y0170172D01*
X0115515Y0170049D01*
X0110200Y0170049D01*
X0109413Y0169262D01*
X0108354Y0168203D01*
X0108354Y0160715D01*
X0108044Y0160405D01*
X0107664Y0159487D01*
X0107664Y0159048D01*
X0107248Y0158632D01*
X0103901Y0158632D01*
X0102843Y0157573D01*
X0102023Y0156754D01*
X0097218Y0156754D01*
X0096453Y0155988D01*
X0096453Y0149787D01*
X0096562Y0149678D01*
X0096560Y0149675D01*
X0096362Y0149333D01*
X0096260Y0148951D01*
X0096260Y0148476D01*
X0095501Y0148791D01*
X0094507Y0148791D01*
X0093589Y0148411D01*
X0093358Y0148180D01*
X0093358Y0148311D01*
X0092593Y0149077D01*
X0085998Y0149077D01*
X0085232Y0148311D01*
X0085232Y0147361D01*
X0084630Y0147361D01*
X0083658Y0146389D01*
X0083673Y0146445D02*
X0083714Y0146445D01*
X0083684Y0147444D02*
X0085232Y0147444D01*
X0085363Y0148442D02*
X0083684Y0148442D01*
X0083684Y0150439D02*
X0085312Y0150439D01*
X0085339Y0150392D02*
X0085618Y0150113D01*
X0085960Y0149915D01*
X0086342Y0149813D01*
X0088795Y0149813D01*
X0088795Y0152978D01*
X0089795Y0152978D01*
X0089795Y0149813D01*
X0092249Y0149813D01*
X0092630Y0149915D01*
X0092972Y0150113D01*
X0093251Y0150392D01*
X0093449Y0150734D01*
X0093551Y0151116D01*
X0093551Y0152978D01*
X0089795Y0152978D01*
X0089795Y0153978D01*
X0093551Y0153978D01*
X0093551Y0155841D01*
X0093449Y0156223D01*
X0093251Y0156565D01*
X0092972Y0156844D01*
X0092630Y0157041D01*
X0092249Y0157144D01*
X0089795Y0157144D01*
X0089795Y0153978D01*
X0088795Y0153978D01*
X0088795Y0152978D01*
X0085039Y0152978D01*
X0085039Y0151116D01*
X0085142Y0150734D01*
X0085339Y0150392D01*
X0085039Y0151438D02*
X0083684Y0151438D01*
X0083684Y0152436D02*
X0085039Y0152436D01*
X0085039Y0153978D02*
X0088795Y0153978D01*
X0088795Y0157144D01*
X0086342Y0157144D01*
X0085960Y0157041D01*
X0085618Y0156844D01*
X0085339Y0156565D01*
X0085142Y0156223D01*
X0085039Y0155841D01*
X0085039Y0153978D01*
X0085039Y0154433D02*
X0083291Y0154433D01*
X0083291Y0155432D02*
X0085039Y0155432D01*
X0085262Y0156430D02*
X0083315Y0156430D01*
X0084313Y0157429D02*
X0102698Y0157429D01*
X0103697Y0158427D02*
X0085383Y0158427D01*
X0086381Y0159426D02*
X0094515Y0159426D01*
X0096291Y0159426D02*
X0096472Y0159426D01*
X0096382Y0158793D02*
X0096382Y0163715D01*
X0096291Y0163420D02*
X0096472Y0163420D01*
X0096472Y0164418D02*
X0096291Y0164418D01*
X0096291Y0165417D02*
X0096472Y0165417D01*
X0096472Y0166416D02*
X0096291Y0166416D01*
X0096291Y0167414D02*
X0096472Y0167414D01*
X0098864Y0167414D02*
X0108354Y0167414D01*
X0108354Y0166416D02*
X0099063Y0166416D01*
X0099063Y0165417D02*
X0108354Y0165417D01*
X0108354Y0164418D02*
X0099063Y0164418D01*
X0099063Y0163420D02*
X0108354Y0163420D01*
X0108354Y0162421D02*
X0099063Y0162421D01*
X0099063Y0161423D02*
X0108354Y0161423D01*
X0108064Y0160424D02*
X0099025Y0160424D01*
X0098249Y0159426D02*
X0107664Y0159426D01*
X0110161Y0158990D02*
X0107996Y0156825D01*
X0104650Y0156825D01*
X0100713Y0152888D01*
X0100213Y0149022D02*
X0101213Y0149022D01*
X0101213Y0146695D01*
X0105165Y0146695D01*
X0105165Y0148951D01*
X0105063Y0149333D01*
X0104866Y0149675D01*
X0104863Y0149678D01*
X0104972Y0149787D01*
X0104972Y0150703D01*
X0105728Y0150390D01*
X0106721Y0150390D01*
X0107476Y0150703D01*
X0107476Y0149787D01*
X0107586Y0149678D01*
X0107583Y0149675D01*
X0107386Y0149333D01*
X0107283Y0148951D01*
X0107283Y0146695D01*
X0111236Y0146695D01*
X0111236Y0145695D01*
X0107283Y0145695D01*
X0107283Y0143438D01*
X0107386Y0143057D01*
X0107583Y0142715D01*
X0107862Y0142436D01*
X0108204Y0142238D01*
X0108586Y0142136D01*
X0111236Y0142136D01*
X0111236Y0145695D01*
X0112236Y0145695D01*
X0112236Y0142136D01*
X0114886Y0142136D01*
X0115268Y0142238D01*
X0115294Y0142253D01*
X0115294Y0142001D01*
X0114945Y0141653D01*
X0100969Y0141653D01*
X0099940Y0140623D01*
X0098956Y0139639D01*
X0098956Y0137856D01*
X0097218Y0137856D01*
X0096811Y0137449D01*
X0096811Y0142463D01*
X0096839Y0142436D01*
X0097181Y0142238D01*
X0097562Y0142136D01*
X0100213Y0142136D01*
X0100213Y0145695D01*
X0101213Y0145695D01*
X0101213Y0146695D01*
X0100213Y0146695D01*
X0100213Y0149022D01*
X0100213Y0148442D02*
X0101213Y0148442D01*
X0101213Y0147444D02*
X0100213Y0147444D01*
X0100213Y0146695D02*
X0097502Y0146695D01*
X0097502Y0145796D01*
X0097459Y0145695D01*
X0100213Y0145695D01*
X0100213Y0146695D01*
X0100213Y0146445D02*
X0097502Y0146445D01*
X0095004Y0146293D02*
X0095004Y0141667D01*
X0095004Y0140486D01*
X0096811Y0140454D02*
X0099770Y0140454D01*
X0098956Y0139456D02*
X0096811Y0139456D01*
X0096811Y0138457D02*
X0098956Y0138457D01*
X0096821Y0137459D02*
X0096811Y0137459D01*
X0096811Y0141453D02*
X0100769Y0141453D01*
X0101213Y0142136D02*
X0103863Y0142136D01*
X0104244Y0142238D01*
X0104586Y0142436D01*
X0104866Y0142715D01*
X0105063Y0143057D01*
X0105165Y0143438D01*
X0105165Y0145695D01*
X0101213Y0145695D01*
X0101213Y0142136D01*
X0101213Y0142451D02*
X0100213Y0142451D01*
X0100213Y0143450D02*
X0101213Y0143450D01*
X0101213Y0144448D02*
X0100213Y0144448D01*
X0100213Y0145447D02*
X0101213Y0145447D01*
X0101213Y0146445D02*
X0111236Y0146445D01*
X0111236Y0145447D02*
X0112236Y0145447D01*
X0112236Y0144448D02*
X0111236Y0144448D01*
X0111236Y0143450D02*
X0112236Y0143450D01*
X0112236Y0142451D02*
X0111236Y0142451D01*
X0107847Y0142451D02*
X0104602Y0142451D01*
X0105165Y0143450D02*
X0107283Y0143450D01*
X0107283Y0144448D02*
X0105165Y0144448D01*
X0105165Y0145447D02*
X0107283Y0145447D01*
X0107283Y0147444D02*
X0105165Y0147444D01*
X0105165Y0148442D02*
X0107283Y0148442D01*
X0107448Y0149441D02*
X0105001Y0149441D01*
X0104972Y0150439D02*
X0105609Y0150439D01*
X0106840Y0150439D02*
X0107476Y0150439D01*
X0110161Y0158990D02*
X0110161Y0167455D01*
X0110949Y0168242D01*
X0116264Y0168242D01*
X0117445Y0169423D01*
X0118626Y0168242D01*
X0128469Y0168242D01*
X0129846Y0166864D01*
X0129945Y0168242D02*
X0129059Y0168242D01*
X0129945Y0169128D01*
X0136244Y0175427D01*
X0133944Y0176401D02*
X0131941Y0176401D01*
X0131941Y0177399D02*
X0134684Y0177399D01*
X0134829Y0177545D02*
X0134127Y0176842D01*
X0133746Y0175924D01*
X0133746Y0175485D01*
X0129196Y0170935D01*
X0128311Y0170049D01*
X0119374Y0170049D01*
X0119252Y0170172D01*
X0119252Y0174022D01*
X0124876Y0174022D01*
X0125122Y0174268D01*
X0125368Y0174022D01*
X0131175Y0174022D01*
X0131941Y0174787D01*
X0131941Y0182490D01*
X0138776Y0182490D01*
X0138776Y0174787D01*
X0139541Y0174022D01*
X0143994Y0174022D01*
X0143894Y0173647D01*
X0143894Y0170711D01*
X0144654Y0167876D01*
X0146121Y0165333D01*
X0148197Y0163257D01*
X0150740Y0161789D01*
X0153575Y0161030D01*
X0156511Y0161030D01*
X0156886Y0161130D01*
X0156886Y0156480D01*
X0157651Y0155715D01*
X0165354Y0155715D01*
X0165354Y0148880D01*
X0157651Y0148880D01*
X0156886Y0148114D01*
X0156886Y0142607D01*
X0155760Y0143733D01*
X0155760Y0152591D01*
X0154648Y0153703D01*
X0152188Y0156163D01*
X0150663Y0156163D01*
X0150073Y0156754D01*
X0143085Y0156754D01*
X0142319Y0155988D01*
X0142319Y0152543D01*
X0142565Y0152297D01*
X0142319Y0152051D01*
X0142319Y0148606D01*
X0143085Y0147841D01*
X0144878Y0147841D01*
X0144878Y0147079D01*
X0142545Y0144746D01*
X0141433Y0143634D01*
X0141433Y0142400D01*
X0140973Y0142590D01*
X0139980Y0142590D01*
X0139062Y0142210D01*
X0138701Y0141850D01*
X0129110Y0141850D01*
X0129354Y0142094D01*
X0129354Y0142469D01*
X0131362Y0142469D01*
X0131543Y0142650D01*
X0132061Y0142132D01*
X0138656Y0142132D01*
X0139421Y0142898D01*
X0139421Y0148311D01*
X0138656Y0149077D01*
X0132061Y0149077D01*
X0131295Y0148311D01*
X0131295Y0147361D01*
X0131284Y0147361D01*
X0129906Y0145983D01*
X0129574Y0145983D01*
X0129645Y0146106D01*
X0129747Y0146488D01*
X0129747Y0149435D01*
X0124047Y0149435D01*
X0124047Y0147335D01*
X0123547Y0147335D01*
X0123047Y0147335D01*
X0123047Y0149435D01*
X0124047Y0149435D01*
X0124047Y0150435D01*
X0129747Y0150435D01*
X0129747Y0153383D01*
X0129645Y0153764D01*
X0129448Y0154106D01*
X0129354Y0154199D01*
X0129354Y0154987D01*
X0131752Y0157384D01*
X0131752Y0159455D01*
X0132870Y0159455D01*
X0132893Y0159445D01*
X0133887Y0159445D01*
X0133909Y0159455D01*
X0135112Y0159455D01*
X0135222Y0159564D01*
X0135225Y0159562D01*
X0135567Y0159364D01*
X0135948Y0159262D01*
X0137236Y0159262D01*
X0137236Y0163624D01*
X0137417Y0163624D01*
X0137417Y0159262D01*
X0138705Y0159262D01*
X0139087Y0159364D01*
X0139429Y0159562D01*
X0139708Y0159841D01*
X0139906Y0160183D01*
X0140008Y0160564D01*
X0140008Y0163624D01*
X0137417Y0163624D01*
X0137417Y0163805D01*
X0137236Y0163805D01*
X0137236Y0168167D01*
X0135948Y0168167D01*
X0135567Y0168065D01*
X0135225Y0167868D01*
X0135222Y0167865D01*
X0135112Y0167974D01*
X0131752Y0167974D01*
X0131752Y0168379D01*
X0136302Y0172930D01*
X0136741Y0172930D01*
X0137659Y0173310D01*
X0138361Y0174012D01*
X0138742Y0174930D01*
X0138742Y0175924D01*
X0138361Y0176842D01*
X0137659Y0177545D01*
X0136741Y0177925D01*
X0135747Y0177925D01*
X0134829Y0177545D01*
X0133663Y0175402D02*
X0131941Y0175402D01*
X0131557Y0174404D02*
X0132665Y0174404D01*
X0131666Y0173405D02*
X0119252Y0173405D01*
X0119252Y0172407D02*
X0130668Y0172407D01*
X0129669Y0171408D02*
X0119252Y0171408D01*
X0119252Y0170410D02*
X0128671Y0170410D01*
X0129196Y0170935D02*
X0129196Y0170935D01*
X0129945Y0169128D02*
X0129945Y0168242D01*
X0129945Y0158133D01*
X0127447Y0155635D01*
X0125614Y0155702D02*
X0125614Y0159089D01*
X0123117Y0159150D02*
X0123117Y0159585D01*
X0123497Y0160503D01*
X0124199Y0161206D01*
X0125117Y0161586D01*
X0126111Y0161586D01*
X0127029Y0161206D01*
X0127732Y0160503D01*
X0128112Y0159585D01*
X0128112Y0158855D01*
X0128138Y0158881D01*
X0128138Y0166017D01*
X0127720Y0166435D01*
X0119535Y0166435D01*
X0119535Y0163805D01*
X0116945Y0163805D01*
X0116945Y0163624D01*
X0119535Y0163624D01*
X0119535Y0161141D01*
X0121125Y0161141D01*
X0122155Y0160112D01*
X0123117Y0159150D01*
X0123117Y0159426D02*
X0122840Y0159426D01*
X0123464Y0160424D02*
X0121842Y0160424D01*
X0119535Y0161423D02*
X0124723Y0161423D01*
X0126505Y0161423D02*
X0128138Y0161423D01*
X0128138Y0162421D02*
X0119535Y0162421D01*
X0119535Y0163420D02*
X0128138Y0163420D01*
X0128138Y0164418D02*
X0119535Y0164418D01*
X0119535Y0165417D02*
X0128138Y0165417D01*
X0127740Y0166416D02*
X0119535Y0166416D01*
X0118626Y0168242D02*
X0117445Y0168242D01*
X0116264Y0168242D01*
X0117445Y0168242D02*
X0117445Y0169423D01*
X0117445Y0178970D01*
X0117543Y0179069D01*
X0116628Y0181393D02*
X0111468Y0181393D01*
X0111468Y0180395D02*
X0115389Y0180395D01*
X0115046Y0179396D02*
X0111468Y0179396D01*
X0111468Y0178398D02*
X0115118Y0178398D01*
X0115638Y0177399D02*
X0111468Y0177399D01*
X0111468Y0176401D02*
X0115638Y0176401D01*
X0115638Y0175402D02*
X0111468Y0175402D01*
X0111085Y0174404D02*
X0115638Y0174404D01*
X0115638Y0173405D02*
X0096214Y0173405D01*
X0097046Y0174404D02*
X0098214Y0174404D01*
X0097831Y0175402D02*
X0097305Y0175402D01*
X0097148Y0176401D02*
X0097831Y0176401D01*
X0097831Y0177399D02*
X0096466Y0177399D01*
X0097831Y0178398D02*
X0090996Y0178398D01*
X0090996Y0179396D02*
X0097831Y0179396D01*
X0097831Y0180395D02*
X0090996Y0180395D01*
X0090996Y0181393D02*
X0097831Y0181393D01*
X0097831Y0182392D02*
X0090996Y0182392D01*
X0090996Y0177399D02*
X0093148Y0177399D01*
X0092466Y0176401D02*
X0090996Y0176401D01*
X0090996Y0175402D02*
X0091686Y0175402D01*
X0094807Y0175526D02*
X0088803Y0170900D01*
X0088409Y0170506D01*
X0088016Y0170506D01*
X0088705Y0169817D01*
X0088016Y0170506D02*
X0087720Y0170801D01*
X0088803Y0170900D02*
X0088803Y0164404D01*
X0083783Y0159384D01*
X0082268Y0160424D02*
X0081644Y0160424D01*
X0081570Y0160602D02*
X0080868Y0161304D01*
X0079950Y0161685D01*
X0078956Y0161685D01*
X0078591Y0161533D01*
X0078591Y0163624D01*
X0076000Y0163624D01*
X0076000Y0163805D01*
X0078591Y0163805D01*
X0078591Y0166865D01*
X0078488Y0167246D01*
X0078291Y0167588D01*
X0078012Y0167868D01*
X0077670Y0168065D01*
X0077288Y0168167D01*
X0076000Y0168167D01*
X0076000Y0163805D01*
X0075819Y0163805D01*
X0075819Y0168167D01*
X0074531Y0168167D01*
X0074149Y0168065D01*
X0073807Y0167868D01*
X0073805Y0167865D01*
X0073695Y0167974D01*
X0072292Y0167974D01*
X0073410Y0169093D01*
X0086874Y0169093D01*
X0086996Y0168970D01*
X0086996Y0165152D01*
X0081976Y0160132D01*
X0081976Y0160062D01*
X0081847Y0159933D01*
X0081570Y0160602D01*
X0080581Y0161423D02*
X0083267Y0161423D01*
X0084265Y0162421D02*
X0078591Y0162421D01*
X0078591Y0163420D02*
X0085264Y0163420D01*
X0086262Y0164418D02*
X0078591Y0164418D01*
X0078591Y0165417D02*
X0086996Y0165417D01*
X0086996Y0166416D02*
X0078591Y0166416D01*
X0078391Y0167414D02*
X0086996Y0167414D01*
X0086996Y0168413D02*
X0072730Y0168413D01*
X0071972Y0165388D02*
X0071972Y0163715D01*
X0075819Y0164418D02*
X0076000Y0164418D01*
X0076000Y0165417D02*
X0075819Y0165417D01*
X0075819Y0166416D02*
X0076000Y0166416D01*
X0076000Y0167414D02*
X0075819Y0167414D01*
X0074531Y0170998D02*
X0073547Y0171982D01*
X0073350Y0171982D01*
X0073350Y0171589D01*
X0072661Y0170900D01*
X0073646Y0170900D01*
X0073350Y0171195D01*
X0073350Y0171589D01*
X0073350Y0171982D02*
X0073350Y0176411D01*
X0070853Y0176401D02*
X0070524Y0176401D01*
X0070524Y0177399D02*
X0071056Y0177399D01*
X0070524Y0178398D02*
X0071804Y0178398D01*
X0070524Y0179396D02*
X0077358Y0179396D01*
X0077358Y0178398D02*
X0074896Y0178398D01*
X0075645Y0177399D02*
X0077358Y0177399D01*
X0077358Y0176401D02*
X0075848Y0176401D01*
X0075636Y0175402D02*
X0077358Y0175402D01*
X0077742Y0174404D02*
X0075157Y0174404D01*
X0075157Y0173405D02*
X0089094Y0173405D01*
X0088803Y0170900D02*
X0073646Y0170900D01*
X0072661Y0170900D02*
X0064787Y0163026D01*
X0061413Y0150703D02*
X0061413Y0149787D01*
X0061523Y0149678D01*
X0061520Y0149675D01*
X0061323Y0149333D01*
X0061220Y0148951D01*
X0061220Y0146695D01*
X0065173Y0146695D01*
X0065173Y0145695D01*
X0061220Y0145695D01*
X0061220Y0143438D01*
X0061323Y0143057D01*
X0061520Y0142715D01*
X0061799Y0142436D01*
X0062141Y0142238D01*
X0062523Y0142136D01*
X0065173Y0142136D01*
X0065173Y0145695D01*
X0066173Y0145695D01*
X0066173Y0142136D01*
X0068823Y0142136D01*
X0069034Y0142192D01*
X0069034Y0141850D01*
X0056087Y0141850D01*
X0054119Y0139881D01*
X0053089Y0138852D01*
X0053089Y0137856D01*
X0051352Y0137856D01*
X0050650Y0137154D01*
X0050650Y0142562D01*
X0050776Y0142436D01*
X0051118Y0142238D01*
X0051499Y0142136D01*
X0054150Y0142136D01*
X0054150Y0145695D01*
X0055150Y0145695D01*
X0055150Y0146695D01*
X0059102Y0146695D01*
X0059102Y0148951D01*
X0059000Y0149333D01*
X0058803Y0149675D01*
X0058800Y0149678D01*
X0058909Y0149787D01*
X0058909Y0150703D01*
X0059665Y0150390D01*
X0060658Y0150390D01*
X0061413Y0150703D01*
X0061413Y0150439D02*
X0060777Y0150439D01*
X0061385Y0149441D02*
X0058938Y0149441D01*
X0058909Y0150439D02*
X0059546Y0150439D01*
X0059102Y0148442D02*
X0061220Y0148442D01*
X0061220Y0147444D02*
X0059102Y0147444D01*
X0059102Y0145695D02*
X0055150Y0145695D01*
X0055150Y0142136D01*
X0057800Y0142136D01*
X0058181Y0142238D01*
X0058523Y0142436D01*
X0058803Y0142715D01*
X0059000Y0143057D01*
X0059102Y0143438D01*
X0059102Y0145695D01*
X0059102Y0145447D02*
X0061220Y0145447D01*
X0061220Y0144448D02*
X0059102Y0144448D01*
X0059102Y0143450D02*
X0061220Y0143450D01*
X0061784Y0142451D02*
X0058539Y0142451D01*
X0055690Y0141453D02*
X0050650Y0141453D01*
X0050650Y0142451D02*
X0050760Y0142451D01*
X0050650Y0140454D02*
X0054692Y0140454D01*
X0053693Y0139456D02*
X0050650Y0139456D01*
X0050650Y0138457D02*
X0053089Y0138457D01*
X0050955Y0137459D02*
X0050650Y0137459D01*
X0048744Y0139305D02*
X0047760Y0140289D01*
X0048744Y0141274D01*
X0054150Y0142451D02*
X0055150Y0142451D01*
X0055150Y0143450D02*
X0054150Y0143450D01*
X0054150Y0144448D02*
X0055150Y0144448D01*
X0055150Y0145447D02*
X0054150Y0145447D01*
X0055150Y0146445D02*
X0065173Y0146445D01*
X0065173Y0145447D02*
X0066173Y0145447D01*
X0066173Y0144448D02*
X0065173Y0144448D01*
X0065173Y0143450D02*
X0066173Y0143450D01*
X0066173Y0142451D02*
X0065173Y0142451D01*
X0062376Y0138053D02*
X0061610Y0137287D01*
X0061610Y0131874D01*
X0062376Y0131108D01*
X0068971Y0131108D01*
X0069736Y0131874D01*
X0069736Y0132824D01*
X0073421Y0132824D01*
X0073421Y0131874D01*
X0074187Y0131108D01*
X0080782Y0131108D01*
X0081547Y0131874D01*
X0081547Y0136711D01*
X0084019Y0136711D01*
X0085035Y0135694D01*
X0085035Y0130890D01*
X0085145Y0130780D01*
X0085142Y0130777D01*
X0084945Y0130435D01*
X0084843Y0130054D01*
X0084843Y0127797D01*
X0088795Y0127797D01*
X0088795Y0126797D01*
X0084843Y0126797D01*
X0084843Y0124577D01*
X0081740Y0124577D01*
X0081740Y0126207D01*
X0077984Y0126207D01*
X0077984Y0127207D01*
X0076984Y0127207D01*
X0076984Y0130372D01*
X0074531Y0130372D01*
X0074149Y0130270D01*
X0073807Y0130072D01*
X0073528Y0129793D01*
X0073331Y0129451D01*
X0073228Y0129070D01*
X0073228Y0127207D01*
X0076984Y0127207D01*
X0076984Y0126207D01*
X0073228Y0126207D01*
X0073228Y0124577D01*
X0069736Y0124577D01*
X0069736Y0129413D01*
X0068971Y0130179D01*
X0062376Y0130179D01*
X0061610Y0129413D01*
X0061610Y0128790D01*
X0061576Y0128824D01*
X0060658Y0129204D01*
X0059665Y0129204D01*
X0059299Y0129053D01*
X0059299Y0130054D01*
X0059197Y0130435D01*
X0058999Y0130777D01*
X0058997Y0130780D01*
X0059106Y0130890D01*
X0059106Y0137091D01*
X0058341Y0137856D01*
X0057064Y0137856D01*
X0057543Y0138335D01*
X0070929Y0138335D01*
X0071827Y0139234D01*
X0071827Y0137753D01*
X0073242Y0136338D01*
X0069736Y0136338D01*
X0069736Y0137287D01*
X0068971Y0138053D01*
X0062376Y0138053D01*
X0061781Y0137459D02*
X0058738Y0137459D01*
X0059106Y0136460D02*
X0061610Y0136460D01*
X0061610Y0135462D02*
X0059106Y0135462D01*
X0059106Y0134463D02*
X0061610Y0134463D01*
X0061610Y0133465D02*
X0059106Y0133465D01*
X0059106Y0132466D02*
X0061610Y0132466D01*
X0062017Y0131468D02*
X0059106Y0131468D01*
X0059177Y0130469D02*
X0084964Y0130469D01*
X0085035Y0131468D02*
X0081141Y0131468D01*
X0081547Y0132466D02*
X0085035Y0132466D01*
X0085035Y0133465D02*
X0081547Y0133465D01*
X0081547Y0134463D02*
X0085035Y0134463D01*
X0085035Y0135462D02*
X0081547Y0135462D01*
X0081547Y0136460D02*
X0084270Y0136460D01*
X0084768Y0138518D02*
X0089295Y0133990D01*
X0088795Y0130124D02*
X0088795Y0127797D01*
X0089795Y0127797D01*
X0089795Y0130124D01*
X0088795Y0130124D01*
X0088795Y0129471D02*
X0089795Y0129471D01*
X0089795Y0128472D02*
X0088795Y0128472D01*
X0088795Y0127474D02*
X0081740Y0127474D01*
X0081740Y0127207D02*
X0081740Y0129070D01*
X0081638Y0129451D01*
X0081440Y0129793D01*
X0081161Y0130072D01*
X0080819Y0130270D01*
X0080438Y0130372D01*
X0077984Y0130372D01*
X0077984Y0127207D01*
X0081740Y0127207D01*
X0081740Y0128472D02*
X0084843Y0128472D01*
X0084843Y0129471D02*
X0081627Y0129471D01*
X0077984Y0129471D02*
X0076984Y0129471D01*
X0076984Y0128472D02*
X0077984Y0128472D01*
X0077984Y0127474D02*
X0076984Y0127474D01*
X0077484Y0126707D02*
X0078075Y0127297D01*
X0077984Y0126475D02*
X0084843Y0126475D01*
X0084843Y0125477D02*
X0081740Y0125477D01*
X0076984Y0126475D02*
X0069736Y0126475D01*
X0069736Y0125477D02*
X0073228Y0125477D01*
X0073228Y0127474D02*
X0069736Y0127474D01*
X0069736Y0128472D02*
X0073228Y0128472D01*
X0073342Y0129471D02*
X0069679Y0129471D01*
X0069330Y0131468D02*
X0073828Y0131468D01*
X0073421Y0132466D02*
X0069736Y0132466D01*
X0069736Y0136460D02*
X0073120Y0136460D01*
X0072121Y0137459D02*
X0069565Y0137459D01*
X0071050Y0138457D02*
X0071827Y0138457D01*
X0075484Y0141108D02*
X0078075Y0138518D01*
X0084768Y0138518D01*
X0077484Y0144235D02*
X0077484Y0144235D01*
X0077484Y0147335D01*
X0077484Y0144235D01*
X0077484Y0144448D02*
X0077484Y0144448D01*
X0077484Y0145447D02*
X0077484Y0145447D01*
X0077484Y0146445D02*
X0077484Y0146445D01*
X0076984Y0147444D02*
X0077984Y0147444D01*
X0077984Y0148442D02*
X0076984Y0148442D01*
X0077984Y0149441D02*
X0096424Y0149441D01*
X0096453Y0150439D02*
X0093279Y0150439D01*
X0093551Y0151438D02*
X0096453Y0151438D01*
X0096453Y0152436D02*
X0093551Y0152436D01*
X0093551Y0154433D02*
X0096453Y0154433D01*
X0096453Y0153435D02*
X0089795Y0153435D01*
X0089795Y0154433D02*
X0088795Y0154433D01*
X0088795Y0153435D02*
X0083670Y0153435D01*
X0079484Y0155635D02*
X0079453Y0155667D01*
X0079453Y0159187D01*
X0087380Y0160424D02*
X0089957Y0160424D01*
X0089957Y0161423D02*
X0088378Y0161423D01*
X0089377Y0162421D02*
X0089947Y0162421D01*
X0089552Y0162596D02*
X0089552Y0162596D01*
X0092445Y0162140D02*
X0092445Y0163715D01*
X0090610Y0168413D02*
X0108564Y0168413D01*
X0109562Y0169411D02*
X0090610Y0169411D01*
X0091128Y0170410D02*
X0115638Y0170410D01*
X0115638Y0171408D02*
X0092424Y0171408D01*
X0093720Y0172407D02*
X0115638Y0172407D01*
X0112917Y0165486D02*
X0112917Y0163715D01*
X0125547Y0155635D02*
X0125614Y0155702D01*
X0129354Y0154433D02*
X0131102Y0154433D01*
X0131102Y0153978D02*
X0134858Y0153978D01*
X0134858Y0152978D01*
X0135858Y0152978D01*
X0135858Y0149813D01*
X0138312Y0149813D01*
X0138693Y0149915D01*
X0139035Y0150113D01*
X0139314Y0150392D01*
X0139512Y0150734D01*
X0139614Y0151116D01*
X0139614Y0152978D01*
X0135858Y0152978D01*
X0135858Y0153978D01*
X0139614Y0153978D01*
X0139614Y0155841D01*
X0139512Y0156223D01*
X0139314Y0156565D01*
X0139035Y0156844D01*
X0138693Y0157041D01*
X0138312Y0157144D01*
X0135858Y0157144D01*
X0135858Y0153978D01*
X0134858Y0153978D01*
X0134858Y0157144D01*
X0132405Y0157144D01*
X0132023Y0157041D01*
X0131681Y0156844D01*
X0131402Y0156565D01*
X0131205Y0156223D01*
X0131102Y0155841D01*
X0131102Y0153978D01*
X0131102Y0152978D02*
X0131102Y0151116D01*
X0131205Y0150734D01*
X0131402Y0150392D01*
X0131681Y0150113D01*
X0132023Y0149915D01*
X0132405Y0149813D01*
X0134858Y0149813D01*
X0134858Y0152978D01*
X0131102Y0152978D01*
X0131102Y0152436D02*
X0129747Y0152436D01*
X0129747Y0151438D02*
X0131102Y0151438D01*
X0131375Y0150439D02*
X0129747Y0150439D01*
X0129747Y0148442D02*
X0131426Y0148442D01*
X0131295Y0147444D02*
X0129747Y0147444D01*
X0129736Y0146445D02*
X0130368Y0146445D01*
X0129354Y0142451D02*
X0131742Y0142451D01*
X0131126Y0138222D02*
X0135358Y0133990D01*
X0134048Y0137856D02*
X0133569Y0138335D01*
X0138701Y0138335D01*
X0139062Y0137975D01*
X0139980Y0137595D01*
X0140973Y0137595D01*
X0141433Y0137785D01*
X0141433Y0125232D01*
X0142545Y0124120D01*
X0143992Y0122673D01*
X0143992Y0120850D01*
X0144180Y0120663D01*
X0143295Y0119778D01*
X0143295Y0119549D01*
X0142768Y0119549D01*
X0142768Y0120752D01*
X0142002Y0121518D01*
X0135014Y0121518D01*
X0134248Y0120752D01*
X0134248Y0120300D01*
X0131301Y0120300D01*
X0131292Y0120309D01*
X0131048Y0120309D01*
X0131048Y0120905D01*
X0129776Y0122178D01*
X0128664Y0123289D01*
X0127135Y0123289D01*
X0127224Y0123341D01*
X0127503Y0123620D01*
X0127701Y0123962D01*
X0127803Y0124344D01*
X0127803Y0126207D01*
X0124047Y0126207D01*
X0124047Y0127207D01*
X0123047Y0127207D01*
X0123047Y0130372D01*
X0120594Y0130372D01*
X0120212Y0130270D01*
X0119870Y0130072D01*
X0119591Y0129793D01*
X0119394Y0129451D01*
X0119291Y0129070D01*
X0119291Y0127207D01*
X0123047Y0127207D01*
X0123047Y0126207D01*
X0119291Y0126207D01*
X0119291Y0124344D01*
X0119394Y0123962D01*
X0119591Y0123620D01*
X0119870Y0123341D01*
X0119960Y0123289D01*
X0117840Y0123289D01*
X0116856Y0122305D01*
X0115744Y0121194D01*
X0115744Y0120309D01*
X0115409Y0120309D01*
X0114643Y0119543D01*
X0114643Y0113838D01*
X0114553Y0113681D01*
X0114450Y0113299D01*
X0114450Y0112502D01*
X0115402Y0112502D01*
X0115402Y0112502D01*
X0114450Y0112502D01*
X0114450Y0111704D01*
X0114553Y0111323D01*
X0114643Y0111166D01*
X0114643Y0109461D01*
X0115409Y0108695D01*
X0115743Y0108695D01*
X0115743Y0107939D01*
X0115838Y0107844D01*
X0114650Y0107844D01*
X0114331Y0108164D01*
X0114331Y0119680D01*
X0112362Y0121648D01*
X0111304Y0122707D01*
X0095922Y0122707D01*
X0096796Y0123581D01*
X0096839Y0123538D01*
X0097181Y0123340D01*
X0097562Y0123238D01*
X0100213Y0123238D01*
X0100213Y0126797D01*
X0101213Y0126797D01*
X0101213Y0123238D01*
X0103863Y0123238D01*
X0104244Y0123340D01*
X0104586Y0123538D01*
X0104866Y0123817D01*
X0105063Y0124159D01*
X0105142Y0124452D01*
X0105728Y0124209D01*
X0106721Y0124209D01*
X0107639Y0124589D01*
X0107673Y0124623D01*
X0107673Y0124000D01*
X0108439Y0123234D01*
X0115034Y0123234D01*
X0115799Y0124000D01*
X0115799Y0129413D01*
X0115034Y0130179D01*
X0108439Y0130179D01*
X0107673Y0129413D01*
X0107673Y0128790D01*
X0107639Y0128824D01*
X0106721Y0129204D01*
X0105728Y0129204D01*
X0105165Y0128971D01*
X0105165Y0130054D01*
X0105063Y0130435D01*
X0104866Y0130777D01*
X0104863Y0130780D01*
X0104972Y0130890D01*
X0104972Y0137091D01*
X0104207Y0137856D01*
X0102470Y0137856D01*
X0102470Y0138139D01*
X0116401Y0138139D01*
X0117779Y0139517D01*
X0117890Y0139628D01*
X0117890Y0137753D01*
X0119305Y0136338D01*
X0115799Y0136338D01*
X0115799Y0137287D01*
X0115034Y0138053D01*
X0108439Y0138053D01*
X0107673Y0137287D01*
X0107673Y0131874D01*
X0108439Y0131108D01*
X0115034Y0131108D01*
X0115799Y0131874D01*
X0115799Y0132824D01*
X0119484Y0132824D01*
X0119484Y0131874D01*
X0120250Y0131108D01*
X0126845Y0131108D01*
X0127610Y0131874D01*
X0127610Y0136415D01*
X0130377Y0136415D01*
X0131098Y0135694D01*
X0131098Y0130890D01*
X0131208Y0130780D01*
X0131205Y0130777D01*
X0131008Y0130435D01*
X0130906Y0130054D01*
X0130905Y0127797D01*
X0134858Y0127797D01*
X0134858Y0126797D01*
X0130906Y0126797D01*
X0130906Y0124541D01*
X0131008Y0124159D01*
X0131205Y0123817D01*
X0131484Y0123538D01*
X0131827Y0123340D01*
X0132208Y0123238D01*
X0134858Y0123238D01*
X0134858Y0126797D01*
X0135858Y0126797D01*
X0135858Y0123238D01*
X0138509Y0123238D01*
X0138890Y0123340D01*
X0139232Y0123538D01*
X0139511Y0123817D01*
X0139709Y0124159D01*
X0139811Y0124541D01*
X0139811Y0126797D01*
X0135858Y0126797D01*
X0135858Y0127797D01*
X0139811Y0127797D01*
X0139811Y0130054D01*
X0139709Y0130435D01*
X0139511Y0130777D01*
X0139509Y0130780D01*
X0139618Y0130890D01*
X0139618Y0137091D01*
X0138852Y0137856D01*
X0134048Y0137856D01*
X0131126Y0138222D02*
X0124433Y0138222D01*
X0121547Y0141108D01*
X0121547Y0144235D01*
X0123538Y0144244D02*
X0123538Y0150315D01*
X0123838Y0150015D01*
X0123627Y0150015D01*
X0123547Y0149935D01*
X0123547Y0144235D01*
X0123547Y0147335D01*
X0123547Y0144235D01*
X0123547Y0144235D01*
X0123538Y0144244D01*
X0123547Y0144448D02*
X0123547Y0144448D01*
X0123547Y0145447D02*
X0123547Y0145447D01*
X0123547Y0146445D02*
X0123547Y0146445D01*
X0123047Y0147444D02*
X0124047Y0147444D01*
X0124047Y0148442D02*
X0123047Y0148442D01*
X0124047Y0149441D02*
X0142319Y0149441D01*
X0142319Y0150439D02*
X0139342Y0150439D01*
X0139614Y0151438D02*
X0142319Y0151438D01*
X0142426Y0152436D02*
X0139614Y0152436D01*
X0139614Y0154433D02*
X0142319Y0154433D01*
X0142319Y0153435D02*
X0135858Y0153435D01*
X0135358Y0153478D02*
X0136815Y0154935D01*
X0135858Y0155432D02*
X0134858Y0155432D01*
X0134858Y0156430D02*
X0135858Y0156430D01*
X0135858Y0154433D02*
X0134858Y0154433D01*
X0134858Y0153435D02*
X0129733Y0153435D01*
X0129800Y0155432D02*
X0131102Y0155432D01*
X0131325Y0156430D02*
X0130798Y0156430D01*
X0131752Y0157429D02*
X0156886Y0157429D01*
X0156886Y0158427D02*
X0131752Y0158427D01*
X0131752Y0159426D02*
X0135459Y0159426D01*
X0137236Y0159426D02*
X0137417Y0159426D01*
X0137417Y0160424D02*
X0137236Y0160424D01*
X0137236Y0161423D02*
X0137417Y0161423D01*
X0137417Y0162421D02*
X0137236Y0162421D01*
X0137327Y0163124D02*
X0137327Y0163715D01*
X0137417Y0163805D02*
X0137417Y0168167D01*
X0138705Y0168167D01*
X0139087Y0168065D01*
X0139429Y0167868D01*
X0139708Y0167588D01*
X0139906Y0167246D01*
X0140008Y0166865D01*
X0140008Y0163805D01*
X0137417Y0163805D01*
X0137417Y0163420D02*
X0137236Y0163420D01*
X0137236Y0164418D02*
X0137417Y0164418D01*
X0137417Y0165417D02*
X0137236Y0165417D01*
X0137236Y0166416D02*
X0137417Y0166416D01*
X0137417Y0167414D02*
X0137236Y0167414D01*
X0139809Y0167414D02*
X0144920Y0167414D01*
X0144510Y0168413D02*
X0131785Y0168413D01*
X0132784Y0169411D02*
X0144242Y0169411D01*
X0143975Y0170410D02*
X0133782Y0170410D01*
X0134781Y0171408D02*
X0143894Y0171408D01*
X0143894Y0172407D02*
X0135779Y0172407D01*
X0137754Y0173405D02*
X0143894Y0173405D01*
X0139159Y0174404D02*
X0138524Y0174404D01*
X0138742Y0175402D02*
X0138776Y0175402D01*
X0138776Y0176401D02*
X0138544Y0176401D01*
X0138776Y0177399D02*
X0137804Y0177399D01*
X0138776Y0178398D02*
X0131941Y0178398D01*
X0131941Y0179396D02*
X0138776Y0179396D01*
X0138776Y0180395D02*
X0131941Y0180395D01*
X0131941Y0181393D02*
X0138776Y0181393D01*
X0138776Y0182392D02*
X0131941Y0182392D01*
X0118303Y0182392D02*
X0111468Y0182392D01*
X0128469Y0168242D02*
X0129059Y0168242D01*
X0133390Y0163715D02*
X0133390Y0161943D01*
X0128138Y0160424D02*
X0127764Y0160424D01*
X0128112Y0159426D02*
X0128138Y0159426D01*
X0134858Y0152436D02*
X0135858Y0152436D01*
X0135858Y0151438D02*
X0134858Y0151438D01*
X0134858Y0150439D02*
X0135858Y0150439D01*
X0139290Y0148442D02*
X0142483Y0148442D01*
X0144878Y0147444D02*
X0139421Y0147444D01*
X0139421Y0146445D02*
X0144244Y0146445D01*
X0143245Y0145447D02*
X0139421Y0145447D01*
X0139421Y0144448D02*
X0142247Y0144448D01*
X0141433Y0143450D02*
X0139421Y0143450D01*
X0139644Y0142451D02*
X0138975Y0142451D01*
X0141309Y0142451D02*
X0141433Y0142451D01*
X0141433Y0137459D02*
X0139250Y0137459D01*
X0139618Y0136460D02*
X0141433Y0136460D01*
X0141433Y0135462D02*
X0139618Y0135462D01*
X0139618Y0134463D02*
X0141433Y0134463D01*
X0141433Y0133465D02*
X0139618Y0133465D01*
X0139618Y0132466D02*
X0141433Y0132466D01*
X0141433Y0131468D02*
X0139618Y0131468D01*
X0139689Y0130469D02*
X0141433Y0130469D01*
X0141433Y0129471D02*
X0139811Y0129471D01*
X0139811Y0128472D02*
X0141433Y0128472D01*
X0141433Y0127474D02*
X0135858Y0127474D01*
X0135358Y0127297D02*
X0135348Y0127307D01*
X0134858Y0127474D02*
X0127803Y0127474D01*
X0127803Y0127207D02*
X0127803Y0129070D01*
X0127701Y0129451D01*
X0127503Y0129793D01*
X0127224Y0130072D01*
X0126882Y0130270D01*
X0126501Y0130372D01*
X0124047Y0130372D01*
X0124047Y0127207D01*
X0127803Y0127207D01*
X0127803Y0128472D02*
X0130906Y0128472D01*
X0130906Y0129471D02*
X0127690Y0129471D01*
X0127204Y0131468D02*
X0131098Y0131468D01*
X0131098Y0132466D02*
X0127610Y0132466D01*
X0127610Y0133465D02*
X0131098Y0133465D01*
X0131098Y0134463D02*
X0127610Y0134463D01*
X0127610Y0135462D02*
X0131098Y0135462D01*
X0131027Y0130469D02*
X0105044Y0130469D01*
X0104972Y0131468D02*
X0108080Y0131468D01*
X0107673Y0132466D02*
X0104972Y0132466D01*
X0104972Y0133465D02*
X0107673Y0133465D01*
X0107673Y0134463D02*
X0104972Y0134463D01*
X0104972Y0135462D02*
X0107673Y0135462D01*
X0107673Y0136460D02*
X0104972Y0136460D01*
X0104604Y0137459D02*
X0107844Y0137459D01*
X0115628Y0137459D02*
X0118184Y0137459D01*
X0117890Y0138457D02*
X0116720Y0138457D01*
X0117718Y0139456D02*
X0117890Y0139456D01*
X0119183Y0136460D02*
X0115799Y0136460D01*
X0115799Y0132466D02*
X0119484Y0132466D01*
X0119891Y0131468D02*
X0115393Y0131468D01*
X0115742Y0129471D02*
X0119405Y0129471D01*
X0119291Y0128472D02*
X0115799Y0128472D01*
X0115799Y0127474D02*
X0119291Y0127474D01*
X0119709Y0126707D02*
X0123547Y0126707D01*
X0123047Y0126475D02*
X0115799Y0126475D01*
X0115799Y0125477D02*
X0119291Y0125477D01*
X0119291Y0124478D02*
X0115799Y0124478D01*
X0115279Y0123480D02*
X0119732Y0123480D01*
X0117032Y0122481D02*
X0111529Y0122481D01*
X0112528Y0121482D02*
X0116033Y0121482D01*
X0115744Y0120484D02*
X0113526Y0120484D01*
X0114394Y0121392D02*
X0119709Y0126707D01*
X0123047Y0127474D02*
X0124047Y0127474D01*
X0124047Y0128472D02*
X0123047Y0128472D01*
X0123047Y0129471D02*
X0124047Y0129471D01*
X0124047Y0126475D02*
X0130906Y0126475D01*
X0130906Y0125477D02*
X0127803Y0125477D01*
X0127803Y0124478D02*
X0130922Y0124478D01*
X0131586Y0123480D02*
X0127363Y0123480D01*
X0129472Y0122481D02*
X0143992Y0122481D01*
X0143992Y0121482D02*
X0142037Y0121482D01*
X0142768Y0120484D02*
X0144001Y0120484D01*
X0145102Y0119030D02*
X0145102Y0117159D01*
X0145102Y0119030D02*
X0147366Y0121293D01*
X0148841Y0120085D02*
X0150959Y0120085D01*
X0151068Y0120194D01*
X0151071Y0120191D01*
X0151413Y0119994D01*
X0151795Y0119892D01*
X0154051Y0119892D01*
X0154051Y0123844D01*
X0155051Y0123844D01*
X0155051Y0119892D01*
X0156204Y0119892D01*
X0155279Y0118967D01*
X0151935Y0118967D01*
X0151352Y0119549D01*
X0149088Y0119549D01*
X0148941Y0119402D01*
X0148793Y0119549D01*
X0148306Y0119549D01*
X0148841Y0120085D01*
X0148857Y0119485D02*
X0149025Y0119485D01*
X0151416Y0119485D02*
X0155798Y0119485D01*
X0155051Y0120484D02*
X0154051Y0120484D01*
X0154051Y0121482D02*
X0155051Y0121482D01*
X0155051Y0122481D02*
X0154051Y0122481D01*
X0154051Y0123480D02*
X0155051Y0123480D01*
X0155051Y0123845D02*
X0158256Y0123845D01*
X0158256Y0124844D01*
X0155051Y0124844D01*
X0155051Y0123845D01*
X0155051Y0124478D02*
X0158256Y0124478D01*
X0155051Y0124845D02*
X0154051Y0124845D01*
X0154051Y0127864D01*
X0154051Y0131817D01*
X0155051Y0131817D01*
X0155051Y0124845D01*
X0155051Y0125477D02*
X0154051Y0125477D01*
X0154051Y0124844D02*
X0151724Y0124844D01*
X0151724Y0123845D01*
X0154051Y0123845D01*
X0154051Y0124844D01*
X0154051Y0124478D02*
X0151724Y0124478D01*
X0154051Y0126475D02*
X0155051Y0126475D01*
X0155051Y0127474D02*
X0154051Y0127474D01*
X0154051Y0128472D02*
X0155051Y0128472D01*
X0155051Y0129471D02*
X0154051Y0129471D01*
X0154051Y0130469D02*
X0155051Y0130469D01*
X0155051Y0131468D02*
X0154051Y0131468D01*
X0158587Y0136844D02*
X0148547Y0136844D01*
X0147465Y0135762D01*
X0147465Y0132317D01*
X0141433Y0126475D02*
X0139811Y0126475D01*
X0139811Y0125477D02*
X0141433Y0125477D01*
X0142187Y0124478D02*
X0139794Y0124478D01*
X0139131Y0123480D02*
X0143185Y0123480D01*
X0143012Y0115491D02*
X0142768Y0115491D01*
X0142710Y0114493D02*
X0143012Y0114493D01*
X0142961Y0113494D02*
X0147177Y0113494D01*
X0147661Y0110270D02*
X0147661Y0107022D01*
X0149678Y0105506D02*
X0162791Y0105506D01*
X0162791Y0104508D02*
X0144652Y0104508D01*
X0143295Y0108502D02*
X0142961Y0108502D01*
X0142961Y0109500D02*
X0143205Y0109500D01*
X0143026Y0111497D02*
X0142961Y0111497D01*
X0142961Y0112496D02*
X0143012Y0112496D01*
X0139008Y0112496D02*
X0138008Y0112496D01*
X0138008Y0113494D02*
X0139008Y0113494D01*
X0139008Y0111497D02*
X0138008Y0111497D01*
X0138008Y0110499D02*
X0135887Y0110499D01*
X0130831Y0106825D02*
X0130831Y0105841D01*
X0130831Y0106825D02*
X0129256Y0108400D01*
X0129059Y0108203D01*
X0118035Y0108203D01*
X0117550Y0108688D01*
X0115743Y0108502D02*
X0114331Y0108502D01*
X0114331Y0109500D02*
X0114643Y0109500D01*
X0114643Y0110499D02*
X0114331Y0110499D01*
X0114331Y0111497D02*
X0114506Y0111497D01*
X0114450Y0112496D02*
X0114331Y0112496D01*
X0114331Y0113494D02*
X0114503Y0113494D01*
X0114394Y0113616D02*
X0115476Y0112533D01*
X0117519Y0112533D01*
X0117550Y0112502D01*
X0120268Y0112502D01*
X0120299Y0112533D01*
X0120594Y0112533D01*
X0122563Y0114502D01*
X0122850Y0114493D02*
X0120457Y0114493D01*
X0120457Y0114002D02*
X0120457Y0115002D01*
X0122850Y0115002D01*
X0122850Y0114002D01*
X0120457Y0114002D01*
X0122850Y0115002D02*
X0122850Y0119494D01*
X0123850Y0119494D01*
X0123850Y0115002D01*
X0122850Y0115002D01*
X0122850Y0115491D02*
X0123850Y0115491D01*
X0123850Y0115002D02*
X0126050Y0115002D01*
X0126050Y0114502D01*
X0129150Y0114502D01*
X0129150Y0114502D01*
X0126050Y0114502D01*
X0126050Y0114002D01*
X0123850Y0114002D01*
X0123850Y0115002D01*
X0123850Y0114493D02*
X0126050Y0114493D01*
X0123850Y0116490D02*
X0122850Y0116490D01*
X0122850Y0117488D02*
X0123850Y0117488D01*
X0123850Y0118487D02*
X0122850Y0118487D01*
X0122850Y0119485D02*
X0123850Y0119485D01*
X0130471Y0121482D02*
X0134978Y0121482D01*
X0134248Y0120484D02*
X0131048Y0120484D01*
X0134858Y0123480D02*
X0135858Y0123480D01*
X0135858Y0124478D02*
X0134858Y0124478D01*
X0134858Y0125477D02*
X0135858Y0125477D01*
X0135858Y0126475D02*
X0134858Y0126475D01*
X0150220Y0117159D02*
X0152484Y0117159D01*
X0156028Y0117159D01*
X0160063Y0121195D01*
X0160063Y0135368D01*
X0158587Y0136844D01*
X0160528Y0137459D02*
X0162572Y0137459D01*
X0162791Y0136460D02*
X0161527Y0136460D01*
X0161870Y0135462D02*
X0162791Y0135462D01*
X0162791Y0134463D02*
X0161870Y0134463D01*
X0161870Y0133465D02*
X0162791Y0133465D01*
X0162791Y0132466D02*
X0161870Y0132466D01*
X0161870Y0131468D02*
X0162791Y0131468D01*
X0162791Y0130469D02*
X0161870Y0130469D01*
X0161870Y0129471D02*
X0162791Y0129471D01*
X0162791Y0128472D02*
X0161870Y0128472D01*
X0161870Y0127474D02*
X0162791Y0127474D01*
X0162791Y0126475D02*
X0161870Y0126475D01*
X0161870Y0125477D02*
X0162791Y0125477D01*
X0162791Y0124478D02*
X0161870Y0124478D01*
X0161870Y0123480D02*
X0162791Y0123480D01*
X0162791Y0122481D02*
X0161870Y0122481D01*
X0161870Y0121482D02*
X0162791Y0121482D01*
X0162791Y0120484D02*
X0161870Y0120484D01*
X0162791Y0119485D02*
X0160909Y0119485D01*
X0159911Y0118487D02*
X0162791Y0118487D01*
X0162791Y0117488D02*
X0158912Y0117488D01*
X0157914Y0116490D02*
X0162791Y0116490D01*
X0162791Y0115491D02*
X0156915Y0115491D01*
X0154291Y0114493D02*
X0162791Y0114493D01*
X0162791Y0113494D02*
X0154291Y0113494D01*
X0154291Y0112496D02*
X0162791Y0112496D01*
X0162791Y0111497D02*
X0154291Y0111497D01*
X0154291Y0110499D02*
X0162791Y0110499D01*
X0162791Y0109500D02*
X0154271Y0109500D01*
X0153272Y0108502D02*
X0162791Y0108502D01*
X0162791Y0107503D02*
X0150159Y0107503D01*
X0150151Y0106505D02*
X0162791Y0106505D01*
X0152484Y0110270D02*
X0152484Y0117159D01*
X0151008Y0117159D02*
X0150220Y0117159D01*
X0150220Y0110270D02*
X0152484Y0110270D01*
X0141854Y0087238D02*
X0141854Y0084778D01*
X0138902Y0081825D01*
X0138902Y0080447D01*
X0138902Y0080053D01*
X0139295Y0080053D02*
X0138902Y0080447D01*
X0138311Y0081037D01*
X0138902Y0081825D02*
X0136933Y0079856D01*
X0137713Y0074648D02*
X0135386Y0074648D01*
X0135386Y0073648D01*
X0137713Y0073648D01*
X0138713Y0073648D01*
X0140941Y0073648D01*
X0140941Y0074648D01*
X0138713Y0074648D01*
X0138713Y0073648D01*
X0138713Y0069695D01*
X0138713Y0066478D01*
X0137713Y0066478D01*
X0137713Y0073648D01*
X0137713Y0074648D01*
X0137713Y0074552D02*
X0135386Y0074552D01*
X0137713Y0073554D02*
X0138713Y0073554D01*
X0138713Y0074552D02*
X0140941Y0074552D01*
X0138713Y0072555D02*
X0137713Y0072555D01*
X0137713Y0071557D02*
X0138713Y0071557D01*
X0138713Y0070558D02*
X0137713Y0070558D01*
X0137713Y0069560D02*
X0138713Y0069560D01*
X0138713Y0068561D02*
X0137713Y0068561D01*
X0137713Y0067563D02*
X0138713Y0067563D01*
X0138713Y0066564D02*
X0137713Y0066564D01*
X0137713Y0065478D02*
X0138713Y0065478D01*
X0138713Y0061526D01*
X0139134Y0061526D01*
X0136084Y0058476D01*
X0136084Y0059093D01*
X0135704Y0060011D01*
X0135001Y0060714D01*
X0134083Y0061094D01*
X0133090Y0061094D01*
X0132172Y0060714D01*
X0131952Y0060494D01*
X0124136Y0060494D01*
X0124093Y0060537D01*
X0124778Y0060537D01*
X0125270Y0061030D01*
X0128467Y0061030D01*
X0129156Y0061719D01*
X0134620Y0061719D01*
X0134730Y0061828D01*
X0134733Y0061825D01*
X0135075Y0061628D01*
X0135456Y0061526D01*
X0137713Y0061526D01*
X0137713Y0065478D01*
X0137713Y0064567D02*
X0138713Y0064567D01*
X0138713Y0063569D02*
X0137713Y0063569D01*
X0137713Y0062570D02*
X0138713Y0062570D01*
X0138713Y0061572D02*
X0137713Y0061572D01*
X0138181Y0060573D02*
X0135142Y0060573D01*
X0135284Y0061572D02*
X0129009Y0061572D01*
X0126894Y0062927D02*
X0125909Y0063911D01*
X0125516Y0063911D01*
X0124728Y0063124D02*
X0124728Y0062927D01*
X0124814Y0060573D02*
X0132031Y0060573D01*
X0135885Y0059575D02*
X0137183Y0059575D01*
X0136184Y0058576D02*
X0136084Y0058576D01*
X0133845Y0055581D02*
X0130762Y0055581D01*
X0131307Y0054582D02*
X0133845Y0054582D01*
X0133845Y0053584D02*
X0131543Y0053584D01*
X0131543Y0052585D02*
X0133845Y0052585D01*
X0133845Y0051587D02*
X0131543Y0051587D01*
X0131219Y0050588D02*
X0133661Y0050588D01*
X0133661Y0049590D02*
X0130551Y0049590D01*
X0129754Y0047593D02*
X0133661Y0047593D01*
X0136413Y0042600D02*
X0120425Y0042600D01*
X0120425Y0041602D02*
X0136874Y0041602D01*
X0137873Y0040603D02*
X0120425Y0040603D01*
X0120425Y0039605D02*
X0141635Y0039605D01*
X0140637Y0038606D02*
X0120425Y0038606D01*
X0120425Y0037608D02*
X0139638Y0037608D01*
X0138640Y0036609D02*
X0120425Y0036609D01*
X0120425Y0035611D02*
X0138185Y0035611D01*
X0138185Y0034612D02*
X0120425Y0034612D01*
X0120425Y0033613D02*
X0138185Y0033613D01*
X0138185Y0032615D02*
X0120425Y0032615D01*
X0120236Y0031616D02*
X0138185Y0031616D01*
X0138185Y0030618D02*
X0120236Y0030618D01*
X0118429Y0028872D02*
X0118429Y0037435D01*
X0116067Y0037435D01*
X0113705Y0037435D01*
X0111343Y0037435D01*
X0108980Y0036609D02*
X0108980Y0036609D01*
X0108980Y0035611D02*
X0108980Y0035611D01*
X0108980Y0034612D02*
X0108980Y0034612D01*
X0108980Y0033613D02*
X0108980Y0033613D01*
X0108980Y0032615D02*
X0108980Y0032615D01*
X0108980Y0031616D02*
X0108980Y0031616D01*
X0106618Y0031616D02*
X0106618Y0031616D01*
X0106618Y0032615D02*
X0106618Y0032615D01*
X0106618Y0033613D02*
X0106618Y0033613D01*
X0106618Y0034612D02*
X0106618Y0034612D01*
X0106618Y0035611D02*
X0106618Y0035611D01*
X0106618Y0036609D02*
X0106618Y0036609D01*
X0106618Y0037435D02*
X0106618Y0037435D01*
X0106618Y0037608D02*
X0106618Y0037608D01*
X0106618Y0038606D02*
X0106618Y0038606D01*
X0106618Y0039605D02*
X0106618Y0039605D01*
X0106618Y0040603D02*
X0106618Y0040603D01*
X0106618Y0041602D02*
X0106618Y0041602D01*
X0106618Y0042600D02*
X0106618Y0042600D01*
X0106618Y0043599D02*
X0106618Y0043599D01*
X0104256Y0043599D02*
X0104256Y0043599D01*
X0104256Y0042600D02*
X0104256Y0042600D01*
X0104256Y0041602D02*
X0104256Y0041602D01*
X0104256Y0040603D02*
X0104256Y0040603D01*
X0104256Y0039605D02*
X0104256Y0039605D01*
X0104256Y0038606D02*
X0104256Y0038606D01*
X0104256Y0037608D02*
X0104256Y0037608D01*
X0104256Y0036609D02*
X0104256Y0036609D01*
X0104256Y0035611D02*
X0104256Y0035611D01*
X0104256Y0034612D02*
X0104256Y0034612D01*
X0104256Y0033613D02*
X0104256Y0033613D01*
X0104256Y0032615D02*
X0104256Y0032615D01*
X0104256Y0031616D02*
X0104256Y0031616D01*
X0101894Y0031616D02*
X0101894Y0031616D01*
X0101894Y0032615D02*
X0101894Y0032615D01*
X0101894Y0033613D02*
X0101894Y0033613D01*
X0101894Y0034612D02*
X0101894Y0034612D01*
X0101894Y0035611D02*
X0101894Y0035611D01*
X0101894Y0036609D02*
X0101894Y0036609D01*
X0101894Y0037435D02*
X0101894Y0043758D01*
X0101007Y0043758D01*
X0100626Y0043656D01*
X0100469Y0043565D01*
X0091508Y0043565D01*
X0091351Y0043656D01*
X0090969Y0043758D01*
X0090083Y0043758D01*
X0090083Y0037435D01*
X0090083Y0031112D01*
X0090547Y0031112D01*
X0090547Y0024343D01*
X0089100Y0022896D01*
X0032404Y0022896D01*
X0028201Y0027099D01*
X0028201Y0044044D01*
X0028201Y0043599D02*
X0081629Y0043599D01*
X0082996Y0043599D02*
X0082996Y0043599D01*
X0082996Y0043758D02*
X0082996Y0037435D01*
X0082996Y0037435D01*
X0082996Y0037435D01*
X0085358Y0037435D01*
X0085358Y0037435D01*
X0085358Y0037435D01*
X0085358Y0043758D01*
X0084472Y0043758D01*
X0084177Y0043679D01*
X0083883Y0043758D01*
X0082996Y0043758D01*
X0082996Y0042600D02*
X0082996Y0042600D01*
X0082996Y0041602D02*
X0082996Y0041602D01*
X0082996Y0040603D02*
X0082996Y0040603D01*
X0082996Y0039605D02*
X0082996Y0039605D01*
X0082996Y0038606D02*
X0082996Y0038606D01*
X0082996Y0037608D02*
X0082996Y0037608D01*
X0082996Y0036609D02*
X0082996Y0036609D01*
X0082996Y0035611D02*
X0082996Y0035611D01*
X0082996Y0034612D02*
X0082996Y0034612D01*
X0082996Y0033613D02*
X0082996Y0033613D01*
X0082996Y0032615D02*
X0082996Y0032615D01*
X0082996Y0031616D02*
X0082996Y0031616D01*
X0082441Y0030618D02*
X0090547Y0030618D01*
X0090083Y0031112D02*
X0090083Y0037435D01*
X0090083Y0037435D01*
X0090083Y0037435D01*
X0090083Y0043758D01*
X0089196Y0043758D01*
X0088902Y0043679D01*
X0088607Y0043758D01*
X0087721Y0043758D01*
X0087721Y0037435D01*
X0090083Y0037435D01*
X0087894Y0037435D01*
X0087721Y0037435D01*
X0087721Y0037435D01*
X0087721Y0031112D01*
X0088607Y0031112D01*
X0088902Y0031191D01*
X0089196Y0031112D01*
X0090083Y0031112D01*
X0090083Y0031616D02*
X0090083Y0031616D01*
X0090083Y0032615D02*
X0090083Y0032615D01*
X0090083Y0033613D02*
X0090083Y0033613D01*
X0090083Y0034612D02*
X0090083Y0034612D01*
X0090083Y0035611D02*
X0090083Y0035611D01*
X0090083Y0036609D02*
X0090083Y0036609D01*
X0090083Y0037435D02*
X0090083Y0037435D01*
X0090083Y0037608D02*
X0090083Y0037608D01*
X0090083Y0038606D02*
X0090083Y0038606D01*
X0090083Y0039605D02*
X0090083Y0039605D01*
X0090083Y0040603D02*
X0090083Y0040603D01*
X0090083Y0041602D02*
X0090083Y0041602D01*
X0090083Y0042600D02*
X0090083Y0042600D01*
X0090083Y0043599D02*
X0090083Y0043599D01*
X0091449Y0043599D02*
X0100527Y0043599D01*
X0101894Y0043599D02*
X0101894Y0043599D01*
X0101894Y0042600D02*
X0101894Y0042600D01*
X0101894Y0041602D02*
X0101894Y0041602D01*
X0101894Y0040603D02*
X0101894Y0040603D01*
X0101894Y0039605D02*
X0101894Y0039605D01*
X0101894Y0038606D02*
X0101894Y0038606D01*
X0101894Y0037608D02*
X0101894Y0037608D01*
X0099531Y0037435D02*
X0099531Y0025722D01*
X0101862Y0026624D02*
X0117330Y0026624D01*
X0116243Y0027622D02*
X0101339Y0027622D01*
X0101339Y0028621D02*
X0115931Y0028621D01*
X0116035Y0029619D02*
X0101339Y0029619D01*
X0101339Y0030618D02*
X0116622Y0030618D01*
X0106814Y0022644D02*
X0142050Y0022644D01*
X0143821Y0024415D01*
X0144933Y0025527D01*
X0144933Y0025659D01*
X0146121Y0023601D01*
X0148197Y0021525D01*
X0150603Y0020136D01*
X0104831Y0020136D01*
X0104982Y0020501D01*
X0104982Y0020812D01*
X0106814Y0022644D01*
X0106800Y0022630D02*
X0147092Y0022630D01*
X0146105Y0023628D02*
X0143034Y0023628D01*
X0144033Y0024627D02*
X0145529Y0024627D01*
X0144953Y0025625D02*
X0144933Y0025625D01*
X0148091Y0021631D02*
X0105801Y0021631D01*
X0104982Y0020633D02*
X0149742Y0020633D01*
X0150811Y0046594D02*
X0155515Y0046594D01*
X0156513Y0047593D02*
X0150848Y0047593D01*
X0132072Y0056579D02*
X0129494Y0056579D01*
X0121972Y0054856D02*
X0118528Y0054856D01*
X0118429Y0054955D01*
X0116067Y0054955D01*
X0113705Y0054955D02*
X0113705Y0054955D01*
X0113705Y0048632D01*
X0112818Y0048632D01*
X0112524Y0048711D01*
X0112229Y0048632D01*
X0111343Y0048632D01*
X0111343Y0054955D01*
X0111342Y0054955D01*
X0111342Y0054582D02*
X0111343Y0054582D01*
X0111342Y0053584D02*
X0111343Y0053584D01*
X0111342Y0052585D02*
X0111343Y0052585D01*
X0111342Y0051587D02*
X0111343Y0051587D01*
X0111342Y0050588D02*
X0111343Y0050588D01*
X0111342Y0049590D02*
X0111343Y0049590D01*
X0113705Y0049590D02*
X0113705Y0049590D01*
X0113705Y0050588D02*
X0113705Y0050588D01*
X0113705Y0051587D02*
X0113705Y0051587D01*
X0113705Y0052585D02*
X0113705Y0052585D01*
X0113705Y0053584D02*
X0113705Y0053584D01*
X0113705Y0054582D02*
X0113705Y0054582D01*
X0108980Y0054955D02*
X0106618Y0054955D01*
X0104256Y0054955D02*
X0104256Y0054955D01*
X0104256Y0061278D01*
X0105142Y0061278D01*
X0105524Y0061175D01*
X0105681Y0061085D01*
X0107083Y0061085D01*
X0107083Y0061157D01*
X0107083Y0062086D01*
X0106420Y0061423D01*
X0101363Y0061423D01*
X0101339Y0061399D01*
X0101339Y0061278D01*
X0101894Y0061278D01*
X0101894Y0054955D01*
X0104083Y0054955D01*
X0104256Y0054955D01*
X0104256Y0061278D01*
X0103369Y0061278D01*
X0103075Y0061199D01*
X0102780Y0061278D01*
X0101894Y0061278D01*
X0101894Y0054955D01*
X0101894Y0054955D01*
X0101894Y0054955D01*
X0104256Y0054955D01*
X0101894Y0054955D01*
X0101894Y0048632D01*
X0101894Y0054955D01*
X0101894Y0054955D01*
X0101894Y0054582D02*
X0101894Y0054582D01*
X0101894Y0053584D02*
X0101894Y0053584D01*
X0101894Y0052585D02*
X0101894Y0052585D01*
X0101894Y0051587D02*
X0101894Y0051587D01*
X0101894Y0050588D02*
X0101894Y0050588D01*
X0101894Y0049590D02*
X0101894Y0049590D01*
X0104256Y0049590D02*
X0104256Y0049590D01*
X0104256Y0048632D02*
X0104256Y0054955D01*
X0104256Y0054955D01*
X0104256Y0054955D01*
X0104256Y0048632D01*
X0104256Y0050588D02*
X0104256Y0050588D01*
X0104256Y0051587D02*
X0104256Y0051587D01*
X0104256Y0052585D02*
X0104256Y0052585D01*
X0104256Y0053584D02*
X0104256Y0053584D01*
X0104256Y0054582D02*
X0104256Y0054582D01*
X0104256Y0055581D02*
X0104256Y0055581D01*
X0104256Y0056579D02*
X0104256Y0056579D01*
X0104256Y0057578D02*
X0104256Y0057578D01*
X0104256Y0058576D02*
X0104256Y0058576D01*
X0104256Y0059575D02*
X0104256Y0059575D01*
X0104256Y0060573D02*
X0104256Y0060573D01*
X0101894Y0060573D02*
X0101894Y0060573D01*
X0101894Y0059575D02*
X0101894Y0059575D01*
X0101894Y0058576D02*
X0101894Y0058576D01*
X0101894Y0057578D02*
X0101894Y0057578D01*
X0101894Y0056579D02*
X0101894Y0056579D01*
X0101894Y0055581D02*
X0101894Y0055581D01*
X0099531Y0054955D02*
X0099531Y0063124D01*
X0096548Y0066564D02*
X0096193Y0066564D01*
X0096193Y0066447D02*
X0095660Y0066447D01*
X0095730Y0066278D01*
X0095730Y0065746D01*
X0097161Y0067178D01*
X0097161Y0070612D01*
X0096193Y0070612D01*
X0096193Y0066447D01*
X0096193Y0067563D02*
X0097161Y0067563D01*
X0097161Y0068561D02*
X0096193Y0068561D01*
X0096193Y0069560D02*
X0097161Y0069560D01*
X0097161Y0070558D02*
X0096193Y0070558D01*
X0096193Y0070612D02*
X0095224Y0070612D01*
X0095224Y0071096D01*
X0094047Y0071096D01*
X0094047Y0071097D01*
X0095224Y0071097D01*
X0095224Y0071581D01*
X0096193Y0071581D01*
X0096193Y0074506D01*
X0097161Y0074506D01*
X0097161Y0071581D01*
X0096193Y0071581D01*
X0096193Y0070612D01*
X0096193Y0071557D02*
X0095224Y0071557D01*
X0096193Y0072555D02*
X0097161Y0072555D01*
X0097161Y0071581D02*
X0098315Y0071581D01*
X0098315Y0070612D01*
X0097161Y0070612D01*
X0097161Y0071581D01*
X0097161Y0071557D02*
X0098315Y0071557D01*
X0100122Y0071096D02*
X0101303Y0071096D01*
X0102878Y0072671D01*
X0102878Y0078577D01*
X0101929Y0080887D02*
X0101929Y0082978D01*
X0103223Y0082978D01*
X0103332Y0083088D01*
X0103335Y0083085D01*
X0103677Y0082888D01*
X0104058Y0082785D01*
X0106315Y0082785D01*
X0106315Y0086738D01*
X0107315Y0086738D01*
X0107315Y0082785D01*
X0109551Y0082785D01*
X0107051Y0080285D01*
X0105992Y0079227D01*
X0105376Y0078610D01*
X0105376Y0079074D01*
X0104995Y0079992D01*
X0104293Y0080694D01*
X0103375Y0081074D01*
X0102381Y0081074D01*
X0101929Y0080887D01*
X0101929Y0081542D02*
X0108307Y0081542D01*
X0107309Y0080544D02*
X0104443Y0080544D01*
X0105180Y0079545D02*
X0106310Y0079545D01*
X0107799Y0078478D02*
X0105634Y0076313D01*
X0105634Y0075329D02*
X0106618Y0076313D01*
X0111736Y0076313D01*
X0112524Y0075526D01*
X0109563Y0074415D02*
X0109563Y0071876D01*
X0110626Y0071876D01*
X0110626Y0070907D01*
X0109563Y0070907D01*
X0109563Y0067581D01*
X0108594Y0067581D01*
X0108594Y0070907D01*
X0109563Y0070907D01*
X0109563Y0071876D01*
X0108594Y0071876D01*
X0108594Y0070907D01*
X0107626Y0070907D01*
X0107626Y0071392D01*
X0107626Y0071876D01*
X0108594Y0071876D01*
X0108594Y0074415D01*
X0109563Y0074415D01*
X0109563Y0073554D02*
X0108594Y0073554D01*
X0108594Y0072555D02*
X0109563Y0072555D01*
X0109563Y0071557D02*
X0110626Y0071557D01*
X0109563Y0070558D02*
X0108594Y0070558D01*
X0108594Y0069560D02*
X0109563Y0069560D01*
X0109563Y0068561D02*
X0108594Y0068561D01*
X0107626Y0071392D02*
X0106449Y0071392D01*
X0107626Y0071392D01*
X0107626Y0071557D02*
X0108594Y0071557D01*
X0106449Y0071392D02*
X0106449Y0071392D01*
X0107799Y0076510D02*
X0107996Y0076510D01*
X0108193Y0076707D01*
X0107209Y0077691D01*
X0107209Y0076904D01*
X0107799Y0076510D02*
X0107799Y0078478D01*
X0116461Y0087140D01*
X0114855Y0082978D02*
X0119660Y0082978D01*
X0119769Y0083088D01*
X0119772Y0083085D01*
X0120114Y0082888D01*
X0120495Y0082785D01*
X0122752Y0082785D01*
X0122752Y0086738D01*
X0123752Y0086738D01*
X0123752Y0082785D01*
X0123990Y0082785D01*
X0118932Y0077728D01*
X0118129Y0077728D01*
X0117528Y0077479D01*
X0117777Y0078080D01*
X0117777Y0079074D01*
X0117397Y0079992D01*
X0116694Y0080694D01*
X0115776Y0081074D01*
X0114783Y0081074D01*
X0113865Y0080694D01*
X0113162Y0079992D01*
X0112782Y0079074D01*
X0112782Y0078211D01*
X0110087Y0078211D01*
X0114855Y0082978D01*
X0114417Y0082541D02*
X0123745Y0082541D01*
X0123752Y0083539D02*
X0122752Y0083539D01*
X0122752Y0084538D02*
X0123752Y0084538D01*
X0123752Y0085536D02*
X0122752Y0085536D01*
X0122752Y0086535D02*
X0123752Y0086535D01*
X0123752Y0087738D02*
X0122752Y0087738D01*
X0122752Y0091246D01*
X0123752Y0091246D01*
X0123752Y0087738D01*
X0123752Y0088532D02*
X0122752Y0088532D01*
X0122752Y0089530D02*
X0123752Y0089530D01*
X0123752Y0090529D02*
X0122752Y0090529D01*
X0117059Y0091498D02*
X0117059Y0095006D01*
X0116059Y0095006D01*
X0112500Y0095006D01*
X0112500Y0092356D01*
X0112602Y0091974D01*
X0112800Y0091632D01*
X0113079Y0091353D01*
X0113228Y0091267D01*
X0112693Y0090732D01*
X0112693Y0085928D01*
X0110874Y0084109D01*
X0110874Y0086738D01*
X0107315Y0086738D01*
X0107315Y0087738D01*
X0110874Y0087738D01*
X0110874Y0090388D01*
X0110772Y0090770D01*
X0110574Y0091112D01*
X0110314Y0091372D01*
X0110574Y0091632D01*
X0110772Y0091974D01*
X0110874Y0092356D01*
X0110874Y0095006D01*
X0107315Y0095006D01*
X0107315Y0096006D01*
X0106315Y0096006D01*
X0106315Y0099959D01*
X0104058Y0099959D01*
X0103677Y0099856D01*
X0103335Y0099659D01*
X0103332Y0099656D01*
X0103223Y0099766D01*
X0102028Y0099766D01*
X0102028Y0100585D01*
X0101929Y0100684D01*
X0100871Y0101742D01*
X0061673Y0101742D01*
X0061673Y0101746D01*
X0068071Y0108143D01*
X0068071Y0111883D01*
X0068292Y0112104D01*
X0073094Y0112104D01*
X0074078Y0111120D01*
X0079512Y0111120D01*
X0080571Y0112179D01*
X0083228Y0114836D01*
X0083228Y0119093D01*
X0109807Y0119093D01*
X0110717Y0118183D01*
X0110717Y0106710D01*
X0109928Y0106383D01*
X0109225Y0105681D01*
X0108845Y0104763D01*
X0108845Y0103769D01*
X0109225Y0102851D01*
X0109928Y0102148D01*
X0110846Y0101768D01*
X0111839Y0101768D01*
X0112757Y0102148D01*
X0113268Y0102659D01*
X0120960Y0102659D01*
X0120853Y0102400D01*
X0120853Y0101407D01*
X0121233Y0100489D01*
X0121936Y0099786D01*
X0121985Y0099766D01*
X0120151Y0099766D01*
X0120042Y0099656D01*
X0120039Y0099659D01*
X0119697Y0099856D01*
X0119316Y0099959D01*
X0117059Y0099959D01*
X0117059Y0096006D01*
X0116059Y0096006D01*
X0116059Y0099959D01*
X0113803Y0099959D01*
X0113421Y0099856D01*
X0113079Y0099659D01*
X0112800Y0099380D01*
X0112602Y0099038D01*
X0112500Y0098656D01*
X0112500Y0096006D01*
X0116059Y0096006D01*
X0116059Y0095006D01*
X0116059Y0091498D01*
X0117059Y0091498D01*
X0117059Y0091527D02*
X0116059Y0091527D01*
X0116059Y0092526D02*
X0117059Y0092526D01*
X0117059Y0093524D02*
X0116059Y0093524D01*
X0116059Y0094523D02*
X0117059Y0094523D01*
X0116059Y0095521D02*
X0107315Y0095521D01*
X0107315Y0096006D02*
X0110874Y0096006D01*
X0110874Y0098656D01*
X0110772Y0099038D01*
X0110574Y0099380D01*
X0110295Y0099659D01*
X0109953Y0099856D01*
X0109571Y0099959D01*
X0107315Y0099959D01*
X0107315Y0096006D01*
X0107315Y0096520D02*
X0106315Y0096520D01*
X0106315Y0097518D02*
X0107315Y0097518D01*
X0107315Y0098517D02*
X0106315Y0098517D01*
X0106315Y0099515D02*
X0107315Y0099515D01*
X0110439Y0099515D02*
X0112935Y0099515D01*
X0112500Y0098517D02*
X0110874Y0098517D01*
X0110874Y0097518D02*
X0112500Y0097518D01*
X0112500Y0096520D02*
X0110874Y0096520D01*
X0110874Y0094523D02*
X0112500Y0094523D01*
X0112500Y0093524D02*
X0110874Y0093524D01*
X0110874Y0092526D02*
X0112500Y0092526D01*
X0112905Y0091527D02*
X0110469Y0091527D01*
X0110836Y0090529D02*
X0112693Y0090529D01*
X0112693Y0089530D02*
X0110874Y0089530D01*
X0110874Y0088532D02*
X0112693Y0088532D01*
X0112693Y0087533D02*
X0107315Y0087533D01*
X0107315Y0087738D02*
X0106315Y0087738D01*
X0106315Y0095006D01*
X0107315Y0095006D01*
X0107315Y0091053D01*
X0107315Y0087738D01*
X0107315Y0088532D02*
X0106315Y0088532D01*
X0106315Y0089530D02*
X0107315Y0089530D01*
X0107315Y0090529D02*
X0106315Y0090529D01*
X0106315Y0091527D02*
X0107315Y0091527D01*
X0107315Y0092526D02*
X0106315Y0092526D01*
X0106315Y0093524D02*
X0107315Y0093524D01*
X0107315Y0094523D02*
X0106315Y0094523D01*
X0102028Y0100514D02*
X0121223Y0100514D01*
X0120853Y0101512D02*
X0101100Y0101512D01*
X0096256Y0097518D02*
X0094146Y0097518D01*
X0094146Y0096520D02*
X0096256Y0096520D01*
X0090378Y0095506D02*
X0090181Y0095703D01*
X0090181Y0099837D01*
X0090083Y0099935D01*
X0090280Y0095506D02*
X0090378Y0095506D01*
X0083087Y0095521D02*
X0077709Y0095521D01*
X0077709Y0094523D02*
X0079528Y0094523D01*
X0079528Y0095006D02*
X0079528Y0092356D01*
X0079630Y0091974D01*
X0079827Y0091632D01*
X0080107Y0091353D01*
X0080255Y0091267D01*
X0079720Y0090732D01*
X0079720Y0085928D01*
X0079220Y0085428D01*
X0079220Y0077920D01*
X0076756Y0080384D01*
X0074583Y0080384D01*
X0074273Y0080694D01*
X0073355Y0081074D01*
X0072361Y0081074D01*
X0071731Y0080813D01*
X0070987Y0081557D01*
X0070987Y0081557D01*
X0069566Y0082978D01*
X0070250Y0082978D01*
X0070360Y0083088D01*
X0070362Y0083085D01*
X0070704Y0082888D01*
X0071086Y0082785D01*
X0073343Y0082785D01*
X0073343Y0086738D01*
X0074342Y0086738D01*
X0074342Y0082785D01*
X0076599Y0082785D01*
X0076981Y0082888D01*
X0077323Y0083085D01*
X0077602Y0083364D01*
X0077799Y0083706D01*
X0077902Y0084088D01*
X0077902Y0086738D01*
X0074343Y0086738D01*
X0074343Y0087738D01*
X0077902Y0087738D01*
X0077902Y0090388D01*
X0077799Y0090770D01*
X0077602Y0091112D01*
X0077323Y0091391D01*
X0077174Y0091477D01*
X0077709Y0092012D01*
X0077709Y0098128D01*
X0079528Y0098128D01*
X0079528Y0096006D01*
X0083087Y0096006D01*
X0083087Y0095006D01*
X0079528Y0095006D01*
X0079528Y0093524D02*
X0077709Y0093524D01*
X0077709Y0092526D02*
X0079528Y0092526D01*
X0079932Y0091527D02*
X0077224Y0091527D01*
X0077864Y0090529D02*
X0079720Y0090529D01*
X0079720Y0089530D02*
X0077902Y0089530D01*
X0077902Y0088532D02*
X0079720Y0088532D01*
X0079720Y0087533D02*
X0074343Y0087533D01*
X0074342Y0086535D02*
X0073343Y0086535D01*
X0073343Y0085536D02*
X0074342Y0085536D01*
X0074342Y0084538D02*
X0073343Y0084538D01*
X0073343Y0083539D02*
X0074342Y0083539D01*
X0074424Y0080544D02*
X0079220Y0080544D01*
X0079220Y0081542D02*
X0071002Y0081542D01*
X0070003Y0082541D02*
X0079220Y0082541D01*
X0079220Y0083539D02*
X0077703Y0083539D01*
X0077902Y0084538D02*
X0079220Y0084538D01*
X0079329Y0085536D02*
X0077902Y0085536D01*
X0077902Y0086535D02*
X0079720Y0086535D01*
X0079220Y0079545D02*
X0077595Y0079545D01*
X0078594Y0078547D02*
X0079220Y0078547D01*
X0081028Y0077494D02*
X0081028Y0076313D01*
X0082012Y0076313D01*
X0081028Y0075329D01*
X0081028Y0076313D01*
X0082012Y0076313D02*
X0082209Y0076313D01*
X0081028Y0075329D02*
X0081028Y0073656D01*
X0078173Y0071785D02*
X0078173Y0076411D01*
X0076008Y0078577D01*
X0072858Y0078577D01*
X0074728Y0075722D02*
X0075713Y0074738D01*
X0075713Y0068537D02*
X0075713Y0064699D01*
X0073941Y0062927D01*
X0071185Y0062927D01*
X0071185Y0054955D01*
X0068823Y0054955D01*
X0066461Y0054955D02*
X0066461Y0054955D01*
X0066460Y0054955D02*
X0066460Y0054955D01*
X0064272Y0054955D01*
X0064099Y0054955D01*
X0064099Y0054955D01*
X0066460Y0054955D01*
X0066461Y0054955D02*
X0066461Y0048632D01*
X0065574Y0048632D01*
X0065280Y0048711D01*
X0064985Y0048632D01*
X0064098Y0048632D01*
X0064098Y0054955D01*
X0064098Y0054955D01*
X0064098Y0054582D02*
X0064098Y0054582D01*
X0064098Y0053584D02*
X0064098Y0053584D01*
X0064098Y0052585D02*
X0064098Y0052585D01*
X0064098Y0051587D02*
X0064098Y0051587D01*
X0064098Y0050588D02*
X0064098Y0050588D01*
X0064098Y0049590D02*
X0064098Y0049590D01*
X0066461Y0049590D02*
X0066461Y0049590D01*
X0066461Y0050588D02*
X0066461Y0050588D01*
X0066461Y0051587D02*
X0066461Y0051587D01*
X0066461Y0052585D02*
X0066461Y0052585D01*
X0066461Y0053584D02*
X0066461Y0053584D01*
X0066461Y0054582D02*
X0066461Y0054582D01*
X0066461Y0055581D02*
X0066461Y0055581D01*
X0066461Y0056579D02*
X0066461Y0056579D01*
X0066461Y0057578D02*
X0066461Y0057578D01*
X0066461Y0058576D02*
X0066461Y0058576D01*
X0066461Y0059575D02*
X0066461Y0059575D01*
X0066461Y0060573D02*
X0066461Y0060573D01*
X0064098Y0060573D02*
X0064098Y0060573D01*
X0064098Y0059575D02*
X0064098Y0059575D01*
X0064098Y0058576D02*
X0064098Y0058576D01*
X0064098Y0057578D02*
X0064098Y0057578D01*
X0064098Y0056579D02*
X0064098Y0056579D01*
X0064098Y0055581D02*
X0064098Y0055581D01*
X0061736Y0054955D02*
X0061736Y0065978D01*
X0063855Y0064567D02*
X0065021Y0064567D01*
X0063543Y0063569D02*
X0067638Y0063569D01*
X0068687Y0062570D02*
X0063543Y0062570D01*
X0063543Y0061572D02*
X0069043Y0061572D01*
X0068823Y0065781D02*
X0068823Y0068537D01*
X0064492Y0071195D02*
X0064483Y0071195D01*
X0064404Y0071115D01*
X0064404Y0078515D02*
X0062866Y0080053D01*
X0059965Y0080053D01*
X0061690Y0081860D02*
X0061379Y0082171D01*
X0060461Y0082551D01*
X0059468Y0082551D01*
X0058550Y0082171D01*
X0057847Y0081468D01*
X0057467Y0080550D01*
X0057467Y0079556D01*
X0057573Y0079301D01*
X0056453Y0079301D01*
X0057244Y0080092D01*
X0057244Y0085210D01*
X0059829Y0087795D01*
X0059829Y0087037D01*
X0060209Y0086119D01*
X0060912Y0085416D01*
X0061830Y0085036D01*
X0062824Y0085036D01*
X0063283Y0085226D01*
X0063283Y0083744D01*
X0064049Y0082978D01*
X0065252Y0082978D01*
X0065252Y0081925D01*
X0066254Y0080922D01*
X0064552Y0080922D01*
X0063615Y0081860D01*
X0061690Y0081860D01*
X0060486Y0082541D02*
X0065252Y0082541D01*
X0065635Y0081542D02*
X0063933Y0081542D01*
X0063488Y0083539D02*
X0057244Y0083539D01*
X0057244Y0082541D02*
X0059443Y0082541D01*
X0057921Y0081542D02*
X0057244Y0081542D01*
X0057244Y0080544D02*
X0057467Y0080544D01*
X0057472Y0079545D02*
X0056697Y0079545D01*
X0056254Y0075687D02*
X0056254Y0074865D01*
X0056154Y0074865D01*
X0056154Y0075687D01*
X0056254Y0075687D01*
X0056254Y0075551D02*
X0056154Y0075551D01*
X0056154Y0074552D02*
X0056254Y0074552D01*
X0056254Y0073554D02*
X0056154Y0073554D01*
X0056154Y0072555D02*
X0056254Y0072555D01*
X0056978Y0066307D02*
X0057012Y0066274D01*
X0057012Y0054955D01*
X0054650Y0054955D02*
X0054650Y0054955D01*
X0054650Y0061278D01*
X0055205Y0061278D01*
X0055205Y0064549D01*
X0054894Y0064859D01*
X0054650Y0065450D01*
X0054405Y0064859D01*
X0054094Y0064549D01*
X0054094Y0061278D01*
X0054650Y0061278D01*
X0054650Y0054955D01*
X0054650Y0063124D01*
X0055205Y0063569D02*
X0054094Y0063569D01*
X0054113Y0064567D02*
X0055186Y0064567D01*
X0055205Y0062570D02*
X0054094Y0062570D01*
X0054094Y0061572D02*
X0055205Y0061572D01*
X0054650Y0060573D02*
X0054650Y0060573D01*
X0054650Y0059575D02*
X0054650Y0059575D01*
X0054650Y0058576D02*
X0054650Y0058576D01*
X0054650Y0057578D02*
X0054650Y0057578D01*
X0054650Y0056579D02*
X0054650Y0056579D01*
X0054650Y0055581D02*
X0054650Y0055581D01*
X0054650Y0054955D02*
X0054650Y0048632D01*
X0054650Y0054955D01*
X0054650Y0054955D01*
X0054650Y0054582D02*
X0054650Y0054582D01*
X0054650Y0053584D02*
X0054650Y0053584D01*
X0054650Y0052585D02*
X0054650Y0052585D01*
X0054650Y0051587D02*
X0054650Y0051587D01*
X0054650Y0050588D02*
X0054650Y0050588D01*
X0054650Y0049590D02*
X0054650Y0049590D01*
X0052287Y0054955D02*
X0052287Y0066274D01*
X0049925Y0063124D02*
X0049925Y0054955D01*
X0045428Y0048591D02*
X0122724Y0048591D01*
X0122390Y0049590D02*
X0120424Y0049590D01*
X0120425Y0050588D02*
X0121392Y0050588D01*
X0121571Y0064825D02*
X0120602Y0064825D01*
X0120602Y0065888D01*
X0116437Y0065888D01*
X0116437Y0064825D01*
X0113168Y0064825D01*
X0113240Y0064897D01*
X0113310Y0064967D01*
X0114421Y0066078D01*
X0114421Y0067209D01*
X0114913Y0067701D01*
X0114913Y0069494D01*
X0115081Y0069494D01*
X0116193Y0070606D01*
X0116630Y0071043D01*
X0116630Y0070850D01*
X0116630Y0069077D01*
X0116539Y0068920D01*
X0116437Y0068538D01*
X0116437Y0066856D01*
X0120602Y0066856D01*
X0120602Y0065888D01*
X0121571Y0065888D01*
X0123815Y0065888D01*
X0123815Y0066856D01*
X0121571Y0066856D01*
X0121571Y0065888D01*
X0121571Y0064825D01*
X0121571Y0065566D02*
X0120602Y0065566D01*
X0120602Y0066564D02*
X0114421Y0066564D01*
X0114776Y0067563D02*
X0116437Y0067563D01*
X0116443Y0068561D02*
X0114913Y0068561D01*
X0115147Y0069560D02*
X0116630Y0069560D01*
X0116630Y0070558D02*
X0116146Y0070558D01*
X0116193Y0070606D02*
X0116193Y0070606D01*
X0118626Y0072967D02*
X0120004Y0074344D01*
X0120398Y0074738D01*
X0120594Y0074738D01*
X0120988Y0074344D01*
X0120594Y0074738D02*
X0120201Y0075132D01*
X0120004Y0075919D02*
X0120004Y0074344D01*
X0117695Y0077548D02*
X0117557Y0077548D01*
X0117777Y0078547D02*
X0119751Y0078547D01*
X0120749Y0079545D02*
X0117582Y0079545D01*
X0116845Y0080544D02*
X0121748Y0080544D01*
X0122746Y0081542D02*
X0113418Y0081542D01*
X0113714Y0080544D02*
X0112420Y0080544D01*
X0112977Y0079545D02*
X0111421Y0079545D01*
X0110423Y0078547D02*
X0112782Y0078547D01*
X0109306Y0082541D02*
X0101929Y0082541D01*
X0106315Y0083539D02*
X0107315Y0083539D01*
X0107315Y0084538D02*
X0106315Y0084538D01*
X0106315Y0085536D02*
X0107315Y0085536D01*
X0107315Y0086535D02*
X0106315Y0086535D01*
X0110874Y0086535D02*
X0112693Y0086535D01*
X0112301Y0085536D02*
X0110874Y0085536D01*
X0110874Y0084538D02*
X0111303Y0084538D01*
X0116059Y0096520D02*
X0117059Y0096520D01*
X0117059Y0097518D02*
X0116059Y0097518D01*
X0116059Y0098517D02*
X0117059Y0098517D01*
X0117059Y0099515D02*
X0116059Y0099515D01*
X0113120Y0102511D02*
X0120898Y0102511D01*
X0109565Y0102511D02*
X0062438Y0102511D01*
X0063437Y0103509D02*
X0108952Y0103509D01*
X0108845Y0104508D02*
X0064435Y0104508D01*
X0065434Y0105506D02*
X0109153Y0105506D01*
X0110222Y0106505D02*
X0066432Y0106505D01*
X0067431Y0107503D02*
X0110717Y0107503D01*
X0110717Y0108502D02*
X0068071Y0108502D01*
X0068071Y0109500D02*
X0110717Y0109500D01*
X0110717Y0110499D02*
X0068071Y0110499D01*
X0068071Y0111497D02*
X0073701Y0111497D01*
X0079890Y0111497D02*
X0110717Y0111497D01*
X0110717Y0112496D02*
X0080888Y0112496D01*
X0081887Y0113494D02*
X0110717Y0113494D01*
X0110717Y0114493D02*
X0082885Y0114493D01*
X0083228Y0115491D02*
X0110717Y0115491D01*
X0110717Y0116490D02*
X0083228Y0116490D01*
X0083228Y0117488D02*
X0110717Y0117488D01*
X0110412Y0118487D02*
X0083228Y0118487D01*
X0088795Y0124577D02*
X0088795Y0126797D01*
X0089795Y0126797D01*
X0089795Y0124577D01*
X0088795Y0124577D01*
X0088795Y0125477D02*
X0089795Y0125477D01*
X0089795Y0126475D02*
X0088795Y0126475D01*
X0089795Y0126797D02*
X0093197Y0126797D01*
X0093197Y0127797D01*
X0089795Y0127797D01*
X0089795Y0126797D01*
X0089795Y0127474D02*
X0093197Y0127474D01*
X0096695Y0123480D02*
X0096940Y0123480D01*
X0100213Y0123480D02*
X0101213Y0123480D01*
X0101213Y0124478D02*
X0100213Y0124478D01*
X0100213Y0125477D02*
X0101213Y0125477D01*
X0101213Y0126475D02*
X0100213Y0126475D01*
X0104485Y0123480D02*
X0108194Y0123480D01*
X0107673Y0124478D02*
X0107371Y0124478D01*
X0107730Y0129471D02*
X0105165Y0129471D01*
X0114394Y0121392D02*
X0114394Y0113616D01*
X0114331Y0114493D02*
X0114643Y0114493D01*
X0114643Y0115491D02*
X0114331Y0115491D01*
X0114331Y0116490D02*
X0114643Y0116490D01*
X0114643Y0117488D02*
X0114331Y0117488D01*
X0114331Y0118487D02*
X0114643Y0118487D01*
X0114643Y0119485D02*
X0114331Y0119485D01*
X0096823Y0142451D02*
X0096811Y0142451D01*
X0093665Y0148442D02*
X0093227Y0148442D01*
X0089795Y0150439D02*
X0088795Y0150439D01*
X0088795Y0151438D02*
X0089795Y0151438D01*
X0089795Y0152436D02*
X0088795Y0152436D01*
X0088795Y0155432D02*
X0089795Y0155432D01*
X0089795Y0156430D02*
X0088795Y0156430D01*
X0091067Y0153478D02*
X0096382Y0158793D01*
X0096291Y0160424D02*
X0096472Y0160424D01*
X0096472Y0161423D02*
X0096291Y0161423D01*
X0096291Y0162421D02*
X0096472Y0162421D01*
X0096895Y0156430D02*
X0093329Y0156430D01*
X0093551Y0155432D02*
X0096453Y0155432D01*
X0075484Y0144235D02*
X0075484Y0141108D01*
X0061667Y0129471D02*
X0059299Y0129471D01*
X0057910Y0127797D02*
X0057664Y0127204D01*
X0057664Y0126797D01*
X0055346Y0126797D01*
X0055346Y0124577D01*
X0054346Y0124577D01*
X0054346Y0126797D01*
X0055346Y0126797D01*
X0055346Y0127797D01*
X0057910Y0127797D01*
X0057776Y0127474D02*
X0055346Y0127474D01*
X0054846Y0127297D02*
X0056127Y0127297D01*
X0055346Y0126475D02*
X0054346Y0126475D01*
X0054346Y0125477D02*
X0055346Y0125477D01*
X0044810Y0113195D02*
X0044810Y0110868D01*
X0043810Y0110868D01*
X0043810Y0109868D01*
X0039857Y0109868D01*
X0039857Y0107612D01*
X0039960Y0107230D01*
X0040157Y0106888D01*
X0040436Y0106609D01*
X0040778Y0106411D01*
X0041160Y0106309D01*
X0043810Y0106309D01*
X0043810Y0109868D01*
X0044810Y0109868D01*
X0044810Y0106309D01*
X0046137Y0106309D01*
X0035091Y0095262D01*
X0035091Y0095358D01*
X0034325Y0096124D01*
X0027730Y0096124D01*
X0026965Y0095358D01*
X0026965Y0089945D01*
X0027730Y0089179D01*
X0034325Y0089179D01*
X0035091Y0089945D01*
X0035091Y0091091D01*
X0035889Y0091091D01*
X0038776Y0093978D01*
X0038776Y0089945D01*
X0039541Y0089179D01*
X0046136Y0089179D01*
X0046203Y0089246D01*
X0046203Y0088183D01*
X0046136Y0088250D01*
X0039541Y0088250D01*
X0038776Y0087484D01*
X0038776Y0082071D01*
X0039541Y0081305D01*
X0046133Y0081305D01*
X0045654Y0080826D01*
X0019079Y0080826D01*
X0015405Y0077152D01*
X0015405Y0081819D01*
X0015919Y0081305D01*
X0022514Y0081305D01*
X0023280Y0082071D01*
X0023280Y0087484D01*
X0022514Y0088250D01*
X0015919Y0088250D01*
X0015405Y0087736D01*
X0015405Y0089693D01*
X0015919Y0089179D01*
X0022514Y0089179D01*
X0023280Y0089945D01*
X0023280Y0095358D01*
X0022514Y0096124D01*
X0015919Y0096124D01*
X0015154Y0095358D01*
X0015154Y0094549D01*
X0013706Y0094549D01*
X0012594Y0093438D01*
X0012256Y0093099D01*
X0012256Y0095358D01*
X0011490Y0096124D01*
X0010091Y0096124D01*
X0010091Y0097476D01*
X0011351Y0098737D01*
X0011686Y0097930D01*
X0012388Y0097227D01*
X0013306Y0096847D01*
X0014300Y0096847D01*
X0015218Y0097227D01*
X0015438Y0097447D01*
X0022562Y0097447D01*
X0024727Y0099612D01*
X0025839Y0100724D01*
X0025839Y0103845D01*
X0027583Y0103845D01*
X0027583Y0103511D01*
X0028348Y0102745D01*
X0030054Y0102745D01*
X0030211Y0102655D01*
X0030592Y0102552D01*
X0031390Y0102552D01*
X0032187Y0102552D01*
X0032390Y0102607D01*
X0032592Y0102552D01*
X0033019Y0102552D01*
X0032762Y0102446D01*
X0032060Y0101744D01*
X0031680Y0100826D01*
X0031680Y0099832D01*
X0032060Y0098914D01*
X0032762Y0098211D01*
X0033680Y0097831D01*
X0034674Y0097831D01*
X0035592Y0098211D01*
X0036295Y0098914D01*
X0036359Y0099069D01*
X0038075Y0100785D01*
X0039134Y0101844D01*
X0039134Y0103448D01*
X0039197Y0103511D01*
X0039197Y0107088D01*
X0039290Y0107181D01*
X0039488Y0107523D01*
X0039590Y0107905D01*
X0039590Y0110852D01*
X0033890Y0110852D01*
X0033890Y0111852D01*
X0039590Y0111852D01*
X0039590Y0114800D01*
X0039488Y0115181D01*
X0039446Y0115254D01*
X0040050Y0115254D01*
X0040050Y0113961D01*
X0040160Y0113851D01*
X0040157Y0113848D01*
X0039960Y0113506D01*
X0039857Y0113125D01*
X0039857Y0110868D01*
X0043810Y0110868D01*
X0043810Y0113195D01*
X0044810Y0113195D01*
X0044810Y0112496D02*
X0043810Y0112496D01*
X0043810Y0111497D02*
X0044810Y0111497D01*
X0044810Y0110868D02*
X0047184Y0110868D01*
X0047184Y0109868D01*
X0044810Y0109868D01*
X0044810Y0110868D01*
X0044810Y0110499D02*
X0047184Y0110499D01*
X0044810Y0109500D02*
X0043810Y0109500D01*
X0043810Y0108502D02*
X0044810Y0108502D01*
X0044810Y0107503D02*
X0043810Y0107503D01*
X0043810Y0106505D02*
X0044810Y0106505D01*
X0045334Y0105506D02*
X0039197Y0105506D01*
X0039197Y0104508D02*
X0044336Y0104508D01*
X0043337Y0103509D02*
X0039195Y0103509D01*
X0039134Y0102511D02*
X0042339Y0102511D01*
X0041340Y0101512D02*
X0038802Y0101512D01*
X0037804Y0100514D02*
X0040342Y0100514D01*
X0039343Y0099515D02*
X0036805Y0099515D01*
X0035897Y0098517D02*
X0038345Y0098517D01*
X0037346Y0097518D02*
X0022633Y0097518D01*
X0023631Y0098517D02*
X0032457Y0098517D01*
X0031811Y0099515D02*
X0024630Y0099515D01*
X0025629Y0100514D02*
X0031680Y0100514D01*
X0031964Y0101512D02*
X0025839Y0101512D01*
X0025839Y0102511D02*
X0032918Y0102511D01*
X0031390Y0102552D02*
X0031390Y0103481D01*
X0031390Y0103482D01*
X0031390Y0102552D01*
X0031397Y0105652D02*
X0033290Y0105652D01*
X0033390Y0105652D01*
X0035383Y0105652D01*
X0035383Y0105652D01*
X0033390Y0105652D01*
X0033390Y0105652D01*
X0033390Y0105652D01*
X0031397Y0105652D01*
X0031397Y0105652D01*
X0029490Y0105652D02*
X0023904Y0105652D01*
X0026065Y0107459D02*
X0026102Y0107523D01*
X0026204Y0107905D01*
X0026204Y0110852D01*
X0020504Y0110852D01*
X0020504Y0111852D01*
X0026204Y0111852D01*
X0026204Y0114760D01*
X0027190Y0114760D01*
X0027190Y0111852D01*
X0032890Y0111852D01*
X0032890Y0110852D01*
X0027190Y0110852D01*
X0027190Y0107905D01*
X0027292Y0107523D01*
X0027329Y0107459D01*
X0026065Y0107459D01*
X0026090Y0107503D02*
X0027304Y0107503D01*
X0027190Y0108502D02*
X0026204Y0108502D01*
X0026204Y0109500D02*
X0027190Y0109500D01*
X0027190Y0110499D02*
X0026204Y0110499D01*
X0026204Y0112496D02*
X0027190Y0112496D01*
X0027190Y0113494D02*
X0026204Y0113494D01*
X0026204Y0114493D02*
X0027190Y0114493D01*
X0026697Y0117258D02*
X0026758Y0117319D01*
X0029490Y0117319D01*
X0029490Y0117052D01*
X0031390Y0117052D02*
X0031421Y0117084D01*
X0031421Y0119719D01*
X0030437Y0120703D01*
X0026697Y0120703D01*
X0027409Y0123480D02*
X0025324Y0123480D01*
X0024326Y0124478D02*
X0026969Y0124478D01*
X0026969Y0125477D02*
X0023476Y0125477D01*
X0023476Y0126475D02*
X0030724Y0126475D01*
X0031224Y0126707D02*
X0031254Y0126678D01*
X0031724Y0127474D02*
X0030724Y0127474D01*
X0030724Y0128472D02*
X0031724Y0128472D01*
X0031724Y0129471D02*
X0030724Y0129471D01*
X0027082Y0129471D02*
X0023419Y0129471D01*
X0023476Y0128472D02*
X0026969Y0128472D01*
X0026969Y0127474D02*
X0023476Y0127474D01*
X0023070Y0131468D02*
X0027568Y0131468D01*
X0027161Y0132466D02*
X0023476Y0132466D01*
X0023476Y0136460D02*
X0026860Y0136460D01*
X0025862Y0137459D02*
X0023305Y0137459D01*
X0025198Y0139456D02*
X0025567Y0139456D01*
X0025567Y0138457D02*
X0011602Y0138457D01*
X0008629Y0140454D02*
X0003000Y0140454D01*
X0003000Y0139456D02*
X0007630Y0139456D01*
X0006633Y0138457D02*
X0003000Y0138457D01*
X0003000Y0137459D02*
X0004498Y0137459D01*
X0004130Y0136460D02*
X0003000Y0136460D01*
X0003000Y0135462D02*
X0004130Y0135462D01*
X0004130Y0134463D02*
X0003000Y0134463D01*
X0003000Y0133465D02*
X0004130Y0133465D01*
X0004130Y0132466D02*
X0003000Y0132466D01*
X0003000Y0131468D02*
X0004130Y0131468D01*
X0004059Y0130469D02*
X0003000Y0130469D01*
X0003000Y0129471D02*
X0003937Y0129471D01*
X0003937Y0128472D02*
X0003000Y0128472D01*
X0003000Y0127474D02*
X0007890Y0127474D01*
X0007890Y0126797D02*
X0003937Y0126797D01*
X0003937Y0124541D01*
X0004039Y0124159D01*
X0004237Y0123817D01*
X0004516Y0123538D01*
X0004858Y0123340D01*
X0005240Y0123238D01*
X0007890Y0123238D01*
X0007890Y0126797D01*
X0007890Y0126475D02*
X0008890Y0126475D01*
X0008890Y0125477D02*
X0007890Y0125477D01*
X0007890Y0124478D02*
X0008890Y0124478D01*
X0008890Y0123480D02*
X0007890Y0123480D01*
X0004617Y0123480D02*
X0003000Y0123480D01*
X0003000Y0124478D02*
X0003954Y0124478D01*
X0003937Y0125477D02*
X0003000Y0125477D01*
X0003000Y0126475D02*
X0003937Y0126475D01*
X0003000Y0122481D02*
X0013815Y0122481D01*
X0013569Y0121482D02*
X0003000Y0121482D01*
X0003000Y0120484D02*
X0013739Y0120484D01*
X0014297Y0119485D02*
X0003000Y0119485D01*
X0003000Y0118487D02*
X0004638Y0118487D01*
X0004760Y0118557D02*
X0004418Y0118360D01*
X0004138Y0118080D01*
X0003941Y0117738D01*
X0003839Y0117357D01*
X0003839Y0115100D01*
X0007791Y0115100D01*
X0007791Y0118659D01*
X0005141Y0118659D01*
X0004760Y0118557D01*
X0003874Y0117488D02*
X0003000Y0117488D01*
X0003000Y0116490D02*
X0003839Y0116490D01*
X0003839Y0115491D02*
X0003000Y0115491D01*
X0003000Y0114493D02*
X0007791Y0114493D01*
X0007791Y0115491D02*
X0008791Y0115491D01*
X0008791Y0114493D02*
X0013804Y0114493D01*
X0013804Y0113494D02*
X0012744Y0113494D01*
X0012744Y0112496D02*
X0013804Y0112496D01*
X0012651Y0111497D02*
X0019504Y0111497D01*
X0020004Y0111352D02*
X0020004Y0117052D01*
X0020004Y0117052D01*
X0021997Y0117052D01*
X0021997Y0117052D01*
X0020004Y0117052D01*
X0018011Y0117052D01*
X0018011Y0117052D01*
X0019904Y0117052D01*
X0020004Y0117052D01*
X0020004Y0117052D01*
X0018004Y0117052D01*
X0020025Y0117052D01*
X0020057Y0117021D01*
X0020004Y0117052D02*
X0022004Y0117052D01*
X0020504Y0111497D02*
X0032890Y0111497D01*
X0033890Y0111497D02*
X0039857Y0111497D01*
X0039857Y0112496D02*
X0039590Y0112496D01*
X0039590Y0113494D02*
X0039957Y0113494D01*
X0040050Y0114493D02*
X0039590Y0114493D01*
X0039590Y0110499D02*
X0043810Y0110499D01*
X0040616Y0106505D02*
X0039197Y0106505D01*
X0039476Y0107503D02*
X0039886Y0107503D01*
X0039857Y0108502D02*
X0039590Y0108502D01*
X0039590Y0109500D02*
X0039857Y0109500D01*
X0037290Y0105652D02*
X0037327Y0105615D01*
X0037327Y0102593D01*
X0035063Y0100329D01*
X0034177Y0100329D01*
X0036348Y0096520D02*
X0010091Y0096520D01*
X0010133Y0097518D02*
X0012097Y0097518D01*
X0011443Y0098517D02*
X0011131Y0098517D01*
X0008760Y0101512D02*
X0003000Y0101512D01*
X0003000Y0100514D02*
X0007761Y0100514D01*
X0006763Y0099515D02*
X0003000Y0099515D01*
X0003000Y0098517D02*
X0006295Y0098517D01*
X0006295Y0097518D02*
X0003000Y0097518D01*
X0003000Y0096520D02*
X0006295Y0096520D01*
X0004293Y0095521D02*
X0003000Y0095521D01*
X0003000Y0094523D02*
X0004130Y0094523D01*
X0004130Y0093524D02*
X0003000Y0093524D01*
X0003000Y0092526D02*
X0004130Y0092526D01*
X0004130Y0091527D02*
X0003000Y0091527D01*
X0003000Y0090529D02*
X0004130Y0090529D01*
X0004545Y0089530D02*
X0003000Y0089530D01*
X0003000Y0088532D02*
X0011610Y0088532D01*
X0013311Y0086352D02*
X0011736Y0084778D01*
X0013311Y0083203D01*
X0011610Y0080544D02*
X0003000Y0080544D01*
X0003000Y0081542D02*
X0004659Y0081542D01*
X0004130Y0082541D02*
X0003000Y0082541D01*
X0003000Y0083539D02*
X0004130Y0083539D01*
X0004130Y0084538D02*
X0003000Y0084538D01*
X0003000Y0085536D02*
X0004130Y0085536D01*
X0004130Y0086535D02*
X0003000Y0086535D01*
X0003000Y0087533D02*
X0004179Y0087533D01*
X0012256Y0093524D02*
X0012681Y0093524D01*
X0012256Y0094523D02*
X0013680Y0094523D01*
X0012093Y0095521D02*
X0015316Y0095521D01*
X0015405Y0089530D02*
X0015568Y0089530D01*
X0015405Y0088532D02*
X0046203Y0088532D01*
X0039190Y0089530D02*
X0034676Y0089530D01*
X0035091Y0090529D02*
X0038776Y0090529D01*
X0038776Y0091527D02*
X0036325Y0091527D01*
X0037324Y0092526D02*
X0038776Y0092526D01*
X0038776Y0093524D02*
X0038322Y0093524D01*
X0035349Y0095521D02*
X0034928Y0095521D01*
X0033981Y0088443D02*
X0031528Y0088443D01*
X0031528Y0085278D01*
X0030528Y0085278D01*
X0030528Y0088443D01*
X0028074Y0088443D01*
X0027693Y0088341D01*
X0027351Y0088143D01*
X0027071Y0087864D01*
X0026874Y0087522D01*
X0026772Y0087140D01*
X0026772Y0085278D01*
X0030528Y0085278D01*
X0030528Y0084278D01*
X0031528Y0084278D01*
X0031528Y0085278D01*
X0035283Y0085278D01*
X0035283Y0087140D01*
X0035181Y0087522D01*
X0034984Y0087864D01*
X0034704Y0088143D01*
X0034362Y0088341D01*
X0033981Y0088443D01*
X0035175Y0087533D02*
X0038824Y0087533D01*
X0038776Y0086535D02*
X0035283Y0086535D01*
X0035283Y0085536D02*
X0038776Y0085536D01*
X0038776Y0084538D02*
X0031528Y0084538D01*
X0031528Y0084278D02*
X0035283Y0084278D01*
X0035283Y0082415D01*
X0035181Y0082033D01*
X0034984Y0081691D01*
X0034704Y0081412D01*
X0034362Y0081214D01*
X0033981Y0081112D01*
X0031528Y0081112D01*
X0031528Y0084278D01*
X0031528Y0083539D02*
X0030528Y0083539D01*
X0030528Y0084278D02*
X0030528Y0081112D01*
X0028074Y0081112D01*
X0027693Y0081214D01*
X0027351Y0081412D01*
X0027071Y0081691D01*
X0026874Y0082033D01*
X0026772Y0082415D01*
X0026772Y0084278D01*
X0030528Y0084278D01*
X0030528Y0084538D02*
X0023280Y0084538D01*
X0023280Y0085536D02*
X0026772Y0085536D01*
X0026772Y0086535D02*
X0023280Y0086535D01*
X0023231Y0087533D02*
X0026880Y0087533D01*
X0027379Y0089530D02*
X0022865Y0089530D01*
X0023280Y0090529D02*
X0026965Y0090529D01*
X0026965Y0091527D02*
X0023280Y0091527D01*
X0023280Y0092526D02*
X0026965Y0092526D01*
X0026965Y0093524D02*
X0023280Y0093524D01*
X0023280Y0094523D02*
X0026965Y0094523D01*
X0027127Y0095521D02*
X0023117Y0095521D01*
X0025839Y0103509D02*
X0027584Y0103509D01*
X0013804Y0109500D02*
X0012551Y0109500D01*
X0012551Y0110499D02*
X0013804Y0110499D01*
X0009678Y0109294D02*
X0008291Y0107907D01*
X0004031Y0107503D02*
X0003000Y0107503D01*
X0003000Y0106505D02*
X0004031Y0106505D01*
X0004031Y0105506D02*
X0003000Y0105506D01*
X0003000Y0104508D02*
X0004331Y0104508D01*
X0003000Y0103509D02*
X0010757Y0103509D01*
X0009758Y0102511D02*
X0003000Y0102511D01*
X0003000Y0108502D02*
X0004031Y0108502D01*
X0004031Y0109500D02*
X0003000Y0109500D01*
X0003000Y0110499D02*
X0004031Y0110499D01*
X0003931Y0111497D02*
X0003000Y0111497D01*
X0003000Y0112496D02*
X0003839Y0112496D01*
X0003839Y0113494D02*
X0003000Y0113494D01*
X0007791Y0116490D02*
X0008791Y0116490D01*
X0008791Y0117488D02*
X0007791Y0117488D01*
X0007791Y0118487D02*
X0008791Y0118487D01*
X0011945Y0118487D02*
X0014197Y0118487D01*
X0014197Y0117488D02*
X0012709Y0117488D01*
X0012744Y0116490D02*
X0014197Y0116490D01*
X0014085Y0115491D02*
X0012744Y0115491D01*
X0016067Y0117089D02*
X0016104Y0117052D01*
X0016104Y0121355D01*
X0016067Y0121392D01*
X0014623Y0123480D02*
X0012162Y0123480D01*
X0015048Y0124478D02*
X0015350Y0124478D01*
X0015408Y0129471D02*
X0012843Y0129471D01*
X0009627Y0141453D02*
X0003000Y0141453D01*
X0003000Y0142451D02*
X0004500Y0142451D01*
X0004516Y0142436D02*
X0004858Y0142238D01*
X0005240Y0142136D01*
X0007890Y0142136D01*
X0007890Y0145695D01*
X0003937Y0145695D01*
X0003937Y0143438D01*
X0004039Y0143057D01*
X0004237Y0142715D01*
X0004516Y0142436D01*
X0003937Y0143450D02*
X0003000Y0143450D01*
X0003000Y0144448D02*
X0003937Y0144448D01*
X0003937Y0145447D02*
X0003000Y0145447D01*
X0003000Y0146445D02*
X0007890Y0146445D01*
X0007890Y0145447D02*
X0008890Y0145447D01*
X0008890Y0146445D02*
X0018913Y0146445D01*
X0018913Y0145447D02*
X0019913Y0145447D01*
X0019913Y0144448D02*
X0018913Y0144448D01*
X0018913Y0143450D02*
X0019913Y0143450D01*
X0019913Y0142451D02*
X0018913Y0142451D01*
X0008890Y0142451D02*
X0007890Y0142451D01*
X0007890Y0143450D02*
X0008890Y0143450D01*
X0008890Y0144448D02*
X0007890Y0144448D01*
X0003937Y0147444D02*
X0003000Y0147444D01*
X0003000Y0148442D02*
X0003937Y0148442D01*
X0004102Y0149441D02*
X0003000Y0149441D01*
X0003000Y0150439D02*
X0004130Y0150439D01*
X0004130Y0151438D02*
X0003000Y0151438D01*
X0003000Y0152436D02*
X0004130Y0152436D01*
X0004130Y0153435D02*
X0003000Y0153435D01*
X0003000Y0154433D02*
X0004130Y0154433D01*
X0004130Y0155432D02*
X0003000Y0155432D01*
X0003000Y0156430D02*
X0004572Y0156430D01*
X0003000Y0157429D02*
X0006633Y0157429D01*
X0006720Y0158427D02*
X0003000Y0158427D01*
X0003000Y0159426D02*
X0007719Y0159426D01*
X0008717Y0160424D02*
X0003000Y0160424D01*
X0003000Y0161423D02*
X0009716Y0161423D01*
X0007913Y0162421D02*
X0003000Y0162421D01*
X0003000Y0163420D02*
X0006302Y0163420D01*
X0005304Y0164418D02*
X0003000Y0164418D01*
X0003000Y0165417D02*
X0004341Y0165417D01*
X0003764Y0166416D02*
X0003000Y0166416D01*
X0003000Y0167414D02*
X0003188Y0167414D01*
X0012252Y0104508D02*
X0013338Y0104508D01*
X0023280Y0083539D02*
X0026772Y0083539D01*
X0026772Y0082541D02*
X0023280Y0082541D01*
X0022751Y0081542D02*
X0027220Y0081542D01*
X0030528Y0081542D02*
X0031528Y0081542D01*
X0031528Y0082541D02*
X0030528Y0082541D01*
X0030528Y0085536D02*
X0031528Y0085536D01*
X0031528Y0086535D02*
X0030528Y0086535D01*
X0030528Y0087533D02*
X0031528Y0087533D01*
X0035283Y0083539D02*
X0038776Y0083539D01*
X0038776Y0082541D02*
X0035283Y0082541D01*
X0034835Y0081542D02*
X0039304Y0081542D01*
X0047346Y0077548D02*
X0048318Y0077548D01*
X0048318Y0076549D02*
X0019773Y0076549D01*
X0018774Y0075551D02*
X0048318Y0075551D01*
X0057244Y0084538D02*
X0063283Y0084538D01*
X0060792Y0085536D02*
X0057570Y0085536D01*
X0058569Y0086535D02*
X0060037Y0086535D01*
X0059829Y0087533D02*
X0059567Y0087533D01*
X0061673Y0089966D02*
X0061673Y0091136D01*
X0061673Y0098128D01*
X0063091Y0098128D01*
X0063091Y0096006D01*
X0066650Y0096006D01*
X0066650Y0095006D01*
X0063091Y0095006D01*
X0063091Y0092356D01*
X0063193Y0091974D01*
X0063390Y0091632D01*
X0063670Y0091353D01*
X0063818Y0091267D01*
X0063283Y0090732D01*
X0063283Y0089841D01*
X0062824Y0090031D01*
X0061830Y0090031D01*
X0061673Y0089966D01*
X0061673Y0090529D02*
X0063283Y0090529D01*
X0063495Y0091527D02*
X0061673Y0091527D01*
X0061673Y0092526D02*
X0063091Y0092526D01*
X0063091Y0093524D02*
X0061673Y0093524D01*
X0061673Y0094523D02*
X0063091Y0094523D01*
X0061673Y0095521D02*
X0066650Y0095521D01*
X0067150Y0095506D02*
X0067248Y0095506D01*
X0063091Y0096520D02*
X0061673Y0096520D01*
X0061673Y0097518D02*
X0063091Y0097518D01*
X0058059Y0097518D02*
X0057377Y0097518D01*
X0057393Y0096520D02*
X0058059Y0096520D01*
X0058059Y0095521D02*
X0056967Y0095521D01*
X0058059Y0094523D02*
X0055484Y0094523D01*
X0055272Y0093524D02*
X0058059Y0093524D01*
X0058059Y0092526D02*
X0055272Y0092526D01*
X0055272Y0091527D02*
X0058059Y0091527D01*
X0057451Y0090529D02*
X0055272Y0090529D01*
X0055272Y0089530D02*
X0056453Y0089530D01*
X0055454Y0088532D02*
X0055272Y0088532D01*
X0062327Y0087533D02*
X0062327Y0087238D01*
X0067150Y0087238D01*
X0073843Y0095506D02*
X0073843Y0099935D01*
X0077709Y0097518D02*
X0079528Y0097518D01*
X0079528Y0096520D02*
X0077709Y0096520D01*
X0093232Y0076313D02*
X0093232Y0075329D01*
X0094217Y0076313D01*
X0093232Y0075329D02*
X0093232Y0073656D01*
X0096193Y0073554D02*
X0097161Y0073554D01*
X0100122Y0073656D02*
X0100122Y0074935D01*
X0098744Y0076313D01*
X0100122Y0076313D01*
X0100122Y0074935D01*
X0093232Y0068537D02*
X0093232Y0065781D01*
X0090083Y0062927D02*
X0090083Y0054955D01*
X0087720Y0054955D01*
X0085358Y0054955D02*
X0085358Y0048632D01*
X0085358Y0050588D02*
X0085358Y0050588D01*
X0085358Y0051587D02*
X0085358Y0051587D01*
X0085358Y0052585D02*
X0085358Y0052585D01*
X0085358Y0053584D02*
X0085358Y0053584D01*
X0085358Y0054582D02*
X0085358Y0054582D01*
X0080634Y0054955D02*
X0078272Y0054955D01*
X0078272Y0063124D01*
X0076292Y0061572D02*
X0075141Y0061572D01*
X0075909Y0060573D02*
X0075909Y0060573D01*
X0075909Y0059575D02*
X0075909Y0059575D01*
X0075909Y0058576D02*
X0075909Y0058576D01*
X0075909Y0057578D02*
X0075909Y0057578D01*
X0075909Y0056579D02*
X0075909Y0056579D01*
X0075909Y0055581D02*
X0075909Y0055581D01*
X0075909Y0054955D02*
X0075909Y0048632D01*
X0075909Y0050588D02*
X0075909Y0050588D01*
X0075909Y0051587D02*
X0075909Y0051587D01*
X0075909Y0052585D02*
X0075909Y0052585D01*
X0075909Y0053584D02*
X0075909Y0053584D01*
X0075909Y0054582D02*
X0075909Y0054582D01*
X0075909Y0054955D02*
X0075909Y0054955D01*
X0085358Y0043758D02*
X0085358Y0037435D01*
X0085358Y0037435D01*
X0085358Y0031112D01*
X0086245Y0031112D01*
X0086539Y0031191D01*
X0086834Y0031112D01*
X0087720Y0031112D01*
X0087720Y0037435D01*
X0085531Y0037435D01*
X0085358Y0037435D01*
X0087720Y0037435D01*
X0087720Y0037435D01*
X0087721Y0037435D01*
X0087720Y0037435D01*
X0087720Y0043758D01*
X0086834Y0043758D01*
X0086539Y0043679D01*
X0086245Y0043758D01*
X0085358Y0043758D01*
X0085358Y0043599D02*
X0085358Y0043599D01*
X0085358Y0042600D02*
X0085358Y0042600D01*
X0085358Y0041602D02*
X0085358Y0041602D01*
X0085358Y0040603D02*
X0085358Y0040603D01*
X0085358Y0039605D02*
X0085358Y0039605D01*
X0085358Y0038606D02*
X0085358Y0038606D01*
X0085358Y0037608D02*
X0085358Y0037608D01*
X0085358Y0037435D02*
X0085358Y0037435D01*
X0085358Y0036609D02*
X0085358Y0036609D01*
X0085358Y0035611D02*
X0085358Y0035611D01*
X0085358Y0034612D02*
X0085358Y0034612D01*
X0085358Y0033613D02*
X0085358Y0033613D01*
X0085358Y0032615D02*
X0085358Y0032615D01*
X0085358Y0031616D02*
X0085358Y0031616D01*
X0087720Y0031616D02*
X0087721Y0031616D01*
X0087720Y0032615D02*
X0087721Y0032615D01*
X0087720Y0033613D02*
X0087721Y0033613D01*
X0087720Y0034612D02*
X0087721Y0034612D01*
X0087720Y0035611D02*
X0087721Y0035611D01*
X0087720Y0036609D02*
X0087721Y0036609D01*
X0087720Y0037608D02*
X0087721Y0037608D01*
X0087720Y0038606D02*
X0087721Y0038606D01*
X0087720Y0039605D02*
X0087721Y0039605D01*
X0087720Y0040603D02*
X0087721Y0040603D01*
X0087720Y0041602D02*
X0087721Y0041602D01*
X0087720Y0042600D02*
X0087721Y0042600D01*
X0087720Y0043599D02*
X0087721Y0043599D01*
X0092445Y0037435D02*
X0094807Y0037435D01*
X0097169Y0037435D01*
X0099531Y0037435D01*
X0097724Y0030618D02*
X0094343Y0030618D01*
X0094343Y0029619D02*
X0097724Y0029619D01*
X0097724Y0028621D02*
X0094343Y0028621D01*
X0094343Y0027622D02*
X0097724Y0027622D01*
X0097201Y0026624D02*
X0094343Y0026624D01*
X0094343Y0025625D02*
X0097034Y0025625D01*
X0097282Y0024627D02*
X0094343Y0024627D01*
X0094343Y0023628D02*
X0098093Y0023628D01*
X0100584Y0022630D02*
X0094201Y0022630D01*
X0093203Y0021631D02*
X0100043Y0021631D01*
X0099987Y0020633D02*
X0092204Y0020633D01*
X0089833Y0023628D02*
X0081155Y0023628D01*
X0080113Y0023628D02*
X0076430Y0023628D01*
X0075389Y0023628D02*
X0071706Y0023628D01*
X0070664Y0023628D02*
X0066981Y0023628D01*
X0065940Y0023628D02*
X0062257Y0023628D01*
X0061216Y0023628D02*
X0057532Y0023628D01*
X0056491Y0023628D02*
X0052808Y0023628D01*
X0051767Y0023628D02*
X0031671Y0023628D01*
X0030673Y0024627D02*
X0050244Y0024627D01*
X0049790Y0025625D02*
X0029674Y0025625D01*
X0028676Y0026624D02*
X0049794Y0026624D01*
X0048027Y0027622D02*
X0028201Y0027622D01*
X0028201Y0028621D02*
X0047480Y0028621D01*
X0047419Y0029619D02*
X0028201Y0029619D01*
X0028201Y0030618D02*
X0047773Y0030618D01*
X0048109Y0031616D02*
X0028201Y0031616D01*
X0028201Y0032615D02*
X0047929Y0032615D01*
X0047929Y0033613D02*
X0028201Y0033613D01*
X0028201Y0034612D02*
X0047929Y0034612D01*
X0047929Y0035611D02*
X0028201Y0035611D01*
X0028201Y0036609D02*
X0047929Y0036609D01*
X0052287Y0037435D02*
X0052287Y0026116D01*
X0054330Y0024627D02*
X0054969Y0024627D01*
X0057012Y0026116D02*
X0057012Y0037435D01*
X0054650Y0037435D02*
X0054650Y0029266D01*
X0059374Y0029266D02*
X0059374Y0037435D01*
X0061736Y0037435D02*
X0061736Y0026116D01*
X0059693Y0024627D02*
X0059055Y0024627D01*
X0063779Y0024627D02*
X0064418Y0024627D01*
X0066461Y0026116D02*
X0066461Y0037435D01*
X0068823Y0037435D02*
X0068823Y0029266D01*
X0071185Y0026116D02*
X0071185Y0037435D01*
X0073547Y0037435D02*
X0073547Y0029266D01*
X0075909Y0026116D02*
X0075909Y0037435D01*
X0078272Y0037435D02*
X0078272Y0029266D01*
X0080634Y0026116D02*
X0080634Y0037435D01*
X0082441Y0029619D02*
X0090547Y0029619D01*
X0090547Y0028621D02*
X0082441Y0028621D01*
X0082660Y0027622D02*
X0090547Y0027622D01*
X0090547Y0026624D02*
X0083127Y0026624D01*
X0083131Y0025625D02*
X0090547Y0025625D01*
X0090547Y0024627D02*
X0082677Y0024627D01*
X0078591Y0024627D02*
X0077952Y0024627D01*
X0073866Y0024627D02*
X0073228Y0024627D01*
X0069142Y0024627D02*
X0068504Y0024627D01*
X0064098Y0029266D02*
X0064098Y0037435D01*
X0059374Y0054955D02*
X0059374Y0063124D01*
X0058059Y0098517D02*
X0056893Y0098517D01*
X0023941Y0067652D02*
X0022169Y0067652D01*
X0017909Y0067563D02*
X0017627Y0067563D01*
X0017627Y0068561D02*
X0017909Y0068561D01*
X0017974Y0069560D02*
X0017627Y0069560D01*
X0017627Y0070558D02*
X0017717Y0070558D01*
X0017627Y0066564D02*
X0017909Y0066564D01*
X0017882Y0065566D02*
X0018038Y0065566D01*
X0022079Y0072555D02*
X0022260Y0072555D01*
X0022260Y0073554D02*
X0022079Y0073554D01*
X0017798Y0079545D02*
X0015405Y0079545D01*
X0015405Y0078547D02*
X0016800Y0078547D01*
X0015801Y0077548D02*
X0015405Y0077548D01*
X0015405Y0080544D02*
X0018797Y0080544D01*
X0015682Y0081542D02*
X0015405Y0081542D01*
X0094807Y0054955D02*
X0094807Y0054955D01*
X0094807Y0048632D01*
X0094807Y0050588D02*
X0094807Y0050588D01*
X0094807Y0051587D02*
X0094807Y0051587D01*
X0094807Y0052585D02*
X0094807Y0052585D01*
X0094807Y0053584D02*
X0094807Y0053584D01*
X0094807Y0054582D02*
X0094807Y0054582D01*
X0097169Y0054955D02*
X0099531Y0054955D01*
X0106568Y0061572D02*
X0107083Y0061572D01*
X0113240Y0064897D02*
X0113240Y0064897D01*
X0113909Y0065566D02*
X0116437Y0065566D01*
X0120602Y0066856D02*
X0120602Y0067825D01*
X0121087Y0067825D01*
X0121571Y0067825D01*
X0121571Y0066856D01*
X0120602Y0066856D01*
X0120602Y0067563D02*
X0121571Y0067563D01*
X0121087Y0067825D02*
X0121087Y0069002D01*
X0121087Y0069002D01*
X0121087Y0067825D01*
X0121087Y0068561D02*
X0121087Y0068561D01*
X0121571Y0066564D02*
X0123815Y0066564D01*
X0125516Y0069030D02*
X0124728Y0069817D01*
X0131421Y0074246D02*
X0131520Y0074148D01*
X0142173Y0082541D02*
X0142384Y0082541D01*
X0143171Y0083539D02*
X0151749Y0083539D01*
X0148519Y0080544D02*
X0146675Y0080544D01*
X0156210Y0083539D02*
X0162791Y0083539D01*
X0162791Y0082541D02*
X0157208Y0082541D01*
X0158207Y0081542D02*
X0162791Y0081542D01*
X0162791Y0080544D02*
X0159205Y0080544D01*
X0160204Y0079545D02*
X0162791Y0079545D01*
X0162791Y0078547D02*
X0160583Y0078547D01*
X0160583Y0077548D02*
X0162791Y0077548D01*
X0162791Y0076549D02*
X0160583Y0076549D01*
X0160583Y0075551D02*
X0162791Y0075551D01*
X0162791Y0074552D02*
X0160583Y0074552D01*
X0160583Y0073554D02*
X0162791Y0073554D01*
X0162791Y0072555D02*
X0159678Y0072555D01*
X0160515Y0071557D02*
X0162791Y0071557D01*
X0162791Y0070558D02*
X0161513Y0070558D01*
X0162512Y0069560D02*
X0162791Y0069560D01*
X0104428Y0025625D02*
X0102029Y0025625D01*
X0101781Y0024627D02*
X0103429Y0024627D01*
X0102431Y0023628D02*
X0100970Y0023628D01*
X0156043Y0143450D02*
X0156886Y0143450D01*
X0156886Y0144448D02*
X0155760Y0144448D01*
X0155760Y0145447D02*
X0156886Y0145447D01*
X0156886Y0146445D02*
X0155760Y0146445D01*
X0155760Y0147444D02*
X0156886Y0147444D01*
X0157214Y0148442D02*
X0155760Y0148442D01*
X0155760Y0149441D02*
X0165354Y0149441D01*
X0165354Y0150439D02*
X0155760Y0150439D01*
X0155760Y0151438D02*
X0165354Y0151438D01*
X0165354Y0152436D02*
X0155760Y0152436D01*
X0154916Y0153435D02*
X0165354Y0153435D01*
X0165354Y0154433D02*
X0153918Y0154433D01*
X0152919Y0155432D02*
X0165354Y0155432D01*
X0156936Y0156430D02*
X0150396Y0156430D01*
X0152107Y0161423D02*
X0140008Y0161423D01*
X0140008Y0162421D02*
X0149645Y0162421D01*
X0148035Y0163420D02*
X0140008Y0163420D01*
X0140008Y0164418D02*
X0147036Y0164418D01*
X0146073Y0165417D02*
X0140008Y0165417D01*
X0140008Y0166416D02*
X0145496Y0166416D01*
X0139970Y0160424D02*
X0156886Y0160424D01*
X0156886Y0159426D02*
X0139194Y0159426D01*
X0139392Y0156430D02*
X0142761Y0156430D01*
X0142319Y0155432D02*
X0139614Y0155432D01*
X0146579Y0150329D02*
X0146776Y0150132D01*
X0077358Y0180395D02*
X0070524Y0180395D01*
X0070524Y0181393D02*
X0077358Y0181393D01*
X0077358Y0182392D02*
X0070524Y0182392D01*
X0070524Y0175402D02*
X0071065Y0175402D01*
X0071543Y0174404D02*
X0070140Y0174404D01*
D34*
X0142839Y0071785D02*
X0142839Y0062533D01*
X0135752Y0055447D01*
X0135752Y0051904D01*
X0144217Y0058990D02*
X0147366Y0062140D01*
X0148350Y0062140D01*
X0121972Y0054856D02*
X0119413Y0057415D01*
X0118429Y0057415D01*
D35*
X0121087Y0060860D02*
X0123350Y0058596D01*
X0133587Y0058596D01*
X0138311Y0053085D02*
X0138311Y0051904D01*
X0138311Y0053085D02*
X0144217Y0058990D01*
X0147661Y0054659D02*
X0148350Y0053970D01*
X0147760Y0054069D01*
X0145594Y0051904D01*
X0143626Y0051904D01*
X0143429Y0051707D01*
X0143429Y0046392D01*
X0142051Y0045014D01*
X0140870Y0045014D01*
X0138311Y0045014D02*
X0138311Y0042848D01*
X0139295Y0041864D01*
X0143035Y0041864D01*
X0148350Y0047179D01*
X0149138Y0044423D02*
X0156028Y0044423D01*
X0161539Y0049935D01*
X0161146Y0050329D01*
X0161146Y0068242D01*
X0158390Y0070998D01*
X0155535Y0070998D01*
X0155535Y0073557D02*
X0157996Y0073557D01*
X0158685Y0074246D01*
X0158685Y0078380D01*
X0155142Y0081923D01*
X0153665Y0081923D01*
X0154650Y0078675D02*
X0155535Y0077789D01*
X0155535Y0076116D01*
X0154650Y0078675D02*
X0149335Y0078675D01*
X0148843Y0078183D01*
X0148646Y0077986D01*
X0148646Y0076116D01*
X0148646Y0073557D02*
X0151992Y0073557D01*
X0152091Y0073557D01*
X0148646Y0070998D02*
X0143626Y0070998D01*
X0142839Y0071785D01*
X0142839Y0077888D01*
X0140870Y0079856D01*
X0136933Y0079856D01*
X0135161Y0079856D01*
X0131520Y0076215D01*
X0131520Y0074148D01*
X0131421Y0074246D02*
X0118921Y0074246D01*
X0118626Y0074541D01*
X0118626Y0075230D01*
X0119118Y0075230D01*
X0127287Y0083400D01*
X0127287Y0094226D01*
X0124630Y0096884D01*
X0123252Y0095506D01*
X0124630Y0096884D02*
X0125122Y0097376D01*
X0116461Y0087337D02*
X0116559Y0087238D01*
X0116461Y0087140D01*
X0115280Y0078577D02*
X0115280Y0072376D01*
X0114295Y0071392D01*
X0112524Y0071392D01*
X0112524Y0073951D02*
X0112524Y0075526D01*
X0112524Y0076313D01*
X0106618Y0076313D01*
X0105634Y0076313D01*
X0105634Y0075329D01*
X0105634Y0073951D01*
X0105634Y0071392D02*
X0109079Y0071392D01*
X0112524Y0068833D02*
X0112524Y0066864D01*
X0111343Y0065683D01*
X0107996Y0065683D01*
X0105634Y0063321D01*
X0099728Y0063321D01*
X0099531Y0063124D01*
X0095594Y0062927D02*
X0100122Y0067455D01*
X0100122Y0068537D01*
X0103469Y0066667D02*
X0103469Y0066077D01*
X0103469Y0066667D02*
X0105634Y0068833D01*
X0109965Y0062927D02*
X0108980Y0061943D01*
X0108980Y0054955D01*
X0109965Y0062927D02*
X0110752Y0062927D01*
X0118528Y0062927D01*
X0121087Y0062927D02*
X0121087Y0060860D01*
X0123646Y0062927D02*
X0124728Y0062927D01*
X0125713Y0062927D01*
X0126894Y0062927D01*
X0127681Y0062927D01*
X0130831Y0066077D01*
X0130929Y0065978D01*
X0131520Y0065978D01*
X0125713Y0062927D02*
X0125713Y0069817D01*
X0124728Y0069817D01*
X0123646Y0069817D01*
X0121087Y0069817D02*
X0121087Y0066372D01*
X0118528Y0069817D02*
X0118626Y0069915D01*
X0118626Y0072967D01*
X0118626Y0074541D01*
X0121972Y0054856D02*
X0122169Y0054659D01*
X0122169Y0052494D01*
X0129650Y0045014D01*
X0135752Y0045014D01*
X0138311Y0048459D02*
X0140280Y0048951D01*
X0140870Y0051904D02*
X0143626Y0051904D01*
X0149138Y0044423D02*
X0140083Y0035368D01*
X0140083Y0029659D01*
X0138902Y0028478D01*
X0118823Y0028478D01*
X0118429Y0028872D01*
X0106028Y0024541D02*
X0102484Y0020998D01*
X0106028Y0024541D02*
X0141264Y0024541D01*
X0143035Y0026313D01*
X0143035Y0034778D01*
X0150516Y0042258D01*
X0162524Y0042258D01*
X0164689Y0044423D01*
X0164689Y0138026D01*
X0162622Y0140093D01*
X0156717Y0140093D01*
X0153862Y0142947D01*
X0153862Y0151805D01*
X0151402Y0154266D01*
X0146579Y0154266D01*
X0146776Y0150132D02*
X0146776Y0146293D01*
X0143331Y0142848D01*
X0143331Y0126018D01*
X0145004Y0124344D01*
X0147366Y0124344D01*
X0147366Y0121293D01*
X0147563Y0124049D02*
X0147563Y0124148D01*
X0147366Y0124344D01*
X0147858Y0124344D01*
X0147563Y0124049D01*
X0147661Y0117159D02*
X0147661Y0113715D01*
X0145102Y0117159D02*
X0144610Y0117652D01*
X0138508Y0117652D01*
X0137757Y0118402D02*
X0129150Y0118402D01*
X0129150Y0120119D01*
X0127878Y0121392D01*
X0118626Y0121392D01*
X0117642Y0120407D01*
X0117642Y0118493D01*
X0117550Y0118402D01*
X0117550Y0116502D01*
X0117550Y0114502D01*
X0122563Y0114502D02*
X0129150Y0114502D01*
X0147465Y0132317D02*
X0147858Y0132317D01*
X0142051Y0087533D02*
X0141854Y0087337D01*
X0141756Y0087337D01*
X0141854Y0087238D01*
X0148646Y0070998D02*
X0148547Y0070900D01*
X0148547Y0067455D01*
X0149138Y0066864D01*
X0153469Y0066864D01*
X0155043Y0065289D01*
X0155043Y0062140D01*
X0148350Y0062140D02*
X0148350Y0061057D01*
X0123941Y0046392D02*
X0029059Y0046392D01*
X0027287Y0048754D02*
X0026303Y0047770D01*
X0026303Y0049344D01*
X0026303Y0049935D01*
X0027091Y0049148D01*
X0026303Y0049935D02*
X0021185Y0055053D01*
X0015870Y0055053D01*
X0013508Y0057415D01*
X0013508Y0084778D01*
X0013508Y0091667D01*
X0014492Y0092652D01*
X0019217Y0092652D01*
X0021776Y0099344D02*
X0013803Y0099344D01*
X0011933Y0102002D02*
X0021087Y0102002D01*
X0021972Y0102888D01*
X0021972Y0105621D01*
X0022004Y0105652D01*
X0023904Y0105652D02*
X0023941Y0105615D01*
X0023941Y0101510D01*
X0021776Y0099344D01*
X0016104Y0105652D02*
X0014877Y0105652D01*
X0013016Y0107514D01*
X0008685Y0107514D01*
X0008291Y0107907D01*
X0011933Y0102002D02*
X0008193Y0098262D01*
X0008193Y0092652D01*
X0008193Y0084778D02*
X0011736Y0084778D01*
X0013508Y0084778D01*
X0022169Y0063715D02*
X0022563Y0063321D01*
X0023941Y0063715D01*
X0026303Y0047770D02*
X0026303Y0026313D01*
X0031618Y0020998D01*
X0089886Y0020998D01*
X0092445Y0023557D01*
X0092445Y0037435D01*
X0090083Y0062927D02*
X0095594Y0062927D01*
X0087917Y0065486D02*
X0085555Y0063124D01*
X0078272Y0063124D01*
X0072268Y0071096D02*
X0068823Y0071096D01*
X0068823Y0073656D02*
X0068823Y0074738D01*
X0068823Y0075919D01*
X0070201Y0077297D01*
X0071579Y0075919D01*
X0075713Y0075919D01*
X0075713Y0074738D01*
X0075713Y0073656D01*
X0071579Y0075919D02*
X0070004Y0075919D01*
X0070201Y0076395D01*
X0070201Y0077297D01*
X0070201Y0079659D01*
X0067150Y0082711D01*
X0067150Y0087238D01*
X0068823Y0075919D02*
X0070004Y0075919D01*
X0056618Y0069423D02*
X0054650Y0069423D01*
X0047169Y0066274D02*
X0047169Y0072573D01*
X0087917Y0068537D02*
X0087917Y0065486D01*
X0093232Y0071096D02*
X0096677Y0071096D01*
X0053370Y0125526D02*
X0052681Y0125329D01*
X0052878Y0125329D01*
X0054846Y0127297D01*
X0044647Y0117024D02*
X0044310Y0117061D01*
X0023904Y0117052D02*
X0023904Y0122216D01*
X0019413Y0126707D01*
D36*
X0013902Y0126707D01*
X0008390Y0133990D02*
X0008390Y0137730D01*
X0010949Y0140289D01*
X0023547Y0140289D01*
X0024925Y0141667D01*
X0024925Y0154856D01*
X0025704Y0155635D01*
X0027324Y0155635D01*
X0029224Y0155635D02*
X0029256Y0155667D01*
X0019413Y0152888D02*
X0013902Y0152888D01*
X0008390Y0152888D02*
X0008390Y0157612D01*
X0011539Y0160762D01*
X0018429Y0160762D01*
X0027324Y0144235D02*
X0027324Y0138481D01*
X0031224Y0134581D01*
X0019413Y0134581D01*
X0033224Y0141636D02*
X0034571Y0140289D01*
X0047760Y0140289D01*
X0048843Y0140289D01*
X0054846Y0138124D02*
X0054846Y0133990D01*
X0054846Y0138124D02*
X0056815Y0140093D01*
X0070201Y0140093D01*
X0070791Y0140683D01*
X0070791Y0154659D01*
X0071767Y0155635D01*
X0073584Y0155635D01*
X0067445Y0158793D02*
X0065673Y0157022D01*
X0065673Y0152888D01*
X0060161Y0152888D01*
X0054650Y0152888D02*
X0064787Y0163026D01*
X0065476Y0163715D01*
X0065673Y0152888D02*
X0066264Y0152297D01*
X0066264Y0150722D01*
X0065673Y0151313D01*
X0065673Y0152888D01*
X0073584Y0144235D02*
X0073584Y0138481D01*
X0077484Y0134581D01*
X0065673Y0134581D01*
X0065673Y0126707D02*
X0060161Y0126707D01*
X0053406Y0117486D02*
X0050547Y0117486D01*
X0048941Y0115880D01*
X0048941Y0106628D01*
X0035161Y0092848D01*
X0031224Y0092848D01*
X0031028Y0092652D01*
X0042839Y0092652D02*
X0042839Y0097967D01*
X0046776Y0101904D01*
X0047957Y0099935D02*
X0052484Y0104463D01*
X0052484Y0110665D01*
X0053406Y0111586D01*
X0053339Y0113419D02*
X0051303Y0113419D01*
X0050713Y0112829D01*
X0050713Y0105841D01*
X0054453Y0107415D02*
X0054453Y0103478D01*
X0050319Y0099344D01*
X0050319Y0096392D02*
X0050319Y0083006D01*
X0046382Y0079069D01*
X0019807Y0079069D01*
X0015870Y0075132D01*
X0015870Y0065093D01*
X0017248Y0063715D01*
X0022169Y0063715D01*
X0019020Y0092455D02*
X0019217Y0092652D01*
X0033390Y0105652D02*
X0033390Y0111352D01*
X0044647Y0117024D02*
X0046382Y0115289D01*
X0053339Y0113419D02*
X0053406Y0113486D01*
X0055831Y0108793D02*
X0054453Y0107415D01*
X0055831Y0108793D02*
X0063311Y0108793D01*
X0064295Y0109778D01*
X0081393Y0144226D02*
X0083980Y0144226D01*
X0085358Y0145604D01*
X0089295Y0145604D01*
X0089295Y0153478D02*
X0091067Y0153478D01*
X0083783Y0159384D02*
X0081384Y0156985D01*
X0081384Y0155635D01*
X0100713Y0154463D02*
X0100713Y0152888D01*
X0106224Y0152888D02*
X0111736Y0152888D01*
X0111736Y0157022D01*
X0114098Y0159384D01*
X0120398Y0159384D01*
X0121547Y0158234D01*
X0121547Y0155635D01*
X0119647Y0155635D02*
X0119639Y0155644D01*
X0117445Y0155644D01*
X0117051Y0155250D01*
X0117051Y0141274D01*
X0115673Y0139896D01*
X0101697Y0139896D01*
X0100713Y0138911D01*
X0100713Y0133990D01*
X0106224Y0126707D02*
X0111736Y0126707D01*
X0111736Y0134581D02*
X0123547Y0134581D01*
X0119647Y0138481D01*
X0119647Y0144235D01*
X0125547Y0144235D02*
X0125547Y0141439D01*
X0126894Y0140093D01*
X0140476Y0140093D01*
X0135358Y0145604D02*
X0132012Y0145604D01*
X0130634Y0144226D01*
X0127456Y0144226D01*
X0127447Y0144235D01*
X0125547Y0155635D02*
X0125516Y0155667D01*
X0137757Y0118402D02*
X0138508Y0117652D01*
X0133193Y0115683D02*
X0132374Y0116502D01*
X0129150Y0116502D01*
X0129150Y0112502D02*
X0131846Y0112502D01*
X0133390Y0110959D01*
X0129256Y0110496D02*
X0129256Y0108400D01*
X0129256Y0110496D02*
X0129150Y0110602D01*
X0117550Y0110602D02*
X0117550Y0108688D01*
X0043035Y0145604D02*
X0039492Y0145604D01*
X0038114Y0144226D01*
X0035133Y0144226D01*
X0033224Y0144235D02*
X0033224Y0141636D01*
D37*
X0022472Y0113821D02*
X0020004Y0111352D01*
X0030525Y0111352D02*
X0033390Y0111352D01*
X0031390Y0105652D02*
X0031357Y0105619D01*
X0037290Y0105652D02*
X0037298Y0105644D01*
X0032209Y0092652D02*
X0031028Y0092652D01*
X0049925Y0080250D02*
X0052091Y0082415D01*
X0052091Y0097524D01*
X0054896Y0100329D01*
X0054896Y0096982D02*
X0053665Y0095752D01*
X0053665Y0081628D01*
X0052287Y0080250D01*
X0052287Y0066274D01*
X0049925Y0063124D02*
X0049925Y0080250D01*
X0059965Y0080053D02*
X0060002Y0080090D01*
X0067248Y0091372D02*
X0073843Y0091372D01*
X0073843Y0087238D01*
X0067248Y0091372D02*
X0067248Y0095506D01*
X0083094Y0087829D02*
X0083291Y0087632D01*
X0083587Y0087238D01*
X0063409Y0115486D02*
X0061406Y0115486D01*
X0063409Y0115486D02*
X0065673Y0117750D01*
X0076894Y0117750D01*
X0095201Y0139108D02*
X0093823Y0140486D01*
X0095004Y0141667D01*
X0100713Y0127297D02*
X0100738Y0127272D01*
X0111343Y0104266D02*
X0124531Y0104266D01*
X0129453Y0099344D01*
X0129453Y0081825D01*
X0133980Y0087337D02*
X0133980Y0087829D01*
X0142051Y0087533D02*
X0142150Y0087632D01*
X0142150Y0087927D01*
X0125122Y0097376D02*
X0125122Y0100132D01*
X0123350Y0101904D01*
X0116854Y0095211D02*
X0116559Y0095506D01*
X0116854Y0095211D02*
X0116854Y0091667D01*
X0117248Y0091372D01*
X0122169Y0091372D01*
X0123154Y0090289D01*
X0123252Y0087238D01*
X0125516Y0063911D02*
X0124728Y0063124D01*
X0057012Y0066274D02*
X0057000Y0066285D01*
X0075516Y0144204D02*
X0075484Y0144235D01*
D38*
X0075484Y0155635D02*
X0075516Y0155667D01*
X0075516Y0157907D01*
X0074630Y0158793D01*
X0067445Y0158793D01*
X0095004Y0124344D02*
X0093429Y0122770D01*
X0079453Y0118734D02*
X0079453Y0116667D01*
X0077878Y0115093D01*
X0075713Y0115093D01*
X0074827Y0115978D01*
X0066657Y0115978D01*
X0064295Y0113616D01*
X0064295Y0109778D01*
X0061406Y0111586D02*
X0061406Y0113486D01*
X0061406Y0119386D02*
X0061443Y0119423D01*
X0075024Y0119423D01*
X0075909Y0120309D01*
X0077878Y0120309D01*
X0079453Y0118734D01*
X0050713Y0105841D02*
X0046776Y0101904D01*
X0047957Y0099935D02*
X0047957Y0086549D01*
X0046185Y0084778D01*
X0042839Y0084778D01*
X0050319Y0096392D02*
X0050319Y0099344D01*
D39*
X0042445Y0126707D02*
X0043035Y0127297D01*
X0054650Y0146195D02*
X0054650Y0146215D01*
X0043035Y0153478D02*
X0042999Y0153515D01*
X0089244Y0153478D02*
X0089295Y0153478D01*
X0089295Y0153415D01*
X0091044Y0153415D01*
X0098538Y0146315D02*
X0100593Y0146315D01*
X0100713Y0146195D01*
D40*
X0155043Y0172179D03*
X0155043Y0030447D03*
X0013311Y0030447D03*
X0013311Y0172179D03*
M02*
