G75*
%MOIN*%
%OFA0B0*%
%FSLAX25Y25*%
%IPPOS*%
%LPD*%
%AMOC8*
5,1,8,0,0,1.08239X$1,22.5*
%
%ADD10C,0.07000*%
%ADD11C,0.06000*%
%ADD12OC8,0.07000*%
%ADD13R,0.03962X0.03962*%
%ADD14C,0.01000*%
%ADD15C,0.01600*%
%ADD16C,0.03962*%
D10*
X0137476Y0012289D03*
X0147476Y0012289D03*
X0157476Y0012289D03*
X0167476Y0012289D03*
D11*
X0126463Y0012043D03*
X0116463Y0012043D03*
X0106463Y0012043D03*
D12*
X0167496Y0022654D03*
X0167496Y0032654D03*
X0167496Y0042654D03*
X0167496Y0052654D03*
X0167496Y0062654D03*
X0167496Y0072654D03*
X0167496Y0082654D03*
X0167496Y0092654D03*
X0167496Y0102654D03*
X0167496Y0112654D03*
D13*
X0157447Y0115764D03*
X0139140Y0098392D03*
X0132594Y0090715D03*
X0124376Y0095537D03*
X0103510Y0090518D03*
X0137319Y0063008D03*
X0157447Y0092388D03*
X0136827Y0033234D03*
X0078411Y0033234D03*
X0049130Y0055724D03*
X0026098Y0055970D03*
X0027624Y0077427D03*
X0010990Y0087171D03*
D14*
X0022801Y0032004D02*
X0036138Y0018667D01*
X0094455Y0018667D01*
X0101079Y0012043D01*
X0106463Y0012043D01*
X0078411Y0033234D02*
X0136827Y0033234D01*
X0120242Y0045931D02*
X0137319Y0063008D01*
X0120242Y0045931D02*
X0043618Y0045931D01*
X0033579Y0055970D01*
X0026098Y0055970D01*
X0024608Y0059259D02*
X0024608Y0074632D01*
X0025101Y0074139D01*
X0028839Y0074139D01*
X0028617Y0073603D01*
X0028617Y0072295D01*
X0029118Y0071086D01*
X0030043Y0070161D01*
X0031251Y0069661D01*
X0032560Y0069661D01*
X0033768Y0070161D01*
X0034693Y0071086D01*
X0035194Y0072295D01*
X0035194Y0073603D01*
X0034693Y0074811D01*
X0033768Y0075736D01*
X0032560Y0076237D01*
X0031251Y0076237D01*
X0030912Y0076096D01*
X0030912Y0078558D01*
X0031005Y0078519D01*
X0032314Y0078519D01*
X0033522Y0079019D01*
X0034447Y0079944D01*
X0034948Y0081153D01*
X0034948Y0082461D01*
X0034447Y0083670D01*
X0033522Y0084595D01*
X0032314Y0085095D01*
X0031745Y0085095D01*
X0032703Y0086053D01*
X0042874Y0086053D01*
X0042897Y0085998D01*
X0043822Y0085073D01*
X0045031Y0084572D01*
X0046339Y0084572D01*
X0047548Y0085073D01*
X0048473Y0085998D01*
X0048973Y0087206D01*
X0048973Y0088514D01*
X0048473Y0089723D01*
X0047548Y0090648D01*
X0046339Y0091148D01*
X0045031Y0091148D01*
X0043822Y0090648D01*
X0042897Y0089723D01*
X0042874Y0089667D01*
X0031206Y0089667D01*
X0028037Y0086498D01*
X0027557Y0087656D01*
X0027475Y0087738D01*
X0027813Y0087878D01*
X0028738Y0088803D01*
X0029239Y0090011D01*
X0029239Y0091319D01*
X0028738Y0092528D01*
X0027813Y0093453D01*
X0026999Y0093790D01*
X0027813Y0094128D01*
X0028738Y0095053D01*
X0029239Y0096261D01*
X0029239Y0097569D01*
X0028738Y0098778D01*
X0028632Y0098884D01*
X0043397Y0098884D01*
X0042641Y0098571D01*
X0041716Y0097646D01*
X0041216Y0096438D01*
X0041216Y0095129D01*
X0041716Y0093921D01*
X0042641Y0092996D01*
X0043850Y0092495D01*
X0045158Y0092495D01*
X0046367Y0092996D01*
X0047292Y0093921D01*
X0047792Y0095129D01*
X0047792Y0096438D01*
X0047292Y0097646D01*
X0046367Y0098571D01*
X0045611Y0098884D01*
X0060990Y0098884D01*
X0060990Y0085878D01*
X0052368Y0085878D01*
X0051309Y0084819D01*
X0044124Y0077634D01*
X0044124Y0058175D01*
X0045183Y0057116D01*
X0045842Y0056457D01*
X0045842Y0053202D01*
X0046607Y0052436D01*
X0051652Y0052436D01*
X0052418Y0053202D01*
X0052418Y0058247D01*
X0051652Y0059013D01*
X0048397Y0059013D01*
X0047738Y0059672D01*
X0047738Y0076137D01*
X0053865Y0082264D01*
X0060990Y0082264D01*
X0060990Y0052033D01*
X0040071Y0052033D01*
X0034327Y0057778D01*
X0029387Y0057778D01*
X0029387Y0058493D01*
X0028621Y0059259D01*
X0024608Y0059259D01*
X0024608Y0059912D02*
X0044124Y0059912D01*
X0044124Y0058914D02*
X0028966Y0058914D01*
X0029387Y0057915D02*
X0044384Y0057915D01*
X0045382Y0056917D02*
X0035188Y0056917D01*
X0036187Y0055918D02*
X0045842Y0055918D01*
X0045842Y0054920D02*
X0037185Y0054920D01*
X0038184Y0053921D02*
X0045842Y0053921D01*
X0046121Y0052923D02*
X0039182Y0052923D01*
X0034960Y0052033D02*
X0024608Y0052033D01*
X0024608Y0052682D01*
X0028621Y0052682D01*
X0029387Y0053448D01*
X0029387Y0054163D01*
X0032830Y0054163D01*
X0034960Y0052033D01*
X0034071Y0052923D02*
X0028861Y0052923D01*
X0029387Y0053921D02*
X0033073Y0053921D01*
X0024608Y0060911D02*
X0044124Y0060911D01*
X0044124Y0061909D02*
X0024608Y0061909D01*
X0024608Y0062908D02*
X0044124Y0062908D01*
X0044124Y0063906D02*
X0024608Y0063906D01*
X0024608Y0064905D02*
X0044124Y0064905D01*
X0044124Y0065903D02*
X0024608Y0065903D01*
X0024608Y0066902D02*
X0044124Y0066902D01*
X0044124Y0067900D02*
X0024608Y0067900D01*
X0024608Y0068899D02*
X0044124Y0068899D01*
X0044124Y0069897D02*
X0033131Y0069897D01*
X0034503Y0070896D02*
X0044124Y0070896D01*
X0044124Y0071894D02*
X0035028Y0071894D01*
X0035194Y0072893D02*
X0044124Y0072893D01*
X0044124Y0073891D02*
X0035074Y0073891D01*
X0034615Y0074890D02*
X0044124Y0074890D01*
X0044124Y0075888D02*
X0033401Y0075888D01*
X0030912Y0076887D02*
X0044124Y0076887D01*
X0044375Y0077885D02*
X0030912Y0077885D01*
X0033195Y0078884D02*
X0041542Y0078884D01*
X0041214Y0079019D02*
X0042423Y0078519D01*
X0043731Y0078519D01*
X0044939Y0079019D01*
X0045864Y0079944D01*
X0046365Y0081153D01*
X0046365Y0082461D01*
X0045864Y0083670D01*
X0044939Y0084595D01*
X0043731Y0085095D01*
X0042423Y0085095D01*
X0041214Y0084595D01*
X0040289Y0083670D01*
X0039789Y0082461D01*
X0039789Y0081153D01*
X0040289Y0079944D01*
X0041214Y0079019D01*
X0040351Y0079882D02*
X0034385Y0079882D01*
X0034835Y0080881D02*
X0039901Y0080881D01*
X0039789Y0081879D02*
X0034948Y0081879D01*
X0034775Y0082878D02*
X0039961Y0082878D01*
X0040496Y0083876D02*
X0034240Y0083876D01*
X0032845Y0084875D02*
X0041891Y0084875D01*
X0043022Y0085873D02*
X0032524Y0085873D01*
X0031955Y0087860D02*
X0027919Y0083825D01*
X0027919Y0081463D01*
X0027280Y0080823D01*
X0027280Y0077772D01*
X0027624Y0077427D01*
X0023638Y0077427D01*
X0022801Y0076591D01*
X0021571Y0076591D01*
X0010990Y0087171D01*
X0019553Y0086872D02*
X0021657Y0086872D01*
X0021481Y0086447D02*
X0021982Y0087656D01*
X0022907Y0088581D01*
X0023245Y0088721D01*
X0023163Y0088803D01*
X0022663Y0090011D01*
X0022663Y0091319D01*
X0023163Y0092528D01*
X0024088Y0093453D01*
X0024903Y0093790D01*
X0024088Y0094128D01*
X0023163Y0095053D01*
X0022663Y0096261D01*
X0022663Y0097569D01*
X0023163Y0098778D01*
X0023269Y0098884D01*
X0019553Y0098884D01*
X0019553Y0081164D01*
X0022186Y0078531D01*
X0022889Y0079234D01*
X0024336Y0079234D01*
X0024336Y0079950D01*
X0025101Y0080715D01*
X0025472Y0080715D01*
X0025472Y0081571D01*
X0026112Y0082211D01*
X0026112Y0082790D01*
X0025424Y0082505D01*
X0024116Y0082505D01*
X0022907Y0083006D01*
X0021982Y0083931D01*
X0021481Y0085139D01*
X0021481Y0086447D01*
X0021481Y0085873D02*
X0019553Y0085873D01*
X0019553Y0084875D02*
X0021591Y0084875D01*
X0022036Y0083876D02*
X0019553Y0083876D01*
X0019553Y0082878D02*
X0023216Y0082878D01*
X0025781Y0081879D02*
X0019553Y0081879D01*
X0019836Y0080881D02*
X0025472Y0080881D01*
X0024336Y0079882D02*
X0020835Y0079882D01*
X0021833Y0078884D02*
X0022539Y0078884D01*
X0022801Y0076591D02*
X0022801Y0032004D01*
X0020994Y0052033D02*
X0019553Y0052033D01*
X0019553Y0076053D01*
X0020822Y0074783D01*
X0020994Y0074783D01*
X0020994Y0052033D01*
X0020994Y0052923D02*
X0019553Y0052923D01*
X0019553Y0053921D02*
X0020994Y0053921D01*
X0020994Y0054920D02*
X0019553Y0054920D01*
X0019553Y0055918D02*
X0020994Y0055918D01*
X0020994Y0056917D02*
X0019553Y0056917D01*
X0019553Y0057915D02*
X0020994Y0057915D01*
X0020994Y0058914D02*
X0019553Y0058914D01*
X0019553Y0059912D02*
X0020994Y0059912D01*
X0020994Y0060911D02*
X0019553Y0060911D01*
X0019553Y0061909D02*
X0020994Y0061909D01*
X0020994Y0062908D02*
X0019553Y0062908D01*
X0019553Y0063906D02*
X0020994Y0063906D01*
X0020994Y0064905D02*
X0019553Y0064905D01*
X0019553Y0065903D02*
X0020994Y0065903D01*
X0020994Y0066902D02*
X0019553Y0066902D01*
X0019553Y0067900D02*
X0020994Y0067900D01*
X0020994Y0068899D02*
X0019553Y0068899D01*
X0019553Y0069897D02*
X0020994Y0069897D01*
X0020994Y0070896D02*
X0019553Y0070896D01*
X0019553Y0071894D02*
X0020994Y0071894D01*
X0020994Y0072893D02*
X0019553Y0072893D01*
X0019553Y0073891D02*
X0020994Y0073891D01*
X0020716Y0074890D02*
X0019553Y0074890D01*
X0019553Y0075888D02*
X0019717Y0075888D01*
X0024608Y0073891D02*
X0028737Y0073891D01*
X0028617Y0072893D02*
X0024608Y0072893D01*
X0024608Y0071894D02*
X0028783Y0071894D01*
X0029308Y0070896D02*
X0024608Y0070896D01*
X0024608Y0069897D02*
X0030680Y0069897D01*
X0044612Y0078884D02*
X0045374Y0078884D01*
X0045802Y0079882D02*
X0046372Y0079882D01*
X0046252Y0080881D02*
X0047371Y0080881D01*
X0048369Y0081879D02*
X0046365Y0081879D01*
X0046192Y0082878D02*
X0049368Y0082878D01*
X0050366Y0083876D02*
X0045658Y0083876D01*
X0044300Y0084875D02*
X0044263Y0084875D01*
X0047070Y0084875D02*
X0051365Y0084875D01*
X0052363Y0085873D02*
X0048348Y0085873D01*
X0048835Y0086872D02*
X0060990Y0086872D01*
X0060990Y0087870D02*
X0048973Y0087870D01*
X0048826Y0088869D02*
X0060990Y0088869D01*
X0060990Y0089868D02*
X0048328Y0089868D01*
X0047021Y0090866D02*
X0060990Y0090866D01*
X0060990Y0091865D02*
X0029013Y0091865D01*
X0029239Y0090866D02*
X0044349Y0090866D01*
X0043042Y0089868D02*
X0029179Y0089868D01*
X0028766Y0088869D02*
X0030408Y0088869D01*
X0029409Y0087870D02*
X0027796Y0087870D01*
X0027882Y0086872D02*
X0028411Y0086872D01*
X0031955Y0087860D02*
X0045685Y0087860D01*
X0046046Y0092863D02*
X0060990Y0092863D01*
X0060990Y0093862D02*
X0047232Y0093862D01*
X0047681Y0094860D02*
X0060990Y0094860D01*
X0060990Y0095859D02*
X0047792Y0095859D01*
X0047618Y0096857D02*
X0060990Y0096857D01*
X0060990Y0097856D02*
X0047082Y0097856D01*
X0045683Y0098854D02*
X0060990Y0098854D01*
X0053116Y0084071D02*
X0132299Y0084071D01*
X0139140Y0090911D01*
X0139140Y0098392D01*
X0132594Y0090715D02*
X0125360Y0090715D01*
X0120537Y0095537D01*
X0108530Y0095537D01*
X0103510Y0090518D01*
X0120537Y0095537D02*
X0124376Y0095537D01*
X0157447Y0092388D02*
X0157447Y0115764D01*
X0060990Y0081879D02*
X0053480Y0081879D01*
X0052482Y0080881D02*
X0060990Y0080881D01*
X0060990Y0079882D02*
X0051483Y0079882D01*
X0050485Y0078884D02*
X0060990Y0078884D01*
X0060990Y0077885D02*
X0049486Y0077885D01*
X0048488Y0076887D02*
X0060990Y0076887D01*
X0060990Y0075888D02*
X0047738Y0075888D01*
X0047738Y0074890D02*
X0060990Y0074890D01*
X0060990Y0073891D02*
X0047738Y0073891D01*
X0047738Y0072893D02*
X0060990Y0072893D01*
X0060990Y0071894D02*
X0047738Y0071894D01*
X0047738Y0070896D02*
X0060990Y0070896D01*
X0060990Y0069897D02*
X0047738Y0069897D01*
X0047738Y0068899D02*
X0060990Y0068899D01*
X0060990Y0067900D02*
X0047738Y0067900D01*
X0047738Y0066902D02*
X0060990Y0066902D01*
X0060990Y0065903D02*
X0047738Y0065903D01*
X0047738Y0064905D02*
X0060990Y0064905D01*
X0060990Y0063906D02*
X0047738Y0063906D01*
X0047738Y0062908D02*
X0060990Y0062908D01*
X0060990Y0061909D02*
X0047738Y0061909D01*
X0047738Y0060911D02*
X0060990Y0060911D01*
X0060990Y0059912D02*
X0047738Y0059912D01*
X0045931Y0058923D02*
X0045931Y0076886D01*
X0053116Y0084071D01*
X0042962Y0092863D02*
X0028403Y0092863D01*
X0027171Y0093862D02*
X0041776Y0093862D01*
X0041327Y0094860D02*
X0028546Y0094860D01*
X0029072Y0095859D02*
X0041216Y0095859D01*
X0041390Y0096857D02*
X0029239Y0096857D01*
X0029120Y0097856D02*
X0041926Y0097856D01*
X0043325Y0098854D02*
X0028662Y0098854D01*
X0023239Y0098854D02*
X0019553Y0098854D01*
X0019553Y0097856D02*
X0022781Y0097856D01*
X0022663Y0096857D02*
X0019553Y0096857D01*
X0019553Y0095859D02*
X0022829Y0095859D01*
X0023356Y0094860D02*
X0019553Y0094860D01*
X0019553Y0093862D02*
X0024731Y0093862D01*
X0023498Y0092863D02*
X0019553Y0092863D01*
X0019553Y0091865D02*
X0022888Y0091865D01*
X0022663Y0090866D02*
X0019553Y0090866D01*
X0019553Y0089868D02*
X0022722Y0089868D01*
X0023136Y0088869D02*
X0019553Y0088869D01*
X0019553Y0087870D02*
X0022197Y0087870D01*
X0045931Y0058923D02*
X0049130Y0055724D01*
X0052418Y0055918D02*
X0060990Y0055918D01*
X0060990Y0054920D02*
X0052418Y0054920D01*
X0052418Y0053921D02*
X0060990Y0053921D01*
X0060990Y0052923D02*
X0052139Y0052923D01*
X0052418Y0056917D02*
X0060990Y0056917D01*
X0060990Y0057915D02*
X0052418Y0057915D01*
X0051751Y0058914D02*
X0060990Y0058914D01*
D15*
X0106463Y0012043D02*
X0111896Y0006610D01*
X0160646Y0006610D01*
X0166325Y0012289D01*
X0167476Y0012289D01*
D16*
X0045685Y0087860D03*
X0043077Y0081807D03*
X0031659Y0081807D03*
X0024770Y0085793D03*
X0025951Y0090665D03*
X0025951Y0096915D03*
X0044504Y0095783D03*
X0031906Y0072949D03*
M02*
