%
M48
M72
T01C0.02362
T02C0.04000
%
T01
X49130Y55724
X26098Y55970
X31906Y72949
X27624Y77427
X31659Y81807
X24770Y85793
X25951Y90665
X25951Y96915
X10990Y87171
X43077Y81807
X45685Y87860
X44504Y95783
X103510Y90518
X124376Y95537
X132594Y90715
X139140Y98392
X157447Y92388
X157447Y115764
X137319Y63008
X136827Y33234
X78411Y33234
T02
X106463Y12043
X116463Y12043
X126463Y12043
X137476Y12289
X147476Y12289
X157476Y12289
X167476Y12289
X167496Y22654
X167496Y32654
X167496Y42654
X167496Y52654
X167496Y62654
X167496Y72654
X167496Y82654
X167496Y92654
X167496Y102654
X167496Y112654
M30
