G75*
%MOIN*%
%OFA0B0*%
%FSLAX25Y25*%
%IPPOS*%
%LPD*%
%AMOC8*
5,1,8,0,0,1.08239X$1,22.5*
%
%ADD10C,0.00000*%
%ADD11C,0.00300*%
%ADD12C,0.00394*%
%ADD13C,0.00591*%
%ADD14C,0.00200*%
%ADD15R,0.03100X0.00100*%
%ADD16R,0.05600X0.00100*%
%ADD17R,0.06000X0.00100*%
%ADD18R,0.06300X0.00100*%
%ADD19R,0.01700X0.00100*%
%ADD20R,0.01400X0.00100*%
%ADD21R,0.00800X0.00100*%
%ADD22R,0.00500X0.00100*%
%ADD23R,0.00400X0.00100*%
%ADD24R,0.01300X0.00100*%
%ADD25R,0.01200X0.00100*%
%ADD26R,0.02400X0.00100*%
%ADD27R,0.05400X0.00100*%
%ADD28R,0.01000X0.00100*%
%ADD29R,0.05100X0.00100*%
%ADD30R,0.05700X0.00100*%
%ADD31R,0.05900X0.00100*%
%ADD32R,0.00600X0.00100*%
%ADD33R,0.05800X0.00100*%
%ADD34R,0.06100X0.00100*%
%ADD35R,0.05500X0.00100*%
%ADD36R,0.05300X0.00100*%
%ADD37R,0.05200X0.00100*%
%ADD38R,0.05000X0.00100*%
%ADD39R,0.04900X0.00100*%
%ADD40R,0.03300X0.00100*%
%ADD41R,0.04700X0.00100*%
%ADD42R,0.04600X0.00100*%
%ADD43R,0.04500X0.00100*%
%ADD44R,0.04300X0.00100*%
%ADD45R,0.07900X0.00100*%
%ADD46R,0.04200X0.00100*%
%ADD47R,0.02700X0.00100*%
%ADD48R,0.02300X0.00100*%
%ADD49R,0.04000X0.00100*%
%ADD50R,0.04100X0.00100*%
%ADD51R,0.02100X0.00100*%
%ADD52R,0.02200X0.00100*%
%ADD53R,0.01900X0.00100*%
%ADD54R,0.03800X0.00100*%
%ADD55R,0.02000X0.00100*%
%ADD56R,0.03700X0.00100*%
%ADD57R,0.01600X0.00100*%
%ADD58R,0.01100X0.00100*%
%ADD59R,0.01500X0.00100*%
%ADD60R,0.01800X0.00100*%
%ADD61R,0.00900X0.00100*%
%ADD62R,0.00700X0.00100*%
%ADD63R,0.03200X0.00100*%
%ADD64R,0.07700X0.00100*%
%ADD65R,0.08600X0.00100*%
%ADD66R,0.09500X0.00100*%
%ADD67R,0.03600X0.00100*%
%ADD68R,0.03400X0.00100*%
%ADD69R,0.03900X0.00100*%
%ADD70R,0.02600X0.00100*%
%ADD71R,0.00300X0.00100*%
%ADD72R,0.03000X0.00100*%
%ADD73R,0.02900X0.00100*%
%ADD74R,0.02800X0.00100*%
%ADD75R,0.03500X0.00100*%
%ADD76R,0.02500X0.00100*%
%ADD77R,0.06600X0.00100*%
%ADD78R,0.07000X0.00100*%
%ADD79R,0.07300X0.00100*%
%ADD80R,0.07400X0.00100*%
%ADD81R,0.07600X0.00100*%
%ADD82R,0.07500X0.00100*%
%ADD83R,0.07100X0.00100*%
%ADD84R,0.06500X0.00100*%
%ADD85R,0.08100X0.00100*%
%ADD86R,0.08300X0.00100*%
%ADD87R,0.08400X0.00100*%
%ADD88R,0.08500X0.00100*%
%ADD89R,0.07200X0.00100*%
%ADD90R,0.13300X0.00100*%
%ADD91R,0.12200X0.00100*%
%ADD92R,0.10500X0.00100*%
%ADD93R,0.13400X0.00100*%
%ADD94R,0.12700X0.00100*%
%ADD95R,0.10000X0.00100*%
%ADD96R,0.04800X0.00100*%
%ADD97R,0.13200X0.00100*%
%ADD98R,0.10600X0.00100*%
%ADD99R,0.00200X0.00100*%
%ADD100C,0.00600*%
%ADD101C,0.00500*%
%ADD102C,0.00400*%
%ADD103R,0.02559X0.05512*%
%ADD104R,0.05512X0.02559*%
%ADD105C,0.00800*%
%ADD106C,0.00100*%
D10*
X0013311Y0001894D02*
X0155043Y0001894D01*
X0155328Y0001897D01*
X0155614Y0001908D01*
X0155899Y0001925D01*
X0156183Y0001949D01*
X0156467Y0001980D01*
X0156750Y0002018D01*
X0157031Y0002063D01*
X0157312Y0002114D01*
X0157592Y0002172D01*
X0157870Y0002237D01*
X0158146Y0002309D01*
X0158420Y0002387D01*
X0158693Y0002472D01*
X0158963Y0002564D01*
X0159231Y0002662D01*
X0159497Y0002766D01*
X0159760Y0002877D01*
X0160020Y0002994D01*
X0160278Y0003117D01*
X0160532Y0003247D01*
X0160783Y0003383D01*
X0161031Y0003524D01*
X0161275Y0003672D01*
X0161516Y0003825D01*
X0161752Y0003985D01*
X0161985Y0004150D01*
X0162214Y0004320D01*
X0162439Y0004496D01*
X0162659Y0004678D01*
X0162875Y0004864D01*
X0163086Y0005056D01*
X0163293Y0005253D01*
X0163495Y0005455D01*
X0163692Y0005662D01*
X0163884Y0005873D01*
X0164070Y0006089D01*
X0164252Y0006309D01*
X0164428Y0006534D01*
X0164598Y0006763D01*
X0164763Y0006996D01*
X0164923Y0007232D01*
X0165076Y0007473D01*
X0165224Y0007717D01*
X0165365Y0007965D01*
X0165501Y0008216D01*
X0165631Y0008470D01*
X0165754Y0008728D01*
X0165871Y0008988D01*
X0165982Y0009251D01*
X0166086Y0009517D01*
X0166184Y0009785D01*
X0166276Y0010055D01*
X0166361Y0010328D01*
X0166439Y0010602D01*
X0166511Y0010878D01*
X0166576Y0011156D01*
X0166634Y0011436D01*
X0166685Y0011717D01*
X0166730Y0011998D01*
X0166768Y0012281D01*
X0166799Y0012565D01*
X0166823Y0012849D01*
X0166840Y0013134D01*
X0166851Y0013420D01*
X0166854Y0013705D01*
X0166854Y0155437D01*
X0166851Y0155722D01*
X0166840Y0156008D01*
X0166823Y0156293D01*
X0166799Y0156577D01*
X0166768Y0156861D01*
X0166730Y0157144D01*
X0166685Y0157425D01*
X0166634Y0157706D01*
X0166576Y0157986D01*
X0166511Y0158264D01*
X0166439Y0158540D01*
X0166361Y0158814D01*
X0166276Y0159087D01*
X0166184Y0159357D01*
X0166086Y0159625D01*
X0165982Y0159891D01*
X0165871Y0160154D01*
X0165754Y0160414D01*
X0165631Y0160672D01*
X0165501Y0160926D01*
X0165365Y0161177D01*
X0165224Y0161425D01*
X0165076Y0161669D01*
X0164923Y0161910D01*
X0164763Y0162146D01*
X0164598Y0162379D01*
X0164428Y0162608D01*
X0164252Y0162833D01*
X0164070Y0163053D01*
X0163884Y0163269D01*
X0163692Y0163480D01*
X0163495Y0163687D01*
X0163293Y0163889D01*
X0163086Y0164086D01*
X0162875Y0164278D01*
X0162659Y0164464D01*
X0162439Y0164646D01*
X0162214Y0164822D01*
X0161985Y0164992D01*
X0161752Y0165157D01*
X0161516Y0165317D01*
X0161275Y0165470D01*
X0161031Y0165618D01*
X0160783Y0165759D01*
X0160532Y0165895D01*
X0160278Y0166025D01*
X0160020Y0166148D01*
X0159760Y0166265D01*
X0159497Y0166376D01*
X0159231Y0166480D01*
X0158963Y0166578D01*
X0158693Y0166670D01*
X0158420Y0166755D01*
X0158146Y0166833D01*
X0157870Y0166905D01*
X0157592Y0166970D01*
X0157312Y0167028D01*
X0157031Y0167079D01*
X0156750Y0167124D01*
X0156467Y0167162D01*
X0156183Y0167193D01*
X0155899Y0167217D01*
X0155614Y0167234D01*
X0155328Y0167245D01*
X0155043Y0167248D01*
X0013311Y0167248D01*
X0013026Y0167245D01*
X0012740Y0167234D01*
X0012455Y0167217D01*
X0012171Y0167193D01*
X0011887Y0167162D01*
X0011604Y0167124D01*
X0011323Y0167079D01*
X0011042Y0167028D01*
X0010762Y0166970D01*
X0010484Y0166905D01*
X0010208Y0166833D01*
X0009934Y0166755D01*
X0009661Y0166670D01*
X0009391Y0166578D01*
X0009123Y0166480D01*
X0008857Y0166376D01*
X0008594Y0166265D01*
X0008334Y0166148D01*
X0008076Y0166025D01*
X0007822Y0165895D01*
X0007571Y0165759D01*
X0007323Y0165618D01*
X0007079Y0165470D01*
X0006838Y0165317D01*
X0006602Y0165157D01*
X0006369Y0164992D01*
X0006140Y0164822D01*
X0005915Y0164646D01*
X0005695Y0164464D01*
X0005479Y0164278D01*
X0005268Y0164086D01*
X0005061Y0163889D01*
X0004859Y0163687D01*
X0004662Y0163480D01*
X0004470Y0163269D01*
X0004284Y0163053D01*
X0004102Y0162833D01*
X0003926Y0162608D01*
X0003756Y0162379D01*
X0003591Y0162146D01*
X0003431Y0161910D01*
X0003278Y0161669D01*
X0003130Y0161425D01*
X0002989Y0161177D01*
X0002853Y0160926D01*
X0002723Y0160672D01*
X0002600Y0160414D01*
X0002483Y0160154D01*
X0002372Y0159891D01*
X0002268Y0159625D01*
X0002170Y0159357D01*
X0002078Y0159087D01*
X0001993Y0158814D01*
X0001915Y0158540D01*
X0001843Y0158264D01*
X0001778Y0157986D01*
X0001720Y0157706D01*
X0001669Y0157425D01*
X0001624Y0157144D01*
X0001586Y0156861D01*
X0001555Y0156577D01*
X0001531Y0156293D01*
X0001514Y0156008D01*
X0001503Y0155722D01*
X0001500Y0155437D01*
X0001500Y0013705D01*
X0001503Y0013420D01*
X0001514Y0013134D01*
X0001531Y0012849D01*
X0001555Y0012565D01*
X0001586Y0012281D01*
X0001624Y0011998D01*
X0001669Y0011717D01*
X0001720Y0011436D01*
X0001778Y0011156D01*
X0001843Y0010878D01*
X0001915Y0010602D01*
X0001993Y0010328D01*
X0002078Y0010055D01*
X0002170Y0009785D01*
X0002268Y0009517D01*
X0002372Y0009251D01*
X0002483Y0008988D01*
X0002600Y0008728D01*
X0002723Y0008470D01*
X0002853Y0008216D01*
X0002989Y0007965D01*
X0003130Y0007717D01*
X0003278Y0007473D01*
X0003431Y0007232D01*
X0003591Y0006996D01*
X0003756Y0006763D01*
X0003926Y0006534D01*
X0004102Y0006309D01*
X0004284Y0006089D01*
X0004470Y0005873D01*
X0004662Y0005662D01*
X0004859Y0005455D01*
X0005061Y0005253D01*
X0005268Y0005056D01*
X0005479Y0004864D01*
X0005695Y0004678D01*
X0005915Y0004496D01*
X0006140Y0004320D01*
X0006369Y0004150D01*
X0006602Y0003985D01*
X0006838Y0003825D01*
X0007079Y0003672D01*
X0007323Y0003524D01*
X0007571Y0003383D01*
X0007822Y0003247D01*
X0008076Y0003117D01*
X0008334Y0002994D01*
X0008594Y0002877D01*
X0008857Y0002766D01*
X0009123Y0002662D01*
X0009391Y0002564D01*
X0009661Y0002472D01*
X0009934Y0002387D01*
X0010208Y0002309D01*
X0010484Y0002237D01*
X0010762Y0002172D01*
X0011042Y0002114D01*
X0011323Y0002063D01*
X0011604Y0002018D01*
X0011887Y0001980D01*
X0012171Y0001949D01*
X0012455Y0001925D01*
X0012740Y0001908D01*
X0013026Y0001897D01*
X0013311Y0001894D01*
D11*
X0034551Y0065099D02*
X0034551Y0068739D01*
X0036371Y0068739D01*
X0036978Y0068132D01*
X0036978Y0066919D01*
X0036371Y0066312D01*
X0034551Y0066312D01*
X0035764Y0066312D02*
X0036978Y0065099D01*
X0038176Y0065099D02*
X0040603Y0065099D01*
X0041801Y0065099D02*
X0044228Y0065099D01*
X0043015Y0065099D02*
X0043015Y0068739D01*
X0041801Y0067526D01*
X0039389Y0068739D02*
X0039389Y0065099D01*
X0038176Y0067526D02*
X0039389Y0068739D01*
X0022574Y0080847D02*
X0020148Y0080847D01*
X0022574Y0083274D01*
X0022574Y0083880D01*
X0021968Y0084487D01*
X0020754Y0084487D01*
X0020148Y0083880D01*
X0017736Y0084487D02*
X0017736Y0080847D01*
X0018949Y0080847D02*
X0016522Y0080847D01*
X0015324Y0080847D02*
X0014111Y0082060D01*
X0014717Y0082060D02*
X0012897Y0082060D01*
X0012897Y0080847D02*
X0012897Y0084487D01*
X0014717Y0084487D01*
X0015324Y0083880D01*
X0015324Y0082667D01*
X0014717Y0082060D01*
X0016522Y0083274D02*
X0017736Y0084487D01*
X0024966Y0107886D02*
X0026180Y0107886D01*
X0026786Y0108493D01*
X0027985Y0108493D02*
X0028591Y0107886D01*
X0029805Y0107886D01*
X0030411Y0108493D01*
X0030411Y0109100D01*
X0029805Y0109706D01*
X0029198Y0109706D01*
X0029805Y0109706D02*
X0030411Y0110313D01*
X0030411Y0110920D01*
X0029805Y0111526D01*
X0028591Y0111526D01*
X0027985Y0110920D01*
X0026786Y0110920D02*
X0026180Y0111526D01*
X0024966Y0111526D01*
X0024359Y0110920D01*
X0024359Y0108493D01*
X0024966Y0107886D01*
X0032689Y0118642D02*
X0033902Y0118642D01*
X0034509Y0119249D01*
X0035708Y0118642D02*
X0038134Y0118642D01*
X0036921Y0118642D02*
X0036921Y0122282D01*
X0035708Y0121069D01*
X0034509Y0121676D02*
X0033902Y0122282D01*
X0032689Y0122282D01*
X0032082Y0121676D01*
X0032082Y0119249D01*
X0032689Y0118642D01*
X0039333Y0119249D02*
X0039939Y0118642D01*
X0041153Y0118642D01*
X0041759Y0119249D01*
X0041759Y0119855D01*
X0041153Y0120462D01*
X0039333Y0120462D01*
X0039333Y0119249D01*
X0039333Y0120462D02*
X0040546Y0121676D01*
X0041759Y0122282D01*
X0056098Y0128304D02*
X0056705Y0127697D01*
X0057918Y0127697D01*
X0058525Y0128304D01*
X0059723Y0127697D02*
X0062150Y0127697D01*
X0060937Y0127697D02*
X0060937Y0131337D01*
X0059723Y0130124D01*
X0058525Y0130731D02*
X0057918Y0131337D01*
X0056705Y0131337D01*
X0056098Y0130731D01*
X0056098Y0128304D01*
X0063348Y0129517D02*
X0065775Y0129517D01*
X0065168Y0127697D02*
X0065168Y0131337D01*
X0063348Y0129517D01*
X0059813Y0139902D02*
X0058599Y0139902D01*
X0057993Y0140509D01*
X0056794Y0140509D02*
X0056187Y0139902D01*
X0054974Y0139902D01*
X0054367Y0140509D01*
X0054367Y0142935D01*
X0054974Y0143542D01*
X0056187Y0143542D01*
X0056794Y0142935D01*
X0057993Y0143542D02*
X0057993Y0141722D01*
X0059206Y0142329D01*
X0059813Y0142329D01*
X0060419Y0141722D01*
X0060419Y0140509D01*
X0059813Y0139902D01*
X0060419Y0143542D02*
X0057993Y0143542D01*
X0072954Y0111959D02*
X0074774Y0111959D01*
X0075381Y0111353D01*
X0075381Y0110139D01*
X0074774Y0109533D01*
X0072954Y0109533D01*
X0074167Y0109533D02*
X0075381Y0108319D01*
X0076579Y0108926D02*
X0077186Y0108319D01*
X0078399Y0108319D01*
X0079006Y0108926D01*
X0079006Y0111353D01*
X0078399Y0111959D01*
X0077186Y0111959D01*
X0076579Y0111353D01*
X0076579Y0110746D01*
X0077186Y0110139D01*
X0079006Y0110139D01*
X0072954Y0108319D02*
X0072954Y0111959D01*
X0062175Y0101022D02*
X0060355Y0099202D01*
X0062781Y0099202D01*
X0062175Y0097382D02*
X0062175Y0101022D01*
X0059156Y0100416D02*
X0058550Y0101022D01*
X0057336Y0101022D01*
X0056730Y0100416D01*
X0056730Y0097989D01*
X0057336Y0097382D01*
X0058550Y0097382D01*
X0059156Y0097989D01*
X0058418Y0084093D02*
X0056598Y0084093D01*
X0056598Y0080453D01*
X0056598Y0081667D02*
X0058418Y0081667D01*
X0059025Y0082273D01*
X0059025Y0083487D01*
X0058418Y0084093D01*
X0060223Y0082880D02*
X0061437Y0084093D01*
X0061437Y0080453D01*
X0062650Y0080453D02*
X0060223Y0080453D01*
X0059025Y0080453D02*
X0057811Y0081667D01*
X0063848Y0081060D02*
X0063848Y0080453D01*
X0063848Y0081060D02*
X0066275Y0083487D01*
X0066275Y0084093D01*
X0063848Y0084093D01*
X0090455Y0062528D02*
X0093591Y0059392D01*
X0093591Y0060960D02*
X0090455Y0060960D01*
X0090455Y0059392D02*
X0093591Y0062528D01*
X0092023Y0062528D02*
X0092023Y0059392D01*
X0096450Y0086689D02*
X0096450Y0090329D01*
X0098270Y0090329D01*
X0098877Y0089723D01*
X0098877Y0088509D01*
X0098270Y0087903D01*
X0096450Y0087903D01*
X0097663Y0087903D02*
X0098877Y0086689D01*
X0100075Y0087296D02*
X0100682Y0086689D01*
X0101895Y0086689D01*
X0102502Y0087296D01*
X0102502Y0088509D01*
X0101895Y0089116D01*
X0101289Y0089116D01*
X0100075Y0088509D01*
X0100075Y0090329D01*
X0102502Y0090329D01*
X0114560Y0089936D02*
X0114560Y0086296D01*
X0114560Y0087509D02*
X0116380Y0087509D01*
X0116987Y0088116D01*
X0116987Y0089329D01*
X0116380Y0089936D01*
X0114560Y0089936D01*
X0115774Y0087509D02*
X0116987Y0086296D01*
X0118185Y0086902D02*
X0118185Y0088116D01*
X0120005Y0088116D01*
X0120612Y0087509D01*
X0120612Y0086902D01*
X0120005Y0086296D01*
X0118792Y0086296D01*
X0118185Y0086902D01*
X0118185Y0088116D02*
X0119399Y0089329D01*
X0120612Y0089936D01*
X0123976Y0075892D02*
X0127112Y0072756D01*
X0127112Y0074324D02*
X0123976Y0074324D01*
X0123976Y0072756D02*
X0127112Y0075892D01*
X0125544Y0075892D02*
X0125544Y0072756D01*
X0135863Y0077517D02*
X0136470Y0076910D01*
X0137684Y0076910D01*
X0138290Y0077517D01*
X0139489Y0077517D02*
X0139489Y0078123D01*
X0140095Y0078730D01*
X0141309Y0078730D01*
X0141915Y0078123D01*
X0141915Y0077517D01*
X0141309Y0076910D01*
X0140095Y0076910D01*
X0139489Y0077517D01*
X0140095Y0078730D02*
X0139489Y0079337D01*
X0139489Y0079943D01*
X0140095Y0080550D01*
X0141309Y0080550D01*
X0141915Y0079943D01*
X0141915Y0079337D01*
X0141309Y0078730D01*
X0138290Y0079943D02*
X0137684Y0080550D01*
X0136470Y0080550D01*
X0135863Y0079943D01*
X0135863Y0077517D01*
X0136624Y0058022D02*
X0134804Y0058022D01*
X0134804Y0054382D01*
X0134804Y0055596D02*
X0136624Y0055596D01*
X0137231Y0056202D01*
X0137231Y0057416D01*
X0136624Y0058022D01*
X0138430Y0056809D02*
X0139643Y0058022D01*
X0139643Y0054382D01*
X0138430Y0054382D02*
X0140856Y0054382D01*
X0137231Y0054382D02*
X0136018Y0055596D01*
X0151412Y0052683D02*
X0153839Y0052683D01*
X0151838Y0029880D02*
X0151838Y0027454D01*
X0150625Y0028667D02*
X0153052Y0028667D01*
X0155917Y0104666D02*
X0155311Y0105272D01*
X0155311Y0107699D01*
X0155917Y0108306D01*
X0157131Y0108306D01*
X0157737Y0107699D01*
X0158936Y0107092D02*
X0160149Y0108306D01*
X0160149Y0104666D01*
X0158936Y0104666D02*
X0161363Y0104666D01*
X0162561Y0105272D02*
X0163168Y0104666D01*
X0164381Y0104666D01*
X0164988Y0105272D01*
X0164988Y0106486D01*
X0164381Y0107092D01*
X0163774Y0107092D01*
X0162561Y0106486D01*
X0162561Y0108306D01*
X0164988Y0108306D01*
X0157737Y0105272D02*
X0157131Y0104666D01*
X0155917Y0104666D01*
X0136535Y0124154D02*
X0137141Y0124761D01*
X0137141Y0125367D01*
X0136535Y0125974D01*
X0134715Y0125974D01*
X0134715Y0124761D01*
X0135321Y0124154D01*
X0136535Y0124154D01*
X0134715Y0125974D02*
X0135928Y0127187D01*
X0137141Y0127794D01*
X0133516Y0124154D02*
X0131089Y0124154D01*
X0129891Y0124154D02*
X0128678Y0125367D01*
X0129284Y0125367D02*
X0127464Y0125367D01*
X0127464Y0124154D02*
X0127464Y0127794D01*
X0129284Y0127794D01*
X0129891Y0127187D01*
X0129891Y0125974D01*
X0129284Y0125367D01*
X0131089Y0126581D02*
X0132303Y0127794D01*
X0132303Y0124154D01*
X0121797Y0123250D02*
X0121797Y0120824D01*
X0121191Y0120217D01*
X0119977Y0120217D01*
X0119370Y0120824D01*
X0118172Y0120824D02*
X0117565Y0120217D01*
X0116352Y0120217D01*
X0115745Y0120824D01*
X0115745Y0123250D01*
X0116352Y0123857D01*
X0117565Y0123857D01*
X0118172Y0123250D01*
X0119370Y0123250D02*
X0119370Y0122644D01*
X0119977Y0122037D01*
X0121797Y0122037D01*
X0121797Y0123250D02*
X0121191Y0123857D01*
X0119977Y0123857D01*
X0119370Y0123250D01*
X0118536Y0128752D02*
X0120963Y0131179D01*
X0120963Y0131786D01*
X0120356Y0132392D01*
X0119142Y0132392D01*
X0118536Y0131786D01*
X0117337Y0131786D02*
X0116731Y0132392D01*
X0115517Y0132392D01*
X0114911Y0131786D01*
X0114911Y0129359D01*
X0115517Y0128752D01*
X0116731Y0128752D01*
X0117337Y0129359D01*
X0118536Y0128752D02*
X0120963Y0128752D01*
X0121148Y0134390D02*
X0120541Y0134997D01*
X0121148Y0134390D02*
X0122361Y0134390D01*
X0122968Y0134997D01*
X0122968Y0136210D01*
X0122361Y0136817D01*
X0121755Y0136817D01*
X0120541Y0136210D01*
X0120541Y0138030D01*
X0122968Y0138030D01*
X0119343Y0134390D02*
X0116916Y0134390D01*
X0115718Y0134390D02*
X0114504Y0135604D01*
X0115111Y0135604D02*
X0113291Y0135604D01*
X0113291Y0134390D02*
X0113291Y0138030D01*
X0115111Y0138030D01*
X0115718Y0137424D01*
X0115718Y0136210D01*
X0115111Y0135604D01*
X0116916Y0136817D02*
X0118130Y0138030D01*
X0118130Y0134390D01*
X0110370Y0129156D02*
X0110370Y0126729D01*
X0109763Y0126122D01*
X0108550Y0126122D01*
X0107943Y0126729D01*
X0110370Y0129156D01*
X0109763Y0129763D01*
X0108550Y0129763D01*
X0107943Y0129156D01*
X0107943Y0126729D01*
X0106744Y0126122D02*
X0104318Y0126122D01*
X0103119Y0126122D02*
X0101906Y0127336D01*
X0102513Y0127336D02*
X0100693Y0127336D01*
X0100693Y0126122D02*
X0100693Y0129763D01*
X0102513Y0129763D01*
X0103119Y0129156D01*
X0103119Y0127942D01*
X0102513Y0127336D01*
X0104318Y0128549D02*
X0105531Y0129763D01*
X0105531Y0126122D01*
X0101735Y0110778D02*
X0100522Y0110778D01*
X0099915Y0110172D01*
X0099915Y0107745D01*
X0102342Y0110172D01*
X0102342Y0107745D01*
X0101735Y0107138D01*
X0100522Y0107138D01*
X0099915Y0107745D01*
X0098717Y0107138D02*
X0096290Y0107138D01*
X0097504Y0107138D02*
X0097504Y0110778D01*
X0096290Y0109565D01*
X0095092Y0110172D02*
X0094485Y0110778D01*
X0093272Y0110778D01*
X0092665Y0110172D01*
X0092665Y0107745D01*
X0093272Y0107138D01*
X0094485Y0107138D01*
X0095092Y0107745D01*
X0101735Y0110778D02*
X0102342Y0110172D01*
X0129084Y0108164D02*
X0129084Y0105737D01*
X0129691Y0105130D01*
X0130904Y0105130D01*
X0131511Y0105737D01*
X0132709Y0105737D02*
X0132709Y0106950D01*
X0134529Y0106950D01*
X0135136Y0106344D01*
X0135136Y0105737D01*
X0134529Y0105130D01*
X0133316Y0105130D01*
X0132709Y0105737D01*
X0132709Y0106950D02*
X0133922Y0108164D01*
X0135136Y0108770D01*
X0131511Y0108164D02*
X0130904Y0108770D01*
X0129691Y0108770D01*
X0129084Y0108164D01*
X0123563Y0145681D02*
X0121136Y0145681D01*
X0123563Y0148108D01*
X0123563Y0148715D01*
X0122956Y0149322D01*
X0121742Y0149322D01*
X0121136Y0148715D01*
X0118724Y0149322D02*
X0118724Y0145681D01*
X0117511Y0145681D02*
X0119937Y0145681D01*
X0117511Y0148108D02*
X0118724Y0149322D01*
X0116312Y0148715D02*
X0115706Y0149322D01*
X0114492Y0149322D01*
X0113886Y0148715D01*
X0113886Y0146288D01*
X0114492Y0145681D01*
X0115706Y0145681D01*
X0116312Y0146288D01*
X0134945Y0147776D02*
X0134945Y0151416D01*
X0136765Y0151416D01*
X0137371Y0150809D01*
X0137371Y0149596D01*
X0136765Y0148989D01*
X0134945Y0148989D01*
X0136158Y0148989D02*
X0137371Y0147776D01*
X0138570Y0147776D02*
X0140996Y0147776D01*
X0139783Y0147776D02*
X0139783Y0151416D01*
X0138570Y0150203D01*
X0142195Y0149596D02*
X0144622Y0149596D01*
X0144015Y0147776D02*
X0144015Y0151416D01*
X0142195Y0149596D01*
X0015055Y0142823D02*
X0015055Y0140396D01*
X0012628Y0142823D01*
X0012021Y0142823D01*
X0011415Y0142216D01*
X0011415Y0141003D01*
X0012021Y0140396D01*
X0011415Y0139198D02*
X0013841Y0139198D01*
X0015055Y0137984D01*
X0013841Y0136771D01*
X0011415Y0136771D01*
X0011415Y0135573D02*
X0011415Y0133146D01*
X0015055Y0133146D01*
X0013235Y0133146D02*
X0013235Y0134359D01*
X0009149Y0133752D02*
X0008543Y0133146D01*
X0007936Y0133752D01*
X0007936Y0135573D01*
X0007329Y0135573D02*
X0009149Y0135573D01*
X0009149Y0133752D01*
X0008543Y0131947D02*
X0007936Y0131947D01*
X0007329Y0131341D01*
X0007329Y0130127D01*
X0006722Y0129521D01*
X0006116Y0129521D01*
X0005509Y0130127D01*
X0005509Y0131341D01*
X0006116Y0131947D01*
X0006722Y0133752D02*
X0006722Y0134966D01*
X0007329Y0135573D01*
X0006722Y0136771D02*
X0006722Y0137984D01*
X0006116Y0137378D02*
X0008543Y0137378D01*
X0009149Y0137984D01*
X0008543Y0131947D02*
X0009149Y0131341D01*
X0009149Y0130127D01*
X0008543Y0129521D01*
X0008543Y0128322D02*
X0009149Y0127716D01*
X0009149Y0126502D01*
X0008543Y0125896D01*
X0009149Y0124697D02*
X0006722Y0124697D01*
X0005509Y0123484D01*
X0006722Y0122270D01*
X0009149Y0122270D01*
X0008543Y0121072D02*
X0007936Y0121072D01*
X0007329Y0120465D01*
X0007329Y0119252D01*
X0006722Y0118645D01*
X0006116Y0118645D01*
X0005509Y0119252D01*
X0005509Y0120465D01*
X0006116Y0121072D01*
X0007329Y0122270D02*
X0007329Y0124697D01*
X0006722Y0125896D02*
X0007329Y0126502D01*
X0007329Y0127716D01*
X0007936Y0128322D01*
X0008543Y0128322D01*
X0011415Y0127716D02*
X0011415Y0126502D01*
X0012021Y0125896D01*
X0012628Y0125896D01*
X0013235Y0126502D01*
X0013235Y0127716D01*
X0013841Y0128322D01*
X0014448Y0128322D01*
X0015055Y0127716D01*
X0015055Y0126502D01*
X0014448Y0125896D01*
X0013235Y0124697D02*
X0013841Y0124090D01*
X0013841Y0122270D01*
X0015055Y0122270D02*
X0011415Y0122270D01*
X0011415Y0124090D01*
X0012021Y0124697D01*
X0013235Y0124697D01*
X0011415Y0127716D02*
X0012021Y0128322D01*
X0006722Y0125896D02*
X0006116Y0125896D01*
X0005509Y0126502D01*
X0005509Y0127716D01*
X0006116Y0128322D01*
X0008543Y0121072D02*
X0009149Y0120465D01*
X0009149Y0119252D01*
X0008543Y0118645D01*
X0011415Y0118645D02*
X0011415Y0121072D01*
X0013235Y0119859D02*
X0013235Y0118645D01*
X0015055Y0118645D02*
X0015055Y0121072D01*
X0015055Y0118645D02*
X0011415Y0118645D01*
D12*
X0033783Y0102681D02*
X0033783Y0100319D01*
X0034964Y0099138D02*
X0034962Y0099072D01*
X0034957Y0099006D01*
X0034947Y0098940D01*
X0034934Y0098875D01*
X0034918Y0098811D01*
X0034898Y0098748D01*
X0034874Y0098686D01*
X0034847Y0098626D01*
X0034817Y0098567D01*
X0034783Y0098510D01*
X0034746Y0098455D01*
X0034706Y0098402D01*
X0034664Y0098351D01*
X0034618Y0098303D01*
X0034570Y0098257D01*
X0034519Y0098215D01*
X0034466Y0098175D01*
X0034411Y0098138D01*
X0034354Y0098104D01*
X0034295Y0098074D01*
X0034235Y0098047D01*
X0034173Y0098023D01*
X0034110Y0098003D01*
X0034046Y0097987D01*
X0033981Y0097974D01*
X0033915Y0097964D01*
X0033849Y0097959D01*
X0033783Y0097957D01*
X0034964Y0099138D02*
X0034962Y0099204D01*
X0034957Y0099270D01*
X0034947Y0099336D01*
X0034934Y0099401D01*
X0034918Y0099465D01*
X0034898Y0099528D01*
X0034874Y0099590D01*
X0034847Y0099650D01*
X0034817Y0099709D01*
X0034783Y0099766D01*
X0034746Y0099821D01*
X0034706Y0099874D01*
X0034664Y0099925D01*
X0034618Y0099973D01*
X0034570Y0100019D01*
X0034519Y0100061D01*
X0034466Y0100101D01*
X0034411Y0100138D01*
X0034354Y0100172D01*
X0034295Y0100202D01*
X0034235Y0100229D01*
X0034173Y0100253D01*
X0034110Y0100273D01*
X0034046Y0100289D01*
X0033981Y0100302D01*
X0033915Y0100312D01*
X0033849Y0100317D01*
X0033783Y0100319D01*
X0045594Y0102681D02*
X0045594Y0095201D01*
D13*
X0045594Y0103469D01*
X0045594Y0105043D02*
X0033783Y0105043D01*
X0033783Y0103469D02*
X0033783Y0100319D01*
X0033783Y0097957D02*
X0033783Y0095201D01*
X0033783Y0093232D02*
X0045594Y0093232D01*
X0047563Y0091264D02*
X0047563Y0107012D01*
X0055437Y0107012D01*
X0055437Y0101894D01*
X0063311Y0101894D01*
X0063311Y0096382D01*
X0055437Y0096382D01*
X0055437Y0091264D01*
X0047563Y0091264D01*
X0055437Y0086539D02*
X0066854Y0086539D01*
X0066854Y0078665D01*
X0055437Y0078665D01*
X0039689Y0078665D01*
X0023941Y0078665D01*
X0011736Y0078665D01*
X0011736Y0086539D01*
X0023941Y0086539D01*
X0023941Y0078665D01*
X0031815Y0077878D02*
X0031815Y0070004D01*
X0033783Y0070004D01*
X0033783Y0064492D01*
X0044807Y0064492D01*
X0044807Y0070004D01*
X0033783Y0070004D01*
X0031815Y0077878D02*
X0047563Y0077878D01*
X0047563Y0070004D01*
X0044807Y0070004D01*
X0039689Y0078665D02*
X0039689Y0086539D01*
X0055437Y0086539D01*
X0055437Y0078665D01*
X0059374Y0066461D02*
X0062130Y0066461D01*
X0062130Y0062130D01*
X0066854Y0062130D01*
X0066854Y0056618D01*
X0066067Y0056618D01*
X0066067Y0052681D01*
X0062917Y0052681D01*
X0062917Y0056618D01*
X0058587Y0056618D01*
X0058587Y0052681D01*
X0055437Y0052681D01*
X0055437Y0056618D01*
X0058587Y0056618D01*
X0055437Y0056618D02*
X0054650Y0056618D01*
X0054650Y0062130D01*
X0059374Y0062130D01*
X0059374Y0066461D01*
X0059374Y0062130D02*
X0062130Y0062130D01*
X0062917Y0056618D02*
X0066067Y0056618D01*
X0092051Y0077484D02*
X0092051Y0085358D01*
X0094807Y0085358D01*
X0094807Y0091264D01*
X0103862Y0091264D01*
X0103862Y0085358D01*
X0107799Y0085358D01*
X0107799Y0077484D01*
X0092051Y0077484D01*
X0094020Y0070791D02*
X0105831Y0070791D01*
X0105831Y0070004D01*
X0105831Y0065280D02*
X0105831Y0064492D01*
X0094020Y0064492D01*
X0094020Y0065673D01*
X0094020Y0070004D02*
X0094020Y0070791D01*
X0094807Y0085358D02*
X0103862Y0085358D01*
X0110161Y0085358D02*
X0110161Y0077484D01*
X0125909Y0077484D01*
X0125909Y0085358D01*
X0121185Y0085358D01*
X0121185Y0090870D01*
X0113705Y0090870D01*
X0113705Y0085358D01*
X0121185Y0085358D01*
X0113705Y0085358D02*
X0110161Y0085358D01*
X0111736Y0070791D02*
X0123547Y0070791D01*
X0123547Y0070004D01*
X0123547Y0065280D02*
X0123547Y0064492D01*
X0111736Y0064492D01*
X0111736Y0065280D01*
X0111736Y0070004D02*
X0111736Y0070791D01*
X0134965Y0075516D02*
X0134965Y0059768D01*
X0142839Y0059768D01*
X0142839Y0075516D01*
X0142839Y0081421D01*
X0134965Y0081421D01*
X0134965Y0075516D01*
X0142839Y0075516D01*
X0144413Y0073154D02*
X0155831Y0073154D01*
X0155831Y0071185D02*
X0155831Y0068429D01*
X0155765Y0068427D01*
X0155699Y0068422D01*
X0155633Y0068412D01*
X0155568Y0068399D01*
X0155504Y0068383D01*
X0155441Y0068363D01*
X0155379Y0068339D01*
X0155319Y0068312D01*
X0155260Y0068282D01*
X0155203Y0068248D01*
X0155148Y0068211D01*
X0155095Y0068171D01*
X0155044Y0068129D01*
X0154996Y0068083D01*
X0154950Y0068035D01*
X0154908Y0067984D01*
X0154868Y0067931D01*
X0154831Y0067876D01*
X0154797Y0067819D01*
X0154767Y0067760D01*
X0154740Y0067700D01*
X0154716Y0067638D01*
X0154696Y0067575D01*
X0154680Y0067511D01*
X0154667Y0067446D01*
X0154657Y0067380D01*
X0154652Y0067314D01*
X0154650Y0067248D01*
X0154652Y0067182D01*
X0154657Y0067116D01*
X0154667Y0067050D01*
X0154680Y0066985D01*
X0154696Y0066921D01*
X0154716Y0066858D01*
X0154740Y0066796D01*
X0154767Y0066736D01*
X0154797Y0066677D01*
X0154831Y0066620D01*
X0154868Y0066565D01*
X0154908Y0066512D01*
X0154950Y0066461D01*
X0154996Y0066413D01*
X0155044Y0066367D01*
X0155095Y0066325D01*
X0155148Y0066285D01*
X0155203Y0066248D01*
X0155260Y0066214D01*
X0155319Y0066184D01*
X0155379Y0066157D01*
X0155441Y0066133D01*
X0155504Y0066113D01*
X0155568Y0066097D01*
X0155633Y0066084D01*
X0155699Y0066074D01*
X0155765Y0066069D01*
X0155831Y0066067D01*
X0155831Y0063705D01*
X0155831Y0061343D02*
X0144020Y0061343D01*
X0144020Y0063311D02*
X0144020Y0070791D01*
X0141657Y0058587D02*
X0133783Y0058587D01*
X0133783Y0053862D01*
X0133783Y0045988D01*
X0149531Y0045988D01*
X0149531Y0053862D01*
X0141657Y0053862D01*
X0141657Y0058587D01*
X0141657Y0053862D02*
X0133783Y0053862D01*
X0128272Y0040476D02*
X0132602Y0036146D01*
X0132602Y0018429D01*
X0035752Y0018429D01*
X0035752Y0019610D02*
X0035752Y0039689D01*
X0128272Y0039689D01*
X0132602Y0035358D01*
X0132602Y0019610D01*
X0035752Y0019610D01*
X0039689Y0086539D02*
X0023941Y0086539D01*
X0023941Y0091264D02*
X0023941Y0107012D01*
X0023941Y0112130D01*
X0031028Y0112130D01*
X0031028Y0107012D01*
X0031815Y0107012D01*
X0031815Y0091264D01*
X0023941Y0091264D01*
X0023941Y0107012D02*
X0031028Y0107012D01*
X0031815Y0109768D02*
X0031815Y0117642D01*
X0031815Y0123547D01*
X0042445Y0123547D01*
X0042445Y0117642D01*
X0047563Y0117642D01*
X0047563Y0109768D01*
X0031815Y0109768D01*
X0031815Y0117642D02*
X0042445Y0117642D01*
X0055437Y0126697D02*
X0066461Y0126697D01*
X0066461Y0132209D01*
X0055437Y0132209D01*
X0055437Y0126697D01*
X0060949Y0133783D02*
X0060949Y0138902D01*
X0053469Y0138902D01*
X0053469Y0144807D01*
X0061343Y0144807D01*
X0060949Y0149531D02*
X0060949Y0138902D01*
X0060949Y0133783D02*
X0068823Y0133783D01*
X0068823Y0149531D01*
X0060949Y0149531D01*
X0072366Y0153075D02*
X0072366Y0141264D01*
X0074728Y0141264D02*
X0077091Y0141264D01*
X0078272Y0142445D02*
X0078338Y0142443D01*
X0078404Y0142438D01*
X0078470Y0142428D01*
X0078535Y0142415D01*
X0078599Y0142399D01*
X0078662Y0142379D01*
X0078724Y0142355D01*
X0078784Y0142328D01*
X0078843Y0142298D01*
X0078900Y0142264D01*
X0078955Y0142227D01*
X0079008Y0142187D01*
X0079059Y0142145D01*
X0079107Y0142099D01*
X0079153Y0142051D01*
X0079195Y0142000D01*
X0079235Y0141947D01*
X0079272Y0141892D01*
X0079306Y0141835D01*
X0079336Y0141776D01*
X0079363Y0141716D01*
X0079387Y0141654D01*
X0079407Y0141591D01*
X0079423Y0141527D01*
X0079436Y0141462D01*
X0079446Y0141396D01*
X0079451Y0141330D01*
X0079453Y0141264D01*
X0082209Y0141264D01*
X0084177Y0141264D02*
X0084177Y0153075D01*
X0082602Y0153075D02*
X0074335Y0153075D01*
X0078272Y0142445D02*
X0078206Y0142443D01*
X0078140Y0142438D01*
X0078074Y0142428D01*
X0078009Y0142415D01*
X0077945Y0142399D01*
X0077882Y0142379D01*
X0077820Y0142355D01*
X0077760Y0142328D01*
X0077701Y0142298D01*
X0077644Y0142264D01*
X0077589Y0142227D01*
X0077536Y0142187D01*
X0077485Y0142145D01*
X0077437Y0142099D01*
X0077391Y0142051D01*
X0077349Y0142000D01*
X0077309Y0141947D01*
X0077272Y0141892D01*
X0077238Y0141835D01*
X0077208Y0141776D01*
X0077181Y0141716D01*
X0077157Y0141654D01*
X0077137Y0141591D01*
X0077121Y0141527D01*
X0077108Y0141462D01*
X0077098Y0141396D01*
X0077093Y0141330D01*
X0077091Y0141264D01*
X0082209Y0133390D02*
X0082209Y0125516D01*
X0066461Y0125516D01*
X0066461Y0126697D01*
X0066461Y0132209D02*
X0066461Y0133390D01*
X0082209Y0133390D01*
X0083783Y0133390D02*
X0083783Y0125516D01*
X0099531Y0125516D01*
X0111343Y0125516D01*
X0111343Y0130634D01*
X0099531Y0130634D01*
X0099531Y0125516D01*
X0099531Y0130634D02*
X0099531Y0133390D01*
X0083783Y0133390D01*
X0086539Y0136933D02*
X0086539Y0144807D01*
X0102287Y0144807D01*
X0102287Y0136933D01*
X0102287Y0132209D01*
X0112524Y0132209D01*
X0112524Y0127878D01*
X0123941Y0127878D01*
X0123941Y0133390D01*
X0123941Y0138902D01*
X0112524Y0138902D01*
X0112524Y0136146D01*
X0103469Y0136146D01*
X0103469Y0147169D01*
X0103075Y0147169D01*
X0087327Y0147169D01*
X0087327Y0155043D01*
X0103075Y0155043D01*
X0103469Y0155043D01*
X0103469Y0147169D01*
X0103075Y0147169D02*
X0103075Y0155043D01*
X0104650Y0155437D02*
X0104650Y0139689D01*
X0112524Y0139689D01*
X0112524Y0144807D01*
X0124728Y0144807D01*
X0124728Y0150319D01*
X0112524Y0150319D01*
X0112524Y0155437D01*
X0104650Y0155437D01*
X0112524Y0150319D02*
X0112524Y0144807D01*
X0112524Y0136146D02*
X0112524Y0133390D01*
X0112524Y0132209D01*
X0112524Y0133390D02*
X0123941Y0133390D01*
X0126697Y0129059D02*
X0135358Y0129059D01*
X0135358Y0144807D01*
X0143232Y0144807D01*
X0143232Y0129059D01*
X0138114Y0129059D01*
X0138114Y0123547D01*
X0126697Y0123547D01*
X0126697Y0129059D01*
X0122760Y0124728D02*
X0114492Y0124728D01*
X0114492Y0119610D01*
X0122760Y0119610D01*
X0122760Y0124728D01*
X0122760Y0119610D02*
X0122760Y0111736D01*
X0107012Y0111736D01*
X0107012Y0119610D01*
X0114492Y0119610D01*
X0106224Y0119610D02*
X0106224Y0111736D01*
X0103075Y0111736D01*
X0103075Y0106618D01*
X0091657Y0106618D01*
X0091657Y0111736D01*
X0090476Y0111736D01*
X0090476Y0119610D01*
X0106224Y0119610D01*
X0103075Y0111736D02*
X0091657Y0111736D01*
X0083783Y0112917D02*
X0083783Y0120791D01*
X0068429Y0120791D01*
X0068429Y0112917D01*
X0071185Y0112917D01*
X0071185Y0107406D01*
X0080634Y0107406D01*
X0080634Y0112917D01*
X0071185Y0112917D01*
X0080634Y0112917D02*
X0083783Y0112917D01*
X0096683Y0101500D02*
X0096685Y0101559D01*
X0096691Y0101617D01*
X0096701Y0101675D01*
X0096714Y0101732D01*
X0096732Y0101789D01*
X0096753Y0101844D01*
X0096778Y0101897D01*
X0096806Y0101948D01*
X0096837Y0101998D01*
X0096872Y0102045D01*
X0096910Y0102090D01*
X0096951Y0102133D01*
X0096995Y0102172D01*
X0097041Y0102208D01*
X0097089Y0102242D01*
X0097140Y0102272D01*
X0097193Y0102298D01*
X0097247Y0102321D01*
X0097302Y0102340D01*
X0097359Y0102356D01*
X0097417Y0102368D01*
X0097475Y0102376D01*
X0097534Y0102380D01*
X0097592Y0102380D01*
X0097651Y0102376D01*
X0097709Y0102368D01*
X0097767Y0102356D01*
X0097824Y0102340D01*
X0097879Y0102321D01*
X0097933Y0102298D01*
X0097986Y0102272D01*
X0098037Y0102242D01*
X0098085Y0102208D01*
X0098131Y0102172D01*
X0098175Y0102133D01*
X0098216Y0102090D01*
X0098254Y0102045D01*
X0098289Y0101998D01*
X0098320Y0101948D01*
X0098348Y0101897D01*
X0098373Y0101844D01*
X0098394Y0101789D01*
X0098412Y0101732D01*
X0098425Y0101675D01*
X0098435Y0101617D01*
X0098441Y0101559D01*
X0098443Y0101500D01*
X0098441Y0101441D01*
X0098435Y0101383D01*
X0098425Y0101325D01*
X0098412Y0101268D01*
X0098394Y0101211D01*
X0098373Y0101156D01*
X0098348Y0101103D01*
X0098320Y0101052D01*
X0098289Y0101002D01*
X0098254Y0100955D01*
X0098216Y0100910D01*
X0098175Y0100867D01*
X0098131Y0100828D01*
X0098085Y0100792D01*
X0098037Y0100758D01*
X0097986Y0100728D01*
X0097933Y0100702D01*
X0097879Y0100679D01*
X0097824Y0100660D01*
X0097767Y0100644D01*
X0097709Y0100632D01*
X0097651Y0100624D01*
X0097592Y0100620D01*
X0097534Y0100620D01*
X0097475Y0100624D01*
X0097417Y0100632D01*
X0097359Y0100644D01*
X0097302Y0100660D01*
X0097247Y0100679D01*
X0097193Y0100702D01*
X0097140Y0100728D01*
X0097089Y0100758D01*
X0097041Y0100792D01*
X0096995Y0100828D01*
X0096951Y0100867D01*
X0096910Y0100910D01*
X0096872Y0100955D01*
X0096837Y0101002D01*
X0096806Y0101052D01*
X0096778Y0101103D01*
X0096753Y0101156D01*
X0096732Y0101211D01*
X0096714Y0101268D01*
X0096701Y0101325D01*
X0096691Y0101383D01*
X0096685Y0101441D01*
X0096683Y0101500D01*
X0102287Y0136933D02*
X0086539Y0136933D01*
X0055437Y0101894D02*
X0055437Y0096382D01*
X0133783Y0146776D02*
X0145201Y0146776D01*
X0145201Y0152287D01*
X0133783Y0152287D01*
X0133783Y0146776D01*
X0145201Y0146776D02*
X0145201Y0143626D01*
X0146382Y0143626D01*
X0146382Y0135752D01*
X0162130Y0135752D01*
X0162130Y0143626D01*
X0146382Y0143626D01*
X0138114Y0129059D02*
X0135358Y0129059D01*
X0140870Y0127484D02*
X0152681Y0127484D01*
X0152681Y0125516D02*
X0152681Y0122366D01*
X0151801Y0121579D02*
X0151803Y0121638D01*
X0151809Y0121696D01*
X0151819Y0121754D01*
X0151832Y0121811D01*
X0151850Y0121868D01*
X0151871Y0121923D01*
X0151896Y0121976D01*
X0151924Y0122027D01*
X0151955Y0122077D01*
X0151990Y0122124D01*
X0152028Y0122169D01*
X0152069Y0122212D01*
X0152113Y0122251D01*
X0152159Y0122287D01*
X0152207Y0122321D01*
X0152258Y0122351D01*
X0152311Y0122377D01*
X0152365Y0122400D01*
X0152420Y0122419D01*
X0152477Y0122435D01*
X0152535Y0122447D01*
X0152593Y0122455D01*
X0152652Y0122459D01*
X0152710Y0122459D01*
X0152769Y0122455D01*
X0152827Y0122447D01*
X0152885Y0122435D01*
X0152942Y0122419D01*
X0152997Y0122400D01*
X0153051Y0122377D01*
X0153104Y0122351D01*
X0153155Y0122321D01*
X0153203Y0122287D01*
X0153249Y0122251D01*
X0153293Y0122212D01*
X0153334Y0122169D01*
X0153372Y0122124D01*
X0153407Y0122077D01*
X0153438Y0122027D01*
X0153466Y0121976D01*
X0153491Y0121923D01*
X0153512Y0121868D01*
X0153530Y0121811D01*
X0153543Y0121754D01*
X0153553Y0121696D01*
X0153559Y0121638D01*
X0153561Y0121579D01*
X0153559Y0121520D01*
X0153553Y0121462D01*
X0153543Y0121404D01*
X0153530Y0121347D01*
X0153512Y0121290D01*
X0153491Y0121235D01*
X0153466Y0121182D01*
X0153438Y0121131D01*
X0153407Y0121081D01*
X0153372Y0121034D01*
X0153334Y0120989D01*
X0153293Y0120946D01*
X0153249Y0120907D01*
X0153203Y0120871D01*
X0153155Y0120837D01*
X0153104Y0120807D01*
X0153051Y0120781D01*
X0152997Y0120758D01*
X0152942Y0120739D01*
X0152885Y0120723D01*
X0152827Y0120711D01*
X0152769Y0120703D01*
X0152710Y0120699D01*
X0152652Y0120699D01*
X0152593Y0120703D01*
X0152535Y0120711D01*
X0152477Y0120723D01*
X0152420Y0120739D01*
X0152365Y0120758D01*
X0152311Y0120781D01*
X0152258Y0120807D01*
X0152207Y0120837D01*
X0152159Y0120871D01*
X0152113Y0120907D01*
X0152069Y0120946D01*
X0152028Y0120989D01*
X0151990Y0121034D01*
X0151955Y0121081D01*
X0151924Y0121131D01*
X0151896Y0121182D01*
X0151871Y0121235D01*
X0151850Y0121290D01*
X0151832Y0121347D01*
X0151819Y0121404D01*
X0151809Y0121462D01*
X0151803Y0121520D01*
X0151801Y0121579D01*
X0152681Y0120791D02*
X0152681Y0117642D01*
X0152681Y0116067D02*
X0152681Y0115673D01*
X0140870Y0115673D01*
X0140870Y0118035D02*
X0140870Y0125516D01*
X0155437Y0127484D02*
X0155437Y0111736D01*
X0159768Y0111736D01*
X0160949Y0111736D01*
X0160949Y0109374D01*
X0160555Y0109374D01*
X0160555Y0111343D01*
X0160161Y0111343D01*
X0160161Y0109374D01*
X0160555Y0109374D01*
X0159768Y0108980D02*
X0159768Y0111736D01*
X0160949Y0111736D02*
X0162917Y0111736D01*
X0162917Y0127484D01*
X0155437Y0127484D01*
X0153469Y0110949D02*
X0153469Y0103075D01*
X0137720Y0103075D01*
X0137720Y0110949D01*
X0153469Y0110949D01*
X0154650Y0108980D02*
X0154650Y0103862D01*
X0165673Y0103862D01*
X0165673Y0108980D01*
X0159768Y0108980D01*
X0154650Y0108980D01*
X0155831Y0098350D02*
X0144020Y0098350D01*
X0144020Y0095988D02*
X0144020Y0088508D01*
X0144020Y0086539D02*
X0155831Y0086539D01*
X0155831Y0088902D02*
X0155831Y0091264D01*
X0154650Y0092445D02*
X0154652Y0092511D01*
X0154657Y0092577D01*
X0154667Y0092643D01*
X0154680Y0092708D01*
X0154696Y0092772D01*
X0154716Y0092835D01*
X0154740Y0092897D01*
X0154767Y0092957D01*
X0154797Y0093016D01*
X0154831Y0093073D01*
X0154868Y0093128D01*
X0154908Y0093181D01*
X0154950Y0093232D01*
X0154996Y0093280D01*
X0155044Y0093326D01*
X0155095Y0093368D01*
X0155148Y0093408D01*
X0155203Y0093445D01*
X0155260Y0093479D01*
X0155319Y0093509D01*
X0155379Y0093536D01*
X0155441Y0093560D01*
X0155504Y0093580D01*
X0155568Y0093596D01*
X0155633Y0093609D01*
X0155699Y0093619D01*
X0155765Y0093624D01*
X0155831Y0093626D01*
X0155831Y0096776D01*
X0155831Y0097957D02*
X0155831Y0098350D01*
X0154650Y0092445D02*
X0154652Y0092379D01*
X0154657Y0092313D01*
X0154667Y0092247D01*
X0154680Y0092182D01*
X0154696Y0092118D01*
X0154716Y0092055D01*
X0154740Y0091993D01*
X0154767Y0091933D01*
X0154797Y0091874D01*
X0154831Y0091817D01*
X0154868Y0091762D01*
X0154908Y0091709D01*
X0154950Y0091658D01*
X0154996Y0091610D01*
X0155044Y0091564D01*
X0155095Y0091522D01*
X0155148Y0091482D01*
X0155203Y0091445D01*
X0155260Y0091411D01*
X0155319Y0091381D01*
X0155379Y0091354D01*
X0155441Y0091330D01*
X0155504Y0091310D01*
X0155568Y0091294D01*
X0155633Y0091281D01*
X0155699Y0091271D01*
X0155765Y0091266D01*
X0155831Y0091264D01*
X0143927Y0031028D02*
X0143929Y0031087D01*
X0143935Y0031145D01*
X0143945Y0031203D01*
X0143958Y0031260D01*
X0143976Y0031317D01*
X0143997Y0031372D01*
X0144022Y0031425D01*
X0144050Y0031476D01*
X0144081Y0031526D01*
X0144116Y0031573D01*
X0144154Y0031618D01*
X0144195Y0031661D01*
X0144239Y0031700D01*
X0144285Y0031736D01*
X0144333Y0031770D01*
X0144384Y0031800D01*
X0144437Y0031826D01*
X0144491Y0031849D01*
X0144546Y0031868D01*
X0144603Y0031884D01*
X0144661Y0031896D01*
X0144719Y0031904D01*
X0144778Y0031908D01*
X0144836Y0031908D01*
X0144895Y0031904D01*
X0144953Y0031896D01*
X0145011Y0031884D01*
X0145068Y0031868D01*
X0145123Y0031849D01*
X0145177Y0031826D01*
X0145230Y0031800D01*
X0145281Y0031770D01*
X0145329Y0031736D01*
X0145375Y0031700D01*
X0145419Y0031661D01*
X0145460Y0031618D01*
X0145498Y0031573D01*
X0145533Y0031526D01*
X0145564Y0031476D01*
X0145592Y0031425D01*
X0145617Y0031372D01*
X0145638Y0031317D01*
X0145656Y0031260D01*
X0145669Y0031203D01*
X0145679Y0031145D01*
X0145685Y0031087D01*
X0145687Y0031028D01*
X0145685Y0030969D01*
X0145679Y0030911D01*
X0145669Y0030853D01*
X0145656Y0030796D01*
X0145638Y0030739D01*
X0145617Y0030684D01*
X0145592Y0030631D01*
X0145564Y0030580D01*
X0145533Y0030530D01*
X0145498Y0030483D01*
X0145460Y0030438D01*
X0145419Y0030395D01*
X0145375Y0030356D01*
X0145329Y0030320D01*
X0145281Y0030286D01*
X0145230Y0030256D01*
X0145177Y0030230D01*
X0145123Y0030207D01*
X0145068Y0030188D01*
X0145011Y0030172D01*
X0144953Y0030160D01*
X0144895Y0030152D01*
X0144836Y0030148D01*
X0144778Y0030148D01*
X0144719Y0030152D01*
X0144661Y0030160D01*
X0144603Y0030172D01*
X0144546Y0030188D01*
X0144491Y0030207D01*
X0144437Y0030230D01*
X0144384Y0030256D01*
X0144333Y0030286D01*
X0144285Y0030320D01*
X0144239Y0030356D01*
X0144195Y0030395D01*
X0144154Y0030438D01*
X0144116Y0030483D01*
X0144081Y0030530D01*
X0144050Y0030580D01*
X0144022Y0030631D01*
X0143997Y0030684D01*
X0143976Y0030739D01*
X0143958Y0030796D01*
X0143945Y0030853D01*
X0143935Y0030911D01*
X0143929Y0030969D01*
X0143927Y0031028D01*
D14*
X0032976Y0029864D02*
X0032976Y0028487D01*
X0032057Y0028487D02*
X0032057Y0029864D01*
X0032516Y0030323D01*
X0032976Y0029864D01*
X0032057Y0029864D02*
X0031598Y0030323D01*
X0031139Y0030323D01*
X0031139Y0028487D01*
X0030257Y0028946D02*
X0030257Y0029864D01*
X0029798Y0030323D01*
X0028879Y0030323D01*
X0028420Y0029864D01*
X0028420Y0028946D01*
X0028879Y0028487D01*
X0029798Y0028487D01*
X0030257Y0028946D01*
X0027538Y0028487D02*
X0026160Y0028487D01*
X0025701Y0028946D01*
X0025701Y0029864D01*
X0026160Y0030323D01*
X0027538Y0030323D01*
X0024801Y0028946D02*
X0024801Y0028487D01*
X0024342Y0028487D01*
X0024342Y0028946D01*
X0024801Y0028946D01*
X0023460Y0029405D02*
X0021623Y0029405D01*
X0021623Y0029864D02*
X0022082Y0030323D01*
X0023000Y0030323D01*
X0023460Y0029864D01*
X0023460Y0029405D01*
X0023000Y0028487D02*
X0022082Y0028487D01*
X0021623Y0028946D01*
X0021623Y0029864D01*
X0020741Y0030323D02*
X0020741Y0028027D01*
X0020282Y0027568D01*
X0019822Y0027568D01*
X0019363Y0028487D02*
X0020741Y0028487D01*
X0019363Y0028487D02*
X0018904Y0028946D01*
X0018904Y0030323D01*
X0018016Y0030323D02*
X0016638Y0029405D01*
X0018016Y0028487D01*
X0016638Y0028487D02*
X0016638Y0031242D01*
X0015285Y0031242D02*
X0015285Y0031701D01*
X0015285Y0030323D02*
X0014826Y0030323D01*
X0015285Y0030323D02*
X0015285Y0028487D01*
X0014826Y0028487D02*
X0015744Y0028487D01*
X0013932Y0028487D02*
X0013472Y0028946D01*
X0013472Y0030783D01*
X0013013Y0030323D02*
X0013932Y0030323D01*
X0012125Y0030323D02*
X0011666Y0030323D01*
X0010748Y0029405D01*
X0009865Y0029405D02*
X0008488Y0029405D01*
X0008029Y0028946D01*
X0008488Y0028487D01*
X0009865Y0028487D01*
X0009865Y0029864D01*
X0009406Y0030323D01*
X0008488Y0030323D01*
X0007141Y0030323D02*
X0005763Y0029405D01*
X0007141Y0028487D01*
X0005763Y0028487D02*
X0005763Y0031242D01*
X0010748Y0030323D02*
X0010748Y0028487D01*
D15*
X0070874Y0082864D03*
X0075274Y0077964D03*
X0079874Y0081364D03*
X0088974Y0080064D03*
X0088974Y0079964D03*
X0079874Y0071864D03*
X0071074Y0091564D03*
X0071174Y0091664D03*
X0072274Y0097464D03*
X0088674Y0091664D03*
D16*
X0071024Y0074564D03*
X0071024Y0074464D03*
X0079924Y0071964D03*
X0088724Y0073164D03*
X0088724Y0073164D03*
D17*
X0088724Y0073464D03*
X0088724Y0073564D03*
X0088724Y0073664D03*
X0088724Y0073764D03*
X0088724Y0073864D03*
X0088724Y0073964D03*
X0079924Y0072064D03*
X0071024Y0073364D03*
X0071024Y0073464D03*
X0071024Y0073864D03*
X0071024Y0073964D03*
X0071024Y0074064D03*
X0071024Y0074164D03*
X0080024Y0088264D03*
X0079924Y0094064D03*
D18*
X0079874Y0091664D03*
X0079874Y0075464D03*
X0079874Y0072164D03*
D19*
X0082274Y0072264D03*
X0077474Y0072264D03*
X0073474Y0076564D03*
X0073474Y0076664D03*
X0072774Y0078664D03*
X0078774Y0083264D03*
X0078774Y0083364D03*
X0078874Y0085764D03*
X0080974Y0085664D03*
X0080974Y0085564D03*
X0080974Y0085464D03*
X0080974Y0085364D03*
X0080974Y0085264D03*
X0079874Y0079464D03*
X0079874Y0079364D03*
X0079874Y0079264D03*
X0079874Y0079164D03*
X0077474Y0090164D03*
X0087374Y0095964D03*
D20*
X0083024Y0097164D03*
X0083024Y0097264D03*
X0081424Y0100364D03*
X0078324Y0100364D03*
X0077124Y0097264D03*
X0077124Y0097164D03*
X0073824Y0079964D03*
X0073824Y0079864D03*
X0073824Y0079764D03*
X0073824Y0079664D03*
X0073824Y0079564D03*
X0074024Y0076364D03*
X0079824Y0078764D03*
X0079924Y0079764D03*
X0085924Y0079664D03*
X0085924Y0079564D03*
X0085924Y0079964D03*
X0085924Y0080064D03*
X0087224Y0078864D03*
X0079924Y0072664D03*
X0079924Y0072564D03*
X0079924Y0072464D03*
X0079924Y0072364D03*
X0079924Y0072264D03*
D21*
X0079924Y0073164D03*
X0082824Y0072364D03*
X0081024Y0077164D03*
X0085924Y0079164D03*
X0087024Y0076964D03*
X0088724Y0077764D03*
X0076924Y0072364D03*
X0072824Y0072964D03*
X0072624Y0077064D03*
X0071024Y0077764D03*
X0071024Y0078864D03*
X0069524Y0083064D03*
X0077124Y0096664D03*
X0077124Y0097664D03*
X0078424Y0099964D03*
X0078424Y0100064D03*
X0079824Y0100064D03*
X0081224Y0100064D03*
X0083624Y0102364D03*
X0083024Y0097664D03*
X0083024Y0096664D03*
X0080024Y0096864D03*
X0088724Y0095564D03*
D22*
X0086974Y0095064D03*
X0086974Y0094964D03*
X0086974Y0094864D03*
X0086974Y0094764D03*
X0087074Y0094664D03*
X0087074Y0094564D03*
X0086874Y0095164D03*
X0086874Y0095264D03*
X0086874Y0095364D03*
X0086574Y0096364D03*
X0086574Y0096464D03*
X0086474Y0096664D03*
X0086474Y0096764D03*
X0086374Y0096964D03*
X0086074Y0097664D03*
X0085974Y0097764D03*
X0085874Y0097864D03*
X0085874Y0097964D03*
X0085774Y0098064D03*
X0085674Y0098164D03*
X0085574Y0098364D03*
X0085474Y0098464D03*
X0085374Y0098664D03*
X0085274Y0098764D03*
X0085174Y0098864D03*
X0085174Y0098964D03*
X0085074Y0099064D03*
X0084974Y0099264D03*
X0084874Y0099664D03*
X0084374Y0101264D03*
X0084074Y0101964D03*
X0083574Y0102464D03*
X0083174Y0102064D03*
X0083074Y0101964D03*
X0082974Y0101864D03*
X0082874Y0101764D03*
X0082774Y0101664D03*
X0082674Y0101464D03*
X0082574Y0101364D03*
X0082474Y0101264D03*
X0082374Y0101064D03*
X0082274Y0100964D03*
X0082174Y0100764D03*
X0081174Y0099664D03*
X0079874Y0099764D03*
X0077674Y0100764D03*
X0077574Y0100864D03*
X0077374Y0101164D03*
X0077074Y0101564D03*
X0076774Y0101964D03*
X0076674Y0102064D03*
X0076174Y0102464D03*
X0075774Y0102064D03*
X0075674Y0101964D03*
X0075674Y0101864D03*
X0075574Y0101664D03*
X0075474Y0101464D03*
X0075474Y0101364D03*
X0075374Y0101164D03*
X0075274Y0100964D03*
X0075274Y0100864D03*
X0075174Y0100664D03*
X0075174Y0100564D03*
X0075074Y0100264D03*
X0074974Y0099964D03*
X0074874Y0099564D03*
X0074874Y0099464D03*
X0074774Y0099164D03*
X0074674Y0099064D03*
X0074674Y0098964D03*
X0074574Y0098864D03*
X0074474Y0098764D03*
X0074474Y0098664D03*
X0074374Y0098564D03*
X0074274Y0098464D03*
X0074274Y0098364D03*
X0074174Y0098264D03*
X0074074Y0098164D03*
X0074074Y0098064D03*
X0073974Y0097964D03*
X0073874Y0097864D03*
X0073774Y0097764D03*
X0073774Y0097664D03*
X0073474Y0097164D03*
X0073474Y0097064D03*
X0073374Y0096864D03*
X0073274Y0096564D03*
X0073074Y0096064D03*
X0072974Y0095564D03*
X0072974Y0095464D03*
X0072974Y0095364D03*
X0072874Y0095264D03*
X0072874Y0095164D03*
X0072874Y0095064D03*
X0072874Y0094964D03*
X0072774Y0094764D03*
X0072774Y0094664D03*
X0072774Y0094564D03*
X0072674Y0093864D03*
X0072674Y0093764D03*
X0072674Y0093664D03*
X0072474Y0092664D03*
X0072474Y0092564D03*
X0072374Y0091364D03*
X0072374Y0091264D03*
X0072374Y0091164D03*
X0072374Y0091064D03*
X0072274Y0090064D03*
X0072274Y0089964D03*
X0072274Y0089864D03*
X0072274Y0089764D03*
X0072274Y0089664D03*
X0072274Y0089564D03*
X0072174Y0089264D03*
X0072174Y0089164D03*
X0072174Y0089064D03*
X0072174Y0088964D03*
X0072174Y0088864D03*
X0072174Y0088764D03*
X0072174Y0088664D03*
X0072174Y0088564D03*
X0072174Y0088464D03*
X0072174Y0088364D03*
X0072174Y0088264D03*
X0072174Y0088164D03*
X0072174Y0088064D03*
X0072174Y0087964D03*
X0072174Y0087864D03*
X0072174Y0087264D03*
X0072174Y0087164D03*
X0072174Y0087064D03*
X0072174Y0086964D03*
X0072174Y0086864D03*
X0072174Y0086764D03*
X0072174Y0086664D03*
X0072174Y0086564D03*
X0072174Y0086464D03*
X0072174Y0086364D03*
X0072174Y0086264D03*
X0072174Y0086164D03*
X0072074Y0085964D03*
X0072074Y0085864D03*
X0072074Y0085764D03*
X0072074Y0085664D03*
X0072074Y0085564D03*
X0072074Y0085464D03*
X0072074Y0085364D03*
X0072074Y0085264D03*
X0072074Y0085164D03*
X0072074Y0085064D03*
X0072074Y0084964D03*
X0072074Y0084864D03*
X0072074Y0084764D03*
X0072074Y0084664D03*
X0072174Y0084564D03*
X0072174Y0084464D03*
X0072174Y0084364D03*
X0072174Y0084264D03*
X0072174Y0084164D03*
X0072174Y0084064D03*
X0072174Y0083964D03*
X0072174Y0083864D03*
X0072174Y0083764D03*
X0072174Y0083664D03*
X0072174Y0083564D03*
X0072174Y0083464D03*
X0072174Y0083364D03*
X0072174Y0083264D03*
X0072174Y0083164D03*
X0072174Y0083064D03*
X0072174Y0082464D03*
X0072174Y0082364D03*
X0072174Y0082264D03*
X0072174Y0082164D03*
X0072174Y0082064D03*
X0072174Y0081964D03*
X0072174Y0081864D03*
X0072174Y0081764D03*
X0072174Y0081664D03*
X0072174Y0081564D03*
X0072174Y0081464D03*
X0072174Y0081364D03*
X0072174Y0081264D03*
X0072174Y0081164D03*
X0072174Y0081064D03*
X0072174Y0080964D03*
X0072174Y0080864D03*
X0072174Y0080764D03*
X0072174Y0080664D03*
X0072174Y0080564D03*
X0072174Y0080464D03*
X0072174Y0079864D03*
X0072174Y0079764D03*
X0072174Y0079664D03*
X0072174Y0079564D03*
X0072174Y0079464D03*
X0072174Y0079364D03*
X0072174Y0079264D03*
X0072174Y0078564D03*
X0072174Y0078464D03*
X0072174Y0078364D03*
X0072174Y0078264D03*
X0072174Y0078164D03*
X0072174Y0078064D03*
X0072174Y0077964D03*
X0072174Y0077864D03*
X0072174Y0077764D03*
X0072174Y0077664D03*
X0071074Y0077664D03*
X0071074Y0078964D03*
X0069874Y0080464D03*
X0069874Y0080564D03*
X0069874Y0080664D03*
X0069874Y0080764D03*
X0069874Y0080864D03*
X0069874Y0080964D03*
X0069874Y0081064D03*
X0069874Y0081164D03*
X0069874Y0082164D03*
X0069874Y0082264D03*
X0069874Y0082364D03*
X0069874Y0082464D03*
X0069374Y0083164D03*
X0069274Y0083264D03*
X0069274Y0083364D03*
X0069274Y0083464D03*
X0069174Y0083664D03*
X0069174Y0083764D03*
X0069174Y0083864D03*
X0069074Y0084164D03*
X0069074Y0084264D03*
X0069074Y0084364D03*
X0069074Y0084464D03*
X0069074Y0084564D03*
X0069074Y0084664D03*
X0069074Y0084764D03*
X0069074Y0084864D03*
X0069074Y0084964D03*
X0069074Y0085064D03*
X0069074Y0085164D03*
X0069074Y0085264D03*
X0069074Y0085364D03*
X0069074Y0085464D03*
X0069074Y0085564D03*
X0069074Y0085664D03*
X0069074Y0085764D03*
X0069074Y0085864D03*
X0069074Y0085964D03*
X0069074Y0086064D03*
X0069074Y0086164D03*
X0069074Y0086264D03*
X0069074Y0086364D03*
X0069174Y0086564D03*
X0069174Y0086664D03*
X0069174Y0086764D03*
X0069174Y0086864D03*
X0069174Y0086964D03*
X0069174Y0087064D03*
X0069174Y0087164D03*
X0069174Y0087264D03*
X0069174Y0087364D03*
X0069174Y0087464D03*
X0069174Y0087564D03*
X0069174Y0087664D03*
X0069174Y0087764D03*
X0069174Y0087864D03*
X0069274Y0088264D03*
X0069274Y0088364D03*
X0069274Y0088464D03*
X0069274Y0088564D03*
X0069274Y0088664D03*
X0069274Y0088764D03*
X0069274Y0088864D03*
X0069274Y0088964D03*
X0069274Y0089064D03*
X0069274Y0089164D03*
X0069274Y0089264D03*
X0069374Y0089764D03*
X0069374Y0089864D03*
X0069374Y0089964D03*
X0069374Y0090064D03*
X0069374Y0090164D03*
X0069374Y0090264D03*
X0069374Y0090364D03*
X0069374Y0090464D03*
X0069474Y0090764D03*
X0069474Y0090864D03*
X0069574Y0091064D03*
X0069574Y0091164D03*
X0070874Y0095364D03*
X0072374Y0096064D03*
X0079474Y0096464D03*
X0080574Y0096464D03*
X0087174Y0093764D03*
X0087174Y0093664D03*
X0087174Y0093064D03*
X0087274Y0092864D03*
X0087274Y0092764D03*
X0087474Y0090864D03*
X0087474Y0090764D03*
X0087474Y0090664D03*
X0087474Y0090564D03*
X0087474Y0090464D03*
X0090174Y0091264D03*
X0090274Y0090964D03*
X0090374Y0090564D03*
X0090374Y0090464D03*
X0090374Y0090364D03*
X0090474Y0090064D03*
X0090474Y0089964D03*
X0090474Y0089864D03*
X0090474Y0089764D03*
X0090474Y0089664D03*
X0090474Y0089564D03*
X0090474Y0089464D03*
X0090474Y0089364D03*
X0090474Y0089264D03*
X0090474Y0089164D03*
X0090474Y0089064D03*
X0090474Y0088964D03*
X0090474Y0088864D03*
X0090474Y0088764D03*
X0090574Y0088564D03*
X0090574Y0088464D03*
X0090574Y0088364D03*
X0090574Y0088264D03*
X0090574Y0088164D03*
X0090574Y0088064D03*
X0090574Y0087964D03*
X0090574Y0087864D03*
X0090674Y0086964D03*
X0090674Y0086864D03*
X0090674Y0086764D03*
X0090674Y0086664D03*
X0090674Y0086564D03*
X0090674Y0086464D03*
X0090674Y0086364D03*
X0090674Y0086264D03*
X0090674Y0086164D03*
X0090674Y0086064D03*
X0090674Y0085964D03*
X0090674Y0085864D03*
X0090674Y0085764D03*
X0090674Y0085664D03*
X0090674Y0085564D03*
X0090674Y0085464D03*
X0090674Y0085364D03*
X0090674Y0085264D03*
X0090674Y0085164D03*
X0090674Y0085064D03*
X0090674Y0084964D03*
X0090674Y0084864D03*
X0090674Y0084764D03*
X0090674Y0084664D03*
X0090674Y0084564D03*
X0090674Y0084464D03*
X0090674Y0084364D03*
X0090674Y0084264D03*
X0090674Y0084164D03*
X0090674Y0084064D03*
X0090674Y0083964D03*
X0090674Y0083864D03*
X0090574Y0083464D03*
X0089974Y0082464D03*
X0089974Y0082364D03*
X0089974Y0082264D03*
X0089974Y0081564D03*
X0089974Y0081464D03*
X0089974Y0081364D03*
X0089974Y0081264D03*
X0089974Y0081164D03*
X0089974Y0081064D03*
X0089974Y0080964D03*
X0089974Y0080864D03*
X0089974Y0080764D03*
X0089974Y0080664D03*
X0090474Y0079764D03*
X0090574Y0079564D03*
X0090674Y0079164D03*
X0090674Y0079064D03*
X0090674Y0078964D03*
X0090674Y0078864D03*
X0090674Y0078764D03*
X0090674Y0078664D03*
X0090674Y0078564D03*
X0090674Y0078464D03*
X0090674Y0078364D03*
X0090674Y0078264D03*
X0090674Y0078164D03*
X0090674Y0078064D03*
X0090674Y0077964D03*
X0090674Y0077864D03*
X0090674Y0077764D03*
X0090674Y0077664D03*
X0090674Y0077564D03*
X0087574Y0077564D03*
X0087574Y0077664D03*
X0087574Y0077764D03*
X0087574Y0077864D03*
X0087474Y0077364D03*
X0087374Y0077264D03*
X0086974Y0076364D03*
X0085774Y0077264D03*
X0085774Y0077364D03*
X0085774Y0077464D03*
X0085774Y0077564D03*
X0085774Y0077664D03*
X0085774Y0077764D03*
X0085974Y0079064D03*
X0087674Y0079264D03*
X0087674Y0079364D03*
X0087674Y0079464D03*
X0087674Y0079564D03*
X0087674Y0079664D03*
X0087674Y0079764D03*
X0087674Y0079864D03*
X0087674Y0080464D03*
X0087674Y0080564D03*
X0087674Y0080664D03*
X0087674Y0080764D03*
X0087674Y0080864D03*
X0087674Y0080964D03*
X0087674Y0081064D03*
X0087674Y0081164D03*
X0087674Y0081264D03*
X0087674Y0081364D03*
X0087674Y0081464D03*
X0087674Y0081564D03*
X0087674Y0081664D03*
X0087674Y0081764D03*
X0087674Y0081864D03*
X0087674Y0081964D03*
X0087674Y0082064D03*
X0087674Y0082164D03*
X0087674Y0082264D03*
X0087674Y0082364D03*
X0087674Y0082464D03*
X0087674Y0082964D03*
X0087674Y0083064D03*
X0087674Y0083164D03*
X0087674Y0083264D03*
X0087674Y0083364D03*
X0087674Y0083464D03*
X0087674Y0083564D03*
X0087674Y0083664D03*
X0087674Y0083764D03*
X0087674Y0083864D03*
X0087674Y0083964D03*
X0087674Y0084064D03*
X0087674Y0084164D03*
X0087674Y0084264D03*
X0087674Y0084364D03*
X0087674Y0084464D03*
X0087674Y0084564D03*
X0087674Y0084664D03*
X0087674Y0084764D03*
X0087674Y0084864D03*
X0087674Y0084964D03*
X0087674Y0085064D03*
X0087674Y0085164D03*
X0087674Y0085264D03*
X0087674Y0085364D03*
X0087674Y0085464D03*
X0087674Y0085564D03*
X0087674Y0085664D03*
X0087674Y0085764D03*
X0087674Y0085864D03*
X0087674Y0085964D03*
X0087674Y0086064D03*
X0087674Y0078564D03*
X0087674Y0078464D03*
X0083574Y0076964D03*
X0083574Y0076864D03*
X0083574Y0076764D03*
X0083574Y0076664D03*
X0083574Y0076564D03*
X0083574Y0076464D03*
X0083574Y0076364D03*
X0083574Y0076264D03*
X0082174Y0075164D03*
X0082274Y0074964D03*
X0082374Y0074864D03*
X0082474Y0074664D03*
X0082574Y0074464D03*
X0082674Y0074164D03*
X0082774Y0074064D03*
X0082774Y0073964D03*
X0082974Y0073464D03*
X0082974Y0073364D03*
X0083074Y0073064D03*
X0083074Y0072964D03*
X0083074Y0072864D03*
X0083074Y0072564D03*
X0082974Y0072464D03*
X0081174Y0075964D03*
X0081174Y0076064D03*
X0081174Y0076164D03*
X0081174Y0076264D03*
X0081174Y0076364D03*
X0081174Y0076464D03*
X0081174Y0076564D03*
X0081174Y0076664D03*
X0081174Y0076764D03*
X0081174Y0076864D03*
X0081174Y0076964D03*
X0081174Y0077064D03*
X0078674Y0077064D03*
X0078674Y0077164D03*
X0078674Y0076964D03*
X0078674Y0076864D03*
X0078674Y0076764D03*
X0078674Y0076664D03*
X0078674Y0076564D03*
X0078674Y0076464D03*
X0078674Y0076364D03*
X0077574Y0075164D03*
X0077474Y0074864D03*
X0077374Y0074764D03*
X0077374Y0074664D03*
X0077274Y0074564D03*
X0077074Y0074064D03*
X0076974Y0073864D03*
X0076874Y0073564D03*
X0076774Y0073364D03*
X0076774Y0073264D03*
X0076774Y0073164D03*
X0076674Y0072764D03*
X0076674Y0072664D03*
X0076774Y0072464D03*
X0076174Y0076064D03*
X0076174Y0076164D03*
X0076174Y0076264D03*
X0076174Y0076364D03*
X0076174Y0076464D03*
X0076174Y0076564D03*
X0076174Y0076664D03*
X0076174Y0076764D03*
X0076174Y0076864D03*
X0076274Y0077064D03*
X0076274Y0077164D03*
X0076274Y0077264D03*
X0076274Y0077364D03*
X0075974Y0078264D03*
X0075974Y0078364D03*
X0075974Y0078464D03*
X0075974Y0078564D03*
X0075974Y0078664D03*
X0075974Y0078764D03*
X0075974Y0078864D03*
X0075974Y0078964D03*
X0075974Y0079064D03*
X0075974Y0079164D03*
X0075974Y0079264D03*
X0075974Y0079364D03*
X0075974Y0079464D03*
X0075974Y0079564D03*
X0075974Y0079664D03*
X0075974Y0079764D03*
X0075974Y0079864D03*
X0075974Y0079964D03*
X0075974Y0080064D03*
X0075974Y0080164D03*
X0075974Y0080264D03*
X0075974Y0080364D03*
X0075974Y0080464D03*
X0075974Y0080564D03*
X0075974Y0080664D03*
X0075974Y0080764D03*
X0075974Y0080864D03*
X0075974Y0080964D03*
X0075974Y0081064D03*
X0075974Y0081164D03*
X0075974Y0081264D03*
X0075974Y0081364D03*
X0075974Y0081464D03*
X0075974Y0081564D03*
X0075974Y0081664D03*
X0075974Y0081764D03*
X0075974Y0081864D03*
X0075974Y0081964D03*
X0075974Y0082064D03*
X0075974Y0082164D03*
X0075974Y0082264D03*
X0075974Y0082364D03*
X0075974Y0082464D03*
X0075974Y0082564D03*
X0075974Y0082664D03*
X0075974Y0082764D03*
X0075974Y0082864D03*
X0075974Y0082964D03*
X0075974Y0083064D03*
X0075974Y0083164D03*
X0075974Y0083264D03*
X0075974Y0083364D03*
X0075974Y0083464D03*
X0075974Y0083564D03*
X0075974Y0083664D03*
X0075974Y0083764D03*
X0075974Y0083864D03*
X0075974Y0083964D03*
X0075974Y0084064D03*
X0075974Y0084164D03*
X0075974Y0084264D03*
X0075974Y0084364D03*
X0075974Y0084464D03*
X0075974Y0084564D03*
X0075974Y0084664D03*
X0075974Y0084764D03*
X0075974Y0084864D03*
X0075974Y0084964D03*
X0075974Y0085064D03*
X0075974Y0085164D03*
X0075974Y0085264D03*
X0075974Y0085364D03*
X0075974Y0085464D03*
X0075974Y0085564D03*
X0075974Y0085664D03*
X0075974Y0085764D03*
X0075974Y0085864D03*
X0075874Y0086064D03*
X0075874Y0086164D03*
X0075874Y0086264D03*
X0075874Y0086364D03*
X0075874Y0086464D03*
X0075874Y0086564D03*
X0075874Y0086664D03*
X0075874Y0086764D03*
X0075774Y0086864D03*
X0075774Y0086964D03*
X0069274Y0079664D03*
X0069174Y0079464D03*
X0069074Y0079064D03*
X0069074Y0078964D03*
X0069074Y0078864D03*
X0069074Y0078764D03*
X0069074Y0078664D03*
X0069074Y0078564D03*
X0069074Y0078464D03*
X0069174Y0077264D03*
X0069174Y0077164D03*
X0069174Y0077064D03*
X0069174Y0076964D03*
X0069174Y0076864D03*
X0069174Y0076764D03*
X0069274Y0076664D03*
X0069274Y0076564D03*
X0074074Y0077564D03*
X0074074Y0077664D03*
X0074074Y0077764D03*
D23*
X0077524Y0075064D03*
X0077524Y0074964D03*
X0077224Y0074464D03*
X0077224Y0074364D03*
X0077124Y0074264D03*
X0077124Y0074164D03*
X0077024Y0073964D03*
X0076924Y0073764D03*
X0076924Y0073664D03*
X0076824Y0073464D03*
X0076724Y0073064D03*
X0076724Y0072964D03*
X0076724Y0072864D03*
X0076724Y0072564D03*
X0078624Y0075664D03*
X0078624Y0075764D03*
X0078624Y0075864D03*
X0078624Y0075964D03*
X0078624Y0076064D03*
X0078624Y0076164D03*
X0078624Y0076264D03*
X0081224Y0075864D03*
X0081224Y0075764D03*
X0081224Y0075664D03*
X0082224Y0075064D03*
X0082424Y0074764D03*
X0082524Y0074564D03*
X0082624Y0074364D03*
X0082624Y0074264D03*
X0082824Y0073864D03*
X0082824Y0073764D03*
X0082924Y0073664D03*
X0082924Y0073564D03*
X0083024Y0073264D03*
X0083024Y0073164D03*
X0083124Y0072764D03*
X0083124Y0072664D03*
X0079924Y0073364D03*
X0083624Y0076064D03*
X0083624Y0076164D03*
X0083524Y0077064D03*
X0083524Y0077164D03*
X0083524Y0077264D03*
X0083524Y0077364D03*
X0085824Y0077164D03*
X0085824Y0077064D03*
X0085824Y0076964D03*
X0085824Y0076864D03*
X0085824Y0076764D03*
X0087624Y0077964D03*
X0087624Y0078064D03*
X0087624Y0078164D03*
X0087624Y0078264D03*
X0087624Y0078364D03*
X0089924Y0080464D03*
X0089924Y0080564D03*
X0090524Y0079664D03*
X0090624Y0079464D03*
X0090624Y0079364D03*
X0090624Y0079264D03*
X0090624Y0077464D03*
X0090624Y0077364D03*
X0090624Y0077264D03*
X0090624Y0077164D03*
X0090624Y0077064D03*
X0090624Y0076964D03*
X0090624Y0076864D03*
X0090624Y0076764D03*
X0090524Y0076664D03*
X0090524Y0076564D03*
X0090424Y0076464D03*
X0089924Y0081664D03*
X0089924Y0081764D03*
X0089924Y0081864D03*
X0089924Y0081964D03*
X0089924Y0082064D03*
X0089924Y0082164D03*
X0090424Y0083164D03*
X0090524Y0083264D03*
X0090524Y0083364D03*
X0090624Y0083564D03*
X0090624Y0083664D03*
X0090624Y0083764D03*
X0090524Y0088664D03*
X0087324Y0092564D03*
X0087324Y0092664D03*
X0087224Y0092964D03*
X0086824Y0095464D03*
X0086824Y0095564D03*
X0086724Y0096064D03*
X0086624Y0096164D03*
X0086624Y0096264D03*
X0086524Y0096564D03*
X0086424Y0096864D03*
X0086324Y0097064D03*
X0086324Y0097164D03*
X0085624Y0098264D03*
X0085424Y0098564D03*
X0085024Y0099164D03*
X0084924Y0099364D03*
X0084924Y0099464D03*
X0084924Y0099564D03*
X0084824Y0099764D03*
X0084824Y0099864D03*
X0084824Y0099964D03*
X0084724Y0100164D03*
X0084624Y0100464D03*
X0084624Y0100564D03*
X0084524Y0100764D03*
X0084524Y0100864D03*
X0084524Y0100964D03*
X0084424Y0101064D03*
X0084424Y0101164D03*
X0084324Y0101364D03*
X0084324Y0101464D03*
X0084224Y0101564D03*
X0084224Y0101664D03*
X0084224Y0101764D03*
X0084124Y0101864D03*
X0084024Y0102064D03*
X0087524Y0097864D03*
X0088824Y0097364D03*
X0087424Y0096064D03*
X0088924Y0095364D03*
X0080024Y0097164D03*
X0080024Y0097264D03*
X0080024Y0097364D03*
X0080024Y0097464D03*
X0078424Y0099664D03*
X0075124Y0100364D03*
X0075124Y0100464D03*
X0075224Y0100764D03*
X0075324Y0101064D03*
X0075424Y0101264D03*
X0075524Y0101564D03*
X0075624Y0101764D03*
X0075024Y0100164D03*
X0075024Y0100064D03*
X0074924Y0099864D03*
X0074924Y0099764D03*
X0074924Y0099664D03*
X0074824Y0099364D03*
X0074824Y0099264D03*
X0073424Y0096964D03*
X0073324Y0096764D03*
X0073324Y0096664D03*
X0073224Y0096464D03*
X0073224Y0096364D03*
X0073124Y0096264D03*
X0073124Y0096164D03*
X0072824Y0094864D03*
X0072324Y0097864D03*
X0070924Y0097364D03*
X0072124Y0086064D03*
X0069124Y0084064D03*
X0069124Y0083964D03*
X0069224Y0083564D03*
X0069224Y0079564D03*
X0069124Y0079364D03*
X0069124Y0079264D03*
X0069124Y0079164D03*
X0069124Y0078364D03*
X0069124Y0078264D03*
X0069124Y0078164D03*
X0069124Y0078064D03*
X0069124Y0077964D03*
X0069124Y0077864D03*
X0069124Y0077764D03*
X0069124Y0077664D03*
X0069124Y0077564D03*
X0069124Y0077464D03*
X0069124Y0077364D03*
X0075924Y0085964D03*
D24*
X0073874Y0080164D03*
X0073874Y0080064D03*
X0073874Y0079464D03*
X0073874Y0079364D03*
X0073774Y0078364D03*
X0072574Y0078864D03*
X0074574Y0076164D03*
X0079774Y0078664D03*
X0079874Y0072764D03*
X0086074Y0078364D03*
X0085874Y0079464D03*
X0085874Y0080164D03*
X0088774Y0078464D03*
X0088774Y0078364D03*
X0083074Y0097064D03*
X0079874Y0100864D03*
X0076174Y0102164D03*
X0077174Y0097064D03*
D25*
X0077124Y0096964D03*
X0077124Y0096864D03*
X0077124Y0097364D03*
X0077124Y0097464D03*
X0080024Y0096764D03*
X0083024Y0096864D03*
X0083024Y0096964D03*
X0083024Y0097364D03*
X0083024Y0097464D03*
X0081424Y0100264D03*
X0083524Y0102164D03*
X0076224Y0102264D03*
X0072724Y0092064D03*
X0079924Y0079864D03*
X0085924Y0080264D03*
X0085924Y0079364D03*
X0086324Y0078464D03*
X0087324Y0078964D03*
X0088824Y0078264D03*
X0088824Y0078164D03*
X0084924Y0076064D03*
X0079924Y0072964D03*
X0079924Y0072864D03*
X0073524Y0078464D03*
X0073324Y0078564D03*
X0071024Y0078564D03*
X0071024Y0078464D03*
X0071024Y0078364D03*
X0071024Y0078264D03*
X0071024Y0078164D03*
X0071024Y0078064D03*
D26*
X0070624Y0072964D03*
X0079924Y0086964D03*
X0073424Y0092264D03*
X0070624Y0091464D03*
X0086124Y0094264D03*
X0086424Y0092264D03*
D27*
X0084824Y0092464D03*
X0088724Y0074564D03*
X0071024Y0073064D03*
D28*
X0072924Y0076864D03*
X0071024Y0077864D03*
X0071024Y0078664D03*
X0071024Y0078764D03*
X0072424Y0079064D03*
X0079624Y0077164D03*
X0079924Y0079964D03*
X0085924Y0080364D03*
X0085924Y0079264D03*
X0087424Y0079064D03*
X0088724Y0077864D03*
X0086724Y0076764D03*
X0079924Y0073064D03*
X0086924Y0093164D03*
X0086824Y0094064D03*
X0083024Y0096764D03*
X0083024Y0097564D03*
X0077124Y0097564D03*
X0077124Y0096764D03*
D29*
X0079974Y0077364D03*
X0079874Y0075264D03*
X0071074Y0074964D03*
X0088774Y0073064D03*
D30*
X0088774Y0073264D03*
X0088774Y0074364D03*
X0071074Y0074364D03*
X0071074Y0073164D03*
X0075074Y0092464D03*
D31*
X0071074Y0074264D03*
X0071074Y0073264D03*
X0088774Y0074064D03*
D32*
X0090324Y0076364D03*
X0088724Y0077664D03*
X0088824Y0078864D03*
X0087624Y0079164D03*
X0087524Y0077464D03*
X0087324Y0077164D03*
X0087224Y0077064D03*
X0083824Y0078264D03*
X0083824Y0078364D03*
X0083824Y0078464D03*
X0083824Y0078564D03*
X0083824Y0078664D03*
X0083824Y0078764D03*
X0083824Y0078864D03*
X0083824Y0078964D03*
X0083824Y0079064D03*
X0083824Y0079164D03*
X0083824Y0079264D03*
X0083824Y0079364D03*
X0083824Y0079464D03*
X0083824Y0079564D03*
X0083824Y0079664D03*
X0083824Y0079764D03*
X0083824Y0079864D03*
X0083824Y0079964D03*
X0083824Y0080064D03*
X0083824Y0080164D03*
X0083824Y0080264D03*
X0083824Y0080364D03*
X0083824Y0080464D03*
X0083824Y0080564D03*
X0083824Y0080664D03*
X0083824Y0080764D03*
X0083824Y0080864D03*
X0083824Y0080964D03*
X0083824Y0081064D03*
X0083824Y0081164D03*
X0083824Y0081264D03*
X0083824Y0081364D03*
X0083824Y0081464D03*
X0083824Y0081564D03*
X0083824Y0081664D03*
X0083824Y0081764D03*
X0083824Y0081864D03*
X0083824Y0081964D03*
X0083824Y0082064D03*
X0083824Y0082164D03*
X0083824Y0082264D03*
X0083824Y0082364D03*
X0083824Y0082464D03*
X0083824Y0082564D03*
X0083824Y0082664D03*
X0083824Y0082764D03*
X0083824Y0082864D03*
X0083824Y0082964D03*
X0083824Y0083064D03*
X0083824Y0083164D03*
X0083824Y0083264D03*
X0083824Y0083364D03*
X0083824Y0083464D03*
X0083824Y0083564D03*
X0083824Y0083664D03*
X0083824Y0083764D03*
X0083824Y0083864D03*
X0083824Y0083964D03*
X0083824Y0084064D03*
X0083824Y0084164D03*
X0083824Y0084264D03*
X0083824Y0084364D03*
X0083824Y0084464D03*
X0083824Y0084564D03*
X0083924Y0086064D03*
X0083924Y0086164D03*
X0083924Y0086264D03*
X0083924Y0086364D03*
X0083924Y0086464D03*
X0083924Y0086564D03*
X0083924Y0086664D03*
X0083924Y0086764D03*
X0083924Y0086864D03*
X0087624Y0086864D03*
X0087624Y0086964D03*
X0087624Y0087064D03*
X0087624Y0087164D03*
X0087624Y0087264D03*
X0087624Y0086764D03*
X0087624Y0086664D03*
X0087624Y0086564D03*
X0087624Y0086464D03*
X0087624Y0086364D03*
X0087624Y0086264D03*
X0087624Y0086164D03*
X0087624Y0087964D03*
X0087624Y0088064D03*
X0087624Y0088164D03*
X0087624Y0088264D03*
X0087624Y0088364D03*
X0087624Y0088464D03*
X0087624Y0088564D03*
X0087624Y0088664D03*
X0087624Y0088764D03*
X0087624Y0088864D03*
X0087624Y0088964D03*
X0087524Y0089264D03*
X0087524Y0089364D03*
X0087524Y0089464D03*
X0087524Y0089564D03*
X0087524Y0089664D03*
X0087524Y0089764D03*
X0087524Y0089864D03*
X0087524Y0089964D03*
X0087524Y0090064D03*
X0087524Y0090164D03*
X0087524Y0090264D03*
X0087524Y0090364D03*
X0087424Y0090964D03*
X0087424Y0091064D03*
X0087424Y0091164D03*
X0087424Y0091264D03*
X0087424Y0091364D03*
X0087424Y0091464D03*
X0087124Y0093864D03*
X0087124Y0093964D03*
X0086924Y0095664D03*
X0086324Y0097264D03*
X0088824Y0095464D03*
X0090224Y0091164D03*
X0090224Y0091064D03*
X0090324Y0090864D03*
X0090324Y0090764D03*
X0090324Y0090664D03*
X0090424Y0090264D03*
X0090424Y0090164D03*
X0090624Y0087764D03*
X0090624Y0087664D03*
X0090624Y0087564D03*
X0090624Y0087464D03*
X0090624Y0087364D03*
X0090624Y0087264D03*
X0090624Y0087164D03*
X0090624Y0087064D03*
X0090224Y0083064D03*
X0090324Y0079864D03*
X0079824Y0080064D03*
X0076224Y0076964D03*
X0075924Y0078164D03*
X0074024Y0077464D03*
X0074024Y0077364D03*
X0074024Y0077264D03*
X0074024Y0077164D03*
X0074024Y0077064D03*
X0074024Y0076964D03*
X0074024Y0076864D03*
X0072824Y0076364D03*
X0072424Y0077264D03*
X0072324Y0077364D03*
X0072324Y0077464D03*
X0072224Y0077564D03*
X0073824Y0079064D03*
X0073824Y0080464D03*
X0069824Y0081264D03*
X0069824Y0081364D03*
X0069824Y0081464D03*
X0069824Y0081564D03*
X0069824Y0081664D03*
X0069824Y0081764D03*
X0069824Y0081864D03*
X0069824Y0081964D03*
X0069824Y0082064D03*
X0069424Y0079864D03*
X0069324Y0079764D03*
X0069324Y0076464D03*
X0069424Y0076364D03*
X0069124Y0086464D03*
X0069224Y0087964D03*
X0069224Y0088064D03*
X0069224Y0088164D03*
X0069324Y0089364D03*
X0069324Y0089464D03*
X0069324Y0089564D03*
X0069324Y0089664D03*
X0069424Y0090564D03*
X0069424Y0090664D03*
X0069524Y0090964D03*
X0069624Y0091264D03*
X0069724Y0091364D03*
X0072324Y0091464D03*
X0072324Y0090964D03*
X0072324Y0090864D03*
X0072324Y0090764D03*
X0072324Y0090664D03*
X0072324Y0090564D03*
X0072324Y0090464D03*
X0072324Y0090364D03*
X0072324Y0090264D03*
X0072324Y0090164D03*
X0072224Y0089464D03*
X0072224Y0089364D03*
X0072524Y0092764D03*
X0072524Y0092864D03*
X0072524Y0092964D03*
X0072624Y0093064D03*
X0072724Y0093964D03*
X0073424Y0097264D03*
X0077124Y0097764D03*
X0077124Y0096564D03*
X0079524Y0096564D03*
X0080024Y0096964D03*
X0080024Y0097064D03*
X0080524Y0096564D03*
X0083024Y0096564D03*
X0083024Y0097764D03*
X0082024Y0100664D03*
X0082224Y0100864D03*
X0082424Y0101164D03*
X0082724Y0101564D03*
X0077524Y0100964D03*
X0077424Y0101064D03*
X0077324Y0101264D03*
X0077224Y0101364D03*
X0077124Y0101464D03*
X0077024Y0101664D03*
X0076924Y0101764D03*
X0076824Y0101864D03*
X0075724Y0087064D03*
X0079924Y0073264D03*
D33*
X0088724Y0073364D03*
X0088724Y0074164D03*
X0088724Y0074264D03*
X0084524Y0093564D03*
X0075224Y0093564D03*
D34*
X0079874Y0092964D03*
X0079874Y0089664D03*
X0071074Y0073764D03*
X0071074Y0073664D03*
X0071074Y0073564D03*
D35*
X0071074Y0074664D03*
X0088774Y0074464D03*
D36*
X0088774Y0074664D03*
X0071074Y0074764D03*
X0071074Y0074864D03*
D37*
X0079924Y0075364D03*
X0088724Y0074764D03*
X0079924Y0094964D03*
D38*
X0071024Y0075064D03*
X0088724Y0074964D03*
X0088724Y0074864D03*
D39*
X0088674Y0075064D03*
X0071074Y0075164D03*
D40*
X0079874Y0075164D03*
X0079874Y0081464D03*
X0079874Y0086564D03*
D41*
X0071074Y0075264D03*
X0088674Y0075164D03*
D42*
X0088724Y0075264D03*
X0071124Y0075364D03*
X0079924Y0100464D03*
D43*
X0079874Y0089764D03*
X0071174Y0075464D03*
X0088674Y0075364D03*
D44*
X0088674Y0075464D03*
X0071174Y0075564D03*
X0071174Y0075664D03*
D45*
X0079874Y0075564D03*
X0079874Y0090364D03*
X0079874Y0091364D03*
D46*
X0074524Y0094364D03*
X0079524Y0100664D03*
X0085224Y0094364D03*
X0088624Y0075564D03*
D47*
X0088774Y0080364D03*
X0079874Y0081164D03*
X0076674Y0075664D03*
X0071474Y0091964D03*
X0073674Y0093364D03*
D48*
X0072074Y0095764D03*
X0072074Y0097664D03*
X0087774Y0097664D03*
X0087674Y0095764D03*
X0082974Y0075664D03*
X0076074Y0075764D03*
D49*
X0071224Y0075864D03*
X0071124Y0076264D03*
X0079924Y0082264D03*
X0079924Y0082364D03*
X0079924Y0082464D03*
X0079924Y0082564D03*
X0079924Y0082664D03*
X0079924Y0082764D03*
X0079924Y0083464D03*
X0079924Y0083564D03*
X0079924Y0083664D03*
X0079924Y0083764D03*
X0079924Y0083864D03*
X0079924Y0083964D03*
X0079924Y0084064D03*
X0079924Y0084164D03*
X0079924Y0084264D03*
X0079924Y0084364D03*
X0079924Y0084464D03*
X0079924Y0084564D03*
X0079924Y0084664D03*
X0079924Y0084764D03*
X0079924Y0084864D03*
X0085924Y0087464D03*
X0088624Y0075764D03*
X0088624Y0075664D03*
D50*
X0085874Y0087364D03*
X0071174Y0075764D03*
D51*
X0083574Y0075764D03*
X0073374Y0093264D03*
X0072174Y0095864D03*
X0087574Y0095864D03*
D52*
X0075424Y0075964D03*
X0075724Y0075864D03*
D53*
X0084074Y0075864D03*
X0080974Y0082864D03*
X0080974Y0083364D03*
X0073174Y0092164D03*
X0073374Y0094164D03*
X0072074Y0097764D03*
X0087774Y0097764D03*
D54*
X0079924Y0091764D03*
X0086024Y0087664D03*
X0079924Y0085864D03*
X0079924Y0081864D03*
X0088624Y0076264D03*
X0088624Y0076164D03*
X0088624Y0076064D03*
X0088624Y0075964D03*
X0088624Y0075864D03*
X0071224Y0075964D03*
X0071124Y0076164D03*
D55*
X0084324Y0075964D03*
D56*
X0079874Y0081764D03*
X0079874Y0085964D03*
X0073774Y0087564D03*
X0079874Y0093064D03*
X0085574Y0093464D03*
X0071174Y0076064D03*
D57*
X0074124Y0078264D03*
X0074924Y0076064D03*
X0079824Y0078864D03*
X0079824Y0078964D03*
X0079824Y0079064D03*
X0078724Y0082864D03*
X0078724Y0082964D03*
X0078724Y0083064D03*
X0078724Y0083164D03*
X0078724Y0085164D03*
X0078824Y0085664D03*
X0079924Y0087064D03*
X0084524Y0087164D03*
X0089724Y0082964D03*
X0087124Y0078764D03*
X0086324Y0076564D03*
X0086324Y0076464D03*
X0080024Y0096664D03*
D58*
X0078274Y0100264D03*
X0083574Y0102264D03*
X0087074Y0092064D03*
X0082474Y0090164D03*
X0081474Y0088164D03*
X0078374Y0088164D03*
X0072874Y0093164D03*
X0072974Y0094064D03*
X0073874Y0080264D03*
X0073874Y0079264D03*
X0072474Y0078964D03*
X0071074Y0077964D03*
X0079774Y0078564D03*
X0085174Y0076164D03*
X0085474Y0076264D03*
X0085774Y0076364D03*
X0086474Y0078564D03*
X0088774Y0078564D03*
X0088774Y0078664D03*
X0088774Y0078064D03*
X0088774Y0077964D03*
D59*
X0086374Y0076664D03*
X0085774Y0078264D03*
X0085974Y0079764D03*
X0085974Y0079864D03*
X0079874Y0079664D03*
X0079874Y0079564D03*
X0078674Y0085264D03*
X0078674Y0085364D03*
X0078674Y0085464D03*
X0078774Y0085564D03*
X0075174Y0087264D03*
X0072674Y0078764D03*
X0074274Y0076264D03*
X0088274Y0095664D03*
D60*
X0086424Y0094164D03*
X0086524Y0093264D03*
X0086724Y0092164D03*
X0080924Y0085764D03*
X0080924Y0085164D03*
X0081024Y0083264D03*
X0081024Y0083164D03*
X0081024Y0083064D03*
X0081024Y0082964D03*
X0079924Y0081064D03*
X0074424Y0078164D03*
X0073424Y0076764D03*
X0073524Y0076464D03*
X0085424Y0078164D03*
X0087024Y0078664D03*
X0072424Y0095964D03*
D61*
X0071074Y0095564D03*
X0073374Y0097364D03*
X0076174Y0102364D03*
X0078374Y0100164D03*
X0079874Y0100164D03*
X0079874Y0100264D03*
X0079874Y0100364D03*
X0081274Y0100164D03*
X0086474Y0097364D03*
X0079974Y0087164D03*
X0073874Y0080364D03*
X0073874Y0079164D03*
X0072774Y0076964D03*
X0086874Y0076864D03*
X0088774Y0078764D03*
D62*
X0085974Y0080464D03*
X0083874Y0078164D03*
X0079774Y0078464D03*
X0083874Y0084664D03*
X0083874Y0084764D03*
X0083874Y0084864D03*
X0083874Y0084964D03*
X0083874Y0085064D03*
X0083874Y0085164D03*
X0083874Y0085264D03*
X0083874Y0085364D03*
X0083874Y0085464D03*
X0083874Y0085564D03*
X0083874Y0085664D03*
X0083874Y0085764D03*
X0083874Y0085864D03*
X0083874Y0085964D03*
X0083974Y0086964D03*
X0084074Y0087064D03*
X0087574Y0087864D03*
X0087574Y0089064D03*
X0087574Y0089164D03*
X0090074Y0091364D03*
X0081174Y0099764D03*
X0081174Y0099864D03*
X0081174Y0099964D03*
X0079874Y0099964D03*
X0079874Y0099864D03*
X0078474Y0099864D03*
X0078474Y0099764D03*
X0070974Y0095464D03*
X0075674Y0087164D03*
X0072274Y0079164D03*
X0072474Y0077164D03*
D63*
X0070824Y0079964D03*
X0070824Y0080064D03*
X0070824Y0082964D03*
X0079924Y0077264D03*
X0084424Y0077964D03*
X0088724Y0091564D03*
X0087524Y0097464D03*
X0087424Y0097564D03*
X0072324Y0097564D03*
D64*
X0079874Y0093964D03*
X0079874Y0077464D03*
D65*
X0079824Y0077564D03*
D66*
X0079874Y0077664D03*
D67*
X0076524Y0077764D03*
X0075624Y0077864D03*
X0079924Y0086064D03*
D68*
X0079924Y0086464D03*
X0086224Y0087764D03*
X0083124Y0077764D03*
D69*
X0084074Y0077864D03*
X0079874Y0081964D03*
X0079874Y0082064D03*
X0079874Y0082164D03*
X0079874Y0084964D03*
X0079874Y0085064D03*
X0085974Y0087564D03*
X0073874Y0087464D03*
X0073874Y0087364D03*
X0074174Y0092364D03*
X0074274Y0093464D03*
D70*
X0079924Y0094164D03*
X0086124Y0093364D03*
X0088324Y0091964D03*
X0079924Y0086864D03*
X0084824Y0078064D03*
X0074924Y0078064D03*
D71*
X0088874Y0078964D03*
X0070774Y0095264D03*
X0079874Y0099664D03*
X0084574Y0100664D03*
X0084674Y0100364D03*
X0084674Y0100264D03*
X0084774Y0100064D03*
D72*
X0088624Y0091764D03*
X0088924Y0082864D03*
X0079924Y0086664D03*
X0070924Y0082764D03*
X0070924Y0080164D03*
X0071224Y0091764D03*
D73*
X0071274Y0091864D03*
X0079874Y0086764D03*
X0079874Y0081264D03*
X0070974Y0080264D03*
X0088874Y0080164D03*
X0088874Y0082764D03*
X0079874Y0100764D03*
D74*
X0088524Y0091864D03*
X0085224Y0087264D03*
X0088824Y0082664D03*
X0088824Y0082564D03*
X0088824Y0080264D03*
X0071024Y0080364D03*
X0071024Y0082564D03*
X0071024Y0082664D03*
D75*
X0073674Y0087664D03*
X0079874Y0086364D03*
X0079874Y0086264D03*
X0079874Y0086164D03*
X0079874Y0081664D03*
X0079874Y0081564D03*
X0085774Y0092364D03*
D76*
X0089174Y0091464D03*
X0073674Y0094264D03*
X0071974Y0095664D03*
X0073174Y0087764D03*
D77*
X0079924Y0088364D03*
D78*
X0079924Y0088464D03*
D79*
X0079974Y0088564D03*
X0079874Y0089364D03*
X0079874Y0094864D03*
D80*
X0079824Y0090264D03*
X0079924Y0088664D03*
D81*
X0079924Y0088764D03*
X0079924Y0088864D03*
X0079924Y0088964D03*
X0079924Y0089064D03*
X0079924Y0089164D03*
X0079824Y0091464D03*
D82*
X0079874Y0089264D03*
D83*
X0079874Y0089464D03*
D84*
X0079874Y0089564D03*
D85*
X0079874Y0090464D03*
X0079874Y0091264D03*
D86*
X0079874Y0091164D03*
X0079874Y0091064D03*
X0079874Y0090564D03*
X0079874Y0092864D03*
D87*
X0079924Y0090964D03*
X0079924Y0090764D03*
X0079924Y0090664D03*
D88*
X0079874Y0090864D03*
D89*
X0079824Y0091564D03*
D90*
X0079874Y0092564D03*
D91*
X0079824Y0092664D03*
X0079924Y0094664D03*
D92*
X0079874Y0092764D03*
D93*
X0079824Y0093664D03*
D94*
X0079874Y0093764D03*
D95*
X0079924Y0093864D03*
D96*
X0074924Y0094464D03*
X0079924Y0100564D03*
X0084924Y0094464D03*
D97*
X0079924Y0094564D03*
D98*
X0079924Y0094764D03*
D99*
X0079424Y0096364D03*
X0080624Y0096364D03*
X0080024Y0097564D03*
X0081224Y0099564D03*
D100*
X0103961Y0095694D02*
X0103961Y0108094D01*
X0116361Y0108094D02*
X0116361Y0095694D01*
X0111642Y0069742D02*
X0111642Y0065542D01*
X0105925Y0065542D02*
X0105925Y0069742D01*
X0093925Y0069742D02*
X0093925Y0068842D01*
X0093925Y0066442D01*
X0093925Y0065542D01*
X0093925Y0066442D02*
X0093994Y0066444D01*
X0094062Y0066450D01*
X0094130Y0066460D01*
X0094197Y0066473D01*
X0094263Y0066491D01*
X0094328Y0066512D01*
X0094392Y0066537D01*
X0094454Y0066565D01*
X0094515Y0066597D01*
X0094574Y0066632D01*
X0094630Y0066671D01*
X0094685Y0066713D01*
X0094736Y0066758D01*
X0094786Y0066806D01*
X0094832Y0066856D01*
X0094875Y0066909D01*
X0094916Y0066965D01*
X0094953Y0067022D01*
X0094986Y0067082D01*
X0095017Y0067144D01*
X0095043Y0067207D01*
X0095066Y0067271D01*
X0095086Y0067337D01*
X0095101Y0067404D01*
X0095113Y0067471D01*
X0095121Y0067539D01*
X0095125Y0067608D01*
X0095125Y0067676D01*
X0095121Y0067745D01*
X0095113Y0067813D01*
X0095101Y0067880D01*
X0095086Y0067947D01*
X0095066Y0068013D01*
X0095043Y0068077D01*
X0095017Y0068140D01*
X0094986Y0068202D01*
X0094953Y0068262D01*
X0094916Y0068319D01*
X0094875Y0068375D01*
X0094832Y0068428D01*
X0094786Y0068478D01*
X0094736Y0068526D01*
X0094685Y0068571D01*
X0094630Y0068613D01*
X0094574Y0068652D01*
X0094515Y0068687D01*
X0094454Y0068719D01*
X0094392Y0068747D01*
X0094328Y0068772D01*
X0094263Y0068793D01*
X0094197Y0068811D01*
X0094130Y0068824D01*
X0094062Y0068834D01*
X0093994Y0068840D01*
X0093925Y0068842D01*
X0066791Y0062174D02*
X0066791Y0058374D01*
X0066791Y0062174D02*
X0063191Y0062174D01*
X0058391Y0062174D02*
X0054791Y0062174D01*
X0054791Y0058374D01*
X0059491Y0056574D02*
X0062091Y0056574D01*
X0045589Y0093238D02*
X0045589Y0095438D01*
X0045589Y0102838D02*
X0045589Y0105038D01*
X0033789Y0105038D02*
X0033789Y0102838D01*
X0033789Y0095438D02*
X0033789Y0093238D01*
X0030889Y0126089D02*
X0026889Y0126089D01*
X0026889Y0153289D01*
X0030889Y0153289D01*
X0048489Y0153289D02*
X0052489Y0153289D01*
X0052489Y0126089D01*
X0048489Y0126089D01*
X0048489Y0128489D02*
X0052489Y0132489D01*
X0072372Y0141269D02*
X0074572Y0141269D01*
X0081972Y0141269D02*
X0084172Y0141269D01*
X0084172Y0153069D02*
X0081972Y0153069D01*
X0074572Y0153069D02*
X0072372Y0153069D01*
X0030889Y0128489D02*
X0026889Y0132489D01*
X0123642Y0069742D02*
X0123642Y0068842D01*
X0123642Y0066442D01*
X0123642Y0065542D01*
X0123642Y0066442D02*
X0123573Y0066444D01*
X0123505Y0066450D01*
X0123437Y0066460D01*
X0123370Y0066473D01*
X0123304Y0066491D01*
X0123239Y0066512D01*
X0123175Y0066537D01*
X0123113Y0066565D01*
X0123052Y0066597D01*
X0122993Y0066632D01*
X0122937Y0066671D01*
X0122882Y0066713D01*
X0122831Y0066758D01*
X0122781Y0066806D01*
X0122735Y0066856D01*
X0122692Y0066909D01*
X0122651Y0066965D01*
X0122614Y0067022D01*
X0122581Y0067082D01*
X0122550Y0067144D01*
X0122524Y0067207D01*
X0122501Y0067271D01*
X0122481Y0067337D01*
X0122466Y0067404D01*
X0122454Y0067471D01*
X0122446Y0067539D01*
X0122442Y0067608D01*
X0122442Y0067676D01*
X0122446Y0067745D01*
X0122454Y0067813D01*
X0122466Y0067880D01*
X0122481Y0067947D01*
X0122501Y0068013D01*
X0122524Y0068077D01*
X0122550Y0068140D01*
X0122581Y0068202D01*
X0122614Y0068262D01*
X0122651Y0068319D01*
X0122692Y0068375D01*
X0122735Y0068428D01*
X0122781Y0068478D01*
X0122831Y0068526D01*
X0122882Y0068571D01*
X0122937Y0068613D01*
X0122993Y0068652D01*
X0123052Y0068687D01*
X0123113Y0068719D01*
X0123175Y0068747D01*
X0123239Y0068772D01*
X0123304Y0068793D01*
X0123370Y0068811D01*
X0123437Y0068824D01*
X0123505Y0068834D01*
X0123573Y0068840D01*
X0123642Y0068842D01*
X0144025Y0070948D02*
X0144025Y0073148D01*
X0144025Y0063548D02*
X0144025Y0061348D01*
X0154768Y0053764D02*
X0157268Y0056264D01*
X0162268Y0056264D01*
X0164768Y0053764D01*
X0164768Y0048764D01*
X0162268Y0046264D01*
X0164768Y0043764D01*
X0164768Y0038764D01*
X0162268Y0036264D01*
X0164768Y0033764D01*
X0164768Y0028764D01*
X0162268Y0026264D01*
X0157268Y0026264D01*
X0154768Y0028764D01*
X0154768Y0033764D01*
X0157268Y0036264D01*
X0154768Y0038764D01*
X0154768Y0043764D01*
X0157268Y0046264D01*
X0154768Y0048764D01*
X0154768Y0053764D01*
X0157268Y0046264D02*
X0162268Y0046264D01*
X0162268Y0036264D02*
X0157268Y0036264D01*
X0145757Y0032802D02*
X0137557Y0032802D01*
X0137557Y0045002D02*
X0145757Y0045002D01*
X0155825Y0061348D02*
X0155825Y0063548D01*
X0155825Y0070948D02*
X0155825Y0073148D01*
X0155825Y0086545D02*
X0155825Y0088745D01*
X0155825Y0096145D02*
X0155825Y0098345D01*
X0144025Y0098345D02*
X0144025Y0096145D01*
X0144025Y0088745D02*
X0144025Y0086545D01*
X0140836Y0115757D02*
X0140836Y0117957D01*
X0140836Y0125357D02*
X0140836Y0127557D01*
X0152636Y0127557D02*
X0152636Y0125357D01*
X0152636Y0117957D02*
X0152636Y0115757D01*
D101*
X0157263Y0089123D02*
X0158013Y0089123D01*
X0159515Y0087622D01*
X0161767Y0087622D01*
X0159515Y0087622D02*
X0158013Y0086121D01*
X0157263Y0086121D01*
X0158013Y0084519D02*
X0159515Y0084519D01*
X0160265Y0083769D01*
X0160265Y0081517D01*
X0160265Y0083018D02*
X0161767Y0084519D01*
X0161767Y0081517D02*
X0157263Y0081517D01*
X0157263Y0083769D01*
X0158013Y0084519D01*
X0157263Y0079916D02*
X0157263Y0076913D01*
X0161767Y0076913D01*
X0161767Y0079916D01*
X0159515Y0078414D02*
X0159515Y0076913D01*
X0157263Y0075312D02*
X0157263Y0072309D01*
X0157263Y0073810D02*
X0161767Y0073810D01*
X0161767Y0069206D02*
X0157263Y0069206D01*
X0157263Y0067705D02*
X0157263Y0070708D01*
X0158764Y0066104D02*
X0161767Y0066104D01*
X0159515Y0066104D02*
X0159515Y0063101D01*
X0158764Y0063101D02*
X0157263Y0064602D01*
X0158764Y0066104D01*
X0158764Y0063101D02*
X0161767Y0063101D01*
X0161016Y0061500D02*
X0160265Y0061500D01*
X0159515Y0060749D01*
X0159515Y0058497D01*
X0161767Y0058497D02*
X0157263Y0058497D01*
X0157263Y0060749D01*
X0158013Y0061500D01*
X0158764Y0061500D01*
X0159515Y0060749D01*
X0161016Y0061500D02*
X0161767Y0060749D01*
X0161767Y0058497D01*
D102*
X0152483Y0059312D02*
X0150123Y0059312D01*
X0150123Y0057542D01*
X0151303Y0058132D01*
X0151893Y0058132D01*
X0152483Y0057542D01*
X0152483Y0056362D01*
X0151893Y0055772D01*
X0150713Y0055772D01*
X0150123Y0056362D01*
X0148858Y0056362D02*
X0148858Y0059312D01*
X0146498Y0059312D02*
X0146498Y0056362D01*
X0147088Y0055772D01*
X0148268Y0055772D01*
X0148858Y0056362D01*
X0143807Y0029413D02*
X0142627Y0029413D01*
X0142037Y0028823D01*
X0142037Y0028233D01*
X0142627Y0027643D01*
X0144397Y0027643D01*
X0144397Y0026463D02*
X0144397Y0028823D01*
X0143807Y0029413D01*
X0144397Y0026463D02*
X0143807Y0025873D01*
X0142627Y0025873D01*
X0142037Y0026463D01*
X0140772Y0026463D02*
X0140772Y0029413D01*
X0138412Y0029413D02*
X0138412Y0026463D01*
X0139002Y0025873D01*
X0140182Y0025873D01*
X0140772Y0026463D01*
X0140582Y0017091D02*
X0139815Y0016324D01*
X0139815Y0013255D01*
X0140582Y0012487D01*
X0142117Y0012487D01*
X0142884Y0013255D01*
X0144419Y0012487D02*
X0144419Y0017091D01*
X0142884Y0016324D02*
X0142117Y0017091D01*
X0140582Y0017091D01*
X0138280Y0017091D02*
X0135211Y0017091D01*
X0136746Y0017091D02*
X0136746Y0012487D01*
X0133676Y0012487D02*
X0132142Y0012487D01*
X0132909Y0012487D02*
X0132909Y0017091D01*
X0132142Y0017091D02*
X0133676Y0017091D01*
X0130607Y0017091D02*
X0130607Y0012487D01*
X0129072Y0014022D01*
X0127538Y0012487D01*
X0127538Y0017091D01*
X0126003Y0016324D02*
X0125236Y0017091D01*
X0123701Y0017091D01*
X0122934Y0016324D01*
X0122934Y0015557D01*
X0123701Y0014789D01*
X0125236Y0014789D01*
X0126003Y0014022D01*
X0126003Y0013255D01*
X0125236Y0012487D01*
X0123701Y0012487D01*
X0122934Y0013255D01*
X0144419Y0014789D02*
X0147488Y0014789D01*
X0147488Y0017091D02*
X0147488Y0012487D01*
X0119612Y0065873D02*
X0118432Y0065873D01*
X0117842Y0066463D01*
X0117842Y0067053D01*
X0118432Y0067643D01*
X0119612Y0067643D01*
X0120202Y0067053D01*
X0120202Y0066463D01*
X0119612Y0065873D01*
X0119612Y0067643D02*
X0120202Y0068233D01*
X0120202Y0068823D01*
X0119612Y0069413D01*
X0118432Y0069413D01*
X0117842Y0068823D01*
X0117842Y0068233D01*
X0118432Y0067643D01*
X0116577Y0066463D02*
X0116577Y0069413D01*
X0114217Y0069413D02*
X0114217Y0066463D01*
X0114807Y0065873D01*
X0115987Y0065873D01*
X0116577Y0066463D01*
X0137639Y0090812D02*
X0138819Y0090812D01*
X0139409Y0091402D01*
X0139409Y0094352D01*
X0140674Y0092582D02*
X0143034Y0092582D01*
X0142444Y0090812D02*
X0142444Y0094352D01*
X0140674Y0092582D01*
X0137639Y0090812D02*
X0137049Y0091402D01*
X0137049Y0094352D01*
X0138161Y0115955D02*
X0137571Y0116545D01*
X0138161Y0115955D02*
X0139341Y0115955D01*
X0139931Y0116545D01*
X0139931Y0117135D01*
X0139341Y0117725D01*
X0138751Y0117725D01*
X0139341Y0117725D02*
X0139931Y0118315D01*
X0139931Y0118905D01*
X0139341Y0119495D01*
X0138161Y0119495D01*
X0137571Y0118905D01*
X0136306Y0119495D02*
X0136306Y0116545D01*
X0135716Y0115955D01*
X0134536Y0115955D01*
X0133946Y0116545D01*
X0133946Y0119495D01*
X0102973Y0103650D02*
X0102973Y0102470D01*
X0102383Y0101880D01*
X0101203Y0101880D01*
X0101203Y0103650D01*
X0101793Y0104240D01*
X0102383Y0104240D01*
X0102973Y0103650D01*
X0101203Y0101880D02*
X0100023Y0103060D01*
X0099433Y0104240D01*
X0099433Y0100614D02*
X0102383Y0100614D01*
X0102973Y0100024D01*
X0102973Y0098844D01*
X0102383Y0098254D01*
X0099433Y0098254D01*
X0092643Y0069413D02*
X0090283Y0069413D01*
X0089018Y0069413D02*
X0089018Y0066463D01*
X0088428Y0065873D01*
X0087248Y0065873D01*
X0086658Y0066463D01*
X0086658Y0069413D01*
X0090283Y0066463D02*
X0090283Y0065873D01*
X0090283Y0066463D02*
X0092643Y0068823D01*
X0092643Y0069413D01*
X0065474Y0068074D02*
X0063114Y0068074D01*
X0064294Y0068074D02*
X0064294Y0071614D01*
X0063114Y0070434D01*
X0061849Y0071024D02*
X0061259Y0071614D01*
X0060079Y0071614D01*
X0059489Y0071024D01*
X0059489Y0070434D01*
X0060079Y0069844D01*
X0061259Y0069844D01*
X0061849Y0069254D01*
X0061849Y0068664D01*
X0061259Y0068074D01*
X0060079Y0068074D01*
X0059489Y0068664D01*
X0058224Y0068664D02*
X0058224Y0071614D01*
X0055864Y0071614D02*
X0055864Y0068664D01*
X0056454Y0068074D01*
X0057634Y0068074D01*
X0058224Y0068664D01*
X0060669Y0067484D02*
X0060669Y0072204D01*
X0047490Y0087254D02*
X0045130Y0087254D01*
X0046310Y0087254D02*
X0046310Y0090794D01*
X0045130Y0089614D01*
X0043865Y0090794D02*
X0043865Y0087844D01*
X0043275Y0087254D01*
X0042095Y0087254D01*
X0041505Y0087844D01*
X0041505Y0090794D01*
X0075559Y0136467D02*
X0076739Y0136467D01*
X0077329Y0137057D01*
X0077329Y0140007D01*
X0078594Y0139417D02*
X0079184Y0140007D01*
X0080364Y0140007D01*
X0080955Y0139417D01*
X0080955Y0138827D01*
X0078594Y0136467D01*
X0080955Y0136467D01*
X0075559Y0136467D02*
X0074969Y0137057D01*
X0074969Y0140007D01*
X0042140Y0140307D02*
X0042140Y0140897D01*
X0041550Y0141487D01*
X0040370Y0141487D01*
X0039780Y0140897D01*
X0042140Y0140307D02*
X0039780Y0137947D01*
X0042140Y0137947D01*
X0038515Y0137947D02*
X0036155Y0137947D01*
X0036155Y0141487D01*
D103*
X0073306Y0116888D03*
X0079106Y0116888D03*
X0088737Y0129459D03*
X0094537Y0129459D03*
X0092321Y0151100D03*
X0098121Y0151100D03*
X0151770Y0139683D03*
X0157570Y0139683D03*
X0120956Y0081415D03*
X0115156Y0081415D03*
X0102805Y0081427D03*
X0097005Y0081427D03*
X0138699Y0049959D03*
X0144499Y0049959D03*
X0050443Y0082608D03*
X0044643Y0082608D03*
X0042569Y0073947D03*
X0036769Y0073947D03*
X0034694Y0082608D03*
X0028894Y0082608D03*
D104*
X0139301Y0134054D03*
X0139301Y0139854D03*
D105*
X0137326Y0011146D02*
X0137290Y0011073D01*
X0137249Y0011002D01*
X0137206Y0010932D01*
X0137159Y0010865D01*
X0137109Y0010800D01*
X0137056Y0010738D01*
X0137001Y0010678D01*
X0136942Y0010621D01*
X0136881Y0010566D01*
X0136817Y0010515D01*
X0136751Y0010466D01*
X0136683Y0010421D01*
X0136613Y0010379D01*
X0136541Y0010340D01*
X0136467Y0010304D01*
X0136392Y0010273D01*
X0136315Y0010244D01*
X0136237Y0010220D01*
X0136158Y0010199D01*
X0136078Y0010182D01*
X0135997Y0010168D01*
X0135916Y0010159D01*
X0135834Y0010153D01*
X0135752Y0010151D01*
X0135670Y0010153D01*
X0135588Y0010159D01*
X0135507Y0010168D01*
X0135426Y0010182D01*
X0135346Y0010199D01*
X0135267Y0010220D01*
X0135189Y0010244D01*
X0135112Y0010273D01*
X0135037Y0010304D01*
X0134963Y0010340D01*
X0134891Y0010379D01*
X0134821Y0010421D01*
X0134753Y0010466D01*
X0134687Y0010515D01*
X0134623Y0010566D01*
X0134562Y0010621D01*
X0134503Y0010678D01*
X0134448Y0010738D01*
X0134395Y0010800D01*
X0134345Y0010865D01*
X0134298Y0010932D01*
X0134255Y0011002D01*
X0134214Y0011073D01*
X0134178Y0011146D01*
X0134177Y0011146D02*
X0128272Y0011146D01*
X0128272Y0004453D01*
X0134177Y0004453D01*
X0134178Y0004453D02*
X0134214Y0004526D01*
X0134255Y0004597D01*
X0134298Y0004667D01*
X0134345Y0004734D01*
X0134395Y0004799D01*
X0134448Y0004861D01*
X0134503Y0004921D01*
X0134562Y0004978D01*
X0134623Y0005033D01*
X0134687Y0005084D01*
X0134753Y0005133D01*
X0134821Y0005178D01*
X0134891Y0005220D01*
X0134963Y0005259D01*
X0135037Y0005295D01*
X0135112Y0005326D01*
X0135189Y0005355D01*
X0135267Y0005379D01*
X0135346Y0005400D01*
X0135426Y0005417D01*
X0135507Y0005431D01*
X0135588Y0005440D01*
X0135670Y0005446D01*
X0135752Y0005448D01*
X0135834Y0005446D01*
X0135916Y0005440D01*
X0135997Y0005431D01*
X0136078Y0005417D01*
X0136158Y0005400D01*
X0136237Y0005379D01*
X0136315Y0005355D01*
X0136392Y0005326D01*
X0136467Y0005295D01*
X0136541Y0005259D01*
X0136613Y0005220D01*
X0136683Y0005178D01*
X0136751Y0005133D01*
X0136817Y0005084D01*
X0136881Y0005033D01*
X0136942Y0004978D01*
X0137001Y0004921D01*
X0137056Y0004861D01*
X0137109Y0004799D01*
X0137159Y0004734D01*
X0137206Y0004667D01*
X0137249Y0004597D01*
X0137290Y0004526D01*
X0137326Y0004453D01*
X0137327Y0004453D02*
X0143232Y0004453D01*
X0143232Y0011146D01*
X0137327Y0011146D01*
D106*
X0141491Y0005657D02*
X0142592Y0005657D01*
X0142592Y0005290D02*
X0142592Y0006024D01*
X0141858Y0005290D02*
X0141491Y0005657D01*
M02*
