%
M48
M72
T01C0.01181
T02C0.03543
T03C0.04000
T04C0.07874
%
T01
X49925Y46382
X52287Y49531
X54650Y46382
X57012Y49531
X59374Y46382
X61736Y49531
X66461Y49531
X71185Y49531
X73547Y46382
X75909Y49531
X78272Y46382
X82996Y46382
X90083Y46382
X94807Y46382
X99531Y46382
X101894Y49138
X108980Y46382
X112524Y47169
X109768Y50713
X117642Y57799
X120398Y52287
X126303Y49925
X121972Y38114
X113705Y31028
X99531Y27484
X90083Y29846
X82996Y12524
X80634Y9374
X78272Y12524
X75909Y9374
X73547Y12524
X71185Y9374
X68823Y12524
X66461Y9374
X64098Y12524
X61736Y9374
X59374Y12524
X57012Y9374
X54650Y12524
X52287Y9374
X49916Y12524
X64492Y61343
X49138Y77484
X44807Y88902
X37720Y87720
X46776Y95988
X47957Y107012
X50713Y109768
X39295Y108587
X30240Y112917
X58193Y92051
X82996Y125909
X91382Y129453
X90870Y134571
X86146Y135358
X84177Y138902
X80240Y138902
X72760Y140870
X72760Y135358
X75122Y155043
X82602Y155043
X94807Y146776
X97957Y134571
X108587Y138508
X124335Y142051
X134965Y140870
X144413Y132209
X154256Y133390
X160555Y131421
X146382Y144020
X134571Y127484
X129059Y123154
X123547Y127878
X126303Y113705
X131815Y109768
X135358Y102287
X142839Y94413
X145988Y101500
X153825Y110518
X159768Y110949
X157012Y84177
X151894Y76697
X143626Y77091
X143232Y84177
X131815Y80634
X125909Y85161
X117642Y76697
X108980Y87327
X107406Y92445
X113311Y90870
X99925Y77091
X99925Y68035
X103665Y68035
X99925Y57799
X133783Y67642
X143232Y57799
X151500Y49925
X149531Y41657
X154256Y34177
X151106Y32996
X159768Y36264
X141657Y32209
X130437Y15870
X118429Y11539
X101894Y12130
X155043Y57799
T02
X139689Y7799
X131815Y7799
T03
X159768Y31264
X159768Y41264
X159768Y51264
X139177Y160161
X129177Y160161
X119177Y160161
X109177Y160161
X99177Y160161
X89177Y160161
X79177Y160161
X69177Y160161
X59177Y160161
X49177Y160161
X39177Y160161
X29177Y160161
T04
X155043Y13705
X155043Y155437
X13311Y155437
X13311Y13705
M30
