G75*
%MOIN*%
%OFA0B0*%
%FSLAX25Y25*%
%IPPOS*%
%LPD*%
%AMOC8*
5,1,8,0,0,1.08239X$1,22.5*
%
%ADD10C,0.00000*%
%ADD11C,0.06000*%
%ADD12R,0.05118X0.05906*%
%ADD13R,0.05906X0.05118*%
%ADD14R,0.15000X0.09300*%
%ADD15R,0.04331X0.05512*%
%ADD16R,0.05512X0.04331*%
%ADD17C,0.07000*%
%ADD18C,0.05543*%
%ADD19R,0.02200X0.05000*%
%ADD20R,0.01378X0.09646*%
%ADD21R,0.01200X0.03200*%
%ADD22R,0.09400X0.06500*%
%ADD23R,0.03200X0.01200*%
%ADD24R,0.06500X0.09400*%
%ADD25R,0.02600X0.01200*%
%ADD26R,0.03300X0.09400*%
%ADD27C,0.01000*%
%ADD28C,0.02381*%
%ADD29C,0.03562*%
%ADD30C,0.19685*%
D10*
X0001500Y0013311D02*
X0001500Y0155043D01*
X0001503Y0155328D01*
X0001514Y0155614D01*
X0001531Y0155899D01*
X0001555Y0156183D01*
X0001586Y0156467D01*
X0001624Y0156750D01*
X0001669Y0157031D01*
X0001720Y0157312D01*
X0001778Y0157592D01*
X0001843Y0157870D01*
X0001915Y0158146D01*
X0001993Y0158420D01*
X0002078Y0158693D01*
X0002170Y0158963D01*
X0002268Y0159231D01*
X0002372Y0159497D01*
X0002483Y0159760D01*
X0002600Y0160020D01*
X0002723Y0160278D01*
X0002853Y0160532D01*
X0002989Y0160783D01*
X0003130Y0161031D01*
X0003278Y0161275D01*
X0003431Y0161516D01*
X0003591Y0161752D01*
X0003756Y0161985D01*
X0003926Y0162214D01*
X0004102Y0162439D01*
X0004284Y0162659D01*
X0004470Y0162875D01*
X0004662Y0163086D01*
X0004859Y0163293D01*
X0005061Y0163495D01*
X0005268Y0163692D01*
X0005479Y0163884D01*
X0005695Y0164070D01*
X0005915Y0164252D01*
X0006140Y0164428D01*
X0006369Y0164598D01*
X0006602Y0164763D01*
X0006838Y0164923D01*
X0007079Y0165076D01*
X0007323Y0165224D01*
X0007571Y0165365D01*
X0007822Y0165501D01*
X0008076Y0165631D01*
X0008334Y0165754D01*
X0008594Y0165871D01*
X0008857Y0165982D01*
X0009123Y0166086D01*
X0009391Y0166184D01*
X0009661Y0166276D01*
X0009934Y0166361D01*
X0010208Y0166439D01*
X0010484Y0166511D01*
X0010762Y0166576D01*
X0011042Y0166634D01*
X0011323Y0166685D01*
X0011604Y0166730D01*
X0011887Y0166768D01*
X0012171Y0166799D01*
X0012455Y0166823D01*
X0012740Y0166840D01*
X0013026Y0166851D01*
X0013311Y0166854D01*
X0155043Y0166854D01*
X0155328Y0166851D01*
X0155614Y0166840D01*
X0155899Y0166823D01*
X0156183Y0166799D01*
X0156467Y0166768D01*
X0156750Y0166730D01*
X0157031Y0166685D01*
X0157312Y0166634D01*
X0157592Y0166576D01*
X0157870Y0166511D01*
X0158146Y0166439D01*
X0158420Y0166361D01*
X0158693Y0166276D01*
X0158963Y0166184D01*
X0159231Y0166086D01*
X0159497Y0165982D01*
X0159760Y0165871D01*
X0160020Y0165754D01*
X0160278Y0165631D01*
X0160532Y0165501D01*
X0160783Y0165365D01*
X0161031Y0165224D01*
X0161275Y0165076D01*
X0161516Y0164923D01*
X0161752Y0164763D01*
X0161985Y0164598D01*
X0162214Y0164428D01*
X0162439Y0164252D01*
X0162659Y0164070D01*
X0162875Y0163884D01*
X0163086Y0163692D01*
X0163293Y0163495D01*
X0163495Y0163293D01*
X0163692Y0163086D01*
X0163884Y0162875D01*
X0164070Y0162659D01*
X0164252Y0162439D01*
X0164428Y0162214D01*
X0164598Y0161985D01*
X0164763Y0161752D01*
X0164923Y0161516D01*
X0165076Y0161275D01*
X0165224Y0161031D01*
X0165365Y0160783D01*
X0165501Y0160532D01*
X0165631Y0160278D01*
X0165754Y0160020D01*
X0165871Y0159760D01*
X0165982Y0159497D01*
X0166086Y0159231D01*
X0166184Y0158963D01*
X0166276Y0158693D01*
X0166361Y0158420D01*
X0166439Y0158146D01*
X0166511Y0157870D01*
X0166576Y0157592D01*
X0166634Y0157312D01*
X0166685Y0157031D01*
X0166730Y0156750D01*
X0166768Y0156467D01*
X0166799Y0156183D01*
X0166823Y0155899D01*
X0166840Y0155614D01*
X0166851Y0155328D01*
X0166854Y0155043D01*
X0166854Y0013311D01*
X0166851Y0013026D01*
X0166840Y0012740D01*
X0166823Y0012455D01*
X0166799Y0012171D01*
X0166768Y0011887D01*
X0166730Y0011604D01*
X0166685Y0011323D01*
X0166634Y0011042D01*
X0166576Y0010762D01*
X0166511Y0010484D01*
X0166439Y0010208D01*
X0166361Y0009934D01*
X0166276Y0009661D01*
X0166184Y0009391D01*
X0166086Y0009123D01*
X0165982Y0008857D01*
X0165871Y0008594D01*
X0165754Y0008334D01*
X0165631Y0008076D01*
X0165501Y0007822D01*
X0165365Y0007571D01*
X0165224Y0007323D01*
X0165076Y0007079D01*
X0164923Y0006838D01*
X0164763Y0006602D01*
X0164598Y0006369D01*
X0164428Y0006140D01*
X0164252Y0005915D01*
X0164070Y0005695D01*
X0163884Y0005479D01*
X0163692Y0005268D01*
X0163495Y0005061D01*
X0163293Y0004859D01*
X0163086Y0004662D01*
X0162875Y0004470D01*
X0162659Y0004284D01*
X0162439Y0004102D01*
X0162214Y0003926D01*
X0161985Y0003756D01*
X0161752Y0003591D01*
X0161516Y0003431D01*
X0161275Y0003278D01*
X0161031Y0003130D01*
X0160783Y0002989D01*
X0160532Y0002853D01*
X0160278Y0002723D01*
X0160020Y0002600D01*
X0159760Y0002483D01*
X0159497Y0002372D01*
X0159231Y0002268D01*
X0158963Y0002170D01*
X0158693Y0002078D01*
X0158420Y0001993D01*
X0158146Y0001915D01*
X0157870Y0001843D01*
X0157592Y0001778D01*
X0157312Y0001720D01*
X0157031Y0001669D01*
X0156750Y0001624D01*
X0156467Y0001586D01*
X0156183Y0001555D01*
X0155899Y0001531D01*
X0155614Y0001514D01*
X0155328Y0001503D01*
X0155043Y0001500D01*
X0013311Y0001500D01*
X0013026Y0001503D01*
X0012740Y0001514D01*
X0012455Y0001531D01*
X0012171Y0001555D01*
X0011887Y0001586D01*
X0011604Y0001624D01*
X0011323Y0001669D01*
X0011042Y0001720D01*
X0010762Y0001778D01*
X0010484Y0001843D01*
X0010208Y0001915D01*
X0009934Y0001993D01*
X0009661Y0002078D01*
X0009391Y0002170D01*
X0009123Y0002268D01*
X0008857Y0002372D01*
X0008594Y0002483D01*
X0008334Y0002600D01*
X0008076Y0002723D01*
X0007822Y0002853D01*
X0007571Y0002989D01*
X0007323Y0003130D01*
X0007079Y0003278D01*
X0006838Y0003431D01*
X0006602Y0003591D01*
X0006369Y0003756D01*
X0006140Y0003926D01*
X0005915Y0004102D01*
X0005695Y0004284D01*
X0005479Y0004470D01*
X0005268Y0004662D01*
X0005061Y0004859D01*
X0004859Y0005061D01*
X0004662Y0005268D01*
X0004470Y0005479D01*
X0004284Y0005695D01*
X0004102Y0005915D01*
X0003926Y0006140D01*
X0003756Y0006369D01*
X0003591Y0006602D01*
X0003431Y0006838D01*
X0003278Y0007079D01*
X0003130Y0007323D01*
X0002989Y0007571D01*
X0002853Y0007822D01*
X0002723Y0008076D01*
X0002600Y0008334D01*
X0002483Y0008594D01*
X0002372Y0008857D01*
X0002268Y0009123D01*
X0002170Y0009391D01*
X0002078Y0009661D01*
X0001993Y0009934D01*
X0001915Y0010208D01*
X0001843Y0010484D01*
X0001778Y0010762D01*
X0001720Y0011042D01*
X0001669Y0011323D01*
X0001624Y0011604D01*
X0001586Y0011887D01*
X0001555Y0012171D01*
X0001531Y0012455D01*
X0001514Y0012740D01*
X0001503Y0013026D01*
X0001500Y0013311D01*
D11*
X0159768Y0030870D03*
X0159768Y0040870D03*
X0159768Y0050870D03*
D12*
X0148941Y0106618D03*
X0142248Y0106618D03*
X0118193Y0115280D03*
X0111500Y0115280D03*
X0101736Y0115319D03*
X0095043Y0115319D03*
X0077681Y0129059D03*
X0070988Y0129059D03*
X0091067Y0140476D03*
X0097760Y0140476D03*
X0043035Y0113311D03*
X0036343Y0113311D03*
D13*
X0027878Y0102091D03*
X0027878Y0095398D03*
X0051500Y0095398D03*
X0051500Y0102091D03*
X0064886Y0137917D03*
X0064886Y0144610D03*
X0108587Y0143823D03*
X0108587Y0150516D03*
X0159177Y0122563D03*
X0159177Y0115870D03*
X0138902Y0070594D03*
X0138902Y0063902D03*
D14*
X0039689Y0129795D03*
X0039689Y0148795D03*
D15*
X0072248Y0116500D03*
X0080122Y0116500D03*
X0087720Y0129059D03*
X0095594Y0129059D03*
X0099138Y0150713D03*
X0091264Y0150713D03*
X0150319Y0139295D03*
X0158193Y0139295D03*
X0121972Y0081028D03*
X0114098Y0081028D03*
X0103862Y0081028D03*
X0095988Y0081028D03*
X0137642Y0049571D03*
X0145516Y0049571D03*
X0051500Y0082209D03*
X0043626Y0082209D03*
X0035752Y0082209D03*
X0027878Y0082209D03*
X0035752Y0073547D03*
X0043626Y0073547D03*
D16*
X0139295Y0132602D03*
X0139295Y0140476D03*
D17*
X0139177Y0159768D03*
X0129177Y0159768D03*
X0119177Y0159768D03*
X0109177Y0159768D03*
X0099177Y0159768D03*
X0089177Y0159768D03*
X0079177Y0159768D03*
X0069177Y0159768D03*
X0059177Y0159768D03*
X0049177Y0159768D03*
X0039177Y0159768D03*
X0029177Y0159768D03*
D18*
X0131815Y0007406D03*
X0139689Y0007406D03*
D19*
X0121342Y0062148D03*
X0117642Y0062148D03*
X0113942Y0062148D03*
X0113942Y0072348D03*
X0117642Y0072348D03*
X0121342Y0072348D03*
X0103625Y0072348D03*
X0099925Y0072348D03*
X0096225Y0072348D03*
X0096225Y0062148D03*
X0099925Y0062148D03*
X0103625Y0062148D03*
X0064491Y0054880D03*
X0057091Y0054880D03*
X0060791Y0063080D03*
D20*
X0061736Y0037819D03*
X0059374Y0037819D03*
X0057012Y0037819D03*
X0054650Y0037819D03*
X0052287Y0037819D03*
X0049925Y0037819D03*
X0064098Y0037819D03*
X0066461Y0037819D03*
X0068823Y0037819D03*
X0071185Y0037819D03*
X0073547Y0037819D03*
X0075909Y0037819D03*
X0078272Y0037819D03*
X0080634Y0037819D03*
X0082996Y0037819D03*
X0085358Y0037819D03*
X0087720Y0037819D03*
X0090083Y0037819D03*
X0092445Y0037819D03*
X0094807Y0037819D03*
X0097169Y0037819D03*
X0099531Y0037819D03*
X0101894Y0037819D03*
X0104256Y0037819D03*
X0106618Y0037819D03*
X0108980Y0037819D03*
X0111343Y0037819D03*
X0113705Y0037819D03*
X0116067Y0037819D03*
X0118429Y0037819D03*
X0118429Y0020299D03*
X0116067Y0020299D03*
X0113705Y0020299D03*
X0111343Y0020299D03*
X0108980Y0020299D03*
X0106618Y0020299D03*
X0104256Y0020299D03*
X0101894Y0020299D03*
X0099531Y0020299D03*
X0097169Y0020299D03*
X0094807Y0020299D03*
X0092445Y0020299D03*
X0090083Y0020299D03*
X0087720Y0020299D03*
X0085358Y0020299D03*
X0082996Y0020299D03*
X0080634Y0020299D03*
X0078272Y0020299D03*
X0075909Y0020299D03*
X0073547Y0020299D03*
X0071185Y0020299D03*
X0068823Y0020299D03*
X0066461Y0020299D03*
X0064098Y0020299D03*
X0061736Y0020299D03*
X0059374Y0020299D03*
X0057012Y0020299D03*
X0054650Y0020299D03*
X0052287Y0020299D03*
X0049925Y0020299D03*
D21*
X0043589Y0093044D03*
X0041689Y0093044D03*
X0039689Y0093044D03*
X0037689Y0093044D03*
X0035789Y0093044D03*
X0035789Y0104444D03*
X0037689Y0104444D03*
X0039689Y0104444D03*
X0041689Y0104444D03*
X0043589Y0104444D03*
X0106261Y0107300D03*
X0108161Y0107300D03*
X0110161Y0107300D03*
X0112161Y0107300D03*
X0114061Y0107300D03*
X0114061Y0095700D03*
X0112161Y0095700D03*
X0110161Y0095700D03*
X0108161Y0095700D03*
X0106261Y0095700D03*
X0142836Y0115564D03*
X0144736Y0115564D03*
X0146736Y0115564D03*
X0148736Y0115564D03*
X0150636Y0115564D03*
X0150636Y0126964D03*
X0148736Y0126964D03*
X0146736Y0126964D03*
X0144736Y0126964D03*
X0142836Y0126964D03*
X0146025Y0097751D03*
X0147925Y0097751D03*
X0149925Y0097751D03*
X0151925Y0097751D03*
X0153825Y0097751D03*
X0153825Y0086351D03*
X0151925Y0086351D03*
X0149925Y0086351D03*
X0147925Y0086351D03*
X0146025Y0086351D03*
X0146025Y0072554D03*
X0147925Y0072554D03*
X0149925Y0072554D03*
X0151925Y0072554D03*
X0153825Y0072554D03*
X0153825Y0061154D03*
X0151925Y0061154D03*
X0149925Y0061154D03*
X0147925Y0061154D03*
X0146025Y0061154D03*
D22*
X0149925Y0066854D03*
X0149925Y0092051D03*
X0146736Y0121264D03*
X0110161Y0101500D03*
X0039689Y0098744D03*
D23*
X0072572Y0142876D03*
X0072572Y0144776D03*
X0072572Y0146776D03*
X0072572Y0148776D03*
X0072572Y0150676D03*
X0083972Y0150676D03*
X0083972Y0148776D03*
X0083972Y0146776D03*
X0083972Y0144776D03*
X0083972Y0142876D03*
D24*
X0078272Y0146776D03*
D25*
X0137657Y0042408D03*
X0137657Y0040508D03*
X0137657Y0038508D03*
X0137657Y0036508D03*
X0137657Y0034608D03*
X0145657Y0034608D03*
X0145657Y0036508D03*
X0145657Y0038508D03*
X0145657Y0040508D03*
X0145657Y0042408D03*
D26*
X0141657Y0038508D03*
D27*
X0141657Y0031815D01*
X0141332Y0032308D02*
X0139810Y0032308D01*
X0139428Y0032410D01*
X0139086Y0032608D01*
X0138993Y0032701D01*
X0136044Y0032701D01*
X0135591Y0032248D01*
X0135591Y0025477D01*
X0136107Y0024961D01*
X0142484Y0024961D01*
X0146814Y0024961D01*
X0152210Y0030356D01*
X0151603Y0030105D01*
X0150609Y0030105D01*
X0149691Y0030485D01*
X0148989Y0031188D01*
X0148609Y0032106D01*
X0148609Y0032544D01*
X0148352Y0032801D01*
X0147599Y0032801D01*
X0147499Y0032701D01*
X0144322Y0032701D01*
X0144228Y0032608D01*
X0143886Y0032410D01*
X0143505Y0032308D01*
X0141982Y0032308D01*
X0141982Y0038183D01*
X0141332Y0038183D01*
X0141332Y0032308D01*
X0141332Y0032454D02*
X0141982Y0032454D01*
X0141982Y0033452D02*
X0141332Y0033452D01*
X0141332Y0034451D02*
X0141982Y0034451D01*
X0141982Y0035449D02*
X0141332Y0035449D01*
X0141332Y0036448D02*
X0141982Y0036448D01*
X0141982Y0037446D02*
X0141332Y0037446D01*
X0141983Y0038183D02*
X0141983Y0038833D01*
X0142857Y0038833D01*
X0142857Y0038508D01*
X0145657Y0038508D01*
X0145657Y0038508D01*
X0142857Y0038508D01*
X0142857Y0038183D01*
X0141983Y0038183D01*
X0141983Y0038445D02*
X0142857Y0038445D01*
X0141982Y0038833D02*
X0141332Y0038833D01*
X0141332Y0044708D01*
X0139810Y0044708D01*
X0139428Y0044606D01*
X0139086Y0044408D01*
X0138993Y0044315D01*
X0135816Y0044315D01*
X0135050Y0043549D01*
X0135050Y0036378D01*
X0134610Y0036378D01*
X0131976Y0033745D01*
X0131976Y0023980D01*
X0133035Y0022921D01*
X0134610Y0021346D01*
X0138870Y0021346D01*
X0137882Y0020359D01*
X0137882Y0011072D01*
X0137379Y0010863D01*
X0136231Y0009716D01*
X0135752Y0008559D01*
X0135273Y0009716D01*
X0134125Y0010863D01*
X0132626Y0011484D01*
X0131004Y0011484D01*
X0129505Y0010863D01*
X0128357Y0009716D01*
X0128149Y0009213D01*
X0127323Y0009213D01*
X0127323Y0016035D01*
X0127939Y0015418D01*
X0127939Y0014980D01*
X0128320Y0014062D01*
X0129022Y0013359D01*
X0129940Y0012979D01*
X0130934Y0012979D01*
X0131852Y0013359D01*
X0132554Y0014062D01*
X0132935Y0014980D01*
X0132935Y0015973D01*
X0132554Y0016891D01*
X0131852Y0017594D01*
X0130934Y0017974D01*
X0130495Y0017974D01*
X0129685Y0018784D01*
X0129685Y0040831D01*
X0128626Y0041890D01*
X0121054Y0049462D01*
X0121812Y0049776D01*
X0122515Y0050479D01*
X0122895Y0051397D01*
X0122895Y0052391D01*
X0122515Y0053308D01*
X0121812Y0054011D01*
X0121611Y0054095D01*
X0129414Y0061898D01*
X0130008Y0062492D01*
X0130008Y0051378D01*
X0127989Y0051378D01*
X0127718Y0051649D01*
X0126800Y0052029D01*
X0125806Y0052029D01*
X0124888Y0051649D01*
X0124186Y0050946D01*
X0123806Y0050028D01*
X0123806Y0049035D01*
X0124186Y0048117D01*
X0124888Y0047414D01*
X0125806Y0047034D01*
X0126800Y0047034D01*
X0127718Y0047414D01*
X0128068Y0047764D01*
X0134169Y0047764D01*
X0134169Y0046274D01*
X0134935Y0045508D01*
X0140348Y0045508D01*
X0141114Y0046274D01*
X0141114Y0052868D01*
X0140348Y0053634D01*
X0134935Y0053634D01*
X0134169Y0052868D01*
X0134169Y0051378D01*
X0133622Y0051378D01*
X0133622Y0066028D01*
X0132835Y0066815D01*
X0132835Y0073192D01*
X0133622Y0073980D01*
X0133622Y0078515D01*
X0133932Y0078825D01*
X0134313Y0079743D01*
X0134313Y0080737D01*
X0133932Y0081655D01*
X0133230Y0082358D01*
X0132312Y0082738D01*
X0131318Y0082738D01*
X0130472Y0082387D01*
X0130472Y0082760D01*
X0128407Y0084826D01*
X0128407Y0085265D01*
X0128027Y0086183D01*
X0127324Y0086885D01*
X0126406Y0087265D01*
X0125413Y0087265D01*
X0124495Y0086885D01*
X0123792Y0086183D01*
X0123780Y0086152D01*
X0123780Y0089650D01*
X0120236Y0093193D01*
X0120236Y0105870D01*
X0123084Y0108718D01*
X0123398Y0107959D01*
X0124101Y0107257D01*
X0125019Y0106876D01*
X0126013Y0106876D01*
X0126931Y0107257D01*
X0127241Y0107567D01*
X0130090Y0107567D01*
X0130400Y0107257D01*
X0131318Y0106876D01*
X0132312Y0106876D01*
X0133230Y0107257D01*
X0133551Y0107578D01*
X0133551Y0103619D01*
X0133241Y0103308D01*
X0132861Y0102391D01*
X0132861Y0101397D01*
X0133241Y0100479D01*
X0133943Y0099776D01*
X0134861Y0099396D01*
X0135855Y0099396D01*
X0136773Y0099776D01*
X0137476Y0100479D01*
X0137856Y0101397D01*
X0137856Y0102391D01*
X0137476Y0103308D01*
X0137165Y0103619D01*
X0137165Y0110323D01*
X0138391Y0110323D01*
X0138291Y0110150D01*
X0138189Y0109768D01*
X0138189Y0107118D01*
X0141748Y0107118D01*
X0141748Y0106118D01*
X0142748Y0106118D01*
X0142748Y0102165D01*
X0143723Y0102165D01*
X0143491Y0101603D01*
X0143491Y0100609D01*
X0143871Y0099691D01*
X0144118Y0099444D01*
X0144118Y0096315D01*
X0144025Y0096222D01*
X0143827Y0095880D01*
X0143725Y0095499D01*
X0143725Y0092551D01*
X0149425Y0092551D01*
X0149425Y0091551D01*
X0143725Y0091551D01*
X0143725Y0088604D01*
X0143827Y0088222D01*
X0143864Y0088158D01*
X0143477Y0088158D01*
X0142484Y0087165D01*
X0141425Y0086107D01*
X0141425Y0085509D01*
X0141115Y0085198D01*
X0140735Y0084280D01*
X0140735Y0083287D01*
X0141115Y0082369D01*
X0141817Y0081666D01*
X0142735Y0081286D01*
X0143729Y0081286D01*
X0144647Y0081666D01*
X0145350Y0082369D01*
X0145730Y0083287D01*
X0145730Y0083444D01*
X0150118Y0083444D01*
X0150118Y0078060D01*
X0149776Y0077718D01*
X0149396Y0076800D01*
X0149396Y0075806D01*
X0149459Y0075654D01*
X0149128Y0075654D01*
X0148925Y0075600D01*
X0148723Y0075654D01*
X0147925Y0075654D01*
X0147224Y0075654D01*
X0146124Y0076755D01*
X0146124Y0077194D01*
X0145743Y0078112D01*
X0145041Y0078814D01*
X0144123Y0079194D01*
X0143129Y0079194D01*
X0142211Y0078814D01*
X0141509Y0078112D01*
X0141128Y0077194D01*
X0141128Y0076200D01*
X0141509Y0075282D01*
X0142168Y0074622D01*
X0142052Y0074654D01*
X0139402Y0074654D01*
X0139402Y0071095D01*
X0138402Y0071095D01*
X0138402Y0074654D01*
X0135751Y0074654D01*
X0135370Y0074551D01*
X0135028Y0074354D01*
X0134749Y0074075D01*
X0134551Y0073733D01*
X0134449Y0073351D01*
X0134449Y0071094D01*
X0138402Y0071094D01*
X0138402Y0070095D01*
X0134449Y0070095D01*
X0134449Y0067838D01*
X0134551Y0067456D01*
X0134749Y0067114D01*
X0134751Y0067112D01*
X0134642Y0067002D01*
X0134642Y0060801D01*
X0135407Y0060035D01*
X0138047Y0060035D01*
X0140735Y0057348D01*
X0140735Y0056909D01*
X0141115Y0055991D01*
X0141817Y0055288D01*
X0142735Y0054908D01*
X0143729Y0054908D01*
X0144647Y0055288D01*
X0145350Y0055991D01*
X0145730Y0056909D01*
X0145730Y0057902D01*
X0145587Y0058247D01*
X0150118Y0058247D01*
X0150118Y0057004D01*
X0146814Y0053701D01*
X0146748Y0053634D01*
X0142809Y0053634D01*
X0142043Y0052868D01*
X0142043Y0046274D01*
X0142809Y0045508D01*
X0147677Y0045508D01*
X0146484Y0044315D01*
X0144322Y0044315D01*
X0144228Y0044408D01*
X0143886Y0044606D01*
X0143505Y0044708D01*
X0141982Y0044708D01*
X0141982Y0038833D01*
X0141657Y0038508D02*
X0145657Y0038508D01*
X0154650Y0038508D01*
X0157406Y0035752D01*
X0159650Y0035752D01*
X0159768Y0035870D01*
X0160624Y0035177D02*
X0158911Y0035177D01*
X0157328Y0034521D01*
X0156754Y0033947D01*
X0156754Y0034280D01*
X0156373Y0035198D01*
X0155671Y0035901D01*
X0154753Y0036281D01*
X0154314Y0036281D01*
X0152280Y0038315D01*
X0148457Y0038315D01*
X0148457Y0038508D01*
X0148457Y0038669D01*
X0149493Y0038669D01*
X0149589Y0038766D01*
X0150028Y0038766D01*
X0150946Y0039146D01*
X0151649Y0039849D01*
X0151732Y0040051D01*
X0152720Y0039063D01*
X0155854Y0039063D01*
X0156116Y0038430D01*
X0157328Y0037219D01*
X0158911Y0036563D01*
X0160624Y0036563D01*
X0162207Y0037219D01*
X0163419Y0038430D01*
X0163472Y0038559D01*
X0163472Y0033181D01*
X0163419Y0033310D01*
X0162207Y0034521D01*
X0160624Y0035177D01*
X0162278Y0034451D02*
X0163472Y0034451D01*
X0163472Y0035449D02*
X0156122Y0035449D01*
X0156683Y0034451D02*
X0157257Y0034451D01*
X0157100Y0037446D02*
X0153149Y0037446D01*
X0154147Y0036448D02*
X0163472Y0036448D01*
X0163472Y0037446D02*
X0162435Y0037446D01*
X0163425Y0038445D02*
X0163472Y0038445D01*
X0159768Y0040870D02*
X0153469Y0040870D01*
X0149531Y0044807D01*
X0151500Y0046776D01*
X0151500Y0049531D01*
X0153307Y0047806D02*
X0153617Y0048117D01*
X0153998Y0049035D01*
X0153998Y0050028D01*
X0153617Y0050946D01*
X0152915Y0051649D01*
X0151997Y0052029D01*
X0151003Y0052029D01*
X0150085Y0051649D01*
X0149383Y0050946D01*
X0149370Y0050916D01*
X0149370Y0051145D01*
X0152674Y0054449D01*
X0153571Y0055346D01*
X0153629Y0055288D01*
X0154546Y0054908D01*
X0155540Y0054908D01*
X0156458Y0055288D01*
X0157161Y0055991D01*
X0157541Y0056909D01*
X0157541Y0057902D01*
X0157161Y0058820D01*
X0156850Y0059131D01*
X0156850Y0060516D01*
X0155792Y0061575D01*
X0155732Y0061634D01*
X0155732Y0062590D01*
X0155825Y0062683D01*
X0156023Y0063025D01*
X0156125Y0063407D01*
X0156125Y0066354D01*
X0150425Y0066354D01*
X0150425Y0067354D01*
X0156125Y0067354D01*
X0156125Y0070302D01*
X0156023Y0070683D01*
X0155825Y0071025D01*
X0155732Y0071119D01*
X0155732Y0072862D01*
X0157760Y0074890D01*
X0158819Y0075948D01*
X0158819Y0082058D01*
X0159129Y0082369D01*
X0159509Y0083287D01*
X0159509Y0084280D01*
X0159129Y0085198D01*
X0158819Y0085509D01*
X0158819Y0086107D01*
X0157638Y0087288D01*
X0156579Y0088346D01*
X0156056Y0088346D01*
X0156125Y0088604D01*
X0156125Y0091551D01*
X0150425Y0091551D01*
X0150425Y0092551D01*
X0156125Y0092551D01*
X0156125Y0095499D01*
X0156023Y0095880D01*
X0155825Y0096222D01*
X0155732Y0096315D01*
X0155732Y0099893D01*
X0155632Y0099993D01*
X0155632Y0108399D01*
X0155943Y0108710D01*
X0156048Y0108964D01*
X0156263Y0108748D01*
X0158043Y0108748D01*
X0158353Y0108438D01*
X0159271Y0108057D01*
X0160265Y0108057D01*
X0161183Y0108438D01*
X0161885Y0109140D01*
X0162265Y0110058D01*
X0162265Y0111052D01*
X0161885Y0111970D01*
X0161851Y0112004D01*
X0162671Y0112004D01*
X0163437Y0112770D01*
X0163437Y0118971D01*
X0163327Y0119080D01*
X0163330Y0119083D01*
X0163472Y0119329D01*
X0163472Y0053427D01*
X0163200Y0053802D01*
X0162699Y0054302D01*
X0162126Y0054719D01*
X0161495Y0055040D01*
X0160821Y0055259D01*
X0160268Y0055347D01*
X0160268Y0051370D01*
X0159268Y0051370D01*
X0159268Y0055347D01*
X0158714Y0055259D01*
X0158040Y0055040D01*
X0157409Y0054719D01*
X0156836Y0054302D01*
X0156335Y0053802D01*
X0155919Y0053229D01*
X0155597Y0052597D01*
X0155379Y0051924D01*
X0155291Y0051370D01*
X0159268Y0051370D01*
X0159268Y0050370D01*
X0160268Y0050370D01*
X0160268Y0046393D01*
X0160821Y0046481D01*
X0161495Y0046700D01*
X0162126Y0047021D01*
X0162699Y0047438D01*
X0163200Y0047939D01*
X0163472Y0048313D01*
X0163472Y0043181D01*
X0163419Y0043310D01*
X0162207Y0044521D01*
X0160624Y0045177D01*
X0158911Y0045177D01*
X0157328Y0044521D01*
X0156116Y0043310D01*
X0155854Y0042677D01*
X0154217Y0042677D01*
X0152087Y0044807D01*
X0152249Y0044969D01*
X0153307Y0046027D01*
X0153307Y0047806D01*
X0153307Y0047432D02*
X0156845Y0047432D01*
X0156836Y0047438D02*
X0157409Y0047021D01*
X0158040Y0046700D01*
X0158714Y0046481D01*
X0159268Y0046393D01*
X0159268Y0050370D01*
X0155291Y0050370D01*
X0155379Y0049816D01*
X0155597Y0049143D01*
X0155919Y0048512D01*
X0156335Y0047939D01*
X0156836Y0047438D01*
X0155978Y0048430D02*
X0153747Y0048430D01*
X0153998Y0049429D02*
X0155505Y0049429D01*
X0153832Y0050427D02*
X0159268Y0050427D01*
X0159768Y0050870D02*
X0159768Y0064098D01*
X0156933Y0066933D01*
X0163449Y0073311D01*
X0163449Y0121185D01*
X0162071Y0122563D01*
X0159177Y0122563D01*
X0158980Y0122760D01*
X0154256Y0122760D01*
X0152760Y0121264D01*
X0146736Y0121264D01*
X0146736Y0126964D01*
X0146736Y0130064D01*
X0145939Y0130064D01*
X0145557Y0129962D01*
X0145400Y0129871D01*
X0143334Y0129871D01*
X0143358Y0129896D01*
X0143358Y0135309D01*
X0142593Y0136075D01*
X0135998Y0136075D01*
X0135232Y0135309D01*
X0135232Y0129896D01*
X0135998Y0129130D01*
X0137488Y0129130D01*
X0137488Y0127917D01*
X0138547Y0126858D01*
X0140248Y0125157D01*
X0140675Y0125157D01*
X0140638Y0125093D01*
X0140536Y0124711D01*
X0140536Y0123870D01*
X0139923Y0124484D01*
X0139005Y0124864D01*
X0138011Y0124864D01*
X0137093Y0124484D01*
X0136390Y0123781D01*
X0136010Y0122863D01*
X0136010Y0121869D01*
X0136390Y0120951D01*
X0136701Y0120641D01*
X0136701Y0116106D01*
X0137759Y0115047D01*
X0138870Y0113937D01*
X0136500Y0113937D01*
X0125354Y0125083D01*
X0125354Y0125759D01*
X0125665Y0126069D01*
X0126045Y0126987D01*
X0126045Y0127981D01*
X0125665Y0128899D01*
X0124962Y0129602D01*
X0124044Y0129982D01*
X0123050Y0129982D01*
X0122132Y0129602D01*
X0121430Y0128899D01*
X0121050Y0127981D01*
X0121050Y0126987D01*
X0121430Y0126069D01*
X0121740Y0125759D01*
X0121740Y0124173D01*
X0096808Y0124173D01*
X0097402Y0124767D01*
X0097402Y0124996D01*
X0098301Y0124996D01*
X0099067Y0125762D01*
X0099067Y0132356D01*
X0098301Y0133122D01*
X0093136Y0133122D01*
X0093368Y0133680D01*
X0093368Y0134674D01*
X0092987Y0135592D01*
X0092874Y0135705D01*
X0092874Y0136217D01*
X0094167Y0136217D01*
X0094277Y0136326D01*
X0094280Y0136323D01*
X0094622Y0136126D01*
X0095003Y0136024D01*
X0097260Y0136024D01*
X0097260Y0139976D01*
X0098260Y0139976D01*
X0098260Y0136024D01*
X0100516Y0136024D01*
X0100898Y0136126D01*
X0101240Y0136323D01*
X0101519Y0136603D01*
X0101717Y0136945D01*
X0101819Y0137326D01*
X0101819Y0139976D01*
X0098260Y0139976D01*
X0098260Y0140976D01*
X0101819Y0140976D01*
X0101819Y0143627D01*
X0101717Y0144008D01*
X0101519Y0144350D01*
X0101240Y0144629D01*
X0100898Y0144827D01*
X0100516Y0144929D01*
X0098260Y0144929D01*
X0098260Y0140976D01*
X0097260Y0140976D01*
X0097260Y0144929D01*
X0095003Y0144929D01*
X0094622Y0144827D01*
X0094280Y0144629D01*
X0094277Y0144627D01*
X0094167Y0144736D01*
X0088740Y0144736D01*
X0088740Y0144768D01*
X0087682Y0145827D01*
X0087072Y0146437D01*
X0087072Y0146776D01*
X0087072Y0147573D01*
X0086969Y0147955D01*
X0086879Y0148112D01*
X0086879Y0148906D01*
X0087791Y0148906D01*
X0087791Y0147415D01*
X0088557Y0146650D01*
X0093971Y0146650D01*
X0094736Y0147415D01*
X0094736Y0154010D01*
X0093971Y0154776D01*
X0088557Y0154776D01*
X0087791Y0154010D01*
X0087791Y0152520D01*
X0086176Y0152520D01*
X0086113Y0152583D01*
X0084068Y0152583D01*
X0084327Y0152843D01*
X0084808Y0152843D01*
X0087305Y0155340D01*
X0088221Y0154961D01*
X0090133Y0154961D01*
X0091900Y0155692D01*
X0093252Y0157045D01*
X0093984Y0158812D01*
X0093984Y0160724D01*
X0093252Y0162491D01*
X0092271Y0163472D01*
X0095811Y0163472D01*
X0095363Y0163025D01*
X0094901Y0162388D01*
X0094543Y0161687D01*
X0094300Y0160939D01*
X0094194Y0160268D01*
X0098677Y0160268D01*
X0098677Y0159268D01*
X0094194Y0159268D01*
X0094300Y0158597D01*
X0094543Y0157848D01*
X0094901Y0157147D01*
X0095363Y0156510D01*
X0095920Y0155954D01*
X0096557Y0155491D01*
X0097258Y0155134D01*
X0097767Y0154968D01*
X0096775Y0154968D01*
X0096393Y0154866D01*
X0096051Y0154669D01*
X0095772Y0154390D01*
X0095575Y0154047D01*
X0095472Y0153666D01*
X0095472Y0151213D01*
X0098638Y0151213D01*
X0098638Y0154791D01*
X0098677Y0154785D01*
X0098677Y0159268D01*
X0099677Y0159268D01*
X0099677Y0160268D01*
X0104160Y0160268D01*
X0104054Y0160939D01*
X0103811Y0161687D01*
X0103454Y0162388D01*
X0102991Y0163025D01*
X0102543Y0163472D01*
X0106084Y0163472D01*
X0105102Y0162491D01*
X0104370Y0160724D01*
X0104370Y0158812D01*
X0105102Y0157045D01*
X0106454Y0155692D01*
X0108221Y0154961D01*
X0110133Y0154961D01*
X0111900Y0155692D01*
X0113252Y0157045D01*
X0113984Y0158812D01*
X0113984Y0160724D01*
X0113252Y0162491D01*
X0112271Y0163472D01*
X0115811Y0163472D01*
X0115363Y0163025D01*
X0114901Y0162388D01*
X0114543Y0161687D01*
X0114300Y0160939D01*
X0114194Y0160268D01*
X0118677Y0160268D01*
X0118677Y0159268D01*
X0114194Y0159268D01*
X0114300Y0158597D01*
X0114543Y0157848D01*
X0114901Y0157147D01*
X0115363Y0156510D01*
X0115920Y0155954D01*
X0116557Y0155491D01*
X0117258Y0155134D01*
X0118006Y0154891D01*
X0118677Y0154785D01*
X0118677Y0159268D01*
X0119677Y0159268D01*
X0119677Y0160268D01*
X0124160Y0160268D01*
X0124054Y0160939D01*
X0123811Y0161687D01*
X0123454Y0162388D01*
X0122991Y0163025D01*
X0122543Y0163472D01*
X0126084Y0163472D01*
X0125102Y0162491D01*
X0124370Y0160724D01*
X0124370Y0158812D01*
X0125102Y0157045D01*
X0126454Y0155692D01*
X0128221Y0154961D01*
X0130133Y0154961D01*
X0131900Y0155692D01*
X0133252Y0157045D01*
X0133984Y0158812D01*
X0133984Y0160724D01*
X0133252Y0162491D01*
X0132271Y0163472D01*
X0135811Y0163472D01*
X0135363Y0163025D01*
X0134901Y0162388D01*
X0134543Y0161687D01*
X0134300Y0160939D01*
X0134194Y0160268D01*
X0138677Y0160268D01*
X0138677Y0159268D01*
X0134194Y0159268D01*
X0134300Y0158597D01*
X0134543Y0157848D01*
X0134901Y0157147D01*
X0135363Y0156510D01*
X0135920Y0155954D01*
X0136557Y0155491D01*
X0137258Y0155134D01*
X0138006Y0154891D01*
X0138677Y0154785D01*
X0138677Y0159268D01*
X0139677Y0159268D01*
X0139677Y0160268D01*
X0144160Y0160268D01*
X0144054Y0160939D01*
X0143811Y0161687D01*
X0143454Y0162388D01*
X0142991Y0163025D01*
X0142543Y0163472D01*
X0147705Y0163472D01*
X0146121Y0161889D01*
X0144654Y0159347D01*
X0143894Y0156511D01*
X0143894Y0153575D01*
X0144654Y0150740D01*
X0146121Y0148197D01*
X0146636Y0147683D01*
X0145754Y0147318D01*
X0145052Y0146616D01*
X0144672Y0145698D01*
X0144672Y0145259D01*
X0143787Y0144374D01*
X0143787Y0139728D01*
X0144969Y0138547D01*
X0146027Y0137488D01*
X0146846Y0137488D01*
X0146846Y0135998D01*
X0147612Y0135232D01*
X0151268Y0135232D01*
X0151268Y0133745D01*
X0149570Y0132047D01*
X0148783Y0132047D01*
X0147724Y0130989D01*
X0146929Y0130193D01*
X0146929Y0130064D01*
X0146736Y0130064D01*
X0146736Y0126964D01*
X0146736Y0126964D01*
X0146736Y0130201D01*
X0150319Y0133783D01*
X0150827Y0133303D02*
X0143358Y0133303D01*
X0143358Y0132305D02*
X0149828Y0132305D01*
X0148042Y0131306D02*
X0143358Y0131306D01*
X0143358Y0130308D02*
X0147044Y0130308D01*
X0146736Y0129309D02*
X0146736Y0129309D01*
X0146736Y0128311D02*
X0146736Y0128311D01*
X0146736Y0127312D02*
X0146736Y0127312D01*
X0146736Y0126964D02*
X0146736Y0123864D01*
X0146736Y0126964D01*
X0146736Y0126964D01*
X0146736Y0126314D02*
X0146736Y0126314D01*
X0146736Y0125315D02*
X0146736Y0125315D01*
X0146736Y0124317D02*
X0146736Y0124317D01*
X0146736Y0123864D02*
X0147236Y0123864D01*
X0147236Y0121764D01*
X0146236Y0121764D01*
X0146236Y0123864D01*
X0146736Y0123864D01*
X0146236Y0123318D02*
X0147236Y0123318D01*
X0147236Y0122320D02*
X0146236Y0122320D01*
X0146236Y0121764D02*
X0140962Y0121764D01*
X0140625Y0120951D01*
X0140315Y0120641D01*
X0140315Y0117603D01*
X0140547Y0117371D01*
X0140675Y0117371D01*
X0140638Y0117435D01*
X0140536Y0117816D01*
X0140536Y0120764D01*
X0146236Y0120764D01*
X0146236Y0121764D01*
X0146236Y0121321D02*
X0140779Y0121321D01*
X0140536Y0120323D02*
X0140315Y0120323D01*
X0140315Y0119324D02*
X0140536Y0119324D01*
X0140536Y0118326D02*
X0140315Y0118326D01*
X0138508Y0116854D02*
X0138508Y0122366D01*
X0140089Y0124317D02*
X0140536Y0124317D01*
X0140090Y0125315D02*
X0125354Y0125315D01*
X0125766Y0126314D02*
X0139091Y0126314D01*
X0138547Y0126858D02*
X0138547Y0126858D01*
X0138093Y0127312D02*
X0126045Y0127312D01*
X0125908Y0128311D02*
X0137488Y0128311D01*
X0139295Y0128665D02*
X0139295Y0132602D01*
X0139295Y0128665D02*
X0140997Y0126964D01*
X0142836Y0126964D01*
X0136926Y0124317D02*
X0126121Y0124317D01*
X0127119Y0123318D02*
X0136199Y0123318D01*
X0136010Y0122320D02*
X0128118Y0122320D01*
X0129116Y0121321D02*
X0136237Y0121321D01*
X0136701Y0120323D02*
X0130115Y0120323D01*
X0131113Y0119324D02*
X0136701Y0119324D01*
X0136701Y0118326D02*
X0132112Y0118326D01*
X0133110Y0117327D02*
X0136701Y0117327D01*
X0136701Y0116329D02*
X0134109Y0116329D01*
X0135107Y0115330D02*
X0137476Y0115330D01*
X0138475Y0114332D02*
X0136106Y0114332D01*
X0135752Y0112130D02*
X0123547Y0124335D01*
X0123547Y0127484D01*
X0121840Y0129309D02*
X0099067Y0129309D01*
X0099067Y0128311D02*
X0121186Y0128311D01*
X0121050Y0127312D02*
X0099067Y0127312D01*
X0099067Y0126314D02*
X0121329Y0126314D01*
X0121740Y0125315D02*
X0098621Y0125315D01*
X0096951Y0124317D02*
X0121740Y0124317D01*
X0122760Y0122366D02*
X0092051Y0122366D01*
X0087816Y0118131D01*
X0087816Y0115651D01*
X0083507Y0111343D01*
X0073547Y0111343D01*
X0072366Y0112524D01*
X0072366Y0114340D01*
X0058980Y0127726D01*
X0058980Y0143232D01*
X0060161Y0144413D01*
X0064689Y0144413D01*
X0064886Y0144610D01*
X0065051Y0144776D01*
X0072572Y0144776D01*
X0072572Y0142876D02*
X0072760Y0142687D01*
X0072760Y0140476D01*
X0075257Y0140576D02*
X0077772Y0140576D01*
X0077772Y0146276D01*
X0078772Y0146276D01*
X0078772Y0147276D01*
X0077772Y0147276D01*
X0077772Y0152976D01*
X0076980Y0152976D01*
X0077239Y0153235D01*
X0077620Y0154153D01*
X0077620Y0155016D01*
X0078006Y0154891D01*
X0078677Y0154785D01*
X0078677Y0159268D01*
X0074194Y0159268D01*
X0074300Y0158597D01*
X0074543Y0157848D01*
X0074611Y0157717D01*
X0073847Y0158480D01*
X0073984Y0158812D01*
X0073984Y0160724D01*
X0073252Y0162491D01*
X0072271Y0163472D01*
X0075811Y0163472D01*
X0075363Y0163025D01*
X0074901Y0162388D01*
X0074543Y0161687D01*
X0074300Y0160939D01*
X0074194Y0160268D01*
X0078677Y0160268D01*
X0078677Y0159268D01*
X0079677Y0159268D01*
X0079677Y0160268D01*
X0084160Y0160268D01*
X0084054Y0160939D01*
X0083811Y0161687D01*
X0083454Y0162388D01*
X0082991Y0163025D01*
X0082543Y0163472D01*
X0086084Y0163472D01*
X0085102Y0162491D01*
X0084370Y0160724D01*
X0084370Y0158812D01*
X0084749Y0157896D01*
X0083737Y0156883D01*
X0083372Y0157034D01*
X0083454Y0157147D01*
X0083811Y0157848D01*
X0084054Y0158597D01*
X0084160Y0159268D01*
X0079677Y0159268D01*
X0079677Y0154785D01*
X0080105Y0154852D01*
X0080105Y0154153D01*
X0080485Y0153235D01*
X0080744Y0152976D01*
X0078772Y0152976D01*
X0078772Y0147276D01*
X0080872Y0147276D01*
X0080872Y0146776D01*
X0083972Y0146776D01*
X0087072Y0146776D01*
X0083972Y0146776D01*
X0083972Y0146776D01*
X0078272Y0146776D01*
X0078272Y0154650D01*
X0079059Y0155437D01*
X0079059Y0159650D01*
X0079177Y0159768D01*
X0078677Y0160263D02*
X0073984Y0160263D01*
X0073984Y0159265D02*
X0074194Y0159265D01*
X0074061Y0158266D02*
X0074408Y0158266D01*
X0074405Y0161262D02*
X0073761Y0161262D01*
X0073348Y0162260D02*
X0074836Y0162260D01*
X0075597Y0163259D02*
X0072484Y0163259D01*
X0070004Y0159768D02*
X0069177Y0159768D01*
X0068823Y0159768D01*
X0059374Y0150319D01*
X0041213Y0150319D01*
X0039689Y0148795D01*
X0039677Y0154785D02*
X0040348Y0154891D01*
X0041096Y0155134D01*
X0041798Y0155491D01*
X0042434Y0155954D01*
X0042991Y0156510D01*
X0043454Y0157147D01*
X0043811Y0157848D01*
X0044054Y0158597D01*
X0044160Y0159268D01*
X0039677Y0159268D01*
X0039677Y0160268D01*
X0044160Y0160268D01*
X0044054Y0160939D01*
X0043811Y0161687D01*
X0043454Y0162388D01*
X0042991Y0163025D01*
X0042543Y0163472D01*
X0046084Y0163472D01*
X0045102Y0162491D01*
X0044370Y0160724D01*
X0044370Y0158812D01*
X0045102Y0157045D01*
X0046454Y0155692D01*
X0048221Y0154961D01*
X0050133Y0154961D01*
X0051900Y0155692D01*
X0053252Y0157045D01*
X0053984Y0158812D01*
X0053984Y0160724D01*
X0053252Y0162491D01*
X0052271Y0163472D01*
X0055811Y0163472D01*
X0055363Y0163025D01*
X0054901Y0162388D01*
X0054543Y0161687D01*
X0054300Y0160939D01*
X0054194Y0160268D01*
X0058677Y0160268D01*
X0058677Y0159268D01*
X0054194Y0159268D01*
X0054300Y0158597D01*
X0054543Y0157848D01*
X0054901Y0157147D01*
X0055363Y0156510D01*
X0055920Y0155954D01*
X0056557Y0155491D01*
X0057258Y0155134D01*
X0058006Y0154891D01*
X0058677Y0154785D01*
X0058677Y0159268D01*
X0059677Y0159268D01*
X0059677Y0160268D01*
X0064160Y0160268D01*
X0064054Y0160939D01*
X0063811Y0161687D01*
X0063454Y0162388D01*
X0062991Y0163025D01*
X0062543Y0163472D01*
X0066084Y0163472D01*
X0065102Y0162491D01*
X0064370Y0160724D01*
X0064370Y0158812D01*
X0064646Y0158146D01*
X0058625Y0152126D01*
X0048496Y0152126D01*
X0048496Y0153987D01*
X0047730Y0154752D01*
X0031648Y0154752D01*
X0030882Y0153987D01*
X0030882Y0143604D01*
X0031648Y0142838D01*
X0047730Y0142838D01*
X0048496Y0143604D01*
X0048496Y0148512D01*
X0058161Y0148512D01*
X0045401Y0135752D01*
X0031648Y0135752D01*
X0030882Y0134987D01*
X0030882Y0124604D01*
X0031648Y0123838D01*
X0047730Y0123838D01*
X0048496Y0124604D01*
X0048496Y0133736D01*
X0057173Y0142413D01*
X0057173Y0126977D01*
X0068776Y0115375D01*
X0068776Y0113203D01*
X0069541Y0112437D01*
X0070559Y0112437D01*
X0070559Y0111775D01*
X0071618Y0110717D01*
X0071740Y0110594D01*
X0072799Y0109535D01*
X0084256Y0109535D01*
X0088565Y0113844D01*
X0089623Y0114903D01*
X0089623Y0117383D01*
X0092800Y0120559D01*
X0094381Y0120559D01*
X0093401Y0119579D01*
X0091943Y0119579D01*
X0091177Y0118813D01*
X0091177Y0111825D01*
X0091943Y0111059D01*
X0093913Y0111059D01*
X0094255Y0110717D01*
X0096027Y0108945D01*
X0103507Y0108945D01*
X0104259Y0108193D01*
X0102326Y0106260D01*
X0101268Y0105201D01*
X0101268Y0096421D01*
X0102326Y0095362D01*
X0103796Y0093893D01*
X0104354Y0093893D01*
X0104354Y0093559D01*
X0105042Y0092871D01*
X0104908Y0092548D01*
X0104908Y0091554D01*
X0105288Y0090636D01*
X0105991Y0089934D01*
X0106909Y0089554D01*
X0107902Y0089554D01*
X0108820Y0089934D01*
X0109523Y0090636D01*
X0109903Y0091554D01*
X0109903Y0091993D01*
X0109968Y0092059D01*
X0109968Y0092600D01*
X0110161Y0092600D01*
X0110161Y0095700D01*
X0110161Y0098800D01*
X0109661Y0098800D01*
X0109661Y0101000D01*
X0104882Y0101000D01*
X0104882Y0102000D01*
X0109661Y0102000D01*
X0109661Y0101000D01*
X0110661Y0101000D01*
X0110661Y0098800D01*
X0110161Y0098800D01*
X0110161Y0095700D01*
X0110161Y0095700D01*
X0110161Y0095700D01*
X0110161Y0088114D01*
X0108980Y0086933D01*
X0109408Y0086373D02*
X0108159Y0086373D01*
X0108548Y0085984D02*
X0106579Y0087953D01*
X0096814Y0087953D01*
X0095240Y0086378D01*
X0094181Y0085319D01*
X0094181Y0085091D01*
X0093281Y0085091D01*
X0092516Y0084325D01*
X0092516Y0077730D01*
X0093281Y0076965D01*
X0094181Y0076965D01*
X0094181Y0075752D01*
X0093818Y0075389D01*
X0093818Y0069307D01*
X0094584Y0068541D01*
X0097867Y0068541D01*
X0097948Y0068622D01*
X0098246Y0068450D01*
X0098628Y0068348D01*
X0099875Y0068348D01*
X0099875Y0072298D01*
X0099975Y0072298D01*
X0099975Y0068348D01*
X0101223Y0068348D01*
X0101258Y0068358D01*
X0101168Y0068139D01*
X0101168Y0067145D01*
X0101548Y0066227D01*
X0101902Y0065873D01*
X0101775Y0065747D01*
X0101567Y0065955D01*
X0098284Y0065955D01*
X0098075Y0065747D01*
X0097867Y0065955D01*
X0094584Y0065955D01*
X0093818Y0065189D01*
X0093818Y0059107D01*
X0094418Y0058507D01*
X0094418Y0056687D01*
X0066898Y0056687D01*
X0066898Y0057922D01*
X0066133Y0058687D01*
X0062850Y0058687D01*
X0062084Y0057922D01*
X0062084Y0051839D01*
X0062326Y0051597D01*
X0062233Y0051635D01*
X0061239Y0051635D01*
X0060321Y0051255D01*
X0059619Y0050553D01*
X0059374Y0049962D01*
X0059129Y0050553D01*
X0058843Y0050839D01*
X0058847Y0051188D01*
X0059498Y0051839D01*
X0059498Y0057922D01*
X0058733Y0058687D01*
X0055450Y0058687D01*
X0054684Y0057922D01*
X0054684Y0051839D01*
X0055234Y0051289D01*
X0055229Y0050887D01*
X0054894Y0050553D01*
X0054650Y0049962D01*
X0054405Y0050553D01*
X0053702Y0051255D01*
X0052784Y0051635D01*
X0051791Y0051635D01*
X0050873Y0051255D01*
X0050170Y0050553D01*
X0049790Y0049635D01*
X0049790Y0048641D01*
X0049854Y0048486D01*
X0049428Y0048486D01*
X0048510Y0048106D01*
X0047808Y0047403D01*
X0047428Y0046485D01*
X0047428Y0045491D01*
X0047808Y0044573D01*
X0048118Y0044263D01*
X0048118Y0043372D01*
X0047929Y0043183D01*
X0047929Y0032455D01*
X0048695Y0031689D01*
X0053225Y0031689D01*
X0053382Y0031598D01*
X0053763Y0031496D01*
X0054650Y0031496D01*
X0055536Y0031496D01*
X0055918Y0031598D01*
X0056075Y0031689D01*
X0062673Y0031689D01*
X0062830Y0031598D01*
X0063212Y0031496D01*
X0064098Y0031496D01*
X0064098Y0037819D01*
X0064098Y0044142D01*
X0063543Y0044142D01*
X0063543Y0047413D01*
X0063854Y0047723D01*
X0064234Y0048641D01*
X0064234Y0049635D01*
X0063854Y0050553D01*
X0063333Y0051073D01*
X0066133Y0051073D01*
X0066898Y0051839D01*
X0066898Y0053073D01*
X0093040Y0053073D01*
X0094575Y0051539D01*
X0095633Y0050480D01*
X0107051Y0050480D01*
X0107270Y0050261D01*
X0107270Y0049822D01*
X0107650Y0048904D01*
X0108353Y0048202D01*
X0108617Y0048092D01*
X0108483Y0048092D01*
X0107566Y0047712D01*
X0106863Y0047009D01*
X0106483Y0046091D01*
X0106483Y0045098D01*
X0106863Y0044180D01*
X0107094Y0043949D01*
X0105681Y0043949D01*
X0105524Y0044039D01*
X0105142Y0044142D01*
X0104256Y0044142D01*
X0104256Y0037819D01*
X0104256Y0037819D01*
X0101894Y0037819D01*
X0104083Y0037819D01*
X0104256Y0037819D01*
X0104256Y0044142D01*
X0103369Y0044142D01*
X0103075Y0044063D01*
X0102780Y0044142D01*
X0101894Y0044142D01*
X0101894Y0037819D01*
X0101894Y0037819D01*
X0104256Y0037819D01*
X0104256Y0037819D01*
X0104256Y0031496D01*
X0105142Y0031496D01*
X0105524Y0031598D01*
X0105681Y0031689D01*
X0109917Y0031689D01*
X0110075Y0031598D01*
X0110456Y0031496D01*
X0111342Y0031496D01*
X0111342Y0037819D01*
X0111342Y0044142D01*
X0111060Y0044142D01*
X0111098Y0044180D01*
X0111269Y0044592D01*
X0112027Y0044278D01*
X0113020Y0044278D01*
X0113938Y0044658D01*
X0114641Y0045361D01*
X0115021Y0046279D01*
X0115021Y0047272D01*
X0114722Y0047994D01*
X0114787Y0048059D01*
X0118897Y0043949D01*
X0115130Y0043949D01*
X0114973Y0044039D01*
X0114591Y0044142D01*
X0113705Y0044142D01*
X0113705Y0037819D01*
X0113705Y0037819D01*
X0113705Y0030634D01*
X0112130Y0029059D01*
X0109374Y0029059D01*
X0106618Y0026303D01*
X0106618Y0020299D01*
X0106618Y0020299D01*
X0106618Y0013976D01*
X0105732Y0013976D01*
X0105437Y0014055D01*
X0105142Y0013976D01*
X0104256Y0013976D01*
X0104256Y0020299D01*
X0104256Y0020299D01*
X0104256Y0020299D01*
X0104429Y0020299D01*
X0106618Y0020299D01*
X0106618Y0020299D01*
X0106618Y0013976D01*
X0107505Y0013976D01*
X0107799Y0014055D01*
X0108094Y0013976D01*
X0108980Y0013976D01*
X0108980Y0020299D01*
X0106791Y0020299D01*
X0106618Y0020299D01*
X0108980Y0020299D01*
X0108980Y0020299D01*
X0108980Y0020299D01*
X0106618Y0020299D01*
X0104256Y0020299D01*
X0104256Y0013976D01*
X0103369Y0013976D01*
X0103075Y0014055D01*
X0102780Y0013976D01*
X0101894Y0013976D01*
X0101894Y0020299D01*
X0101894Y0020299D01*
X0102067Y0020299D01*
X0104256Y0020299D01*
X0101894Y0020299D01*
X0101894Y0020299D01*
X0104256Y0020299D01*
X0106618Y0020299D01*
X0106618Y0020299D01*
X0106618Y0026622D01*
X0105732Y0026622D01*
X0105437Y0026543D01*
X0105142Y0026622D01*
X0104256Y0026622D01*
X0104256Y0020299D01*
X0104256Y0020299D01*
X0104256Y0020299D01*
X0104256Y0026622D01*
X0103369Y0026622D01*
X0103075Y0026543D01*
X0102780Y0026622D01*
X0102029Y0026622D01*
X0102029Y0027587D01*
X0101649Y0028505D01*
X0100946Y0029208D01*
X0100028Y0029588D01*
X0099035Y0029588D01*
X0098117Y0029208D01*
X0097414Y0028505D01*
X0097034Y0027587D01*
X0097034Y0026594D01*
X0097102Y0026429D01*
X0091508Y0026429D01*
X0091351Y0026520D01*
X0090969Y0026622D01*
X0090083Y0026622D01*
X0090083Y0020299D01*
X0090083Y0013976D01*
X0090969Y0013976D01*
X0091351Y0014079D01*
X0091508Y0014169D01*
X0097724Y0014169D01*
X0097724Y0004688D01*
X0098783Y0003630D01*
X0099413Y0003000D01*
X0017751Y0003000D01*
X0020157Y0004389D01*
X0022233Y0006465D01*
X0023701Y0009007D01*
X0024461Y0011843D01*
X0024461Y0014779D01*
X0023701Y0017615D01*
X0022233Y0020157D01*
X0020157Y0022233D01*
X0017615Y0023701D01*
X0014779Y0024461D01*
X0011843Y0024461D01*
X0009007Y0023701D01*
X0006769Y0022409D01*
X0004882Y0024296D01*
X0004882Y0147208D01*
X0005130Y0147456D01*
X0006465Y0146121D01*
X0009007Y0144654D01*
X0011843Y0143894D01*
X0014779Y0143894D01*
X0017615Y0144654D01*
X0020157Y0146121D01*
X0022233Y0148197D01*
X0023701Y0150740D01*
X0024461Y0153575D01*
X0024461Y0156511D01*
X0023701Y0159347D01*
X0022233Y0161889D01*
X0020650Y0163472D01*
X0026084Y0163472D01*
X0025102Y0162491D01*
X0024370Y0160724D01*
X0024370Y0158812D01*
X0025102Y0157045D01*
X0026454Y0155692D01*
X0028221Y0154961D01*
X0030133Y0154961D01*
X0031900Y0155692D01*
X0033252Y0157045D01*
X0033984Y0158812D01*
X0033984Y0160724D01*
X0033252Y0162491D01*
X0032271Y0163472D01*
X0035811Y0163472D01*
X0035363Y0163025D01*
X0034901Y0162388D01*
X0034543Y0161687D01*
X0034300Y0160939D01*
X0034194Y0160268D01*
X0038677Y0160268D01*
X0038677Y0159268D01*
X0034194Y0159268D01*
X0034300Y0158597D01*
X0034543Y0157848D01*
X0034901Y0157147D01*
X0035363Y0156510D01*
X0035920Y0155954D01*
X0036557Y0155491D01*
X0037258Y0155134D01*
X0038006Y0154891D01*
X0038677Y0154785D01*
X0038677Y0159268D01*
X0039677Y0159268D01*
X0039677Y0154785D01*
X0039677Y0155271D02*
X0038677Y0155271D01*
X0038677Y0156269D02*
X0039677Y0156269D01*
X0039677Y0157268D02*
X0038677Y0157268D01*
X0038677Y0158266D02*
X0039677Y0158266D01*
X0039677Y0159265D02*
X0038677Y0159265D01*
X0039177Y0159650D02*
X0035752Y0156224D01*
X0032996Y0156224D01*
X0030634Y0153862D01*
X0030634Y0124335D01*
X0031815Y0123154D01*
X0039295Y0123154D01*
X0043232Y0119217D01*
X0043232Y0113508D01*
X0043035Y0113311D01*
X0050319Y0113311D01*
X0053469Y0110161D01*
X0053469Y0104059D01*
X0054059Y0103469D01*
X0053469Y0104059D02*
X0051500Y0102091D01*
X0051303Y0101894D01*
X0047169Y0101894D01*
X0044020Y0098744D01*
X0039689Y0098744D01*
X0033783Y0098744D01*
X0030437Y0095398D01*
X0027878Y0095398D01*
X0027878Y0082209D01*
X0028378Y0082379D02*
X0032280Y0082379D01*
X0031543Y0082709D02*
X0031543Y0085162D01*
X0031441Y0085544D01*
X0031244Y0085886D01*
X0030964Y0086165D01*
X0030622Y0086362D01*
X0030241Y0086465D01*
X0028378Y0086465D01*
X0028378Y0082709D01*
X0027378Y0082709D01*
X0027378Y0086465D01*
X0025515Y0086465D01*
X0025134Y0086362D01*
X0024792Y0086165D01*
X0024512Y0085886D01*
X0024315Y0085544D01*
X0024213Y0085162D01*
X0024213Y0082709D01*
X0027378Y0082709D01*
X0027378Y0081709D01*
X0024213Y0081709D01*
X0024213Y0079255D01*
X0024315Y0078874D01*
X0024512Y0078532D01*
X0024792Y0078252D01*
X0025134Y0078055D01*
X0025515Y0077953D01*
X0027378Y0077953D01*
X0027378Y0081709D01*
X0028378Y0081709D01*
X0028378Y0082709D01*
X0031543Y0082709D01*
X0031543Y0083378D02*
X0032280Y0083378D01*
X0032280Y0084376D02*
X0031543Y0084376D01*
X0031486Y0085375D02*
X0032280Y0085375D01*
X0032280Y0085506D02*
X0032280Y0078911D01*
X0033045Y0078146D01*
X0033945Y0078146D01*
X0033945Y0077610D01*
X0033045Y0077610D01*
X0032280Y0076845D01*
X0032280Y0070250D01*
X0033045Y0069484D01*
X0038459Y0069484D01*
X0039224Y0070250D01*
X0039224Y0076845D01*
X0038459Y0077610D01*
X0037559Y0077610D01*
X0037559Y0078146D01*
X0038459Y0078146D01*
X0039224Y0078911D01*
X0039224Y0085299D01*
X0039838Y0085912D01*
X0040218Y0086830D01*
X0040218Y0087824D01*
X0039838Y0088742D01*
X0039496Y0089083D01*
X0039496Y0089944D01*
X0039689Y0089944D01*
X0040486Y0089944D01*
X0040868Y0090046D01*
X0041025Y0090137D01*
X0041782Y0090137D01*
X0041782Y0089371D01*
X0044689Y0086465D01*
X0044126Y0086465D01*
X0044126Y0082709D01*
X0043126Y0082709D01*
X0043126Y0086465D01*
X0041263Y0086465D01*
X0040882Y0086362D01*
X0040540Y0086165D01*
X0040260Y0085886D01*
X0040063Y0085544D01*
X0039961Y0085162D01*
X0039961Y0082709D01*
X0043126Y0082709D01*
X0043126Y0081709D01*
X0039961Y0081709D01*
X0039961Y0079255D01*
X0040063Y0078874D01*
X0040260Y0078532D01*
X0040540Y0078252D01*
X0040882Y0078055D01*
X0041263Y0077953D01*
X0043126Y0077953D01*
X0043126Y0081709D01*
X0044126Y0081709D01*
X0044126Y0082709D01*
X0047291Y0082709D01*
X0047291Y0084732D01*
X0048028Y0084732D01*
X0048028Y0078911D01*
X0048793Y0078146D01*
X0054207Y0078146D01*
X0054811Y0078750D01*
X0054811Y0076264D01*
X0053901Y0075354D01*
X0047098Y0075354D01*
X0047098Y0076845D01*
X0046333Y0077610D01*
X0040919Y0077610D01*
X0040154Y0076845D01*
X0040154Y0070250D01*
X0040919Y0069484D01*
X0046333Y0069484D01*
X0047098Y0070250D01*
X0047098Y0071740D01*
X0055398Y0071740D01*
X0056457Y0072799D01*
X0058425Y0074767D01*
X0058425Y0086894D01*
X0057367Y0087953D01*
X0053788Y0091531D01*
X0054994Y0091531D01*
X0055760Y0092297D01*
X0055760Y0098498D01*
X0055650Y0098608D01*
X0055653Y0098610D01*
X0055851Y0098953D01*
X0055953Y0099334D01*
X0055953Y0101591D01*
X0052000Y0101591D01*
X0052000Y0102591D01*
X0051000Y0102591D01*
X0051000Y0106150D01*
X0050454Y0106150D01*
X0050454Y0106876D01*
X0051209Y0106876D01*
X0052127Y0107257D01*
X0052830Y0107959D01*
X0053210Y0108877D01*
X0053210Y0109871D01*
X0052830Y0110789D01*
X0052127Y0111491D01*
X0051209Y0111872D01*
X0050216Y0111872D01*
X0049298Y0111491D01*
X0048987Y0111181D01*
X0047094Y0111181D01*
X0047094Y0112811D01*
X0043535Y0112811D01*
X0043535Y0113811D01*
X0042535Y0113811D01*
X0042535Y0117764D01*
X0040279Y0117764D01*
X0039897Y0117662D01*
X0039555Y0117464D01*
X0039553Y0117461D01*
X0039443Y0117571D01*
X0033242Y0117571D01*
X0032476Y0116805D01*
X0032476Y0113652D01*
X0032358Y0113938D01*
X0031655Y0114641D01*
X0030737Y0115021D01*
X0029743Y0115021D01*
X0028825Y0114641D01*
X0028123Y0113938D01*
X0027743Y0113020D01*
X0027743Y0112582D01*
X0026071Y0110910D01*
X0026071Y0105957D01*
X0024384Y0105957D01*
X0023618Y0105191D01*
X0023618Y0098990D01*
X0023728Y0098880D01*
X0023725Y0098878D01*
X0023527Y0098536D01*
X0023425Y0098154D01*
X0023425Y0095898D01*
X0027378Y0095898D01*
X0027378Y0094898D01*
X0023425Y0094898D01*
X0023425Y0092641D01*
X0023527Y0092260D01*
X0023725Y0091918D01*
X0024004Y0091638D01*
X0024346Y0091441D01*
X0024728Y0091339D01*
X0027378Y0091339D01*
X0027378Y0094898D01*
X0028378Y0094898D01*
X0028378Y0095898D01*
X0032331Y0095898D01*
X0032331Y0098154D01*
X0032228Y0098536D01*
X0032031Y0098878D01*
X0032028Y0098880D01*
X0032138Y0098990D01*
X0032138Y0105191D01*
X0031372Y0105957D01*
X0029685Y0105957D01*
X0029685Y0109413D01*
X0030298Y0110026D01*
X0030737Y0110026D01*
X0031655Y0110406D01*
X0032358Y0111109D01*
X0032476Y0111396D01*
X0032476Y0109817D01*
X0033242Y0109051D01*
X0033945Y0109051D01*
X0033945Y0106648D01*
X0033882Y0106586D01*
X0033882Y0103008D01*
X0033789Y0102915D01*
X0033591Y0102573D01*
X0033489Y0102192D01*
X0033489Y0099244D01*
X0039189Y0099244D01*
X0039189Y0098244D01*
X0040189Y0098244D01*
X0040189Y0096144D01*
X0039689Y0096144D01*
X0039689Y0093044D01*
X0039689Y0089944D01*
X0039689Y0093044D01*
X0039689Y0093044D01*
X0039689Y0098744D01*
X0040189Y0098356D02*
X0047240Y0098356D01*
X0047240Y0098498D02*
X0047240Y0098024D01*
X0047076Y0098092D01*
X0046082Y0098092D01*
X0045889Y0098012D01*
X0045889Y0098244D01*
X0040189Y0098244D01*
X0040189Y0099244D01*
X0045889Y0099244D01*
X0045889Y0102192D01*
X0045787Y0102573D01*
X0045750Y0102637D01*
X0046925Y0102637D01*
X0047047Y0102759D01*
X0047047Y0102591D01*
X0051000Y0102591D01*
X0051000Y0101591D01*
X0047047Y0101591D01*
X0047047Y0099334D01*
X0047149Y0098953D01*
X0047347Y0098610D01*
X0047350Y0098608D01*
X0047240Y0098498D01*
X0047047Y0099354D02*
X0045889Y0099354D01*
X0045889Y0100353D02*
X0047047Y0100353D01*
X0047047Y0101351D02*
X0045889Y0101351D01*
X0045847Y0102350D02*
X0051000Y0102350D01*
X0051000Y0103348D02*
X0052000Y0103348D01*
X0052000Y0102591D02*
X0052000Y0106150D01*
X0054650Y0106150D01*
X0055032Y0106047D01*
X0055374Y0105850D01*
X0055653Y0105571D01*
X0055851Y0105229D01*
X0055953Y0104847D01*
X0055953Y0102591D01*
X0052000Y0102591D01*
X0052000Y0102350D02*
X0101268Y0102350D01*
X0101268Y0103348D02*
X0055953Y0103348D01*
X0055953Y0104347D02*
X0101268Y0104347D01*
X0101412Y0105345D02*
X0055783Y0105345D01*
X0055953Y0101351D02*
X0101268Y0101351D01*
X0101268Y0100353D02*
X0055953Y0100353D01*
X0055953Y0099354D02*
X0101268Y0099354D01*
X0101268Y0098356D02*
X0055760Y0098356D01*
X0055760Y0097357D02*
X0101268Y0097357D01*
X0101330Y0096359D02*
X0055760Y0096359D01*
X0055760Y0095360D02*
X0102328Y0095360D01*
X0103327Y0094362D02*
X0055760Y0094362D01*
X0055760Y0093363D02*
X0104550Y0093363D01*
X0104908Y0092365D02*
X0055760Y0092365D01*
X0054952Y0090368D02*
X0105557Y0090368D01*
X0104986Y0091366D02*
X0053953Y0091366D01*
X0051500Y0091264D02*
X0056618Y0086146D01*
X0056618Y0075516D01*
X0054650Y0073547D01*
X0043626Y0073547D01*
X0040154Y0073393D02*
X0039224Y0073393D01*
X0039224Y0074391D02*
X0040154Y0074391D01*
X0040154Y0075390D02*
X0039224Y0075390D01*
X0039224Y0076388D02*
X0040154Y0076388D01*
X0040696Y0077387D02*
X0038682Y0077387D01*
X0038698Y0078385D02*
X0040407Y0078385D01*
X0039961Y0079384D02*
X0039224Y0079384D01*
X0039224Y0080382D02*
X0039961Y0080382D01*
X0039961Y0081381D02*
X0039224Y0081381D01*
X0039224Y0082379D02*
X0043126Y0082379D01*
X0043626Y0082209D02*
X0043626Y0085358D01*
X0039689Y0089295D01*
X0039689Y0093044D01*
X0039689Y0093044D01*
X0039689Y0096144D01*
X0039189Y0096144D01*
X0039189Y0098244D01*
X0033489Y0098244D01*
X0033489Y0095297D01*
X0033591Y0094915D01*
X0033789Y0094573D01*
X0033882Y0094480D01*
X0033882Y0090903D01*
X0033982Y0090803D01*
X0033982Y0089687D01*
X0033157Y0088863D01*
X0033157Y0086272D01*
X0033045Y0086272D01*
X0032280Y0085506D01*
X0033157Y0086373D02*
X0030581Y0086373D01*
X0033157Y0087372D02*
X0004882Y0087372D01*
X0004882Y0088370D02*
X0033157Y0088370D01*
X0033664Y0089369D02*
X0004882Y0089369D01*
X0004882Y0090368D02*
X0033982Y0090368D01*
X0033882Y0091366D02*
X0031131Y0091366D01*
X0031028Y0091339D02*
X0031410Y0091441D01*
X0031752Y0091638D01*
X0032031Y0091918D01*
X0032228Y0092260D01*
X0032331Y0092641D01*
X0032331Y0094898D01*
X0028378Y0094898D01*
X0028378Y0091339D01*
X0031028Y0091339D01*
X0032257Y0092365D02*
X0033882Y0092365D01*
X0033882Y0093363D02*
X0032331Y0093363D01*
X0032331Y0094362D02*
X0033882Y0094362D01*
X0033489Y0095360D02*
X0028378Y0095360D01*
X0028378Y0094362D02*
X0027378Y0094362D01*
X0027378Y0095360D02*
X0004882Y0095360D01*
X0004882Y0094362D02*
X0023425Y0094362D01*
X0023425Y0093363D02*
X0004882Y0093363D01*
X0004882Y0092365D02*
X0023499Y0092365D01*
X0024625Y0091366D02*
X0004882Y0091366D01*
X0004882Y0086373D02*
X0025175Y0086373D01*
X0024270Y0085375D02*
X0004882Y0085375D01*
X0004882Y0084376D02*
X0024213Y0084376D01*
X0024213Y0083378D02*
X0004882Y0083378D01*
X0004882Y0082379D02*
X0027378Y0082379D01*
X0027378Y0081381D02*
X0028378Y0081381D01*
X0028378Y0081709D02*
X0028378Y0077953D01*
X0030241Y0077953D01*
X0030622Y0078055D01*
X0030964Y0078252D01*
X0031244Y0078532D01*
X0031441Y0078874D01*
X0031543Y0079255D01*
X0031543Y0081709D01*
X0028378Y0081709D01*
X0028378Y0080382D02*
X0027378Y0080382D01*
X0027378Y0079384D02*
X0028378Y0079384D01*
X0028378Y0078385D02*
X0027378Y0078385D01*
X0024659Y0078385D02*
X0004882Y0078385D01*
X0004882Y0077387D02*
X0032822Y0077387D01*
X0032805Y0078385D02*
X0031097Y0078385D01*
X0031543Y0079384D02*
X0032280Y0079384D01*
X0032280Y0080382D02*
X0031543Y0080382D01*
X0031543Y0081381D02*
X0032280Y0081381D01*
X0034965Y0082996D02*
X0035752Y0082209D01*
X0035752Y0073547D01*
X0032280Y0073393D02*
X0004882Y0073393D01*
X0004882Y0074391D02*
X0032280Y0074391D01*
X0032280Y0075390D02*
X0004882Y0075390D01*
X0004882Y0076388D02*
X0032280Y0076388D01*
X0032280Y0072394D02*
X0004882Y0072394D01*
X0004882Y0071396D02*
X0032280Y0071396D01*
X0032280Y0070397D02*
X0004882Y0070397D01*
X0004882Y0069399D02*
X0093818Y0069399D01*
X0093818Y0070397D02*
X0047098Y0070397D01*
X0047098Y0071396D02*
X0093818Y0071396D01*
X0093818Y0072394D02*
X0056052Y0072394D01*
X0057051Y0073393D02*
X0093818Y0073393D01*
X0093818Y0074391D02*
X0058049Y0074391D01*
X0058425Y0075390D02*
X0093819Y0075390D01*
X0094181Y0076388D02*
X0058425Y0076388D01*
X0058425Y0077387D02*
X0092859Y0077387D01*
X0092516Y0078385D02*
X0058425Y0078385D01*
X0058425Y0079384D02*
X0092516Y0079384D01*
X0092516Y0080382D02*
X0058425Y0080382D01*
X0058425Y0081381D02*
X0092516Y0081381D01*
X0092516Y0082379D02*
X0058425Y0082379D01*
X0058425Y0083378D02*
X0092516Y0083378D01*
X0092567Y0084376D02*
X0058425Y0084376D01*
X0058425Y0085375D02*
X0094237Y0085375D01*
X0095235Y0086373D02*
X0058425Y0086373D01*
X0057947Y0087372D02*
X0096234Y0087372D01*
X0097563Y0086146D02*
X0095988Y0084571D01*
X0095988Y0081028D01*
X0095988Y0072348D01*
X0096225Y0072348D01*
X0096382Y0072348D01*
X0099875Y0072398D02*
X0099875Y0076348D01*
X0098628Y0076348D01*
X0098246Y0076246D01*
X0097948Y0076074D01*
X0097867Y0076155D01*
X0097795Y0076155D01*
X0097795Y0076965D01*
X0098695Y0076965D01*
X0099461Y0077730D01*
X0099461Y0084325D01*
X0099447Y0084339D01*
X0100403Y0084339D01*
X0100390Y0084325D01*
X0100390Y0077730D01*
X0101155Y0076965D01*
X0106386Y0076965D01*
X0106386Y0064847D01*
X0106032Y0064493D01*
X0106032Y0065189D01*
X0105389Y0065833D01*
X0105783Y0066227D01*
X0106163Y0067145D01*
X0106163Y0068139D01*
X0105783Y0069057D01*
X0105782Y0069057D01*
X0106032Y0069307D01*
X0106032Y0075389D01*
X0105267Y0076155D01*
X0101984Y0076155D01*
X0101902Y0076074D01*
X0101604Y0076246D01*
X0101223Y0076348D01*
X0099975Y0076348D01*
X0099975Y0072398D01*
X0099875Y0072398D01*
X0099925Y0072348D02*
X0099925Y0067642D01*
X0099875Y0068400D02*
X0099975Y0068400D01*
X0099975Y0069399D02*
X0099875Y0069399D01*
X0099875Y0070397D02*
X0099975Y0070397D01*
X0099975Y0071396D02*
X0099875Y0071396D01*
X0099925Y0072348D02*
X0099925Y0076697D01*
X0099117Y0077387D02*
X0100733Y0077387D01*
X0100390Y0078385D02*
X0099461Y0078385D01*
X0099461Y0079384D02*
X0100390Y0079384D01*
X0100390Y0080382D02*
X0099461Y0080382D01*
X0099461Y0081381D02*
X0100390Y0081381D01*
X0100390Y0082379D02*
X0099461Y0082379D01*
X0099461Y0083378D02*
X0100390Y0083378D01*
X0097563Y0086146D02*
X0105831Y0086146D01*
X0107799Y0084177D01*
X0109768Y0084177D01*
X0111343Y0085752D01*
X0115280Y0085752D01*
X0116854Y0087327D01*
X0116854Y0090870D01*
X0114061Y0093663D01*
X0114061Y0095700D01*
X0115385Y0095700D01*
X0116461Y0096776D01*
X0116461Y0105437D01*
X0115280Y0106618D01*
X0114492Y0106618D01*
X0114061Y0107049D01*
X0114061Y0107300D01*
X0118193Y0111431D01*
X0118193Y0115280D01*
X0114983Y0111129D02*
X0115092Y0111020D01*
X0115226Y0111020D01*
X0114413Y0110207D01*
X0109497Y0110207D01*
X0109340Y0110298D01*
X0108959Y0110400D01*
X0108161Y0110400D01*
X0107364Y0110400D01*
X0107206Y0110358D01*
X0106063Y0111500D01*
X0105711Y0111853D01*
X0105795Y0112169D01*
X0105795Y0114819D01*
X0102236Y0114819D01*
X0102236Y0115819D01*
X0105795Y0115819D01*
X0105795Y0118469D01*
X0105763Y0118591D01*
X0107484Y0118591D01*
X0107441Y0118430D01*
X0107441Y0115779D01*
X0111000Y0115779D01*
X0111000Y0114780D01*
X0107441Y0114780D01*
X0107441Y0112129D01*
X0107543Y0111748D01*
X0107741Y0111406D01*
X0108020Y0111126D01*
X0108362Y0110929D01*
X0108743Y0110827D01*
X0111000Y0110827D01*
X0111000Y0114779D01*
X0112000Y0114779D01*
X0112000Y0110827D01*
X0114257Y0110827D01*
X0114638Y0110929D01*
X0114980Y0111126D01*
X0114983Y0111129D01*
X0114544Y0110338D02*
X0109191Y0110338D01*
X0108161Y0110338D02*
X0108161Y0110338D01*
X0108161Y0110400D02*
X0108161Y0109449D01*
X0108161Y0109448D01*
X0108161Y0110400D01*
X0107810Y0111336D02*
X0106227Y0111336D01*
X0105795Y0112335D02*
X0107441Y0112335D01*
X0108193Y0111736D02*
X0108193Y0107331D01*
X0108161Y0107300D01*
X0108161Y0109146D01*
X0108161Y0107300D02*
X0108193Y0107269D01*
X0108193Y0102681D01*
X0109374Y0101500D01*
X0110161Y0101500D01*
X0110161Y0095700D01*
X0110161Y0092600D01*
X0110354Y0092600D01*
X0110354Y0090877D01*
X0110813Y0090418D01*
X0110813Y0089980D01*
X0111194Y0089062D01*
X0111896Y0088359D01*
X0112814Y0087979D01*
X0113808Y0087979D01*
X0114726Y0088359D01*
X0115047Y0088680D01*
X0115047Y0088075D01*
X0114531Y0087559D01*
X0110594Y0087559D01*
X0109019Y0085984D01*
X0108548Y0085984D01*
X0107160Y0087372D02*
X0110407Y0087372D01*
X0111885Y0088370D02*
X0056949Y0088370D01*
X0055950Y0089369D02*
X0111066Y0089369D01*
X0110813Y0090368D02*
X0109254Y0090368D01*
X0109825Y0091366D02*
X0110354Y0091366D01*
X0110354Y0092365D02*
X0109968Y0092365D01*
X0110161Y0093363D02*
X0110161Y0093363D01*
X0110161Y0094362D02*
X0110161Y0094362D01*
X0110161Y0095360D02*
X0110161Y0095360D01*
X0110161Y0096359D02*
X0110161Y0096359D01*
X0110161Y0097357D02*
X0110161Y0097357D01*
X0110161Y0098356D02*
X0110161Y0098356D01*
X0109661Y0099354D02*
X0110661Y0099354D01*
X0110661Y0100353D02*
X0109661Y0100353D01*
X0109661Y0101351D02*
X0104882Y0101351D01*
X0103075Y0104453D02*
X0103075Y0097169D01*
X0104544Y0095700D01*
X0106261Y0095700D01*
X0106261Y0095951D01*
X0108161Y0095700D02*
X0108161Y0092807D01*
X0107406Y0092051D01*
X0112161Y0091626D02*
X0113311Y0090476D01*
X0112161Y0091626D02*
X0112161Y0095700D01*
X0118429Y0092445D02*
X0121972Y0088902D01*
X0121972Y0081028D01*
X0123154Y0081028D01*
X0126697Y0077484D01*
X0126697Y0064492D01*
X0124335Y0062130D01*
X0121360Y0062130D01*
X0121342Y0062148D01*
X0117692Y0062098D02*
X0117692Y0058148D01*
X0118939Y0058148D01*
X0119321Y0058250D01*
X0119619Y0058422D01*
X0119700Y0058341D01*
X0120746Y0058341D01*
X0119059Y0056654D01*
X0116619Y0056654D01*
X0115749Y0057523D01*
X0115749Y0058374D01*
X0115963Y0058250D01*
X0116344Y0058148D01*
X0117592Y0058148D01*
X0117592Y0062098D01*
X0117692Y0062098D01*
X0117642Y0062148D02*
X0117642Y0057406D01*
X0117592Y0058415D02*
X0117692Y0058415D01*
X0117692Y0059414D02*
X0117592Y0059414D01*
X0117592Y0060412D02*
X0117692Y0060412D01*
X0117692Y0061411D02*
X0117592Y0061411D01*
X0119606Y0058415D02*
X0119626Y0058415D01*
X0119822Y0057417D02*
X0115855Y0057417D01*
X0113942Y0056775D02*
X0115870Y0054846D01*
X0119807Y0054846D01*
X0128665Y0063705D01*
X0128665Y0082012D01*
X0125909Y0084768D01*
X0123983Y0086373D02*
X0123780Y0086373D01*
X0123780Y0087372D02*
X0142690Y0087372D01*
X0141692Y0086373D02*
X0127836Y0086373D01*
X0128361Y0085375D02*
X0141292Y0085375D01*
X0140774Y0084376D02*
X0128856Y0084376D01*
X0129855Y0083378D02*
X0140735Y0083378D01*
X0141110Y0082379D02*
X0133177Y0082379D01*
X0134046Y0081381D02*
X0142506Y0081381D01*
X0143959Y0081381D02*
X0150118Y0081381D01*
X0150118Y0082379D02*
X0145354Y0082379D01*
X0145730Y0083378D02*
X0150118Y0083378D01*
X0150118Y0080382D02*
X0134313Y0080382D01*
X0134164Y0079384D02*
X0150118Y0079384D01*
X0150118Y0078385D02*
X0145470Y0078385D01*
X0146044Y0077387D02*
X0149639Y0077387D01*
X0149396Y0076388D02*
X0146490Y0076388D01*
X0147957Y0076303D02*
X0147957Y0079059D01*
X0145988Y0081028D01*
X0140083Y0081028D01*
X0140083Y0071776D01*
X0138902Y0070594D01*
X0138311Y0070398D01*
X0134571Y0070398D01*
X0133783Y0069610D01*
X0133783Y0067248D01*
X0134583Y0067402D02*
X0132835Y0067402D01*
X0132835Y0068400D02*
X0134449Y0068400D01*
X0134449Y0069399D02*
X0132835Y0069399D01*
X0132835Y0070397D02*
X0138402Y0070397D01*
X0138402Y0071396D02*
X0139402Y0071396D01*
X0139402Y0071094D02*
X0143354Y0071094D01*
X0143354Y0073351D01*
X0143252Y0073733D01*
X0143055Y0074075D01*
X0142789Y0074340D01*
X0143129Y0074199D01*
X0143568Y0074199D01*
X0144118Y0073649D01*
X0144118Y0071119D01*
X0144025Y0071025D01*
X0143827Y0070683D01*
X0143725Y0070302D01*
X0143725Y0067354D01*
X0149425Y0067354D01*
X0149425Y0066354D01*
X0143725Y0066354D01*
X0143725Y0063407D01*
X0143827Y0063025D01*
X0144025Y0062683D01*
X0144118Y0062590D01*
X0144118Y0061839D01*
X0143161Y0060937D01*
X0143161Y0067002D01*
X0143052Y0067112D01*
X0143055Y0067114D01*
X0143252Y0067456D01*
X0143354Y0067838D01*
X0143354Y0070095D01*
X0139402Y0070095D01*
X0139402Y0071094D01*
X0139402Y0070397D02*
X0143751Y0070397D01*
X0143725Y0069399D02*
X0143354Y0069399D01*
X0143354Y0068400D02*
X0143725Y0068400D01*
X0143725Y0067402D02*
X0143221Y0067402D01*
X0143161Y0066403D02*
X0149425Y0066403D01*
X0149925Y0066854D02*
X0156933Y0066933D01*
X0156125Y0067402D02*
X0163472Y0067402D01*
X0163472Y0068400D02*
X0156125Y0068400D01*
X0156125Y0069399D02*
X0163472Y0069399D01*
X0163472Y0070397D02*
X0156100Y0070397D01*
X0155732Y0071396D02*
X0163472Y0071396D01*
X0163472Y0072394D02*
X0155732Y0072394D01*
X0156263Y0073393D02*
X0163472Y0073393D01*
X0163472Y0074391D02*
X0157262Y0074391D01*
X0158260Y0075390D02*
X0163472Y0075390D01*
X0163472Y0076388D02*
X0158819Y0076388D01*
X0158819Y0077387D02*
X0163472Y0077387D01*
X0163472Y0078385D02*
X0158819Y0078385D01*
X0158819Y0079384D02*
X0163472Y0079384D01*
X0163472Y0080382D02*
X0158819Y0080382D01*
X0158819Y0081381D02*
X0163472Y0081381D01*
X0163472Y0082379D02*
X0159134Y0082379D01*
X0159509Y0083378D02*
X0163472Y0083378D01*
X0163472Y0084376D02*
X0159470Y0084376D01*
X0158952Y0085375D02*
X0163472Y0085375D01*
X0163472Y0086373D02*
X0158552Y0086373D01*
X0157554Y0087372D02*
X0163472Y0087372D01*
X0163472Y0088370D02*
X0156063Y0088370D01*
X0156125Y0089369D02*
X0163472Y0089369D01*
X0163472Y0090368D02*
X0156125Y0090368D01*
X0156125Y0091366D02*
X0163472Y0091366D01*
X0163472Y0092365D02*
X0150425Y0092365D01*
X0149925Y0092051D02*
X0143626Y0092051D01*
X0143626Y0093232D01*
X0142839Y0094020D01*
X0142839Y0099531D01*
X0142248Y0100122D01*
X0142248Y0106618D01*
X0141748Y0106344D02*
X0137165Y0106344D01*
X0137165Y0107342D02*
X0138189Y0107342D01*
X0138189Y0108341D02*
X0137165Y0108341D01*
X0137165Y0109339D02*
X0138189Y0109339D01*
X0135358Y0109768D02*
X0122760Y0122366D01*
X0121185Y0120398D02*
X0096776Y0120398D01*
X0095201Y0118823D01*
X0095201Y0115476D01*
X0095043Y0115319D01*
X0095004Y0115280D01*
X0095004Y0112524D01*
X0096776Y0110752D01*
X0104256Y0110752D01*
X0106261Y0108746D01*
X0106261Y0107300D01*
X0106261Y0107049D01*
X0105671Y0107049D01*
X0103075Y0104453D01*
X0102326Y0106260D02*
X0102326Y0106260D01*
X0102410Y0106344D02*
X0050454Y0106344D01*
X0051000Y0105345D02*
X0052000Y0105345D01*
X0052000Y0104347D02*
X0051000Y0104347D01*
X0052213Y0107342D02*
X0103409Y0107342D01*
X0104112Y0108341D02*
X0052988Y0108341D01*
X0053210Y0109339D02*
X0095633Y0109339D01*
X0094634Y0110338D02*
X0085058Y0110338D01*
X0086057Y0111336D02*
X0091666Y0111336D01*
X0091177Y0112335D02*
X0087055Y0112335D01*
X0088054Y0113333D02*
X0091177Y0113333D01*
X0091177Y0114332D02*
X0089052Y0114332D01*
X0089623Y0115330D02*
X0091177Y0115330D01*
X0091177Y0116329D02*
X0089623Y0116329D01*
X0089623Y0117327D02*
X0091177Y0117327D01*
X0091177Y0118326D02*
X0090566Y0118326D01*
X0091565Y0119324D02*
X0091688Y0119324D01*
X0092563Y0120323D02*
X0094145Y0120323D01*
X0094807Y0124728D02*
X0086933Y0124728D01*
X0085161Y0122957D01*
X0082996Y0125122D01*
X0081268Y0123318D02*
X0065944Y0123318D01*
X0066942Y0122320D02*
X0081969Y0122320D01*
X0082340Y0122691D02*
X0080212Y0120563D01*
X0077415Y0120563D01*
X0076650Y0119797D01*
X0076650Y0113203D01*
X0076703Y0113150D01*
X0075667Y0113150D01*
X0075720Y0113203D01*
X0075720Y0119797D01*
X0074955Y0120563D01*
X0069541Y0120563D01*
X0069120Y0120142D01*
X0060787Y0128474D01*
X0060787Y0134383D01*
X0061012Y0134158D01*
X0061354Y0133960D01*
X0061736Y0133858D01*
X0064386Y0133858D01*
X0064386Y0137417D01*
X0065386Y0137417D01*
X0065386Y0133858D01*
X0068036Y0133858D01*
X0068418Y0133960D01*
X0068760Y0134158D01*
X0069039Y0134437D01*
X0069236Y0134779D01*
X0069339Y0135161D01*
X0069339Y0137417D01*
X0065386Y0137417D01*
X0065386Y0138417D01*
X0069339Y0138417D01*
X0069339Y0140674D01*
X0069236Y0141055D01*
X0069039Y0141397D01*
X0069036Y0141400D01*
X0069146Y0141510D01*
X0069146Y0142969D01*
X0069665Y0142969D01*
X0069665Y0141734D01*
X0070310Y0141089D01*
X0070262Y0140973D01*
X0070262Y0139980D01*
X0070642Y0139062D01*
X0071345Y0138359D01*
X0072263Y0137979D01*
X0073257Y0137979D01*
X0074175Y0138359D01*
X0074877Y0139062D01*
X0075257Y0139980D01*
X0075257Y0140576D01*
X0075257Y0140293D02*
X0080543Y0140293D01*
X0080498Y0140186D02*
X0080498Y0139192D01*
X0080879Y0138274D01*
X0081581Y0137572D01*
X0082499Y0137191D01*
X0083493Y0137191D01*
X0084411Y0137572D01*
X0085113Y0138274D01*
X0085126Y0138304D01*
X0085126Y0137246D01*
X0084731Y0137082D01*
X0084028Y0136379D01*
X0083648Y0135461D01*
X0083648Y0134468D01*
X0084028Y0133550D01*
X0084598Y0132980D01*
X0084355Y0132736D01*
X0084157Y0132394D01*
X0084055Y0132012D01*
X0084055Y0129559D01*
X0087220Y0129559D01*
X0087220Y0128559D01*
X0084055Y0128559D01*
X0084055Y0127387D01*
X0083493Y0127620D01*
X0082499Y0127620D01*
X0081740Y0127305D01*
X0081740Y0128559D01*
X0078181Y0128559D01*
X0078181Y0124606D01*
X0080438Y0124606D01*
X0080499Y0124623D01*
X0080879Y0123707D01*
X0081581Y0123005D01*
X0082340Y0122691D01*
X0080970Y0121321D02*
X0067941Y0121321D01*
X0068939Y0120323D02*
X0069301Y0120323D01*
X0066823Y0117327D02*
X0046652Y0117327D01*
X0046516Y0117464D02*
X0046173Y0117662D01*
X0045792Y0117764D01*
X0043535Y0117764D01*
X0043535Y0113811D01*
X0047094Y0113811D01*
X0047094Y0116461D01*
X0046992Y0116843D01*
X0046795Y0117185D01*
X0046516Y0117464D01*
X0047094Y0116329D02*
X0067822Y0116329D01*
X0068776Y0115330D02*
X0047094Y0115330D01*
X0047094Y0114332D02*
X0068776Y0114332D01*
X0068776Y0113333D02*
X0043535Y0113333D01*
X0043535Y0114332D02*
X0042535Y0114332D01*
X0042535Y0115330D02*
X0043535Y0115330D01*
X0043535Y0116329D02*
X0042535Y0116329D01*
X0042535Y0117327D02*
X0043535Y0117327D01*
X0047094Y0112335D02*
X0070559Y0112335D01*
X0070998Y0111336D02*
X0052283Y0111336D01*
X0053017Y0110338D02*
X0071996Y0110338D01*
X0072366Y0114340D02*
X0072366Y0116382D01*
X0072248Y0116500D01*
X0071146Y0116500D01*
X0075720Y0116329D02*
X0076650Y0116329D01*
X0076650Y0117327D02*
X0075720Y0117327D01*
X0075720Y0118326D02*
X0076650Y0118326D01*
X0076650Y0119324D02*
X0075720Y0119324D01*
X0075195Y0120323D02*
X0077175Y0120323D01*
X0080122Y0117917D02*
X0080122Y0116500D01*
X0080122Y0117917D02*
X0085161Y0122957D01*
X0081757Y0127312D02*
X0081740Y0127312D01*
X0081740Y0128311D02*
X0084055Y0128311D01*
X0084055Y0130308D02*
X0081740Y0130308D01*
X0081740Y0129559D02*
X0081740Y0132209D01*
X0081638Y0132591D01*
X0081440Y0132933D01*
X0081161Y0133212D01*
X0080819Y0133410D01*
X0080438Y0133512D01*
X0078181Y0133512D01*
X0078181Y0129559D01*
X0077181Y0129559D01*
X0077181Y0133512D01*
X0074925Y0133512D01*
X0074808Y0133481D01*
X0074877Y0133550D01*
X0075257Y0134468D01*
X0075257Y0135461D01*
X0074877Y0136379D01*
X0074175Y0137082D01*
X0073257Y0137462D01*
X0072263Y0137462D01*
X0071345Y0137082D01*
X0070642Y0136379D01*
X0070262Y0135461D01*
X0070262Y0135023D01*
X0069181Y0133941D01*
X0069181Y0133319D01*
X0067888Y0133319D01*
X0067122Y0132553D01*
X0067122Y0125565D01*
X0067888Y0124799D01*
X0074089Y0124799D01*
X0074198Y0124909D01*
X0074201Y0124906D01*
X0074543Y0124709D01*
X0074925Y0124606D01*
X0077181Y0124606D01*
X0077181Y0128559D01*
X0078181Y0128559D01*
X0078181Y0129559D01*
X0081740Y0129559D01*
X0081740Y0131306D02*
X0084055Y0131306D01*
X0084134Y0132305D02*
X0081715Y0132305D01*
X0081003Y0133303D02*
X0084275Y0133303D01*
X0083717Y0134302D02*
X0075189Y0134302D01*
X0075257Y0135301D02*
X0083648Y0135301D01*
X0083995Y0136299D02*
X0074911Y0136299D01*
X0073654Y0137298D02*
X0082243Y0137298D01*
X0083749Y0137298D02*
X0085126Y0137298D01*
X0085122Y0138296D02*
X0085126Y0138296D01*
X0082996Y0139689D02*
X0083972Y0140665D01*
X0083972Y0142876D01*
X0083972Y0144776D02*
X0086177Y0144776D01*
X0086933Y0144020D01*
X0086933Y0135752D01*
X0086146Y0134965D01*
X0088017Y0133303D02*
X0088220Y0133303D01*
X0088220Y0133315D02*
X0088220Y0129559D01*
X0087220Y0129559D01*
X0087220Y0132706D01*
X0087560Y0132847D01*
X0088263Y0133550D01*
X0088372Y0133814D01*
X0088372Y0133680D01*
X0088524Y0133315D01*
X0088220Y0133315D01*
X0088220Y0132305D02*
X0087220Y0132305D01*
X0087220Y0131306D02*
X0088220Y0131306D01*
X0088220Y0130308D02*
X0087220Y0130308D01*
X0087220Y0129309D02*
X0078181Y0129309D01*
X0077878Y0129256D02*
X0077681Y0129059D01*
X0087720Y0129059D01*
X0091382Y0129059D01*
X0091386Y0128559D02*
X0091386Y0126535D01*
X0092122Y0126535D01*
X0092122Y0131992D01*
X0091386Y0131687D01*
X0091386Y0129559D01*
X0088221Y0129559D01*
X0088221Y0128559D01*
X0091386Y0128559D01*
X0091386Y0128311D02*
X0092122Y0128311D01*
X0092122Y0129309D02*
X0088221Y0129309D01*
X0087720Y0129059D02*
X0090870Y0129059D01*
X0091386Y0130308D02*
X0092122Y0130308D01*
X0092122Y0131306D02*
X0091386Y0131306D01*
X0093212Y0133303D02*
X0135232Y0133303D01*
X0135232Y0132305D02*
X0099067Y0132305D01*
X0099067Y0131306D02*
X0135232Y0131306D01*
X0135232Y0130308D02*
X0099067Y0130308D01*
X0095594Y0129059D02*
X0095594Y0125516D01*
X0094807Y0124728D01*
X0092122Y0127312D02*
X0091386Y0127312D01*
X0090870Y0134177D02*
X0091067Y0134374D01*
X0091067Y0140476D01*
X0094250Y0136299D02*
X0094322Y0136299D01*
X0093108Y0135301D02*
X0135232Y0135301D01*
X0135232Y0134302D02*
X0093368Y0134302D01*
X0097260Y0136299D02*
X0098260Y0136299D01*
X0098260Y0137298D02*
X0097260Y0137298D01*
X0097260Y0138296D02*
X0098260Y0138296D01*
X0098260Y0139295D02*
X0097260Y0139295D01*
X0097957Y0140280D02*
X0097760Y0140476D01*
X0099138Y0141854D01*
X0099138Y0150713D01*
X0099138Y0159728D01*
X0099177Y0159768D01*
X0098677Y0160263D02*
X0093984Y0160263D01*
X0093984Y0159265D02*
X0094194Y0159265D01*
X0094408Y0158266D02*
X0093758Y0158266D01*
X0093345Y0157268D02*
X0094839Y0157268D01*
X0095605Y0156269D02*
X0092477Y0156269D01*
X0090882Y0155271D02*
X0096990Y0155271D01*
X0095704Y0154272D02*
X0094474Y0154272D01*
X0094736Y0153274D02*
X0095472Y0153274D01*
X0095472Y0152275D02*
X0094736Y0152275D01*
X0094736Y0151277D02*
X0095472Y0151277D01*
X0095472Y0150213D02*
X0095472Y0147759D01*
X0095575Y0147378D01*
X0095772Y0147036D01*
X0096051Y0146756D01*
X0096393Y0146559D01*
X0096775Y0146457D01*
X0098638Y0146457D01*
X0098638Y0150213D01*
X0095472Y0150213D01*
X0094736Y0150278D02*
X0098638Y0150278D01*
X0098638Y0150213D02*
X0098638Y0151213D01*
X0099638Y0151213D01*
X0099638Y0154968D01*
X0099677Y0154968D01*
X0099677Y0159268D01*
X0104160Y0159268D01*
X0104054Y0158597D01*
X0103811Y0157848D01*
X0103454Y0157147D01*
X0102991Y0156510D01*
X0102434Y0155954D01*
X0101798Y0155491D01*
X0101096Y0155134D01*
X0100587Y0154968D01*
X0101501Y0154968D01*
X0101882Y0154866D01*
X0102224Y0154669D01*
X0102503Y0154390D01*
X0102701Y0154047D01*
X0102803Y0153666D01*
X0102803Y0151213D01*
X0099638Y0151213D01*
X0099638Y0150213D01*
X0102803Y0150213D01*
X0102803Y0147759D01*
X0102701Y0147378D01*
X0102503Y0147036D01*
X0102224Y0146756D01*
X0101882Y0146559D01*
X0101501Y0146457D01*
X0099638Y0146457D01*
X0099638Y0150213D01*
X0098638Y0150213D01*
X0099138Y0150713D02*
X0099335Y0150516D01*
X0108587Y0150516D01*
X0109087Y0150278D02*
X0144920Y0150278D01*
X0144510Y0151277D02*
X0113039Y0151277D01*
X0113039Y0151016D02*
X0113039Y0153272D01*
X0112937Y0153654D01*
X0112740Y0153996D01*
X0112460Y0154275D01*
X0112118Y0154473D01*
X0111737Y0154575D01*
X0109087Y0154575D01*
X0109087Y0151016D01*
X0113039Y0151016D01*
X0113039Y0150016D02*
X0109087Y0150016D01*
X0109087Y0151016D01*
X0108087Y0151016D01*
X0108087Y0154575D01*
X0105436Y0154575D01*
X0105055Y0154473D01*
X0104713Y0154275D01*
X0104434Y0153996D01*
X0104236Y0153654D01*
X0104134Y0153272D01*
X0104134Y0151016D01*
X0108087Y0151016D01*
X0108087Y0150016D01*
X0104134Y0150016D01*
X0104134Y0147759D01*
X0104236Y0147378D01*
X0104434Y0147036D01*
X0104436Y0147033D01*
X0104327Y0146923D01*
X0104327Y0140722D01*
X0105092Y0139957D01*
X0106780Y0139957D01*
X0106780Y0139839D01*
X0106469Y0139529D01*
X0106089Y0138611D01*
X0106089Y0137617D01*
X0106469Y0136699D01*
X0107172Y0135997D01*
X0108090Y0135617D01*
X0109083Y0135617D01*
X0110001Y0135997D01*
X0110704Y0136699D01*
X0111084Y0137617D01*
X0111084Y0138611D01*
X0110704Y0139529D01*
X0110394Y0139839D01*
X0110394Y0139957D01*
X0112081Y0139957D01*
X0112846Y0140722D01*
X0112846Y0146923D01*
X0112737Y0147033D01*
X0112740Y0147036D01*
X0112937Y0147378D01*
X0113039Y0147759D01*
X0113039Y0150016D01*
X0113039Y0149280D02*
X0145496Y0149280D01*
X0146073Y0148281D02*
X0113039Y0148281D01*
X0112882Y0147283D02*
X0145719Y0147283D01*
X0144915Y0146284D02*
X0112846Y0146284D01*
X0112846Y0145286D02*
X0144672Y0145286D01*
X0143787Y0144287D02*
X0112846Y0144287D01*
X0112846Y0143289D02*
X0135181Y0143289D01*
X0135142Y0143221D02*
X0135039Y0142839D01*
X0135039Y0140976D01*
X0138795Y0140976D01*
X0138795Y0139976D01*
X0139795Y0139976D01*
X0139795Y0136811D01*
X0142249Y0136811D01*
X0142630Y0136913D01*
X0142972Y0137111D01*
X0143251Y0137390D01*
X0143449Y0137732D01*
X0143551Y0138114D01*
X0143551Y0139976D01*
X0139795Y0139976D01*
X0139795Y0140976D01*
X0143551Y0140976D01*
X0143551Y0142839D01*
X0143449Y0143221D01*
X0143251Y0143563D01*
X0142972Y0143842D01*
X0142630Y0144039D01*
X0142249Y0144142D01*
X0139795Y0144142D01*
X0139795Y0140976D01*
X0138795Y0140976D01*
X0138795Y0144142D01*
X0136342Y0144142D01*
X0135960Y0144039D01*
X0135618Y0143842D01*
X0135339Y0143563D01*
X0135142Y0143221D01*
X0135039Y0142290D02*
X0112846Y0142290D01*
X0112846Y0141292D02*
X0135039Y0141292D01*
X0134965Y0140476D02*
X0139295Y0140476D01*
X0138795Y0140293D02*
X0112417Y0140293D01*
X0110801Y0139295D02*
X0135039Y0139295D01*
X0135039Y0139976D02*
X0135039Y0138114D01*
X0135142Y0137732D01*
X0135339Y0137390D01*
X0135618Y0137111D01*
X0135960Y0136913D01*
X0136342Y0136811D01*
X0138795Y0136811D01*
X0138795Y0139976D01*
X0135039Y0139976D01*
X0135039Y0138296D02*
X0111084Y0138296D01*
X0110952Y0137298D02*
X0135432Y0137298D01*
X0138795Y0137298D02*
X0139795Y0137298D01*
X0139795Y0138296D02*
X0138795Y0138296D01*
X0138795Y0139295D02*
X0139795Y0139295D01*
X0139795Y0140293D02*
X0143787Y0140293D01*
X0143787Y0141292D02*
X0143551Y0141292D01*
X0143551Y0142290D02*
X0143787Y0142290D01*
X0143787Y0143289D02*
X0143410Y0143289D01*
X0145594Y0143626D02*
X0145594Y0140476D01*
X0146776Y0139295D01*
X0150319Y0139295D01*
X0147544Y0135301D02*
X0143358Y0135301D01*
X0143358Y0134302D02*
X0151268Y0134302D01*
X0153075Y0134571D02*
X0153075Y0132996D01*
X0150319Y0130240D01*
X0149531Y0130240D01*
X0148736Y0129445D01*
X0148736Y0126964D01*
X0150636Y0126964D02*
X0156491Y0126964D01*
X0158193Y0128665D01*
X0156224Y0131815D02*
X0154650Y0130240D01*
X0156224Y0131815D02*
X0156224Y0134571D01*
X0155437Y0135358D01*
X0153862Y0135358D01*
X0153075Y0134571D01*
X0158193Y0139295D02*
X0162524Y0139295D01*
X0163311Y0138508D01*
X0163311Y0134571D01*
X0162524Y0133783D01*
X0160949Y0133783D01*
X0154724Y0125157D02*
X0152797Y0125157D01*
X0152834Y0125093D01*
X0152936Y0124711D01*
X0152936Y0121764D01*
X0147236Y0121764D01*
X0147236Y0120764D01*
X0152936Y0120764D01*
X0152936Y0117816D01*
X0152834Y0117435D01*
X0152797Y0117371D01*
X0154917Y0117371D01*
X0154917Y0118971D01*
X0155027Y0119080D01*
X0155024Y0119083D01*
X0154827Y0119425D01*
X0154724Y0119806D01*
X0154724Y0122063D01*
X0158677Y0122063D01*
X0158677Y0123063D01*
X0154724Y0123063D01*
X0154724Y0125157D01*
X0154724Y0124317D02*
X0152936Y0124317D01*
X0152936Y0123318D02*
X0154724Y0123318D01*
X0154724Y0121321D02*
X0147236Y0121321D01*
X0152936Y0120323D02*
X0154724Y0120323D01*
X0154885Y0119324D02*
X0152936Y0119324D01*
X0152936Y0118326D02*
X0154917Y0118326D01*
X0152936Y0122320D02*
X0158677Y0122320D01*
X0159677Y0122320D02*
X0163472Y0122320D01*
X0163472Y0122063D02*
X0159677Y0122063D01*
X0159677Y0123063D01*
X0163472Y0123063D01*
X0163472Y0122063D01*
X0163470Y0119324D02*
X0163472Y0119324D01*
X0163437Y0118326D02*
X0163472Y0118326D01*
X0163437Y0117327D02*
X0163472Y0117327D01*
X0163437Y0116329D02*
X0163472Y0116329D01*
X0163437Y0115330D02*
X0163472Y0115330D01*
X0163437Y0114332D02*
X0163472Y0114332D01*
X0163437Y0113333D02*
X0163472Y0113333D01*
X0163472Y0112335D02*
X0163002Y0112335D01*
X0163472Y0111336D02*
X0162148Y0111336D01*
X0162265Y0110338D02*
X0163472Y0110338D01*
X0163472Y0109339D02*
X0161967Y0109339D01*
X0160948Y0108341D02*
X0163472Y0108341D01*
X0163472Y0107342D02*
X0155632Y0107342D01*
X0155632Y0106344D02*
X0163472Y0106344D01*
X0163472Y0105345D02*
X0155632Y0105345D01*
X0155632Y0104347D02*
X0163472Y0104347D01*
X0163472Y0103348D02*
X0155632Y0103348D01*
X0155632Y0102350D02*
X0163472Y0102350D01*
X0163472Y0101351D02*
X0155632Y0101351D01*
X0155632Y0100353D02*
X0163472Y0100353D01*
X0163472Y0099354D02*
X0155732Y0099354D01*
X0155732Y0098356D02*
X0163472Y0098356D01*
X0163472Y0097357D02*
X0155732Y0097357D01*
X0155732Y0096359D02*
X0163472Y0096359D01*
X0163472Y0095360D02*
X0156125Y0095360D01*
X0156125Y0094362D02*
X0163472Y0094362D01*
X0163472Y0093363D02*
X0156125Y0093363D01*
X0153825Y0097751D02*
X0153825Y0110124D01*
X0153862Y0110161D01*
X0155632Y0108341D02*
X0158587Y0108341D01*
X0159768Y0110555D02*
X0157012Y0110555D01*
X0154256Y0113311D01*
X0152681Y0113311D01*
X0150713Y0111343D01*
X0148744Y0111343D01*
X0148736Y0111350D01*
X0148736Y0115564D01*
X0148736Y0106823D01*
X0148941Y0106618D01*
X0145988Y0101106D02*
X0146025Y0101069D01*
X0146025Y0097751D01*
X0147925Y0097751D02*
X0149925Y0097751D01*
X0147932Y0097751D01*
X0147932Y0097751D01*
X0149925Y0097751D01*
X0149925Y0097751D01*
X0151925Y0097751D01*
X0151918Y0097751D02*
X0150025Y0097751D01*
X0149925Y0097751D01*
X0149925Y0092051D01*
X0149425Y0092365D02*
X0121065Y0092365D01*
X0120236Y0093363D02*
X0143725Y0093363D01*
X0143725Y0094362D02*
X0120236Y0094362D01*
X0120236Y0095360D02*
X0143725Y0095360D01*
X0144118Y0096359D02*
X0120236Y0096359D01*
X0120236Y0097357D02*
X0144118Y0097357D01*
X0144118Y0098356D02*
X0120236Y0098356D01*
X0120236Y0099354D02*
X0144118Y0099354D01*
X0143597Y0100353D02*
X0137349Y0100353D01*
X0137837Y0101351D02*
X0143491Y0101351D01*
X0142748Y0102350D02*
X0141748Y0102350D01*
X0141748Y0102165D02*
X0141748Y0106118D01*
X0138189Y0106118D01*
X0138189Y0103468D01*
X0138291Y0103086D01*
X0138489Y0102744D01*
X0138768Y0102465D01*
X0139110Y0102268D01*
X0139491Y0102165D01*
X0141748Y0102165D01*
X0141748Y0103348D02*
X0142748Y0103348D01*
X0142748Y0104347D02*
X0141748Y0104347D01*
X0141748Y0105345D02*
X0142748Y0105345D01*
X0138968Y0102350D02*
X0137856Y0102350D01*
X0138221Y0103348D02*
X0137436Y0103348D01*
X0137165Y0104347D02*
X0138189Y0104347D01*
X0138189Y0105345D02*
X0137165Y0105345D01*
X0133551Y0105345D02*
X0120236Y0105345D01*
X0120236Y0104347D02*
X0133551Y0104347D01*
X0133281Y0103348D02*
X0120236Y0103348D01*
X0120236Y0102350D02*
X0132861Y0102350D01*
X0132880Y0101351D02*
X0120236Y0101351D01*
X0120236Y0100353D02*
X0133367Y0100353D01*
X0135358Y0101894D02*
X0135358Y0109768D01*
X0135752Y0112130D02*
X0144807Y0112130D01*
X0144736Y0112201D01*
X0144736Y0115564D01*
X0142836Y0115564D02*
X0139798Y0115564D01*
X0138508Y0116854D01*
X0131815Y0109374D02*
X0125516Y0109374D01*
X0127016Y0107342D02*
X0130315Y0107342D01*
X0133315Y0107342D02*
X0133551Y0107342D01*
X0133551Y0106344D02*
X0120710Y0106344D01*
X0121709Y0107342D02*
X0124015Y0107342D01*
X0123240Y0108341D02*
X0122707Y0108341D01*
X0122366Y0110555D02*
X0118429Y0106618D01*
X0118429Y0092445D01*
X0122064Y0091366D02*
X0143725Y0091366D01*
X0143626Y0092051D02*
X0139689Y0092051D01*
X0138114Y0090476D01*
X0138114Y0082996D01*
X0140083Y0081028D01*
X0141782Y0078385D02*
X0133622Y0078385D01*
X0133622Y0077387D02*
X0141208Y0077387D01*
X0141128Y0076388D02*
X0133622Y0076388D01*
X0133622Y0075390D02*
X0141464Y0075390D01*
X0139402Y0074391D02*
X0138402Y0074391D01*
X0138402Y0073393D02*
X0139402Y0073393D01*
X0139402Y0072394D02*
X0138402Y0072394D01*
X0135093Y0074391D02*
X0133622Y0074391D01*
X0133035Y0073393D02*
X0134460Y0073393D01*
X0134449Y0072394D02*
X0132835Y0072394D01*
X0132835Y0071396D02*
X0134449Y0071396D01*
X0131815Y0074728D02*
X0131815Y0080240D01*
X0131815Y0074728D02*
X0131028Y0073941D01*
X0131028Y0066067D01*
X0131815Y0065280D01*
X0131815Y0050319D01*
X0131067Y0049571D01*
X0126343Y0049571D01*
X0126303Y0049531D01*
X0123971Y0050427D02*
X0122463Y0050427D01*
X0122895Y0051426D02*
X0124665Y0051426D01*
X0122881Y0052424D02*
X0130008Y0052424D01*
X0130008Y0051426D02*
X0127941Y0051426D01*
X0130008Y0053423D02*
X0122401Y0053423D01*
X0121937Y0054421D02*
X0130008Y0054421D01*
X0130008Y0055420D02*
X0122936Y0055420D01*
X0123934Y0056418D02*
X0130008Y0056418D01*
X0130008Y0057417D02*
X0124933Y0057417D01*
X0125931Y0058415D02*
X0130008Y0058415D01*
X0130008Y0059414D02*
X0126930Y0059414D01*
X0127928Y0060412D02*
X0130008Y0060412D01*
X0130008Y0061411D02*
X0128927Y0061411D01*
X0129925Y0062409D02*
X0130008Y0062409D01*
X0133622Y0062409D02*
X0134642Y0062409D01*
X0134642Y0061411D02*
X0133622Y0061411D01*
X0133622Y0060412D02*
X0135031Y0060412D01*
X0133622Y0059414D02*
X0138669Y0059414D01*
X0139667Y0058415D02*
X0133622Y0058415D01*
X0133622Y0057417D02*
X0140666Y0057417D01*
X0140938Y0056418D02*
X0133622Y0056418D01*
X0133622Y0055420D02*
X0141686Y0055420D01*
X0142598Y0053423D02*
X0140560Y0053423D01*
X0141114Y0052424D02*
X0142043Y0052424D01*
X0142043Y0051426D02*
X0141114Y0051426D01*
X0141114Y0050427D02*
X0142043Y0050427D01*
X0142043Y0049429D02*
X0141114Y0049429D01*
X0141114Y0048430D02*
X0142043Y0048430D01*
X0142043Y0047432D02*
X0141114Y0047432D01*
X0141114Y0046433D02*
X0142043Y0046433D01*
X0141982Y0044436D02*
X0141332Y0044436D01*
X0141332Y0043437D02*
X0141982Y0043437D01*
X0141982Y0042439D02*
X0141332Y0042439D01*
X0141332Y0041440D02*
X0141982Y0041440D01*
X0141982Y0040442D02*
X0141332Y0040442D01*
X0141332Y0039443D02*
X0141982Y0039443D01*
X0145658Y0038508D02*
X0148457Y0038508D01*
X0145658Y0038508D01*
X0145658Y0038508D01*
X0145657Y0036508D02*
X0151531Y0036508D01*
X0154256Y0033783D01*
X0155280Y0030870D02*
X0159768Y0030870D01*
X0163277Y0033452D02*
X0163472Y0033452D01*
X0156110Y0038445D02*
X0148457Y0038445D01*
X0148744Y0040476D02*
X0145689Y0040476D01*
X0145657Y0040508D01*
X0145657Y0042408D02*
X0147132Y0042408D01*
X0149531Y0044807D01*
X0147603Y0045434D02*
X0125082Y0045434D01*
X0126080Y0044436D02*
X0139135Y0044436D01*
X0137657Y0042408D02*
X0137657Y0040508D01*
X0135050Y0040442D02*
X0129685Y0040442D01*
X0129685Y0039443D02*
X0135050Y0039443D01*
X0135050Y0038445D02*
X0129685Y0038445D01*
X0129685Y0037446D02*
X0135050Y0037446D01*
X0135050Y0036448D02*
X0129685Y0036448D01*
X0129685Y0035449D02*
X0133681Y0035449D01*
X0132683Y0034451D02*
X0129685Y0034451D01*
X0129685Y0033452D02*
X0131976Y0033452D01*
X0131976Y0032454D02*
X0129685Y0032454D01*
X0129685Y0031455D02*
X0131976Y0031455D01*
X0131976Y0030457D02*
X0129685Y0030457D01*
X0129685Y0029458D02*
X0131976Y0029458D01*
X0131976Y0028460D02*
X0129685Y0028460D01*
X0129685Y0027461D02*
X0131976Y0027461D01*
X0131976Y0026463D02*
X0129685Y0026463D01*
X0129685Y0025464D02*
X0131976Y0025464D01*
X0131976Y0024466D02*
X0129685Y0024466D01*
X0129685Y0023467D02*
X0132489Y0023467D01*
X0133487Y0022469D02*
X0129685Y0022469D01*
X0129685Y0021470D02*
X0134486Y0021470D01*
X0135358Y0023154D02*
X0133783Y0024728D01*
X0133783Y0032996D01*
X0135358Y0034571D01*
X0137620Y0034571D01*
X0137657Y0034608D01*
X0139353Y0032454D02*
X0135797Y0032454D01*
X0135591Y0031455D02*
X0148878Y0031455D01*
X0148609Y0032454D02*
X0143962Y0032454D01*
X0145657Y0034608D02*
X0149101Y0034608D01*
X0151106Y0032602D01*
X0149759Y0030457D02*
X0135591Y0030457D01*
X0135591Y0029458D02*
X0151312Y0029458D01*
X0150314Y0028460D02*
X0135591Y0028460D01*
X0135591Y0027461D02*
X0149315Y0027461D01*
X0148317Y0026463D02*
X0135591Y0026463D01*
X0135603Y0025464D02*
X0147318Y0025464D01*
X0147563Y0023154D02*
X0155280Y0030870D01*
X0152340Y0039443D02*
X0151243Y0039443D01*
X0149531Y0041264D02*
X0148744Y0040476D01*
X0145694Y0042445D02*
X0145657Y0042408D01*
X0146605Y0044436D02*
X0144180Y0044436D01*
X0145516Y0049571D02*
X0147563Y0051618D01*
X0147563Y0051894D01*
X0151925Y0056256D01*
X0151925Y0061154D01*
X0153825Y0061154D02*
X0153825Y0060986D01*
X0155043Y0059768D01*
X0155043Y0057406D01*
X0156850Y0059414D02*
X0163472Y0059414D01*
X0163472Y0060412D02*
X0156850Y0060412D01*
X0155956Y0061411D02*
X0163472Y0061411D01*
X0163472Y0062409D02*
X0155732Y0062409D01*
X0156125Y0063408D02*
X0163472Y0063408D01*
X0163472Y0064406D02*
X0156125Y0064406D01*
X0156125Y0065405D02*
X0163472Y0065405D01*
X0163472Y0066403D02*
X0150425Y0066403D01*
X0149925Y0066854D02*
X0149925Y0072554D01*
X0147932Y0072554D01*
X0147932Y0072554D01*
X0149925Y0072554D01*
X0149925Y0072554D01*
X0149925Y0074335D01*
X0147957Y0076303D01*
X0147925Y0075654D02*
X0147925Y0074725D01*
X0147925Y0074725D01*
X0147925Y0075654D01*
X0147925Y0075390D02*
X0147925Y0075390D01*
X0146025Y0074298D02*
X0146025Y0072554D01*
X0146025Y0074298D02*
X0143626Y0076697D01*
X0143343Y0073393D02*
X0144118Y0073393D01*
X0144118Y0072394D02*
X0143354Y0072394D01*
X0143354Y0071396D02*
X0144118Y0071396D01*
X0147925Y0072554D02*
X0149925Y0072554D01*
X0151925Y0072554D01*
X0151918Y0072554D02*
X0150025Y0072554D01*
X0149925Y0072554D01*
X0149925Y0072554D01*
X0151918Y0072554D01*
X0151918Y0072554D01*
X0153825Y0072554D02*
X0153825Y0073510D01*
X0157012Y0076697D01*
X0157012Y0083783D01*
X0157012Y0085358D01*
X0155831Y0086539D01*
X0154013Y0086539D01*
X0153825Y0086351D01*
X0151925Y0086351D02*
X0151925Y0076335D01*
X0151894Y0076303D01*
X0143232Y0083783D02*
X0143232Y0085358D01*
X0144225Y0086351D01*
X0146025Y0086351D01*
X0143788Y0088370D02*
X0123780Y0088370D01*
X0123780Y0089369D02*
X0143725Y0089369D01*
X0143725Y0090368D02*
X0123062Y0090368D01*
X0115047Y0088370D02*
X0114737Y0088370D01*
X0114098Y0081028D02*
X0113942Y0080871D01*
X0113942Y0072348D01*
X0117642Y0072348D02*
X0117642Y0076303D01*
X0121342Y0072348D02*
X0121342Y0067208D01*
X0121185Y0067051D01*
X0112130Y0067051D01*
X0110752Y0065673D01*
X0110752Y0057209D01*
X0116264Y0051697D01*
X0116461Y0051894D01*
X0120398Y0051894D01*
X0121088Y0049429D02*
X0123806Y0049429D01*
X0124056Y0048430D02*
X0122086Y0048430D01*
X0123085Y0047432D02*
X0124871Y0047432D01*
X0124083Y0046433D02*
X0134169Y0046433D01*
X0134169Y0047432D02*
X0127735Y0047432D01*
X0131067Y0049571D02*
X0137642Y0049571D01*
X0134169Y0051426D02*
X0133622Y0051426D01*
X0133622Y0052424D02*
X0134169Y0052424D01*
X0133622Y0053423D02*
X0134724Y0053423D01*
X0133622Y0054421D02*
X0147535Y0054421D01*
X0148533Y0055420D02*
X0144779Y0055420D01*
X0145527Y0056418D02*
X0149532Y0056418D01*
X0150118Y0057417D02*
X0145730Y0057417D01*
X0143232Y0057406D02*
X0138902Y0061736D01*
X0138902Y0063902D01*
X0143161Y0063408D02*
X0143725Y0063408D01*
X0143725Y0064406D02*
X0143161Y0064406D01*
X0143161Y0065405D02*
X0143725Y0065405D01*
X0144118Y0062409D02*
X0143161Y0062409D01*
X0143161Y0061411D02*
X0143664Y0061411D01*
X0146025Y0061154D02*
X0143232Y0058519D01*
X0143232Y0057406D01*
X0149650Y0051426D02*
X0149862Y0051426D01*
X0150649Y0052424D02*
X0155541Y0052424D01*
X0155300Y0051426D02*
X0153138Y0051426D01*
X0151647Y0053423D02*
X0156060Y0053423D01*
X0156999Y0054421D02*
X0152646Y0054421D01*
X0156590Y0055420D02*
X0163472Y0055420D01*
X0163472Y0056418D02*
X0157338Y0056418D01*
X0157541Y0057417D02*
X0163472Y0057417D01*
X0163472Y0058415D02*
X0157329Y0058415D01*
X0159268Y0054421D02*
X0160268Y0054421D01*
X0160268Y0053423D02*
X0159268Y0053423D01*
X0159268Y0052424D02*
X0160268Y0052424D01*
X0160268Y0051426D02*
X0159268Y0051426D01*
X0159268Y0049429D02*
X0160268Y0049429D01*
X0160268Y0048430D02*
X0159268Y0048430D01*
X0159268Y0047432D02*
X0160268Y0047432D01*
X0160268Y0046433D02*
X0159268Y0046433D01*
X0159016Y0046433D02*
X0153307Y0046433D01*
X0152715Y0045434D02*
X0163472Y0045434D01*
X0163472Y0044436D02*
X0162293Y0044436D01*
X0163291Y0043437D02*
X0163472Y0043437D01*
X0163472Y0046433D02*
X0160519Y0046433D01*
X0162691Y0047432D02*
X0163472Y0047432D01*
X0157242Y0044436D02*
X0152458Y0044436D01*
X0153457Y0043437D02*
X0156244Y0043437D01*
X0162536Y0054421D02*
X0163472Y0054421D01*
X0134642Y0063408D02*
X0133622Y0063408D01*
X0133622Y0064406D02*
X0134642Y0064406D01*
X0134642Y0065405D02*
X0133622Y0065405D01*
X0133247Y0066403D02*
X0134642Y0066403D01*
X0116264Y0051697D02*
X0127878Y0040083D01*
X0127878Y0018035D01*
X0130437Y0015476D01*
X0132935Y0015479D02*
X0137882Y0015479D01*
X0137882Y0014481D02*
X0132728Y0014481D01*
X0131975Y0013482D02*
X0137882Y0013482D01*
X0137882Y0012484D02*
X0127323Y0012484D01*
X0127323Y0013482D02*
X0128899Y0013482D01*
X0128146Y0014481D02*
X0127323Y0014481D01*
X0127323Y0015479D02*
X0127879Y0015479D01*
X0129994Y0018475D02*
X0137882Y0018475D01*
X0137882Y0019473D02*
X0129685Y0019473D01*
X0129685Y0020472D02*
X0137995Y0020472D01*
X0139689Y0019610D02*
X0143232Y0023154D01*
X0147563Y0023154D01*
X0143232Y0023154D02*
X0135358Y0023154D01*
X0139689Y0019610D02*
X0139689Y0007406D01*
X0137002Y0010487D02*
X0134502Y0010487D01*
X0135367Y0009488D02*
X0136137Y0009488D01*
X0137882Y0011485D02*
X0127323Y0011485D01*
X0127323Y0010487D02*
X0129128Y0010487D01*
X0128263Y0009488D02*
X0127323Y0009488D01*
X0125909Y0007406D02*
X0125516Y0007012D01*
X0122169Y0003665D01*
X0101303Y0003665D01*
X0099531Y0005437D01*
X0099531Y0027091D01*
X0099531Y0020299D01*
X0099335Y0020102D01*
X0099531Y0020299D02*
X0097169Y0020299D01*
X0094807Y0020299D01*
X0092445Y0020299D01*
X0090083Y0020299D02*
X0090083Y0020299D01*
X0087720Y0020299D01*
X0085531Y0020299D01*
X0085358Y0020299D01*
X0083169Y0020299D01*
X0082996Y0020299D01*
X0082996Y0020299D01*
X0082996Y0013976D01*
X0082441Y0013976D01*
X0082441Y0010705D01*
X0082751Y0010395D01*
X0083131Y0009477D01*
X0083131Y0008483D01*
X0082751Y0007566D01*
X0082049Y0006863D01*
X0081131Y0006483D01*
X0080137Y0006483D01*
X0079219Y0006863D01*
X0078516Y0007566D01*
X0078272Y0008157D01*
X0078027Y0007566D01*
X0077324Y0006863D01*
X0076406Y0006483D01*
X0075413Y0006483D01*
X0074495Y0006863D01*
X0073792Y0007566D01*
X0073547Y0008157D01*
X0073302Y0007566D01*
X0072600Y0006863D01*
X0071682Y0006483D01*
X0070688Y0006483D01*
X0069770Y0006863D01*
X0069068Y0007566D01*
X0068823Y0008157D01*
X0068578Y0007566D01*
X0067875Y0006863D01*
X0066957Y0006483D01*
X0065964Y0006483D01*
X0065046Y0006863D01*
X0064343Y0007566D01*
X0064098Y0008157D01*
X0063854Y0007566D01*
X0063151Y0006863D01*
X0062233Y0006483D01*
X0061239Y0006483D01*
X0060321Y0006863D01*
X0059619Y0007566D01*
X0059374Y0008157D01*
X0059129Y0007566D01*
X0058427Y0006863D01*
X0057509Y0006483D01*
X0056515Y0006483D01*
X0055597Y0006863D01*
X0054894Y0007566D01*
X0054650Y0008157D01*
X0054405Y0007566D01*
X0053702Y0006863D01*
X0052784Y0006483D01*
X0051791Y0006483D01*
X0050873Y0006863D01*
X0050170Y0007566D01*
X0049790Y0008483D01*
X0049790Y0009477D01*
X0049854Y0009632D01*
X0049419Y0009632D01*
X0048501Y0010013D01*
X0047799Y0010715D01*
X0047419Y0011633D01*
X0047419Y0012627D01*
X0047799Y0013545D01*
X0048109Y0013855D01*
X0048109Y0014755D01*
X0047929Y0014935D01*
X0047929Y0025663D01*
X0048695Y0026429D01*
X0081571Y0026429D01*
X0081728Y0026520D01*
X0082110Y0026622D01*
X0082996Y0026622D01*
X0082996Y0020299D01*
X0082996Y0013976D01*
X0083883Y0013976D01*
X0084177Y0014055D01*
X0084472Y0013976D01*
X0085358Y0013976D01*
X0085358Y0020299D01*
X0085358Y0020299D01*
X0085358Y0020299D01*
X0082996Y0020299D01*
X0082996Y0012130D01*
X0082441Y0012484D02*
X0097724Y0012484D01*
X0097724Y0013482D02*
X0082441Y0013482D01*
X0082996Y0014481D02*
X0082996Y0014481D01*
X0082996Y0015479D02*
X0082996Y0015479D01*
X0082996Y0016478D02*
X0082996Y0016478D01*
X0082996Y0017476D02*
X0082996Y0017476D01*
X0082996Y0018475D02*
X0082996Y0018475D01*
X0082996Y0019473D02*
X0082996Y0019473D01*
X0082996Y0020299D02*
X0082996Y0020299D01*
X0085358Y0020299D01*
X0085358Y0013976D01*
X0086245Y0013976D01*
X0086539Y0014055D01*
X0086834Y0013976D01*
X0087720Y0013976D01*
X0087720Y0020299D01*
X0087720Y0020299D01*
X0087721Y0020299D01*
X0087721Y0020299D01*
X0087894Y0020299D01*
X0090083Y0020299D01*
X0090083Y0013976D01*
X0089196Y0013976D01*
X0088902Y0014055D01*
X0088607Y0013976D01*
X0087721Y0013976D01*
X0087721Y0020299D01*
X0090083Y0020299D01*
X0090083Y0020299D01*
X0090083Y0020299D01*
X0090083Y0026622D01*
X0089196Y0026622D01*
X0088902Y0026543D01*
X0088607Y0026622D01*
X0087721Y0026622D01*
X0087721Y0020299D01*
X0087720Y0020299D02*
X0085358Y0020299D01*
X0085358Y0026622D01*
X0084472Y0026622D01*
X0084177Y0026543D01*
X0083883Y0026622D01*
X0082996Y0026622D01*
X0082996Y0020299D01*
X0082996Y0020299D01*
X0082996Y0020472D02*
X0082996Y0020472D01*
X0082996Y0021470D02*
X0082996Y0021470D01*
X0082996Y0022469D02*
X0082996Y0022469D01*
X0082996Y0023467D02*
X0082996Y0023467D01*
X0082996Y0024466D02*
X0082996Y0024466D01*
X0082996Y0025464D02*
X0082996Y0025464D01*
X0082996Y0026463D02*
X0082996Y0026463D01*
X0081629Y0026463D02*
X0004882Y0026463D01*
X0004882Y0027461D02*
X0097034Y0027461D01*
X0097088Y0026463D02*
X0091449Y0026463D01*
X0090083Y0026463D02*
X0090083Y0026463D01*
X0090083Y0025464D02*
X0090083Y0025464D01*
X0090083Y0024466D02*
X0090083Y0024466D01*
X0090083Y0023467D02*
X0090083Y0023467D01*
X0090083Y0022469D02*
X0090083Y0022469D01*
X0090083Y0021470D02*
X0090083Y0021470D01*
X0090083Y0020472D02*
X0090083Y0020472D01*
X0090083Y0019473D02*
X0090083Y0019473D01*
X0090083Y0018475D02*
X0090083Y0018475D01*
X0090083Y0017476D02*
X0090083Y0017476D01*
X0090083Y0016478D02*
X0090083Y0016478D01*
X0090083Y0015479D02*
X0090083Y0015479D01*
X0090083Y0014481D02*
X0090083Y0014481D01*
X0087721Y0014481D02*
X0087720Y0014481D01*
X0087720Y0015479D02*
X0087721Y0015479D01*
X0087720Y0016478D02*
X0087721Y0016478D01*
X0087720Y0017476D02*
X0087721Y0017476D01*
X0087720Y0018475D02*
X0087721Y0018475D01*
X0087720Y0019473D02*
X0087721Y0019473D01*
X0087720Y0020299D02*
X0085358Y0020299D01*
X0085358Y0020299D01*
X0085358Y0020299D01*
X0085358Y0026622D01*
X0086245Y0026622D01*
X0086539Y0026543D01*
X0086834Y0026622D01*
X0087720Y0026622D01*
X0087720Y0020299D01*
X0087721Y0020299D01*
X0087720Y0020472D02*
X0087721Y0020472D01*
X0087720Y0021470D02*
X0087721Y0021470D01*
X0087720Y0022469D02*
X0087721Y0022469D01*
X0087720Y0023467D02*
X0087721Y0023467D01*
X0087720Y0024466D02*
X0087721Y0024466D01*
X0087720Y0025464D02*
X0087721Y0025464D01*
X0087720Y0026463D02*
X0087721Y0026463D01*
X0085358Y0026463D02*
X0085358Y0026463D01*
X0085358Y0025464D02*
X0085358Y0025464D01*
X0085358Y0024466D02*
X0085358Y0024466D01*
X0085358Y0023467D02*
X0085358Y0023467D01*
X0085358Y0022469D02*
X0085358Y0022469D01*
X0085358Y0021470D02*
X0085358Y0021470D01*
X0085358Y0020472D02*
X0085358Y0020472D01*
X0085358Y0019473D02*
X0085358Y0019473D01*
X0085358Y0018475D02*
X0085358Y0018475D01*
X0085358Y0017476D02*
X0085358Y0017476D01*
X0085358Y0016478D02*
X0085358Y0016478D01*
X0085358Y0015479D02*
X0085358Y0015479D01*
X0085358Y0014481D02*
X0085358Y0014481D01*
X0082441Y0011485D02*
X0097724Y0011485D01*
X0097724Y0010487D02*
X0082660Y0010487D01*
X0083127Y0009488D02*
X0097724Y0009488D01*
X0097724Y0008490D02*
X0083131Y0008490D01*
X0082677Y0007491D02*
X0097724Y0007491D01*
X0097724Y0006493D02*
X0081155Y0006493D01*
X0080113Y0006493D02*
X0076430Y0006493D01*
X0075389Y0006493D02*
X0071706Y0006493D01*
X0070664Y0006493D02*
X0066981Y0006493D01*
X0065940Y0006493D02*
X0062257Y0006493D01*
X0061216Y0006493D02*
X0057532Y0006493D01*
X0056491Y0006493D02*
X0052808Y0006493D01*
X0051767Y0006493D02*
X0022249Y0006493D01*
X0022825Y0007491D02*
X0050244Y0007491D01*
X0049790Y0008490D02*
X0023402Y0008490D01*
X0023830Y0009488D02*
X0049794Y0009488D01*
X0048027Y0010487D02*
X0024097Y0010487D01*
X0024365Y0011485D02*
X0047480Y0011485D01*
X0047419Y0012484D02*
X0024461Y0012484D01*
X0024461Y0013482D02*
X0047773Y0013482D01*
X0048109Y0014481D02*
X0024461Y0014481D01*
X0024273Y0015479D02*
X0047929Y0015479D01*
X0047929Y0016478D02*
X0024005Y0016478D01*
X0023738Y0017476D02*
X0047929Y0017476D01*
X0047929Y0018475D02*
X0023204Y0018475D01*
X0022628Y0019473D02*
X0047929Y0019473D01*
X0047929Y0020472D02*
X0021918Y0020472D01*
X0020920Y0021470D02*
X0047929Y0021470D01*
X0047929Y0022469D02*
X0019749Y0022469D01*
X0018019Y0023467D02*
X0047929Y0023467D01*
X0047929Y0024466D02*
X0004882Y0024466D01*
X0004882Y0025464D02*
X0047929Y0025464D01*
X0049916Y0020299D02*
X0049916Y0012130D01*
X0052287Y0008980D02*
X0052287Y0020299D01*
X0049925Y0020299D02*
X0049916Y0020299D01*
X0054650Y0020299D02*
X0054650Y0012130D01*
X0057012Y0008980D02*
X0057012Y0020299D01*
X0059374Y0020299D02*
X0059374Y0012130D01*
X0061736Y0008980D02*
X0061736Y0020299D01*
X0064098Y0020299D02*
X0064098Y0012130D01*
X0066461Y0008980D02*
X0066461Y0020299D01*
X0068823Y0020299D02*
X0068823Y0012130D01*
X0071185Y0008980D02*
X0071185Y0020299D01*
X0073547Y0020299D02*
X0073547Y0012130D01*
X0075909Y0008980D02*
X0075909Y0020299D01*
X0078272Y0020299D02*
X0078272Y0012130D01*
X0080634Y0008980D02*
X0080634Y0020299D01*
X0082110Y0031496D02*
X0082996Y0031496D01*
X0082996Y0037819D01*
X0082996Y0044142D01*
X0082110Y0044142D01*
X0081728Y0044039D01*
X0081571Y0043949D01*
X0080079Y0043949D01*
X0080079Y0044263D01*
X0080389Y0044573D01*
X0080769Y0045491D01*
X0080769Y0046485D01*
X0080389Y0047403D01*
X0079686Y0048106D01*
X0078768Y0048486D01*
X0077775Y0048486D01*
X0076857Y0048106D01*
X0076154Y0047403D01*
X0075774Y0046485D01*
X0075774Y0045491D01*
X0076154Y0044573D01*
X0076465Y0044263D01*
X0076465Y0044142D01*
X0075909Y0044142D01*
X0075023Y0044142D01*
X0074728Y0044063D01*
X0074434Y0044142D01*
X0073547Y0044142D01*
X0072992Y0044142D01*
X0072992Y0047413D01*
X0073302Y0047723D01*
X0073683Y0048641D01*
X0073683Y0049635D01*
X0073302Y0050553D01*
X0072600Y0051255D01*
X0071682Y0051635D01*
X0070688Y0051635D01*
X0069770Y0051255D01*
X0069068Y0050553D01*
X0068687Y0049635D01*
X0068687Y0048641D01*
X0069068Y0047723D01*
X0069378Y0047413D01*
X0069378Y0043949D01*
X0067886Y0043949D01*
X0067729Y0044039D01*
X0067347Y0044142D01*
X0066461Y0044142D01*
X0066461Y0037819D01*
X0066461Y0037819D01*
X0066461Y0049138D01*
X0068687Y0049429D02*
X0064234Y0049429D01*
X0064146Y0048430D02*
X0068775Y0048430D01*
X0069359Y0047432D02*
X0063562Y0047432D01*
X0063543Y0046433D02*
X0069378Y0046433D01*
X0069378Y0045434D02*
X0063543Y0045434D01*
X0063543Y0044436D02*
X0069378Y0044436D01*
X0066461Y0044142D02*
X0065574Y0044142D01*
X0065280Y0044063D01*
X0064985Y0044142D01*
X0064098Y0044142D01*
X0064098Y0037819D01*
X0064098Y0037819D01*
X0064098Y0037819D01*
X0066461Y0037819D01*
X0066461Y0031496D01*
X0067347Y0031496D01*
X0067729Y0031598D01*
X0067886Y0031689D01*
X0072122Y0031689D01*
X0072279Y0031598D01*
X0072661Y0031496D01*
X0073547Y0031496D01*
X0073547Y0037819D01*
X0073547Y0044142D01*
X0073547Y0037819D01*
X0073547Y0037819D01*
X0075909Y0037819D01*
X0075909Y0037819D01*
X0075736Y0037819D01*
X0073547Y0037819D01*
X0073547Y0045988D01*
X0072992Y0046433D02*
X0075774Y0046433D01*
X0075798Y0045434D02*
X0072992Y0045434D01*
X0072992Y0044436D02*
X0076292Y0044436D01*
X0075909Y0044142D02*
X0075909Y0037819D01*
X0073547Y0037819D01*
X0073547Y0037819D01*
X0073547Y0037819D01*
X0073547Y0031496D01*
X0074434Y0031496D01*
X0074728Y0031575D01*
X0075023Y0031496D01*
X0075909Y0031496D01*
X0075909Y0037819D01*
X0075909Y0044142D01*
X0075909Y0043437D02*
X0075909Y0043437D01*
X0075909Y0042439D02*
X0075909Y0042439D01*
X0075909Y0041440D02*
X0075909Y0041440D01*
X0075909Y0040442D02*
X0075909Y0040442D01*
X0075909Y0039443D02*
X0075909Y0039443D01*
X0075909Y0038445D02*
X0075909Y0038445D01*
X0075909Y0037819D02*
X0075909Y0037819D01*
X0075909Y0037819D01*
X0075909Y0049138D01*
X0076183Y0047432D02*
X0073011Y0047432D01*
X0073595Y0048430D02*
X0077640Y0048430D01*
X0078903Y0048430D02*
X0089451Y0048430D01*
X0089586Y0048486D02*
X0088668Y0048106D01*
X0087965Y0047403D01*
X0087585Y0046485D01*
X0087585Y0045491D01*
X0087965Y0044573D01*
X0088276Y0044263D01*
X0088276Y0043949D01*
X0086783Y0043949D01*
X0086626Y0044039D01*
X0086245Y0044142D01*
X0085358Y0044142D01*
X0084472Y0044142D01*
X0084177Y0044063D01*
X0083883Y0044142D01*
X0082996Y0044142D01*
X0082996Y0037819D01*
X0082996Y0037819D01*
X0082996Y0045988D01*
X0085358Y0044142D02*
X0085358Y0037819D01*
X0085358Y0037819D01*
X0085185Y0037819D01*
X0082996Y0037819D01*
X0085358Y0037819D01*
X0085358Y0037819D01*
X0082996Y0037819D01*
X0082996Y0037819D01*
X0082996Y0037819D01*
X0082996Y0031496D01*
X0083883Y0031496D01*
X0084177Y0031575D01*
X0084472Y0031496D01*
X0085358Y0031496D01*
X0085358Y0037819D01*
X0085358Y0037819D01*
X0085358Y0044142D01*
X0085358Y0043437D02*
X0085358Y0043437D01*
X0085358Y0042439D02*
X0085358Y0042439D01*
X0085358Y0041440D02*
X0085358Y0041440D01*
X0085358Y0040442D02*
X0085358Y0040442D01*
X0085358Y0039443D02*
X0085358Y0039443D01*
X0085358Y0038445D02*
X0085358Y0038445D01*
X0085358Y0037819D02*
X0085358Y0031496D01*
X0086245Y0031496D01*
X0086626Y0031598D01*
X0086783Y0031689D01*
X0091020Y0031689D01*
X0091177Y0031598D01*
X0091558Y0031496D01*
X0092445Y0031496D01*
X0093331Y0031496D01*
X0093626Y0031575D01*
X0093921Y0031496D01*
X0094807Y0031496D01*
X0094807Y0037819D01*
X0094807Y0044142D01*
X0093921Y0044142D01*
X0093626Y0044063D01*
X0093331Y0044142D01*
X0092445Y0044142D01*
X0092445Y0037819D01*
X0094634Y0037819D01*
X0094807Y0037819D01*
X0094807Y0037819D01*
X0094807Y0037819D01*
X0094807Y0031815D01*
X0097563Y0029059D01*
X0099138Y0029059D01*
X0101894Y0031815D01*
X0101894Y0037819D01*
X0101894Y0037819D01*
X0101894Y0048744D01*
X0100946Y0047712D02*
X0101649Y0047009D01*
X0102029Y0046091D01*
X0102029Y0045098D01*
X0101649Y0044180D01*
X0101611Y0044142D01*
X0101894Y0044142D01*
X0101894Y0037819D01*
X0101894Y0031496D01*
X0102780Y0031496D01*
X0103075Y0031575D01*
X0103369Y0031496D01*
X0104256Y0031496D01*
X0104256Y0037819D01*
X0104256Y0037819D01*
X0104256Y0037446D02*
X0104256Y0037446D01*
X0104256Y0036448D02*
X0104256Y0036448D01*
X0104256Y0035449D02*
X0104256Y0035449D01*
X0104256Y0034451D02*
X0104256Y0034451D01*
X0104256Y0033452D02*
X0104256Y0033452D01*
X0104256Y0032454D02*
X0104256Y0032454D01*
X0101894Y0032454D02*
X0101894Y0032454D01*
X0101894Y0031496D02*
X0101007Y0031496D01*
X0100626Y0031598D01*
X0100469Y0031689D01*
X0096232Y0031689D01*
X0096075Y0031598D01*
X0095694Y0031496D01*
X0094807Y0031496D01*
X0094807Y0037819D01*
X0094807Y0045988D01*
X0094807Y0044142D02*
X0094807Y0037819D01*
X0092445Y0037819D01*
X0092445Y0037819D01*
X0092445Y0037819D01*
X0092445Y0031815D01*
X0090083Y0029453D01*
X0092445Y0031496D02*
X0092445Y0037819D01*
X0094807Y0037819D01*
X0094807Y0037819D01*
X0094807Y0037446D02*
X0094807Y0037446D01*
X0094807Y0036448D02*
X0094807Y0036448D01*
X0094807Y0035449D02*
X0094807Y0035449D01*
X0094807Y0034451D02*
X0094807Y0034451D01*
X0094807Y0033452D02*
X0094807Y0033452D01*
X0094807Y0032454D02*
X0094807Y0032454D01*
X0092445Y0032454D02*
X0092445Y0032454D01*
X0092445Y0031496D02*
X0092445Y0037819D01*
X0092445Y0044142D01*
X0091890Y0044142D01*
X0091890Y0044263D01*
X0092200Y0044573D01*
X0092580Y0045491D01*
X0092580Y0046485D01*
X0092200Y0047403D01*
X0091497Y0048106D01*
X0090579Y0048486D01*
X0089586Y0048486D01*
X0090714Y0048430D02*
X0108124Y0048430D01*
X0107433Y0049429D02*
X0073683Y0049429D01*
X0073354Y0050427D02*
X0107104Y0050427D01*
X0108980Y0051106D02*
X0109768Y0050319D01*
X0107799Y0052287D01*
X0096382Y0052287D01*
X0093789Y0054880D01*
X0064491Y0054880D01*
X0072597Y0054880D01*
X0072188Y0051426D02*
X0094688Y0051426D01*
X0093690Y0052424D02*
X0066898Y0052424D01*
X0066485Y0051426D02*
X0070182Y0051426D01*
X0069016Y0050427D02*
X0063906Y0050427D01*
X0061736Y0049138D02*
X0061736Y0037819D01*
X0059374Y0037819D02*
X0059374Y0045988D01*
X0057012Y0049138D02*
X0057091Y0054880D01*
X0054684Y0054421D02*
X0004882Y0054421D01*
X0004882Y0053423D02*
X0054684Y0053423D01*
X0054684Y0052424D02*
X0004882Y0052424D01*
X0004882Y0051426D02*
X0051284Y0051426D01*
X0050118Y0050427D02*
X0004882Y0050427D01*
X0004882Y0049429D02*
X0049790Y0049429D01*
X0049294Y0048430D02*
X0004882Y0048430D01*
X0004882Y0047432D02*
X0047836Y0047432D01*
X0047428Y0046433D02*
X0004882Y0046433D01*
X0004882Y0045434D02*
X0047451Y0045434D01*
X0047945Y0044436D02*
X0004882Y0044436D01*
X0004882Y0043437D02*
X0048118Y0043437D01*
X0047929Y0042439D02*
X0004882Y0042439D01*
X0004882Y0041440D02*
X0047929Y0041440D01*
X0047929Y0040442D02*
X0004882Y0040442D01*
X0004882Y0039443D02*
X0047929Y0039443D01*
X0047929Y0038445D02*
X0004882Y0038445D01*
X0004882Y0037446D02*
X0047929Y0037446D01*
X0047929Y0036448D02*
X0004882Y0036448D01*
X0004882Y0035449D02*
X0047929Y0035449D01*
X0047929Y0034451D02*
X0004882Y0034451D01*
X0004882Y0033452D02*
X0047929Y0033452D01*
X0047930Y0032454D02*
X0004882Y0032454D01*
X0004882Y0031455D02*
X0123709Y0031455D01*
X0123709Y0030457D02*
X0004882Y0030457D01*
X0004882Y0029458D02*
X0098721Y0029458D01*
X0100342Y0029458D02*
X0123709Y0029458D01*
X0123709Y0028460D02*
X0101668Y0028460D01*
X0102029Y0027461D02*
X0123709Y0027461D01*
X0123709Y0026463D02*
X0110347Y0026463D01*
X0110405Y0026429D02*
X0110248Y0026520D01*
X0109867Y0026622D01*
X0108980Y0026622D01*
X0108094Y0026622D01*
X0107799Y0026543D01*
X0107505Y0026622D01*
X0106618Y0026622D01*
X0106618Y0020299D01*
X0106618Y0020299D01*
X0106618Y0020472D02*
X0106618Y0020472D01*
X0106618Y0021470D02*
X0106618Y0021470D01*
X0106618Y0022469D02*
X0106618Y0022469D01*
X0106618Y0023467D02*
X0106618Y0023467D01*
X0106618Y0024466D02*
X0106618Y0024466D01*
X0106618Y0025464D02*
X0106618Y0025464D01*
X0106618Y0026463D02*
X0106618Y0026463D01*
X0108980Y0026463D02*
X0108980Y0026463D01*
X0108980Y0026622D02*
X0108980Y0020299D01*
X0108980Y0013976D01*
X0109867Y0013976D01*
X0110248Y0014079D01*
X0110405Y0014169D01*
X0116622Y0014169D01*
X0116622Y0012871D01*
X0116312Y0012560D01*
X0115931Y0011642D01*
X0115931Y0010649D01*
X0116312Y0009731D01*
X0117014Y0009028D01*
X0117932Y0008648D01*
X0118926Y0008648D01*
X0119844Y0009028D01*
X0120547Y0009731D01*
X0120927Y0010649D01*
X0120927Y0011642D01*
X0120547Y0012560D01*
X0120236Y0012871D01*
X0120236Y0014746D01*
X0120425Y0014935D01*
X0120425Y0025663D01*
X0119660Y0026429D01*
X0110405Y0026429D01*
X0108980Y0026622D02*
X0108980Y0020299D01*
X0108980Y0020299D01*
X0108980Y0020472D02*
X0108980Y0020472D01*
X0108980Y0021470D02*
X0108980Y0021470D01*
X0108980Y0022469D02*
X0108980Y0022469D01*
X0108980Y0023467D02*
X0108980Y0023467D01*
X0108980Y0024466D02*
X0108980Y0024466D01*
X0108980Y0025464D02*
X0108980Y0025464D01*
X0104256Y0025464D02*
X0104256Y0025464D01*
X0104256Y0024466D02*
X0104256Y0024466D01*
X0104256Y0023467D02*
X0104256Y0023467D01*
X0104256Y0022469D02*
X0104256Y0022469D01*
X0104256Y0021470D02*
X0104256Y0021470D01*
X0104256Y0020472D02*
X0104256Y0020472D01*
X0104256Y0019473D02*
X0104256Y0019473D01*
X0104256Y0018475D02*
X0104256Y0018475D01*
X0104256Y0017476D02*
X0104256Y0017476D01*
X0104256Y0016478D02*
X0104256Y0016478D01*
X0104256Y0015479D02*
X0104256Y0015479D01*
X0104256Y0014481D02*
X0104256Y0014481D01*
X0101894Y0014481D02*
X0101894Y0014481D01*
X0101894Y0013976D02*
X0101894Y0020299D01*
X0101894Y0011736D01*
X0101339Y0011485D02*
X0115931Y0011485D01*
X0115999Y0010487D02*
X0101339Y0010487D01*
X0101339Y0009488D02*
X0116555Y0009488D01*
X0118429Y0011146D02*
X0118429Y0020299D01*
X0116067Y0020299D01*
X0113705Y0020299D01*
X0111343Y0020299D01*
X0108980Y0019473D02*
X0108980Y0019473D01*
X0108980Y0018475D02*
X0108980Y0018475D01*
X0108980Y0017476D02*
X0108980Y0017476D01*
X0108980Y0016478D02*
X0108980Y0016478D01*
X0108980Y0015479D02*
X0108980Y0015479D01*
X0108980Y0014481D02*
X0108980Y0014481D01*
X0106618Y0014481D02*
X0106618Y0014481D01*
X0106618Y0015479D02*
X0106618Y0015479D01*
X0106618Y0016478D02*
X0106618Y0016478D01*
X0106618Y0017476D02*
X0106618Y0017476D01*
X0106618Y0018475D02*
X0106618Y0018475D01*
X0106618Y0019473D02*
X0106618Y0019473D01*
X0101894Y0019473D02*
X0101894Y0019473D01*
X0101894Y0018475D02*
X0101894Y0018475D01*
X0101894Y0017476D02*
X0101894Y0017476D01*
X0101894Y0016478D02*
X0101894Y0016478D01*
X0101894Y0015479D02*
X0101894Y0015479D01*
X0101894Y0013976D02*
X0101339Y0013976D01*
X0101339Y0006186D01*
X0102052Y0005472D01*
X0121421Y0005472D01*
X0123709Y0007760D01*
X0123709Y0035925D01*
X0123387Y0035603D01*
X0122469Y0035223D01*
X0121476Y0035223D01*
X0120558Y0035603D01*
X0120425Y0035736D01*
X0120425Y0032455D01*
X0119660Y0031689D01*
X0115130Y0031689D01*
X0114973Y0031598D01*
X0114591Y0031496D01*
X0113705Y0031496D01*
X0113705Y0037819D01*
X0111343Y0037819D01*
X0113531Y0037819D01*
X0113705Y0037819D01*
X0113705Y0037819D01*
X0113705Y0044142D01*
X0112818Y0044142D01*
X0112524Y0044063D01*
X0112229Y0044142D01*
X0111343Y0044142D01*
X0111343Y0037819D01*
X0111343Y0037819D01*
X0113705Y0037819D01*
X0113705Y0037819D01*
X0113705Y0031496D01*
X0112818Y0031496D01*
X0112524Y0031575D01*
X0112229Y0031496D01*
X0111343Y0031496D01*
X0111343Y0037819D01*
X0111342Y0037819D01*
X0111343Y0037819D01*
X0111342Y0037446D02*
X0111343Y0037446D01*
X0111342Y0036448D02*
X0111343Y0036448D01*
X0111342Y0035449D02*
X0111343Y0035449D01*
X0111342Y0034451D02*
X0111343Y0034451D01*
X0111342Y0033452D02*
X0111343Y0033452D01*
X0111342Y0032454D02*
X0111343Y0032454D01*
X0113705Y0032454D02*
X0113705Y0032454D01*
X0113705Y0033452D02*
X0113705Y0033452D01*
X0113705Y0034451D02*
X0113705Y0034451D01*
X0113705Y0035449D02*
X0113705Y0035449D01*
X0113705Y0036448D02*
X0113705Y0036448D01*
X0113705Y0037446D02*
X0113705Y0037446D01*
X0113705Y0038445D02*
X0113705Y0038445D01*
X0113705Y0039443D02*
X0113705Y0039443D01*
X0113705Y0040442D02*
X0113705Y0040442D01*
X0113705Y0041440D02*
X0113705Y0041440D01*
X0113705Y0042439D02*
X0113705Y0042439D01*
X0113705Y0043437D02*
X0113705Y0043437D01*
X0113402Y0044436D02*
X0118410Y0044436D01*
X0117411Y0045434D02*
X0114672Y0045434D01*
X0115021Y0046433D02*
X0116413Y0046433D01*
X0115414Y0047432D02*
X0114955Y0047432D01*
X0112524Y0046776D02*
X0112524Y0048350D01*
X0114787Y0050614D01*
X0109177Y0056224D01*
X0103075Y0056224D01*
X0101500Y0054650D01*
X0098744Y0054650D01*
X0096225Y0057169D01*
X0096225Y0062148D01*
X0093818Y0062409D02*
X0063391Y0062409D01*
X0063391Y0063030D02*
X0060841Y0063030D01*
X0060841Y0059080D01*
X0062089Y0059080D01*
X0062470Y0059183D01*
X0062812Y0059380D01*
X0063092Y0059659D01*
X0063289Y0060001D01*
X0063391Y0060383D01*
X0063391Y0063030D01*
X0063391Y0063130D02*
X0063391Y0065778D01*
X0063289Y0066159D01*
X0063092Y0066501D01*
X0062812Y0066781D01*
X0062470Y0066978D01*
X0062089Y0067080D01*
X0060841Y0067080D01*
X0060841Y0063130D01*
X0063391Y0063130D01*
X0063391Y0063408D02*
X0093818Y0063408D01*
X0093818Y0064406D02*
X0063391Y0064406D01*
X0063391Y0065405D02*
X0094033Y0065405D01*
X0093818Y0061411D02*
X0063391Y0061411D01*
X0063391Y0060412D02*
X0093818Y0060412D01*
X0093818Y0059414D02*
X0062846Y0059414D01*
X0062578Y0058415D02*
X0059005Y0058415D01*
X0059112Y0059183D02*
X0058770Y0059380D01*
X0058491Y0059659D01*
X0058294Y0060001D01*
X0058191Y0060383D01*
X0058191Y0063030D01*
X0060741Y0063030D01*
X0060741Y0063130D01*
X0058191Y0063130D01*
X0058191Y0065778D01*
X0058294Y0066159D01*
X0058491Y0066501D01*
X0058770Y0066781D01*
X0059112Y0066978D01*
X0059494Y0067080D01*
X0060741Y0067080D01*
X0060741Y0063130D01*
X0060841Y0063130D01*
X0060841Y0063030D01*
X0060741Y0063030D01*
X0060741Y0059080D01*
X0059494Y0059080D01*
X0059112Y0059183D01*
X0058737Y0059414D02*
X0004882Y0059414D01*
X0004882Y0060412D02*
X0058191Y0060412D01*
X0058191Y0061411D02*
X0004882Y0061411D01*
X0004882Y0062409D02*
X0058191Y0062409D01*
X0058191Y0063408D02*
X0004882Y0063408D01*
X0004882Y0064406D02*
X0058191Y0064406D01*
X0058191Y0065405D02*
X0004882Y0065405D01*
X0004882Y0066403D02*
X0058434Y0066403D01*
X0060741Y0066403D02*
X0060841Y0066403D01*
X0060841Y0065405D02*
X0060741Y0065405D01*
X0060741Y0064406D02*
X0060841Y0064406D01*
X0060841Y0063408D02*
X0060741Y0063408D01*
X0060791Y0063080D02*
X0059537Y0063080D01*
X0053075Y0056618D01*
X0053075Y0052681D01*
X0054650Y0051106D01*
X0054650Y0045988D01*
X0054650Y0037819D01*
X0054650Y0037819D01*
X0054650Y0044142D01*
X0055205Y0044142D01*
X0055205Y0047413D01*
X0054894Y0047723D01*
X0054650Y0048314D01*
X0054405Y0047723D01*
X0054094Y0047413D01*
X0054094Y0044142D01*
X0054650Y0044142D01*
X0054650Y0037819D01*
X0054650Y0031496D01*
X0054650Y0037819D01*
X0054650Y0037819D01*
X0054650Y0037446D02*
X0054650Y0037446D01*
X0054650Y0036448D02*
X0054650Y0036448D01*
X0054650Y0035449D02*
X0054650Y0035449D01*
X0054650Y0034451D02*
X0054650Y0034451D01*
X0054650Y0033452D02*
X0054650Y0033452D01*
X0054650Y0032454D02*
X0054650Y0032454D01*
X0057012Y0037819D02*
X0057012Y0049138D01*
X0055186Y0047432D02*
X0054113Y0047432D01*
X0054094Y0046433D02*
X0055205Y0046433D01*
X0055205Y0045434D02*
X0054094Y0045434D01*
X0054094Y0044436D02*
X0055205Y0044436D01*
X0054650Y0043437D02*
X0054650Y0043437D01*
X0054650Y0042439D02*
X0054650Y0042439D01*
X0054650Y0041440D02*
X0054650Y0041440D01*
X0054650Y0040442D02*
X0054650Y0040442D01*
X0054650Y0039443D02*
X0054650Y0039443D01*
X0054650Y0038445D02*
X0054650Y0038445D01*
X0052287Y0037819D02*
X0052287Y0049138D01*
X0053291Y0051426D02*
X0055098Y0051426D01*
X0054842Y0050427D02*
X0054457Y0050427D01*
X0059085Y0051426D02*
X0060733Y0051426D01*
X0059567Y0050427D02*
X0059181Y0050427D01*
X0059498Y0052424D02*
X0062084Y0052424D01*
X0062084Y0053423D02*
X0059498Y0053423D01*
X0059498Y0054421D02*
X0062084Y0054421D01*
X0062084Y0055420D02*
X0059498Y0055420D01*
X0059498Y0056418D02*
X0062084Y0056418D01*
X0062084Y0057417D02*
X0059498Y0057417D01*
X0060741Y0059414D02*
X0060841Y0059414D01*
X0060841Y0060412D02*
X0060741Y0060412D01*
X0060741Y0061411D02*
X0060841Y0061411D01*
X0060841Y0062409D02*
X0060741Y0062409D01*
X0063148Y0066403D02*
X0101475Y0066403D01*
X0101168Y0067402D02*
X0004882Y0067402D01*
X0004882Y0068400D02*
X0098433Y0068400D01*
X0099875Y0073393D02*
X0099975Y0073393D01*
X0099975Y0074391D02*
X0099875Y0074391D01*
X0099875Y0075390D02*
X0099975Y0075390D01*
X0097795Y0076388D02*
X0106386Y0076388D01*
X0106386Y0075390D02*
X0106032Y0075390D01*
X0106032Y0074391D02*
X0106386Y0074391D01*
X0106386Y0073393D02*
X0106032Y0073393D01*
X0106032Y0072394D02*
X0106386Y0072394D01*
X0106386Y0071396D02*
X0106032Y0071396D01*
X0106032Y0070397D02*
X0106386Y0070397D01*
X0106386Y0069399D02*
X0106032Y0069399D01*
X0106055Y0068400D02*
X0106386Y0068400D01*
X0106386Y0067402D02*
X0106163Y0067402D01*
X0106386Y0066403D02*
X0105856Y0066403D01*
X0105817Y0065405D02*
X0106386Y0065405D01*
X0108193Y0064098D02*
X0106224Y0062130D01*
X0103643Y0062130D01*
X0103625Y0062148D01*
X0099925Y0062148D02*
X0099925Y0057406D01*
X0094418Y0057417D02*
X0066898Y0057417D01*
X0066405Y0058415D02*
X0094418Y0058415D01*
X0092172Y0047432D02*
X0097836Y0047432D01*
X0098117Y0047712D02*
X0097414Y0047009D01*
X0097034Y0046091D01*
X0097034Y0045098D01*
X0097414Y0044180D01*
X0097645Y0043949D01*
X0096232Y0043949D01*
X0096075Y0044039D01*
X0095694Y0044142D01*
X0094807Y0044142D01*
X0094807Y0043437D02*
X0094807Y0043437D01*
X0094807Y0042439D02*
X0094807Y0042439D01*
X0094807Y0041440D02*
X0094807Y0041440D01*
X0094807Y0040442D02*
X0094807Y0040442D01*
X0094807Y0039443D02*
X0094807Y0039443D01*
X0094807Y0038445D02*
X0094807Y0038445D01*
X0097169Y0037819D02*
X0099531Y0037819D01*
X0099531Y0045594D01*
X0101227Y0047432D02*
X0107285Y0047432D01*
X0106624Y0046433D02*
X0101888Y0046433D01*
X0102029Y0045434D02*
X0106483Y0045434D01*
X0106757Y0044436D02*
X0101755Y0044436D01*
X0101894Y0043437D02*
X0101894Y0043437D01*
X0101894Y0042439D02*
X0101894Y0042439D01*
X0101894Y0041440D02*
X0101894Y0041440D01*
X0101894Y0040442D02*
X0101894Y0040442D01*
X0101894Y0039443D02*
X0101894Y0039443D01*
X0101894Y0038445D02*
X0101894Y0038445D01*
X0101894Y0037819D02*
X0101894Y0037819D01*
X0101894Y0031496D01*
X0101894Y0033452D02*
X0101894Y0033452D01*
X0101894Y0034451D02*
X0101894Y0034451D01*
X0101894Y0035449D02*
X0101894Y0035449D01*
X0101894Y0036448D02*
X0101894Y0036448D01*
X0101894Y0037446D02*
X0101894Y0037446D01*
X0104256Y0038445D02*
X0104256Y0038445D01*
X0104256Y0039443D02*
X0104256Y0039443D01*
X0104256Y0040442D02*
X0104256Y0040442D01*
X0104256Y0041440D02*
X0104256Y0041440D01*
X0104256Y0042439D02*
X0104256Y0042439D01*
X0104256Y0043437D02*
X0104256Y0043437D01*
X0108980Y0045594D02*
X0108980Y0037819D01*
X0106618Y0037819D01*
X0111342Y0038445D02*
X0111343Y0038445D01*
X0111342Y0039443D02*
X0111343Y0039443D01*
X0111342Y0040442D02*
X0111343Y0040442D01*
X0111342Y0041440D02*
X0111343Y0041440D01*
X0111342Y0042439D02*
X0111343Y0042439D01*
X0111342Y0043437D02*
X0111343Y0043437D01*
X0111204Y0044436D02*
X0111645Y0044436D01*
X0114787Y0050614D02*
X0125516Y0039886D01*
X0125516Y0007012D01*
X0125909Y0007406D02*
X0131815Y0007406D01*
X0123709Y0008490D02*
X0101339Y0008490D01*
X0101339Y0007491D02*
X0123439Y0007491D01*
X0122441Y0006493D02*
X0101339Y0006493D01*
X0102030Y0005494D02*
X0121442Y0005494D01*
X0120304Y0009488D02*
X0123709Y0009488D01*
X0123709Y0010487D02*
X0120860Y0010487D01*
X0120927Y0011485D02*
X0123709Y0011485D01*
X0123709Y0012484D02*
X0120578Y0012484D01*
X0120236Y0013482D02*
X0123709Y0013482D01*
X0123709Y0014481D02*
X0120236Y0014481D01*
X0120425Y0015479D02*
X0123709Y0015479D01*
X0123709Y0016478D02*
X0120425Y0016478D01*
X0120425Y0017476D02*
X0123709Y0017476D01*
X0123709Y0018475D02*
X0120425Y0018475D01*
X0120425Y0019473D02*
X0123709Y0019473D01*
X0123709Y0020472D02*
X0120425Y0020472D01*
X0120425Y0021470D02*
X0123709Y0021470D01*
X0123709Y0022469D02*
X0120425Y0022469D01*
X0120425Y0023467D02*
X0123709Y0023467D01*
X0123709Y0024466D02*
X0120425Y0024466D01*
X0120425Y0025464D02*
X0123709Y0025464D01*
X0123709Y0032454D02*
X0120424Y0032454D01*
X0120425Y0033452D02*
X0123709Y0033452D01*
X0123709Y0034451D02*
X0120425Y0034451D01*
X0120425Y0035449D02*
X0120929Y0035449D01*
X0123016Y0035449D02*
X0123709Y0035449D01*
X0121972Y0037720D02*
X0118528Y0037720D01*
X0118429Y0037819D01*
X0116067Y0037819D01*
X0127079Y0043437D02*
X0135050Y0043437D01*
X0135050Y0042439D02*
X0128077Y0042439D01*
X0129076Y0041440D02*
X0135050Y0041440D01*
X0113942Y0056775D02*
X0113942Y0062148D01*
X0108193Y0064098D02*
X0108193Y0078272D01*
X0105437Y0081028D01*
X0103862Y0081028D01*
X0103625Y0072348D02*
X0103625Y0067682D01*
X0103665Y0067642D01*
X0100028Y0048092D02*
X0099035Y0048092D01*
X0098117Y0047712D01*
X0097175Y0046433D02*
X0092580Y0046433D01*
X0092557Y0045434D02*
X0097034Y0045434D01*
X0097308Y0044436D02*
X0092063Y0044436D01*
X0092445Y0043437D02*
X0092445Y0043437D01*
X0092445Y0042439D02*
X0092445Y0042439D01*
X0092445Y0041440D02*
X0092445Y0041440D01*
X0092445Y0040442D02*
X0092445Y0040442D01*
X0092445Y0039443D02*
X0092445Y0039443D01*
X0092445Y0038445D02*
X0092445Y0038445D01*
X0092445Y0037819D02*
X0092445Y0037819D01*
X0092445Y0037446D02*
X0092445Y0037446D01*
X0092445Y0036448D02*
X0092445Y0036448D01*
X0092445Y0035449D02*
X0092445Y0035449D01*
X0092445Y0034451D02*
X0092445Y0034451D01*
X0092445Y0033452D02*
X0092445Y0033452D01*
X0090083Y0037819D02*
X0087720Y0037819D01*
X0085358Y0037446D02*
X0085358Y0037446D01*
X0085358Y0036448D02*
X0085358Y0036448D01*
X0085358Y0035449D02*
X0085358Y0035449D01*
X0085358Y0034451D02*
X0085358Y0034451D01*
X0085358Y0033452D02*
X0085358Y0033452D01*
X0085358Y0032454D02*
X0085358Y0032454D01*
X0082996Y0032454D02*
X0082996Y0032454D01*
X0082996Y0033452D02*
X0082996Y0033452D01*
X0082996Y0034451D02*
X0082996Y0034451D01*
X0082996Y0035449D02*
X0082996Y0035449D01*
X0082996Y0036448D02*
X0082996Y0036448D01*
X0082996Y0037446D02*
X0082996Y0037446D01*
X0082996Y0038445D02*
X0082996Y0038445D01*
X0082996Y0039443D02*
X0082996Y0039443D01*
X0082996Y0040442D02*
X0082996Y0040442D01*
X0082996Y0041440D02*
X0082996Y0041440D01*
X0082996Y0042439D02*
X0082996Y0042439D01*
X0082996Y0043437D02*
X0082996Y0043437D01*
X0080252Y0044436D02*
X0088103Y0044436D01*
X0087609Y0045434D02*
X0080746Y0045434D01*
X0080769Y0046433D02*
X0087585Y0046433D01*
X0087994Y0047432D02*
X0080360Y0047432D01*
X0078272Y0045988D02*
X0078272Y0037819D01*
X0080634Y0037819D01*
X0075909Y0037819D02*
X0075909Y0031496D01*
X0076796Y0031496D01*
X0077177Y0031598D01*
X0077334Y0031689D01*
X0081571Y0031689D01*
X0081728Y0031598D01*
X0082110Y0031496D01*
X0075909Y0032454D02*
X0075909Y0032454D01*
X0075909Y0033452D02*
X0075909Y0033452D01*
X0075909Y0034451D02*
X0075909Y0034451D01*
X0075909Y0035449D02*
X0075909Y0035449D01*
X0075909Y0036448D02*
X0075909Y0036448D01*
X0075909Y0037446D02*
X0075909Y0037446D01*
X0073547Y0037446D02*
X0073547Y0037446D01*
X0073547Y0036448D02*
X0073547Y0036448D01*
X0073547Y0035449D02*
X0073547Y0035449D01*
X0073547Y0034451D02*
X0073547Y0034451D01*
X0073547Y0033452D02*
X0073547Y0033452D01*
X0073547Y0032454D02*
X0073547Y0032454D01*
X0071185Y0037819D02*
X0068823Y0037819D01*
X0066461Y0037819D02*
X0066461Y0037819D01*
X0066461Y0044142D01*
X0066461Y0043437D02*
X0066461Y0043437D01*
X0066461Y0042439D02*
X0066461Y0042439D01*
X0066461Y0041440D02*
X0066461Y0041440D01*
X0066461Y0040442D02*
X0066461Y0040442D01*
X0066461Y0039443D02*
X0066461Y0039443D01*
X0066461Y0038445D02*
X0066461Y0038445D01*
X0066460Y0037819D02*
X0066460Y0037819D01*
X0066287Y0037819D01*
X0064099Y0037819D01*
X0064099Y0037819D01*
X0066460Y0037819D01*
X0066461Y0037819D02*
X0066461Y0031496D01*
X0065574Y0031496D01*
X0065280Y0031575D01*
X0064985Y0031496D01*
X0064098Y0031496D01*
X0064098Y0037819D01*
X0064098Y0037446D02*
X0064098Y0037446D01*
X0064098Y0036448D02*
X0064098Y0036448D01*
X0064098Y0035449D02*
X0064098Y0035449D01*
X0064098Y0034451D02*
X0064098Y0034451D01*
X0064098Y0033452D02*
X0064098Y0033452D01*
X0064098Y0032454D02*
X0064098Y0032454D01*
X0066461Y0032454D02*
X0066461Y0032454D01*
X0066461Y0033452D02*
X0066461Y0033452D01*
X0066461Y0034451D02*
X0066461Y0034451D01*
X0066461Y0035449D02*
X0066461Y0035449D01*
X0066461Y0036448D02*
X0066461Y0036448D01*
X0066461Y0037446D02*
X0066461Y0037446D01*
X0064098Y0038445D02*
X0064098Y0038445D01*
X0064098Y0039443D02*
X0064098Y0039443D01*
X0064098Y0040442D02*
X0064098Y0040442D01*
X0064098Y0041440D02*
X0064098Y0041440D01*
X0064098Y0042439D02*
X0064098Y0042439D01*
X0064098Y0043437D02*
X0064098Y0043437D01*
X0071185Y0037819D02*
X0071185Y0049138D01*
X0073547Y0043437D02*
X0073547Y0043437D01*
X0073547Y0042439D02*
X0073547Y0042439D01*
X0073547Y0041440D02*
X0073547Y0041440D01*
X0073547Y0040442D02*
X0073547Y0040442D01*
X0073547Y0039443D02*
X0073547Y0039443D01*
X0073547Y0038445D02*
X0073547Y0038445D01*
X0090083Y0037819D02*
X0090083Y0045988D01*
X0100028Y0048092D02*
X0100946Y0047712D01*
X0097395Y0028460D02*
X0004882Y0028460D01*
X0005710Y0023467D02*
X0008603Y0023467D01*
X0006873Y0022469D02*
X0006709Y0022469D01*
X0003075Y0023547D02*
X0013311Y0013311D01*
X0021262Y0005494D02*
X0097724Y0005494D01*
X0097917Y0004496D02*
X0020263Y0004496D01*
X0018612Y0003497D02*
X0098916Y0003497D01*
X0101339Y0012484D02*
X0116280Y0012484D01*
X0116622Y0013482D02*
X0101339Y0013482D01*
X0104256Y0026463D02*
X0104256Y0026463D01*
X0078591Y0007491D02*
X0077952Y0007491D01*
X0073866Y0007491D02*
X0073228Y0007491D01*
X0069142Y0007491D02*
X0068504Y0007491D01*
X0064418Y0007491D02*
X0063779Y0007491D01*
X0059693Y0007491D02*
X0059055Y0007491D01*
X0054969Y0007491D02*
X0054330Y0007491D01*
X0049925Y0037819D02*
X0049925Y0045988D01*
X0054684Y0055420D02*
X0004882Y0055420D01*
X0004882Y0056418D02*
X0054684Y0056418D01*
X0054684Y0057417D02*
X0004882Y0057417D01*
X0004882Y0058415D02*
X0055178Y0058415D01*
X0040154Y0070397D02*
X0039224Y0070397D01*
X0039224Y0071396D02*
X0040154Y0071396D01*
X0040154Y0072394D02*
X0039224Y0072394D01*
X0043126Y0078385D02*
X0044126Y0078385D01*
X0044126Y0077953D02*
X0045989Y0077953D01*
X0046370Y0078055D01*
X0046712Y0078252D01*
X0046992Y0078532D01*
X0047189Y0078874D01*
X0047291Y0079255D01*
X0047291Y0081709D01*
X0044126Y0081709D01*
X0044126Y0077953D01*
X0044126Y0079384D02*
X0043126Y0079384D01*
X0043126Y0080382D02*
X0044126Y0080382D01*
X0044126Y0081381D02*
X0043126Y0081381D01*
X0044126Y0082379D02*
X0048028Y0082379D01*
X0048028Y0081381D02*
X0047291Y0081381D01*
X0047291Y0080382D02*
X0048028Y0080382D01*
X0048028Y0079384D02*
X0047291Y0079384D01*
X0046845Y0078385D02*
X0048554Y0078385D01*
X0046556Y0077387D02*
X0054811Y0077387D01*
X0054811Y0078385D02*
X0054446Y0078385D01*
X0054811Y0076388D02*
X0047098Y0076388D01*
X0047098Y0075390D02*
X0053937Y0075390D01*
X0051500Y0082209D02*
X0051500Y0085752D01*
X0050713Y0086539D01*
X0047169Y0086539D01*
X0043589Y0090120D01*
X0043589Y0093044D01*
X0039689Y0093363D02*
X0039689Y0093363D01*
X0039689Y0092365D02*
X0039689Y0092365D01*
X0039689Y0091366D02*
X0039689Y0091366D01*
X0039689Y0090368D02*
X0039689Y0090368D01*
X0039496Y0089369D02*
X0041784Y0089369D01*
X0042783Y0088370D02*
X0039992Y0088370D01*
X0040218Y0087372D02*
X0043781Y0087372D01*
X0044126Y0086373D02*
X0043126Y0086373D01*
X0043126Y0085375D02*
X0044126Y0085375D01*
X0044126Y0084376D02*
X0043126Y0084376D01*
X0043126Y0083378D02*
X0044126Y0083378D01*
X0047291Y0083378D02*
X0048028Y0083378D01*
X0048028Y0084376D02*
X0047291Y0084376D01*
X0040923Y0086373D02*
X0040029Y0086373D01*
X0040018Y0085375D02*
X0039301Y0085375D01*
X0039224Y0084376D02*
X0039961Y0084376D01*
X0039961Y0083378D02*
X0039224Y0083378D01*
X0037720Y0087327D02*
X0037689Y0087358D01*
X0037689Y0093044D01*
X0035789Y0093044D02*
X0035789Y0088939D01*
X0034965Y0088114D01*
X0034965Y0082996D01*
X0028378Y0083378D02*
X0027378Y0083378D01*
X0027378Y0084376D02*
X0028378Y0084376D01*
X0028378Y0085375D02*
X0027378Y0085375D01*
X0027378Y0086373D02*
X0028378Y0086373D01*
X0028378Y0091366D02*
X0027378Y0091366D01*
X0027378Y0092365D02*
X0028378Y0092365D01*
X0028378Y0093363D02*
X0027378Y0093363D01*
X0023425Y0096359D02*
X0004882Y0096359D01*
X0004882Y0097357D02*
X0023425Y0097357D01*
X0023479Y0098356D02*
X0004882Y0098356D01*
X0004882Y0099354D02*
X0023618Y0099354D01*
X0023618Y0100353D02*
X0004882Y0100353D01*
X0004882Y0101351D02*
X0023618Y0101351D01*
X0023618Y0102350D02*
X0004882Y0102350D01*
X0004882Y0103348D02*
X0023618Y0103348D01*
X0023618Y0104347D02*
X0004882Y0104347D01*
X0004882Y0105345D02*
X0023772Y0105345D01*
X0026071Y0106344D02*
X0004882Y0106344D01*
X0004882Y0107342D02*
X0026071Y0107342D01*
X0026071Y0108341D02*
X0004882Y0108341D01*
X0004882Y0109339D02*
X0026071Y0109339D01*
X0026071Y0110338D02*
X0004882Y0110338D01*
X0004882Y0111336D02*
X0026497Y0111336D01*
X0027496Y0112335D02*
X0004882Y0112335D01*
X0004882Y0113333D02*
X0027872Y0113333D01*
X0028516Y0114332D02*
X0004882Y0114332D01*
X0004882Y0115330D02*
X0032476Y0115330D01*
X0032476Y0114332D02*
X0031964Y0114332D01*
X0030240Y0112524D02*
X0027878Y0110161D01*
X0027878Y0102091D01*
X0031984Y0105345D02*
X0033882Y0105345D01*
X0033882Y0104347D02*
X0032138Y0104347D01*
X0032138Y0103348D02*
X0033882Y0103348D01*
X0033531Y0102350D02*
X0032138Y0102350D01*
X0032138Y0101351D02*
X0033489Y0101351D01*
X0033489Y0100353D02*
X0032138Y0100353D01*
X0032138Y0099354D02*
X0033489Y0099354D01*
X0032277Y0098356D02*
X0039189Y0098356D01*
X0039189Y0097357D02*
X0040189Y0097357D01*
X0040189Y0096359D02*
X0039189Y0096359D01*
X0039689Y0095360D02*
X0039689Y0095360D01*
X0039689Y0094362D02*
X0039689Y0094362D01*
X0033489Y0096359D02*
X0032331Y0096359D01*
X0032331Y0097357D02*
X0033489Y0097357D01*
X0035789Y0104444D02*
X0035752Y0104481D01*
X0035752Y0108587D01*
X0036343Y0109177D01*
X0036343Y0113311D01*
X0032476Y0111336D02*
X0032452Y0111336D01*
X0032476Y0110338D02*
X0031490Y0110338D01*
X0032954Y0109339D02*
X0029685Y0109339D01*
X0029685Y0108341D02*
X0033945Y0108341D01*
X0033945Y0107342D02*
X0029685Y0107342D01*
X0029685Y0106344D02*
X0033882Y0106344D01*
X0037689Y0106587D02*
X0037689Y0104444D01*
X0037689Y0106587D02*
X0039295Y0108193D01*
X0041657Y0107012D02*
X0042839Y0108193D01*
X0045594Y0108193D01*
X0046776Y0109374D01*
X0050713Y0109374D01*
X0049143Y0111336D02*
X0047094Y0111336D01*
X0047957Y0106618D02*
X0047957Y0106224D01*
X0046176Y0104444D01*
X0043589Y0104444D01*
X0041689Y0104444D02*
X0041657Y0104476D01*
X0041657Y0107012D01*
X0032476Y0116329D02*
X0004882Y0116329D01*
X0004882Y0117327D02*
X0032998Y0117327D01*
X0031169Y0124317D02*
X0004882Y0124317D01*
X0004882Y0125315D02*
X0030882Y0125315D01*
X0030882Y0126314D02*
X0004882Y0126314D01*
X0004882Y0127312D02*
X0030882Y0127312D01*
X0030882Y0128311D02*
X0004882Y0128311D01*
X0004882Y0129309D02*
X0030882Y0129309D01*
X0030882Y0130308D02*
X0004882Y0130308D01*
X0004882Y0131306D02*
X0030882Y0131306D01*
X0030882Y0132305D02*
X0004882Y0132305D01*
X0004882Y0133303D02*
X0030882Y0133303D01*
X0030882Y0134302D02*
X0004882Y0134302D01*
X0004882Y0135301D02*
X0031196Y0135301D01*
X0031197Y0143289D02*
X0004882Y0143289D01*
X0004882Y0144287D02*
X0010375Y0144287D01*
X0007913Y0145286D02*
X0004882Y0145286D01*
X0004882Y0146284D02*
X0006302Y0146284D01*
X0005304Y0147283D02*
X0004956Y0147283D01*
X0003075Y0147957D02*
X0003075Y0023547D01*
X0004882Y0079384D02*
X0024213Y0079384D01*
X0024213Y0080382D02*
X0004882Y0080382D01*
X0004882Y0081381D02*
X0024213Y0081381D01*
X0046579Y0095594D02*
X0051303Y0095594D01*
X0051500Y0095398D01*
X0051500Y0091264D01*
X0075720Y0113333D02*
X0076650Y0113333D01*
X0076650Y0114332D02*
X0075720Y0114332D01*
X0075720Y0115330D02*
X0076650Y0115330D01*
X0080626Y0124317D02*
X0064945Y0124317D01*
X0063946Y0125315D02*
X0067372Y0125315D01*
X0067122Y0126314D02*
X0062948Y0126314D01*
X0061949Y0127312D02*
X0067122Y0127312D01*
X0067122Y0128311D02*
X0060951Y0128311D01*
X0060787Y0129309D02*
X0067122Y0129309D01*
X0067122Y0130308D02*
X0060787Y0130308D01*
X0060787Y0131306D02*
X0067122Y0131306D01*
X0067122Y0132305D02*
X0060787Y0132305D01*
X0060787Y0133303D02*
X0067872Y0133303D01*
X0068904Y0134302D02*
X0069542Y0134302D01*
X0069339Y0135301D02*
X0070262Y0135301D01*
X0070609Y0136299D02*
X0069339Y0136299D01*
X0069339Y0137298D02*
X0071866Y0137298D01*
X0071497Y0138296D02*
X0065386Y0138296D01*
X0064886Y0137917D02*
X0074925Y0137917D01*
X0077878Y0134965D01*
X0077878Y0129256D01*
X0078181Y0128311D02*
X0077181Y0128311D01*
X0077181Y0127312D02*
X0078181Y0127312D01*
X0078181Y0126314D02*
X0077181Y0126314D01*
X0077181Y0125315D02*
X0078181Y0125315D01*
X0078181Y0130308D02*
X0077181Y0130308D01*
X0077181Y0131306D02*
X0078181Y0131306D01*
X0078181Y0132305D02*
X0077181Y0132305D01*
X0077181Y0133303D02*
X0078181Y0133303D01*
X0072760Y0134965D02*
X0070988Y0133193D01*
X0070988Y0129059D01*
X0065386Y0134302D02*
X0064386Y0134302D01*
X0064386Y0135301D02*
X0065386Y0135301D01*
X0065386Y0136299D02*
X0064386Y0136299D01*
X0064386Y0137298D02*
X0065386Y0137298D01*
X0060868Y0134302D02*
X0060787Y0134302D01*
X0057173Y0134302D02*
X0049062Y0134302D01*
X0048496Y0133303D02*
X0057173Y0133303D01*
X0057173Y0132305D02*
X0048496Y0132305D01*
X0048496Y0131306D02*
X0057173Y0131306D01*
X0057173Y0130308D02*
X0048496Y0130308D01*
X0048496Y0129309D02*
X0057173Y0129309D01*
X0057173Y0128311D02*
X0048496Y0128311D01*
X0048496Y0127312D02*
X0057173Y0127312D01*
X0057837Y0126314D02*
X0048496Y0126314D01*
X0048496Y0125315D02*
X0058835Y0125315D01*
X0059834Y0124317D02*
X0048209Y0124317D01*
X0042000Y0129795D02*
X0060949Y0148744D01*
X0072540Y0148744D01*
X0072572Y0148776D01*
X0072572Y0150676D02*
X0072572Y0152099D01*
X0075122Y0154650D01*
X0070004Y0159768D01*
X0065870Y0163259D02*
X0062757Y0163259D01*
X0063519Y0162260D02*
X0065006Y0162260D01*
X0064593Y0161262D02*
X0063949Y0161262D01*
X0064370Y0160263D02*
X0059677Y0160263D01*
X0059677Y0159268D02*
X0064160Y0159268D01*
X0064054Y0158597D01*
X0063811Y0157848D01*
X0063454Y0157147D01*
X0062991Y0156510D01*
X0062434Y0155954D01*
X0061798Y0155491D01*
X0061096Y0155134D01*
X0060348Y0154891D01*
X0059677Y0154785D01*
X0059677Y0159268D01*
X0059677Y0159265D02*
X0058677Y0159265D01*
X0058677Y0160263D02*
X0053984Y0160263D01*
X0053984Y0159265D02*
X0054194Y0159265D01*
X0054408Y0158266D02*
X0053758Y0158266D01*
X0053345Y0157268D02*
X0054839Y0157268D01*
X0055605Y0156269D02*
X0052477Y0156269D01*
X0050882Y0155271D02*
X0056990Y0155271D01*
X0058677Y0155271D02*
X0059677Y0155271D01*
X0059677Y0156269D02*
X0058677Y0156269D01*
X0058677Y0157268D02*
X0059677Y0157268D01*
X0059677Y0158266D02*
X0058677Y0158266D01*
X0061365Y0155271D02*
X0061770Y0155271D01*
X0062750Y0156269D02*
X0062769Y0156269D01*
X0063515Y0157268D02*
X0063767Y0157268D01*
X0063947Y0158266D02*
X0064596Y0158266D01*
X0064370Y0159265D02*
X0064160Y0159265D01*
X0060772Y0154272D02*
X0048211Y0154272D01*
X0048496Y0153274D02*
X0059773Y0153274D01*
X0058775Y0152275D02*
X0048496Y0152275D01*
X0047472Y0155271D02*
X0041365Y0155271D01*
X0042750Y0156269D02*
X0045877Y0156269D01*
X0045010Y0157268D02*
X0043515Y0157268D01*
X0043947Y0158266D02*
X0044596Y0158266D01*
X0044370Y0159265D02*
X0044160Y0159265D01*
X0044370Y0160263D02*
X0039677Y0160263D01*
X0039177Y0159768D02*
X0039177Y0159650D01*
X0038677Y0160263D02*
X0033984Y0160263D01*
X0033984Y0159265D02*
X0034194Y0159265D01*
X0034408Y0158266D02*
X0033758Y0158266D01*
X0033345Y0157268D02*
X0034839Y0157268D01*
X0035605Y0156269D02*
X0032477Y0156269D01*
X0030882Y0155271D02*
X0036990Y0155271D01*
X0031167Y0154272D02*
X0024461Y0154272D01*
X0024461Y0155271D02*
X0027472Y0155271D01*
X0025877Y0156269D02*
X0024461Y0156269D01*
X0024258Y0157268D02*
X0025010Y0157268D01*
X0024596Y0158266D02*
X0023990Y0158266D01*
X0023723Y0159265D02*
X0024370Y0159265D01*
X0024370Y0160263D02*
X0023172Y0160263D01*
X0022595Y0161262D02*
X0024593Y0161262D01*
X0025006Y0162260D02*
X0021862Y0162260D01*
X0020863Y0163259D02*
X0025870Y0163259D01*
X0032484Y0163259D02*
X0035597Y0163259D01*
X0034836Y0162260D02*
X0033348Y0162260D01*
X0033761Y0161262D02*
X0034405Y0161262D01*
X0030882Y0153274D02*
X0024380Y0153274D01*
X0024112Y0152275D02*
X0030882Y0152275D01*
X0030882Y0151277D02*
X0023845Y0151277D01*
X0023434Y0150278D02*
X0030882Y0150278D01*
X0030882Y0149280D02*
X0022858Y0149280D01*
X0022281Y0148281D02*
X0030882Y0148281D01*
X0030882Y0147283D02*
X0021318Y0147283D01*
X0020320Y0146284D02*
X0030882Y0146284D01*
X0030882Y0145286D02*
X0018709Y0145286D01*
X0016247Y0144287D02*
X0030882Y0144287D01*
X0039689Y0129795D02*
X0042000Y0129795D01*
X0045948Y0136299D02*
X0004882Y0136299D01*
X0004882Y0137298D02*
X0046947Y0137298D01*
X0047945Y0138296D02*
X0004882Y0138296D01*
X0004882Y0139295D02*
X0048944Y0139295D01*
X0049942Y0140293D02*
X0004882Y0140293D01*
X0004882Y0141292D02*
X0050941Y0141292D01*
X0051939Y0142290D02*
X0004882Y0142290D01*
X0003075Y0147957D02*
X0010161Y0155043D01*
X0013311Y0155043D01*
X0013311Y0158980D01*
X0019217Y0165280D01*
X0151500Y0165280D01*
X0155043Y0161343D01*
X0155043Y0155043D01*
X0160949Y0155043D01*
X0165280Y0151106D01*
X0165280Y0016854D01*
X0161343Y0013311D01*
X0155043Y0013311D01*
X0137882Y0016478D02*
X0132726Y0016478D01*
X0131969Y0017476D02*
X0137882Y0017476D01*
X0149925Y0097751D02*
X0149925Y0097751D01*
X0151918Y0097751D01*
X0151918Y0097751D01*
X0150636Y0115564D02*
X0159068Y0115564D01*
X0159177Y0115870D01*
X0146846Y0136299D02*
X0110304Y0136299D01*
X0108587Y0138114D02*
X0108587Y0143823D01*
X0104756Y0140293D02*
X0098260Y0140293D01*
X0097957Y0140280D02*
X0097957Y0134177D01*
X0101198Y0136299D02*
X0106870Y0136299D01*
X0106221Y0137298D02*
X0101811Y0137298D01*
X0101819Y0138296D02*
X0106089Y0138296D01*
X0106372Y0139295D02*
X0101819Y0139295D01*
X0101819Y0141292D02*
X0104327Y0141292D01*
X0104327Y0142290D02*
X0101819Y0142290D01*
X0101819Y0143289D02*
X0104327Y0143289D01*
X0104327Y0144287D02*
X0101556Y0144287D01*
X0104327Y0145286D02*
X0088223Y0145286D01*
X0087224Y0146284D02*
X0104327Y0146284D01*
X0104291Y0147283D02*
X0102646Y0147283D01*
X0102803Y0148281D02*
X0104134Y0148281D01*
X0104134Y0149280D02*
X0102803Y0149280D01*
X0102803Y0151277D02*
X0104134Y0151277D01*
X0104134Y0152275D02*
X0102803Y0152275D01*
X0102803Y0153274D02*
X0104134Y0153274D01*
X0104710Y0154272D02*
X0102571Y0154272D01*
X0101365Y0155271D02*
X0107472Y0155271D01*
X0108087Y0154272D02*
X0109087Y0154272D01*
X0109087Y0153274D02*
X0108087Y0153274D01*
X0108087Y0152275D02*
X0109087Y0152275D01*
X0109087Y0151277D02*
X0108087Y0151277D01*
X0108087Y0150278D02*
X0099638Y0150278D01*
X0099638Y0149280D02*
X0098638Y0149280D01*
X0098638Y0148281D02*
X0099638Y0148281D01*
X0099638Y0147283D02*
X0098638Y0147283D01*
X0095630Y0147283D02*
X0094604Y0147283D01*
X0094736Y0148281D02*
X0095472Y0148281D01*
X0095472Y0149280D02*
X0094736Y0149280D01*
X0091264Y0150713D02*
X0084009Y0150713D01*
X0083972Y0150676D01*
X0085239Y0153274D02*
X0087791Y0153274D01*
X0088054Y0154272D02*
X0086237Y0154272D01*
X0087236Y0155271D02*
X0087472Y0155271D01*
X0084059Y0154650D02*
X0089177Y0159768D01*
X0085870Y0163259D02*
X0082757Y0163259D01*
X0083519Y0162260D02*
X0085006Y0162260D01*
X0084593Y0161262D02*
X0083949Y0161262D01*
X0084370Y0160263D02*
X0079677Y0160263D01*
X0079677Y0159265D02*
X0078677Y0159265D01*
X0078677Y0158266D02*
X0079677Y0158266D01*
X0079677Y0157268D02*
X0078677Y0157268D01*
X0078677Y0156269D02*
X0079677Y0156269D01*
X0079677Y0155271D02*
X0078677Y0155271D01*
X0077620Y0154272D02*
X0080105Y0154272D01*
X0080469Y0153274D02*
X0077256Y0153274D01*
X0077772Y0152275D02*
X0078772Y0152275D01*
X0078772Y0151277D02*
X0077772Y0151277D01*
X0077772Y0150278D02*
X0078772Y0150278D01*
X0078772Y0149280D02*
X0077772Y0149280D01*
X0077772Y0148281D02*
X0078772Y0148281D01*
X0078772Y0147283D02*
X0077772Y0147283D01*
X0078772Y0146284D02*
X0080872Y0146284D01*
X0080872Y0146276D02*
X0078772Y0146276D01*
X0078772Y0140576D01*
X0080660Y0140576D01*
X0080498Y0140186D01*
X0080498Y0139295D02*
X0074974Y0139295D01*
X0074023Y0138296D02*
X0080870Y0138296D01*
X0078772Y0141292D02*
X0077772Y0141292D01*
X0077772Y0142290D02*
X0078772Y0142290D01*
X0078772Y0143289D02*
X0077772Y0143289D01*
X0077772Y0144287D02*
X0078772Y0144287D01*
X0078772Y0145286D02*
X0077772Y0145286D01*
X0080872Y0146276D02*
X0080872Y0146776D01*
X0083972Y0146776D01*
X0083972Y0146776D01*
X0087072Y0147283D02*
X0087924Y0147283D01*
X0087791Y0148281D02*
X0086879Y0148281D01*
X0084059Y0154650D02*
X0082602Y0154650D01*
X0083515Y0157268D02*
X0084122Y0157268D01*
X0083947Y0158266D02*
X0084596Y0158266D01*
X0084370Y0159265D02*
X0084160Y0159265D01*
X0092484Y0163259D02*
X0095597Y0163259D01*
X0094836Y0162260D02*
X0093348Y0162260D01*
X0093761Y0161262D02*
X0094405Y0161262D01*
X0098677Y0159265D02*
X0099677Y0159265D01*
X0099677Y0160263D02*
X0104370Y0160263D01*
X0104370Y0159265D02*
X0104160Y0159265D01*
X0103947Y0158266D02*
X0104596Y0158266D01*
X0105010Y0157268D02*
X0103515Y0157268D01*
X0102750Y0156269D02*
X0105877Y0156269D01*
X0110882Y0155271D02*
X0116990Y0155271D01*
X0118677Y0155271D02*
X0119677Y0155271D01*
X0119677Y0154785D02*
X0120348Y0154891D01*
X0121096Y0155134D01*
X0121798Y0155491D01*
X0122434Y0155954D01*
X0122991Y0156510D01*
X0123454Y0157147D01*
X0123811Y0157848D01*
X0124054Y0158597D01*
X0124160Y0159268D01*
X0119677Y0159268D01*
X0119677Y0154785D01*
X0119677Y0156269D02*
X0118677Y0156269D01*
X0118677Y0157268D02*
X0119677Y0157268D01*
X0119677Y0158266D02*
X0118677Y0158266D01*
X0118677Y0159265D02*
X0119677Y0159265D01*
X0119677Y0160263D02*
X0124370Y0160263D01*
X0124370Y0159265D02*
X0124160Y0159265D01*
X0123947Y0158266D02*
X0124596Y0158266D01*
X0125010Y0157268D02*
X0123515Y0157268D01*
X0122750Y0156269D02*
X0125877Y0156269D01*
X0127472Y0155271D02*
X0121365Y0155271D01*
X0118677Y0160263D02*
X0113984Y0160263D01*
X0113984Y0159265D02*
X0114194Y0159265D01*
X0114408Y0158266D02*
X0113758Y0158266D01*
X0113345Y0157268D02*
X0114839Y0157268D01*
X0115605Y0156269D02*
X0112477Y0156269D01*
X0112463Y0154272D02*
X0143894Y0154272D01*
X0143894Y0155271D02*
X0141365Y0155271D01*
X0141096Y0155134D02*
X0141798Y0155491D01*
X0142434Y0155954D01*
X0142991Y0156510D01*
X0143454Y0157147D01*
X0143811Y0157848D01*
X0144054Y0158597D01*
X0144160Y0159268D01*
X0139677Y0159268D01*
X0139677Y0154785D01*
X0140348Y0154891D01*
X0141096Y0155134D01*
X0139677Y0155271D02*
X0138677Y0155271D01*
X0138677Y0156269D02*
X0139677Y0156269D01*
X0139677Y0157268D02*
X0138677Y0157268D01*
X0138677Y0158266D02*
X0139677Y0158266D01*
X0139677Y0159265D02*
X0138677Y0159265D01*
X0138677Y0160263D02*
X0133984Y0160263D01*
X0133984Y0159265D02*
X0134194Y0159265D01*
X0134408Y0158266D02*
X0133758Y0158266D01*
X0133345Y0157268D02*
X0134839Y0157268D01*
X0135605Y0156269D02*
X0132477Y0156269D01*
X0130882Y0155271D02*
X0136990Y0155271D01*
X0139677Y0160263D02*
X0145183Y0160263D01*
X0144632Y0159265D02*
X0144160Y0159265D01*
X0144364Y0158266D02*
X0143947Y0158266D01*
X0144096Y0157268D02*
X0143515Y0157268D01*
X0143894Y0156269D02*
X0142750Y0156269D01*
X0143975Y0153274D02*
X0113039Y0153274D01*
X0113039Y0152275D02*
X0144242Y0152275D01*
X0147169Y0145201D02*
X0145594Y0143626D01*
X0144221Y0139295D02*
X0143551Y0139295D01*
X0143551Y0138296D02*
X0145219Y0138296D01*
X0146846Y0137298D02*
X0143159Y0137298D01*
X0139795Y0141292D02*
X0138795Y0141292D01*
X0138795Y0142290D02*
X0139795Y0142290D01*
X0139795Y0143289D02*
X0138795Y0143289D01*
X0135818Y0129309D02*
X0125254Y0129309D01*
X0121185Y0120398D02*
X0122366Y0119217D01*
X0122366Y0110555D01*
X0114061Y0107300D02*
X0112161Y0107300D01*
X0110161Y0107300D01*
X0111000Y0111336D02*
X0112000Y0111336D01*
X0112000Y0112335D02*
X0111000Y0112335D01*
X0111539Y0112524D02*
X0108980Y0112524D01*
X0108193Y0111736D01*
X0107441Y0113333D02*
X0105795Y0113333D01*
X0105795Y0114332D02*
X0107441Y0114332D01*
X0107441Y0116329D02*
X0105795Y0116329D01*
X0105795Y0117327D02*
X0107441Y0117327D01*
X0107441Y0118326D02*
X0105795Y0118326D01*
X0102236Y0115330D02*
X0111000Y0115330D01*
X0111500Y0115280D02*
X0101776Y0115280D01*
X0101736Y0115319D01*
X0111000Y0114332D02*
X0112000Y0114332D01*
X0112000Y0113333D02*
X0111000Y0113333D01*
X0111539Y0112524D02*
X0111539Y0115240D01*
X0111500Y0115280D01*
X0098260Y0141292D02*
X0097260Y0141292D01*
X0097260Y0142290D02*
X0098260Y0142290D01*
X0098260Y0143289D02*
X0097260Y0143289D01*
X0097260Y0144287D02*
X0098260Y0144287D01*
X0098638Y0151277D02*
X0099638Y0151277D01*
X0099638Y0152275D02*
X0098638Y0152275D01*
X0098638Y0153274D02*
X0099638Y0153274D01*
X0099638Y0154272D02*
X0098638Y0154272D01*
X0098677Y0155271D02*
X0099677Y0155271D01*
X0099677Y0156269D02*
X0098677Y0156269D01*
X0098677Y0157268D02*
X0099677Y0157268D01*
X0099677Y0158266D02*
X0098677Y0158266D01*
X0102757Y0163259D02*
X0105870Y0163259D01*
X0105006Y0162260D02*
X0103519Y0162260D01*
X0103949Y0161262D02*
X0104593Y0161262D01*
X0112484Y0163259D02*
X0115597Y0163259D01*
X0114836Y0162260D02*
X0113348Y0162260D01*
X0113761Y0161262D02*
X0114405Y0161262D01*
X0122757Y0163259D02*
X0125870Y0163259D01*
X0125006Y0162260D02*
X0123519Y0162260D01*
X0123949Y0161262D02*
X0124593Y0161262D01*
X0132484Y0163259D02*
X0135597Y0163259D01*
X0134836Y0162260D02*
X0133348Y0162260D01*
X0133761Y0161262D02*
X0134405Y0161262D01*
X0142757Y0163259D02*
X0147491Y0163259D01*
X0146492Y0162260D02*
X0143519Y0162260D01*
X0143949Y0161262D02*
X0145759Y0161262D01*
X0070107Y0141292D02*
X0069100Y0141292D01*
X0069146Y0142290D02*
X0069665Y0142290D01*
X0069339Y0140293D02*
X0070262Y0140293D01*
X0070546Y0139295D02*
X0069339Y0139295D01*
X0057930Y0148281D02*
X0048496Y0148281D01*
X0048496Y0147283D02*
X0056932Y0147283D01*
X0055933Y0146284D02*
X0048496Y0146284D01*
X0048496Y0145286D02*
X0054935Y0145286D01*
X0053936Y0144287D02*
X0048496Y0144287D01*
X0048181Y0143289D02*
X0052938Y0143289D01*
X0055053Y0140293D02*
X0057173Y0140293D01*
X0057173Y0139295D02*
X0054055Y0139295D01*
X0053056Y0138296D02*
X0057173Y0138296D01*
X0057173Y0137298D02*
X0052058Y0137298D01*
X0051059Y0136299D02*
X0057173Y0136299D01*
X0057173Y0135301D02*
X0050061Y0135301D01*
X0056052Y0141292D02*
X0057173Y0141292D01*
X0057173Y0142290D02*
X0057050Y0142290D01*
X0054405Y0161262D02*
X0053761Y0161262D01*
X0053348Y0162260D02*
X0054836Y0162260D01*
X0055597Y0163259D02*
X0052484Y0163259D01*
X0045870Y0163259D02*
X0042757Y0163259D01*
X0043519Y0162260D02*
X0045006Y0162260D01*
X0044593Y0161262D02*
X0043949Y0161262D01*
X0060832Y0123318D02*
X0004882Y0123318D01*
X0004882Y0122320D02*
X0061831Y0122320D01*
X0062829Y0121321D02*
X0004882Y0121321D01*
X0004882Y0120323D02*
X0063828Y0120323D01*
X0064826Y0119324D02*
X0004882Y0119324D01*
X0004882Y0118326D02*
X0065825Y0118326D01*
D28*
X0050713Y0109374D03*
X0047957Y0106618D03*
X0039295Y0108193D03*
X0030240Y0112524D03*
X0046579Y0095594D03*
X0037720Y0087327D03*
X0052287Y0049138D03*
X0049925Y0045988D03*
X0054650Y0045988D03*
X0057012Y0049138D03*
X0059374Y0045988D03*
X0061736Y0049138D03*
X0066461Y0049138D03*
X0071185Y0049138D03*
X0073547Y0045988D03*
X0075909Y0049138D03*
X0078272Y0045988D03*
X0082996Y0045988D03*
X0090083Y0045988D03*
X0094807Y0045988D03*
X0099531Y0045594D03*
X0108980Y0045594D03*
X0112524Y0046776D03*
X0109768Y0050319D03*
X0117642Y0057406D03*
X0120398Y0051894D03*
X0126303Y0049531D03*
X0121972Y0037720D03*
X0113705Y0030634D03*
X0099531Y0027091D03*
X0090083Y0029453D03*
X0082996Y0012130D03*
X0080634Y0008980D03*
X0078272Y0012130D03*
X0075909Y0008980D03*
X0073547Y0012130D03*
X0071185Y0008980D03*
X0068823Y0012130D03*
X0066461Y0008980D03*
X0064098Y0012130D03*
X0061736Y0008980D03*
X0059374Y0012130D03*
X0057012Y0008980D03*
X0054650Y0012130D03*
X0052287Y0008980D03*
X0049916Y0012130D03*
X0099925Y0057406D03*
X0099925Y0067642D03*
X0103665Y0067642D03*
X0099925Y0076697D03*
X0108980Y0086933D03*
X0107406Y0092051D03*
X0113311Y0090476D03*
X0125909Y0084768D03*
X0131815Y0080240D03*
X0143232Y0083783D03*
X0143626Y0076697D03*
X0151894Y0076303D03*
X0157012Y0083783D03*
X0142839Y0094020D03*
X0145988Y0101106D03*
X0153825Y0110124D03*
X0159768Y0110555D03*
X0158193Y0128665D03*
X0154650Y0130240D03*
X0150319Y0133783D03*
X0160949Y0133783D03*
X0147169Y0145201D03*
X0134965Y0140476D03*
X0123547Y0127484D03*
X0138508Y0122366D03*
X0131815Y0109374D03*
X0125516Y0109374D03*
X0135358Y0101894D03*
X0117642Y0076303D03*
X0133783Y0067248D03*
X0143232Y0057406D03*
X0151500Y0049531D03*
X0149531Y0041264D03*
X0154256Y0033783D03*
X0151106Y0032602D03*
X0159768Y0035870D03*
X0141657Y0031815D03*
X0130437Y0015476D03*
X0118429Y0011146D03*
X0101894Y0011736D03*
X0155043Y0057406D03*
X0091382Y0129059D03*
X0090870Y0134177D03*
X0086146Y0134965D03*
X0082996Y0139689D03*
X0072760Y0140476D03*
X0072760Y0134965D03*
X0082996Y0125122D03*
X0097957Y0134177D03*
X0108587Y0138114D03*
X0082602Y0154650D03*
X0075122Y0154650D03*
D29*
X0101894Y0048744D03*
D30*
X0155043Y0013311D03*
X0013311Y0013311D03*
X0013311Y0155043D03*
X0155043Y0155043D03*
M02*
