G75*
%MOIN*%
%OFA0B0*%
%FSLAX25Y25*%
%IPPOS*%
%LPD*%
%AMOC8*
5,1,8,0,0,1.08239X$1,22.5*
%
%ADD10C,0.00000*%
%ADD11C,0.06000*%
%ADD12R,0.05118X0.05906*%
%ADD13R,0.05906X0.05118*%
%ADD14R,0.09300X0.15000*%
%ADD15R,0.15000X0.09300*%
%ADD16R,0.05700X0.12600*%
%ADD17R,0.04331X0.05512*%
%ADD18R,0.05512X0.04331*%
%ADD19R,0.04600X0.06300*%
%ADD20C,0.07000*%
%ADD21C,0.05543*%
%ADD22R,0.01378X0.06693*%
%ADD23C,0.01000*%
%ADD24C,0.02381*%
%ADD25C,0.03562*%
%ADD26C,0.00591*%
%ADD27C,0.19685*%
D10*
X0001500Y0013311D02*
X0001500Y0155043D01*
X0001503Y0155328D01*
X0001514Y0155614D01*
X0001531Y0155899D01*
X0001555Y0156183D01*
X0001586Y0156467D01*
X0001624Y0156750D01*
X0001669Y0157031D01*
X0001720Y0157312D01*
X0001778Y0157592D01*
X0001843Y0157870D01*
X0001915Y0158146D01*
X0001993Y0158420D01*
X0002078Y0158693D01*
X0002170Y0158963D01*
X0002268Y0159231D01*
X0002372Y0159497D01*
X0002483Y0159760D01*
X0002600Y0160020D01*
X0002723Y0160278D01*
X0002853Y0160532D01*
X0002989Y0160783D01*
X0003130Y0161031D01*
X0003278Y0161275D01*
X0003431Y0161516D01*
X0003591Y0161752D01*
X0003756Y0161985D01*
X0003926Y0162214D01*
X0004102Y0162439D01*
X0004284Y0162659D01*
X0004470Y0162875D01*
X0004662Y0163086D01*
X0004859Y0163293D01*
X0005061Y0163495D01*
X0005268Y0163692D01*
X0005479Y0163884D01*
X0005695Y0164070D01*
X0005915Y0164252D01*
X0006140Y0164428D01*
X0006369Y0164598D01*
X0006602Y0164763D01*
X0006838Y0164923D01*
X0007079Y0165076D01*
X0007323Y0165224D01*
X0007571Y0165365D01*
X0007822Y0165501D01*
X0008076Y0165631D01*
X0008334Y0165754D01*
X0008594Y0165871D01*
X0008857Y0165982D01*
X0009123Y0166086D01*
X0009391Y0166184D01*
X0009661Y0166276D01*
X0009934Y0166361D01*
X0010208Y0166439D01*
X0010484Y0166511D01*
X0010762Y0166576D01*
X0011042Y0166634D01*
X0011323Y0166685D01*
X0011604Y0166730D01*
X0011887Y0166768D01*
X0012171Y0166799D01*
X0012455Y0166823D01*
X0012740Y0166840D01*
X0013026Y0166851D01*
X0013311Y0166854D01*
X0155043Y0166854D01*
X0155328Y0166851D01*
X0155614Y0166840D01*
X0155899Y0166823D01*
X0156183Y0166799D01*
X0156467Y0166768D01*
X0156750Y0166730D01*
X0157031Y0166685D01*
X0157312Y0166634D01*
X0157592Y0166576D01*
X0157870Y0166511D01*
X0158146Y0166439D01*
X0158420Y0166361D01*
X0158693Y0166276D01*
X0158963Y0166184D01*
X0159231Y0166086D01*
X0159497Y0165982D01*
X0159760Y0165871D01*
X0160020Y0165754D01*
X0160278Y0165631D01*
X0160532Y0165501D01*
X0160783Y0165365D01*
X0161031Y0165224D01*
X0161275Y0165076D01*
X0161516Y0164923D01*
X0161752Y0164763D01*
X0161985Y0164598D01*
X0162214Y0164428D01*
X0162439Y0164252D01*
X0162659Y0164070D01*
X0162875Y0163884D01*
X0163086Y0163692D01*
X0163293Y0163495D01*
X0163495Y0163293D01*
X0163692Y0163086D01*
X0163884Y0162875D01*
X0164070Y0162659D01*
X0164252Y0162439D01*
X0164428Y0162214D01*
X0164598Y0161985D01*
X0164763Y0161752D01*
X0164923Y0161516D01*
X0165076Y0161275D01*
X0165224Y0161031D01*
X0165365Y0160783D01*
X0165501Y0160532D01*
X0165631Y0160278D01*
X0165754Y0160020D01*
X0165871Y0159760D01*
X0165982Y0159497D01*
X0166086Y0159231D01*
X0166184Y0158963D01*
X0166276Y0158693D01*
X0166361Y0158420D01*
X0166439Y0158146D01*
X0166511Y0157870D01*
X0166576Y0157592D01*
X0166634Y0157312D01*
X0166685Y0157031D01*
X0166730Y0156750D01*
X0166768Y0156467D01*
X0166799Y0156183D01*
X0166823Y0155899D01*
X0166840Y0155614D01*
X0166851Y0155328D01*
X0166854Y0155043D01*
X0166854Y0013311D01*
X0166851Y0013026D01*
X0166840Y0012740D01*
X0166823Y0012455D01*
X0166799Y0012171D01*
X0166768Y0011887D01*
X0166730Y0011604D01*
X0166685Y0011323D01*
X0166634Y0011042D01*
X0166576Y0010762D01*
X0166511Y0010484D01*
X0166439Y0010208D01*
X0166361Y0009934D01*
X0166276Y0009661D01*
X0166184Y0009391D01*
X0166086Y0009123D01*
X0165982Y0008857D01*
X0165871Y0008594D01*
X0165754Y0008334D01*
X0165631Y0008076D01*
X0165501Y0007822D01*
X0165365Y0007571D01*
X0165224Y0007323D01*
X0165076Y0007079D01*
X0164923Y0006838D01*
X0164763Y0006602D01*
X0164598Y0006369D01*
X0164428Y0006140D01*
X0164252Y0005915D01*
X0164070Y0005695D01*
X0163884Y0005479D01*
X0163692Y0005268D01*
X0163495Y0005061D01*
X0163293Y0004859D01*
X0163086Y0004662D01*
X0162875Y0004470D01*
X0162659Y0004284D01*
X0162439Y0004102D01*
X0162214Y0003926D01*
X0161985Y0003756D01*
X0161752Y0003591D01*
X0161516Y0003431D01*
X0161275Y0003278D01*
X0161031Y0003130D01*
X0160783Y0002989D01*
X0160532Y0002853D01*
X0160278Y0002723D01*
X0160020Y0002600D01*
X0159760Y0002483D01*
X0159497Y0002372D01*
X0159231Y0002268D01*
X0158963Y0002170D01*
X0158693Y0002078D01*
X0158420Y0001993D01*
X0158146Y0001915D01*
X0157870Y0001843D01*
X0157592Y0001778D01*
X0157312Y0001720D01*
X0157031Y0001669D01*
X0156750Y0001624D01*
X0156467Y0001586D01*
X0156183Y0001555D01*
X0155899Y0001531D01*
X0155614Y0001514D01*
X0155328Y0001503D01*
X0155043Y0001500D01*
X0013311Y0001500D01*
X0013026Y0001503D01*
X0012740Y0001514D01*
X0012455Y0001531D01*
X0012171Y0001555D01*
X0011887Y0001586D01*
X0011604Y0001624D01*
X0011323Y0001669D01*
X0011042Y0001720D01*
X0010762Y0001778D01*
X0010484Y0001843D01*
X0010208Y0001915D01*
X0009934Y0001993D01*
X0009661Y0002078D01*
X0009391Y0002170D01*
X0009123Y0002268D01*
X0008857Y0002372D01*
X0008594Y0002483D01*
X0008334Y0002600D01*
X0008076Y0002723D01*
X0007822Y0002853D01*
X0007571Y0002989D01*
X0007323Y0003130D01*
X0007079Y0003278D01*
X0006838Y0003431D01*
X0006602Y0003591D01*
X0006369Y0003756D01*
X0006140Y0003926D01*
X0005915Y0004102D01*
X0005695Y0004284D01*
X0005479Y0004470D01*
X0005268Y0004662D01*
X0005061Y0004859D01*
X0004859Y0005061D01*
X0004662Y0005268D01*
X0004470Y0005479D01*
X0004284Y0005695D01*
X0004102Y0005915D01*
X0003926Y0006140D01*
X0003756Y0006369D01*
X0003591Y0006602D01*
X0003431Y0006838D01*
X0003278Y0007079D01*
X0003130Y0007323D01*
X0002989Y0007571D01*
X0002853Y0007822D01*
X0002723Y0008076D01*
X0002600Y0008334D01*
X0002483Y0008594D01*
X0002372Y0008857D01*
X0002268Y0009123D01*
X0002170Y0009391D01*
X0002078Y0009661D01*
X0001993Y0009934D01*
X0001915Y0010208D01*
X0001843Y0010484D01*
X0001778Y0010762D01*
X0001720Y0011042D01*
X0001669Y0011323D01*
X0001624Y0011604D01*
X0001586Y0011887D01*
X0001555Y0012171D01*
X0001531Y0012455D01*
X0001514Y0012740D01*
X0001503Y0013026D01*
X0001500Y0013311D01*
D11*
X0159768Y0030870D03*
X0159768Y0040870D03*
X0159768Y0050870D03*
D12*
X0140280Y0148744D03*
X0133587Y0148744D03*
X0043035Y0082209D03*
X0036343Y0082209D03*
D13*
X0138114Y0088705D03*
X0138114Y0095398D03*
X0139295Y0133193D03*
X0139295Y0139886D03*
D14*
X0049189Y0139295D03*
X0030189Y0139295D03*
D15*
X0113311Y0129795D03*
X0113311Y0148795D03*
D16*
X0114161Y0112248D03*
X0106161Y0112248D03*
D17*
X0150319Y0139295D03*
X0158193Y0139295D03*
X0145594Y0049531D03*
X0137720Y0049531D03*
X0137720Y0027484D03*
X0145594Y0027484D03*
D18*
X0129059Y0063311D03*
X0129059Y0071185D03*
X0159768Y0091657D03*
X0159768Y0099531D03*
X0088114Y0071185D03*
X0088114Y0063311D03*
D19*
X0096925Y0084571D03*
X0102925Y0084571D03*
X0114642Y0084965D03*
X0120642Y0084965D03*
D20*
X0119177Y0159768D03*
X0109177Y0159768D03*
X0099177Y0159768D03*
X0089177Y0159768D03*
X0079177Y0159768D03*
X0069177Y0159768D03*
X0059177Y0159768D03*
X0049177Y0159768D03*
X0039177Y0159768D03*
X0029177Y0159768D03*
X0129177Y0159768D03*
X0139177Y0159768D03*
D21*
X0139689Y0007406D03*
X0131815Y0007406D03*
D22*
X0118429Y0017839D03*
X0116067Y0017839D03*
X0113705Y0017839D03*
X0111343Y0017839D03*
X0108980Y0017839D03*
X0106618Y0017839D03*
X0104256Y0017839D03*
X0101894Y0017839D03*
X0099531Y0017839D03*
X0097169Y0017839D03*
X0094807Y0017839D03*
X0092445Y0017839D03*
X0090083Y0017839D03*
X0087720Y0017839D03*
X0085358Y0017839D03*
X0082996Y0017839D03*
X0080634Y0017839D03*
X0078272Y0017839D03*
X0075909Y0017839D03*
X0073547Y0017839D03*
X0071185Y0017839D03*
X0068823Y0017839D03*
X0066461Y0017839D03*
X0064098Y0017839D03*
X0061736Y0017839D03*
X0059374Y0017839D03*
X0057012Y0017839D03*
X0054650Y0017839D03*
X0052287Y0017839D03*
X0049925Y0017839D03*
X0049925Y0040280D03*
X0052287Y0040280D03*
X0054650Y0040280D03*
X0057012Y0040280D03*
X0059374Y0040280D03*
X0061736Y0040280D03*
X0064098Y0040280D03*
X0066461Y0040280D03*
X0068823Y0040280D03*
X0071185Y0040280D03*
X0073547Y0040280D03*
X0075909Y0040280D03*
X0078272Y0040280D03*
X0080634Y0040280D03*
X0082996Y0040280D03*
X0085358Y0040280D03*
X0087720Y0040280D03*
X0090083Y0040280D03*
X0092445Y0040280D03*
X0094807Y0040280D03*
X0097169Y0040280D03*
X0099531Y0040280D03*
X0101894Y0040280D03*
X0104256Y0040280D03*
X0106618Y0040280D03*
X0108980Y0040280D03*
X0111343Y0040280D03*
X0113705Y0040280D03*
X0116067Y0040280D03*
X0118429Y0040280D03*
D23*
X0119413Y0040280D01*
X0121972Y0037720D01*
X0122030Y0040218D02*
X0120425Y0041823D01*
X0120425Y0044167D01*
X0119660Y0044933D01*
X0115130Y0044933D01*
X0115068Y0044969D01*
X0123902Y0044969D01*
X0124961Y0046027D01*
X0125967Y0047034D01*
X0126800Y0047034D01*
X0127252Y0047221D01*
X0127252Y0041303D01*
X0128311Y0040244D01*
X0135791Y0032764D01*
X0148389Y0032764D01*
X0148609Y0032544D01*
X0148609Y0032106D01*
X0148989Y0031188D01*
X0149691Y0030485D01*
X0150609Y0030105D01*
X0151603Y0030105D01*
X0152449Y0030455D01*
X0152449Y0030201D01*
X0151539Y0029291D01*
X0149067Y0029291D01*
X0149067Y0030782D01*
X0148301Y0031547D01*
X0142888Y0031547D01*
X0142122Y0030782D01*
X0142122Y0024187D01*
X0142888Y0023421D01*
X0148301Y0023421D01*
X0149067Y0024187D01*
X0149067Y0025677D01*
X0153036Y0025677D01*
X0154094Y0026736D01*
X0156020Y0028662D01*
X0156116Y0028430D01*
X0157328Y0027219D01*
X0158911Y0026563D01*
X0160624Y0026563D01*
X0162207Y0027219D01*
X0163419Y0028430D01*
X0164075Y0030013D01*
X0164075Y0031727D01*
X0163419Y0033310D01*
X0162207Y0034521D01*
X0160624Y0035177D01*
X0158911Y0035177D01*
X0157328Y0034521D01*
X0156754Y0033947D01*
X0156754Y0034280D01*
X0156373Y0035198D01*
X0155671Y0035901D01*
X0154753Y0036281D01*
X0154191Y0036281D01*
X0154217Y0036307D01*
X0155276Y0037366D01*
X0155276Y0041225D01*
X0153430Y0043071D01*
X0151257Y0043071D01*
X0150946Y0043381D01*
X0150028Y0043761D01*
X0149035Y0043761D01*
X0148117Y0043381D01*
X0147414Y0042679D01*
X0147034Y0041761D01*
X0147034Y0040767D01*
X0147414Y0039849D01*
X0148117Y0039146D01*
X0149035Y0038766D01*
X0150028Y0038766D01*
X0150946Y0039146D01*
X0151257Y0039457D01*
X0151661Y0039457D01*
X0151661Y0038863D01*
X0151145Y0038346D01*
X0143981Y0038346D01*
X0143465Y0038863D01*
X0143465Y0044768D01*
X0142406Y0045827D01*
X0141193Y0047040D01*
X0141193Y0052829D01*
X0140427Y0053594D01*
X0135014Y0053594D01*
X0134248Y0052829D01*
X0134248Y0046234D01*
X0135014Y0045469D01*
X0137653Y0045469D01*
X0139850Y0043271D01*
X0139850Y0037366D01*
X0140838Y0036378D01*
X0137288Y0036378D01*
X0130866Y0042800D01*
X0130866Y0051145D01*
X0135713Y0055992D01*
X0141114Y0055992D01*
X0141115Y0055991D01*
X0141817Y0055288D01*
X0142735Y0054908D01*
X0143729Y0054908D01*
X0144647Y0055288D01*
X0144957Y0055598D01*
X0153318Y0055598D01*
X0153629Y0055288D01*
X0154546Y0054908D01*
X0155540Y0054908D01*
X0156458Y0055288D01*
X0157161Y0055991D01*
X0157541Y0056909D01*
X0157541Y0057902D01*
X0157161Y0058820D01*
X0156458Y0059523D01*
X0155540Y0059903D01*
X0154546Y0059903D01*
X0153629Y0059523D01*
X0153318Y0059213D01*
X0144957Y0059213D01*
X0144647Y0059523D01*
X0143729Y0059903D01*
X0142735Y0059903D01*
X0142019Y0059606D01*
X0134216Y0059606D01*
X0133157Y0058548D01*
X0127252Y0052642D01*
X0127252Y0051842D01*
X0126800Y0052029D01*
X0125806Y0052029D01*
X0124888Y0051649D01*
X0124186Y0050946D01*
X0123806Y0050028D01*
X0123806Y0049983D01*
X0122405Y0048583D01*
X0119642Y0048583D01*
X0120456Y0049396D01*
X0120894Y0049396D01*
X0121812Y0049776D01*
X0122515Y0050479D01*
X0122895Y0051397D01*
X0122895Y0052391D01*
X0122515Y0053308D01*
X0121812Y0054011D01*
X0120894Y0054391D01*
X0119901Y0054391D01*
X0118983Y0054011D01*
X0118280Y0053308D01*
X0117900Y0052391D01*
X0117900Y0052126D01*
X0111493Y0052126D01*
X0111183Y0052436D01*
X0110265Y0052817D01*
X0109271Y0052817D01*
X0108353Y0052436D01*
X0107650Y0051734D01*
X0107270Y0050816D01*
X0107270Y0049822D01*
X0107650Y0048904D01*
X0108353Y0048202D01*
X0108617Y0048092D01*
X0108483Y0048092D01*
X0107566Y0047712D01*
X0106863Y0047009D01*
X0106483Y0046091D01*
X0106483Y0045098D01*
X0106551Y0044933D01*
X0105681Y0044933D01*
X0105524Y0045024D01*
X0105142Y0045126D01*
X0104256Y0045126D01*
X0104256Y0040280D01*
X0104256Y0040280D01*
X0104256Y0045126D01*
X0103369Y0045126D01*
X0103075Y0045047D01*
X0102780Y0045126D01*
X0102029Y0045126D01*
X0102029Y0046091D01*
X0101649Y0047009D01*
X0100946Y0047712D01*
X0100028Y0048092D01*
X0099035Y0048092D01*
X0098117Y0047712D01*
X0097414Y0047009D01*
X0097034Y0046091D01*
X0097034Y0045098D01*
X0097102Y0044933D01*
X0096232Y0044933D01*
X0096075Y0045024D01*
X0095694Y0045126D01*
X0094807Y0045126D01*
X0093921Y0045126D01*
X0093626Y0045047D01*
X0093331Y0045126D01*
X0092445Y0045126D01*
X0092445Y0040280D01*
X0092445Y0040280D01*
X0092445Y0045126D01*
X0092429Y0045126D01*
X0092580Y0045491D01*
X0092580Y0046485D01*
X0092200Y0047403D01*
X0091497Y0048106D01*
X0090579Y0048486D01*
X0089586Y0048486D01*
X0088668Y0048106D01*
X0087965Y0047403D01*
X0087585Y0046485D01*
X0087585Y0045491D01*
X0087816Y0044933D01*
X0086783Y0044933D01*
X0086626Y0045024D01*
X0086245Y0045126D01*
X0085358Y0045126D01*
X0084472Y0045126D01*
X0084177Y0045047D01*
X0083883Y0045126D01*
X0082996Y0045126D01*
X0082110Y0045126D01*
X0081728Y0045024D01*
X0081571Y0044933D01*
X0080538Y0044933D01*
X0080769Y0045491D01*
X0080769Y0046485D01*
X0080389Y0047403D01*
X0079686Y0048106D01*
X0078768Y0048486D01*
X0077775Y0048486D01*
X0076857Y0048106D01*
X0076154Y0047403D01*
X0075774Y0046485D01*
X0075774Y0045491D01*
X0075925Y0045126D01*
X0075909Y0045126D01*
X0075023Y0045126D01*
X0074728Y0045047D01*
X0074434Y0045126D01*
X0073547Y0045126D01*
X0072992Y0045126D01*
X0072992Y0047413D01*
X0073302Y0047723D01*
X0073683Y0048641D01*
X0073683Y0049635D01*
X0073302Y0050553D01*
X0072600Y0051255D01*
X0071682Y0051635D01*
X0070688Y0051635D01*
X0069770Y0051255D01*
X0069068Y0050553D01*
X0068687Y0049635D01*
X0068687Y0048641D01*
X0069068Y0047723D01*
X0069378Y0047413D01*
X0069378Y0044933D01*
X0067886Y0044933D01*
X0067729Y0045024D01*
X0067347Y0045126D01*
X0066461Y0045126D01*
X0066461Y0040280D01*
X0066461Y0040280D01*
X0066461Y0045126D01*
X0065574Y0045126D01*
X0065280Y0045047D01*
X0064985Y0045126D01*
X0064098Y0045126D01*
X0063543Y0045126D01*
X0063543Y0047413D01*
X0063854Y0047723D01*
X0064234Y0048641D01*
X0064234Y0049635D01*
X0063854Y0050553D01*
X0063151Y0051255D01*
X0062233Y0051635D01*
X0061239Y0051635D01*
X0060321Y0051255D01*
X0059619Y0050553D01*
X0059374Y0049962D01*
X0059129Y0050553D01*
X0058427Y0051255D01*
X0057509Y0051635D01*
X0056515Y0051635D01*
X0055597Y0051255D01*
X0054894Y0050553D01*
X0054650Y0049962D01*
X0054405Y0050553D01*
X0053702Y0051255D01*
X0052784Y0051635D01*
X0051791Y0051635D01*
X0050873Y0051255D01*
X0050170Y0050553D01*
X0049790Y0049635D01*
X0049790Y0048641D01*
X0049854Y0048486D01*
X0049428Y0048486D01*
X0048510Y0048106D01*
X0047808Y0047403D01*
X0047428Y0046485D01*
X0047428Y0045491D01*
X0047808Y0044573D01*
X0048071Y0044310D01*
X0047929Y0044167D01*
X0047929Y0036392D01*
X0048695Y0035626D01*
X0053225Y0035626D01*
X0053382Y0035535D01*
X0053763Y0035433D01*
X0054650Y0035433D01*
X0055536Y0035433D01*
X0055918Y0035535D01*
X0056075Y0035626D01*
X0062673Y0035626D01*
X0062830Y0035535D01*
X0063212Y0035433D01*
X0064098Y0035433D01*
X0064098Y0040279D01*
X0064098Y0040279D01*
X0064098Y0035433D01*
X0064985Y0035433D01*
X0065280Y0035512D01*
X0065574Y0035433D01*
X0066461Y0035433D01*
X0067347Y0035433D01*
X0067729Y0035535D01*
X0067886Y0035626D01*
X0072122Y0035626D01*
X0072279Y0035535D01*
X0072661Y0035433D01*
X0073547Y0035433D01*
X0073547Y0040279D01*
X0073547Y0040279D01*
X0073547Y0035433D01*
X0074434Y0035433D01*
X0074728Y0035512D01*
X0075023Y0035433D01*
X0075909Y0035433D01*
X0075909Y0040279D01*
X0075909Y0040279D01*
X0073547Y0040279D01*
X0073547Y0040280D01*
X0073547Y0045126D01*
X0073547Y0040280D01*
X0073547Y0040280D01*
X0073547Y0031028D01*
X0071579Y0029059D01*
X0068823Y0029059D01*
X0066461Y0031421D01*
X0064098Y0029059D01*
X0057012Y0029059D01*
X0054650Y0031421D01*
X0054650Y0040280D01*
X0054650Y0040280D01*
X0054650Y0045126D01*
X0055205Y0045126D01*
X0055205Y0047413D01*
X0054894Y0047723D01*
X0054650Y0048314D01*
X0054405Y0047723D01*
X0054094Y0047413D01*
X0054094Y0045126D01*
X0054650Y0045126D01*
X0054650Y0040280D01*
X0054650Y0045988D01*
X0055205Y0046433D02*
X0054094Y0046433D01*
X0054094Y0045434D02*
X0055205Y0045434D01*
X0054650Y0044436D02*
X0054650Y0044436D01*
X0054650Y0043437D02*
X0054650Y0043437D01*
X0054650Y0042439D02*
X0054650Y0042439D01*
X0054650Y0041440D02*
X0054650Y0041440D01*
X0054650Y0040442D02*
X0054650Y0040442D01*
X0054650Y0040279D02*
X0054650Y0035433D01*
X0054650Y0040279D01*
X0054650Y0040279D01*
X0054650Y0039443D02*
X0054650Y0039443D01*
X0054650Y0038445D02*
X0054650Y0038445D01*
X0054650Y0037446D02*
X0054650Y0037446D01*
X0054650Y0036448D02*
X0054650Y0036448D01*
X0054650Y0035449D02*
X0054650Y0035449D01*
X0055597Y0035449D02*
X0063151Y0035449D01*
X0064098Y0035449D02*
X0064098Y0035449D01*
X0065046Y0035449D02*
X0065513Y0035449D01*
X0066461Y0035449D02*
X0066461Y0035449D01*
X0066461Y0035433D02*
X0066461Y0040279D01*
X0066461Y0040279D01*
X0066461Y0035433D01*
X0067408Y0035449D02*
X0072600Y0035449D01*
X0073547Y0035449D02*
X0073547Y0035449D01*
X0074495Y0035449D02*
X0074962Y0035449D01*
X0075909Y0035449D02*
X0075909Y0035449D01*
X0075909Y0035433D02*
X0076796Y0035433D01*
X0077177Y0035535D01*
X0077334Y0035626D01*
X0081571Y0035626D01*
X0081728Y0035535D01*
X0082110Y0035433D01*
X0082996Y0035433D01*
X0082996Y0040279D01*
X0082996Y0040279D01*
X0082996Y0035433D01*
X0083883Y0035433D01*
X0084177Y0035512D01*
X0084472Y0035433D01*
X0085358Y0035433D01*
X0085358Y0040279D01*
X0085358Y0040279D01*
X0082996Y0040279D01*
X0082996Y0040280D01*
X0082996Y0045126D01*
X0082996Y0040280D01*
X0082996Y0040280D01*
X0085185Y0040280D01*
X0085358Y0040280D01*
X0085358Y0045126D01*
X0085358Y0040280D01*
X0085358Y0040280D01*
X0085358Y0040279D01*
X0085358Y0035433D01*
X0086245Y0035433D01*
X0086626Y0035535D01*
X0086783Y0035626D01*
X0091020Y0035626D01*
X0091177Y0035535D01*
X0091558Y0035433D01*
X0092445Y0035433D01*
X0093331Y0035433D01*
X0093626Y0035512D01*
X0093921Y0035433D01*
X0094807Y0035433D01*
X0094807Y0040279D01*
X0094807Y0040279D01*
X0094807Y0035433D01*
X0095694Y0035433D01*
X0096075Y0035535D01*
X0096232Y0035626D01*
X0098677Y0035626D01*
X0098783Y0035520D01*
X0100280Y0035520D01*
X0100386Y0035626D01*
X0100469Y0035626D01*
X0100626Y0035535D01*
X0101007Y0035433D01*
X0101894Y0035433D01*
X0102780Y0035433D01*
X0103075Y0035512D01*
X0103369Y0035433D01*
X0104256Y0035433D01*
X0105142Y0035433D01*
X0105524Y0035535D01*
X0105681Y0035626D01*
X0109917Y0035626D01*
X0110075Y0035535D01*
X0110456Y0035433D01*
X0111342Y0035433D01*
X0111342Y0040279D01*
X0111343Y0040279D01*
X0111343Y0035433D01*
X0112229Y0035433D01*
X0112524Y0035512D01*
X0112818Y0035433D01*
X0113705Y0035433D01*
X0114591Y0035433D01*
X0114973Y0035535D01*
X0115130Y0035626D01*
X0119660Y0035626D01*
X0120097Y0036064D01*
X0120558Y0035603D01*
X0121476Y0035223D01*
X0122469Y0035223D01*
X0123387Y0035603D01*
X0124090Y0036306D01*
X0124470Y0037224D01*
X0124470Y0038217D01*
X0124090Y0039135D01*
X0123387Y0039838D01*
X0122469Y0040218D01*
X0122030Y0040218D01*
X0121807Y0040442D02*
X0128113Y0040442D01*
X0127252Y0041440D02*
X0120808Y0041440D01*
X0120425Y0042439D02*
X0127252Y0042439D01*
X0127252Y0043437D02*
X0120425Y0043437D01*
X0120157Y0044436D02*
X0127252Y0044436D01*
X0127252Y0045434D02*
X0124368Y0045434D01*
X0125367Y0046433D02*
X0127252Y0046433D01*
X0126303Y0049531D02*
X0125909Y0049531D01*
X0123154Y0046776D01*
X0112524Y0046776D01*
X0108980Y0045594D02*
X0108980Y0040280D01*
X0106618Y0040280D01*
X0104256Y0040279D02*
X0104256Y0035433D01*
X0104256Y0040279D01*
X0104256Y0040279D01*
X0101894Y0040279D01*
X0101894Y0035433D01*
X0101894Y0040279D01*
X0101894Y0040279D01*
X0101894Y0040280D01*
X0104083Y0040280D01*
X0104256Y0040280D01*
X0104256Y0040279D01*
X0104256Y0040280D02*
X0104256Y0031028D01*
X0106224Y0029059D01*
X0112130Y0029059D01*
X0113705Y0030634D01*
X0113705Y0040280D01*
X0111343Y0040280D01*
X0113531Y0040280D01*
X0113705Y0040280D01*
X0113705Y0040279D01*
X0113705Y0035433D01*
X0113705Y0040279D01*
X0113705Y0040279D01*
X0111343Y0040279D01*
X0111343Y0040280D01*
X0111342Y0039443D02*
X0111343Y0039443D01*
X0111342Y0038445D02*
X0111343Y0038445D01*
X0111342Y0037446D02*
X0111343Y0037446D01*
X0111342Y0036448D02*
X0111343Y0036448D01*
X0111342Y0035449D02*
X0111343Y0035449D01*
X0112290Y0035449D02*
X0112757Y0035449D01*
X0113705Y0035449D02*
X0113705Y0035449D01*
X0114652Y0035449D02*
X0120929Y0035449D01*
X0123016Y0035449D02*
X0133105Y0035449D01*
X0134104Y0034451D02*
X0003000Y0034451D01*
X0003000Y0035449D02*
X0053702Y0035449D01*
X0052287Y0040280D02*
X0052287Y0049138D01*
X0051284Y0051426D02*
X0003000Y0051426D01*
X0003000Y0052424D02*
X0108341Y0052424D01*
X0107523Y0051426D02*
X0072188Y0051426D01*
X0073354Y0050427D02*
X0107270Y0050427D01*
X0107433Y0049429D02*
X0073683Y0049429D01*
X0073595Y0048430D02*
X0077640Y0048430D01*
X0078903Y0048430D02*
X0089451Y0048430D01*
X0090714Y0048430D02*
X0108124Y0048430D01*
X0107285Y0047432D02*
X0101227Y0047432D01*
X0101888Y0046433D02*
X0106624Y0046433D01*
X0106483Y0045434D02*
X0102029Y0045434D01*
X0104256Y0044436D02*
X0104256Y0044436D01*
X0104256Y0043437D02*
X0104256Y0043437D01*
X0104256Y0042439D02*
X0104256Y0042439D01*
X0104256Y0041440D02*
X0104256Y0041440D01*
X0104256Y0040442D02*
X0104256Y0040442D01*
X0104256Y0040280D02*
X0101894Y0040280D01*
X0101894Y0048744D01*
X0099531Y0045594D02*
X0099531Y0040280D01*
X0099531Y0037327D01*
X0100946Y0035449D02*
X0095754Y0035449D01*
X0094807Y0035449D02*
X0094807Y0035449D01*
X0093860Y0035449D02*
X0093392Y0035449D01*
X0092445Y0035449D02*
X0092445Y0035449D01*
X0092445Y0035433D02*
X0092445Y0040279D01*
X0092445Y0040279D01*
X0092445Y0035433D01*
X0091498Y0035449D02*
X0086306Y0035449D01*
X0085358Y0035449D02*
X0085358Y0035449D01*
X0084411Y0035449D02*
X0083943Y0035449D01*
X0082996Y0035449D02*
X0082996Y0035449D01*
X0082049Y0035449D02*
X0076857Y0035449D01*
X0075909Y0035433D02*
X0075909Y0040279D01*
X0075909Y0040280D01*
X0075909Y0045126D01*
X0075909Y0040280D01*
X0075909Y0040280D01*
X0075736Y0040280D01*
X0073547Y0040280D01*
X0073547Y0045988D01*
X0072992Y0046433D02*
X0075774Y0046433D01*
X0075798Y0045434D02*
X0072992Y0045434D01*
X0073547Y0044436D02*
X0073547Y0044436D01*
X0073547Y0043437D02*
X0073547Y0043437D01*
X0073547Y0042439D02*
X0073547Y0042439D01*
X0073547Y0041440D02*
X0073547Y0041440D01*
X0073547Y0040442D02*
X0073547Y0040442D01*
X0073547Y0040280D02*
X0075909Y0040280D01*
X0075909Y0031421D01*
X0078272Y0029059D01*
X0080634Y0029059D01*
X0082996Y0026697D01*
X0082996Y0020299D01*
X0082996Y0012130D01*
X0082996Y0017839D01*
X0082996Y0022685D01*
X0082110Y0022685D01*
X0081728Y0022583D01*
X0081571Y0022492D01*
X0048695Y0022492D01*
X0047929Y0021726D01*
X0047929Y0013951D01*
X0048067Y0013813D01*
X0047799Y0013545D01*
X0047419Y0012627D01*
X0047419Y0011633D01*
X0047799Y0010715D01*
X0048501Y0010013D01*
X0049419Y0009632D01*
X0049854Y0009632D01*
X0049790Y0009477D01*
X0049790Y0008483D01*
X0050170Y0007566D01*
X0050873Y0006863D01*
X0051791Y0006483D01*
X0052784Y0006483D01*
X0053702Y0006863D01*
X0054405Y0007566D01*
X0054650Y0008157D01*
X0054894Y0007566D01*
X0055597Y0006863D01*
X0056515Y0006483D01*
X0057509Y0006483D01*
X0058427Y0006863D01*
X0059129Y0007566D01*
X0059374Y0008157D01*
X0059619Y0007566D01*
X0060321Y0006863D01*
X0061239Y0006483D01*
X0062233Y0006483D01*
X0063151Y0006863D01*
X0063854Y0007566D01*
X0064098Y0008157D01*
X0064343Y0007566D01*
X0065046Y0006863D01*
X0065964Y0006483D01*
X0066957Y0006483D01*
X0067875Y0006863D01*
X0068578Y0007566D01*
X0068823Y0008157D01*
X0069068Y0007566D01*
X0069770Y0006863D01*
X0070688Y0006483D01*
X0071682Y0006483D01*
X0072600Y0006863D01*
X0073302Y0007566D01*
X0073547Y0008157D01*
X0073792Y0007566D01*
X0074495Y0006863D01*
X0075413Y0006483D01*
X0076406Y0006483D01*
X0077324Y0006863D01*
X0078027Y0007566D01*
X0078272Y0008157D01*
X0078516Y0007566D01*
X0079219Y0006863D01*
X0080137Y0006483D01*
X0081131Y0006483D01*
X0082049Y0006863D01*
X0082751Y0007566D01*
X0083131Y0008483D01*
X0083131Y0009477D01*
X0082751Y0010395D01*
X0082441Y0010705D01*
X0082441Y0012992D01*
X0082996Y0012992D01*
X0082996Y0017838D01*
X0082996Y0017838D01*
X0082996Y0012992D01*
X0083883Y0012992D01*
X0084177Y0013071D01*
X0084472Y0012992D01*
X0085358Y0012992D01*
X0085358Y0017838D01*
X0085358Y0017838D01*
X0085358Y0017839D02*
X0085185Y0017839D01*
X0082996Y0017839D01*
X0082996Y0017839D01*
X0082996Y0022685D01*
X0083883Y0022685D01*
X0084177Y0022606D01*
X0084472Y0022685D01*
X0085358Y0022685D01*
X0085358Y0017839D01*
X0085358Y0017839D01*
X0085358Y0017839D01*
X0082996Y0017839D01*
X0082996Y0017839D01*
X0085358Y0017839D01*
X0085358Y0022685D01*
X0086245Y0022685D01*
X0086539Y0022606D01*
X0086834Y0022685D01*
X0087720Y0022685D01*
X0087720Y0017839D01*
X0087721Y0017839D01*
X0090083Y0017839D01*
X0090083Y0017839D01*
X0090083Y0022685D01*
X0090969Y0022685D01*
X0091351Y0022583D01*
X0091508Y0022492D01*
X0097724Y0022492D01*
X0097724Y0025365D01*
X0097414Y0025676D01*
X0097034Y0026594D01*
X0097034Y0027587D01*
X0097414Y0028505D01*
X0098117Y0029208D01*
X0099035Y0029588D01*
X0100028Y0029588D01*
X0100946Y0029208D01*
X0101649Y0028505D01*
X0102029Y0027587D01*
X0102029Y0026594D01*
X0101649Y0025676D01*
X0101339Y0025365D01*
X0101339Y0022685D01*
X0101894Y0022685D01*
X0101894Y0017839D01*
X0101894Y0017839D01*
X0104256Y0017839D01*
X0104256Y0017839D01*
X0104256Y0022685D01*
X0105142Y0022685D01*
X0105437Y0022606D01*
X0105732Y0022685D01*
X0106618Y0022685D01*
X0106618Y0017839D01*
X0106618Y0017839D01*
X0106618Y0022685D01*
X0107505Y0022685D01*
X0107799Y0022606D01*
X0108094Y0022685D01*
X0108980Y0022685D01*
X0108980Y0017839D01*
X0108980Y0017839D01*
X0108980Y0017839D01*
X0106618Y0017839D01*
X0106618Y0017839D01*
X0104256Y0017839D01*
X0104256Y0022685D01*
X0103369Y0022685D01*
X0103075Y0022606D01*
X0102780Y0022685D01*
X0101894Y0022685D01*
X0101894Y0017839D01*
X0101894Y0017839D01*
X0101894Y0011736D01*
X0101894Y0012992D02*
X0101007Y0012992D01*
X0100626Y0013094D01*
X0100469Y0013185D01*
X0091508Y0013185D01*
X0091351Y0013094D01*
X0090969Y0012992D01*
X0090083Y0012992D01*
X0090083Y0017838D01*
X0090083Y0017838D01*
X0090083Y0012992D01*
X0089196Y0012992D01*
X0088902Y0013071D01*
X0088607Y0012992D01*
X0087721Y0012992D01*
X0087721Y0017838D01*
X0087721Y0017839D02*
X0087721Y0017839D01*
X0087721Y0022685D01*
X0088607Y0022685D01*
X0088902Y0022606D01*
X0089196Y0022685D01*
X0090083Y0022685D01*
X0090083Y0017839D01*
X0087720Y0017839D01*
X0087720Y0017839D01*
X0085358Y0017839D01*
X0087720Y0017839D01*
X0085531Y0017839D01*
X0085358Y0017839D01*
X0085358Y0017839D01*
X0085358Y0017838D02*
X0085358Y0012992D01*
X0086245Y0012992D01*
X0086539Y0013071D01*
X0086834Y0012992D01*
X0087720Y0012992D01*
X0087720Y0017838D01*
X0087721Y0017838D01*
X0087721Y0017839D02*
X0087894Y0017839D01*
X0090083Y0017839D01*
X0090083Y0017839D01*
X0090083Y0017476D02*
X0090083Y0017476D01*
X0090083Y0016478D02*
X0090083Y0016478D01*
X0090083Y0015479D02*
X0090083Y0015479D01*
X0090083Y0014481D02*
X0090083Y0014481D01*
X0090083Y0013482D02*
X0090083Y0013482D01*
X0087721Y0013482D02*
X0087720Y0013482D01*
X0087720Y0014481D02*
X0087721Y0014481D01*
X0087720Y0015479D02*
X0087721Y0015479D01*
X0087720Y0016478D02*
X0087721Y0016478D01*
X0087720Y0017476D02*
X0087721Y0017476D01*
X0087720Y0018475D02*
X0087721Y0018475D01*
X0087720Y0019473D02*
X0087721Y0019473D01*
X0087720Y0020299D02*
X0082996Y0020299D01*
X0082996Y0020472D02*
X0082996Y0020472D01*
X0082996Y0021470D02*
X0082996Y0021470D01*
X0082996Y0022469D02*
X0082996Y0022469D01*
X0085358Y0022469D02*
X0085358Y0022469D01*
X0085358Y0021470D02*
X0085358Y0021470D01*
X0085358Y0020472D02*
X0085358Y0020472D01*
X0085358Y0019473D02*
X0085358Y0019473D01*
X0085358Y0018475D02*
X0085358Y0018475D01*
X0085358Y0017476D02*
X0085358Y0017476D01*
X0085358Y0016478D02*
X0085358Y0016478D01*
X0085358Y0015479D02*
X0085358Y0015479D01*
X0085358Y0014481D02*
X0085358Y0014481D01*
X0085358Y0013482D02*
X0085358Y0013482D01*
X0082996Y0013482D02*
X0082996Y0013482D01*
X0082996Y0014481D02*
X0082996Y0014481D01*
X0082996Y0015479D02*
X0082996Y0015479D01*
X0082996Y0016478D02*
X0082996Y0016478D01*
X0082996Y0017476D02*
X0082996Y0017476D01*
X0082996Y0018475D02*
X0082996Y0018475D01*
X0082996Y0019473D02*
X0082996Y0019473D01*
X0080634Y0017839D02*
X0080634Y0008980D01*
X0082660Y0010487D02*
X0115999Y0010487D01*
X0115931Y0010649D02*
X0116312Y0009731D01*
X0117014Y0009028D01*
X0117932Y0008648D01*
X0118926Y0008648D01*
X0119844Y0009028D01*
X0120154Y0009339D01*
X0128201Y0009339D01*
X0127736Y0008217D01*
X0127736Y0006594D01*
X0128357Y0005095D01*
X0129505Y0003948D01*
X0131004Y0003327D01*
X0132626Y0003327D01*
X0134125Y0003948D01*
X0135273Y0005095D01*
X0135752Y0006252D01*
X0136231Y0005095D01*
X0137379Y0003948D01*
X0138878Y0003327D01*
X0140500Y0003327D01*
X0141999Y0003948D01*
X0143147Y0005095D01*
X0143768Y0006594D01*
X0143768Y0008217D01*
X0143147Y0009716D01*
X0141999Y0010863D01*
X0140500Y0011484D01*
X0138878Y0011484D01*
X0137379Y0010863D01*
X0136231Y0009716D01*
X0135752Y0008559D01*
X0135273Y0009716D01*
X0134125Y0010863D01*
X0132626Y0011484D01*
X0131166Y0011484D01*
X0132244Y0012562D01*
X0132244Y0013751D01*
X0132554Y0014062D01*
X0132935Y0014980D01*
X0132935Y0015973D01*
X0132554Y0016891D01*
X0131852Y0017594D01*
X0130934Y0017974D01*
X0129940Y0017974D01*
X0129022Y0017594D01*
X0128320Y0016891D01*
X0127939Y0015973D01*
X0127939Y0014980D01*
X0128320Y0014062D01*
X0128476Y0013905D01*
X0127523Y0012953D01*
X0120236Y0012953D01*
X0120236Y0013762D01*
X0120425Y0013951D01*
X0120425Y0021726D01*
X0119660Y0022492D01*
X0110405Y0022492D01*
X0110248Y0022583D01*
X0109867Y0022685D01*
X0108980Y0022685D01*
X0108980Y0017839D01*
X0108807Y0017839D01*
X0106618Y0017839D01*
X0106618Y0017839D01*
X0104256Y0017839D01*
X0104256Y0017839D01*
X0101894Y0017839D01*
X0102067Y0017839D01*
X0104256Y0017839D01*
X0104256Y0017839D01*
X0104429Y0017839D01*
X0106618Y0017839D01*
X0108980Y0017839D01*
X0108980Y0017838D02*
X0108980Y0017838D01*
X0108980Y0012992D01*
X0108094Y0012992D01*
X0107799Y0013071D01*
X0107505Y0012992D01*
X0106618Y0012992D01*
X0106618Y0017838D01*
X0106618Y0017838D01*
X0106618Y0012992D01*
X0105732Y0012992D01*
X0105437Y0013071D01*
X0105142Y0012992D01*
X0104256Y0012992D01*
X0104256Y0017838D01*
X0104256Y0017838D01*
X0104256Y0012992D01*
X0103369Y0012992D01*
X0103075Y0013071D01*
X0102780Y0012992D01*
X0101894Y0012992D01*
X0101894Y0017838D01*
X0101894Y0017838D01*
X0101894Y0012992D01*
X0101894Y0013482D02*
X0101894Y0013482D01*
X0101894Y0014481D02*
X0101894Y0014481D01*
X0101894Y0015479D02*
X0101894Y0015479D01*
X0101894Y0016478D02*
X0101894Y0016478D01*
X0101894Y0017476D02*
X0101894Y0017476D01*
X0101894Y0018475D02*
X0101894Y0018475D01*
X0101894Y0019473D02*
X0101894Y0019473D01*
X0101894Y0020472D02*
X0101894Y0020472D01*
X0101894Y0021470D02*
X0101894Y0021470D01*
X0101894Y0022469D02*
X0101894Y0022469D01*
X0101339Y0023467D02*
X0134739Y0023467D01*
X0134634Y0023528D02*
X0134976Y0023331D01*
X0135358Y0023228D01*
X0137220Y0023228D01*
X0137220Y0026984D01*
X0134055Y0026984D01*
X0134055Y0024531D01*
X0134157Y0024149D01*
X0134355Y0023807D01*
X0134634Y0023528D01*
X0134073Y0024466D02*
X0101339Y0024466D01*
X0101437Y0025464D02*
X0134055Y0025464D01*
X0134055Y0026463D02*
X0101975Y0026463D01*
X0102029Y0027461D02*
X0137220Y0027461D01*
X0137220Y0026984D02*
X0137220Y0027984D01*
X0134055Y0027984D01*
X0134055Y0030438D01*
X0134157Y0030819D01*
X0134355Y0031161D01*
X0134634Y0031440D01*
X0134976Y0031638D01*
X0135358Y0031740D01*
X0137220Y0031740D01*
X0137220Y0027984D01*
X0138220Y0027984D01*
X0138220Y0031740D01*
X0140083Y0031740D01*
X0140465Y0031638D01*
X0140807Y0031440D01*
X0141086Y0031161D01*
X0141284Y0030819D01*
X0141386Y0030438D01*
X0141386Y0027984D01*
X0138221Y0027984D01*
X0138221Y0026984D01*
X0141386Y0026984D01*
X0141386Y0024531D01*
X0141284Y0024149D01*
X0141086Y0023807D01*
X0140807Y0023528D01*
X0140465Y0023331D01*
X0140083Y0023228D01*
X0138220Y0023228D01*
X0138220Y0026984D01*
X0137220Y0026984D01*
X0137220Y0026463D02*
X0138220Y0026463D01*
X0138221Y0027461D02*
X0142122Y0027461D01*
X0142122Y0026463D02*
X0141386Y0026463D01*
X0141386Y0025464D02*
X0142122Y0025464D01*
X0142122Y0024466D02*
X0141368Y0024466D01*
X0140702Y0023467D02*
X0142842Y0023467D01*
X0146121Y0020157D02*
X0144654Y0017615D01*
X0143894Y0014779D01*
X0143894Y0011843D01*
X0144654Y0009007D01*
X0146121Y0006465D01*
X0148197Y0004389D01*
X0150603Y0003000D01*
X0017751Y0003000D01*
X0020157Y0004389D01*
X0022233Y0006465D01*
X0023701Y0009007D01*
X0024461Y0011843D01*
X0024461Y0014779D01*
X0023701Y0017615D01*
X0022233Y0020157D01*
X0020157Y0022233D01*
X0017615Y0023701D01*
X0014779Y0024461D01*
X0011843Y0024461D01*
X0009007Y0023701D01*
X0006465Y0022233D01*
X0004389Y0020157D01*
X0003000Y0017751D01*
X0003000Y0150603D01*
X0004389Y0148197D01*
X0006465Y0146121D01*
X0009007Y0144654D01*
X0011843Y0143894D01*
X0014779Y0143894D01*
X0017615Y0144654D01*
X0020157Y0146121D01*
X0022233Y0148197D01*
X0023701Y0150740D01*
X0024461Y0153575D01*
X0024461Y0156511D01*
X0023701Y0159347D01*
X0022233Y0161889D01*
X0020157Y0163965D01*
X0017751Y0165354D01*
X0150603Y0165354D01*
X0148197Y0163965D01*
X0146121Y0161889D01*
X0144654Y0159347D01*
X0143894Y0156511D01*
X0143894Y0153575D01*
X0144654Y0150740D01*
X0146121Y0148197D01*
X0146636Y0147683D01*
X0145754Y0147318D01*
X0145052Y0146616D01*
X0144672Y0145698D01*
X0144672Y0144704D01*
X0145052Y0143786D01*
X0145754Y0143083D01*
X0146672Y0142703D01*
X0146798Y0142703D01*
X0146756Y0142630D01*
X0146654Y0142249D01*
X0146654Y0139795D01*
X0149819Y0139795D01*
X0149819Y0138795D01*
X0150819Y0138795D01*
X0150819Y0135039D01*
X0152682Y0135039D01*
X0153063Y0135142D01*
X0153405Y0135339D01*
X0153685Y0135618D01*
X0153882Y0135960D01*
X0153984Y0136342D01*
X0153984Y0138795D01*
X0150819Y0138795D01*
X0150819Y0139795D01*
X0153984Y0139795D01*
X0153984Y0141819D01*
X0154720Y0141819D01*
X0154720Y0135998D01*
X0155486Y0135232D01*
X0156386Y0135232D01*
X0156386Y0132036D01*
X0156064Y0132358D01*
X0155146Y0132738D01*
X0154153Y0132738D01*
X0153235Y0132358D01*
X0152924Y0132047D01*
X0150280Y0132047D01*
X0148189Y0134138D01*
X0147130Y0135197D01*
X0143555Y0135197D01*
X0143555Y0136293D01*
X0143446Y0136403D01*
X0143448Y0136406D01*
X0143646Y0136748D01*
X0143748Y0137129D01*
X0143748Y0139386D01*
X0139795Y0139386D01*
X0139795Y0140386D01*
X0138795Y0140386D01*
X0138795Y0139386D01*
X0134843Y0139386D01*
X0134843Y0137129D01*
X0134945Y0136748D01*
X0135142Y0136406D01*
X0135145Y0136403D01*
X0135035Y0136293D01*
X0135035Y0130092D01*
X0135801Y0129327D01*
X0142789Y0129327D01*
X0143555Y0130092D01*
X0143555Y0131583D01*
X0145633Y0131583D01*
X0148783Y0128433D01*
X0152924Y0128433D01*
X0153235Y0128123D01*
X0154153Y0127743D01*
X0155146Y0127743D01*
X0155766Y0127999D01*
X0156076Y0127251D01*
X0156778Y0126548D01*
X0157696Y0126168D01*
X0157961Y0126168D01*
X0157961Y0120823D01*
X0157760Y0121024D01*
X0140655Y0121024D01*
X0141005Y0121869D01*
X0141005Y0122863D01*
X0140625Y0123781D01*
X0139923Y0124484D01*
X0139005Y0124864D01*
X0138566Y0124864D01*
X0134016Y0129414D01*
X0134016Y0142484D01*
X0134138Y0142606D01*
X0135197Y0143665D01*
X0135197Y0144484D01*
X0136687Y0144484D01*
X0136797Y0144594D01*
X0136799Y0144591D01*
X0137141Y0144394D01*
X0137523Y0144291D01*
X0139780Y0144291D01*
X0139780Y0148244D01*
X0140779Y0148244D01*
X0140779Y0144291D01*
X0143036Y0144291D01*
X0143418Y0144394D01*
X0143760Y0144591D01*
X0144039Y0144870D01*
X0144236Y0145212D01*
X0144339Y0145594D01*
X0144339Y0148244D01*
X0140780Y0148244D01*
X0140780Y0149244D01*
X0144339Y0149244D01*
X0144339Y0151894D01*
X0144236Y0152276D01*
X0144039Y0152618D01*
X0143760Y0152897D01*
X0143418Y0153095D01*
X0143036Y0153197D01*
X0140779Y0153197D01*
X0140779Y0149244D01*
X0139780Y0149244D01*
X0139780Y0153197D01*
X0137523Y0153197D01*
X0137141Y0153095D01*
X0136799Y0152897D01*
X0136797Y0152894D01*
X0136687Y0153004D01*
X0135394Y0153004D01*
X0135394Y0156107D01*
X0133605Y0157896D01*
X0133984Y0158812D01*
X0133984Y0160724D01*
X0133252Y0162491D01*
X0131900Y0163843D01*
X0130133Y0164575D01*
X0128221Y0164575D01*
X0126454Y0163843D01*
X0125102Y0162491D01*
X0124370Y0160724D01*
X0124370Y0158812D01*
X0124749Y0157896D01*
X0121479Y0154625D01*
X0121352Y0154752D01*
X0110984Y0154752D01*
X0110984Y0155313D01*
X0111900Y0155692D01*
X0113252Y0157045D01*
X0113984Y0158812D01*
X0113984Y0160724D01*
X0113252Y0162491D01*
X0111900Y0163843D01*
X0110133Y0164575D01*
X0108221Y0164575D01*
X0106454Y0163843D01*
X0105102Y0162491D01*
X0104370Y0160724D01*
X0104370Y0158812D01*
X0105102Y0157045D01*
X0106454Y0155692D01*
X0107370Y0155313D01*
X0107370Y0154752D01*
X0105270Y0154752D01*
X0104504Y0153987D01*
X0104504Y0143604D01*
X0105270Y0142838D01*
X0121352Y0142838D01*
X0122118Y0143604D01*
X0122118Y0150153D01*
X0127305Y0155340D01*
X0128221Y0154961D01*
X0130133Y0154961D01*
X0131049Y0155340D01*
X0131780Y0154610D01*
X0131780Y0153004D01*
X0130486Y0153004D01*
X0129720Y0152238D01*
X0129720Y0145250D01*
X0130486Y0144484D01*
X0130905Y0144484D01*
X0130402Y0143981D01*
X0130402Y0127917D01*
X0136010Y0122308D01*
X0136010Y0121869D01*
X0136361Y0121024D01*
X0135791Y0121024D01*
X0134732Y0119965D01*
X0126858Y0112091D01*
X0126858Y0111521D01*
X0126142Y0111818D01*
X0126142Y0121540D01*
X0124567Y0123115D01*
X0123508Y0124173D01*
X0121687Y0124173D01*
X0122118Y0124604D01*
X0122118Y0125381D01*
X0122132Y0125367D01*
X0123050Y0124987D01*
X0124044Y0124987D01*
X0124962Y0125367D01*
X0125665Y0126069D01*
X0126045Y0126987D01*
X0126045Y0127981D01*
X0125665Y0128899D01*
X0125354Y0129209D01*
X0125354Y0130201D01*
X0124961Y0130595D01*
X0123902Y0131654D01*
X0122118Y0131654D01*
X0122118Y0134987D01*
X0121352Y0135752D01*
X0109411Y0135752D01*
X0110001Y0135997D01*
X0110704Y0136699D01*
X0111084Y0137617D01*
X0111084Y0138611D01*
X0110704Y0139529D01*
X0110001Y0140232D01*
X0109083Y0140612D01*
X0108090Y0140612D01*
X0107172Y0140232D01*
X0106469Y0139529D01*
X0106142Y0138740D01*
X0103901Y0138740D01*
X0102843Y0137682D01*
X0099693Y0134532D01*
X0099693Y0130989D01*
X0096027Y0127323D01*
X0088469Y0127323D01*
X0087953Y0127839D01*
X0087953Y0133239D01*
X0088012Y0133299D01*
X0088940Y0132370D01*
X0089145Y0132370D01*
X0089455Y0132060D01*
X0090373Y0131680D01*
X0091367Y0131680D01*
X0092285Y0132060D01*
X0092987Y0132762D01*
X0093368Y0133680D01*
X0093368Y0134674D01*
X0092987Y0135592D01*
X0092285Y0136295D01*
X0091367Y0136675D01*
X0090984Y0136675D01*
X0090984Y0155313D01*
X0091900Y0155692D01*
X0093252Y0157045D01*
X0093984Y0158812D01*
X0093984Y0160724D01*
X0093252Y0162491D01*
X0091900Y0163843D01*
X0090133Y0164575D01*
X0088221Y0164575D01*
X0086454Y0163843D01*
X0085102Y0162491D01*
X0084370Y0160724D01*
X0084370Y0158812D01*
X0085102Y0157045D01*
X0086454Y0155692D01*
X0087370Y0155313D01*
X0087370Y0137161D01*
X0086642Y0137462D01*
X0085649Y0137462D01*
X0084803Y0137112D01*
X0084803Y0137964D01*
X0085113Y0138274D01*
X0085494Y0139192D01*
X0085494Y0140186D01*
X0085113Y0141104D01*
X0084411Y0141806D01*
X0083493Y0142187D01*
X0082499Y0142187D01*
X0081581Y0141806D01*
X0080879Y0141104D01*
X0080498Y0140186D01*
X0080498Y0139192D01*
X0080879Y0138274D01*
X0081189Y0137964D01*
X0081189Y0126847D01*
X0080879Y0126537D01*
X0080498Y0125619D01*
X0080498Y0124625D01*
X0080686Y0124173D01*
X0057838Y0124173D01*
X0056780Y0123115D01*
X0055870Y0122205D01*
X0054811Y0121146D01*
X0054811Y0097524D01*
X0054295Y0097008D01*
X0049099Y0097008D01*
X0048705Y0097402D01*
X0048304Y0097402D01*
X0047994Y0097712D01*
X0047076Y0098092D01*
X0047008Y0098092D01*
X0047008Y0104217D01*
X0046853Y0104372D01*
X0047460Y0104120D01*
X0048454Y0104120D01*
X0049371Y0104501D01*
X0050074Y0105203D01*
X0050454Y0106121D01*
X0050454Y0106876D01*
X0051209Y0106876D01*
X0052127Y0107257D01*
X0052830Y0107959D01*
X0053210Y0108877D01*
X0053210Y0109871D01*
X0052830Y0110789D01*
X0052520Y0111099D01*
X0052520Y0112878D01*
X0051339Y0114060D01*
X0051339Y0130488D01*
X0054380Y0130488D01*
X0055146Y0131254D01*
X0055146Y0147337D01*
X0054380Y0148102D01*
X0043998Y0148102D01*
X0043232Y0147337D01*
X0043232Y0131254D01*
X0043998Y0130488D01*
X0047724Y0130488D01*
X0047724Y0112562D01*
X0048783Y0111504D01*
X0048906Y0111381D01*
X0048906Y0111374D01*
X0048705Y0111575D01*
X0045949Y0114331D01*
X0031996Y0114331D01*
X0031996Y0130488D01*
X0035380Y0130488D01*
X0036146Y0131254D01*
X0036146Y0147337D01*
X0035380Y0148102D01*
X0030984Y0148102D01*
X0030984Y0152055D01*
X0045556Y0152055D01*
X0046614Y0153114D01*
X0048461Y0154961D01*
X0050133Y0154961D01*
X0051900Y0155692D01*
X0053252Y0157045D01*
X0053984Y0158812D01*
X0053984Y0160724D01*
X0053252Y0162491D01*
X0051900Y0163843D01*
X0050133Y0164575D01*
X0048221Y0164575D01*
X0046454Y0163843D01*
X0045102Y0162491D01*
X0044370Y0160724D01*
X0044370Y0158812D01*
X0045102Y0157045D01*
X0045268Y0156879D01*
X0044059Y0155669D01*
X0042043Y0155669D01*
X0042434Y0155954D01*
X0042991Y0156510D01*
X0043454Y0157147D01*
X0043811Y0157848D01*
X0044054Y0158597D01*
X0044160Y0159268D01*
X0039677Y0159268D01*
X0039677Y0160268D01*
X0038677Y0160268D01*
X0038677Y0164751D01*
X0038006Y0164645D01*
X0037258Y0164401D01*
X0036557Y0164044D01*
X0035920Y0163581D01*
X0035363Y0163025D01*
X0034901Y0162388D01*
X0034543Y0161687D01*
X0034300Y0160939D01*
X0034194Y0160268D01*
X0038677Y0160268D01*
X0038677Y0159268D01*
X0034194Y0159268D01*
X0034300Y0158597D01*
X0034543Y0157848D01*
X0034901Y0157147D01*
X0035363Y0156510D01*
X0035920Y0155954D01*
X0036312Y0155669D01*
X0031894Y0155669D01*
X0031880Y0155684D01*
X0031900Y0155692D01*
X0033252Y0157045D01*
X0033984Y0158812D01*
X0033984Y0160724D01*
X0033252Y0162491D01*
X0031900Y0163843D01*
X0030133Y0164575D01*
X0028221Y0164575D01*
X0026454Y0163843D01*
X0025102Y0162491D01*
X0024370Y0160724D01*
X0024370Y0158812D01*
X0025102Y0157045D01*
X0026454Y0155692D01*
X0027370Y0155313D01*
X0027370Y0148102D01*
X0024998Y0148102D01*
X0024232Y0147337D01*
X0024232Y0131254D01*
X0024998Y0130488D01*
X0028382Y0130488D01*
X0028382Y0114198D01*
X0028123Y0113938D01*
X0027743Y0113020D01*
X0027743Y0112027D01*
X0028123Y0111109D01*
X0028825Y0110406D01*
X0029743Y0110026D01*
X0030737Y0110026D01*
X0031655Y0110406D01*
X0031965Y0110717D01*
X0044452Y0110717D01*
X0046150Y0109019D01*
X0046150Y0108343D01*
X0045839Y0108033D01*
X0045459Y0107115D01*
X0045459Y0106121D01*
X0045710Y0105514D01*
X0041225Y0110000D01*
X0041020Y0110000D01*
X0040710Y0110310D01*
X0039792Y0110691D01*
X0038798Y0110691D01*
X0037880Y0110310D01*
X0037178Y0109608D01*
X0036798Y0108690D01*
X0036798Y0107696D01*
X0037178Y0106778D01*
X0037880Y0106076D01*
X0038798Y0105695D01*
X0039792Y0105695D01*
X0040235Y0105879D01*
X0043394Y0102720D01*
X0043394Y0096027D01*
X0044081Y0095340D01*
X0044081Y0095098D01*
X0044461Y0094180D01*
X0045164Y0093477D01*
X0046082Y0093097D01*
X0047076Y0093097D01*
X0047792Y0093394D01*
X0055792Y0093394D01*
X0056850Y0094452D01*
X0056850Y0094452D01*
X0058425Y0096027D01*
X0058425Y0119649D01*
X0059335Y0120559D01*
X0122011Y0120559D01*
X0122528Y0120043D01*
X0122528Y0109807D01*
X0123018Y0109316D01*
X0123018Y0108877D01*
X0123398Y0107959D01*
X0124101Y0107257D01*
X0125019Y0106876D01*
X0126013Y0106876D01*
X0126858Y0107227D01*
X0126858Y0087078D01*
X0126406Y0087265D01*
X0125413Y0087265D01*
X0124495Y0086885D01*
X0124249Y0086639D01*
X0124249Y0088656D01*
X0123483Y0089422D01*
X0117800Y0089422D01*
X0117755Y0089377D01*
X0117521Y0089512D01*
X0117139Y0089615D01*
X0115657Y0089615D01*
X0115809Y0089980D01*
X0115809Y0090973D01*
X0115428Y0091891D01*
X0114726Y0092594D01*
X0113937Y0092920D01*
X0113937Y0104641D01*
X0117553Y0104641D01*
X0118318Y0105407D01*
X0118318Y0119089D01*
X0117553Y0119855D01*
X0110770Y0119855D01*
X0110161Y0119247D01*
X0109553Y0119855D01*
X0102770Y0119855D01*
X0102004Y0119089D01*
X0102004Y0105407D01*
X0102770Y0104641D01*
X0106386Y0104641D01*
X0106386Y0094332D01*
X0105991Y0094169D01*
X0105288Y0093466D01*
X0104908Y0092548D01*
X0104908Y0091554D01*
X0105288Y0090636D01*
X0105991Y0089934D01*
X0106909Y0089554D01*
X0107902Y0089554D01*
X0108820Y0089934D01*
X0109523Y0090636D01*
X0109903Y0091554D01*
X0109903Y0091993D01*
X0110000Y0092090D01*
X0110000Y0105088D01*
X0110161Y0105250D01*
X0110323Y0105088D01*
X0110323Y0090909D01*
X0110813Y0090418D01*
X0110813Y0089980D01*
X0111186Y0089080D01*
X0111141Y0089036D01*
X0110944Y0088694D01*
X0110842Y0088312D01*
X0110842Y0085465D01*
X0114142Y0085465D01*
X0114142Y0088117D01*
X0114726Y0088359D01*
X0115142Y0088775D01*
X0115142Y0085465D01*
X0114142Y0085465D01*
X0114142Y0084465D01*
X0110842Y0084465D01*
X0110842Y0081617D01*
X0110944Y0081236D01*
X0111141Y0080894D01*
X0111421Y0080614D01*
X0111763Y0080417D01*
X0112144Y0080315D01*
X0114142Y0080315D01*
X0114142Y0084465D01*
X0115142Y0084465D01*
X0115142Y0080315D01*
X0117139Y0080315D01*
X0117521Y0080417D01*
X0117755Y0080552D01*
X0117800Y0080507D01*
X0123483Y0080507D01*
X0124249Y0081273D01*
X0124249Y0082896D01*
X0124495Y0082650D01*
X0125413Y0082270D01*
X0126406Y0082270D01*
X0126858Y0082457D01*
X0126858Y0078110D01*
X0119367Y0078110D01*
X0119057Y0078421D01*
X0118139Y0078801D01*
X0117145Y0078801D01*
X0116227Y0078421D01*
X0115524Y0077718D01*
X0115144Y0076800D01*
X0115144Y0075806D01*
X0115524Y0074888D01*
X0116227Y0074186D01*
X0117145Y0073806D01*
X0118139Y0073806D01*
X0119057Y0074186D01*
X0119367Y0074496D01*
X0125600Y0074496D01*
X0124996Y0073892D01*
X0124996Y0068478D01*
X0125762Y0067713D01*
X0132356Y0067713D01*
X0133122Y0068478D01*
X0133122Y0073892D01*
X0132356Y0074657D01*
X0130866Y0074657D01*
X0130866Y0074890D01*
X0141901Y0074890D01*
X0142211Y0074579D01*
X0143129Y0074199D01*
X0144123Y0074199D01*
X0145041Y0074579D01*
X0145743Y0075282D01*
X0146124Y0076200D01*
X0146124Y0077194D01*
X0145936Y0077646D01*
X0149746Y0077646D01*
X0149396Y0076800D01*
X0149396Y0075806D01*
X0149776Y0074888D01*
X0150479Y0074186D01*
X0151397Y0073806D01*
X0152391Y0073806D01*
X0153308Y0074186D01*
X0153619Y0074496D01*
X0158548Y0074496D01*
X0160910Y0076858D01*
X0161968Y0077917D01*
X0161968Y0088185D01*
X0163065Y0088185D01*
X0163831Y0088951D01*
X0163831Y0094364D01*
X0163065Y0095130D01*
X0156470Y0095130D01*
X0155705Y0094364D01*
X0155705Y0088951D01*
X0156470Y0088185D01*
X0158354Y0088185D01*
X0158354Y0085931D01*
X0157509Y0086281D01*
X0156515Y0086281D01*
X0155597Y0085901D01*
X0154894Y0085198D01*
X0154514Y0084280D01*
X0154514Y0083287D01*
X0154894Y0082369D01*
X0155205Y0082058D01*
X0155205Y0081382D01*
X0155082Y0081260D01*
X0145039Y0081260D01*
X0145039Y0082058D01*
X0145350Y0082369D01*
X0145730Y0083287D01*
X0145730Y0084280D01*
X0145350Y0085198D01*
X0144647Y0085901D01*
X0143729Y0086281D01*
X0142735Y0086281D01*
X0142374Y0086131D01*
X0142374Y0091805D01*
X0142264Y0091915D01*
X0142267Y0091918D01*
X0142465Y0092260D01*
X0142567Y0092641D01*
X0142567Y0094898D01*
X0138614Y0094898D01*
X0138614Y0095898D01*
X0142567Y0095898D01*
X0142567Y0098154D01*
X0142465Y0098536D01*
X0142267Y0098878D01*
X0141988Y0099157D01*
X0141742Y0099299D01*
X0144263Y0099299D01*
X0144573Y0098989D01*
X0145491Y0098609D01*
X0146485Y0098609D01*
X0147403Y0098989D01*
X0148106Y0099691D01*
X0148486Y0100609D01*
X0148486Y0101603D01*
X0148106Y0102521D01*
X0147403Y0103224D01*
X0146485Y0103604D01*
X0145491Y0103604D01*
X0144573Y0103224D01*
X0144263Y0102913D01*
X0137639Y0102913D01*
X0137476Y0103308D01*
X0136773Y0104011D01*
X0135855Y0104391D01*
X0135293Y0104391D01*
X0137288Y0106386D01*
X0141696Y0106386D01*
X0143394Y0104688D01*
X0144452Y0103630D01*
X0156657Y0103630D01*
X0157283Y0103004D01*
X0156470Y0103004D01*
X0155705Y0102238D01*
X0155705Y0096825D01*
X0156470Y0096059D01*
X0163065Y0096059D01*
X0163831Y0096825D01*
X0163831Y0102238D01*
X0163065Y0103004D01*
X0161575Y0103004D01*
X0161575Y0103823D01*
X0160516Y0104882D01*
X0158154Y0107244D01*
X0145949Y0107244D01*
X0143658Y0109535D01*
X0151366Y0109535D01*
X0151708Y0108710D01*
X0152410Y0108007D01*
X0153328Y0107627D01*
X0154322Y0107627D01*
X0155240Y0108007D01*
X0155943Y0108710D01*
X0156323Y0109628D01*
X0156323Y0110621D01*
X0155943Y0111539D01*
X0155240Y0112242D01*
X0154322Y0112622D01*
X0153883Y0112622D01*
X0153356Y0113150D01*
X0133035Y0113150D01*
X0131757Y0111872D01*
X0131750Y0111872D01*
X0137288Y0117409D01*
X0156263Y0117409D01*
X0158165Y0115507D01*
X0158165Y0112485D01*
X0157650Y0111970D01*
X0157270Y0111052D01*
X0157270Y0110058D01*
X0157650Y0109140D01*
X0158353Y0108438D01*
X0159271Y0108057D01*
X0160265Y0108057D01*
X0161183Y0108438D01*
X0161885Y0109140D01*
X0162265Y0110058D01*
X0162265Y0111052D01*
X0161885Y0111970D01*
X0161370Y0112485D01*
X0161370Y0115507D01*
X0161575Y0115712D01*
X0161575Y0125948D01*
X0165354Y0129728D01*
X0165354Y0017751D01*
X0163965Y0020157D01*
X0161889Y0022233D01*
X0159347Y0023701D01*
X0156511Y0024461D01*
X0153575Y0024461D01*
X0150740Y0023701D01*
X0148197Y0022233D01*
X0146121Y0020157D01*
X0146436Y0020472D02*
X0120425Y0020472D01*
X0120425Y0021470D02*
X0147435Y0021470D01*
X0148606Y0022469D02*
X0119683Y0022469D01*
X0118429Y0020299D02*
X0118429Y0017839D01*
X0118429Y0011146D01*
X0128272Y0011146D01*
X0130437Y0013311D01*
X0130437Y0015476D01*
X0132935Y0015479D02*
X0144081Y0015479D01*
X0143894Y0014481D02*
X0132728Y0014481D01*
X0132244Y0013482D02*
X0143894Y0013482D01*
X0143894Y0012484D02*
X0132165Y0012484D01*
X0131167Y0011485D02*
X0143990Y0011485D01*
X0144257Y0010487D02*
X0142376Y0010487D01*
X0143241Y0009488D02*
X0144525Y0009488D01*
X0144953Y0008490D02*
X0143655Y0008490D01*
X0143768Y0007491D02*
X0145529Y0007491D01*
X0146105Y0006493D02*
X0143726Y0006493D01*
X0143312Y0005494D02*
X0147092Y0005494D01*
X0148091Y0004496D02*
X0142547Y0004496D01*
X0140911Y0003497D02*
X0149742Y0003497D01*
X0138467Y0003497D02*
X0133037Y0003497D01*
X0134673Y0004496D02*
X0136831Y0004496D01*
X0136066Y0005494D02*
X0135438Y0005494D01*
X0135367Y0009488D02*
X0136137Y0009488D01*
X0137002Y0010487D02*
X0134502Y0010487D01*
X0132726Y0016478D02*
X0144349Y0016478D01*
X0144616Y0017476D02*
X0131969Y0017476D01*
X0128905Y0017476D02*
X0120425Y0017476D01*
X0120425Y0016478D02*
X0128148Y0016478D01*
X0127939Y0015479D02*
X0120425Y0015479D01*
X0120425Y0014481D02*
X0128146Y0014481D01*
X0128053Y0013482D02*
X0120236Y0013482D01*
X0116622Y0013185D02*
X0116622Y0012871D01*
X0116312Y0012560D01*
X0115931Y0011642D01*
X0115931Y0010649D01*
X0115931Y0011485D02*
X0082441Y0011485D01*
X0082441Y0012484D02*
X0116280Y0012484D01*
X0116622Y0013185D02*
X0110405Y0013185D01*
X0110248Y0013094D01*
X0109867Y0012992D01*
X0108980Y0012992D01*
X0108980Y0017838D01*
X0108980Y0017476D02*
X0108980Y0017476D01*
X0108980Y0016478D02*
X0108980Y0016478D01*
X0108980Y0015479D02*
X0108980Y0015479D01*
X0108980Y0014481D02*
X0108980Y0014481D01*
X0108980Y0013482D02*
X0108980Y0013482D01*
X0106618Y0013482D02*
X0106618Y0013482D01*
X0106618Y0014481D02*
X0106618Y0014481D01*
X0106618Y0015479D02*
X0106618Y0015479D01*
X0106618Y0016478D02*
X0106618Y0016478D01*
X0106618Y0017476D02*
X0106618Y0017476D01*
X0106618Y0018475D02*
X0106618Y0018475D01*
X0106618Y0019473D02*
X0106618Y0019473D01*
X0106618Y0020472D02*
X0106618Y0020472D01*
X0106618Y0021470D02*
X0106618Y0021470D01*
X0106618Y0022469D02*
X0106618Y0022469D01*
X0108980Y0022469D02*
X0108980Y0022469D01*
X0108980Y0021470D02*
X0108980Y0021470D01*
X0108980Y0020472D02*
X0108980Y0020472D01*
X0108980Y0019473D02*
X0108980Y0019473D01*
X0108980Y0018475D02*
X0108980Y0018475D01*
X0111343Y0017839D02*
X0113705Y0017839D01*
X0116067Y0017839D01*
X0118429Y0017839D01*
X0120425Y0018475D02*
X0145150Y0018475D01*
X0145727Y0019473D02*
X0120425Y0019473D01*
X0116555Y0009488D02*
X0083127Y0009488D01*
X0083131Y0008490D02*
X0127849Y0008490D01*
X0127736Y0007491D02*
X0082677Y0007491D01*
X0081155Y0006493D02*
X0127778Y0006493D01*
X0128192Y0005494D02*
X0021262Y0005494D01*
X0022249Y0006493D02*
X0051767Y0006493D01*
X0052808Y0006493D02*
X0056491Y0006493D01*
X0057532Y0006493D02*
X0061216Y0006493D01*
X0062257Y0006493D02*
X0065940Y0006493D01*
X0066981Y0006493D02*
X0070664Y0006493D01*
X0071706Y0006493D02*
X0075389Y0006493D01*
X0076430Y0006493D02*
X0080113Y0006493D01*
X0078591Y0007491D02*
X0077952Y0007491D01*
X0075909Y0008980D02*
X0075909Y0017839D01*
X0073547Y0017839D02*
X0073547Y0012130D01*
X0071185Y0008980D02*
X0071185Y0017839D01*
X0068823Y0017839D02*
X0068823Y0012130D01*
X0066461Y0008980D02*
X0066461Y0017839D01*
X0064098Y0017839D02*
X0064098Y0012130D01*
X0061736Y0008980D02*
X0061736Y0017839D01*
X0059374Y0017839D02*
X0059374Y0012130D01*
X0057012Y0008980D02*
X0057012Y0017839D01*
X0054650Y0017839D02*
X0054650Y0012130D01*
X0052287Y0008980D02*
X0052287Y0017839D01*
X0049925Y0017839D02*
X0049925Y0012130D01*
X0049916Y0012130D01*
X0048027Y0010487D02*
X0024097Y0010487D01*
X0024365Y0011485D02*
X0047480Y0011485D01*
X0047419Y0012484D02*
X0024461Y0012484D01*
X0024461Y0013482D02*
X0047773Y0013482D01*
X0047929Y0014481D02*
X0024461Y0014481D01*
X0024273Y0015479D02*
X0047929Y0015479D01*
X0047929Y0016478D02*
X0024005Y0016478D01*
X0023738Y0017476D02*
X0047929Y0017476D01*
X0047929Y0018475D02*
X0023204Y0018475D01*
X0022628Y0019473D02*
X0047929Y0019473D01*
X0047929Y0020472D02*
X0021918Y0020472D01*
X0020920Y0021470D02*
X0047929Y0021470D01*
X0048671Y0022469D02*
X0019749Y0022469D01*
X0018019Y0023467D02*
X0097724Y0023467D01*
X0097724Y0024466D02*
X0003000Y0024466D01*
X0003000Y0025464D02*
X0097626Y0025464D01*
X0097088Y0026463D02*
X0003000Y0026463D01*
X0003000Y0027461D02*
X0097034Y0027461D01*
X0097395Y0028460D02*
X0003000Y0028460D01*
X0003000Y0029458D02*
X0098721Y0029458D01*
X0100342Y0029458D02*
X0134055Y0029458D01*
X0134055Y0028460D02*
X0101668Y0028460D01*
X0099531Y0027091D02*
X0099531Y0017839D01*
X0097169Y0017839D01*
X0094807Y0017839D01*
X0092445Y0017839D01*
X0090083Y0018475D02*
X0090083Y0018475D01*
X0090083Y0019473D02*
X0090083Y0019473D01*
X0090083Y0020472D02*
X0090083Y0020472D01*
X0090083Y0021470D02*
X0090083Y0021470D01*
X0090083Y0022469D02*
X0090083Y0022469D01*
X0087721Y0022469D02*
X0087720Y0022469D01*
X0087720Y0021470D02*
X0087721Y0021470D01*
X0087720Y0020472D02*
X0087721Y0020472D01*
X0090083Y0029453D02*
X0084965Y0029453D01*
X0082996Y0031421D01*
X0080634Y0029059D01*
X0082996Y0031421D02*
X0082996Y0040280D01*
X0082996Y0045988D01*
X0082996Y0044436D02*
X0082996Y0044436D01*
X0082996Y0043437D02*
X0082996Y0043437D01*
X0082996Y0042439D02*
X0082996Y0042439D01*
X0082996Y0041440D02*
X0082996Y0041440D01*
X0082996Y0040442D02*
X0082996Y0040442D01*
X0082996Y0040280D02*
X0085358Y0040280D01*
X0085358Y0040442D02*
X0085358Y0040442D01*
X0085358Y0041440D02*
X0085358Y0041440D01*
X0085358Y0042439D02*
X0085358Y0042439D01*
X0085358Y0043437D02*
X0085358Y0043437D01*
X0085358Y0044436D02*
X0085358Y0044436D01*
X0087609Y0045434D02*
X0080746Y0045434D01*
X0080769Y0046433D02*
X0087585Y0046433D01*
X0087994Y0047432D02*
X0080360Y0047432D01*
X0078272Y0045988D02*
X0078272Y0040280D01*
X0080634Y0040280D01*
X0082996Y0039443D02*
X0082996Y0039443D01*
X0082996Y0038445D02*
X0082996Y0038445D01*
X0082996Y0037446D02*
X0082996Y0037446D01*
X0082996Y0036448D02*
X0082996Y0036448D01*
X0085358Y0036448D02*
X0085358Y0036448D01*
X0085358Y0037446D02*
X0085358Y0037446D01*
X0085358Y0038445D02*
X0085358Y0038445D01*
X0085358Y0039443D02*
X0085358Y0039443D01*
X0087720Y0040280D02*
X0090083Y0040280D01*
X0090083Y0045988D01*
X0092557Y0045434D02*
X0097034Y0045434D01*
X0097175Y0046433D02*
X0092580Y0046433D01*
X0092172Y0047432D02*
X0097836Y0047432D01*
X0094807Y0045988D02*
X0094807Y0040280D01*
X0094807Y0045126D01*
X0094807Y0040280D01*
X0094807Y0040280D01*
X0094807Y0040279D01*
X0092445Y0040279D01*
X0092445Y0040280D01*
X0092618Y0040280D01*
X0094807Y0040280D01*
X0092445Y0040280D01*
X0092445Y0040442D02*
X0092445Y0040442D01*
X0092445Y0041440D02*
X0092445Y0041440D01*
X0092445Y0042439D02*
X0092445Y0042439D01*
X0092445Y0043437D02*
X0092445Y0043437D01*
X0092445Y0044436D02*
X0092445Y0044436D01*
X0094807Y0044436D02*
X0094807Y0044436D01*
X0094807Y0043437D02*
X0094807Y0043437D01*
X0094807Y0042439D02*
X0094807Y0042439D01*
X0094807Y0041440D02*
X0094807Y0041440D01*
X0094807Y0040442D02*
X0094807Y0040442D01*
X0094807Y0039443D02*
X0094807Y0039443D01*
X0094807Y0038445D02*
X0094807Y0038445D01*
X0094807Y0037446D02*
X0094807Y0037446D01*
X0094807Y0036448D02*
X0094807Y0036448D01*
X0092445Y0036448D02*
X0092445Y0036448D01*
X0092445Y0037446D02*
X0092445Y0037446D01*
X0092445Y0038445D02*
X0092445Y0038445D01*
X0092445Y0039443D02*
X0092445Y0039443D01*
X0097169Y0040280D02*
X0099531Y0040280D01*
X0101894Y0039443D02*
X0101894Y0039443D01*
X0101894Y0038445D02*
X0101894Y0038445D01*
X0101894Y0037446D02*
X0101894Y0037446D01*
X0101894Y0036448D02*
X0101894Y0036448D01*
X0101894Y0035449D02*
X0101894Y0035449D01*
X0102841Y0035449D02*
X0103309Y0035449D01*
X0104256Y0035449D02*
X0104256Y0035449D01*
X0105203Y0035449D02*
X0110395Y0035449D01*
X0113705Y0036448D02*
X0113705Y0036448D01*
X0113705Y0037446D02*
X0113705Y0037446D01*
X0113705Y0038445D02*
X0113705Y0038445D01*
X0113705Y0039443D02*
X0113705Y0039443D01*
X0116067Y0040280D02*
X0118429Y0040280D01*
X0123782Y0039443D02*
X0129111Y0039443D01*
X0130110Y0038445D02*
X0124376Y0038445D01*
X0124470Y0037446D02*
X0131108Y0037446D01*
X0132107Y0036448D02*
X0124149Y0036448D01*
X0129059Y0042051D02*
X0129059Y0051894D01*
X0134965Y0057799D01*
X0142839Y0057799D01*
X0143232Y0057406D01*
X0155043Y0057406D01*
X0153519Y0059414D02*
X0144756Y0059414D01*
X0144779Y0055420D02*
X0153497Y0055420D01*
X0156590Y0055420D02*
X0165354Y0055420D01*
X0165354Y0056418D02*
X0157338Y0056418D01*
X0157541Y0057417D02*
X0165354Y0057417D01*
X0165354Y0058415D02*
X0157329Y0058415D01*
X0156567Y0059414D02*
X0165354Y0059414D01*
X0165354Y0060412D02*
X0133124Y0060412D01*
X0133213Y0060567D02*
X0133315Y0060948D01*
X0133315Y0062811D01*
X0129559Y0062811D01*
X0129559Y0059646D01*
X0132012Y0059646D01*
X0132394Y0059748D01*
X0132736Y0059945D01*
X0133015Y0060225D01*
X0133213Y0060567D01*
X0133315Y0061411D02*
X0165354Y0061411D01*
X0165354Y0062409D02*
X0133315Y0062409D01*
X0132996Y0063311D02*
X0133783Y0064098D01*
X0133783Y0067248D01*
X0133009Y0066403D02*
X0165354Y0066403D01*
X0165354Y0065405D02*
X0133315Y0065405D01*
X0133315Y0065674D02*
X0133315Y0063811D01*
X0129559Y0063811D01*
X0128559Y0063811D01*
X0128559Y0062811D01*
X0124803Y0062811D01*
X0124803Y0060948D01*
X0124905Y0060567D01*
X0125103Y0060225D01*
X0125382Y0059945D01*
X0125724Y0059748D01*
X0126106Y0059646D01*
X0128559Y0059646D01*
X0128559Y0062811D01*
X0129559Y0062811D01*
X0129559Y0063811D01*
X0129559Y0066976D01*
X0132012Y0066976D01*
X0132394Y0066874D01*
X0132736Y0066677D01*
X0133015Y0066397D01*
X0133213Y0066055D01*
X0133315Y0065674D01*
X0133315Y0064406D02*
X0165354Y0064406D01*
X0165354Y0063408D02*
X0129559Y0063408D01*
X0129059Y0063311D02*
X0132996Y0063311D01*
X0129559Y0062409D02*
X0128559Y0062409D01*
X0128559Y0061411D02*
X0129559Y0061411D01*
X0129559Y0060412D02*
X0128559Y0060412D01*
X0129059Y0059374D02*
X0129059Y0063311D01*
X0128559Y0063408D02*
X0092177Y0063408D01*
X0092177Y0064406D02*
X0124803Y0064406D01*
X0124803Y0063811D02*
X0128559Y0063811D01*
X0128559Y0066976D01*
X0126106Y0066976D01*
X0125724Y0066874D01*
X0125382Y0066677D01*
X0125103Y0066397D01*
X0124905Y0066055D01*
X0124803Y0065674D01*
X0124803Y0063811D01*
X0124803Y0062409D02*
X0092177Y0062409D01*
X0092177Y0061411D02*
X0124803Y0061411D01*
X0124995Y0060412D02*
X0091985Y0060412D01*
X0092177Y0060604D02*
X0092177Y0066018D01*
X0091411Y0066783D01*
X0084817Y0066783D01*
X0084051Y0066018D01*
X0084051Y0060604D01*
X0084817Y0059839D01*
X0086307Y0059839D01*
X0086307Y0058625D01*
X0087366Y0057567D01*
X0089334Y0055598D01*
X0098200Y0055598D01*
X0098510Y0055288D01*
X0099428Y0054908D01*
X0100422Y0054908D01*
X0101340Y0055288D01*
X0102043Y0055991D01*
X0102423Y0056909D01*
X0102423Y0057902D01*
X0102043Y0058820D01*
X0101340Y0059523D01*
X0100422Y0059903D01*
X0099428Y0059903D01*
X0098510Y0059523D01*
X0098200Y0059213D01*
X0090831Y0059213D01*
X0090205Y0059839D01*
X0091411Y0059839D01*
X0092177Y0060604D01*
X0090630Y0059414D02*
X0098401Y0059414D01*
X0099925Y0061343D02*
X0104059Y0057209D01*
X0105043Y0057209D01*
X0104256Y0056421D01*
X0104256Y0040280D01*
X0104256Y0039443D02*
X0104256Y0039443D01*
X0104256Y0038445D02*
X0104256Y0038445D01*
X0104256Y0037446D02*
X0104256Y0037446D01*
X0104256Y0036448D02*
X0104256Y0036448D01*
X0104256Y0022469D02*
X0104256Y0022469D01*
X0104256Y0021470D02*
X0104256Y0021470D01*
X0104256Y0020472D02*
X0104256Y0020472D01*
X0104256Y0019473D02*
X0104256Y0019473D01*
X0104256Y0018475D02*
X0104256Y0018475D01*
X0104256Y0017476D02*
X0104256Y0017476D01*
X0104256Y0016478D02*
X0104256Y0016478D01*
X0104256Y0015479D02*
X0104256Y0015479D01*
X0104256Y0014481D02*
X0104256Y0014481D01*
X0104256Y0013482D02*
X0104256Y0013482D01*
X0078272Y0012130D02*
X0078272Y0017839D01*
X0073866Y0007491D02*
X0073228Y0007491D01*
X0069142Y0007491D02*
X0068504Y0007491D01*
X0064418Y0007491D02*
X0063779Y0007491D01*
X0059693Y0007491D02*
X0059055Y0007491D01*
X0054969Y0007491D02*
X0054330Y0007491D01*
X0050244Y0007491D02*
X0022825Y0007491D01*
X0023402Y0008490D02*
X0049790Y0008490D01*
X0049794Y0009488D02*
X0023830Y0009488D01*
X0020263Y0004496D02*
X0128957Y0004496D01*
X0130593Y0003497D02*
X0018612Y0003497D01*
X0003418Y0018475D02*
X0003000Y0018475D01*
X0003000Y0019473D02*
X0003994Y0019473D01*
X0004704Y0020472D02*
X0003000Y0020472D01*
X0003000Y0021470D02*
X0005702Y0021470D01*
X0006873Y0022469D02*
X0003000Y0022469D01*
X0003000Y0023467D02*
X0008603Y0023467D01*
X0003000Y0030457D02*
X0134060Y0030457D01*
X0134660Y0031455D02*
X0003000Y0031455D01*
X0003000Y0032454D02*
X0148609Y0032454D01*
X0148393Y0031455D02*
X0148878Y0031455D01*
X0149067Y0030457D02*
X0149759Y0030457D01*
X0149067Y0029458D02*
X0151706Y0029458D01*
X0152287Y0027484D02*
X0145594Y0027484D01*
X0142122Y0028460D02*
X0141386Y0028460D01*
X0141386Y0029458D02*
X0142122Y0029458D01*
X0142122Y0030457D02*
X0141381Y0030457D01*
X0140781Y0031455D02*
X0142796Y0031455D01*
X0141657Y0031815D02*
X0138508Y0031815D01*
X0137720Y0031028D01*
X0137720Y0027484D01*
X0137220Y0028460D02*
X0138220Y0028460D01*
X0138220Y0029458D02*
X0137220Y0029458D01*
X0137220Y0030457D02*
X0138220Y0030457D01*
X0138220Y0031455D02*
X0137220Y0031455D01*
X0135102Y0033452D02*
X0003000Y0033452D01*
X0003000Y0036448D02*
X0047929Y0036448D01*
X0047929Y0037446D02*
X0003000Y0037446D01*
X0003000Y0038445D02*
X0047929Y0038445D01*
X0047929Y0039443D02*
X0003000Y0039443D01*
X0003000Y0040442D02*
X0047929Y0040442D01*
X0047929Y0041440D02*
X0003000Y0041440D01*
X0003000Y0042439D02*
X0047929Y0042439D01*
X0047929Y0043437D02*
X0003000Y0043437D01*
X0003000Y0044436D02*
X0047945Y0044436D01*
X0047451Y0045434D02*
X0003000Y0045434D01*
X0003000Y0046433D02*
X0047428Y0046433D01*
X0047836Y0047432D02*
X0003000Y0047432D01*
X0003000Y0048430D02*
X0049294Y0048430D01*
X0049790Y0049429D02*
X0003000Y0049429D01*
X0003000Y0050427D02*
X0050118Y0050427D01*
X0053291Y0051426D02*
X0056008Y0051426D01*
X0054842Y0050427D02*
X0054457Y0050427D01*
X0057012Y0049138D02*
X0057012Y0040280D01*
X0059374Y0040280D02*
X0059374Y0045988D01*
X0061736Y0049138D02*
X0061736Y0040280D01*
X0064098Y0040280D02*
X0064098Y0045126D01*
X0064098Y0040280D01*
X0064098Y0040280D01*
X0066461Y0040280D01*
X0066461Y0049138D01*
X0066461Y0031421D01*
X0066461Y0036448D02*
X0066461Y0036448D01*
X0066461Y0037446D02*
X0066461Y0037446D01*
X0066461Y0038445D02*
X0066461Y0038445D01*
X0066461Y0039443D02*
X0066461Y0039443D01*
X0066460Y0040279D02*
X0064099Y0040279D01*
X0064099Y0040280D01*
X0064272Y0040280D01*
X0066460Y0040280D01*
X0066460Y0040279D01*
X0066461Y0040442D02*
X0066461Y0040442D01*
X0066461Y0041440D02*
X0066461Y0041440D01*
X0066461Y0042439D02*
X0066461Y0042439D01*
X0066461Y0043437D02*
X0066461Y0043437D01*
X0066461Y0044436D02*
X0066461Y0044436D01*
X0064098Y0044436D02*
X0064098Y0044436D01*
X0064098Y0043437D02*
X0064098Y0043437D01*
X0064098Y0042439D02*
X0064098Y0042439D01*
X0064098Y0041440D02*
X0064098Y0041440D01*
X0064098Y0040442D02*
X0064098Y0040442D01*
X0064098Y0039443D02*
X0064098Y0039443D01*
X0064098Y0038445D02*
X0064098Y0038445D01*
X0064098Y0037446D02*
X0064098Y0037446D01*
X0064098Y0036448D02*
X0064098Y0036448D01*
X0068823Y0040280D02*
X0071185Y0040280D01*
X0071185Y0049138D01*
X0070182Y0051426D02*
X0062740Y0051426D01*
X0063906Y0050427D02*
X0069016Y0050427D01*
X0068687Y0049429D02*
X0064234Y0049429D01*
X0064146Y0048430D02*
X0068775Y0048430D01*
X0069359Y0047432D02*
X0063562Y0047432D01*
X0063543Y0046433D02*
X0069378Y0046433D01*
X0069378Y0045434D02*
X0063543Y0045434D01*
X0059567Y0050427D02*
X0059181Y0050427D01*
X0058015Y0051426D02*
X0060733Y0051426D01*
X0055186Y0047432D02*
X0054113Y0047432D01*
X0049925Y0045988D02*
X0049925Y0040280D01*
X0073547Y0039443D02*
X0073547Y0039443D01*
X0073547Y0038445D02*
X0073547Y0038445D01*
X0073547Y0037446D02*
X0073547Y0037446D01*
X0073547Y0036448D02*
X0073547Y0036448D01*
X0075909Y0036448D02*
X0075909Y0036448D01*
X0075909Y0037446D02*
X0075909Y0037446D01*
X0075909Y0038445D02*
X0075909Y0038445D01*
X0075909Y0039443D02*
X0075909Y0039443D01*
X0075909Y0040280D02*
X0075909Y0049138D01*
X0076183Y0047432D02*
X0073011Y0047432D01*
X0075909Y0044436D02*
X0075909Y0044436D01*
X0075909Y0043437D02*
X0075909Y0043437D01*
X0075909Y0042439D02*
X0075909Y0042439D01*
X0075909Y0041440D02*
X0075909Y0041440D01*
X0075909Y0040442D02*
X0075909Y0040442D01*
X0088514Y0056418D02*
X0003000Y0056418D01*
X0003000Y0055420D02*
X0098379Y0055420D01*
X0099925Y0057406D02*
X0090083Y0057406D01*
X0088114Y0059374D01*
X0088114Y0063311D01*
X0086307Y0059414D02*
X0003000Y0059414D01*
X0003000Y0060412D02*
X0084243Y0060412D01*
X0084051Y0061411D02*
X0003000Y0061411D01*
X0003000Y0062409D02*
X0084051Y0062409D01*
X0084051Y0063408D02*
X0003000Y0063408D01*
X0003000Y0064406D02*
X0084051Y0064406D01*
X0084051Y0065405D02*
X0003000Y0065405D01*
X0003000Y0066403D02*
X0084437Y0066403D01*
X0084779Y0067622D02*
X0085161Y0067520D01*
X0087614Y0067520D01*
X0087614Y0070685D01*
X0083858Y0070685D01*
X0083858Y0068822D01*
X0083960Y0068441D01*
X0084158Y0068099D01*
X0084437Y0067819D01*
X0084779Y0067622D01*
X0083984Y0068400D02*
X0003000Y0068400D01*
X0003000Y0067402D02*
X0101168Y0067402D01*
X0101168Y0067145D02*
X0101168Y0068139D01*
X0101548Y0069057D01*
X0101858Y0069367D01*
X0101858Y0080114D01*
X0100084Y0080114D01*
X0100039Y0080159D01*
X0099804Y0080023D01*
X0099423Y0079921D01*
X0097425Y0079921D01*
X0097425Y0084071D01*
X0096425Y0084071D01*
X0093125Y0084071D01*
X0093125Y0081223D01*
X0093227Y0080842D01*
X0093425Y0080500D01*
X0093704Y0080221D01*
X0094046Y0080023D01*
X0094428Y0079921D01*
X0096425Y0079921D01*
X0096425Y0084071D01*
X0096425Y0085071D01*
X0093125Y0085071D01*
X0093125Y0087918D01*
X0093227Y0088300D01*
X0093425Y0088642D01*
X0093704Y0088921D01*
X0094046Y0089119D01*
X0094428Y0089221D01*
X0096425Y0089221D01*
X0096425Y0085071D01*
X0097425Y0085071D01*
X0097425Y0089221D01*
X0099423Y0089221D01*
X0099804Y0089119D01*
X0100039Y0088983D01*
X0100084Y0089028D01*
X0105767Y0089028D01*
X0106532Y0088262D01*
X0106532Y0080879D01*
X0105767Y0080114D01*
X0105472Y0080114D01*
X0105472Y0069367D01*
X0105783Y0069057D01*
X0106163Y0068139D01*
X0106163Y0067145D01*
X0105783Y0066227D01*
X0105080Y0065524D01*
X0104162Y0065144D01*
X0103169Y0065144D01*
X0102251Y0065524D01*
X0101548Y0066227D01*
X0101168Y0067145D01*
X0101475Y0066403D02*
X0091792Y0066403D01*
X0092177Y0065405D02*
X0102539Y0065405D01*
X0104791Y0065405D02*
X0124803Y0065405D01*
X0125109Y0066403D02*
X0105856Y0066403D01*
X0106163Y0067402D02*
X0165354Y0067402D01*
X0165354Y0068400D02*
X0133044Y0068400D01*
X0133122Y0069399D02*
X0165354Y0069399D01*
X0165354Y0070397D02*
X0133122Y0070397D01*
X0133122Y0071396D02*
X0165354Y0071396D01*
X0165354Y0072394D02*
X0133122Y0072394D01*
X0133122Y0073393D02*
X0165354Y0073393D01*
X0165354Y0074391D02*
X0153514Y0074391D01*
X0151894Y0076303D02*
X0157799Y0076303D01*
X0160161Y0078665D01*
X0160161Y0091264D01*
X0159768Y0091657D01*
X0159374Y0091264D01*
X0155705Y0091366D02*
X0142374Y0091366D01*
X0142374Y0090368D02*
X0155705Y0090368D01*
X0155705Y0089369D02*
X0142374Y0089369D01*
X0142374Y0088370D02*
X0156285Y0088370D01*
X0158354Y0087372D02*
X0142374Y0087372D01*
X0142374Y0086373D02*
X0158354Y0086373D01*
X0157012Y0083783D02*
X0157012Y0080634D01*
X0155831Y0079453D01*
X0144020Y0079453D01*
X0143232Y0080240D01*
X0143232Y0083783D01*
X0138902Y0083783D01*
X0138114Y0084571D01*
X0138114Y0088705D01*
X0136307Y0084839D02*
X0134620Y0084839D01*
X0133854Y0085604D01*
X0133854Y0091805D01*
X0133964Y0091915D01*
X0133961Y0091918D01*
X0133764Y0092260D01*
X0133661Y0092641D01*
X0133661Y0094898D01*
X0137614Y0094898D01*
X0137614Y0095898D01*
X0133661Y0095898D01*
X0133661Y0098154D01*
X0133764Y0098536D01*
X0133961Y0098878D01*
X0134240Y0099157D01*
X0134582Y0099354D01*
X0133622Y0099354D01*
X0133943Y0099776D02*
X0134813Y0099416D01*
X0134582Y0099354D01*
X0133943Y0099776D02*
X0133622Y0100098D01*
X0133622Y0081965D01*
X0133932Y0081655D01*
X0134313Y0080737D01*
X0134313Y0079743D01*
X0133932Y0078825D01*
X0133611Y0078504D01*
X0141901Y0078504D01*
X0142157Y0078760D01*
X0141425Y0079492D01*
X0141425Y0081976D01*
X0138153Y0081976D01*
X0137094Y0083035D01*
X0136307Y0083822D01*
X0136307Y0084839D01*
X0136307Y0084376D02*
X0133622Y0084376D01*
X0133622Y0083378D02*
X0136752Y0083378D01*
X0137750Y0082379D02*
X0133622Y0082379D01*
X0134046Y0081381D02*
X0141425Y0081381D01*
X0141425Y0080382D02*
X0134313Y0080382D01*
X0134164Y0079384D02*
X0141533Y0079384D01*
X0143626Y0076697D02*
X0130240Y0076697D01*
X0128665Y0078272D01*
X0128665Y0111343D01*
X0136539Y0119217D01*
X0157012Y0119217D01*
X0159768Y0116461D01*
X0159768Y0126697D01*
X0164492Y0131421D01*
X0164492Y0141264D01*
X0162130Y0143626D01*
X0148744Y0143626D01*
X0147169Y0145201D01*
X0145549Y0143289D02*
X0143493Y0143289D01*
X0143448Y0143366D02*
X0143169Y0143645D01*
X0142827Y0143843D01*
X0142446Y0143945D01*
X0139795Y0143945D01*
X0139795Y0140386D01*
X0143748Y0140386D01*
X0143748Y0142642D01*
X0143646Y0143024D01*
X0143448Y0143366D01*
X0143748Y0142290D02*
X0146665Y0142290D01*
X0146654Y0141292D02*
X0143748Y0141292D01*
X0143748Y0139295D02*
X0149819Y0139295D01*
X0149819Y0138795D02*
X0146654Y0138795D01*
X0146654Y0136342D01*
X0146756Y0135960D01*
X0146953Y0135618D01*
X0147233Y0135339D01*
X0147575Y0135142D01*
X0147956Y0135039D01*
X0149819Y0135039D01*
X0149819Y0138795D01*
X0149819Y0138296D02*
X0150819Y0138296D01*
X0150819Y0137298D02*
X0149819Y0137298D01*
X0149819Y0136299D02*
X0150819Y0136299D01*
X0150819Y0135301D02*
X0149819Y0135301D01*
X0150319Y0133783D02*
X0150319Y0139295D01*
X0139886Y0139295D01*
X0139295Y0139886D01*
X0138705Y0140476D01*
X0134965Y0140476D01*
X0134965Y0143232D01*
X0135752Y0144020D01*
X0139295Y0144020D01*
X0140280Y0145004D01*
X0140280Y0148744D01*
X0140280Y0158665D01*
X0139177Y0159768D01*
X0139177Y0159886D01*
X0133783Y0165280D01*
X0124689Y0165280D01*
X0119177Y0159768D01*
X0118823Y0159768D01*
X0113311Y0165280D01*
X0104689Y0165280D01*
X0099177Y0159768D01*
X0098744Y0159768D01*
X0093232Y0165280D01*
X0084689Y0165280D01*
X0079177Y0159768D01*
X0079059Y0159768D01*
X0073547Y0165280D01*
X0064689Y0165280D01*
X0059177Y0159768D01*
X0058980Y0159768D01*
X0053469Y0165280D01*
X0044689Y0165280D01*
X0039177Y0159768D01*
X0038677Y0160263D02*
X0033984Y0160263D01*
X0033984Y0159265D02*
X0034194Y0159265D01*
X0034408Y0158266D02*
X0033758Y0158266D01*
X0033345Y0157268D02*
X0034839Y0157268D01*
X0035605Y0156269D02*
X0032477Y0156269D01*
X0031146Y0153862D02*
X0029177Y0155831D01*
X0029177Y0140307D01*
X0030189Y0139295D01*
X0030189Y0112575D01*
X0030240Y0112524D01*
X0045201Y0112524D01*
X0047957Y0109768D01*
X0047957Y0106618D01*
X0046147Y0108341D02*
X0042884Y0108341D01*
X0041886Y0109339D02*
X0045830Y0109339D01*
X0044831Y0110338D02*
X0040644Y0110338D01*
X0040476Y0108193D02*
X0045201Y0103469D01*
X0045201Y0096776D01*
X0045398Y0096776D01*
X0046579Y0095594D01*
X0047957Y0095594D01*
X0048350Y0095201D01*
X0055043Y0095201D01*
X0056618Y0096776D01*
X0056618Y0120398D01*
X0058587Y0122366D01*
X0122760Y0122366D01*
X0124335Y0120791D01*
X0124335Y0110555D01*
X0125516Y0109374D01*
X0124015Y0107342D02*
X0118318Y0107342D01*
X0118318Y0106344D02*
X0126858Y0106344D01*
X0126858Y0105345D02*
X0118257Y0105345D01*
X0118318Y0108341D02*
X0123240Y0108341D01*
X0122995Y0109339D02*
X0118318Y0109339D01*
X0118318Y0110338D02*
X0122528Y0110338D01*
X0122528Y0111336D02*
X0118318Y0111336D01*
X0118318Y0112335D02*
X0122528Y0112335D01*
X0122528Y0113333D02*
X0118318Y0113333D01*
X0118318Y0114332D02*
X0122528Y0114332D01*
X0122528Y0115330D02*
X0118318Y0115330D01*
X0118318Y0116329D02*
X0122528Y0116329D01*
X0122528Y0117327D02*
X0118318Y0117327D01*
X0118318Y0118326D02*
X0122528Y0118326D01*
X0122528Y0119324D02*
X0118084Y0119324D01*
X0122248Y0120323D02*
X0059099Y0120323D01*
X0058425Y0119324D02*
X0102239Y0119324D01*
X0102004Y0118326D02*
X0058425Y0118326D01*
X0058425Y0117327D02*
X0102004Y0117327D01*
X0102004Y0116329D02*
X0058425Y0116329D01*
X0058425Y0115330D02*
X0102004Y0115330D01*
X0102004Y0114332D02*
X0058425Y0114332D01*
X0058425Y0113333D02*
X0102004Y0113333D01*
X0102004Y0112335D02*
X0058425Y0112335D01*
X0058425Y0111336D02*
X0102004Y0111336D01*
X0102004Y0110338D02*
X0058425Y0110338D01*
X0058425Y0109339D02*
X0102004Y0109339D01*
X0102004Y0108341D02*
X0058425Y0108341D01*
X0058425Y0107342D02*
X0102004Y0107342D01*
X0102004Y0106344D02*
X0058425Y0106344D01*
X0058425Y0105345D02*
X0102066Y0105345D01*
X0106386Y0104347D02*
X0058425Y0104347D01*
X0058425Y0103348D02*
X0106386Y0103348D01*
X0106386Y0102350D02*
X0058425Y0102350D01*
X0058425Y0101351D02*
X0106386Y0101351D01*
X0106386Y0100353D02*
X0058425Y0100353D01*
X0058425Y0099354D02*
X0106386Y0099354D01*
X0106386Y0098356D02*
X0058425Y0098356D01*
X0058425Y0097357D02*
X0106386Y0097357D01*
X0106386Y0096359D02*
X0058425Y0096359D01*
X0057758Y0095360D02*
X0106386Y0095360D01*
X0106386Y0094362D02*
X0056760Y0094362D01*
X0054644Y0097357D02*
X0048750Y0097357D01*
X0047008Y0098356D02*
X0054811Y0098356D01*
X0054811Y0099354D02*
X0047008Y0099354D01*
X0047008Y0100353D02*
X0054811Y0100353D01*
X0054811Y0101351D02*
X0047008Y0101351D01*
X0047008Y0102350D02*
X0054811Y0102350D01*
X0054811Y0103348D02*
X0047008Y0103348D01*
X0046914Y0104347D02*
X0046878Y0104347D01*
X0049000Y0104347D02*
X0054811Y0104347D01*
X0054811Y0105345D02*
X0050133Y0105345D01*
X0050454Y0106344D02*
X0054811Y0106344D01*
X0054811Y0107342D02*
X0052213Y0107342D01*
X0052988Y0108341D02*
X0054811Y0108341D01*
X0054811Y0109339D02*
X0053210Y0109339D01*
X0053017Y0110338D02*
X0054811Y0110338D01*
X0054811Y0111336D02*
X0052520Y0111336D01*
X0052520Y0112335D02*
X0054811Y0112335D01*
X0054811Y0113333D02*
X0052065Y0113333D01*
X0051339Y0114332D02*
X0054811Y0114332D01*
X0054811Y0115330D02*
X0051339Y0115330D01*
X0051339Y0116329D02*
X0054811Y0116329D01*
X0054811Y0117327D02*
X0051339Y0117327D01*
X0051339Y0118326D02*
X0054811Y0118326D01*
X0054811Y0119324D02*
X0051339Y0119324D01*
X0051339Y0120323D02*
X0054811Y0120323D01*
X0054986Y0121321D02*
X0051339Y0121321D01*
X0051339Y0122320D02*
X0055985Y0122320D01*
X0056780Y0123115D02*
X0056780Y0123115D01*
X0056983Y0123318D02*
X0051339Y0123318D01*
X0051339Y0124317D02*
X0080626Y0124317D01*
X0080498Y0125315D02*
X0051339Y0125315D01*
X0051339Y0126314D02*
X0080786Y0126314D01*
X0081189Y0127312D02*
X0051339Y0127312D01*
X0051339Y0128311D02*
X0081189Y0128311D01*
X0081189Y0129309D02*
X0051339Y0129309D01*
X0051339Y0130308D02*
X0081189Y0130308D01*
X0081189Y0131306D02*
X0055146Y0131306D01*
X0055146Y0132305D02*
X0081189Y0132305D01*
X0081189Y0133303D02*
X0074631Y0133303D01*
X0074877Y0133550D02*
X0075257Y0134468D01*
X0075257Y0135461D01*
X0074877Y0136379D01*
X0074567Y0136690D01*
X0074567Y0138751D01*
X0074877Y0139062D01*
X0075257Y0139980D01*
X0075257Y0140973D01*
X0074877Y0141891D01*
X0074175Y0142594D01*
X0073257Y0142974D01*
X0072263Y0142974D01*
X0071345Y0142594D01*
X0070642Y0141891D01*
X0070262Y0140973D01*
X0070262Y0139980D01*
X0070642Y0139062D01*
X0070953Y0138751D01*
X0070953Y0136690D01*
X0070642Y0136379D01*
X0070262Y0135461D01*
X0070262Y0134468D01*
X0070642Y0133550D01*
X0071345Y0132847D01*
X0072263Y0132467D01*
X0073257Y0132467D01*
X0074175Y0132847D01*
X0074877Y0133550D01*
X0075189Y0134302D02*
X0081189Y0134302D01*
X0081189Y0135301D02*
X0075257Y0135301D01*
X0074911Y0136299D02*
X0081189Y0136299D01*
X0081189Y0137298D02*
X0074567Y0137298D01*
X0074567Y0138296D02*
X0080870Y0138296D01*
X0080498Y0139295D02*
X0074974Y0139295D01*
X0075257Y0140293D02*
X0080543Y0140293D01*
X0081066Y0141292D02*
X0075126Y0141292D01*
X0074478Y0142290D02*
X0087370Y0142290D01*
X0087370Y0141292D02*
X0084926Y0141292D01*
X0085449Y0140293D02*
X0087370Y0140293D01*
X0087370Y0139295D02*
X0085494Y0139295D01*
X0085123Y0138296D02*
X0087370Y0138296D01*
X0087370Y0137298D02*
X0087040Y0137298D01*
X0085251Y0137298D02*
X0084803Y0137298D01*
X0086146Y0134965D02*
X0086146Y0127091D01*
X0087720Y0125516D01*
X0096776Y0125516D01*
X0101500Y0130240D01*
X0101500Y0133783D01*
X0104650Y0136933D01*
X0107406Y0136933D01*
X0108587Y0138114D01*
X0110952Y0137298D02*
X0130402Y0137298D01*
X0130402Y0138296D02*
X0111084Y0138296D01*
X0110801Y0139295D02*
X0130402Y0139295D01*
X0130402Y0140293D02*
X0109853Y0140293D01*
X0107320Y0140293D02*
X0090984Y0140293D01*
X0090984Y0139295D02*
X0106372Y0139295D01*
X0103457Y0138296D02*
X0090984Y0138296D01*
X0090984Y0137298D02*
X0102458Y0137298D01*
X0101460Y0136299D02*
X0092274Y0136299D01*
X0093108Y0135301D02*
X0100461Y0135301D01*
X0099693Y0134302D02*
X0093368Y0134302D01*
X0093212Y0133303D02*
X0099693Y0133303D01*
X0099693Y0132305D02*
X0092530Y0132305D01*
X0090870Y0134177D02*
X0089689Y0134177D01*
X0089177Y0134689D01*
X0089177Y0159768D01*
X0085870Y0163259D02*
X0082757Y0163259D01*
X0082991Y0163025D02*
X0082434Y0163581D01*
X0081798Y0164044D01*
X0081096Y0164401D01*
X0080348Y0164645D01*
X0079677Y0164751D01*
X0079677Y0160268D01*
X0078677Y0160268D01*
X0078677Y0164751D01*
X0078006Y0164645D01*
X0077258Y0164401D01*
X0076557Y0164044D01*
X0075920Y0163581D01*
X0075363Y0163025D01*
X0074901Y0162388D01*
X0074543Y0161687D01*
X0074300Y0160939D01*
X0074194Y0160268D01*
X0078677Y0160268D01*
X0078677Y0159268D01*
X0074194Y0159268D01*
X0074300Y0158597D01*
X0074543Y0157848D01*
X0074901Y0157147D01*
X0074625Y0157147D01*
X0073707Y0156767D01*
X0073005Y0156064D01*
X0072624Y0155146D01*
X0072624Y0154153D01*
X0073005Y0153235D01*
X0073707Y0152532D01*
X0074625Y0152152D01*
X0075619Y0152152D01*
X0076537Y0152532D01*
X0076847Y0152843D01*
X0080877Y0152843D01*
X0081188Y0152532D01*
X0082106Y0152152D01*
X0083099Y0152152D01*
X0084017Y0152532D01*
X0084720Y0153235D01*
X0085100Y0154153D01*
X0085100Y0155146D01*
X0084720Y0156064D01*
X0084017Y0156767D01*
X0083372Y0157034D01*
X0083454Y0157147D01*
X0083811Y0157848D01*
X0084054Y0158597D01*
X0084160Y0159268D01*
X0079677Y0159268D01*
X0079677Y0160268D01*
X0084160Y0160268D01*
X0084054Y0160939D01*
X0083811Y0161687D01*
X0083454Y0162388D01*
X0082991Y0163025D01*
X0083519Y0162260D02*
X0085006Y0162260D01*
X0084593Y0161262D02*
X0083949Y0161262D01*
X0084370Y0160263D02*
X0079677Y0160263D01*
X0079677Y0161262D02*
X0078677Y0161262D01*
X0078677Y0162260D02*
X0079677Y0162260D01*
X0079677Y0163259D02*
X0078677Y0163259D01*
X0078677Y0164257D02*
X0079677Y0164257D01*
X0081379Y0164257D02*
X0087455Y0164257D01*
X0090900Y0164257D02*
X0096975Y0164257D01*
X0097258Y0164401D02*
X0096557Y0164044D01*
X0095920Y0163581D01*
X0095363Y0163025D01*
X0094901Y0162388D01*
X0094543Y0161687D01*
X0094300Y0160939D01*
X0094194Y0160268D01*
X0098677Y0160268D01*
X0098677Y0164751D01*
X0098006Y0164645D01*
X0097258Y0164401D01*
X0098677Y0164257D02*
X0099677Y0164257D01*
X0099677Y0164751D02*
X0099677Y0160268D01*
X0098677Y0160268D01*
X0098677Y0159268D01*
X0094194Y0159268D01*
X0094300Y0158597D01*
X0094543Y0157848D01*
X0094901Y0157147D01*
X0095363Y0156510D01*
X0095920Y0155954D01*
X0096557Y0155491D01*
X0097258Y0155134D01*
X0098006Y0154891D01*
X0098677Y0154785D01*
X0098677Y0159268D01*
X0099677Y0159268D01*
X0099677Y0160268D01*
X0104160Y0160268D01*
X0104054Y0160939D01*
X0103811Y0161687D01*
X0103454Y0162388D01*
X0102991Y0163025D01*
X0102434Y0163581D01*
X0101798Y0164044D01*
X0101096Y0164401D01*
X0100348Y0164645D01*
X0099677Y0164751D01*
X0099677Y0163259D02*
X0098677Y0163259D01*
X0098677Y0162260D02*
X0099677Y0162260D01*
X0099677Y0161262D02*
X0098677Y0161262D01*
X0098677Y0160263D02*
X0093984Y0160263D01*
X0093984Y0159265D02*
X0094194Y0159265D01*
X0094408Y0158266D02*
X0093758Y0158266D01*
X0093345Y0157268D02*
X0094839Y0157268D01*
X0095605Y0156269D02*
X0092477Y0156269D01*
X0090984Y0155271D02*
X0096990Y0155271D01*
X0098677Y0155271D02*
X0099677Y0155271D01*
X0099677Y0154785D02*
X0100348Y0154891D01*
X0101096Y0155134D01*
X0101798Y0155491D01*
X0102434Y0155954D01*
X0102991Y0156510D01*
X0103454Y0157147D01*
X0103811Y0157848D01*
X0104054Y0158597D01*
X0104160Y0159268D01*
X0099677Y0159268D01*
X0099677Y0154785D01*
X0099677Y0156269D02*
X0098677Y0156269D01*
X0098677Y0157268D02*
X0099677Y0157268D01*
X0099677Y0158266D02*
X0098677Y0158266D01*
X0098677Y0159265D02*
X0099677Y0159265D01*
X0099677Y0160263D02*
X0104370Y0160263D01*
X0104370Y0159265D02*
X0104160Y0159265D01*
X0103947Y0158266D02*
X0104596Y0158266D01*
X0105010Y0157268D02*
X0103515Y0157268D01*
X0102750Y0156269D02*
X0105877Y0156269D01*
X0107370Y0155271D02*
X0101365Y0155271D01*
X0104504Y0153274D02*
X0090984Y0153274D01*
X0090984Y0154272D02*
X0104789Y0154272D01*
X0104504Y0152275D02*
X0090984Y0152275D01*
X0090984Y0151277D02*
X0104504Y0151277D01*
X0104504Y0150278D02*
X0090984Y0150278D01*
X0090984Y0149280D02*
X0104504Y0149280D01*
X0104504Y0148281D02*
X0090984Y0148281D01*
X0090984Y0147283D02*
X0104504Y0147283D01*
X0104504Y0146284D02*
X0090984Y0146284D01*
X0090984Y0145286D02*
X0104504Y0145286D01*
X0104504Y0144287D02*
X0090984Y0144287D01*
X0090984Y0143289D02*
X0104819Y0143289D01*
X0110304Y0136299D02*
X0130402Y0136299D01*
X0130402Y0135301D02*
X0121804Y0135301D01*
X0122118Y0134302D02*
X0130402Y0134302D01*
X0130402Y0133303D02*
X0122118Y0133303D01*
X0122118Y0132305D02*
X0130402Y0132305D01*
X0130402Y0131306D02*
X0124249Y0131306D01*
X0125248Y0130308D02*
X0130402Y0130308D01*
X0130402Y0129309D02*
X0125354Y0129309D01*
X0125908Y0128311D02*
X0130402Y0128311D01*
X0131006Y0127312D02*
X0126045Y0127312D01*
X0125766Y0126314D02*
X0132004Y0126314D01*
X0133003Y0125315D02*
X0124838Y0125315D01*
X0124363Y0123318D02*
X0135000Y0123318D01*
X0135999Y0122320D02*
X0125362Y0122320D01*
X0124567Y0123115D02*
X0124567Y0123115D01*
X0126142Y0121321D02*
X0136237Y0121321D01*
X0135090Y0120323D02*
X0126142Y0120323D01*
X0126142Y0119324D02*
X0134092Y0119324D01*
X0133093Y0118326D02*
X0126142Y0118326D01*
X0126142Y0117327D02*
X0132095Y0117327D01*
X0131096Y0116329D02*
X0126142Y0116329D01*
X0126142Y0115330D02*
X0130098Y0115330D01*
X0129099Y0114332D02*
X0126142Y0114332D01*
X0126142Y0113333D02*
X0128101Y0113333D01*
X0127102Y0112335D02*
X0126142Y0112335D01*
X0132213Y0112335D02*
X0132220Y0112335D01*
X0133212Y0113333D02*
X0158165Y0113333D01*
X0158165Y0114332D02*
X0134210Y0114332D01*
X0135209Y0115330D02*
X0158165Y0115330D01*
X0157344Y0116329D02*
X0136207Y0116329D01*
X0137206Y0117327D02*
X0156345Y0117327D01*
X0157961Y0121321D02*
X0140779Y0121321D01*
X0141005Y0122320D02*
X0157961Y0122320D01*
X0157961Y0123318D02*
X0140817Y0123318D01*
X0140089Y0124317D02*
X0157961Y0124317D01*
X0157961Y0125315D02*
X0138114Y0125315D01*
X0137116Y0126314D02*
X0157343Y0126314D01*
X0156050Y0127312D02*
X0136117Y0127312D01*
X0135119Y0128311D02*
X0153047Y0128311D01*
X0154650Y0130240D02*
X0149531Y0130240D01*
X0146382Y0133390D01*
X0139492Y0133390D01*
X0139295Y0133193D01*
X0135035Y0133303D02*
X0134016Y0133303D01*
X0134016Y0132305D02*
X0135035Y0132305D01*
X0135035Y0131306D02*
X0134016Y0131306D01*
X0134016Y0130308D02*
X0135035Y0130308D01*
X0134120Y0129309D02*
X0147907Y0129309D01*
X0146908Y0130308D02*
X0143555Y0130308D01*
X0143555Y0131306D02*
X0145910Y0131306D01*
X0148025Y0134302D02*
X0156386Y0134302D01*
X0156386Y0133303D02*
X0149024Y0133303D01*
X0150022Y0132305D02*
X0153182Y0132305D01*
X0156117Y0132305D02*
X0156386Y0132305D01*
X0155418Y0135301D02*
X0153338Y0135301D01*
X0153973Y0136299D02*
X0154720Y0136299D01*
X0154720Y0137298D02*
X0153984Y0137298D01*
X0153984Y0138296D02*
X0154720Y0138296D01*
X0154720Y0139295D02*
X0150819Y0139295D01*
X0153984Y0140293D02*
X0154720Y0140293D01*
X0154720Y0141292D02*
X0153984Y0141292D01*
X0158193Y0139295D02*
X0158193Y0134965D01*
X0159374Y0133783D01*
X0160949Y0133783D01*
X0158193Y0128665D02*
X0158193Y0139295D01*
X0147299Y0135301D02*
X0143555Y0135301D01*
X0143549Y0136299D02*
X0146665Y0136299D01*
X0146654Y0137298D02*
X0143748Y0137298D01*
X0143748Y0138296D02*
X0146654Y0138296D01*
X0146654Y0140293D02*
X0139795Y0140293D01*
X0139795Y0141292D02*
X0138795Y0141292D01*
X0138795Y0140386D02*
X0138795Y0143945D01*
X0136145Y0143945D01*
X0135764Y0143843D01*
X0135421Y0143645D01*
X0135142Y0143366D01*
X0134945Y0143024D01*
X0134843Y0142642D01*
X0134843Y0140386D01*
X0138795Y0140386D01*
X0138795Y0140293D02*
X0134016Y0140293D01*
X0134016Y0139295D02*
X0134843Y0139295D01*
X0134843Y0138296D02*
X0134016Y0138296D01*
X0134016Y0137298D02*
X0134843Y0137298D01*
X0135041Y0136299D02*
X0134016Y0136299D01*
X0134016Y0135301D02*
X0135035Y0135301D01*
X0135035Y0134302D02*
X0134016Y0134302D01*
X0132209Y0128665D02*
X0138508Y0122366D01*
X0134002Y0124317D02*
X0121831Y0124317D01*
X0122118Y0125315D02*
X0122257Y0125315D01*
X0123547Y0127484D02*
X0123547Y0129453D01*
X0123154Y0129846D01*
X0113575Y0129846D01*
X0113311Y0129795D01*
X0110239Y0119324D02*
X0110084Y0119324D01*
X0106161Y0112248D02*
X0108193Y0110217D01*
X0108193Y0092839D01*
X0107406Y0092051D01*
X0109254Y0090368D02*
X0110813Y0090368D01*
X0111066Y0089369D02*
X0039210Y0089369D01*
X0039135Y0089444D02*
X0038217Y0089824D01*
X0037224Y0089824D01*
X0036306Y0089444D01*
X0035603Y0088742D01*
X0035223Y0087824D01*
X0035223Y0087385D01*
X0034732Y0086894D01*
X0034732Y0086468D01*
X0033242Y0086468D01*
X0032476Y0085703D01*
X0032476Y0078714D01*
X0033242Y0077949D01*
X0039443Y0077949D01*
X0039553Y0078058D01*
X0039555Y0078056D01*
X0039897Y0077858D01*
X0040279Y0077756D01*
X0042535Y0077756D01*
X0042535Y0081709D01*
X0043535Y0081709D01*
X0043535Y0077756D01*
X0045792Y0077756D01*
X0046173Y0077858D01*
X0046516Y0078056D01*
X0046795Y0078335D01*
X0046992Y0078677D01*
X0047094Y0079058D01*
X0047094Y0081709D01*
X0043535Y0081709D01*
X0043535Y0082709D01*
X0042535Y0082709D01*
X0042535Y0086661D01*
X0040279Y0086661D01*
X0040132Y0086622D01*
X0040218Y0086830D01*
X0040218Y0087824D01*
X0039838Y0088742D01*
X0039135Y0089444D01*
X0039992Y0088370D02*
X0093268Y0088370D01*
X0093125Y0087372D02*
X0040218Y0087372D01*
X0037720Y0087327D02*
X0036539Y0086146D01*
X0036539Y0082406D01*
X0036343Y0082209D01*
X0032476Y0082379D02*
X0003000Y0082379D01*
X0003000Y0081381D02*
X0032476Y0081381D01*
X0032476Y0080382D02*
X0003000Y0080382D01*
X0003000Y0079384D02*
X0032476Y0079384D01*
X0032805Y0078385D02*
X0003000Y0078385D01*
X0003000Y0077387D02*
X0101858Y0077387D01*
X0101858Y0078385D02*
X0046824Y0078385D01*
X0047094Y0079384D02*
X0101858Y0079384D01*
X0101858Y0076388D02*
X0003000Y0076388D01*
X0003000Y0075390D02*
X0101858Y0075390D01*
X0101858Y0074391D02*
X0091950Y0074391D01*
X0092070Y0074271D02*
X0091791Y0074551D01*
X0091449Y0074748D01*
X0091068Y0074850D01*
X0088614Y0074850D01*
X0088614Y0071685D01*
X0087614Y0071685D01*
X0087614Y0070685D01*
X0088614Y0070685D01*
X0088614Y0067520D01*
X0091068Y0067520D01*
X0091449Y0067622D01*
X0091791Y0067819D01*
X0092070Y0068099D01*
X0092268Y0068441D01*
X0092370Y0068822D01*
X0092370Y0070685D01*
X0088614Y0070685D01*
X0088614Y0071685D01*
X0092370Y0071685D01*
X0092370Y0073548D01*
X0092268Y0073929D01*
X0092070Y0074271D01*
X0092370Y0073393D02*
X0101858Y0073393D01*
X0101858Y0072394D02*
X0092370Y0072394D01*
X0092370Y0070397D02*
X0101858Y0070397D01*
X0101858Y0069399D02*
X0092370Y0069399D01*
X0092244Y0068400D02*
X0101276Y0068400D01*
X0099925Y0067642D02*
X0099925Y0061343D01*
X0101449Y0059414D02*
X0134023Y0059414D01*
X0133025Y0058415D02*
X0102210Y0058415D01*
X0102423Y0057417D02*
X0132026Y0057417D01*
X0131028Y0056418D02*
X0102220Y0056418D01*
X0101471Y0055420D02*
X0130029Y0055420D01*
X0129031Y0054421D02*
X0003000Y0054421D01*
X0003000Y0053423D02*
X0118394Y0053423D01*
X0117914Y0052424D02*
X0111195Y0052424D01*
X0109768Y0050319D02*
X0118823Y0050319D01*
X0120398Y0051894D01*
X0122401Y0053423D02*
X0128032Y0053423D01*
X0127252Y0052424D02*
X0122881Y0052424D01*
X0122895Y0051426D02*
X0124665Y0051426D01*
X0123971Y0050427D02*
X0122463Y0050427D01*
X0123251Y0049429D02*
X0120973Y0049429D01*
X0117445Y0057209D02*
X0117642Y0057406D01*
X0127091Y0057406D01*
X0129059Y0059374D01*
X0128559Y0064406D02*
X0129559Y0064406D01*
X0129559Y0065405D02*
X0128559Y0065405D01*
X0128559Y0066403D02*
X0129559Y0066403D01*
X0125074Y0068400D02*
X0106055Y0068400D01*
X0105472Y0069399D02*
X0124996Y0069399D01*
X0124996Y0070397D02*
X0105472Y0070397D01*
X0105472Y0071396D02*
X0124996Y0071396D01*
X0124996Y0072394D02*
X0105472Y0072394D01*
X0105472Y0073393D02*
X0124996Y0073393D01*
X0125496Y0074391D02*
X0119262Y0074391D01*
X0117642Y0076303D02*
X0127091Y0076303D01*
X0129059Y0074335D01*
X0129059Y0071185D01*
X0132623Y0074391D02*
X0142665Y0074391D01*
X0144587Y0074391D02*
X0150273Y0074391D01*
X0149569Y0075390D02*
X0145788Y0075390D01*
X0146124Y0076388D02*
X0149396Y0076388D01*
X0149639Y0077387D02*
X0146044Y0077387D01*
X0145039Y0081381D02*
X0155203Y0081381D01*
X0154890Y0082379D02*
X0145354Y0082379D01*
X0145730Y0083378D02*
X0154514Y0083378D01*
X0154554Y0084376D02*
X0145690Y0084376D01*
X0145173Y0085375D02*
X0155071Y0085375D01*
X0161968Y0085375D02*
X0165354Y0085375D01*
X0165354Y0086373D02*
X0161968Y0086373D01*
X0161968Y0087372D02*
X0165354Y0087372D01*
X0165354Y0088370D02*
X0163250Y0088370D01*
X0163831Y0089369D02*
X0165354Y0089369D01*
X0165354Y0090368D02*
X0163831Y0090368D01*
X0163831Y0091366D02*
X0165354Y0091366D01*
X0165354Y0092365D02*
X0163831Y0092365D01*
X0163831Y0093363D02*
X0165354Y0093363D01*
X0165354Y0094362D02*
X0163831Y0094362D01*
X0165354Y0095360D02*
X0138614Y0095360D01*
X0138114Y0095398D02*
X0139098Y0096382D01*
X0142839Y0096382D01*
X0142839Y0094020D01*
X0142567Y0094362D02*
X0155705Y0094362D01*
X0155705Y0093363D02*
X0142567Y0093363D01*
X0142493Y0092365D02*
X0155705Y0092365D01*
X0156171Y0096359D02*
X0142567Y0096359D01*
X0142567Y0097357D02*
X0155705Y0097357D01*
X0155705Y0098356D02*
X0142513Y0098356D01*
X0145988Y0101106D02*
X0136146Y0101106D01*
X0135358Y0101894D01*
X0135963Y0104347D02*
X0143736Y0104347D01*
X0142737Y0105345D02*
X0136247Y0105345D01*
X0137246Y0106344D02*
X0141738Y0106344D01*
X0142445Y0108193D02*
X0145201Y0105437D01*
X0157406Y0105437D01*
X0159768Y0103075D01*
X0159768Y0099531D01*
X0155705Y0099354D02*
X0147768Y0099354D01*
X0148379Y0100353D02*
X0155705Y0100353D01*
X0155705Y0101351D02*
X0148486Y0101351D01*
X0148177Y0102350D02*
X0155816Y0102350D01*
X0156939Y0103348D02*
X0147102Y0103348D01*
X0144874Y0103348D02*
X0137436Y0103348D01*
X0136539Y0108193D02*
X0142445Y0108193D01*
X0143854Y0109339D02*
X0151447Y0109339D01*
X0152077Y0108341D02*
X0144853Y0108341D01*
X0145851Y0107342D02*
X0165354Y0107342D01*
X0165354Y0106344D02*
X0159054Y0106344D01*
X0160053Y0105345D02*
X0165354Y0105345D01*
X0165354Y0104347D02*
X0161051Y0104347D01*
X0161575Y0103348D02*
X0165354Y0103348D01*
X0165354Y0102350D02*
X0163719Y0102350D01*
X0163831Y0101351D02*
X0165354Y0101351D01*
X0165354Y0100353D02*
X0163831Y0100353D01*
X0163831Y0099354D02*
X0165354Y0099354D01*
X0165354Y0098356D02*
X0163831Y0098356D01*
X0163831Y0097357D02*
X0165354Y0097357D01*
X0165354Y0096359D02*
X0163365Y0096359D01*
X0161968Y0084376D02*
X0165354Y0084376D01*
X0165354Y0083378D02*
X0161968Y0083378D01*
X0161968Y0082379D02*
X0165354Y0082379D01*
X0165354Y0081381D02*
X0161968Y0081381D01*
X0161968Y0080382D02*
X0165354Y0080382D01*
X0165354Y0079384D02*
X0161968Y0079384D01*
X0161968Y0078385D02*
X0165354Y0078385D01*
X0165354Y0077387D02*
X0161439Y0077387D01*
X0160440Y0076388D02*
X0165354Y0076388D01*
X0165354Y0075390D02*
X0159441Y0075390D01*
X0159268Y0055347D02*
X0158714Y0055259D01*
X0158040Y0055040D01*
X0157409Y0054719D01*
X0156836Y0054302D01*
X0156335Y0053802D01*
X0155919Y0053229D01*
X0155597Y0052597D01*
X0155379Y0051924D01*
X0155291Y0051370D01*
X0159268Y0051370D01*
X0159268Y0055347D01*
X0159268Y0054421D02*
X0160268Y0054421D01*
X0160268Y0055347D02*
X0160821Y0055259D01*
X0161495Y0055040D01*
X0162126Y0054719D01*
X0162699Y0054302D01*
X0163200Y0053802D01*
X0163616Y0053229D01*
X0163938Y0052597D01*
X0164157Y0051924D01*
X0164245Y0051370D01*
X0160268Y0051370D01*
X0160268Y0050370D01*
X0164245Y0050370D01*
X0164157Y0049816D01*
X0163938Y0049143D01*
X0163616Y0048512D01*
X0163200Y0047939D01*
X0162699Y0047438D01*
X0162126Y0047021D01*
X0161495Y0046700D01*
X0160821Y0046481D01*
X0160268Y0046393D01*
X0160268Y0050370D01*
X0159268Y0050370D01*
X0159268Y0046393D01*
X0158714Y0046481D01*
X0158040Y0046700D01*
X0157409Y0047021D01*
X0156836Y0047438D01*
X0156335Y0047939D01*
X0155919Y0048512D01*
X0155597Y0049143D01*
X0155379Y0049816D01*
X0155291Y0050370D01*
X0159268Y0050370D01*
X0159268Y0051370D01*
X0160268Y0051370D01*
X0160268Y0055347D01*
X0160268Y0053423D02*
X0159268Y0053423D01*
X0159268Y0052424D02*
X0160268Y0052424D01*
X0160268Y0051426D02*
X0159268Y0051426D01*
X0159768Y0050870D02*
X0159925Y0050713D01*
X0163705Y0050713D01*
X0165280Y0049138D01*
X0165280Y0038508D01*
X0162642Y0035870D01*
X0159768Y0035870D01*
X0160624Y0036563D02*
X0158911Y0036563D01*
X0157328Y0037219D01*
X0156116Y0038430D01*
X0155461Y0040013D01*
X0155461Y0041727D01*
X0156116Y0043310D01*
X0157328Y0044521D01*
X0158911Y0045177D01*
X0160624Y0045177D01*
X0162207Y0044521D01*
X0163419Y0043310D01*
X0164075Y0041727D01*
X0164075Y0040013D01*
X0163419Y0038430D01*
X0162207Y0037219D01*
X0160624Y0036563D01*
X0162435Y0037446D02*
X0165354Y0037446D01*
X0165354Y0036448D02*
X0154358Y0036448D01*
X0155276Y0037446D02*
X0157100Y0037446D01*
X0156110Y0038445D02*
X0155276Y0038445D01*
X0155276Y0039443D02*
X0155697Y0039443D01*
X0155461Y0040442D02*
X0155276Y0040442D01*
X0155461Y0041440D02*
X0155060Y0041440D01*
X0155756Y0042439D02*
X0154062Y0042439D01*
X0152681Y0041264D02*
X0153469Y0040476D01*
X0153469Y0038114D01*
X0151894Y0036539D01*
X0143232Y0036539D01*
X0141657Y0038114D01*
X0141657Y0044020D01*
X0137720Y0047957D01*
X0137720Y0049531D01*
X0134248Y0049429D02*
X0130866Y0049429D01*
X0130866Y0050427D02*
X0134248Y0050427D01*
X0134248Y0051426D02*
X0131147Y0051426D01*
X0132145Y0052424D02*
X0134248Y0052424D01*
X0134842Y0053423D02*
X0133144Y0053423D01*
X0134142Y0054421D02*
X0156999Y0054421D01*
X0156060Y0053423D02*
X0148473Y0053423D01*
X0148301Y0053594D02*
X0142888Y0053594D01*
X0142122Y0052829D01*
X0142122Y0046234D01*
X0142888Y0045469D01*
X0148301Y0045469D01*
X0149067Y0046234D01*
X0149067Y0047724D01*
X0149775Y0047724D01*
X0150085Y0047414D01*
X0151003Y0047034D01*
X0151997Y0047034D01*
X0152915Y0047414D01*
X0153617Y0048117D01*
X0153998Y0049035D01*
X0153998Y0050028D01*
X0153617Y0050946D01*
X0152915Y0051649D01*
X0151997Y0052029D01*
X0151003Y0052029D01*
X0150085Y0051649D01*
X0149775Y0051339D01*
X0149067Y0051339D01*
X0149067Y0052829D01*
X0148301Y0053594D01*
X0149067Y0052424D02*
X0155541Y0052424D01*
X0155300Y0051426D02*
X0153138Y0051426D01*
X0153832Y0050427D02*
X0159268Y0050427D01*
X0159268Y0049429D02*
X0160268Y0049429D01*
X0160268Y0050427D02*
X0165354Y0050427D01*
X0165354Y0049429D02*
X0164031Y0049429D01*
X0163557Y0048430D02*
X0165354Y0048430D01*
X0165354Y0047432D02*
X0162691Y0047432D01*
X0160519Y0046433D02*
X0165354Y0046433D01*
X0165354Y0045434D02*
X0142798Y0045434D01*
X0143465Y0044436D02*
X0157242Y0044436D01*
X0156244Y0043437D02*
X0150810Y0043437D01*
X0149531Y0041264D02*
X0152681Y0041264D01*
X0151661Y0039443D02*
X0151243Y0039443D01*
X0151244Y0038445D02*
X0143882Y0038445D01*
X0143465Y0039443D02*
X0147820Y0039443D01*
X0147168Y0040442D02*
X0143465Y0040442D01*
X0143465Y0041440D02*
X0147034Y0041440D01*
X0147315Y0042439D02*
X0143465Y0042439D01*
X0143465Y0043437D02*
X0148253Y0043437D01*
X0149067Y0046433D02*
X0159016Y0046433D01*
X0159268Y0046433D02*
X0160268Y0046433D01*
X0160268Y0047432D02*
X0159268Y0047432D01*
X0159268Y0048430D02*
X0160268Y0048430D01*
X0156845Y0047432D02*
X0152932Y0047432D01*
X0153747Y0048430D02*
X0155978Y0048430D01*
X0155505Y0049429D02*
X0153998Y0049429D01*
X0151500Y0049531D02*
X0145594Y0049531D01*
X0142122Y0049429D02*
X0141193Y0049429D01*
X0141193Y0050427D02*
X0142122Y0050427D01*
X0142122Y0051426D02*
X0141193Y0051426D01*
X0141193Y0052424D02*
X0142122Y0052424D01*
X0142716Y0053423D02*
X0140599Y0053423D01*
X0141686Y0055420D02*
X0135141Y0055420D01*
X0134248Y0048430D02*
X0130866Y0048430D01*
X0130866Y0047432D02*
X0134248Y0047432D01*
X0134248Y0046433D02*
X0130866Y0046433D01*
X0130866Y0045434D02*
X0137687Y0045434D01*
X0138686Y0044436D02*
X0130866Y0044436D01*
X0130866Y0043437D02*
X0139684Y0043437D01*
X0139850Y0042439D02*
X0131227Y0042439D01*
X0132225Y0041440D02*
X0139850Y0041440D01*
X0139850Y0040442D02*
X0133224Y0040442D01*
X0134222Y0039443D02*
X0139850Y0039443D01*
X0139850Y0038445D02*
X0135221Y0038445D01*
X0136219Y0037446D02*
X0139850Y0037446D01*
X0140768Y0036448D02*
X0137218Y0036448D01*
X0136539Y0034571D02*
X0129059Y0042051D01*
X0136539Y0034571D02*
X0149138Y0034571D01*
X0151106Y0032602D01*
X0154256Y0033783D02*
X0154256Y0029453D01*
X0152287Y0027484D01*
X0153822Y0026463D02*
X0165354Y0026463D01*
X0165354Y0027461D02*
X0162450Y0027461D01*
X0163431Y0028460D02*
X0165354Y0028460D01*
X0165354Y0029458D02*
X0163845Y0029458D01*
X0164075Y0030457D02*
X0165354Y0030457D01*
X0165354Y0031455D02*
X0164075Y0031455D01*
X0163774Y0032454D02*
X0165354Y0032454D01*
X0165354Y0033452D02*
X0163277Y0033452D01*
X0162278Y0034451D02*
X0165354Y0034451D01*
X0165354Y0035449D02*
X0156122Y0035449D01*
X0156683Y0034451D02*
X0157257Y0034451D01*
X0163425Y0038445D02*
X0165354Y0038445D01*
X0165354Y0039443D02*
X0163839Y0039443D01*
X0164075Y0040442D02*
X0165354Y0040442D01*
X0165354Y0041440D02*
X0164075Y0041440D01*
X0163780Y0042439D02*
X0165354Y0042439D01*
X0165354Y0043437D02*
X0163291Y0043437D01*
X0162293Y0044436D02*
X0165354Y0044436D01*
X0165354Y0051426D02*
X0164236Y0051426D01*
X0163994Y0052424D02*
X0165354Y0052424D01*
X0165354Y0053423D02*
X0163476Y0053423D01*
X0162536Y0054421D02*
X0165354Y0054421D01*
X0149862Y0051426D02*
X0149067Y0051426D01*
X0149067Y0047432D02*
X0150068Y0047432D01*
X0142122Y0047432D02*
X0141193Y0047432D01*
X0141193Y0048430D02*
X0142122Y0048430D01*
X0142122Y0046433D02*
X0141800Y0046433D01*
X0155819Y0028460D02*
X0156104Y0028460D01*
X0157085Y0027461D02*
X0154820Y0027461D01*
X0150335Y0023467D02*
X0148347Y0023467D01*
X0149067Y0024466D02*
X0165354Y0024466D01*
X0165354Y0025464D02*
X0149067Y0025464D01*
X0159751Y0023467D02*
X0165354Y0023467D01*
X0165354Y0022469D02*
X0161481Y0022469D01*
X0162652Y0021470D02*
X0165354Y0021470D01*
X0165354Y0020472D02*
X0163651Y0020472D01*
X0164360Y0019473D02*
X0165354Y0019473D01*
X0165354Y0018475D02*
X0164937Y0018475D01*
X0138220Y0023467D02*
X0137220Y0023467D01*
X0137220Y0024466D02*
X0138220Y0024466D01*
X0138220Y0025464D02*
X0137220Y0025464D01*
X0117445Y0057209D02*
X0105043Y0057209D01*
X0103665Y0067642D02*
X0103665Y0083831D01*
X0102925Y0084571D01*
X0106532Y0084376D02*
X0110842Y0084376D01*
X0110842Y0083378D02*
X0106532Y0083378D01*
X0106532Y0082379D02*
X0110842Y0082379D01*
X0110905Y0081381D02*
X0106532Y0081381D01*
X0106035Y0080382D02*
X0111891Y0080382D01*
X0110555Y0079846D02*
X0108980Y0081421D01*
X0108980Y0086933D01*
X0110842Y0087372D02*
X0106532Y0087372D01*
X0106532Y0086373D02*
X0110842Y0086373D01*
X0110857Y0088370D02*
X0106424Y0088370D01*
X0108193Y0089295D02*
X0099925Y0089295D01*
X0097760Y0087130D01*
X0097760Y0085406D01*
X0096925Y0084571D01*
X0096925Y0082949D01*
X0090673Y0076697D01*
X0090476Y0076697D01*
X0088114Y0074335D01*
X0088114Y0071185D01*
X0087614Y0071396D02*
X0003000Y0071396D01*
X0003000Y0072394D02*
X0083858Y0072394D01*
X0083858Y0071685D02*
X0083858Y0073548D01*
X0083960Y0073929D01*
X0084158Y0074271D01*
X0084437Y0074551D01*
X0084779Y0074748D01*
X0085161Y0074850D01*
X0087614Y0074850D01*
X0087614Y0071685D01*
X0083858Y0071685D01*
X0083858Y0070397D02*
X0003000Y0070397D01*
X0003000Y0069399D02*
X0083858Y0069399D01*
X0087614Y0069399D02*
X0088614Y0069399D01*
X0088614Y0070397D02*
X0087614Y0070397D01*
X0088614Y0071396D02*
X0101858Y0071396D01*
X0105472Y0074391D02*
X0116021Y0074391D01*
X0115317Y0075390D02*
X0105472Y0075390D01*
X0105472Y0076388D02*
X0115144Y0076388D01*
X0115387Y0077387D02*
X0105472Y0077387D01*
X0105472Y0078385D02*
X0116192Y0078385D01*
X0115142Y0080382D02*
X0114142Y0080382D01*
X0114142Y0081381D02*
X0115142Y0081381D01*
X0115142Y0082379D02*
X0114142Y0082379D01*
X0114142Y0083378D02*
X0115142Y0083378D01*
X0114642Y0083933D02*
X0114642Y0084965D01*
X0114642Y0085996D01*
X0114248Y0085996D01*
X0110949Y0089295D01*
X0110161Y0089295D01*
X0109768Y0089689D01*
X0108587Y0089689D01*
X0108193Y0089295D01*
X0109825Y0091366D02*
X0110323Y0091366D01*
X0110323Y0092365D02*
X0110000Y0092365D01*
X0110000Y0093363D02*
X0110323Y0093363D01*
X0110323Y0094362D02*
X0110000Y0094362D01*
X0110000Y0095360D02*
X0110323Y0095360D01*
X0110323Y0096359D02*
X0110000Y0096359D01*
X0110000Y0097357D02*
X0110323Y0097357D01*
X0110323Y0098356D02*
X0110000Y0098356D01*
X0110000Y0099354D02*
X0110323Y0099354D01*
X0110323Y0100353D02*
X0110000Y0100353D01*
X0110000Y0101351D02*
X0110323Y0101351D01*
X0110323Y0102350D02*
X0110000Y0102350D01*
X0110000Y0103348D02*
X0110323Y0103348D01*
X0110323Y0104347D02*
X0110000Y0104347D01*
X0113937Y0104347D02*
X0126858Y0104347D01*
X0126858Y0103348D02*
X0113937Y0103348D01*
X0113937Y0102350D02*
X0126858Y0102350D01*
X0126858Y0101351D02*
X0113937Y0101351D01*
X0113937Y0100353D02*
X0126858Y0100353D01*
X0126858Y0099354D02*
X0113937Y0099354D01*
X0113937Y0098356D02*
X0126858Y0098356D01*
X0126858Y0097357D02*
X0113937Y0097357D01*
X0113937Y0096359D02*
X0126858Y0096359D01*
X0126858Y0095360D02*
X0113937Y0095360D01*
X0113937Y0094362D02*
X0126858Y0094362D01*
X0126858Y0093363D02*
X0113937Y0093363D01*
X0114955Y0092365D02*
X0126858Y0092365D01*
X0126858Y0091366D02*
X0115646Y0091366D01*
X0115809Y0090368D02*
X0126858Y0090368D01*
X0126858Y0089369D02*
X0123536Y0089369D01*
X0124249Y0088370D02*
X0126858Y0088370D01*
X0126858Y0087372D02*
X0124249Y0087372D01*
X0125909Y0084768D02*
X0120839Y0084768D01*
X0120642Y0084965D01*
X0124249Y0082379D02*
X0125149Y0082379D01*
X0124249Y0081381D02*
X0126858Y0081381D01*
X0126858Y0082379D02*
X0126670Y0082379D01*
X0126858Y0080382D02*
X0117392Y0080382D01*
X0119092Y0078385D02*
X0126858Y0078385D01*
X0126858Y0079384D02*
X0105472Y0079384D01*
X0110555Y0079846D02*
X0114642Y0083933D01*
X0114142Y0084376D02*
X0115142Y0084376D01*
X0114142Y0085375D02*
X0106532Y0085375D01*
X0105557Y0090368D02*
X0003000Y0090368D01*
X0003000Y0091366D02*
X0104986Y0091366D01*
X0104908Y0092365D02*
X0003000Y0092365D01*
X0003000Y0093363D02*
X0045439Y0093363D01*
X0044386Y0094362D02*
X0003000Y0094362D01*
X0003000Y0095360D02*
X0044061Y0095360D01*
X0043394Y0096359D02*
X0003000Y0096359D01*
X0003000Y0097357D02*
X0043394Y0097357D01*
X0043394Y0098356D02*
X0003000Y0098356D01*
X0003000Y0099354D02*
X0043394Y0099354D01*
X0043394Y0100353D02*
X0003000Y0100353D01*
X0003000Y0101351D02*
X0043394Y0101351D01*
X0043394Y0102350D02*
X0003000Y0102350D01*
X0003000Y0103348D02*
X0042766Y0103348D01*
X0041767Y0104347D02*
X0003000Y0104347D01*
X0003000Y0105345D02*
X0040769Y0105345D01*
X0043883Y0107342D02*
X0045553Y0107342D01*
X0045459Y0106344D02*
X0044881Y0106344D01*
X0040476Y0108193D02*
X0039295Y0108193D01*
X0037612Y0106344D02*
X0003000Y0106344D01*
X0003000Y0107342D02*
X0036944Y0107342D01*
X0036798Y0108341D02*
X0003000Y0108341D01*
X0003000Y0109339D02*
X0037067Y0109339D01*
X0037947Y0110338D02*
X0031490Y0110338D01*
X0028991Y0110338D02*
X0003000Y0110338D01*
X0003000Y0111336D02*
X0028029Y0111336D01*
X0027743Y0112335D02*
X0003000Y0112335D01*
X0003000Y0113333D02*
X0027872Y0113333D01*
X0028382Y0114332D02*
X0003000Y0114332D01*
X0003000Y0115330D02*
X0028382Y0115330D01*
X0028382Y0116329D02*
X0003000Y0116329D01*
X0003000Y0117327D02*
X0028382Y0117327D01*
X0028382Y0118326D02*
X0003000Y0118326D01*
X0003000Y0119324D02*
X0028382Y0119324D01*
X0028382Y0120323D02*
X0003000Y0120323D01*
X0003000Y0121321D02*
X0028382Y0121321D01*
X0028382Y0122320D02*
X0003000Y0122320D01*
X0003000Y0123318D02*
X0028382Y0123318D01*
X0028382Y0124317D02*
X0003000Y0124317D01*
X0003000Y0125315D02*
X0028382Y0125315D01*
X0028382Y0126314D02*
X0003000Y0126314D01*
X0003000Y0127312D02*
X0028382Y0127312D01*
X0028382Y0128311D02*
X0003000Y0128311D01*
X0003000Y0129309D02*
X0028382Y0129309D01*
X0028382Y0130308D02*
X0003000Y0130308D01*
X0003000Y0131306D02*
X0024232Y0131306D01*
X0024232Y0132305D02*
X0003000Y0132305D01*
X0003000Y0133303D02*
X0024232Y0133303D01*
X0024232Y0134302D02*
X0003000Y0134302D01*
X0003000Y0135301D02*
X0024232Y0135301D01*
X0024232Y0136299D02*
X0003000Y0136299D01*
X0003000Y0137298D02*
X0024232Y0137298D01*
X0024232Y0138296D02*
X0003000Y0138296D01*
X0003000Y0139295D02*
X0024232Y0139295D01*
X0024232Y0140293D02*
X0003000Y0140293D01*
X0003000Y0141292D02*
X0024232Y0141292D01*
X0024232Y0142290D02*
X0003000Y0142290D01*
X0003000Y0143289D02*
X0024232Y0143289D01*
X0024232Y0144287D02*
X0016247Y0144287D01*
X0018709Y0145286D02*
X0024232Y0145286D01*
X0024232Y0146284D02*
X0020320Y0146284D01*
X0021318Y0147283D02*
X0024232Y0147283D01*
X0022281Y0148281D02*
X0027370Y0148281D01*
X0027370Y0149280D02*
X0022858Y0149280D01*
X0023434Y0150278D02*
X0027370Y0150278D01*
X0027370Y0151277D02*
X0023845Y0151277D01*
X0024112Y0152275D02*
X0027370Y0152275D01*
X0027370Y0153274D02*
X0024380Y0153274D01*
X0024461Y0154272D02*
X0027370Y0154272D01*
X0027370Y0155271D02*
X0024461Y0155271D01*
X0024461Y0156269D02*
X0025877Y0156269D01*
X0025010Y0157268D02*
X0024258Y0157268D01*
X0023990Y0158266D02*
X0024596Y0158266D01*
X0024370Y0159265D02*
X0023723Y0159265D01*
X0023172Y0160263D02*
X0024370Y0160263D01*
X0024593Y0161262D02*
X0022595Y0161262D01*
X0021862Y0162260D02*
X0025006Y0162260D01*
X0025870Y0163259D02*
X0020863Y0163259D01*
X0019651Y0164257D02*
X0027455Y0164257D01*
X0030900Y0164257D02*
X0036975Y0164257D01*
X0035597Y0163259D02*
X0032484Y0163259D01*
X0033348Y0162260D02*
X0034836Y0162260D01*
X0034405Y0161262D02*
X0033761Y0161262D01*
X0029177Y0159768D02*
X0029177Y0155831D01*
X0031146Y0153862D02*
X0044807Y0153862D01*
X0049177Y0158232D01*
X0049177Y0159768D01*
X0045870Y0163259D02*
X0042757Y0163259D01*
X0042991Y0163025D02*
X0042434Y0163581D01*
X0041798Y0164044D01*
X0041096Y0164401D01*
X0040348Y0164645D01*
X0039677Y0164751D01*
X0039677Y0160268D01*
X0044160Y0160268D01*
X0044054Y0160939D01*
X0043811Y0161687D01*
X0043454Y0162388D01*
X0042991Y0163025D01*
X0043519Y0162260D02*
X0045006Y0162260D01*
X0044593Y0161262D02*
X0043949Y0161262D01*
X0044370Y0160263D02*
X0039677Y0160263D01*
X0039677Y0161262D02*
X0038677Y0161262D01*
X0038677Y0162260D02*
X0039677Y0162260D01*
X0039677Y0163259D02*
X0038677Y0163259D01*
X0038677Y0164257D02*
X0039677Y0164257D01*
X0041379Y0164257D02*
X0047455Y0164257D01*
X0050900Y0164257D02*
X0056975Y0164257D01*
X0057258Y0164401D02*
X0056557Y0164044D01*
X0055920Y0163581D01*
X0055363Y0163025D01*
X0054901Y0162388D01*
X0054543Y0161687D01*
X0054300Y0160939D01*
X0054194Y0160268D01*
X0058677Y0160268D01*
X0058677Y0164751D01*
X0058006Y0164645D01*
X0057258Y0164401D01*
X0058677Y0164257D02*
X0059677Y0164257D01*
X0059677Y0164751D02*
X0059677Y0160268D01*
X0058677Y0160268D01*
X0058677Y0159268D01*
X0054194Y0159268D01*
X0054300Y0158597D01*
X0054543Y0157848D01*
X0054901Y0157147D01*
X0055363Y0156510D01*
X0055920Y0155954D01*
X0056557Y0155491D01*
X0057258Y0155134D01*
X0058006Y0154891D01*
X0058677Y0154785D01*
X0058677Y0159268D01*
X0059677Y0159268D01*
X0059677Y0160268D01*
X0064160Y0160268D01*
X0064054Y0160939D01*
X0063811Y0161687D01*
X0063454Y0162388D01*
X0062991Y0163025D01*
X0062434Y0163581D01*
X0061798Y0164044D01*
X0061096Y0164401D01*
X0060348Y0164645D01*
X0059677Y0164751D01*
X0059677Y0163259D02*
X0058677Y0163259D01*
X0058677Y0162260D02*
X0059677Y0162260D01*
X0059677Y0161262D02*
X0058677Y0161262D01*
X0058677Y0160263D02*
X0053984Y0160263D01*
X0053984Y0159265D02*
X0054194Y0159265D01*
X0054408Y0158266D02*
X0053758Y0158266D01*
X0053345Y0157268D02*
X0054839Y0157268D01*
X0055605Y0156269D02*
X0052477Y0156269D01*
X0050882Y0155271D02*
X0056990Y0155271D01*
X0058677Y0155271D02*
X0059677Y0155271D01*
X0059677Y0154785D02*
X0060348Y0154891D01*
X0061096Y0155134D01*
X0061798Y0155491D01*
X0062434Y0155954D01*
X0062991Y0156510D01*
X0063454Y0157147D01*
X0063811Y0157848D01*
X0064054Y0158597D01*
X0064160Y0159268D01*
X0059677Y0159268D01*
X0059677Y0154785D01*
X0059677Y0156269D02*
X0058677Y0156269D01*
X0058677Y0157268D02*
X0059677Y0157268D01*
X0059677Y0158266D02*
X0058677Y0158266D01*
X0058677Y0159265D02*
X0059677Y0159265D01*
X0059677Y0160263D02*
X0064370Y0160263D01*
X0064370Y0160724D02*
X0064370Y0158812D01*
X0065102Y0157045D01*
X0066454Y0155692D01*
X0068221Y0154961D01*
X0070133Y0154961D01*
X0071900Y0155692D01*
X0073252Y0157045D01*
X0073984Y0158812D01*
X0073984Y0160724D01*
X0073252Y0162491D01*
X0071900Y0163843D01*
X0070133Y0164575D01*
X0068221Y0164575D01*
X0066454Y0163843D01*
X0065102Y0162491D01*
X0064370Y0160724D01*
X0064593Y0161262D02*
X0063949Y0161262D01*
X0063519Y0162260D02*
X0065006Y0162260D01*
X0065870Y0163259D02*
X0062757Y0163259D01*
X0061379Y0164257D02*
X0067455Y0164257D01*
X0070900Y0164257D02*
X0076975Y0164257D01*
X0075597Y0163259D02*
X0072484Y0163259D01*
X0073348Y0162260D02*
X0074836Y0162260D01*
X0074405Y0161262D02*
X0073761Y0161262D01*
X0073984Y0160263D02*
X0078677Y0160263D01*
X0074408Y0158266D02*
X0073758Y0158266D01*
X0073984Y0159265D02*
X0074194Y0159265D01*
X0074839Y0157268D02*
X0073345Y0157268D01*
X0073210Y0156269D02*
X0072477Y0156269D01*
X0072676Y0155271D02*
X0070882Y0155271D01*
X0072624Y0154272D02*
X0047773Y0154272D01*
X0046774Y0153274D02*
X0072989Y0153274D01*
X0074328Y0152275D02*
X0045776Y0152275D01*
X0044659Y0156269D02*
X0042750Y0156269D01*
X0043515Y0157268D02*
X0045010Y0157268D01*
X0044596Y0158266D02*
X0043947Y0158266D01*
X0044160Y0159265D02*
X0044370Y0159265D01*
X0052484Y0163259D02*
X0055597Y0163259D01*
X0054836Y0162260D02*
X0053348Y0162260D01*
X0053761Y0161262D02*
X0054405Y0161262D01*
X0061365Y0155271D02*
X0067472Y0155271D01*
X0065877Y0156269D02*
X0062750Y0156269D01*
X0063515Y0157268D02*
X0065010Y0157268D01*
X0064596Y0158266D02*
X0063947Y0158266D01*
X0064160Y0159265D02*
X0064370Y0159265D01*
X0075122Y0154650D02*
X0082602Y0154650D01*
X0081808Y0152275D02*
X0075916Y0152275D01*
X0083397Y0152275D02*
X0087370Y0152275D01*
X0087370Y0151277D02*
X0030984Y0151277D01*
X0030984Y0150278D02*
X0087370Y0150278D01*
X0087370Y0149280D02*
X0030984Y0149280D01*
X0030984Y0148281D02*
X0087370Y0148281D01*
X0087370Y0147283D02*
X0055146Y0147283D01*
X0055146Y0146284D02*
X0087370Y0146284D01*
X0087370Y0145286D02*
X0055146Y0145286D01*
X0055146Y0144287D02*
X0087370Y0144287D01*
X0087370Y0143289D02*
X0055146Y0143289D01*
X0055146Y0142290D02*
X0071041Y0142290D01*
X0070394Y0141292D02*
X0055146Y0141292D01*
X0055146Y0140293D02*
X0070262Y0140293D01*
X0070546Y0139295D02*
X0055146Y0139295D01*
X0055146Y0138296D02*
X0070953Y0138296D01*
X0070953Y0137298D02*
X0055146Y0137298D01*
X0055146Y0136299D02*
X0070609Y0136299D01*
X0070262Y0135301D02*
X0055146Y0135301D01*
X0055146Y0134302D02*
X0070331Y0134302D01*
X0070889Y0133303D02*
X0055146Y0133303D01*
X0049531Y0138953D02*
X0049189Y0139295D01*
X0049531Y0138953D02*
X0049531Y0113311D01*
X0050713Y0112130D01*
X0050713Y0109374D01*
X0047952Y0112335D02*
X0047945Y0112335D01*
X0047724Y0113333D02*
X0046947Y0113333D01*
X0047724Y0114332D02*
X0031996Y0114332D01*
X0031996Y0115330D02*
X0047724Y0115330D01*
X0047724Y0116329D02*
X0031996Y0116329D01*
X0031996Y0117327D02*
X0047724Y0117327D01*
X0047724Y0118326D02*
X0031996Y0118326D01*
X0031996Y0119324D02*
X0047724Y0119324D01*
X0047724Y0120323D02*
X0031996Y0120323D01*
X0031996Y0121321D02*
X0047724Y0121321D01*
X0047724Y0122320D02*
X0031996Y0122320D01*
X0031996Y0123318D02*
X0047724Y0123318D01*
X0047724Y0124317D02*
X0031996Y0124317D01*
X0031996Y0125315D02*
X0047724Y0125315D01*
X0047724Y0126314D02*
X0031996Y0126314D01*
X0031996Y0127312D02*
X0047724Y0127312D01*
X0047724Y0128311D02*
X0031996Y0128311D01*
X0031996Y0129309D02*
X0047724Y0129309D01*
X0047724Y0130308D02*
X0031996Y0130308D01*
X0036146Y0131306D02*
X0043232Y0131306D01*
X0043232Y0132305D02*
X0036146Y0132305D01*
X0036146Y0133303D02*
X0043232Y0133303D01*
X0043232Y0134302D02*
X0036146Y0134302D01*
X0036146Y0135301D02*
X0043232Y0135301D01*
X0043232Y0136299D02*
X0036146Y0136299D01*
X0036146Y0137298D02*
X0043232Y0137298D01*
X0043232Y0138296D02*
X0036146Y0138296D01*
X0036146Y0139295D02*
X0043232Y0139295D01*
X0043232Y0140293D02*
X0036146Y0140293D01*
X0036146Y0141292D02*
X0043232Y0141292D01*
X0043232Y0142290D02*
X0036146Y0142290D01*
X0036146Y0143289D02*
X0043232Y0143289D01*
X0043232Y0144287D02*
X0036146Y0144287D01*
X0036146Y0145286D02*
X0043232Y0145286D01*
X0043232Y0146284D02*
X0036146Y0146284D01*
X0036146Y0147283D02*
X0043232Y0147283D01*
X0017922Y0165256D02*
X0150433Y0165256D01*
X0148703Y0164257D02*
X0141379Y0164257D01*
X0141096Y0164401D02*
X0140348Y0164645D01*
X0139677Y0164751D01*
X0139677Y0160268D01*
X0138677Y0160268D01*
X0138677Y0164751D01*
X0138006Y0164645D01*
X0137258Y0164401D01*
X0136557Y0164044D01*
X0135920Y0163581D01*
X0135363Y0163025D01*
X0134901Y0162388D01*
X0134543Y0161687D01*
X0134300Y0160939D01*
X0134194Y0160268D01*
X0138677Y0160268D01*
X0138677Y0159268D01*
X0134194Y0159268D01*
X0134300Y0158597D01*
X0134543Y0157848D01*
X0134901Y0157147D01*
X0135363Y0156510D01*
X0135920Y0155954D01*
X0136557Y0155491D01*
X0137258Y0155134D01*
X0138006Y0154891D01*
X0138677Y0154785D01*
X0138677Y0159268D01*
X0139677Y0159268D01*
X0139677Y0160268D01*
X0144160Y0160268D01*
X0144054Y0160939D01*
X0143811Y0161687D01*
X0143454Y0162388D01*
X0142991Y0163025D01*
X0142434Y0163581D01*
X0141798Y0164044D01*
X0141096Y0164401D01*
X0139677Y0164257D02*
X0138677Y0164257D01*
X0138677Y0163259D02*
X0139677Y0163259D01*
X0139677Y0162260D02*
X0138677Y0162260D01*
X0138677Y0161262D02*
X0139677Y0161262D01*
X0139677Y0160263D02*
X0145183Y0160263D01*
X0144632Y0159265D02*
X0144160Y0159265D01*
X0144160Y0159268D02*
X0139677Y0159268D01*
X0139677Y0154785D01*
X0140348Y0154891D01*
X0141096Y0155134D01*
X0141798Y0155491D01*
X0142434Y0155954D01*
X0142991Y0156510D01*
X0143454Y0157147D01*
X0143811Y0157848D01*
X0144054Y0158597D01*
X0144160Y0159268D01*
X0144364Y0158266D02*
X0143947Y0158266D01*
X0144096Y0157268D02*
X0143515Y0157268D01*
X0143894Y0156269D02*
X0142750Y0156269D01*
X0143894Y0155271D02*
X0141365Y0155271D01*
X0139677Y0155271D02*
X0138677Y0155271D01*
X0138677Y0156269D02*
X0139677Y0156269D01*
X0139677Y0157268D02*
X0138677Y0157268D01*
X0138677Y0158266D02*
X0139677Y0158266D01*
X0139677Y0159265D02*
X0138677Y0159265D01*
X0138677Y0160263D02*
X0133984Y0160263D01*
X0133984Y0159265D02*
X0134194Y0159265D01*
X0134408Y0158266D02*
X0133758Y0158266D01*
X0134233Y0157268D02*
X0134839Y0157268D01*
X0135231Y0156269D02*
X0135605Y0156269D01*
X0135394Y0155271D02*
X0136990Y0155271D01*
X0135394Y0154272D02*
X0143894Y0154272D01*
X0143975Y0153274D02*
X0135394Y0153274D01*
X0133587Y0155358D02*
X0129177Y0159768D01*
X0118047Y0148638D01*
X0113311Y0148795D01*
X0109177Y0153244D01*
X0109177Y0159768D01*
X0105870Y0163259D02*
X0102757Y0163259D01*
X0103519Y0162260D02*
X0105006Y0162260D01*
X0104593Y0161262D02*
X0103949Y0161262D01*
X0101379Y0164257D02*
X0107455Y0164257D01*
X0110900Y0164257D02*
X0116975Y0164257D01*
X0117258Y0164401D02*
X0116557Y0164044D01*
X0115920Y0163581D01*
X0115363Y0163025D01*
X0114901Y0162388D01*
X0114543Y0161687D01*
X0114300Y0160939D01*
X0114194Y0160268D01*
X0118677Y0160268D01*
X0118677Y0164751D01*
X0118006Y0164645D01*
X0117258Y0164401D01*
X0118677Y0164257D02*
X0119677Y0164257D01*
X0119677Y0164751D02*
X0119677Y0160268D01*
X0118677Y0160268D01*
X0118677Y0159268D01*
X0114194Y0159268D01*
X0114300Y0158597D01*
X0114543Y0157848D01*
X0114901Y0157147D01*
X0115363Y0156510D01*
X0115920Y0155954D01*
X0116557Y0155491D01*
X0117258Y0155134D01*
X0118006Y0154891D01*
X0118677Y0154785D01*
X0118677Y0159268D01*
X0119677Y0159268D01*
X0119677Y0160268D01*
X0124160Y0160268D01*
X0124054Y0160939D01*
X0123811Y0161687D01*
X0123454Y0162388D01*
X0122991Y0163025D01*
X0122434Y0163581D01*
X0121798Y0164044D01*
X0121096Y0164401D01*
X0120348Y0164645D01*
X0119677Y0164751D01*
X0119677Y0163259D02*
X0118677Y0163259D01*
X0118677Y0162260D02*
X0119677Y0162260D01*
X0119677Y0161262D02*
X0118677Y0161262D01*
X0118677Y0160263D02*
X0113984Y0160263D01*
X0113984Y0159265D02*
X0114194Y0159265D01*
X0114408Y0158266D02*
X0113758Y0158266D01*
X0113345Y0157268D02*
X0114839Y0157268D01*
X0115605Y0156269D02*
X0112477Y0156269D01*
X0110984Y0155271D02*
X0116990Y0155271D01*
X0118677Y0155271D02*
X0119677Y0155271D01*
X0119677Y0154785D02*
X0120348Y0154891D01*
X0121096Y0155134D01*
X0121798Y0155491D01*
X0122434Y0155954D01*
X0122991Y0156510D01*
X0123454Y0157147D01*
X0123811Y0157848D01*
X0124054Y0158597D01*
X0124160Y0159268D01*
X0119677Y0159268D01*
X0119677Y0154785D01*
X0119677Y0156269D02*
X0118677Y0156269D01*
X0118677Y0157268D02*
X0119677Y0157268D01*
X0119677Y0158266D02*
X0118677Y0158266D01*
X0118677Y0159265D02*
X0119677Y0159265D01*
X0119677Y0160263D02*
X0124370Y0160263D01*
X0124370Y0159265D02*
X0124160Y0159265D01*
X0123947Y0158266D02*
X0124596Y0158266D01*
X0124122Y0157268D02*
X0123515Y0157268D01*
X0123123Y0156269D02*
X0122750Y0156269D01*
X0122125Y0155271D02*
X0121365Y0155271D01*
X0124240Y0152275D02*
X0129757Y0152275D01*
X0129720Y0151277D02*
X0123242Y0151277D01*
X0122243Y0150278D02*
X0129720Y0150278D01*
X0129720Y0149280D02*
X0122118Y0149280D01*
X0122118Y0148281D02*
X0129720Y0148281D01*
X0129720Y0147283D02*
X0122118Y0147283D01*
X0122118Y0146284D02*
X0129720Y0146284D01*
X0129720Y0145286D02*
X0122118Y0145286D01*
X0122118Y0144287D02*
X0130708Y0144287D01*
X0130402Y0143289D02*
X0121803Y0143289D01*
X0130402Y0142290D02*
X0090984Y0142290D01*
X0090984Y0141292D02*
X0130402Y0141292D01*
X0132209Y0143232D02*
X0132209Y0128665D01*
X0134016Y0141292D02*
X0134843Y0141292D01*
X0134843Y0142290D02*
X0134016Y0142290D01*
X0134821Y0143289D02*
X0135098Y0143289D01*
X0135197Y0144287D02*
X0144844Y0144287D01*
X0144672Y0145286D02*
X0144256Y0145286D01*
X0144339Y0146284D02*
X0144915Y0146284D01*
X0144339Y0147283D02*
X0145719Y0147283D01*
X0146073Y0148281D02*
X0140780Y0148281D01*
X0140779Y0147283D02*
X0139780Y0147283D01*
X0139780Y0146284D02*
X0140779Y0146284D01*
X0140779Y0145286D02*
X0139780Y0145286D01*
X0139795Y0143289D02*
X0138795Y0143289D01*
X0138795Y0142290D02*
X0139795Y0142290D01*
X0133390Y0144413D02*
X0133390Y0148547D01*
X0133587Y0148744D01*
X0133587Y0155358D01*
X0131780Y0154272D02*
X0126237Y0154272D01*
X0125239Y0153274D02*
X0131780Y0153274D01*
X0131119Y0155271D02*
X0130882Y0155271D01*
X0127472Y0155271D02*
X0127236Y0155271D01*
X0124593Y0161262D02*
X0123949Y0161262D01*
X0123519Y0162260D02*
X0125006Y0162260D01*
X0125870Y0163259D02*
X0122757Y0163259D01*
X0121379Y0164257D02*
X0127455Y0164257D01*
X0130900Y0164257D02*
X0136975Y0164257D01*
X0135597Y0163259D02*
X0132484Y0163259D01*
X0133348Y0162260D02*
X0134836Y0162260D01*
X0134405Y0161262D02*
X0133761Y0161262D01*
X0142757Y0163259D02*
X0147491Y0163259D01*
X0146492Y0162260D02*
X0143519Y0162260D01*
X0143949Y0161262D02*
X0145759Y0161262D01*
X0144237Y0152275D02*
X0144242Y0152275D01*
X0144339Y0151277D02*
X0144510Y0151277D01*
X0144339Y0150278D02*
X0144920Y0150278D01*
X0145496Y0149280D02*
X0144339Y0149280D01*
X0140779Y0149280D02*
X0139780Y0149280D01*
X0139780Y0150278D02*
X0140779Y0150278D01*
X0140779Y0151277D02*
X0139780Y0151277D01*
X0139780Y0152275D02*
X0140779Y0152275D01*
X0133390Y0144413D02*
X0132209Y0143232D01*
X0114405Y0161262D02*
X0113761Y0161262D01*
X0113348Y0162260D02*
X0114836Y0162260D01*
X0115597Y0163259D02*
X0112484Y0163259D01*
X0095597Y0163259D02*
X0092484Y0163259D01*
X0093348Y0162260D02*
X0094836Y0162260D01*
X0094405Y0161262D02*
X0093761Y0161262D01*
X0087370Y0155271D02*
X0085048Y0155271D01*
X0085100Y0154272D02*
X0087370Y0154272D01*
X0087370Y0153274D02*
X0084736Y0153274D01*
X0084515Y0156269D02*
X0085877Y0156269D01*
X0085010Y0157268D02*
X0083515Y0157268D01*
X0083947Y0158266D02*
X0084596Y0158266D01*
X0084370Y0159265D02*
X0084160Y0159265D01*
X0072760Y0140476D02*
X0072760Y0134965D01*
X0082996Y0139689D02*
X0082996Y0125122D01*
X0087953Y0128311D02*
X0097015Y0128311D01*
X0098014Y0129309D02*
X0087953Y0129309D01*
X0087953Y0130308D02*
X0099012Y0130308D01*
X0099693Y0131306D02*
X0087953Y0131306D01*
X0087953Y0132305D02*
X0089210Y0132305D01*
X0091382Y0129059D02*
X0094020Y0129059D01*
X0097957Y0132996D01*
X0097957Y0134177D01*
X0114161Y0112248D02*
X0112130Y0110217D01*
X0112130Y0091657D01*
X0113311Y0090476D01*
X0114737Y0088370D02*
X0115142Y0088370D01*
X0115142Y0087372D02*
X0114142Y0087372D01*
X0114142Y0086373D02*
X0115142Y0086373D01*
X0105245Y0093363D02*
X0047718Y0093363D01*
X0045792Y0086661D02*
X0043535Y0086661D01*
X0043535Y0082709D01*
X0047094Y0082709D01*
X0047094Y0085359D01*
X0046992Y0085740D01*
X0046795Y0086082D01*
X0046516Y0086362D01*
X0046173Y0086559D01*
X0045792Y0086661D01*
X0046495Y0086373D02*
X0093125Y0086373D01*
X0093125Y0085375D02*
X0047090Y0085375D01*
X0047094Y0084376D02*
X0096425Y0084376D01*
X0096425Y0083378D02*
X0097425Y0083378D01*
X0097425Y0082379D02*
X0096425Y0082379D01*
X0096425Y0081381D02*
X0097425Y0081381D01*
X0097425Y0080382D02*
X0096425Y0080382D01*
X0093542Y0080382D02*
X0047094Y0080382D01*
X0047094Y0081381D02*
X0093125Y0081381D01*
X0093125Y0082379D02*
X0043535Y0082379D01*
X0043535Y0081381D02*
X0042535Y0081381D01*
X0042535Y0080382D02*
X0043535Y0080382D01*
X0043535Y0079384D02*
X0042535Y0079384D01*
X0042535Y0078385D02*
X0043535Y0078385D01*
X0043535Y0083378D02*
X0042535Y0083378D01*
X0042535Y0084376D02*
X0043535Y0084376D01*
X0043535Y0085375D02*
X0042535Y0085375D01*
X0042535Y0086373D02*
X0043535Y0086373D01*
X0047094Y0083378D02*
X0093125Y0083378D01*
X0096425Y0085375D02*
X0097425Y0085375D01*
X0097425Y0086373D02*
X0096425Y0086373D01*
X0096425Y0087372D02*
X0097425Y0087372D01*
X0097425Y0088370D02*
X0096425Y0088370D01*
X0099925Y0076697D02*
X0090673Y0076697D01*
X0088614Y0074391D02*
X0087614Y0074391D01*
X0087614Y0073393D02*
X0088614Y0073393D01*
X0088614Y0072394D02*
X0087614Y0072394D01*
X0083858Y0073393D02*
X0003000Y0073393D01*
X0003000Y0074391D02*
X0084278Y0074391D01*
X0087614Y0068400D02*
X0088614Y0068400D01*
X0086517Y0058415D02*
X0003000Y0058415D01*
X0003000Y0057417D02*
X0087516Y0057417D01*
X0131815Y0080240D02*
X0131815Y0103469D01*
X0136539Y0108193D01*
X0133783Y0111343D02*
X0131815Y0109374D01*
X0133783Y0111343D02*
X0152607Y0111343D01*
X0153825Y0110124D01*
X0155574Y0108341D02*
X0158587Y0108341D01*
X0157568Y0109339D02*
X0156203Y0109339D01*
X0156323Y0110338D02*
X0157270Y0110338D01*
X0157388Y0111336D02*
X0156027Y0111336D01*
X0155016Y0112335D02*
X0158015Y0112335D01*
X0161370Y0113333D02*
X0165354Y0113333D01*
X0165354Y0112335D02*
X0161520Y0112335D01*
X0162148Y0111336D02*
X0165354Y0111336D01*
X0165354Y0110338D02*
X0162265Y0110338D01*
X0161967Y0109339D02*
X0165354Y0109339D01*
X0165354Y0108341D02*
X0160948Y0108341D01*
X0161370Y0114332D02*
X0165354Y0114332D01*
X0165354Y0115330D02*
X0161370Y0115330D01*
X0161575Y0116329D02*
X0165354Y0116329D01*
X0165354Y0117327D02*
X0161575Y0117327D01*
X0161575Y0118326D02*
X0165354Y0118326D01*
X0165354Y0119324D02*
X0161575Y0119324D01*
X0161575Y0120323D02*
X0165354Y0120323D01*
X0165354Y0121321D02*
X0161575Y0121321D01*
X0161575Y0122320D02*
X0165354Y0122320D01*
X0165354Y0123318D02*
X0161575Y0123318D01*
X0161575Y0124317D02*
X0165354Y0124317D01*
X0165354Y0125315D02*
X0161575Y0125315D01*
X0161940Y0126314D02*
X0165354Y0126314D01*
X0165354Y0127312D02*
X0162939Y0127312D01*
X0163937Y0128311D02*
X0165354Y0128311D01*
X0165354Y0129309D02*
X0164936Y0129309D01*
X0133715Y0098356D02*
X0133622Y0098356D01*
X0133622Y0097357D02*
X0133661Y0097357D01*
X0133622Y0096359D02*
X0133661Y0096359D01*
X0133622Y0095360D02*
X0137614Y0095360D01*
X0133661Y0094362D02*
X0133622Y0094362D01*
X0133622Y0093363D02*
X0133661Y0093363D01*
X0133622Y0092365D02*
X0133736Y0092365D01*
X0133622Y0091366D02*
X0133854Y0091366D01*
X0133854Y0090368D02*
X0133622Y0090368D01*
X0133622Y0089369D02*
X0133854Y0089369D01*
X0133854Y0088370D02*
X0133622Y0088370D01*
X0133622Y0087372D02*
X0133854Y0087372D01*
X0133854Y0086373D02*
X0133622Y0086373D01*
X0133622Y0085375D02*
X0134084Y0085375D01*
X0036231Y0089369D02*
X0003000Y0089369D01*
X0003000Y0088370D02*
X0035449Y0088370D01*
X0035210Y0087372D02*
X0003000Y0087372D01*
X0003000Y0086373D02*
X0033147Y0086373D01*
X0032476Y0085375D02*
X0003000Y0085375D01*
X0003000Y0084376D02*
X0032476Y0084376D01*
X0032476Y0083378D02*
X0003000Y0083378D01*
X0003000Y0144287D02*
X0010375Y0144287D01*
X0007913Y0145286D02*
X0003000Y0145286D01*
X0003000Y0146284D02*
X0006302Y0146284D01*
X0005304Y0147283D02*
X0003000Y0147283D01*
X0003000Y0148281D02*
X0004341Y0148281D01*
X0003764Y0149280D02*
X0003000Y0149280D01*
X0003000Y0150278D02*
X0003188Y0150278D01*
D24*
X0030240Y0112524D03*
X0039295Y0108193D03*
X0047957Y0106618D03*
X0050713Y0109374D03*
X0046579Y0095594D03*
X0037720Y0087327D03*
X0052287Y0049138D03*
X0049925Y0045988D03*
X0054650Y0045988D03*
X0057012Y0049138D03*
X0059374Y0045988D03*
X0061736Y0049138D03*
X0066461Y0049138D03*
X0071185Y0049138D03*
X0073547Y0045988D03*
X0075909Y0049138D03*
X0078272Y0045988D03*
X0082996Y0045988D03*
X0090083Y0045988D03*
X0094807Y0045988D03*
X0099531Y0045594D03*
X0108980Y0045594D03*
X0112524Y0046776D03*
X0109768Y0050319D03*
X0117642Y0057406D03*
X0120398Y0051894D03*
X0126303Y0049531D03*
X0121972Y0037720D03*
X0113705Y0030634D03*
X0099531Y0027091D03*
X0090083Y0029453D03*
X0082996Y0012130D03*
X0080634Y0008980D03*
X0078272Y0012130D03*
X0075909Y0008980D03*
X0073547Y0012130D03*
X0071185Y0008980D03*
X0068823Y0012130D03*
X0066461Y0008980D03*
X0064098Y0012130D03*
X0061736Y0008980D03*
X0059374Y0012130D03*
X0057012Y0008980D03*
X0054650Y0012130D03*
X0052287Y0008980D03*
X0049916Y0012130D03*
X0099925Y0057406D03*
X0099925Y0067642D03*
X0103665Y0067642D03*
X0099925Y0076697D03*
X0108980Y0086933D03*
X0107406Y0092051D03*
X0113311Y0090476D03*
X0125909Y0084768D03*
X0131815Y0080240D03*
X0143232Y0083783D03*
X0143626Y0076697D03*
X0151894Y0076303D03*
X0157012Y0083783D03*
X0142839Y0094020D03*
X0145988Y0101106D03*
X0153825Y0110124D03*
X0159768Y0110555D03*
X0158193Y0128665D03*
X0154650Y0130240D03*
X0150319Y0133783D03*
X0160949Y0133783D03*
X0147169Y0145201D03*
X0134965Y0140476D03*
X0123547Y0127484D03*
X0138508Y0122366D03*
X0131815Y0109374D03*
X0125516Y0109374D03*
X0135358Y0101894D03*
X0117642Y0076303D03*
X0133783Y0067248D03*
X0143232Y0057406D03*
X0151500Y0049531D03*
X0149531Y0041264D03*
X0154256Y0033783D03*
X0151106Y0032602D03*
X0159768Y0035870D03*
X0141657Y0031815D03*
X0130437Y0015476D03*
X0118429Y0011146D03*
X0101894Y0011736D03*
X0155043Y0057406D03*
X0091382Y0129059D03*
X0090870Y0134177D03*
X0086146Y0134965D03*
X0082996Y0139689D03*
X0072760Y0140476D03*
X0072760Y0134965D03*
X0082996Y0125122D03*
X0097957Y0134177D03*
X0108587Y0138114D03*
X0082602Y0154650D03*
X0075122Y0154650D03*
D25*
X0101894Y0048744D03*
D26*
X0159768Y0110555D02*
X0159768Y0116461D01*
D27*
X0155043Y0155043D03*
X0013311Y0155043D03*
X0013311Y0013311D03*
X0155043Y0013311D03*
M02*
