%
M48
M72
T01C0.01181
T02C0.02362
T03C0.03543
T04C0.04000
T05C0.07874
%
T01
X49925Y45988
X52287Y49138
X54650Y45988
X57012Y49138
X59374Y45988
X61736Y49138
X66461Y49138
X71185Y49138
X73547Y45988
X75909Y49138
X78272Y45988
X82996Y45988
X90083Y45988
X94807Y45988
X99531Y45594
X108980Y45594
X112524Y46776
X109768Y50319
X117642Y57406
X120398Y51894
X126303Y49531
X121972Y37720
X113705Y30634
X99531Y27091
X90083Y29453
X82996Y12130
X80634Y8980
X78272Y12130
X75909Y8980
X73547Y12130
X71185Y8980
X68823Y12130
X66461Y8980
X64098Y12130
X61736Y8980
X59374Y12130
X57012Y8980
X54650Y12130
X52287Y8980
X49916Y12130
X99925Y57406
X99925Y67642
X103665Y67642
X99925Y76697
X108980Y86933
X107406Y92051
X113311Y90476
X125909Y84768
X131815Y80240
X143232Y83783
X143626Y76697
X151894Y76303
X157012Y83783
X142839Y94020
X145988Y101106
X153825Y110124
X159768Y110555
X158193Y128665
X154650Y130240
X150319Y133783
X160949Y133783
X147169Y145201
X134965Y140476
X123547Y127484
X138508Y122366
X131815Y109374
X125516Y109374
X135358Y101894
X117642Y76303
X133783Y67248
X143232Y57406
X151500Y49531
X149531Y41264
X154256Y33783
X151106Y32602
X159768Y35870
X141657Y31815
X130437Y15476
X118429Y11146
X101894Y11736
X155043Y57406
X91382Y129059
X90870Y134177
X86146Y134965
X82996Y139689
X72760Y140476
X72760Y134965
X82996Y125122
X97957Y134177
X108587Y138114
X82602Y154650
X75122Y154650
X50713Y109374
X47957Y106618
X39295Y108193
X30240Y112524
X46579Y95594
X37720Y87327
T02
X101894Y48744
T03
X131815Y7406
X139689Y7406
T04
X159768Y30870
X159768Y40870
X159768Y50870
X139177Y159768
X129177Y159768
X119177Y159768
X109177Y159768
X99177Y159768
X89177Y159768
X79177Y159768
X69177Y159768
X59177Y159768
X49177Y159768
X39177Y159768
X29177Y159768
T05
X13311Y13311
X155043Y13311
X155043Y155043
X13311Y155043
M30
