G75*
%MOIN*%
%OFA0B0*%
%FSLAX25Y25*%
%IPPOS*%
%LPD*%
%AMOC8*
5,1,8,0,0,1.08239X$1,22.5*
%
%ADD10C,0.00000*%
%ADD11C,0.00300*%
%ADD12C,0.00394*%
%ADD13C,0.00591*%
%ADD14C,0.00200*%
%ADD15R,0.03100X0.00100*%
%ADD16R,0.05600X0.00100*%
%ADD17R,0.06000X0.00100*%
%ADD18R,0.06300X0.00100*%
%ADD19R,0.01700X0.00100*%
%ADD20R,0.01400X0.00100*%
%ADD21R,0.00800X0.00100*%
%ADD22R,0.00500X0.00100*%
%ADD23R,0.00400X0.00100*%
%ADD24R,0.01300X0.00100*%
%ADD25R,0.01200X0.00100*%
%ADD26R,0.02400X0.00100*%
%ADD27R,0.05400X0.00100*%
%ADD28R,0.01000X0.00100*%
%ADD29R,0.05100X0.00100*%
%ADD30R,0.05700X0.00100*%
%ADD31R,0.05900X0.00100*%
%ADD32R,0.00600X0.00100*%
%ADD33R,0.05800X0.00100*%
%ADD34R,0.06100X0.00100*%
%ADD35R,0.05500X0.00100*%
%ADD36R,0.05300X0.00100*%
%ADD37R,0.05200X0.00100*%
%ADD38R,0.05000X0.00100*%
%ADD39R,0.04900X0.00100*%
%ADD40R,0.03300X0.00100*%
%ADD41R,0.04700X0.00100*%
%ADD42R,0.04600X0.00100*%
%ADD43R,0.04500X0.00100*%
%ADD44R,0.04300X0.00100*%
%ADD45R,0.07900X0.00100*%
%ADD46R,0.04200X0.00100*%
%ADD47R,0.02700X0.00100*%
%ADD48R,0.02300X0.00100*%
%ADD49R,0.04000X0.00100*%
%ADD50R,0.04100X0.00100*%
%ADD51R,0.02100X0.00100*%
%ADD52R,0.02200X0.00100*%
%ADD53R,0.01900X0.00100*%
%ADD54R,0.03800X0.00100*%
%ADD55R,0.02000X0.00100*%
%ADD56R,0.03700X0.00100*%
%ADD57R,0.01600X0.00100*%
%ADD58R,0.01100X0.00100*%
%ADD59R,0.01500X0.00100*%
%ADD60R,0.01800X0.00100*%
%ADD61R,0.00900X0.00100*%
%ADD62R,0.00700X0.00100*%
%ADD63R,0.03200X0.00100*%
%ADD64R,0.07700X0.00100*%
%ADD65R,0.08600X0.00100*%
%ADD66R,0.09500X0.00100*%
%ADD67R,0.03600X0.00100*%
%ADD68R,0.03400X0.00100*%
%ADD69R,0.03900X0.00100*%
%ADD70R,0.02600X0.00100*%
%ADD71R,0.00300X0.00100*%
%ADD72R,0.03000X0.00100*%
%ADD73R,0.02900X0.00100*%
%ADD74R,0.02800X0.00100*%
%ADD75R,0.03500X0.00100*%
%ADD76R,0.02500X0.00100*%
%ADD77R,0.06600X0.00100*%
%ADD78R,0.07000X0.00100*%
%ADD79R,0.07300X0.00100*%
%ADD80R,0.07400X0.00100*%
%ADD81R,0.07600X0.00100*%
%ADD82R,0.07500X0.00100*%
%ADD83R,0.07100X0.00100*%
%ADD84R,0.06500X0.00100*%
%ADD85R,0.08100X0.00100*%
%ADD86R,0.08300X0.00100*%
%ADD87R,0.08400X0.00100*%
%ADD88R,0.08500X0.00100*%
%ADD89R,0.07200X0.00100*%
%ADD90R,0.13300X0.00100*%
%ADD91R,0.12200X0.00100*%
%ADD92R,0.10500X0.00100*%
%ADD93R,0.13400X0.00100*%
%ADD94R,0.12700X0.00100*%
%ADD95R,0.10000X0.00100*%
%ADD96R,0.04800X0.00100*%
%ADD97R,0.13200X0.00100*%
%ADD98R,0.10600X0.00100*%
%ADD99R,0.00200X0.00100*%
%ADD100C,0.00600*%
%ADD101C,0.00500*%
%ADD102C,0.00400*%
%ADD103R,0.02559X0.05512*%
%ADD104R,0.05512X0.02559*%
%ADD105C,0.00800*%
%ADD106C,0.00100*%
D10*
X0001500Y0013311D02*
X0001500Y0155043D01*
X0001503Y0155328D01*
X0001514Y0155614D01*
X0001531Y0155899D01*
X0001555Y0156183D01*
X0001586Y0156467D01*
X0001624Y0156750D01*
X0001669Y0157031D01*
X0001720Y0157312D01*
X0001778Y0157592D01*
X0001843Y0157870D01*
X0001915Y0158146D01*
X0001993Y0158420D01*
X0002078Y0158693D01*
X0002170Y0158963D01*
X0002268Y0159231D01*
X0002372Y0159497D01*
X0002483Y0159760D01*
X0002600Y0160020D01*
X0002723Y0160278D01*
X0002853Y0160532D01*
X0002989Y0160783D01*
X0003130Y0161031D01*
X0003278Y0161275D01*
X0003431Y0161516D01*
X0003591Y0161752D01*
X0003756Y0161985D01*
X0003926Y0162214D01*
X0004102Y0162439D01*
X0004284Y0162659D01*
X0004470Y0162875D01*
X0004662Y0163086D01*
X0004859Y0163293D01*
X0005061Y0163495D01*
X0005268Y0163692D01*
X0005479Y0163884D01*
X0005695Y0164070D01*
X0005915Y0164252D01*
X0006140Y0164428D01*
X0006369Y0164598D01*
X0006602Y0164763D01*
X0006838Y0164923D01*
X0007079Y0165076D01*
X0007323Y0165224D01*
X0007571Y0165365D01*
X0007822Y0165501D01*
X0008076Y0165631D01*
X0008334Y0165754D01*
X0008594Y0165871D01*
X0008857Y0165982D01*
X0009123Y0166086D01*
X0009391Y0166184D01*
X0009661Y0166276D01*
X0009934Y0166361D01*
X0010208Y0166439D01*
X0010484Y0166511D01*
X0010762Y0166576D01*
X0011042Y0166634D01*
X0011323Y0166685D01*
X0011604Y0166730D01*
X0011887Y0166768D01*
X0012171Y0166799D01*
X0012455Y0166823D01*
X0012740Y0166840D01*
X0013026Y0166851D01*
X0013311Y0166854D01*
X0155043Y0166854D01*
X0155328Y0166851D01*
X0155614Y0166840D01*
X0155899Y0166823D01*
X0156183Y0166799D01*
X0156467Y0166768D01*
X0156750Y0166730D01*
X0157031Y0166685D01*
X0157312Y0166634D01*
X0157592Y0166576D01*
X0157870Y0166511D01*
X0158146Y0166439D01*
X0158420Y0166361D01*
X0158693Y0166276D01*
X0158963Y0166184D01*
X0159231Y0166086D01*
X0159497Y0165982D01*
X0159760Y0165871D01*
X0160020Y0165754D01*
X0160278Y0165631D01*
X0160532Y0165501D01*
X0160783Y0165365D01*
X0161031Y0165224D01*
X0161275Y0165076D01*
X0161516Y0164923D01*
X0161752Y0164763D01*
X0161985Y0164598D01*
X0162214Y0164428D01*
X0162439Y0164252D01*
X0162659Y0164070D01*
X0162875Y0163884D01*
X0163086Y0163692D01*
X0163293Y0163495D01*
X0163495Y0163293D01*
X0163692Y0163086D01*
X0163884Y0162875D01*
X0164070Y0162659D01*
X0164252Y0162439D01*
X0164428Y0162214D01*
X0164598Y0161985D01*
X0164763Y0161752D01*
X0164923Y0161516D01*
X0165076Y0161275D01*
X0165224Y0161031D01*
X0165365Y0160783D01*
X0165501Y0160532D01*
X0165631Y0160278D01*
X0165754Y0160020D01*
X0165871Y0159760D01*
X0165982Y0159497D01*
X0166086Y0159231D01*
X0166184Y0158963D01*
X0166276Y0158693D01*
X0166361Y0158420D01*
X0166439Y0158146D01*
X0166511Y0157870D01*
X0166576Y0157592D01*
X0166634Y0157312D01*
X0166685Y0157031D01*
X0166730Y0156750D01*
X0166768Y0156467D01*
X0166799Y0156183D01*
X0166823Y0155899D01*
X0166840Y0155614D01*
X0166851Y0155328D01*
X0166854Y0155043D01*
X0166854Y0013311D01*
X0166851Y0013026D01*
X0166840Y0012740D01*
X0166823Y0012455D01*
X0166799Y0012171D01*
X0166768Y0011887D01*
X0166730Y0011604D01*
X0166685Y0011323D01*
X0166634Y0011042D01*
X0166576Y0010762D01*
X0166511Y0010484D01*
X0166439Y0010208D01*
X0166361Y0009934D01*
X0166276Y0009661D01*
X0166184Y0009391D01*
X0166086Y0009123D01*
X0165982Y0008857D01*
X0165871Y0008594D01*
X0165754Y0008334D01*
X0165631Y0008076D01*
X0165501Y0007822D01*
X0165365Y0007571D01*
X0165224Y0007323D01*
X0165076Y0007079D01*
X0164923Y0006838D01*
X0164763Y0006602D01*
X0164598Y0006369D01*
X0164428Y0006140D01*
X0164252Y0005915D01*
X0164070Y0005695D01*
X0163884Y0005479D01*
X0163692Y0005268D01*
X0163495Y0005061D01*
X0163293Y0004859D01*
X0163086Y0004662D01*
X0162875Y0004470D01*
X0162659Y0004284D01*
X0162439Y0004102D01*
X0162214Y0003926D01*
X0161985Y0003756D01*
X0161752Y0003591D01*
X0161516Y0003431D01*
X0161275Y0003278D01*
X0161031Y0003130D01*
X0160783Y0002989D01*
X0160532Y0002853D01*
X0160278Y0002723D01*
X0160020Y0002600D01*
X0159760Y0002483D01*
X0159497Y0002372D01*
X0159231Y0002268D01*
X0158963Y0002170D01*
X0158693Y0002078D01*
X0158420Y0001993D01*
X0158146Y0001915D01*
X0157870Y0001843D01*
X0157592Y0001778D01*
X0157312Y0001720D01*
X0157031Y0001669D01*
X0156750Y0001624D01*
X0156467Y0001586D01*
X0156183Y0001555D01*
X0155899Y0001531D01*
X0155614Y0001514D01*
X0155328Y0001503D01*
X0155043Y0001500D01*
X0013311Y0001500D01*
X0013026Y0001503D01*
X0012740Y0001514D01*
X0012455Y0001531D01*
X0012171Y0001555D01*
X0011887Y0001586D01*
X0011604Y0001624D01*
X0011323Y0001669D01*
X0011042Y0001720D01*
X0010762Y0001778D01*
X0010484Y0001843D01*
X0010208Y0001915D01*
X0009934Y0001993D01*
X0009661Y0002078D01*
X0009391Y0002170D01*
X0009123Y0002268D01*
X0008857Y0002372D01*
X0008594Y0002483D01*
X0008334Y0002600D01*
X0008076Y0002723D01*
X0007822Y0002853D01*
X0007571Y0002989D01*
X0007323Y0003130D01*
X0007079Y0003278D01*
X0006838Y0003431D01*
X0006602Y0003591D01*
X0006369Y0003756D01*
X0006140Y0003926D01*
X0005915Y0004102D01*
X0005695Y0004284D01*
X0005479Y0004470D01*
X0005268Y0004662D01*
X0005061Y0004859D01*
X0004859Y0005061D01*
X0004662Y0005268D01*
X0004470Y0005479D01*
X0004284Y0005695D01*
X0004102Y0005915D01*
X0003926Y0006140D01*
X0003756Y0006369D01*
X0003591Y0006602D01*
X0003431Y0006838D01*
X0003278Y0007079D01*
X0003130Y0007323D01*
X0002989Y0007571D01*
X0002853Y0007822D01*
X0002723Y0008076D01*
X0002600Y0008334D01*
X0002483Y0008594D01*
X0002372Y0008857D01*
X0002268Y0009123D01*
X0002170Y0009391D01*
X0002078Y0009661D01*
X0001993Y0009934D01*
X0001915Y0010208D01*
X0001843Y0010484D01*
X0001778Y0010762D01*
X0001720Y0011042D01*
X0001669Y0011323D01*
X0001624Y0011604D01*
X0001586Y0011887D01*
X0001555Y0012171D01*
X0001531Y0012455D01*
X0001514Y0012740D01*
X0001503Y0013026D01*
X0001500Y0013311D01*
D11*
X0034551Y0064705D02*
X0034551Y0068345D01*
X0036371Y0068345D01*
X0036978Y0067739D01*
X0036978Y0066525D01*
X0036371Y0065918D01*
X0034551Y0065918D01*
X0035764Y0065918D02*
X0036978Y0064705D01*
X0038176Y0064705D02*
X0040603Y0064705D01*
X0041801Y0064705D02*
X0044228Y0064705D01*
X0043015Y0064705D02*
X0043015Y0068345D01*
X0041801Y0067132D01*
X0039389Y0068345D02*
X0039389Y0064705D01*
X0038176Y0067132D02*
X0039389Y0068345D01*
X0022574Y0080453D02*
X0020148Y0080453D01*
X0022574Y0082880D01*
X0022574Y0083487D01*
X0021968Y0084093D01*
X0020754Y0084093D01*
X0020148Y0083487D01*
X0017736Y0084093D02*
X0017736Y0080453D01*
X0018949Y0080453D02*
X0016522Y0080453D01*
X0015324Y0080453D02*
X0014111Y0081667D01*
X0014717Y0081667D02*
X0012897Y0081667D01*
X0012897Y0080453D02*
X0012897Y0084093D01*
X0014717Y0084093D01*
X0015324Y0083487D01*
X0015324Y0082273D01*
X0014717Y0081667D01*
X0016522Y0082880D02*
X0017736Y0084093D01*
X0024966Y0107493D02*
X0026180Y0107493D01*
X0026786Y0108099D01*
X0027985Y0108099D02*
X0028591Y0107493D01*
X0029805Y0107493D01*
X0030411Y0108099D01*
X0030411Y0108706D01*
X0029805Y0109313D01*
X0029198Y0109313D01*
X0029805Y0109313D02*
X0030411Y0109919D01*
X0030411Y0110526D01*
X0029805Y0111133D01*
X0028591Y0111133D01*
X0027985Y0110526D01*
X0026786Y0110526D02*
X0026180Y0111133D01*
X0024966Y0111133D01*
X0024359Y0110526D01*
X0024359Y0108099D01*
X0024966Y0107493D01*
X0032689Y0118248D02*
X0033902Y0118248D01*
X0034509Y0118855D01*
X0035708Y0118248D02*
X0038134Y0118248D01*
X0036921Y0118248D02*
X0036921Y0121889D01*
X0035708Y0120675D01*
X0034509Y0121282D02*
X0033902Y0121889D01*
X0032689Y0121889D01*
X0032082Y0121282D01*
X0032082Y0118855D01*
X0032689Y0118248D01*
X0039333Y0118855D02*
X0039939Y0118248D01*
X0041153Y0118248D01*
X0041759Y0118855D01*
X0041759Y0119462D01*
X0041153Y0120068D01*
X0039333Y0120068D01*
X0039333Y0118855D01*
X0039333Y0120068D02*
X0040546Y0121282D01*
X0041759Y0121889D01*
X0056098Y0127910D02*
X0056705Y0127304D01*
X0057918Y0127304D01*
X0058525Y0127910D01*
X0059723Y0127304D02*
X0062150Y0127304D01*
X0060937Y0127304D02*
X0060937Y0130944D01*
X0059723Y0129730D01*
X0058525Y0130337D02*
X0057918Y0130944D01*
X0056705Y0130944D01*
X0056098Y0130337D01*
X0056098Y0127910D01*
X0063348Y0129124D02*
X0065775Y0129124D01*
X0065168Y0127304D02*
X0065168Y0130944D01*
X0063348Y0129124D01*
X0059813Y0139508D02*
X0058599Y0139508D01*
X0057993Y0140115D01*
X0056794Y0140115D02*
X0056187Y0139508D01*
X0054974Y0139508D01*
X0054367Y0140115D01*
X0054367Y0142542D01*
X0054974Y0143148D01*
X0056187Y0143148D01*
X0056794Y0142542D01*
X0057993Y0143148D02*
X0057993Y0141328D01*
X0059206Y0141935D01*
X0059813Y0141935D01*
X0060419Y0141328D01*
X0060419Y0140115D01*
X0059813Y0139508D01*
X0060419Y0143148D02*
X0057993Y0143148D01*
X0072954Y0111566D02*
X0074774Y0111566D01*
X0075381Y0110959D01*
X0075381Y0109746D01*
X0074774Y0109139D01*
X0072954Y0109139D01*
X0074167Y0109139D02*
X0075381Y0107926D01*
X0076579Y0108532D02*
X0077186Y0107926D01*
X0078399Y0107926D01*
X0079006Y0108532D01*
X0079006Y0110959D01*
X0078399Y0111566D01*
X0077186Y0111566D01*
X0076579Y0110959D01*
X0076579Y0110352D01*
X0077186Y0109746D01*
X0079006Y0109746D01*
X0072954Y0107926D02*
X0072954Y0111566D01*
X0062175Y0100629D02*
X0060355Y0098809D01*
X0062781Y0098809D01*
X0062175Y0096989D02*
X0062175Y0100629D01*
X0059156Y0100022D02*
X0058550Y0100629D01*
X0057336Y0100629D01*
X0056730Y0100022D01*
X0056730Y0097595D01*
X0057336Y0096989D01*
X0058550Y0096989D01*
X0059156Y0097595D01*
X0058418Y0083700D02*
X0056598Y0083700D01*
X0056598Y0080059D01*
X0056598Y0081273D02*
X0058418Y0081273D01*
X0059025Y0081880D01*
X0059025Y0083093D01*
X0058418Y0083700D01*
X0060223Y0082486D02*
X0061437Y0083700D01*
X0061437Y0080059D01*
X0062650Y0080059D02*
X0060223Y0080059D01*
X0059025Y0080059D02*
X0057811Y0081273D01*
X0063848Y0080666D02*
X0063848Y0080059D01*
X0063848Y0080666D02*
X0066275Y0083093D01*
X0066275Y0083700D01*
X0063848Y0083700D01*
X0090455Y0062134D02*
X0093591Y0058998D01*
X0092023Y0058998D02*
X0092023Y0062134D01*
X0093591Y0062134D02*
X0090455Y0058998D01*
X0090455Y0060566D02*
X0093591Y0060566D01*
X0096450Y0086296D02*
X0096450Y0089936D01*
X0098270Y0089936D01*
X0098877Y0089329D01*
X0098877Y0088116D01*
X0098270Y0087509D01*
X0096450Y0087509D01*
X0097663Y0087509D02*
X0098877Y0086296D01*
X0100075Y0086902D02*
X0100682Y0086296D01*
X0101895Y0086296D01*
X0102502Y0086902D01*
X0102502Y0088116D01*
X0101895Y0088722D01*
X0101289Y0088722D01*
X0100075Y0088116D01*
X0100075Y0089936D01*
X0102502Y0089936D01*
X0114560Y0089542D02*
X0114560Y0085902D01*
X0114560Y0087115D02*
X0116380Y0087115D01*
X0116987Y0087722D01*
X0116987Y0088935D01*
X0116380Y0089542D01*
X0114560Y0089542D01*
X0115774Y0087115D02*
X0116987Y0085902D01*
X0118185Y0086509D02*
X0118185Y0087722D01*
X0120005Y0087722D01*
X0120612Y0087115D01*
X0120612Y0086509D01*
X0120005Y0085902D01*
X0118792Y0085902D01*
X0118185Y0086509D01*
X0118185Y0087722D02*
X0119399Y0088935D01*
X0120612Y0089542D01*
X0123976Y0075498D02*
X0127112Y0072362D01*
X0127112Y0073930D02*
X0123976Y0073930D01*
X0123976Y0072362D02*
X0127112Y0075498D01*
X0125544Y0075498D02*
X0125544Y0072362D01*
X0135863Y0077123D02*
X0136470Y0076516D01*
X0137684Y0076516D01*
X0138290Y0077123D01*
X0139489Y0077123D02*
X0139489Y0077730D01*
X0140095Y0078336D01*
X0141309Y0078336D01*
X0141915Y0077730D01*
X0141915Y0077123D01*
X0141309Y0076516D01*
X0140095Y0076516D01*
X0139489Y0077123D01*
X0140095Y0078336D02*
X0139489Y0078943D01*
X0139489Y0079550D01*
X0140095Y0080156D01*
X0141309Y0080156D01*
X0141915Y0079550D01*
X0141915Y0078943D01*
X0141309Y0078336D01*
X0138290Y0079550D02*
X0137684Y0080156D01*
X0136470Y0080156D01*
X0135863Y0079550D01*
X0135863Y0077123D01*
X0136624Y0057629D02*
X0134804Y0057629D01*
X0134804Y0053989D01*
X0134804Y0055202D02*
X0136624Y0055202D01*
X0137231Y0055809D01*
X0137231Y0057022D01*
X0136624Y0057629D01*
X0138430Y0056415D02*
X0139643Y0057629D01*
X0139643Y0053989D01*
X0138430Y0053989D02*
X0140856Y0053989D01*
X0137231Y0053989D02*
X0136018Y0055202D01*
X0151412Y0052289D02*
X0153839Y0052289D01*
X0151838Y0029487D02*
X0151838Y0027060D01*
X0150625Y0028273D02*
X0153052Y0028273D01*
X0155917Y0104272D02*
X0157131Y0104272D01*
X0157737Y0104879D01*
X0158936Y0104272D02*
X0161363Y0104272D01*
X0160149Y0104272D02*
X0160149Y0107912D01*
X0158936Y0106699D01*
X0157737Y0107305D02*
X0157131Y0107912D01*
X0155917Y0107912D01*
X0155311Y0107305D01*
X0155311Y0104879D01*
X0155917Y0104272D01*
X0162561Y0104879D02*
X0163168Y0104272D01*
X0164381Y0104272D01*
X0164988Y0104879D01*
X0164988Y0106092D01*
X0164381Y0106699D01*
X0163774Y0106699D01*
X0162561Y0106092D01*
X0162561Y0107912D01*
X0164988Y0107912D01*
X0137141Y0124367D02*
X0137141Y0124974D01*
X0136535Y0125580D01*
X0134715Y0125580D01*
X0134715Y0124367D01*
X0135321Y0123760D01*
X0136535Y0123760D01*
X0137141Y0124367D01*
X0134715Y0125580D02*
X0135928Y0126794D01*
X0137141Y0127400D01*
X0133516Y0123760D02*
X0131089Y0123760D01*
X0129891Y0123760D02*
X0128678Y0124974D01*
X0129284Y0124974D02*
X0127464Y0124974D01*
X0127464Y0123760D02*
X0127464Y0127400D01*
X0129284Y0127400D01*
X0129891Y0126794D01*
X0129891Y0125580D01*
X0129284Y0124974D01*
X0131089Y0126187D02*
X0132303Y0127400D01*
X0132303Y0123760D01*
X0121797Y0122857D02*
X0121797Y0120430D01*
X0121191Y0119823D01*
X0119977Y0119823D01*
X0119370Y0120430D01*
X0118172Y0120430D02*
X0117565Y0119823D01*
X0116352Y0119823D01*
X0115745Y0120430D01*
X0115745Y0122857D01*
X0116352Y0123463D01*
X0117565Y0123463D01*
X0118172Y0122857D01*
X0119370Y0122857D02*
X0119370Y0122250D01*
X0119977Y0121643D01*
X0121797Y0121643D01*
X0121797Y0122857D02*
X0121191Y0123463D01*
X0119977Y0123463D01*
X0119370Y0122857D01*
X0118536Y0128359D02*
X0120963Y0130785D01*
X0120963Y0131392D01*
X0120356Y0131999D01*
X0119142Y0131999D01*
X0118536Y0131392D01*
X0117337Y0131392D02*
X0116731Y0131999D01*
X0115517Y0131999D01*
X0114911Y0131392D01*
X0114911Y0128965D01*
X0115517Y0128359D01*
X0116731Y0128359D01*
X0117337Y0128965D01*
X0118536Y0128359D02*
X0120963Y0128359D01*
X0121148Y0133996D02*
X0120541Y0134603D01*
X0121148Y0133996D02*
X0122361Y0133996D01*
X0122968Y0134603D01*
X0122968Y0135817D01*
X0122361Y0136423D01*
X0121755Y0136423D01*
X0120541Y0135817D01*
X0120541Y0137637D01*
X0122968Y0137637D01*
X0119343Y0133996D02*
X0116916Y0133996D01*
X0115718Y0133996D02*
X0114504Y0135210D01*
X0115111Y0135210D02*
X0113291Y0135210D01*
X0113291Y0133996D02*
X0113291Y0137637D01*
X0115111Y0137637D01*
X0115718Y0137030D01*
X0115718Y0135817D01*
X0115111Y0135210D01*
X0116916Y0136423D02*
X0118130Y0137637D01*
X0118130Y0133996D01*
X0110370Y0128762D02*
X0110370Y0126335D01*
X0109763Y0125729D01*
X0108550Y0125729D01*
X0107943Y0126335D01*
X0110370Y0128762D01*
X0109763Y0129369D01*
X0108550Y0129369D01*
X0107943Y0128762D01*
X0107943Y0126335D01*
X0106744Y0125729D02*
X0104318Y0125729D01*
X0103119Y0125729D02*
X0101906Y0126942D01*
X0102513Y0126942D02*
X0100693Y0126942D01*
X0100693Y0125729D02*
X0100693Y0129369D01*
X0102513Y0129369D01*
X0103119Y0128762D01*
X0103119Y0127549D01*
X0102513Y0126942D01*
X0104318Y0128155D02*
X0105531Y0129369D01*
X0105531Y0125729D01*
X0101735Y0110385D02*
X0100522Y0110385D01*
X0099915Y0109778D01*
X0099915Y0107351D01*
X0102342Y0109778D01*
X0102342Y0107351D01*
X0101735Y0106744D01*
X0100522Y0106744D01*
X0099915Y0107351D01*
X0098717Y0106744D02*
X0096290Y0106744D01*
X0097504Y0106744D02*
X0097504Y0110385D01*
X0096290Y0109171D01*
X0095092Y0109778D02*
X0094485Y0110385D01*
X0093272Y0110385D01*
X0092665Y0109778D01*
X0092665Y0107351D01*
X0093272Y0106744D01*
X0094485Y0106744D01*
X0095092Y0107351D01*
X0101735Y0110385D02*
X0102342Y0109778D01*
X0129084Y0107770D02*
X0129084Y0105343D01*
X0129691Y0104737D01*
X0130904Y0104737D01*
X0131511Y0105343D01*
X0132709Y0105343D02*
X0132709Y0106557D01*
X0134529Y0106557D01*
X0135136Y0105950D01*
X0135136Y0105343D01*
X0134529Y0104737D01*
X0133316Y0104737D01*
X0132709Y0105343D01*
X0132709Y0106557D02*
X0133922Y0107770D01*
X0135136Y0108377D01*
X0131511Y0107770D02*
X0130904Y0108377D01*
X0129691Y0108377D01*
X0129084Y0107770D01*
X0123563Y0145288D02*
X0121136Y0145288D01*
X0123563Y0147715D01*
X0123563Y0148321D01*
X0122956Y0148928D01*
X0121742Y0148928D01*
X0121136Y0148321D01*
X0118724Y0148928D02*
X0118724Y0145288D01*
X0117511Y0145288D02*
X0119937Y0145288D01*
X0117511Y0147715D02*
X0118724Y0148928D01*
X0116312Y0148321D02*
X0115706Y0148928D01*
X0114492Y0148928D01*
X0113886Y0148321D01*
X0113886Y0145894D01*
X0114492Y0145288D01*
X0115706Y0145288D01*
X0116312Y0145894D01*
X0134551Y0147382D02*
X0134551Y0151022D01*
X0136371Y0151022D01*
X0136978Y0150416D01*
X0136978Y0149202D01*
X0136371Y0148596D01*
X0134551Y0148596D01*
X0135764Y0148596D02*
X0136978Y0147382D01*
X0138176Y0147382D02*
X0140603Y0147382D01*
X0139389Y0147382D02*
X0139389Y0151022D01*
X0138176Y0149809D01*
X0141801Y0149202D02*
X0144228Y0149202D01*
X0143621Y0147382D02*
X0143621Y0151022D01*
X0141801Y0149202D01*
X0015055Y0142429D02*
X0015055Y0140002D01*
X0012628Y0142429D01*
X0012021Y0142429D01*
X0011415Y0141822D01*
X0011415Y0140609D01*
X0012021Y0140002D01*
X0011415Y0138804D02*
X0013841Y0138804D01*
X0015055Y0137591D01*
X0013841Y0136377D01*
X0011415Y0136377D01*
X0011415Y0135179D02*
X0011415Y0132752D01*
X0015055Y0132752D01*
X0013235Y0132752D02*
X0013235Y0133965D01*
X0009149Y0133359D02*
X0008543Y0132752D01*
X0007936Y0133359D01*
X0007936Y0135179D01*
X0007329Y0135179D02*
X0009149Y0135179D01*
X0009149Y0133359D01*
X0008543Y0131554D02*
X0007936Y0131554D01*
X0007329Y0130947D01*
X0007329Y0129734D01*
X0006722Y0129127D01*
X0006116Y0129127D01*
X0005509Y0129734D01*
X0005509Y0130947D01*
X0006116Y0131554D01*
X0006722Y0133359D02*
X0006722Y0134572D01*
X0007329Y0135179D01*
X0006722Y0136377D02*
X0006722Y0137591D01*
X0006116Y0136984D02*
X0008543Y0136984D01*
X0009149Y0137591D01*
X0008543Y0131554D02*
X0009149Y0130947D01*
X0009149Y0129734D01*
X0008543Y0129127D01*
X0008543Y0127929D02*
X0007936Y0127929D01*
X0007329Y0127322D01*
X0007329Y0126109D01*
X0006722Y0125502D01*
X0006116Y0125502D01*
X0005509Y0126109D01*
X0005509Y0127322D01*
X0006116Y0127929D01*
X0008543Y0127929D02*
X0009149Y0127322D01*
X0009149Y0126109D01*
X0008543Y0125502D01*
X0009149Y0124303D02*
X0006722Y0124303D01*
X0005509Y0123090D01*
X0006722Y0121877D01*
X0009149Y0121877D01*
X0008543Y0120678D02*
X0007936Y0120678D01*
X0007329Y0120072D01*
X0007329Y0118858D01*
X0006722Y0118252D01*
X0006116Y0118252D01*
X0005509Y0118858D01*
X0005509Y0120072D01*
X0006116Y0120678D01*
X0007329Y0121877D02*
X0007329Y0124303D01*
X0008543Y0120678D02*
X0009149Y0120072D01*
X0009149Y0118858D01*
X0008543Y0118252D01*
X0011415Y0118252D02*
X0011415Y0120678D01*
X0011415Y0121877D02*
X0011415Y0123697D01*
X0012021Y0124303D01*
X0013235Y0124303D01*
X0013841Y0123697D01*
X0013841Y0121877D01*
X0015055Y0121877D02*
X0011415Y0121877D01*
X0013235Y0119465D02*
X0013235Y0118252D01*
X0015055Y0118252D02*
X0015055Y0120678D01*
X0015055Y0118252D02*
X0011415Y0118252D01*
X0012021Y0125502D02*
X0011415Y0126109D01*
X0011415Y0127322D01*
X0012021Y0127929D01*
X0013235Y0127322D02*
X0013841Y0127929D01*
X0014448Y0127929D01*
X0015055Y0127322D01*
X0015055Y0126109D01*
X0014448Y0125502D01*
X0013235Y0126109D02*
X0013235Y0127322D01*
X0013235Y0126109D02*
X0012628Y0125502D01*
X0012021Y0125502D01*
D12*
X0033783Y0102287D02*
X0033783Y0099925D01*
X0034964Y0098744D02*
X0034962Y0098678D01*
X0034957Y0098612D01*
X0034947Y0098546D01*
X0034934Y0098481D01*
X0034918Y0098417D01*
X0034898Y0098354D01*
X0034874Y0098292D01*
X0034847Y0098232D01*
X0034817Y0098173D01*
X0034783Y0098116D01*
X0034746Y0098061D01*
X0034706Y0098008D01*
X0034664Y0097957D01*
X0034618Y0097909D01*
X0034570Y0097863D01*
X0034519Y0097821D01*
X0034466Y0097781D01*
X0034411Y0097744D01*
X0034354Y0097710D01*
X0034295Y0097680D01*
X0034235Y0097653D01*
X0034173Y0097629D01*
X0034110Y0097609D01*
X0034046Y0097593D01*
X0033981Y0097580D01*
X0033915Y0097570D01*
X0033849Y0097565D01*
X0033783Y0097563D01*
X0034964Y0098744D02*
X0034962Y0098810D01*
X0034957Y0098876D01*
X0034947Y0098942D01*
X0034934Y0099007D01*
X0034918Y0099071D01*
X0034898Y0099134D01*
X0034874Y0099196D01*
X0034847Y0099256D01*
X0034817Y0099315D01*
X0034783Y0099372D01*
X0034746Y0099427D01*
X0034706Y0099480D01*
X0034664Y0099531D01*
X0034618Y0099579D01*
X0034570Y0099625D01*
X0034519Y0099667D01*
X0034466Y0099707D01*
X0034411Y0099744D01*
X0034354Y0099778D01*
X0034295Y0099808D01*
X0034235Y0099835D01*
X0034173Y0099859D01*
X0034110Y0099879D01*
X0034046Y0099895D01*
X0033981Y0099908D01*
X0033915Y0099918D01*
X0033849Y0099923D01*
X0033783Y0099925D01*
X0045594Y0102287D02*
X0045594Y0094807D01*
D13*
X0045594Y0103075D01*
X0045594Y0104650D02*
X0033783Y0104650D01*
X0033783Y0103075D02*
X0033783Y0099925D01*
X0033783Y0097563D02*
X0033783Y0094807D01*
X0033783Y0092839D02*
X0045594Y0092839D01*
X0047563Y0090870D02*
X0047563Y0106618D01*
X0055437Y0106618D01*
X0055437Y0101500D01*
X0063311Y0101500D01*
X0063311Y0095988D01*
X0055437Y0095988D01*
X0055437Y0090870D01*
X0047563Y0090870D01*
X0055437Y0086146D02*
X0066854Y0086146D01*
X0066854Y0078272D01*
X0055437Y0078272D01*
X0039689Y0078272D01*
X0023941Y0078272D01*
X0011736Y0078272D01*
X0011736Y0086146D01*
X0023941Y0086146D01*
X0023941Y0078272D01*
X0031815Y0077484D02*
X0031815Y0069610D01*
X0033783Y0069610D01*
X0033783Y0064098D01*
X0044807Y0064098D01*
X0044807Y0069610D01*
X0033783Y0069610D01*
X0031815Y0077484D02*
X0047563Y0077484D01*
X0047563Y0069610D01*
X0044807Y0069610D01*
X0039689Y0078272D02*
X0039689Y0086146D01*
X0055437Y0086146D01*
X0055437Y0078272D01*
X0059374Y0066067D02*
X0062130Y0066067D01*
X0062130Y0061736D01*
X0066854Y0061736D01*
X0066854Y0056224D01*
X0066067Y0056224D01*
X0066067Y0052287D01*
X0062917Y0052287D01*
X0062917Y0056224D01*
X0058587Y0056224D01*
X0058587Y0052287D01*
X0055437Y0052287D01*
X0055437Y0056224D01*
X0058587Y0056224D01*
X0055437Y0056224D02*
X0054650Y0056224D01*
X0054650Y0061736D01*
X0059374Y0061736D01*
X0059374Y0066067D01*
X0059374Y0061736D02*
X0062130Y0061736D01*
X0062917Y0056224D02*
X0066067Y0056224D01*
X0092051Y0077091D02*
X0092051Y0084965D01*
X0094807Y0084965D01*
X0094807Y0090870D01*
X0103862Y0090870D01*
X0103862Y0084965D01*
X0107799Y0084965D01*
X0107799Y0077091D01*
X0092051Y0077091D01*
X0094020Y0070398D02*
X0105831Y0070398D01*
X0105831Y0069610D01*
X0105831Y0064886D02*
X0105831Y0064098D01*
X0094020Y0064098D01*
X0094020Y0065280D01*
X0094020Y0069610D02*
X0094020Y0070398D01*
X0094807Y0084965D02*
X0103862Y0084965D01*
X0110161Y0084965D02*
X0110161Y0077091D01*
X0125909Y0077091D01*
X0125909Y0084965D01*
X0121185Y0084965D01*
X0121185Y0090476D01*
X0113705Y0090476D01*
X0113705Y0084965D01*
X0121185Y0084965D01*
X0113705Y0084965D02*
X0110161Y0084965D01*
X0111736Y0070398D02*
X0123547Y0070398D01*
X0123547Y0069610D01*
X0123547Y0064886D02*
X0123547Y0064098D01*
X0111736Y0064098D01*
X0111736Y0064886D01*
X0111736Y0069610D02*
X0111736Y0070398D01*
X0134965Y0075122D02*
X0134965Y0059374D01*
X0142839Y0059374D01*
X0142839Y0075122D01*
X0142839Y0081028D01*
X0134965Y0081028D01*
X0134965Y0075122D01*
X0142839Y0075122D01*
X0144413Y0072760D02*
X0155831Y0072760D01*
X0155831Y0070791D02*
X0155831Y0068035D01*
X0155765Y0068033D01*
X0155699Y0068028D01*
X0155633Y0068018D01*
X0155568Y0068005D01*
X0155504Y0067989D01*
X0155441Y0067969D01*
X0155379Y0067945D01*
X0155319Y0067918D01*
X0155260Y0067888D01*
X0155203Y0067854D01*
X0155148Y0067817D01*
X0155095Y0067777D01*
X0155044Y0067735D01*
X0154996Y0067689D01*
X0154950Y0067641D01*
X0154908Y0067590D01*
X0154868Y0067537D01*
X0154831Y0067482D01*
X0154797Y0067425D01*
X0154767Y0067366D01*
X0154740Y0067306D01*
X0154716Y0067244D01*
X0154696Y0067181D01*
X0154680Y0067117D01*
X0154667Y0067052D01*
X0154657Y0066986D01*
X0154652Y0066920D01*
X0154650Y0066854D01*
X0154652Y0066788D01*
X0154657Y0066722D01*
X0154667Y0066656D01*
X0154680Y0066591D01*
X0154696Y0066527D01*
X0154716Y0066464D01*
X0154740Y0066402D01*
X0154767Y0066342D01*
X0154797Y0066283D01*
X0154831Y0066226D01*
X0154868Y0066171D01*
X0154908Y0066118D01*
X0154950Y0066067D01*
X0154996Y0066019D01*
X0155044Y0065973D01*
X0155095Y0065931D01*
X0155148Y0065891D01*
X0155203Y0065854D01*
X0155260Y0065820D01*
X0155319Y0065790D01*
X0155379Y0065763D01*
X0155441Y0065739D01*
X0155504Y0065719D01*
X0155568Y0065703D01*
X0155633Y0065690D01*
X0155699Y0065680D01*
X0155765Y0065675D01*
X0155831Y0065673D01*
X0155831Y0063311D01*
X0155831Y0060949D02*
X0144020Y0060949D01*
X0144020Y0062917D02*
X0144020Y0070398D01*
X0141657Y0058193D02*
X0133783Y0058193D01*
X0133783Y0053469D01*
X0133783Y0045594D01*
X0149531Y0045594D01*
X0149531Y0053469D01*
X0141657Y0053469D01*
X0141657Y0058193D01*
X0141657Y0053469D02*
X0133783Y0053469D01*
X0128272Y0040083D02*
X0132602Y0035752D01*
X0132602Y0018035D01*
X0035752Y0018035D01*
X0035752Y0019217D02*
X0035752Y0039295D01*
X0128272Y0039295D01*
X0132602Y0034965D01*
X0132602Y0019217D01*
X0035752Y0019217D01*
X0039689Y0086146D02*
X0023941Y0086146D01*
X0023941Y0090870D02*
X0023941Y0106618D01*
X0023941Y0111736D01*
X0031028Y0111736D01*
X0031028Y0106618D01*
X0031815Y0106618D01*
X0031815Y0090870D01*
X0023941Y0090870D01*
X0023941Y0106618D02*
X0031028Y0106618D01*
X0031815Y0109374D02*
X0031815Y0117248D01*
X0031815Y0123154D01*
X0042445Y0123154D01*
X0042445Y0117248D01*
X0047563Y0117248D01*
X0047563Y0109374D01*
X0031815Y0109374D01*
X0031815Y0117248D02*
X0042445Y0117248D01*
X0055437Y0126303D02*
X0066461Y0126303D01*
X0066461Y0131815D01*
X0055437Y0131815D01*
X0055437Y0126303D01*
X0060949Y0133390D02*
X0060949Y0138508D01*
X0053469Y0138508D01*
X0053469Y0144413D01*
X0061343Y0144413D01*
X0060949Y0149138D02*
X0060949Y0138508D01*
X0060949Y0133390D02*
X0068823Y0133390D01*
X0068823Y0149138D01*
X0060949Y0149138D01*
X0072366Y0152681D02*
X0072366Y0140870D01*
X0074728Y0140870D02*
X0077091Y0140870D01*
X0078272Y0142051D02*
X0078338Y0142049D01*
X0078404Y0142044D01*
X0078470Y0142034D01*
X0078535Y0142021D01*
X0078599Y0142005D01*
X0078662Y0141985D01*
X0078724Y0141961D01*
X0078784Y0141934D01*
X0078843Y0141904D01*
X0078900Y0141870D01*
X0078955Y0141833D01*
X0079008Y0141793D01*
X0079059Y0141751D01*
X0079107Y0141705D01*
X0079153Y0141657D01*
X0079195Y0141606D01*
X0079235Y0141553D01*
X0079272Y0141498D01*
X0079306Y0141441D01*
X0079336Y0141382D01*
X0079363Y0141322D01*
X0079387Y0141260D01*
X0079407Y0141197D01*
X0079423Y0141133D01*
X0079436Y0141068D01*
X0079446Y0141002D01*
X0079451Y0140936D01*
X0079453Y0140870D01*
X0082209Y0140870D01*
X0084177Y0140870D02*
X0084177Y0152681D01*
X0082602Y0152681D02*
X0074335Y0152681D01*
X0078272Y0142051D02*
X0078206Y0142049D01*
X0078140Y0142044D01*
X0078074Y0142034D01*
X0078009Y0142021D01*
X0077945Y0142005D01*
X0077882Y0141985D01*
X0077820Y0141961D01*
X0077760Y0141934D01*
X0077701Y0141904D01*
X0077644Y0141870D01*
X0077589Y0141833D01*
X0077536Y0141793D01*
X0077485Y0141751D01*
X0077437Y0141705D01*
X0077391Y0141657D01*
X0077349Y0141606D01*
X0077309Y0141553D01*
X0077272Y0141498D01*
X0077238Y0141441D01*
X0077208Y0141382D01*
X0077181Y0141322D01*
X0077157Y0141260D01*
X0077137Y0141197D01*
X0077121Y0141133D01*
X0077108Y0141068D01*
X0077098Y0141002D01*
X0077093Y0140936D01*
X0077091Y0140870D01*
X0082209Y0132996D02*
X0082209Y0125122D01*
X0066461Y0125122D01*
X0066461Y0126303D01*
X0066461Y0131815D02*
X0066461Y0132996D01*
X0082209Y0132996D01*
X0083783Y0132996D02*
X0083783Y0125122D01*
X0099531Y0125122D01*
X0111343Y0125122D01*
X0111343Y0130240D01*
X0099531Y0130240D01*
X0099531Y0125122D01*
X0099531Y0130240D02*
X0099531Y0132996D01*
X0083783Y0132996D01*
X0086539Y0136539D02*
X0086539Y0144413D01*
X0102287Y0144413D01*
X0102287Y0136539D01*
X0102287Y0131815D01*
X0112524Y0131815D01*
X0112524Y0127484D01*
X0123941Y0127484D01*
X0123941Y0132996D01*
X0123941Y0138508D01*
X0112524Y0138508D01*
X0112524Y0135752D01*
X0103469Y0135752D01*
X0103469Y0146776D01*
X0103075Y0146776D01*
X0087327Y0146776D01*
X0087327Y0154650D01*
X0103075Y0154650D01*
X0103469Y0154650D01*
X0103469Y0146776D01*
X0103075Y0146776D02*
X0103075Y0154650D01*
X0104650Y0155043D02*
X0104650Y0139295D01*
X0112524Y0139295D01*
X0112524Y0144413D01*
X0124728Y0144413D01*
X0124728Y0149925D01*
X0112524Y0149925D01*
X0112524Y0155043D01*
X0104650Y0155043D01*
X0112524Y0149925D02*
X0112524Y0144413D01*
X0112524Y0135752D02*
X0112524Y0132996D01*
X0112524Y0131815D01*
X0112524Y0132996D02*
X0123941Y0132996D01*
X0126697Y0128665D02*
X0135358Y0128665D01*
X0135358Y0144413D01*
X0143232Y0144413D01*
X0143232Y0128665D01*
X0138114Y0128665D01*
X0138114Y0123154D01*
X0126697Y0123154D01*
X0126697Y0128665D01*
X0122760Y0124335D02*
X0114492Y0124335D01*
X0114492Y0119217D01*
X0122760Y0119217D01*
X0122760Y0124335D01*
X0122760Y0119217D02*
X0122760Y0111343D01*
X0107012Y0111343D01*
X0107012Y0119217D01*
X0114492Y0119217D01*
X0106224Y0119217D02*
X0106224Y0111343D01*
X0103075Y0111343D01*
X0103075Y0106224D01*
X0091657Y0106224D01*
X0091657Y0111343D01*
X0090476Y0111343D01*
X0090476Y0119217D01*
X0106224Y0119217D01*
X0103075Y0111343D02*
X0091657Y0111343D01*
X0083783Y0112524D02*
X0083783Y0120398D01*
X0068429Y0120398D01*
X0068429Y0112524D01*
X0071185Y0112524D01*
X0071185Y0107012D01*
X0080634Y0107012D01*
X0080634Y0112524D01*
X0071185Y0112524D01*
X0080634Y0112524D02*
X0083783Y0112524D01*
X0096683Y0101106D02*
X0096685Y0101165D01*
X0096691Y0101223D01*
X0096701Y0101281D01*
X0096714Y0101338D01*
X0096732Y0101395D01*
X0096753Y0101450D01*
X0096778Y0101503D01*
X0096806Y0101554D01*
X0096837Y0101604D01*
X0096872Y0101651D01*
X0096910Y0101696D01*
X0096951Y0101739D01*
X0096995Y0101778D01*
X0097041Y0101814D01*
X0097089Y0101848D01*
X0097140Y0101878D01*
X0097193Y0101904D01*
X0097247Y0101927D01*
X0097302Y0101946D01*
X0097359Y0101962D01*
X0097417Y0101974D01*
X0097475Y0101982D01*
X0097534Y0101986D01*
X0097592Y0101986D01*
X0097651Y0101982D01*
X0097709Y0101974D01*
X0097767Y0101962D01*
X0097824Y0101946D01*
X0097879Y0101927D01*
X0097933Y0101904D01*
X0097986Y0101878D01*
X0098037Y0101848D01*
X0098085Y0101814D01*
X0098131Y0101778D01*
X0098175Y0101739D01*
X0098216Y0101696D01*
X0098254Y0101651D01*
X0098289Y0101604D01*
X0098320Y0101554D01*
X0098348Y0101503D01*
X0098373Y0101450D01*
X0098394Y0101395D01*
X0098412Y0101338D01*
X0098425Y0101281D01*
X0098435Y0101223D01*
X0098441Y0101165D01*
X0098443Y0101106D01*
X0098441Y0101047D01*
X0098435Y0100989D01*
X0098425Y0100931D01*
X0098412Y0100874D01*
X0098394Y0100817D01*
X0098373Y0100762D01*
X0098348Y0100709D01*
X0098320Y0100658D01*
X0098289Y0100608D01*
X0098254Y0100561D01*
X0098216Y0100516D01*
X0098175Y0100473D01*
X0098131Y0100434D01*
X0098085Y0100398D01*
X0098037Y0100364D01*
X0097986Y0100334D01*
X0097933Y0100308D01*
X0097879Y0100285D01*
X0097824Y0100266D01*
X0097767Y0100250D01*
X0097709Y0100238D01*
X0097651Y0100230D01*
X0097592Y0100226D01*
X0097534Y0100226D01*
X0097475Y0100230D01*
X0097417Y0100238D01*
X0097359Y0100250D01*
X0097302Y0100266D01*
X0097247Y0100285D01*
X0097193Y0100308D01*
X0097140Y0100334D01*
X0097089Y0100364D01*
X0097041Y0100398D01*
X0096995Y0100434D01*
X0096951Y0100473D01*
X0096910Y0100516D01*
X0096872Y0100561D01*
X0096837Y0100608D01*
X0096806Y0100658D01*
X0096778Y0100709D01*
X0096753Y0100762D01*
X0096732Y0100817D01*
X0096714Y0100874D01*
X0096701Y0100931D01*
X0096691Y0100989D01*
X0096685Y0101047D01*
X0096683Y0101106D01*
X0102287Y0136539D02*
X0086539Y0136539D01*
X0055437Y0101500D02*
X0055437Y0095988D01*
X0133783Y0146382D02*
X0145201Y0146382D01*
X0145201Y0151894D01*
X0133783Y0151894D01*
X0133783Y0146382D01*
X0145201Y0146382D02*
X0145201Y0143232D01*
X0146382Y0143232D01*
X0146382Y0135358D01*
X0162130Y0135358D01*
X0162130Y0143232D01*
X0146382Y0143232D01*
X0138114Y0128665D02*
X0135358Y0128665D01*
X0140870Y0127091D02*
X0152681Y0127091D01*
X0152681Y0125122D02*
X0152681Y0121972D01*
X0151801Y0121185D02*
X0151803Y0121244D01*
X0151809Y0121302D01*
X0151819Y0121360D01*
X0151832Y0121417D01*
X0151850Y0121474D01*
X0151871Y0121529D01*
X0151896Y0121582D01*
X0151924Y0121633D01*
X0151955Y0121683D01*
X0151990Y0121730D01*
X0152028Y0121775D01*
X0152069Y0121818D01*
X0152113Y0121857D01*
X0152159Y0121893D01*
X0152207Y0121927D01*
X0152258Y0121957D01*
X0152311Y0121983D01*
X0152365Y0122006D01*
X0152420Y0122025D01*
X0152477Y0122041D01*
X0152535Y0122053D01*
X0152593Y0122061D01*
X0152652Y0122065D01*
X0152710Y0122065D01*
X0152769Y0122061D01*
X0152827Y0122053D01*
X0152885Y0122041D01*
X0152942Y0122025D01*
X0152997Y0122006D01*
X0153051Y0121983D01*
X0153104Y0121957D01*
X0153155Y0121927D01*
X0153203Y0121893D01*
X0153249Y0121857D01*
X0153293Y0121818D01*
X0153334Y0121775D01*
X0153372Y0121730D01*
X0153407Y0121683D01*
X0153438Y0121633D01*
X0153466Y0121582D01*
X0153491Y0121529D01*
X0153512Y0121474D01*
X0153530Y0121417D01*
X0153543Y0121360D01*
X0153553Y0121302D01*
X0153559Y0121244D01*
X0153561Y0121185D01*
X0153559Y0121126D01*
X0153553Y0121068D01*
X0153543Y0121010D01*
X0153530Y0120953D01*
X0153512Y0120896D01*
X0153491Y0120841D01*
X0153466Y0120788D01*
X0153438Y0120737D01*
X0153407Y0120687D01*
X0153372Y0120640D01*
X0153334Y0120595D01*
X0153293Y0120552D01*
X0153249Y0120513D01*
X0153203Y0120477D01*
X0153155Y0120443D01*
X0153104Y0120413D01*
X0153051Y0120387D01*
X0152997Y0120364D01*
X0152942Y0120345D01*
X0152885Y0120329D01*
X0152827Y0120317D01*
X0152769Y0120309D01*
X0152710Y0120305D01*
X0152652Y0120305D01*
X0152593Y0120309D01*
X0152535Y0120317D01*
X0152477Y0120329D01*
X0152420Y0120345D01*
X0152365Y0120364D01*
X0152311Y0120387D01*
X0152258Y0120413D01*
X0152207Y0120443D01*
X0152159Y0120477D01*
X0152113Y0120513D01*
X0152069Y0120552D01*
X0152028Y0120595D01*
X0151990Y0120640D01*
X0151955Y0120687D01*
X0151924Y0120737D01*
X0151896Y0120788D01*
X0151871Y0120841D01*
X0151850Y0120896D01*
X0151832Y0120953D01*
X0151819Y0121010D01*
X0151809Y0121068D01*
X0151803Y0121126D01*
X0151801Y0121185D01*
X0152681Y0120398D02*
X0152681Y0117248D01*
X0152681Y0115673D02*
X0152681Y0115280D01*
X0140870Y0115280D01*
X0140870Y0117642D02*
X0140870Y0125122D01*
X0155437Y0127091D02*
X0155437Y0111343D01*
X0159768Y0111343D01*
X0160949Y0111343D01*
X0160949Y0108980D01*
X0160555Y0108980D01*
X0160555Y0110949D01*
X0160161Y0110949D01*
X0160161Y0108980D01*
X0160555Y0108980D01*
X0159768Y0108587D02*
X0159768Y0111343D01*
X0160949Y0111343D02*
X0162917Y0111343D01*
X0162917Y0127091D01*
X0155437Y0127091D01*
X0153469Y0110555D02*
X0153469Y0102681D01*
X0137720Y0102681D01*
X0137720Y0110555D01*
X0153469Y0110555D01*
X0154650Y0108587D02*
X0154650Y0103469D01*
X0165673Y0103469D01*
X0165673Y0108587D01*
X0159768Y0108587D01*
X0154650Y0108587D01*
X0155831Y0097957D02*
X0144020Y0097957D01*
X0144020Y0095594D02*
X0144020Y0088114D01*
X0144020Y0086146D02*
X0155831Y0086146D01*
X0155831Y0088508D02*
X0155831Y0090870D01*
X0154650Y0092051D02*
X0154652Y0092117D01*
X0154657Y0092183D01*
X0154667Y0092249D01*
X0154680Y0092314D01*
X0154696Y0092378D01*
X0154716Y0092441D01*
X0154740Y0092503D01*
X0154767Y0092563D01*
X0154797Y0092622D01*
X0154831Y0092679D01*
X0154868Y0092734D01*
X0154908Y0092787D01*
X0154950Y0092838D01*
X0154996Y0092886D01*
X0155044Y0092932D01*
X0155095Y0092974D01*
X0155148Y0093014D01*
X0155203Y0093051D01*
X0155260Y0093085D01*
X0155319Y0093115D01*
X0155379Y0093142D01*
X0155441Y0093166D01*
X0155504Y0093186D01*
X0155568Y0093202D01*
X0155633Y0093215D01*
X0155699Y0093225D01*
X0155765Y0093230D01*
X0155831Y0093232D01*
X0155831Y0096382D01*
X0155831Y0097563D02*
X0155831Y0097957D01*
X0154650Y0092051D02*
X0154652Y0091985D01*
X0154657Y0091919D01*
X0154667Y0091853D01*
X0154680Y0091788D01*
X0154696Y0091724D01*
X0154716Y0091661D01*
X0154740Y0091599D01*
X0154767Y0091539D01*
X0154797Y0091480D01*
X0154831Y0091423D01*
X0154868Y0091368D01*
X0154908Y0091315D01*
X0154950Y0091264D01*
X0154996Y0091216D01*
X0155044Y0091170D01*
X0155095Y0091128D01*
X0155148Y0091088D01*
X0155203Y0091051D01*
X0155260Y0091017D01*
X0155319Y0090987D01*
X0155379Y0090960D01*
X0155441Y0090936D01*
X0155504Y0090916D01*
X0155568Y0090900D01*
X0155633Y0090887D01*
X0155699Y0090877D01*
X0155765Y0090872D01*
X0155831Y0090870D01*
X0143927Y0030634D02*
X0143929Y0030693D01*
X0143935Y0030751D01*
X0143945Y0030809D01*
X0143958Y0030866D01*
X0143976Y0030923D01*
X0143997Y0030978D01*
X0144022Y0031031D01*
X0144050Y0031082D01*
X0144081Y0031132D01*
X0144116Y0031179D01*
X0144154Y0031224D01*
X0144195Y0031267D01*
X0144239Y0031306D01*
X0144285Y0031342D01*
X0144333Y0031376D01*
X0144384Y0031406D01*
X0144437Y0031432D01*
X0144491Y0031455D01*
X0144546Y0031474D01*
X0144603Y0031490D01*
X0144661Y0031502D01*
X0144719Y0031510D01*
X0144778Y0031514D01*
X0144836Y0031514D01*
X0144895Y0031510D01*
X0144953Y0031502D01*
X0145011Y0031490D01*
X0145068Y0031474D01*
X0145123Y0031455D01*
X0145177Y0031432D01*
X0145230Y0031406D01*
X0145281Y0031376D01*
X0145329Y0031342D01*
X0145375Y0031306D01*
X0145419Y0031267D01*
X0145460Y0031224D01*
X0145498Y0031179D01*
X0145533Y0031132D01*
X0145564Y0031082D01*
X0145592Y0031031D01*
X0145617Y0030978D01*
X0145638Y0030923D01*
X0145656Y0030866D01*
X0145669Y0030809D01*
X0145679Y0030751D01*
X0145685Y0030693D01*
X0145687Y0030634D01*
X0145685Y0030575D01*
X0145679Y0030517D01*
X0145669Y0030459D01*
X0145656Y0030402D01*
X0145638Y0030345D01*
X0145617Y0030290D01*
X0145592Y0030237D01*
X0145564Y0030186D01*
X0145533Y0030136D01*
X0145498Y0030089D01*
X0145460Y0030044D01*
X0145419Y0030001D01*
X0145375Y0029962D01*
X0145329Y0029926D01*
X0145281Y0029892D01*
X0145230Y0029862D01*
X0145177Y0029836D01*
X0145123Y0029813D01*
X0145068Y0029794D01*
X0145011Y0029778D01*
X0144953Y0029766D01*
X0144895Y0029758D01*
X0144836Y0029754D01*
X0144778Y0029754D01*
X0144719Y0029758D01*
X0144661Y0029766D01*
X0144603Y0029778D01*
X0144546Y0029794D01*
X0144491Y0029813D01*
X0144437Y0029836D01*
X0144384Y0029862D01*
X0144333Y0029892D01*
X0144285Y0029926D01*
X0144239Y0029962D01*
X0144195Y0030001D01*
X0144154Y0030044D01*
X0144116Y0030089D01*
X0144081Y0030136D01*
X0144050Y0030186D01*
X0144022Y0030237D01*
X0143997Y0030290D01*
X0143976Y0030345D01*
X0143958Y0030402D01*
X0143945Y0030459D01*
X0143935Y0030517D01*
X0143929Y0030575D01*
X0143927Y0030634D01*
D14*
X0032976Y0029470D02*
X0032976Y0028093D01*
X0032057Y0028093D02*
X0032057Y0029470D01*
X0032516Y0029930D01*
X0032976Y0029470D01*
X0032057Y0029470D02*
X0031598Y0029930D01*
X0031139Y0029930D01*
X0031139Y0028093D01*
X0030257Y0028552D02*
X0030257Y0029470D01*
X0029798Y0029930D01*
X0028879Y0029930D01*
X0028420Y0029470D01*
X0028420Y0028552D01*
X0028879Y0028093D01*
X0029798Y0028093D01*
X0030257Y0028552D01*
X0027538Y0028093D02*
X0026160Y0028093D01*
X0025701Y0028552D01*
X0025701Y0029470D01*
X0026160Y0029930D01*
X0027538Y0029930D01*
X0024801Y0028552D02*
X0024801Y0028093D01*
X0024342Y0028093D01*
X0024342Y0028552D01*
X0024801Y0028552D01*
X0023460Y0029011D02*
X0021623Y0029011D01*
X0021623Y0028552D02*
X0021623Y0029470D01*
X0022082Y0029930D01*
X0023000Y0029930D01*
X0023460Y0029470D01*
X0023460Y0029011D01*
X0023000Y0028093D02*
X0022082Y0028093D01*
X0021623Y0028552D01*
X0020741Y0028093D02*
X0019363Y0028093D01*
X0018904Y0028552D01*
X0018904Y0029930D01*
X0018016Y0029930D02*
X0016638Y0029011D01*
X0018016Y0028093D01*
X0016638Y0028093D02*
X0016638Y0030848D01*
X0015285Y0030848D02*
X0015285Y0031307D01*
X0015285Y0029930D02*
X0014826Y0029930D01*
X0015285Y0029930D02*
X0015285Y0028093D01*
X0014826Y0028093D02*
X0015744Y0028093D01*
X0013932Y0028093D02*
X0013472Y0028552D01*
X0013472Y0030389D01*
X0013013Y0029930D02*
X0013932Y0029930D01*
X0012125Y0029930D02*
X0011666Y0029930D01*
X0010748Y0029011D01*
X0009865Y0029011D02*
X0008488Y0029011D01*
X0008029Y0028552D01*
X0008488Y0028093D01*
X0009865Y0028093D01*
X0009865Y0029470D01*
X0009406Y0029930D01*
X0008488Y0029930D01*
X0007141Y0029930D02*
X0005763Y0029011D01*
X0007141Y0028093D01*
X0005763Y0028093D02*
X0005763Y0030848D01*
X0010748Y0029930D02*
X0010748Y0028093D01*
X0019822Y0027175D02*
X0020282Y0027175D01*
X0020741Y0027634D01*
X0020741Y0029930D01*
D15*
X0070874Y0082470D03*
X0075274Y0077570D03*
X0079874Y0080970D03*
X0088974Y0079670D03*
X0088974Y0079570D03*
X0079874Y0071470D03*
X0071074Y0091170D03*
X0071174Y0091270D03*
X0072274Y0097070D03*
X0088674Y0091270D03*
D16*
X0071024Y0074170D03*
X0071024Y0074070D03*
X0079924Y0071570D03*
X0088724Y0072770D03*
X0088724Y0072770D03*
D17*
X0088724Y0073070D03*
X0088724Y0073170D03*
X0088724Y0073270D03*
X0088724Y0073370D03*
X0088724Y0073470D03*
X0088724Y0073570D03*
X0079924Y0071670D03*
X0071024Y0072970D03*
X0071024Y0073070D03*
X0071024Y0073470D03*
X0071024Y0073570D03*
X0071024Y0073670D03*
X0071024Y0073770D03*
X0080024Y0087870D03*
X0079924Y0093670D03*
D18*
X0079874Y0091270D03*
X0079874Y0075070D03*
X0079874Y0071770D03*
D19*
X0082274Y0071870D03*
X0077474Y0071870D03*
X0073474Y0076170D03*
X0073474Y0076270D03*
X0072774Y0078270D03*
X0078774Y0082870D03*
X0078774Y0082970D03*
X0078874Y0085370D03*
X0080974Y0085270D03*
X0080974Y0085170D03*
X0080974Y0085070D03*
X0080974Y0084970D03*
X0080974Y0084870D03*
X0077474Y0089770D03*
X0087374Y0095570D03*
X0079874Y0079070D03*
X0079874Y0078970D03*
X0079874Y0078870D03*
X0079874Y0078770D03*
D20*
X0079824Y0078370D03*
X0079924Y0079370D03*
X0085924Y0079270D03*
X0085924Y0079170D03*
X0085924Y0079570D03*
X0085924Y0079670D03*
X0087224Y0078470D03*
X0079924Y0072270D03*
X0079924Y0072170D03*
X0079924Y0072070D03*
X0079924Y0071970D03*
X0079924Y0071870D03*
X0074024Y0075970D03*
X0073824Y0079170D03*
X0073824Y0079270D03*
X0073824Y0079370D03*
X0073824Y0079470D03*
X0073824Y0079570D03*
X0077124Y0096770D03*
X0077124Y0096870D03*
X0078324Y0099970D03*
X0081424Y0099970D03*
X0083024Y0096870D03*
X0083024Y0096770D03*
D21*
X0083024Y0096270D03*
X0083024Y0097270D03*
X0081224Y0099670D03*
X0079824Y0099670D03*
X0078424Y0099670D03*
X0078424Y0099570D03*
X0077124Y0097270D03*
X0077124Y0096270D03*
X0080024Y0096470D03*
X0083624Y0101970D03*
X0088724Y0095170D03*
X0085924Y0078770D03*
X0087024Y0076570D03*
X0088724Y0077370D03*
X0082824Y0071970D03*
X0079924Y0072770D03*
X0076924Y0071970D03*
X0072824Y0072570D03*
X0072624Y0076670D03*
X0071024Y0077370D03*
X0071024Y0078470D03*
X0069524Y0082670D03*
X0081024Y0076770D03*
D22*
X0081174Y0076670D03*
X0081174Y0076570D03*
X0081174Y0076470D03*
X0081174Y0076370D03*
X0081174Y0076270D03*
X0081174Y0076170D03*
X0081174Y0076070D03*
X0081174Y0075970D03*
X0081174Y0075870D03*
X0081174Y0075770D03*
X0081174Y0075670D03*
X0081174Y0075570D03*
X0082174Y0074770D03*
X0082274Y0074570D03*
X0082374Y0074470D03*
X0082474Y0074270D03*
X0082574Y0074070D03*
X0082674Y0073770D03*
X0082774Y0073670D03*
X0082774Y0073570D03*
X0082974Y0073070D03*
X0082974Y0072970D03*
X0083074Y0072670D03*
X0083074Y0072570D03*
X0083074Y0072470D03*
X0083074Y0072170D03*
X0082974Y0072070D03*
X0083574Y0075870D03*
X0083574Y0075970D03*
X0083574Y0076070D03*
X0083574Y0076170D03*
X0083574Y0076270D03*
X0083574Y0076370D03*
X0083574Y0076470D03*
X0083574Y0076570D03*
X0085774Y0076870D03*
X0085774Y0076970D03*
X0085774Y0077070D03*
X0085774Y0077170D03*
X0085774Y0077270D03*
X0085774Y0077370D03*
X0085974Y0078670D03*
X0087674Y0078870D03*
X0087674Y0078970D03*
X0087674Y0079070D03*
X0087674Y0079170D03*
X0087674Y0079270D03*
X0087674Y0079370D03*
X0087674Y0079470D03*
X0087674Y0080070D03*
X0087674Y0080170D03*
X0087674Y0080270D03*
X0087674Y0080370D03*
X0087674Y0080470D03*
X0087674Y0080570D03*
X0087674Y0080670D03*
X0087674Y0080770D03*
X0087674Y0080870D03*
X0087674Y0080970D03*
X0087674Y0081070D03*
X0087674Y0081170D03*
X0087674Y0081270D03*
X0087674Y0081370D03*
X0087674Y0081470D03*
X0087674Y0081570D03*
X0087674Y0081670D03*
X0087674Y0081770D03*
X0087674Y0081870D03*
X0087674Y0081970D03*
X0087674Y0082070D03*
X0087674Y0082570D03*
X0087674Y0082670D03*
X0087674Y0082770D03*
X0087674Y0082870D03*
X0087674Y0082970D03*
X0087674Y0083070D03*
X0087674Y0083170D03*
X0087674Y0083270D03*
X0087674Y0083370D03*
X0087674Y0083470D03*
X0087674Y0083570D03*
X0087674Y0083670D03*
X0087674Y0083770D03*
X0087674Y0083870D03*
X0087674Y0083970D03*
X0087674Y0084070D03*
X0087674Y0084170D03*
X0087674Y0084270D03*
X0087674Y0084370D03*
X0087674Y0084470D03*
X0087674Y0084570D03*
X0087674Y0084670D03*
X0087674Y0084770D03*
X0087674Y0084870D03*
X0087674Y0084970D03*
X0087674Y0085070D03*
X0087674Y0085170D03*
X0087674Y0085270D03*
X0087674Y0085370D03*
X0087674Y0085470D03*
X0087674Y0085570D03*
X0087674Y0085670D03*
X0090674Y0085670D03*
X0090674Y0085570D03*
X0090674Y0085470D03*
X0090674Y0085370D03*
X0090674Y0085270D03*
X0090674Y0085170D03*
X0090674Y0085070D03*
X0090674Y0084970D03*
X0090674Y0084870D03*
X0090674Y0084770D03*
X0090674Y0084670D03*
X0090674Y0084570D03*
X0090674Y0084470D03*
X0090674Y0084370D03*
X0090674Y0084270D03*
X0090674Y0084170D03*
X0090674Y0084070D03*
X0090674Y0083970D03*
X0090674Y0083870D03*
X0090674Y0083770D03*
X0090674Y0083670D03*
X0090674Y0083570D03*
X0090674Y0083470D03*
X0090574Y0083070D03*
X0089974Y0082070D03*
X0089974Y0081970D03*
X0089974Y0081870D03*
X0089974Y0081170D03*
X0089974Y0081070D03*
X0089974Y0080970D03*
X0089974Y0080870D03*
X0089974Y0080770D03*
X0089974Y0080670D03*
X0089974Y0080570D03*
X0089974Y0080470D03*
X0089974Y0080370D03*
X0089974Y0080270D03*
X0090474Y0079370D03*
X0090574Y0079170D03*
X0090674Y0078770D03*
X0090674Y0078670D03*
X0090674Y0078570D03*
X0090674Y0078470D03*
X0090674Y0078370D03*
X0090674Y0078270D03*
X0090674Y0078170D03*
X0090674Y0078070D03*
X0090674Y0077970D03*
X0090674Y0077870D03*
X0090674Y0077770D03*
X0090674Y0077670D03*
X0090674Y0077570D03*
X0090674Y0077470D03*
X0090674Y0077370D03*
X0090674Y0077270D03*
X0090674Y0077170D03*
X0087574Y0077170D03*
X0087574Y0077270D03*
X0087574Y0077370D03*
X0087574Y0077470D03*
X0087474Y0076970D03*
X0087374Y0076870D03*
X0086974Y0075970D03*
X0087674Y0078070D03*
X0087674Y0078170D03*
X0090674Y0085770D03*
X0090674Y0085870D03*
X0090674Y0085970D03*
X0090674Y0086070D03*
X0090674Y0086170D03*
X0090674Y0086270D03*
X0090674Y0086370D03*
X0090674Y0086470D03*
X0090674Y0086570D03*
X0090574Y0087470D03*
X0090574Y0087570D03*
X0090574Y0087670D03*
X0090574Y0087770D03*
X0090574Y0087870D03*
X0090574Y0087970D03*
X0090574Y0088070D03*
X0090574Y0088170D03*
X0090474Y0088370D03*
X0090474Y0088470D03*
X0090474Y0088570D03*
X0090474Y0088670D03*
X0090474Y0088770D03*
X0090474Y0088870D03*
X0090474Y0088970D03*
X0090474Y0089070D03*
X0090474Y0089170D03*
X0090474Y0089270D03*
X0090474Y0089370D03*
X0090474Y0089470D03*
X0090474Y0089570D03*
X0090474Y0089670D03*
X0090374Y0089970D03*
X0090374Y0090070D03*
X0090374Y0090170D03*
X0090274Y0090570D03*
X0090174Y0090870D03*
X0087474Y0090470D03*
X0087474Y0090370D03*
X0087474Y0090270D03*
X0087474Y0090170D03*
X0087474Y0090070D03*
X0087274Y0092370D03*
X0087274Y0092470D03*
X0087174Y0092670D03*
X0087174Y0093270D03*
X0087174Y0093370D03*
X0087074Y0094170D03*
X0087074Y0094270D03*
X0086974Y0094370D03*
X0086974Y0094470D03*
X0086974Y0094570D03*
X0086974Y0094670D03*
X0086874Y0094770D03*
X0086874Y0094870D03*
X0086874Y0094970D03*
X0086574Y0095970D03*
X0086574Y0096070D03*
X0086474Y0096270D03*
X0086474Y0096370D03*
X0086374Y0096570D03*
X0086074Y0097270D03*
X0085974Y0097370D03*
X0085874Y0097470D03*
X0085874Y0097570D03*
X0085774Y0097670D03*
X0085674Y0097770D03*
X0085574Y0097970D03*
X0085474Y0098070D03*
X0085374Y0098270D03*
X0085274Y0098370D03*
X0085174Y0098470D03*
X0085174Y0098570D03*
X0085074Y0098670D03*
X0084974Y0098870D03*
X0084874Y0099270D03*
X0084374Y0100870D03*
X0084074Y0101570D03*
X0083574Y0102070D03*
X0083174Y0101670D03*
X0083074Y0101570D03*
X0082974Y0101470D03*
X0082874Y0101370D03*
X0082774Y0101270D03*
X0082674Y0101070D03*
X0082574Y0100970D03*
X0082474Y0100870D03*
X0082374Y0100670D03*
X0082274Y0100570D03*
X0082174Y0100370D03*
X0081174Y0099270D03*
X0079874Y0099370D03*
X0077674Y0100370D03*
X0077574Y0100470D03*
X0077374Y0100770D03*
X0077074Y0101170D03*
X0076774Y0101570D03*
X0076674Y0101670D03*
X0076174Y0102070D03*
X0075774Y0101670D03*
X0075674Y0101570D03*
X0075674Y0101470D03*
X0075574Y0101270D03*
X0075474Y0101070D03*
X0075474Y0100970D03*
X0075374Y0100770D03*
X0075274Y0100570D03*
X0075274Y0100470D03*
X0075174Y0100270D03*
X0075174Y0100170D03*
X0075074Y0099870D03*
X0074974Y0099570D03*
X0074874Y0099170D03*
X0074874Y0099070D03*
X0074774Y0098770D03*
X0074674Y0098670D03*
X0074674Y0098570D03*
X0074574Y0098470D03*
X0074474Y0098370D03*
X0074474Y0098270D03*
X0074374Y0098170D03*
X0074274Y0098070D03*
X0074274Y0097970D03*
X0074174Y0097870D03*
X0074074Y0097770D03*
X0074074Y0097670D03*
X0073974Y0097570D03*
X0073874Y0097470D03*
X0073774Y0097370D03*
X0073774Y0097270D03*
X0073474Y0096770D03*
X0073474Y0096670D03*
X0073374Y0096470D03*
X0073274Y0096170D03*
X0073074Y0095670D03*
X0072974Y0095170D03*
X0072974Y0095070D03*
X0072974Y0094970D03*
X0072874Y0094870D03*
X0072874Y0094770D03*
X0072874Y0094670D03*
X0072874Y0094570D03*
X0072774Y0094370D03*
X0072774Y0094270D03*
X0072774Y0094170D03*
X0072674Y0093470D03*
X0072674Y0093370D03*
X0072674Y0093270D03*
X0072474Y0092270D03*
X0072474Y0092170D03*
X0072374Y0090970D03*
X0072374Y0090870D03*
X0072374Y0090770D03*
X0072374Y0090670D03*
X0072274Y0089670D03*
X0072274Y0089570D03*
X0072274Y0089470D03*
X0072274Y0089370D03*
X0072274Y0089270D03*
X0072274Y0089170D03*
X0072174Y0088870D03*
X0072174Y0088770D03*
X0072174Y0088670D03*
X0072174Y0088570D03*
X0072174Y0088470D03*
X0072174Y0088370D03*
X0072174Y0088270D03*
X0072174Y0088170D03*
X0072174Y0088070D03*
X0072174Y0087970D03*
X0072174Y0087870D03*
X0072174Y0087770D03*
X0072174Y0087670D03*
X0072174Y0087570D03*
X0072174Y0087470D03*
X0072174Y0086870D03*
X0072174Y0086770D03*
X0072174Y0086670D03*
X0072174Y0086570D03*
X0072174Y0086470D03*
X0072174Y0086370D03*
X0072174Y0086270D03*
X0072174Y0086170D03*
X0072174Y0086070D03*
X0072174Y0085970D03*
X0072174Y0085870D03*
X0072174Y0085770D03*
X0072074Y0085570D03*
X0072074Y0085470D03*
X0072074Y0085370D03*
X0072074Y0085270D03*
X0072074Y0085170D03*
X0072074Y0085070D03*
X0072074Y0084970D03*
X0072074Y0084870D03*
X0072074Y0084770D03*
X0072074Y0084670D03*
X0072074Y0084570D03*
X0072074Y0084470D03*
X0072074Y0084370D03*
X0072074Y0084270D03*
X0072174Y0084170D03*
X0072174Y0084070D03*
X0072174Y0083970D03*
X0072174Y0083870D03*
X0072174Y0083770D03*
X0072174Y0083670D03*
X0072174Y0083570D03*
X0072174Y0083470D03*
X0072174Y0083370D03*
X0072174Y0083270D03*
X0072174Y0083170D03*
X0072174Y0083070D03*
X0072174Y0082970D03*
X0072174Y0082870D03*
X0072174Y0082770D03*
X0072174Y0082670D03*
X0072174Y0082070D03*
X0072174Y0081970D03*
X0072174Y0081870D03*
X0072174Y0081770D03*
X0072174Y0081670D03*
X0072174Y0081570D03*
X0072174Y0081470D03*
X0072174Y0081370D03*
X0072174Y0081270D03*
X0072174Y0081170D03*
X0072174Y0081070D03*
X0072174Y0080970D03*
X0072174Y0080870D03*
X0072174Y0080770D03*
X0072174Y0080670D03*
X0072174Y0080570D03*
X0072174Y0080470D03*
X0072174Y0080370D03*
X0072174Y0080270D03*
X0072174Y0080170D03*
X0072174Y0080070D03*
X0072174Y0079470D03*
X0072174Y0079370D03*
X0072174Y0079270D03*
X0072174Y0079170D03*
X0072174Y0079070D03*
X0072174Y0078970D03*
X0072174Y0078870D03*
X0072174Y0078170D03*
X0072174Y0078070D03*
X0072174Y0077970D03*
X0072174Y0077870D03*
X0072174Y0077770D03*
X0072174Y0077670D03*
X0072174Y0077570D03*
X0072174Y0077470D03*
X0072174Y0077370D03*
X0072174Y0077270D03*
X0071074Y0077270D03*
X0071074Y0078570D03*
X0069874Y0080070D03*
X0069874Y0080170D03*
X0069874Y0080270D03*
X0069874Y0080370D03*
X0069874Y0080470D03*
X0069874Y0080570D03*
X0069874Y0080670D03*
X0069874Y0080770D03*
X0069874Y0081770D03*
X0069874Y0081870D03*
X0069874Y0081970D03*
X0069874Y0082070D03*
X0069374Y0082770D03*
X0069274Y0082870D03*
X0069274Y0082970D03*
X0069274Y0083070D03*
X0069174Y0083270D03*
X0069174Y0083370D03*
X0069174Y0083470D03*
X0069074Y0083770D03*
X0069074Y0083870D03*
X0069074Y0083970D03*
X0069074Y0084070D03*
X0069074Y0084170D03*
X0069074Y0084270D03*
X0069074Y0084370D03*
X0069074Y0084470D03*
X0069074Y0084570D03*
X0069074Y0084670D03*
X0069074Y0084770D03*
X0069074Y0084870D03*
X0069074Y0084970D03*
X0069074Y0085070D03*
X0069074Y0085170D03*
X0069074Y0085270D03*
X0069074Y0085370D03*
X0069074Y0085470D03*
X0069074Y0085570D03*
X0069074Y0085670D03*
X0069074Y0085770D03*
X0069074Y0085870D03*
X0069074Y0085970D03*
X0069174Y0086170D03*
X0069174Y0086270D03*
X0069174Y0086370D03*
X0069174Y0086470D03*
X0069174Y0086570D03*
X0069174Y0086670D03*
X0069174Y0086770D03*
X0069174Y0086870D03*
X0069174Y0086970D03*
X0069174Y0087070D03*
X0069174Y0087170D03*
X0069174Y0087270D03*
X0069174Y0087370D03*
X0069174Y0087470D03*
X0069274Y0087870D03*
X0069274Y0087970D03*
X0069274Y0088070D03*
X0069274Y0088170D03*
X0069274Y0088270D03*
X0069274Y0088370D03*
X0069274Y0088470D03*
X0069274Y0088570D03*
X0069274Y0088670D03*
X0069274Y0088770D03*
X0069274Y0088870D03*
X0069374Y0089370D03*
X0069374Y0089470D03*
X0069374Y0089570D03*
X0069374Y0089670D03*
X0069374Y0089770D03*
X0069374Y0089870D03*
X0069374Y0089970D03*
X0069374Y0090070D03*
X0069474Y0090370D03*
X0069474Y0090470D03*
X0069574Y0090670D03*
X0069574Y0090770D03*
X0070874Y0094970D03*
X0072374Y0095670D03*
X0079474Y0096070D03*
X0080574Y0096070D03*
X0075774Y0086570D03*
X0075774Y0086470D03*
X0075874Y0086370D03*
X0075874Y0086270D03*
X0075874Y0086170D03*
X0075874Y0086070D03*
X0075874Y0085970D03*
X0075874Y0085870D03*
X0075874Y0085770D03*
X0075874Y0085670D03*
X0075974Y0085470D03*
X0075974Y0085370D03*
X0075974Y0085270D03*
X0075974Y0085170D03*
X0075974Y0085070D03*
X0075974Y0084970D03*
X0075974Y0084870D03*
X0075974Y0084770D03*
X0075974Y0084670D03*
X0075974Y0084570D03*
X0075974Y0084470D03*
X0075974Y0084370D03*
X0075974Y0084270D03*
X0075974Y0084170D03*
X0075974Y0084070D03*
X0075974Y0083970D03*
X0075974Y0083870D03*
X0075974Y0083770D03*
X0075974Y0083670D03*
X0075974Y0083570D03*
X0075974Y0083470D03*
X0075974Y0083370D03*
X0075974Y0083270D03*
X0075974Y0083170D03*
X0075974Y0083070D03*
X0075974Y0082970D03*
X0075974Y0082870D03*
X0075974Y0082770D03*
X0075974Y0082670D03*
X0075974Y0082570D03*
X0075974Y0082470D03*
X0075974Y0082370D03*
X0075974Y0082270D03*
X0075974Y0082170D03*
X0075974Y0082070D03*
X0075974Y0081970D03*
X0075974Y0081870D03*
X0075974Y0081770D03*
X0075974Y0081670D03*
X0075974Y0081570D03*
X0075974Y0081470D03*
X0075974Y0081370D03*
X0075974Y0081270D03*
X0075974Y0081170D03*
X0075974Y0081070D03*
X0075974Y0080970D03*
X0075974Y0080870D03*
X0075974Y0080770D03*
X0075974Y0080670D03*
X0075974Y0080570D03*
X0075974Y0080470D03*
X0075974Y0080370D03*
X0075974Y0080270D03*
X0075974Y0080170D03*
X0075974Y0080070D03*
X0075974Y0079970D03*
X0075974Y0079870D03*
X0075974Y0079770D03*
X0075974Y0079670D03*
X0075974Y0079570D03*
X0075974Y0079470D03*
X0075974Y0079370D03*
X0075974Y0079270D03*
X0075974Y0079170D03*
X0075974Y0079070D03*
X0075974Y0078970D03*
X0075974Y0078870D03*
X0075974Y0078770D03*
X0075974Y0078670D03*
X0075974Y0078570D03*
X0075974Y0078470D03*
X0075974Y0078370D03*
X0075974Y0078270D03*
X0075974Y0078170D03*
X0075974Y0078070D03*
X0075974Y0077970D03*
X0075974Y0077870D03*
X0076274Y0076970D03*
X0076274Y0076870D03*
X0076274Y0076770D03*
X0076274Y0076670D03*
X0076174Y0076470D03*
X0076174Y0076370D03*
X0076174Y0076270D03*
X0076174Y0076170D03*
X0076174Y0076070D03*
X0076174Y0075970D03*
X0076174Y0075870D03*
X0076174Y0075770D03*
X0076174Y0075670D03*
X0077574Y0074770D03*
X0077474Y0074470D03*
X0077374Y0074370D03*
X0077374Y0074270D03*
X0077274Y0074170D03*
X0077074Y0073670D03*
X0076974Y0073470D03*
X0076874Y0073170D03*
X0076774Y0072970D03*
X0076774Y0072870D03*
X0076774Y0072770D03*
X0076674Y0072370D03*
X0076674Y0072270D03*
X0076774Y0072070D03*
X0078674Y0075970D03*
X0078674Y0076070D03*
X0078674Y0076170D03*
X0078674Y0076270D03*
X0078674Y0076370D03*
X0078674Y0076470D03*
X0078674Y0076570D03*
X0078674Y0076670D03*
X0078674Y0076770D03*
X0074074Y0077170D03*
X0074074Y0077270D03*
X0074074Y0077370D03*
X0069274Y0076270D03*
X0069274Y0076170D03*
X0069174Y0076370D03*
X0069174Y0076470D03*
X0069174Y0076570D03*
X0069174Y0076670D03*
X0069174Y0076770D03*
X0069174Y0076870D03*
X0069074Y0078070D03*
X0069074Y0078170D03*
X0069074Y0078270D03*
X0069074Y0078370D03*
X0069074Y0078470D03*
X0069074Y0078570D03*
X0069074Y0078670D03*
X0069174Y0079070D03*
X0069274Y0079270D03*
D23*
X0069224Y0079170D03*
X0069124Y0078970D03*
X0069124Y0078870D03*
X0069124Y0078770D03*
X0069124Y0077970D03*
X0069124Y0077870D03*
X0069124Y0077770D03*
X0069124Y0077670D03*
X0069124Y0077570D03*
X0069124Y0077470D03*
X0069124Y0077370D03*
X0069124Y0077270D03*
X0069124Y0077170D03*
X0069124Y0077070D03*
X0069124Y0076970D03*
X0069224Y0083170D03*
X0069124Y0083570D03*
X0069124Y0083670D03*
X0072124Y0085670D03*
X0075924Y0085570D03*
X0078624Y0075870D03*
X0078624Y0075770D03*
X0078624Y0075670D03*
X0078624Y0075570D03*
X0078624Y0075470D03*
X0078624Y0075370D03*
X0078624Y0075270D03*
X0077524Y0074670D03*
X0077524Y0074570D03*
X0077224Y0074070D03*
X0077224Y0073970D03*
X0077124Y0073870D03*
X0077124Y0073770D03*
X0077024Y0073570D03*
X0076924Y0073370D03*
X0076924Y0073270D03*
X0076824Y0073070D03*
X0076724Y0072670D03*
X0076724Y0072570D03*
X0076724Y0072470D03*
X0076724Y0072170D03*
X0079924Y0072970D03*
X0081224Y0075270D03*
X0081224Y0075370D03*
X0081224Y0075470D03*
X0082224Y0074670D03*
X0082424Y0074370D03*
X0082524Y0074170D03*
X0082624Y0073970D03*
X0082624Y0073870D03*
X0082824Y0073470D03*
X0082824Y0073370D03*
X0082924Y0073270D03*
X0082924Y0073170D03*
X0083024Y0072870D03*
X0083024Y0072770D03*
X0083124Y0072370D03*
X0083124Y0072270D03*
X0083624Y0075670D03*
X0083624Y0075770D03*
X0083524Y0076670D03*
X0083524Y0076770D03*
X0083524Y0076870D03*
X0083524Y0076970D03*
X0085824Y0076770D03*
X0085824Y0076670D03*
X0085824Y0076570D03*
X0085824Y0076470D03*
X0085824Y0076370D03*
X0087624Y0077570D03*
X0087624Y0077670D03*
X0087624Y0077770D03*
X0087624Y0077870D03*
X0087624Y0077970D03*
X0089924Y0080070D03*
X0089924Y0080170D03*
X0090524Y0079270D03*
X0090624Y0079070D03*
X0090624Y0078970D03*
X0090624Y0078870D03*
X0090624Y0077070D03*
X0090624Y0076970D03*
X0090624Y0076870D03*
X0090624Y0076770D03*
X0090624Y0076670D03*
X0090624Y0076570D03*
X0090624Y0076470D03*
X0090624Y0076370D03*
X0090524Y0076270D03*
X0090524Y0076170D03*
X0090424Y0076070D03*
X0089924Y0081270D03*
X0089924Y0081370D03*
X0089924Y0081470D03*
X0089924Y0081570D03*
X0089924Y0081670D03*
X0089924Y0081770D03*
X0090424Y0082770D03*
X0090524Y0082870D03*
X0090524Y0082970D03*
X0090624Y0083170D03*
X0090624Y0083270D03*
X0090624Y0083370D03*
X0090524Y0088270D03*
X0087324Y0092170D03*
X0087324Y0092270D03*
X0087224Y0092570D03*
X0086824Y0095070D03*
X0086824Y0095170D03*
X0086724Y0095670D03*
X0086624Y0095770D03*
X0086624Y0095870D03*
X0086524Y0096170D03*
X0086424Y0096470D03*
X0086324Y0096670D03*
X0086324Y0096770D03*
X0085624Y0097870D03*
X0085424Y0098170D03*
X0085024Y0098770D03*
X0084924Y0098970D03*
X0084924Y0099070D03*
X0084924Y0099170D03*
X0084824Y0099370D03*
X0084824Y0099470D03*
X0084824Y0099570D03*
X0084724Y0099770D03*
X0084624Y0100070D03*
X0084624Y0100170D03*
X0084524Y0100370D03*
X0084524Y0100470D03*
X0084524Y0100570D03*
X0084424Y0100670D03*
X0084424Y0100770D03*
X0084324Y0100970D03*
X0084324Y0101070D03*
X0084224Y0101170D03*
X0084224Y0101270D03*
X0084224Y0101370D03*
X0084124Y0101470D03*
X0084024Y0101670D03*
X0087524Y0097470D03*
X0088824Y0096970D03*
X0087424Y0095670D03*
X0088924Y0094970D03*
X0080024Y0096770D03*
X0080024Y0096870D03*
X0080024Y0096970D03*
X0080024Y0097070D03*
X0078424Y0099270D03*
X0075124Y0099970D03*
X0075124Y0100070D03*
X0075024Y0099770D03*
X0075024Y0099670D03*
X0074924Y0099470D03*
X0074924Y0099370D03*
X0074924Y0099270D03*
X0074824Y0098970D03*
X0074824Y0098870D03*
X0075224Y0100370D03*
X0075324Y0100670D03*
X0075424Y0100870D03*
X0075524Y0101170D03*
X0075624Y0101370D03*
X0072324Y0097470D03*
X0073424Y0096570D03*
X0073324Y0096370D03*
X0073324Y0096270D03*
X0073224Y0096070D03*
X0073224Y0095970D03*
X0073124Y0095870D03*
X0073124Y0095770D03*
X0072824Y0094470D03*
X0070924Y0096970D03*
D24*
X0077174Y0096670D03*
X0079874Y0100470D03*
X0076174Y0101770D03*
X0083074Y0096670D03*
X0085874Y0079770D03*
X0085874Y0079070D03*
X0086074Y0077970D03*
X0088774Y0077970D03*
X0088774Y0078070D03*
X0079774Y0078270D03*
X0074574Y0075770D03*
X0073774Y0077970D03*
X0073874Y0078970D03*
X0073874Y0079070D03*
X0073874Y0079670D03*
X0073874Y0079770D03*
X0072574Y0078470D03*
X0079874Y0072370D03*
D25*
X0079924Y0072470D03*
X0079924Y0072570D03*
X0084924Y0075670D03*
X0086324Y0078070D03*
X0085924Y0078970D03*
X0085924Y0079870D03*
X0087324Y0078570D03*
X0088824Y0077870D03*
X0088824Y0077770D03*
X0079924Y0079470D03*
X0073524Y0078070D03*
X0073324Y0078170D03*
X0071024Y0078170D03*
X0071024Y0078070D03*
X0071024Y0077970D03*
X0071024Y0077870D03*
X0071024Y0077770D03*
X0071024Y0077670D03*
X0072724Y0091670D03*
X0077124Y0096470D03*
X0077124Y0096570D03*
X0077124Y0096970D03*
X0077124Y0097070D03*
X0080024Y0096370D03*
X0083024Y0096470D03*
X0083024Y0096570D03*
X0083024Y0096970D03*
X0083024Y0097070D03*
X0081424Y0099870D03*
X0083524Y0101770D03*
X0076224Y0101870D03*
D26*
X0073424Y0091870D03*
X0070624Y0091070D03*
X0079924Y0086570D03*
X0086424Y0091870D03*
X0086124Y0093870D03*
X0070624Y0072570D03*
D27*
X0071024Y0072670D03*
X0088724Y0074170D03*
X0084824Y0092070D03*
D28*
X0086924Y0092770D03*
X0086824Y0093670D03*
X0083024Y0096370D03*
X0083024Y0097170D03*
X0077124Y0097170D03*
X0077124Y0096370D03*
X0079924Y0079570D03*
X0079624Y0076770D03*
X0079924Y0072670D03*
X0085924Y0078870D03*
X0085924Y0079970D03*
X0087424Y0078670D03*
X0088724Y0077470D03*
X0086724Y0076370D03*
X0072924Y0076470D03*
X0071024Y0077470D03*
X0071024Y0078270D03*
X0071024Y0078370D03*
X0072424Y0078670D03*
D29*
X0071074Y0074570D03*
X0079874Y0074870D03*
X0079974Y0076970D03*
X0088774Y0072670D03*
D30*
X0088774Y0072870D03*
X0088774Y0073970D03*
X0071074Y0073970D03*
X0071074Y0072770D03*
X0075074Y0092070D03*
D31*
X0071074Y0073870D03*
X0071074Y0072870D03*
X0088774Y0073670D03*
D32*
X0090324Y0075970D03*
X0088724Y0077270D03*
X0088824Y0078470D03*
X0087624Y0078770D03*
X0087524Y0077070D03*
X0087324Y0076770D03*
X0087224Y0076670D03*
X0083824Y0077870D03*
X0083824Y0077970D03*
X0083824Y0078070D03*
X0083824Y0078170D03*
X0083824Y0078270D03*
X0083824Y0078370D03*
X0083824Y0078470D03*
X0083824Y0078570D03*
X0083824Y0078670D03*
X0083824Y0078770D03*
X0083824Y0078870D03*
X0083824Y0078970D03*
X0083824Y0079070D03*
X0083824Y0079170D03*
X0083824Y0079270D03*
X0083824Y0079370D03*
X0083824Y0079470D03*
X0083824Y0079570D03*
X0083824Y0079670D03*
X0083824Y0079770D03*
X0083824Y0079870D03*
X0083824Y0079970D03*
X0083824Y0080070D03*
X0083824Y0080170D03*
X0083824Y0080270D03*
X0083824Y0080370D03*
X0083824Y0080470D03*
X0083824Y0080570D03*
X0083824Y0080670D03*
X0083824Y0080770D03*
X0083824Y0080870D03*
X0083824Y0080970D03*
X0083824Y0081070D03*
X0083824Y0081170D03*
X0083824Y0081270D03*
X0083824Y0081370D03*
X0083824Y0081470D03*
X0083824Y0081570D03*
X0083824Y0081670D03*
X0083824Y0081770D03*
X0083824Y0081870D03*
X0083824Y0081970D03*
X0083824Y0082070D03*
X0083824Y0082170D03*
X0083824Y0082270D03*
X0083824Y0082370D03*
X0083824Y0082470D03*
X0083824Y0082570D03*
X0083824Y0082670D03*
X0083824Y0082770D03*
X0083824Y0082870D03*
X0083824Y0082970D03*
X0083824Y0083070D03*
X0083824Y0083170D03*
X0083824Y0083270D03*
X0083824Y0083370D03*
X0083824Y0083470D03*
X0083824Y0083570D03*
X0083824Y0083670D03*
X0083824Y0083770D03*
X0083824Y0083870D03*
X0083824Y0083970D03*
X0083824Y0084070D03*
X0083824Y0084170D03*
X0083924Y0085670D03*
X0083924Y0085770D03*
X0083924Y0085870D03*
X0083924Y0085970D03*
X0083924Y0086070D03*
X0083924Y0086170D03*
X0083924Y0086270D03*
X0083924Y0086370D03*
X0083924Y0086470D03*
X0087624Y0086470D03*
X0087624Y0086370D03*
X0087624Y0086270D03*
X0087624Y0086170D03*
X0087624Y0086070D03*
X0087624Y0085970D03*
X0087624Y0085870D03*
X0087624Y0085770D03*
X0087624Y0086570D03*
X0087624Y0086670D03*
X0087624Y0086770D03*
X0087624Y0086870D03*
X0087624Y0087570D03*
X0087624Y0087670D03*
X0087624Y0087770D03*
X0087624Y0087870D03*
X0087624Y0087970D03*
X0087624Y0088070D03*
X0087624Y0088170D03*
X0087624Y0088270D03*
X0087624Y0088370D03*
X0087624Y0088470D03*
X0087624Y0088570D03*
X0087524Y0088870D03*
X0087524Y0088970D03*
X0087524Y0089070D03*
X0087524Y0089170D03*
X0087524Y0089270D03*
X0087524Y0089370D03*
X0087524Y0089470D03*
X0087524Y0089570D03*
X0087524Y0089670D03*
X0087524Y0089770D03*
X0087524Y0089870D03*
X0087524Y0089970D03*
X0087424Y0090570D03*
X0087424Y0090670D03*
X0087424Y0090770D03*
X0087424Y0090870D03*
X0087424Y0090970D03*
X0087424Y0091070D03*
X0087124Y0093470D03*
X0087124Y0093570D03*
X0086924Y0095270D03*
X0086324Y0096870D03*
X0088824Y0095070D03*
X0090224Y0090770D03*
X0090224Y0090670D03*
X0090324Y0090470D03*
X0090324Y0090370D03*
X0090324Y0090270D03*
X0090424Y0089870D03*
X0090424Y0089770D03*
X0090624Y0087370D03*
X0090624Y0087270D03*
X0090624Y0087170D03*
X0090624Y0087070D03*
X0090624Y0086970D03*
X0090624Y0086870D03*
X0090624Y0086770D03*
X0090624Y0086670D03*
X0090224Y0082670D03*
X0090324Y0079470D03*
X0079824Y0079670D03*
X0076224Y0076570D03*
X0075924Y0077770D03*
X0074024Y0077070D03*
X0074024Y0076970D03*
X0074024Y0076870D03*
X0074024Y0076770D03*
X0074024Y0076670D03*
X0074024Y0076570D03*
X0074024Y0076470D03*
X0072824Y0075970D03*
X0072424Y0076870D03*
X0072324Y0076970D03*
X0072324Y0077070D03*
X0072224Y0077170D03*
X0073824Y0078670D03*
X0073824Y0080070D03*
X0069824Y0080870D03*
X0069824Y0080970D03*
X0069824Y0081070D03*
X0069824Y0081170D03*
X0069824Y0081270D03*
X0069824Y0081370D03*
X0069824Y0081470D03*
X0069824Y0081570D03*
X0069824Y0081670D03*
X0069424Y0079470D03*
X0069324Y0079370D03*
X0069324Y0076070D03*
X0069424Y0075970D03*
X0069124Y0086070D03*
X0069224Y0087570D03*
X0069224Y0087670D03*
X0069224Y0087770D03*
X0069324Y0088970D03*
X0069324Y0089070D03*
X0069324Y0089170D03*
X0069324Y0089270D03*
X0069424Y0090170D03*
X0069424Y0090270D03*
X0069524Y0090570D03*
X0069624Y0090870D03*
X0069724Y0090970D03*
X0072324Y0091070D03*
X0072324Y0090570D03*
X0072324Y0090470D03*
X0072324Y0090370D03*
X0072324Y0090270D03*
X0072324Y0090170D03*
X0072324Y0090070D03*
X0072324Y0089970D03*
X0072324Y0089870D03*
X0072324Y0089770D03*
X0072224Y0089070D03*
X0072224Y0088970D03*
X0072524Y0092370D03*
X0072524Y0092470D03*
X0072524Y0092570D03*
X0072624Y0092670D03*
X0072724Y0093570D03*
X0073424Y0096870D03*
X0077124Y0097370D03*
X0077124Y0096170D03*
X0079524Y0096170D03*
X0080024Y0096570D03*
X0080024Y0096670D03*
X0080524Y0096170D03*
X0083024Y0096170D03*
X0083024Y0097370D03*
X0082024Y0100270D03*
X0082224Y0100470D03*
X0082424Y0100770D03*
X0082724Y0101170D03*
X0077524Y0100570D03*
X0077424Y0100670D03*
X0077324Y0100870D03*
X0077224Y0100970D03*
X0077124Y0101070D03*
X0077024Y0101270D03*
X0076924Y0101370D03*
X0076824Y0101470D03*
X0075724Y0086670D03*
X0079924Y0072870D03*
D33*
X0088724Y0072970D03*
X0088724Y0073770D03*
X0088724Y0073870D03*
X0084524Y0093170D03*
X0075224Y0093170D03*
D34*
X0079874Y0092570D03*
X0079874Y0089270D03*
X0071074Y0073370D03*
X0071074Y0073270D03*
X0071074Y0073170D03*
D35*
X0071074Y0074270D03*
X0088774Y0074070D03*
D36*
X0088774Y0074270D03*
X0071074Y0074370D03*
X0071074Y0074470D03*
D37*
X0079924Y0074970D03*
X0088724Y0074370D03*
X0079924Y0094570D03*
D38*
X0071024Y0074670D03*
X0088724Y0074570D03*
X0088724Y0074470D03*
D39*
X0088674Y0074670D03*
X0071074Y0074770D03*
D40*
X0079874Y0074770D03*
X0079874Y0081070D03*
X0079874Y0086170D03*
D41*
X0071074Y0074870D03*
X0088674Y0074770D03*
D42*
X0088724Y0074870D03*
X0071124Y0074970D03*
X0079924Y0100070D03*
D43*
X0079874Y0089370D03*
X0071174Y0075070D03*
X0088674Y0074970D03*
D44*
X0088674Y0075070D03*
X0071174Y0075170D03*
X0071174Y0075270D03*
D45*
X0079874Y0075170D03*
X0079874Y0089970D03*
X0079874Y0090970D03*
D46*
X0074524Y0093970D03*
X0079524Y0100270D03*
X0085224Y0093970D03*
X0088624Y0075170D03*
D47*
X0088774Y0079970D03*
X0079874Y0080770D03*
X0076674Y0075270D03*
X0071474Y0091570D03*
X0073674Y0092970D03*
D48*
X0072074Y0095370D03*
X0072074Y0097270D03*
X0087774Y0097270D03*
X0087674Y0095370D03*
X0082974Y0075270D03*
X0076074Y0075370D03*
D49*
X0071224Y0075470D03*
X0071124Y0075870D03*
X0079924Y0081870D03*
X0079924Y0081970D03*
X0079924Y0082070D03*
X0079924Y0082170D03*
X0079924Y0082270D03*
X0079924Y0082370D03*
X0079924Y0083070D03*
X0079924Y0083170D03*
X0079924Y0083270D03*
X0079924Y0083370D03*
X0079924Y0083470D03*
X0079924Y0083570D03*
X0079924Y0083670D03*
X0079924Y0083770D03*
X0079924Y0083870D03*
X0079924Y0083970D03*
X0079924Y0084070D03*
X0079924Y0084170D03*
X0079924Y0084270D03*
X0079924Y0084370D03*
X0079924Y0084470D03*
X0085924Y0087070D03*
X0088624Y0075370D03*
X0088624Y0075270D03*
D50*
X0085874Y0086970D03*
X0071174Y0075370D03*
D51*
X0083574Y0075370D03*
X0073374Y0092870D03*
X0072174Y0095470D03*
X0087574Y0095470D03*
D52*
X0075724Y0075470D03*
X0075424Y0075570D03*
D53*
X0080974Y0082470D03*
X0080974Y0082970D03*
X0084074Y0075470D03*
X0073174Y0091770D03*
X0073374Y0093770D03*
X0072074Y0097370D03*
X0087774Y0097370D03*
D54*
X0079924Y0091370D03*
X0086024Y0087270D03*
X0079924Y0085470D03*
X0079924Y0081470D03*
X0088624Y0075870D03*
X0088624Y0075770D03*
X0088624Y0075670D03*
X0088624Y0075570D03*
X0088624Y0075470D03*
X0071224Y0075570D03*
X0071124Y0075770D03*
D55*
X0084324Y0075570D03*
D56*
X0079874Y0081370D03*
X0079874Y0085570D03*
X0073774Y0087170D03*
X0079874Y0092670D03*
X0085574Y0093070D03*
X0071174Y0075670D03*
D57*
X0074124Y0077870D03*
X0074924Y0075670D03*
X0079824Y0078470D03*
X0079824Y0078570D03*
X0079824Y0078670D03*
X0078724Y0082470D03*
X0078724Y0082570D03*
X0078724Y0082670D03*
X0078724Y0082770D03*
X0078724Y0084770D03*
X0078824Y0085270D03*
X0079924Y0086670D03*
X0084524Y0086770D03*
X0089724Y0082570D03*
X0087124Y0078370D03*
X0086324Y0076170D03*
X0086324Y0076070D03*
X0080024Y0096270D03*
D58*
X0078274Y0099870D03*
X0083574Y0101870D03*
X0087074Y0091670D03*
X0082474Y0089770D03*
X0081474Y0087770D03*
X0078374Y0087770D03*
X0072874Y0092770D03*
X0072974Y0093670D03*
X0073874Y0079870D03*
X0073874Y0078870D03*
X0072474Y0078570D03*
X0071074Y0077570D03*
X0079774Y0078170D03*
X0085174Y0075770D03*
X0085474Y0075870D03*
X0085774Y0075970D03*
X0086474Y0078170D03*
X0088774Y0078170D03*
X0088774Y0078270D03*
X0088774Y0077670D03*
X0088774Y0077570D03*
D59*
X0086374Y0076270D03*
X0085774Y0077870D03*
X0085974Y0079370D03*
X0085974Y0079470D03*
X0079874Y0079270D03*
X0079874Y0079170D03*
X0078674Y0084870D03*
X0078674Y0084970D03*
X0078674Y0085070D03*
X0078774Y0085170D03*
X0075174Y0086870D03*
X0072674Y0078370D03*
X0074274Y0075870D03*
X0088274Y0095270D03*
D60*
X0086424Y0093770D03*
X0086524Y0092870D03*
X0086724Y0091770D03*
X0080924Y0085370D03*
X0080924Y0084770D03*
X0081024Y0082870D03*
X0081024Y0082770D03*
X0081024Y0082670D03*
X0081024Y0082570D03*
X0079924Y0080670D03*
X0074424Y0077770D03*
X0073424Y0076370D03*
X0073524Y0076070D03*
X0085424Y0077770D03*
X0087024Y0078270D03*
X0072424Y0095570D03*
D61*
X0071074Y0095170D03*
X0073374Y0096970D03*
X0078374Y0099770D03*
X0079874Y0099770D03*
X0079874Y0099870D03*
X0079874Y0099970D03*
X0081274Y0099770D03*
X0076174Y0101970D03*
X0086474Y0096970D03*
X0079974Y0086770D03*
X0073874Y0079970D03*
X0073874Y0078770D03*
X0072774Y0076570D03*
X0086874Y0076470D03*
X0088774Y0078370D03*
D62*
X0085974Y0080070D03*
X0083874Y0077770D03*
X0079774Y0078070D03*
X0083874Y0084270D03*
X0083874Y0084370D03*
X0083874Y0084470D03*
X0083874Y0084570D03*
X0083874Y0084670D03*
X0083874Y0084770D03*
X0083874Y0084870D03*
X0083874Y0084970D03*
X0083874Y0085070D03*
X0083874Y0085170D03*
X0083874Y0085270D03*
X0083874Y0085370D03*
X0083874Y0085470D03*
X0083874Y0085570D03*
X0083974Y0086570D03*
X0084074Y0086670D03*
X0087574Y0087470D03*
X0087574Y0088670D03*
X0087574Y0088770D03*
X0090074Y0090970D03*
X0081174Y0099370D03*
X0081174Y0099470D03*
X0081174Y0099570D03*
X0079874Y0099570D03*
X0079874Y0099470D03*
X0078474Y0099470D03*
X0078474Y0099370D03*
X0070974Y0095070D03*
X0075674Y0086770D03*
X0072274Y0078770D03*
X0072474Y0076770D03*
D63*
X0070824Y0079570D03*
X0070824Y0079670D03*
X0070824Y0082570D03*
X0079924Y0076870D03*
X0084424Y0077570D03*
X0088724Y0091170D03*
X0087524Y0097070D03*
X0087424Y0097170D03*
X0072324Y0097170D03*
D64*
X0079874Y0093570D03*
X0079874Y0077070D03*
D65*
X0079824Y0077170D03*
D66*
X0079874Y0077270D03*
D67*
X0076524Y0077370D03*
X0075624Y0077470D03*
X0079924Y0085670D03*
D68*
X0079924Y0086070D03*
X0086224Y0087370D03*
X0083124Y0077370D03*
D69*
X0084074Y0077470D03*
X0079874Y0081570D03*
X0079874Y0081670D03*
X0079874Y0081770D03*
X0079874Y0084570D03*
X0079874Y0084670D03*
X0085974Y0087170D03*
X0073874Y0087070D03*
X0073874Y0086970D03*
X0074174Y0091970D03*
X0074274Y0093070D03*
D70*
X0079924Y0093770D03*
X0086124Y0092970D03*
X0088324Y0091570D03*
X0079924Y0086470D03*
X0084824Y0077670D03*
X0074924Y0077670D03*
D71*
X0088874Y0078570D03*
X0070774Y0094870D03*
X0079874Y0099270D03*
X0084574Y0100270D03*
X0084674Y0099970D03*
X0084674Y0099870D03*
X0084774Y0099670D03*
D72*
X0088624Y0091370D03*
X0079924Y0086270D03*
X0088924Y0082470D03*
X0070924Y0082370D03*
X0070924Y0079770D03*
X0071224Y0091370D03*
D73*
X0071274Y0091470D03*
X0079874Y0086370D03*
X0079874Y0080870D03*
X0070974Y0079870D03*
X0088874Y0079770D03*
X0088874Y0082370D03*
X0079874Y0100370D03*
D74*
X0088524Y0091470D03*
X0085224Y0086870D03*
X0088824Y0082270D03*
X0088824Y0082170D03*
X0088824Y0079870D03*
X0071024Y0079970D03*
X0071024Y0082170D03*
X0071024Y0082270D03*
D75*
X0073674Y0087270D03*
X0079874Y0085970D03*
X0079874Y0085870D03*
X0079874Y0085770D03*
X0079874Y0081270D03*
X0079874Y0081170D03*
X0085774Y0091970D03*
D76*
X0089174Y0091070D03*
X0073674Y0093870D03*
X0071974Y0095270D03*
X0073174Y0087370D03*
D77*
X0079924Y0087970D03*
D78*
X0079924Y0088070D03*
D79*
X0079974Y0088170D03*
X0079874Y0088970D03*
X0079874Y0094470D03*
D80*
X0079824Y0089870D03*
X0079924Y0088270D03*
D81*
X0079924Y0088370D03*
X0079924Y0088470D03*
X0079924Y0088570D03*
X0079924Y0088670D03*
X0079924Y0088770D03*
X0079824Y0091070D03*
D82*
X0079874Y0088870D03*
D83*
X0079874Y0089070D03*
D84*
X0079874Y0089170D03*
D85*
X0079874Y0090070D03*
X0079874Y0090870D03*
D86*
X0079874Y0090770D03*
X0079874Y0090670D03*
X0079874Y0090170D03*
X0079874Y0092470D03*
D87*
X0079924Y0090570D03*
X0079924Y0090370D03*
X0079924Y0090270D03*
D88*
X0079874Y0090470D03*
D89*
X0079824Y0091170D03*
D90*
X0079874Y0092170D03*
D91*
X0079824Y0092270D03*
X0079924Y0094270D03*
D92*
X0079874Y0092370D03*
D93*
X0079824Y0093270D03*
D94*
X0079874Y0093370D03*
D95*
X0079924Y0093470D03*
D96*
X0074924Y0094070D03*
X0079924Y0100170D03*
X0084924Y0094070D03*
D97*
X0079924Y0094170D03*
D98*
X0079924Y0094370D03*
D99*
X0079424Y0095970D03*
X0080624Y0095970D03*
X0080024Y0097170D03*
X0081224Y0099170D03*
D100*
X0103961Y0095300D02*
X0103961Y0107700D01*
X0116361Y0107700D02*
X0116361Y0095300D01*
X0111642Y0069348D02*
X0111642Y0065148D01*
X0105925Y0065148D02*
X0105925Y0069348D01*
X0093925Y0069348D02*
X0093925Y0068448D01*
X0093925Y0066048D01*
X0093925Y0065148D01*
X0093925Y0066048D02*
X0093994Y0066050D01*
X0094062Y0066056D01*
X0094130Y0066066D01*
X0094197Y0066079D01*
X0094263Y0066097D01*
X0094328Y0066118D01*
X0094392Y0066143D01*
X0094454Y0066171D01*
X0094515Y0066203D01*
X0094574Y0066238D01*
X0094630Y0066277D01*
X0094685Y0066319D01*
X0094736Y0066364D01*
X0094786Y0066412D01*
X0094832Y0066462D01*
X0094875Y0066515D01*
X0094916Y0066571D01*
X0094953Y0066628D01*
X0094986Y0066688D01*
X0095017Y0066750D01*
X0095043Y0066813D01*
X0095066Y0066877D01*
X0095086Y0066943D01*
X0095101Y0067010D01*
X0095113Y0067077D01*
X0095121Y0067145D01*
X0095125Y0067214D01*
X0095125Y0067282D01*
X0095121Y0067351D01*
X0095113Y0067419D01*
X0095101Y0067486D01*
X0095086Y0067553D01*
X0095066Y0067619D01*
X0095043Y0067683D01*
X0095017Y0067746D01*
X0094986Y0067808D01*
X0094953Y0067868D01*
X0094916Y0067925D01*
X0094875Y0067981D01*
X0094832Y0068034D01*
X0094786Y0068084D01*
X0094736Y0068132D01*
X0094685Y0068177D01*
X0094630Y0068219D01*
X0094574Y0068258D01*
X0094515Y0068293D01*
X0094454Y0068325D01*
X0094392Y0068353D01*
X0094328Y0068378D01*
X0094263Y0068399D01*
X0094197Y0068417D01*
X0094130Y0068430D01*
X0094062Y0068440D01*
X0093994Y0068446D01*
X0093925Y0068448D01*
X0066791Y0061780D02*
X0066791Y0057980D01*
X0066791Y0061780D02*
X0063191Y0061780D01*
X0058391Y0061780D02*
X0054791Y0061780D01*
X0054791Y0057980D01*
X0059491Y0056180D02*
X0062091Y0056180D01*
X0045589Y0092844D02*
X0045589Y0095044D01*
X0045589Y0102444D02*
X0045589Y0104644D01*
X0033789Y0104644D02*
X0033789Y0102444D01*
X0033789Y0095044D02*
X0033789Y0092844D01*
X0030889Y0125695D02*
X0026889Y0125695D01*
X0026889Y0152895D01*
X0030889Y0152895D01*
X0048489Y0152895D02*
X0052489Y0152895D01*
X0052489Y0125695D01*
X0048489Y0125695D01*
X0048489Y0128095D02*
X0052489Y0132095D01*
X0072372Y0140876D02*
X0074572Y0140876D01*
X0081972Y0140876D02*
X0084172Y0140876D01*
X0084172Y0152676D02*
X0081972Y0152676D01*
X0074572Y0152676D02*
X0072372Y0152676D01*
X0030889Y0128095D02*
X0026889Y0132095D01*
X0123642Y0069348D02*
X0123642Y0068448D01*
X0123642Y0066048D01*
X0123642Y0065148D01*
X0123642Y0066048D02*
X0123573Y0066050D01*
X0123505Y0066056D01*
X0123437Y0066066D01*
X0123370Y0066079D01*
X0123304Y0066097D01*
X0123239Y0066118D01*
X0123175Y0066143D01*
X0123113Y0066171D01*
X0123052Y0066203D01*
X0122993Y0066238D01*
X0122937Y0066277D01*
X0122882Y0066319D01*
X0122831Y0066364D01*
X0122781Y0066412D01*
X0122735Y0066462D01*
X0122692Y0066515D01*
X0122651Y0066571D01*
X0122614Y0066628D01*
X0122581Y0066688D01*
X0122550Y0066750D01*
X0122524Y0066813D01*
X0122501Y0066877D01*
X0122481Y0066943D01*
X0122466Y0067010D01*
X0122454Y0067077D01*
X0122446Y0067145D01*
X0122442Y0067214D01*
X0122442Y0067282D01*
X0122446Y0067351D01*
X0122454Y0067419D01*
X0122466Y0067486D01*
X0122481Y0067553D01*
X0122501Y0067619D01*
X0122524Y0067683D01*
X0122550Y0067746D01*
X0122581Y0067808D01*
X0122614Y0067868D01*
X0122651Y0067925D01*
X0122692Y0067981D01*
X0122735Y0068034D01*
X0122781Y0068084D01*
X0122831Y0068132D01*
X0122882Y0068177D01*
X0122937Y0068219D01*
X0122993Y0068258D01*
X0123052Y0068293D01*
X0123113Y0068325D01*
X0123175Y0068353D01*
X0123239Y0068378D01*
X0123304Y0068399D01*
X0123370Y0068417D01*
X0123437Y0068430D01*
X0123505Y0068440D01*
X0123573Y0068446D01*
X0123642Y0068448D01*
X0144025Y0070554D02*
X0144025Y0072754D01*
X0144025Y0063154D02*
X0144025Y0060954D01*
X0154768Y0053370D02*
X0157268Y0055870D01*
X0162268Y0055870D01*
X0164768Y0053370D01*
X0164768Y0048370D01*
X0162268Y0045870D01*
X0164768Y0043370D01*
X0164768Y0038370D01*
X0162268Y0035870D01*
X0164768Y0033370D01*
X0164768Y0028370D01*
X0162268Y0025870D01*
X0157268Y0025870D01*
X0154768Y0028370D01*
X0154768Y0033370D01*
X0157268Y0035870D01*
X0154768Y0038370D01*
X0154768Y0043370D01*
X0157268Y0045870D01*
X0154768Y0048370D01*
X0154768Y0053370D01*
X0157268Y0045870D02*
X0162268Y0045870D01*
X0162268Y0035870D02*
X0157268Y0035870D01*
X0145757Y0032408D02*
X0137557Y0032408D01*
X0137557Y0044608D02*
X0145757Y0044608D01*
X0155825Y0060954D02*
X0155825Y0063154D01*
X0155825Y0070554D02*
X0155825Y0072754D01*
X0155825Y0086151D02*
X0155825Y0088351D01*
X0155825Y0095751D02*
X0155825Y0097951D01*
X0144025Y0097951D02*
X0144025Y0095751D01*
X0144025Y0088351D02*
X0144025Y0086151D01*
X0140836Y0115364D02*
X0140836Y0117564D01*
X0140836Y0124964D02*
X0140836Y0127164D01*
X0152636Y0127164D02*
X0152636Y0124964D01*
X0152636Y0117564D02*
X0152636Y0115364D01*
D101*
X0157263Y0088730D02*
X0158013Y0088730D01*
X0159515Y0087228D01*
X0161767Y0087228D01*
X0159515Y0087228D02*
X0158013Y0085727D01*
X0157263Y0085727D01*
X0158013Y0084126D02*
X0159515Y0084126D01*
X0160265Y0083375D01*
X0160265Y0081123D01*
X0160265Y0082624D02*
X0161767Y0084126D01*
X0161767Y0081123D02*
X0157263Y0081123D01*
X0157263Y0083375D01*
X0158013Y0084126D01*
X0157263Y0079522D02*
X0157263Y0076519D01*
X0161767Y0076519D01*
X0161767Y0079522D01*
X0159515Y0078021D02*
X0159515Y0076519D01*
X0157263Y0074918D02*
X0157263Y0071915D01*
X0157263Y0073417D02*
X0161767Y0073417D01*
X0157263Y0070314D02*
X0157263Y0067311D01*
X0157263Y0068813D02*
X0161767Y0068813D01*
X0161767Y0065710D02*
X0158764Y0065710D01*
X0157263Y0064209D01*
X0158764Y0062707D01*
X0161767Y0062707D01*
X0161016Y0061106D02*
X0160265Y0061106D01*
X0159515Y0060355D01*
X0159515Y0058104D01*
X0159515Y0060355D02*
X0158764Y0061106D01*
X0158013Y0061106D01*
X0157263Y0060355D01*
X0157263Y0058104D01*
X0161767Y0058104D01*
X0161767Y0060355D01*
X0161016Y0061106D01*
X0159515Y0062707D02*
X0159515Y0065710D01*
D102*
X0152483Y0058919D02*
X0150123Y0058919D01*
X0150123Y0057149D01*
X0151303Y0057739D01*
X0151893Y0057739D01*
X0152483Y0057149D01*
X0152483Y0055969D01*
X0151893Y0055379D01*
X0150713Y0055379D01*
X0150123Y0055969D01*
X0148858Y0055969D02*
X0148858Y0058919D01*
X0148858Y0055969D02*
X0148268Y0055379D01*
X0147088Y0055379D01*
X0146498Y0055969D01*
X0146498Y0058919D01*
X0120202Y0066070D02*
X0119612Y0065480D01*
X0118432Y0065480D01*
X0117842Y0066070D01*
X0117842Y0066660D01*
X0118432Y0067250D01*
X0119612Y0067250D01*
X0120202Y0066660D01*
X0120202Y0066070D01*
X0119612Y0067250D02*
X0120202Y0067840D01*
X0120202Y0068430D01*
X0119612Y0069020D01*
X0118432Y0069020D01*
X0117842Y0068430D01*
X0117842Y0067840D01*
X0118432Y0067250D01*
X0116577Y0066070D02*
X0116577Y0069020D01*
X0116577Y0066070D02*
X0115987Y0065480D01*
X0114807Y0065480D01*
X0114217Y0066070D01*
X0114217Y0069020D01*
X0092643Y0069020D02*
X0092643Y0068430D01*
X0090283Y0066070D01*
X0090283Y0065480D01*
X0089018Y0066070D02*
X0089018Y0069020D01*
X0090283Y0069020D02*
X0092643Y0069020D01*
X0089018Y0066070D02*
X0088428Y0065480D01*
X0087248Y0065480D01*
X0086658Y0066070D01*
X0086658Y0069020D01*
X0065474Y0067680D02*
X0063114Y0067680D01*
X0064294Y0067680D02*
X0064294Y0071220D01*
X0063114Y0070040D01*
X0061849Y0070630D02*
X0061259Y0071220D01*
X0060079Y0071220D01*
X0059489Y0070630D01*
X0059489Y0070040D01*
X0060079Y0069450D01*
X0061259Y0069450D01*
X0061849Y0068860D01*
X0061849Y0068270D01*
X0061259Y0067680D01*
X0060079Y0067680D01*
X0059489Y0068270D01*
X0058224Y0068270D02*
X0058224Y0071220D01*
X0055864Y0071220D02*
X0055864Y0068270D01*
X0056454Y0067680D01*
X0057634Y0067680D01*
X0058224Y0068270D01*
X0060669Y0067090D02*
X0060669Y0071810D01*
X0047490Y0086861D02*
X0045130Y0086861D01*
X0046310Y0086861D02*
X0046310Y0090401D01*
X0045130Y0089221D01*
X0043865Y0090401D02*
X0043865Y0087451D01*
X0043275Y0086861D01*
X0042095Y0086861D01*
X0041505Y0087451D01*
X0041505Y0090401D01*
X0075559Y0136073D02*
X0076739Y0136073D01*
X0077329Y0136663D01*
X0077329Y0139613D01*
X0078594Y0139023D02*
X0079184Y0139613D01*
X0080364Y0139613D01*
X0080955Y0139023D01*
X0080955Y0138433D01*
X0078594Y0136073D01*
X0080955Y0136073D01*
X0075559Y0136073D02*
X0074969Y0136663D01*
X0074969Y0139613D01*
X0042140Y0139914D02*
X0042140Y0140504D01*
X0041550Y0141094D01*
X0040370Y0141094D01*
X0039780Y0140504D01*
X0042140Y0139914D02*
X0039780Y0137554D01*
X0042140Y0137554D01*
X0038515Y0137554D02*
X0036155Y0137554D01*
X0036155Y0141094D01*
X0099433Y0103846D02*
X0100023Y0102666D01*
X0101203Y0101486D01*
X0101203Y0103256D01*
X0101793Y0103846D01*
X0102383Y0103846D01*
X0102973Y0103256D01*
X0102973Y0102076D01*
X0102383Y0101486D01*
X0101203Y0101486D01*
X0102383Y0100221D02*
X0099433Y0100221D01*
X0099433Y0097861D02*
X0102383Y0097861D01*
X0102973Y0098451D01*
X0102973Y0099631D01*
X0102383Y0100221D01*
X0133946Y0116151D02*
X0134536Y0115561D01*
X0135716Y0115561D01*
X0136306Y0116151D01*
X0136306Y0119101D01*
X0137571Y0118511D02*
X0138161Y0119101D01*
X0139341Y0119101D01*
X0139931Y0118511D01*
X0139931Y0117921D01*
X0139341Y0117331D01*
X0139931Y0116741D01*
X0139931Y0116151D01*
X0139341Y0115561D01*
X0138161Y0115561D01*
X0137571Y0116151D01*
X0138751Y0117331D02*
X0139341Y0117331D01*
X0133946Y0116151D02*
X0133946Y0119101D01*
X0137049Y0093958D02*
X0137049Y0091008D01*
X0137639Y0090418D01*
X0138819Y0090418D01*
X0139409Y0091008D01*
X0139409Y0093958D01*
X0140674Y0092188D02*
X0143034Y0092188D01*
X0142444Y0090418D02*
X0142444Y0093958D01*
X0140674Y0092188D01*
X0140772Y0029020D02*
X0140772Y0026070D01*
X0140182Y0025480D01*
X0139002Y0025480D01*
X0138412Y0026070D01*
X0138412Y0029020D01*
X0142037Y0028430D02*
X0142037Y0027840D01*
X0142627Y0027250D01*
X0144397Y0027250D01*
X0144397Y0028430D02*
X0143807Y0029020D01*
X0142627Y0029020D01*
X0142037Y0028430D01*
X0144397Y0028430D02*
X0144397Y0026070D01*
X0143807Y0025480D01*
X0142627Y0025480D01*
X0142037Y0026070D01*
X0142117Y0016698D02*
X0140582Y0016698D01*
X0139815Y0015930D01*
X0139815Y0012861D01*
X0140582Y0012094D01*
X0142117Y0012094D01*
X0142884Y0012861D01*
X0144419Y0012094D02*
X0144419Y0016698D01*
X0142884Y0015930D02*
X0142117Y0016698D01*
X0144419Y0014396D02*
X0147488Y0014396D01*
X0147488Y0016698D02*
X0147488Y0012094D01*
X0138280Y0016698D02*
X0135211Y0016698D01*
X0136746Y0016698D02*
X0136746Y0012094D01*
X0133676Y0012094D02*
X0132142Y0012094D01*
X0132909Y0012094D02*
X0132909Y0016698D01*
X0132142Y0016698D02*
X0133676Y0016698D01*
X0130607Y0016698D02*
X0130607Y0012094D01*
X0129072Y0013628D01*
X0127538Y0012094D01*
X0127538Y0016698D01*
X0126003Y0015930D02*
X0125236Y0016698D01*
X0123701Y0016698D01*
X0122934Y0015930D01*
X0122934Y0015163D01*
X0123701Y0014396D01*
X0125236Y0014396D01*
X0126003Y0013628D01*
X0126003Y0012861D01*
X0125236Y0012094D01*
X0123701Y0012094D01*
X0122934Y0012861D01*
D103*
X0138699Y0049565D03*
X0144499Y0049565D03*
X0120956Y0081022D03*
X0115156Y0081022D03*
X0102805Y0081033D03*
X0097005Y0081033D03*
X0079106Y0116494D03*
X0073306Y0116494D03*
X0088737Y0129065D03*
X0094537Y0129065D03*
X0092321Y0150707D03*
X0098121Y0150707D03*
X0151376Y0139289D03*
X0157176Y0139289D03*
X0050443Y0082215D03*
X0044643Y0082215D03*
X0042569Y0073553D03*
X0036769Y0073553D03*
X0034694Y0082215D03*
X0028894Y0082215D03*
D104*
X0139301Y0133660D03*
X0139301Y0139460D03*
D105*
X0137326Y0010752D02*
X0137290Y0010679D01*
X0137249Y0010608D01*
X0137206Y0010538D01*
X0137159Y0010471D01*
X0137109Y0010406D01*
X0137056Y0010344D01*
X0137001Y0010284D01*
X0136942Y0010227D01*
X0136881Y0010172D01*
X0136817Y0010121D01*
X0136751Y0010072D01*
X0136683Y0010027D01*
X0136613Y0009985D01*
X0136541Y0009946D01*
X0136467Y0009910D01*
X0136392Y0009879D01*
X0136315Y0009850D01*
X0136237Y0009826D01*
X0136158Y0009805D01*
X0136078Y0009788D01*
X0135997Y0009774D01*
X0135916Y0009765D01*
X0135834Y0009759D01*
X0135752Y0009757D01*
X0135670Y0009759D01*
X0135588Y0009765D01*
X0135507Y0009774D01*
X0135426Y0009788D01*
X0135346Y0009805D01*
X0135267Y0009826D01*
X0135189Y0009850D01*
X0135112Y0009879D01*
X0135037Y0009910D01*
X0134963Y0009946D01*
X0134891Y0009985D01*
X0134821Y0010027D01*
X0134753Y0010072D01*
X0134687Y0010121D01*
X0134623Y0010172D01*
X0134562Y0010227D01*
X0134503Y0010284D01*
X0134448Y0010344D01*
X0134395Y0010406D01*
X0134345Y0010471D01*
X0134298Y0010538D01*
X0134255Y0010608D01*
X0134214Y0010679D01*
X0134178Y0010752D01*
X0134177Y0010752D02*
X0128272Y0010752D01*
X0128272Y0004059D01*
X0134177Y0004059D01*
X0134178Y0004059D02*
X0134214Y0004132D01*
X0134255Y0004203D01*
X0134298Y0004273D01*
X0134345Y0004340D01*
X0134395Y0004405D01*
X0134448Y0004467D01*
X0134503Y0004527D01*
X0134562Y0004584D01*
X0134623Y0004639D01*
X0134687Y0004690D01*
X0134753Y0004739D01*
X0134821Y0004784D01*
X0134891Y0004826D01*
X0134963Y0004865D01*
X0135037Y0004901D01*
X0135112Y0004932D01*
X0135189Y0004961D01*
X0135267Y0004985D01*
X0135346Y0005006D01*
X0135426Y0005023D01*
X0135507Y0005037D01*
X0135588Y0005046D01*
X0135670Y0005052D01*
X0135752Y0005054D01*
X0135834Y0005052D01*
X0135916Y0005046D01*
X0135997Y0005037D01*
X0136078Y0005023D01*
X0136158Y0005006D01*
X0136237Y0004985D01*
X0136315Y0004961D01*
X0136392Y0004932D01*
X0136467Y0004901D01*
X0136541Y0004865D01*
X0136613Y0004826D01*
X0136683Y0004784D01*
X0136751Y0004739D01*
X0136817Y0004690D01*
X0136881Y0004639D01*
X0136942Y0004584D01*
X0137001Y0004527D01*
X0137056Y0004467D01*
X0137109Y0004405D01*
X0137159Y0004340D01*
X0137206Y0004273D01*
X0137249Y0004203D01*
X0137290Y0004132D01*
X0137326Y0004059D01*
X0137327Y0004059D02*
X0143232Y0004059D01*
X0143232Y0010752D01*
X0137327Y0010752D01*
D106*
X0141491Y0005263D02*
X0142592Y0005263D01*
X0142592Y0004896D02*
X0142592Y0005630D01*
X0141858Y0004896D02*
X0141491Y0005263D01*
M02*
