G75*
%MOIN*%
%OFA0B0*%
%FSLAX25Y25*%
%IPPOS*%
%LPD*%
%AMOC8*
5,1,8,0,0,1.08239X$1,22.5*
%
%ADD10C,0.00000*%
%ADD11C,0.00591*%
%ADD12R,0.03100X0.00100*%
%ADD13R,0.05600X0.00100*%
%ADD14R,0.06000X0.00100*%
%ADD15R,0.06300X0.00100*%
%ADD16R,0.01700X0.00100*%
%ADD17R,0.01400X0.00100*%
%ADD18R,0.00800X0.00100*%
%ADD19R,0.00500X0.00100*%
%ADD20R,0.00400X0.00100*%
%ADD21R,0.01300X0.00100*%
%ADD22R,0.01200X0.00100*%
%ADD23R,0.02400X0.00100*%
%ADD24R,0.05400X0.00100*%
%ADD25R,0.01000X0.00100*%
%ADD26R,0.05100X0.00100*%
%ADD27R,0.05700X0.00100*%
%ADD28R,0.05900X0.00100*%
%ADD29R,0.00600X0.00100*%
%ADD30R,0.05800X0.00100*%
%ADD31R,0.06100X0.00100*%
%ADD32R,0.05500X0.00100*%
%ADD33R,0.05300X0.00100*%
%ADD34R,0.05200X0.00100*%
%ADD35R,0.05000X0.00100*%
%ADD36R,0.04900X0.00100*%
%ADD37R,0.03300X0.00100*%
%ADD38R,0.04700X0.00100*%
%ADD39R,0.04600X0.00100*%
%ADD40R,0.04500X0.00100*%
%ADD41R,0.04300X0.00100*%
%ADD42R,0.07900X0.00100*%
%ADD43R,0.04200X0.00100*%
%ADD44R,0.02700X0.00100*%
%ADD45R,0.02300X0.00100*%
%ADD46R,0.04000X0.00100*%
%ADD47R,0.04100X0.00100*%
%ADD48R,0.02100X0.00100*%
%ADD49R,0.02200X0.00100*%
%ADD50R,0.01900X0.00100*%
%ADD51R,0.03800X0.00100*%
%ADD52R,0.02000X0.00100*%
%ADD53R,0.03700X0.00100*%
%ADD54R,0.01600X0.00100*%
%ADD55R,0.01100X0.00100*%
%ADD56R,0.01500X0.00100*%
%ADD57R,0.01800X0.00100*%
%ADD58R,0.00900X0.00100*%
%ADD59R,0.00700X0.00100*%
%ADD60R,0.03200X0.00100*%
%ADD61R,0.07700X0.00100*%
%ADD62R,0.08600X0.00100*%
%ADD63R,0.09500X0.00100*%
%ADD64R,0.03600X0.00100*%
%ADD65R,0.03400X0.00100*%
%ADD66R,0.03900X0.00100*%
%ADD67R,0.02600X0.00100*%
%ADD68R,0.00300X0.00100*%
%ADD69R,0.03000X0.00100*%
%ADD70R,0.02900X0.00100*%
%ADD71R,0.02800X0.00100*%
%ADD72R,0.03500X0.00100*%
%ADD73R,0.02500X0.00100*%
%ADD74R,0.06600X0.00100*%
%ADD75R,0.07000X0.00100*%
%ADD76R,0.07300X0.00100*%
%ADD77R,0.07400X0.00100*%
%ADD78R,0.07600X0.00100*%
%ADD79R,0.07500X0.00100*%
%ADD80R,0.07100X0.00100*%
%ADD81R,0.06500X0.00100*%
%ADD82R,0.08100X0.00100*%
%ADD83R,0.08300X0.00100*%
%ADD84R,0.08400X0.00100*%
%ADD85R,0.08500X0.00100*%
%ADD86R,0.07200X0.00100*%
%ADD87R,0.13300X0.00100*%
%ADD88R,0.12200X0.00100*%
%ADD89R,0.10500X0.00100*%
%ADD90R,0.13400X0.00100*%
%ADD91R,0.12700X0.00100*%
%ADD92R,0.10000X0.00100*%
%ADD93R,0.04800X0.00100*%
%ADD94R,0.13200X0.00100*%
%ADD95R,0.10600X0.00100*%
%ADD96R,0.00200X0.00100*%
%ADD97C,0.00200*%
%ADD98C,0.00300*%
%ADD99C,0.00600*%
%ADD100C,0.00400*%
%ADD101R,0.02559X0.05512*%
%ADD102R,0.05512X0.02559*%
D10*
X0001500Y0013311D02*
X0001500Y0155043D01*
X0001503Y0155328D01*
X0001514Y0155614D01*
X0001531Y0155899D01*
X0001555Y0156183D01*
X0001586Y0156467D01*
X0001624Y0156750D01*
X0001669Y0157031D01*
X0001720Y0157312D01*
X0001778Y0157592D01*
X0001843Y0157870D01*
X0001915Y0158146D01*
X0001993Y0158420D01*
X0002078Y0158693D01*
X0002170Y0158963D01*
X0002268Y0159231D01*
X0002372Y0159497D01*
X0002483Y0159760D01*
X0002600Y0160020D01*
X0002723Y0160278D01*
X0002853Y0160532D01*
X0002989Y0160783D01*
X0003130Y0161031D01*
X0003278Y0161275D01*
X0003431Y0161516D01*
X0003591Y0161752D01*
X0003756Y0161985D01*
X0003926Y0162214D01*
X0004102Y0162439D01*
X0004284Y0162659D01*
X0004470Y0162875D01*
X0004662Y0163086D01*
X0004859Y0163293D01*
X0005061Y0163495D01*
X0005268Y0163692D01*
X0005479Y0163884D01*
X0005695Y0164070D01*
X0005915Y0164252D01*
X0006140Y0164428D01*
X0006369Y0164598D01*
X0006602Y0164763D01*
X0006838Y0164923D01*
X0007079Y0165076D01*
X0007323Y0165224D01*
X0007571Y0165365D01*
X0007822Y0165501D01*
X0008076Y0165631D01*
X0008334Y0165754D01*
X0008594Y0165871D01*
X0008857Y0165982D01*
X0009123Y0166086D01*
X0009391Y0166184D01*
X0009661Y0166276D01*
X0009934Y0166361D01*
X0010208Y0166439D01*
X0010484Y0166511D01*
X0010762Y0166576D01*
X0011042Y0166634D01*
X0011323Y0166685D01*
X0011604Y0166730D01*
X0011887Y0166768D01*
X0012171Y0166799D01*
X0012455Y0166823D01*
X0012740Y0166840D01*
X0013026Y0166851D01*
X0013311Y0166854D01*
X0155043Y0166854D01*
X0155328Y0166851D01*
X0155614Y0166840D01*
X0155899Y0166823D01*
X0156183Y0166799D01*
X0156467Y0166768D01*
X0156750Y0166730D01*
X0157031Y0166685D01*
X0157312Y0166634D01*
X0157592Y0166576D01*
X0157870Y0166511D01*
X0158146Y0166439D01*
X0158420Y0166361D01*
X0158693Y0166276D01*
X0158963Y0166184D01*
X0159231Y0166086D01*
X0159497Y0165982D01*
X0159760Y0165871D01*
X0160020Y0165754D01*
X0160278Y0165631D01*
X0160532Y0165501D01*
X0160783Y0165365D01*
X0161031Y0165224D01*
X0161275Y0165076D01*
X0161516Y0164923D01*
X0161752Y0164763D01*
X0161985Y0164598D01*
X0162214Y0164428D01*
X0162439Y0164252D01*
X0162659Y0164070D01*
X0162875Y0163884D01*
X0163086Y0163692D01*
X0163293Y0163495D01*
X0163495Y0163293D01*
X0163692Y0163086D01*
X0163884Y0162875D01*
X0164070Y0162659D01*
X0164252Y0162439D01*
X0164428Y0162214D01*
X0164598Y0161985D01*
X0164763Y0161752D01*
X0164923Y0161516D01*
X0165076Y0161275D01*
X0165224Y0161031D01*
X0165365Y0160783D01*
X0165501Y0160532D01*
X0165631Y0160278D01*
X0165754Y0160020D01*
X0165871Y0159760D01*
X0165982Y0159497D01*
X0166086Y0159231D01*
X0166184Y0158963D01*
X0166276Y0158693D01*
X0166361Y0158420D01*
X0166439Y0158146D01*
X0166511Y0157870D01*
X0166576Y0157592D01*
X0166634Y0157312D01*
X0166685Y0157031D01*
X0166730Y0156750D01*
X0166768Y0156467D01*
X0166799Y0156183D01*
X0166823Y0155899D01*
X0166840Y0155614D01*
X0166851Y0155328D01*
X0166854Y0155043D01*
X0166854Y0013311D01*
X0166851Y0013026D01*
X0166840Y0012740D01*
X0166823Y0012455D01*
X0166799Y0012171D01*
X0166768Y0011887D01*
X0166730Y0011604D01*
X0166685Y0011323D01*
X0166634Y0011042D01*
X0166576Y0010762D01*
X0166511Y0010484D01*
X0166439Y0010208D01*
X0166361Y0009934D01*
X0166276Y0009661D01*
X0166184Y0009391D01*
X0166086Y0009123D01*
X0165982Y0008857D01*
X0165871Y0008594D01*
X0165754Y0008334D01*
X0165631Y0008076D01*
X0165501Y0007822D01*
X0165365Y0007571D01*
X0165224Y0007323D01*
X0165076Y0007079D01*
X0164923Y0006838D01*
X0164763Y0006602D01*
X0164598Y0006369D01*
X0164428Y0006140D01*
X0164252Y0005915D01*
X0164070Y0005695D01*
X0163884Y0005479D01*
X0163692Y0005268D01*
X0163495Y0005061D01*
X0163293Y0004859D01*
X0163086Y0004662D01*
X0162875Y0004470D01*
X0162659Y0004284D01*
X0162439Y0004102D01*
X0162214Y0003926D01*
X0161985Y0003756D01*
X0161752Y0003591D01*
X0161516Y0003431D01*
X0161275Y0003278D01*
X0161031Y0003130D01*
X0160783Y0002989D01*
X0160532Y0002853D01*
X0160278Y0002723D01*
X0160020Y0002600D01*
X0159760Y0002483D01*
X0159497Y0002372D01*
X0159231Y0002268D01*
X0158963Y0002170D01*
X0158693Y0002078D01*
X0158420Y0001993D01*
X0158146Y0001915D01*
X0157870Y0001843D01*
X0157592Y0001778D01*
X0157312Y0001720D01*
X0157031Y0001669D01*
X0156750Y0001624D01*
X0156467Y0001586D01*
X0156183Y0001555D01*
X0155899Y0001531D01*
X0155614Y0001514D01*
X0155328Y0001503D01*
X0155043Y0001500D01*
X0013311Y0001500D01*
X0013026Y0001503D01*
X0012740Y0001514D01*
X0012455Y0001531D01*
X0012171Y0001555D01*
X0011887Y0001586D01*
X0011604Y0001624D01*
X0011323Y0001669D01*
X0011042Y0001720D01*
X0010762Y0001778D01*
X0010484Y0001843D01*
X0010208Y0001915D01*
X0009934Y0001993D01*
X0009661Y0002078D01*
X0009391Y0002170D01*
X0009123Y0002268D01*
X0008857Y0002372D01*
X0008594Y0002483D01*
X0008334Y0002600D01*
X0008076Y0002723D01*
X0007822Y0002853D01*
X0007571Y0002989D01*
X0007323Y0003130D01*
X0007079Y0003278D01*
X0006838Y0003431D01*
X0006602Y0003591D01*
X0006369Y0003756D01*
X0006140Y0003926D01*
X0005915Y0004102D01*
X0005695Y0004284D01*
X0005479Y0004470D01*
X0005268Y0004662D01*
X0005061Y0004859D01*
X0004859Y0005061D01*
X0004662Y0005268D01*
X0004470Y0005479D01*
X0004284Y0005695D01*
X0004102Y0005915D01*
X0003926Y0006140D01*
X0003756Y0006369D01*
X0003591Y0006602D01*
X0003431Y0006838D01*
X0003278Y0007079D01*
X0003130Y0007323D01*
X0002989Y0007571D01*
X0002853Y0007822D01*
X0002723Y0008076D01*
X0002600Y0008334D01*
X0002483Y0008594D01*
X0002372Y0008857D01*
X0002268Y0009123D01*
X0002170Y0009391D01*
X0002078Y0009661D01*
X0001993Y0009934D01*
X0001915Y0010208D01*
X0001843Y0010484D01*
X0001778Y0010762D01*
X0001720Y0011042D01*
X0001669Y0011323D01*
X0001624Y0011604D01*
X0001586Y0011887D01*
X0001555Y0012171D01*
X0001531Y0012455D01*
X0001514Y0012740D01*
X0001503Y0013026D01*
X0001500Y0013311D01*
D11*
X0035752Y0018035D02*
X0035752Y0040083D01*
X0128272Y0040083D01*
X0134177Y0045594D02*
X0134177Y0053469D01*
X0149531Y0053469D01*
X0149531Y0045594D01*
X0147563Y0045594D01*
X0147563Y0040476D01*
X0135752Y0040476D01*
X0135752Y0045594D01*
X0134177Y0045594D01*
X0135752Y0045594D02*
X0147563Y0045594D01*
X0134571Y0053075D02*
X0134571Y0059768D01*
X0132996Y0059768D01*
X0125122Y0059768D01*
X0125122Y0053075D01*
X0134571Y0053075D01*
X0132996Y0059768D02*
X0132996Y0075122D01*
X0125122Y0075122D01*
X0125122Y0059768D01*
X0134177Y0078272D02*
X0142051Y0078272D01*
X0142051Y0084571D01*
X0134177Y0084571D01*
X0134177Y0078272D01*
X0134177Y0084571D02*
X0134177Y0099531D01*
X0142051Y0099531D01*
X0142051Y0084571D01*
X0155831Y0087720D02*
X0155831Y0103469D01*
X0155831Y0108980D01*
X0163705Y0108980D01*
X0163705Y0103469D01*
X0163705Y0087720D01*
X0155831Y0087720D01*
X0155831Y0103469D02*
X0163705Y0103469D01*
X0145201Y0123154D02*
X0145201Y0128665D01*
X0143232Y0128665D01*
X0135358Y0128665D01*
X0133390Y0128665D01*
X0133390Y0123154D01*
X0145201Y0123154D01*
X0143232Y0128665D02*
X0143232Y0144020D01*
X0135358Y0144020D01*
X0135358Y0128665D01*
X0134177Y0139295D02*
X0126303Y0139295D01*
X0126303Y0144807D01*
X0129059Y0144807D01*
X0129059Y0152681D01*
X0144807Y0152681D01*
X0144807Y0144807D01*
X0134177Y0144807D01*
X0134177Y0139295D01*
X0134177Y0144807D02*
X0129059Y0144807D01*
X0146382Y0143232D02*
X0146382Y0135358D01*
X0162130Y0135358D01*
X0162130Y0132996D01*
X0166461Y0132996D01*
X0162130Y0135358D02*
X0162130Y0143232D01*
X0162130Y0145594D01*
X0166461Y0145594D01*
X0162130Y0143232D02*
X0146382Y0143232D01*
X0118035Y0119610D02*
X0118035Y0114098D01*
X0118035Y0110949D01*
X0112130Y0105043D01*
X0102287Y0105043D01*
X0102287Y0114886D01*
X0094413Y0114886D01*
X0094413Y0119610D01*
X0101894Y0119610D01*
X0102287Y0119610D02*
X0102287Y0114886D01*
X0102287Y0119610D02*
X0112524Y0119610D01*
X0118035Y0114098D01*
X0118035Y0110949D02*
X0118035Y0105043D01*
X0112130Y0105043D01*
X0112524Y0119610D02*
X0118035Y0119610D01*
X0081421Y0105831D02*
X0081421Y0097957D01*
X0077484Y0094807D01*
X0077484Y0102681D01*
X0081421Y0105831D01*
X0073941Y0105831D01*
X0070004Y0102681D01*
X0077484Y0102681D01*
X0070004Y0102681D02*
X0070004Y0094807D01*
X0077484Y0094807D01*
X0084177Y0075122D02*
X0084177Y0059374D01*
X0084177Y0054256D01*
X0092051Y0054256D01*
X0092051Y0059374D01*
X0084177Y0059374D01*
X0092051Y0059374D02*
X0092051Y0075122D01*
X0084177Y0075122D01*
X0047563Y0078272D02*
X0046382Y0078272D01*
X0046382Y0072760D01*
X0033783Y0072760D01*
X0033783Y0078272D01*
X0031815Y0078272D01*
X0031815Y0086146D01*
X0047563Y0086146D01*
X0047563Y0078272D01*
X0046382Y0078272D02*
X0033783Y0078272D01*
X0133783Y0031421D02*
X0133783Y0023547D01*
X0136146Y0023547D01*
X0136146Y0018429D01*
X0147563Y0018429D01*
X0147563Y0023547D01*
X0149531Y0023547D01*
X0149531Y0031421D01*
X0133783Y0031421D01*
X0136146Y0023547D02*
X0147563Y0023547D01*
D12*
X0030200Y0039000D03*
X0030200Y0039100D03*
X0021100Y0040400D03*
X0016500Y0037000D03*
X0012100Y0041900D03*
X0012300Y0050600D03*
X0012400Y0050700D03*
X0013500Y0056500D03*
X0029900Y0050700D03*
X0021100Y0030900D03*
D13*
X0021150Y0031000D03*
X0029950Y0032200D03*
X0012250Y0033500D03*
X0012250Y0033600D03*
D14*
X0012250Y0033200D03*
X0012250Y0033100D03*
X0012250Y0033000D03*
X0012250Y0032900D03*
X0012250Y0032500D03*
X0012250Y0032400D03*
X0021150Y0031100D03*
X0029950Y0032500D03*
X0029950Y0032600D03*
X0029950Y0032700D03*
X0029950Y0032800D03*
X0029950Y0032900D03*
X0029950Y0033000D03*
X0021250Y0047300D03*
X0021150Y0053100D03*
D15*
X0021100Y0050700D03*
X0021100Y0034500D03*
X0021100Y0031200D03*
D16*
X0018700Y0031300D03*
X0023500Y0031300D03*
X0021100Y0038200D03*
X0021100Y0038300D03*
X0021100Y0038400D03*
X0021100Y0038500D03*
X0020000Y0042300D03*
X0020000Y0042400D03*
X0020100Y0044800D03*
X0022200Y0044700D03*
X0022200Y0044600D03*
X0022200Y0044500D03*
X0022200Y0044400D03*
X0022200Y0044300D03*
X0018700Y0049200D03*
X0028600Y0055000D03*
X0014000Y0037700D03*
X0014700Y0035700D03*
X0014700Y0035600D03*
D17*
X0015250Y0035400D03*
X0015050Y0038600D03*
X0015050Y0038700D03*
X0015050Y0038800D03*
X0015050Y0038900D03*
X0015050Y0039000D03*
X0021150Y0038800D03*
X0021050Y0037800D03*
X0021150Y0031700D03*
X0021150Y0031600D03*
X0021150Y0031500D03*
X0021150Y0031400D03*
X0021150Y0031300D03*
X0027150Y0038600D03*
X0027150Y0038700D03*
X0027150Y0039000D03*
X0027150Y0039100D03*
X0028450Y0037900D03*
X0024250Y0056200D03*
X0024250Y0056300D03*
X0022650Y0059400D03*
X0019550Y0059400D03*
X0018350Y0056300D03*
X0018350Y0056200D03*
D18*
X0018350Y0056700D03*
X0018350Y0055700D03*
X0021250Y0055900D03*
X0024250Y0055700D03*
X0024250Y0056700D03*
X0022450Y0059100D03*
X0021050Y0059100D03*
X0019650Y0059100D03*
X0019650Y0059000D03*
X0024850Y0061400D03*
X0029950Y0054600D03*
X0027150Y0038200D03*
X0028250Y0036000D03*
X0029950Y0036800D03*
X0024050Y0031400D03*
X0021150Y0032200D03*
X0018150Y0031400D03*
X0014050Y0032000D03*
X0013850Y0036100D03*
X0012250Y0036800D03*
X0012250Y0037900D03*
X0010750Y0042100D03*
X0022250Y0036200D03*
D19*
X0022400Y0036100D03*
X0022400Y0036000D03*
X0022400Y0035900D03*
X0022400Y0035800D03*
X0022400Y0035700D03*
X0022400Y0035600D03*
X0022400Y0035500D03*
X0022400Y0035400D03*
X0022400Y0035300D03*
X0022400Y0035200D03*
X0022400Y0035100D03*
X0022400Y0035000D03*
X0023400Y0034200D03*
X0023500Y0034000D03*
X0023600Y0033900D03*
X0023700Y0033700D03*
X0023800Y0033500D03*
X0023900Y0033200D03*
X0024000Y0033100D03*
X0024000Y0033000D03*
X0024200Y0032500D03*
X0024200Y0032400D03*
X0024300Y0032100D03*
X0024300Y0032000D03*
X0024300Y0031900D03*
X0024300Y0031600D03*
X0024200Y0031500D03*
X0024800Y0035300D03*
X0024800Y0035400D03*
X0024800Y0035500D03*
X0024800Y0035600D03*
X0024800Y0035700D03*
X0024800Y0035800D03*
X0024800Y0035900D03*
X0024800Y0036000D03*
X0027000Y0036300D03*
X0027000Y0036400D03*
X0027000Y0036500D03*
X0027000Y0036600D03*
X0027000Y0036700D03*
X0027000Y0036800D03*
X0027200Y0038100D03*
X0028900Y0038300D03*
X0028900Y0038400D03*
X0028900Y0038500D03*
X0028900Y0038600D03*
X0028900Y0038700D03*
X0028900Y0038800D03*
X0028900Y0038900D03*
X0028900Y0039500D03*
X0028900Y0039600D03*
X0028900Y0039700D03*
X0028900Y0039800D03*
X0028900Y0039900D03*
X0028900Y0040000D03*
X0028900Y0040100D03*
X0028900Y0040200D03*
X0028900Y0040300D03*
X0028900Y0040400D03*
X0028900Y0040500D03*
X0028900Y0040600D03*
X0028900Y0040700D03*
X0028900Y0040800D03*
X0028900Y0040900D03*
X0028900Y0041000D03*
X0028900Y0041100D03*
X0028900Y0041200D03*
X0028900Y0041300D03*
X0028900Y0041400D03*
X0028900Y0041500D03*
X0028900Y0042000D03*
X0028900Y0042100D03*
X0028900Y0042200D03*
X0028900Y0042300D03*
X0028900Y0042400D03*
X0028900Y0042500D03*
X0028900Y0042600D03*
X0028900Y0042700D03*
X0028900Y0042800D03*
X0028900Y0042900D03*
X0028900Y0043000D03*
X0028900Y0043100D03*
X0028900Y0043200D03*
X0028900Y0043300D03*
X0028900Y0043400D03*
X0028900Y0043500D03*
X0028900Y0043600D03*
X0028900Y0043700D03*
X0028900Y0043800D03*
X0028900Y0043900D03*
X0028900Y0044000D03*
X0028900Y0044100D03*
X0028900Y0044200D03*
X0028900Y0044300D03*
X0028900Y0044400D03*
X0028900Y0044500D03*
X0028900Y0044600D03*
X0028900Y0044700D03*
X0028900Y0044800D03*
X0028900Y0044900D03*
X0028900Y0045000D03*
X0028900Y0045100D03*
X0031900Y0045100D03*
X0031900Y0045200D03*
X0031900Y0045300D03*
X0031900Y0045400D03*
X0031900Y0045500D03*
X0031900Y0045600D03*
X0031900Y0045700D03*
X0031900Y0045800D03*
X0031900Y0045900D03*
X0031900Y0046000D03*
X0031800Y0046900D03*
X0031800Y0047000D03*
X0031800Y0047100D03*
X0031800Y0047200D03*
X0031800Y0047300D03*
X0031800Y0047400D03*
X0031800Y0047500D03*
X0031800Y0047600D03*
X0031700Y0047800D03*
X0031700Y0047900D03*
X0031700Y0048000D03*
X0031700Y0048100D03*
X0031700Y0048200D03*
X0031700Y0048300D03*
X0031700Y0048400D03*
X0031700Y0048500D03*
X0031700Y0048600D03*
X0031700Y0048700D03*
X0031700Y0048800D03*
X0031700Y0048900D03*
X0031700Y0049000D03*
X0031700Y0049100D03*
X0031600Y0049400D03*
X0031600Y0049500D03*
X0031600Y0049600D03*
X0031500Y0050000D03*
X0031400Y0050300D03*
X0028700Y0049900D03*
X0028700Y0049800D03*
X0028700Y0049700D03*
X0028700Y0049600D03*
X0028700Y0049500D03*
X0028500Y0051800D03*
X0028500Y0051900D03*
X0028400Y0052100D03*
X0028400Y0052700D03*
X0028400Y0052800D03*
X0028300Y0053600D03*
X0028300Y0053700D03*
X0028200Y0053800D03*
X0028200Y0053900D03*
X0028200Y0054000D03*
X0028200Y0054100D03*
X0028100Y0054200D03*
X0028100Y0054300D03*
X0028100Y0054400D03*
X0027800Y0055400D03*
X0027800Y0055500D03*
X0027700Y0055700D03*
X0027700Y0055800D03*
X0027600Y0056000D03*
X0027300Y0056700D03*
X0027200Y0056800D03*
X0027100Y0056900D03*
X0027100Y0057000D03*
X0027000Y0057100D03*
X0026900Y0057200D03*
X0026800Y0057400D03*
X0026700Y0057500D03*
X0026600Y0057700D03*
X0026500Y0057800D03*
X0026400Y0057900D03*
X0026400Y0058000D03*
X0026300Y0058100D03*
X0026200Y0058300D03*
X0026100Y0058700D03*
X0025600Y0060300D03*
X0025300Y0061000D03*
X0024800Y0061500D03*
X0024400Y0061100D03*
X0024300Y0061000D03*
X0024200Y0060900D03*
X0024100Y0060800D03*
X0024000Y0060700D03*
X0023900Y0060500D03*
X0023800Y0060400D03*
X0023700Y0060300D03*
X0023600Y0060100D03*
X0023500Y0060000D03*
X0023400Y0059800D03*
X0022400Y0058700D03*
X0021100Y0058800D03*
X0018900Y0059800D03*
X0018800Y0059900D03*
X0018600Y0060200D03*
X0018300Y0060600D03*
X0018000Y0061000D03*
X0017900Y0061100D03*
X0017400Y0061500D03*
X0017000Y0061100D03*
X0016900Y0061000D03*
X0016900Y0060900D03*
X0016800Y0060700D03*
X0016700Y0060500D03*
X0016700Y0060400D03*
X0016600Y0060200D03*
X0016500Y0060000D03*
X0016500Y0059900D03*
X0016400Y0059700D03*
X0016400Y0059600D03*
X0016300Y0059300D03*
X0016200Y0059000D03*
X0016100Y0058600D03*
X0016100Y0058500D03*
X0016000Y0058200D03*
X0015900Y0058100D03*
X0015900Y0058000D03*
X0015800Y0057900D03*
X0015700Y0057800D03*
X0015700Y0057700D03*
X0015600Y0057600D03*
X0015500Y0057500D03*
X0015500Y0057400D03*
X0015400Y0057300D03*
X0015300Y0057200D03*
X0015300Y0057100D03*
X0015200Y0057000D03*
X0015100Y0056900D03*
X0015000Y0056800D03*
X0015000Y0056700D03*
X0014700Y0056200D03*
X0014700Y0056100D03*
X0014600Y0055900D03*
X0014500Y0055600D03*
X0014300Y0055100D03*
X0014200Y0054600D03*
X0014200Y0054500D03*
X0014200Y0054400D03*
X0014100Y0054300D03*
X0014100Y0054200D03*
X0014100Y0054100D03*
X0014100Y0054000D03*
X0014000Y0053800D03*
X0014000Y0053700D03*
X0014000Y0053600D03*
X0013900Y0052900D03*
X0013900Y0052800D03*
X0013900Y0052700D03*
X0013700Y0051700D03*
X0013700Y0051600D03*
X0013600Y0050400D03*
X0013600Y0050300D03*
X0013600Y0050200D03*
X0013600Y0050100D03*
X0013500Y0049100D03*
X0013500Y0049000D03*
X0013500Y0048900D03*
X0013500Y0048800D03*
X0013500Y0048700D03*
X0013500Y0048600D03*
X0013400Y0048300D03*
X0013400Y0048200D03*
X0013400Y0048100D03*
X0013400Y0048000D03*
X0013400Y0047900D03*
X0013400Y0047800D03*
X0013400Y0047700D03*
X0013400Y0047600D03*
X0013400Y0047500D03*
X0013400Y0047400D03*
X0013400Y0047300D03*
X0013400Y0047200D03*
X0013400Y0047100D03*
X0013400Y0047000D03*
X0013400Y0046900D03*
X0013400Y0046300D03*
X0013400Y0046200D03*
X0013400Y0046100D03*
X0013400Y0046000D03*
X0013400Y0045900D03*
X0013400Y0045800D03*
X0013400Y0045700D03*
X0013400Y0045600D03*
X0013400Y0045500D03*
X0013400Y0045400D03*
X0013400Y0045300D03*
X0013400Y0045200D03*
X0013300Y0045000D03*
X0013300Y0044900D03*
X0013300Y0044800D03*
X0013300Y0044700D03*
X0013300Y0044600D03*
X0013300Y0044500D03*
X0013300Y0044400D03*
X0013300Y0044300D03*
X0013300Y0044200D03*
X0013300Y0044100D03*
X0013300Y0044000D03*
X0013300Y0043900D03*
X0013300Y0043800D03*
X0013300Y0043700D03*
X0013400Y0043600D03*
X0013400Y0043500D03*
X0013400Y0043400D03*
X0013400Y0043300D03*
X0013400Y0043200D03*
X0013400Y0043100D03*
X0013400Y0043000D03*
X0013400Y0042900D03*
X0013400Y0042800D03*
X0013400Y0042700D03*
X0013400Y0042600D03*
X0013400Y0042500D03*
X0013400Y0042400D03*
X0013400Y0042300D03*
X0013400Y0042200D03*
X0013400Y0042100D03*
X0013400Y0041500D03*
X0013400Y0041400D03*
X0013400Y0041300D03*
X0013400Y0041200D03*
X0013400Y0041100D03*
X0013400Y0041000D03*
X0013400Y0040900D03*
X0013400Y0040800D03*
X0013400Y0040700D03*
X0013400Y0040600D03*
X0013400Y0040500D03*
X0013400Y0040400D03*
X0013400Y0040300D03*
X0013400Y0040200D03*
X0013400Y0040100D03*
X0013400Y0040000D03*
X0013400Y0039900D03*
X0013400Y0039800D03*
X0013400Y0039700D03*
X0013400Y0039600D03*
X0013400Y0039500D03*
X0013400Y0038900D03*
X0013400Y0038800D03*
X0013400Y0038700D03*
X0013400Y0038600D03*
X0013400Y0038500D03*
X0013400Y0038400D03*
X0013400Y0038300D03*
X0013400Y0037600D03*
X0013400Y0037500D03*
X0013400Y0037400D03*
X0013400Y0037300D03*
X0013400Y0037200D03*
X0013400Y0037100D03*
X0013400Y0037000D03*
X0013400Y0036900D03*
X0013400Y0036800D03*
X0013400Y0036700D03*
X0012300Y0036700D03*
X0012300Y0038000D03*
X0011100Y0039500D03*
X0011100Y0039600D03*
X0011100Y0039700D03*
X0011100Y0039800D03*
X0011100Y0039900D03*
X0011100Y0040000D03*
X0011100Y0040100D03*
X0011100Y0040200D03*
X0011100Y0041200D03*
X0011100Y0041300D03*
X0011100Y0041400D03*
X0011100Y0041500D03*
X0010600Y0042200D03*
X0010500Y0042300D03*
X0010500Y0042400D03*
X0010500Y0042500D03*
X0010400Y0042700D03*
X0010400Y0042800D03*
X0010400Y0042900D03*
X0010300Y0043200D03*
X0010300Y0043300D03*
X0010300Y0043400D03*
X0010300Y0043500D03*
X0010300Y0043600D03*
X0010300Y0043700D03*
X0010300Y0043800D03*
X0010300Y0043900D03*
X0010300Y0044000D03*
X0010300Y0044100D03*
X0010300Y0044200D03*
X0010300Y0044300D03*
X0010300Y0044400D03*
X0010300Y0044500D03*
X0010300Y0044600D03*
X0010300Y0044700D03*
X0010300Y0044800D03*
X0010300Y0044900D03*
X0010300Y0045000D03*
X0010300Y0045100D03*
X0010300Y0045200D03*
X0010300Y0045300D03*
X0010300Y0045400D03*
X0010400Y0045600D03*
X0010400Y0045700D03*
X0010400Y0045800D03*
X0010400Y0045900D03*
X0010400Y0046000D03*
X0010400Y0046100D03*
X0010400Y0046200D03*
X0010400Y0046300D03*
X0010400Y0046400D03*
X0010400Y0046500D03*
X0010400Y0046600D03*
X0010400Y0046700D03*
X0010400Y0046800D03*
X0010400Y0046900D03*
X0010500Y0047300D03*
X0010500Y0047400D03*
X0010500Y0047500D03*
X0010500Y0047600D03*
X0010500Y0047700D03*
X0010500Y0047800D03*
X0010500Y0047900D03*
X0010500Y0048000D03*
X0010500Y0048100D03*
X0010500Y0048200D03*
X0010500Y0048300D03*
X0010600Y0048800D03*
X0010600Y0048900D03*
X0010600Y0049000D03*
X0010600Y0049100D03*
X0010600Y0049200D03*
X0010600Y0049300D03*
X0010600Y0049400D03*
X0010600Y0049500D03*
X0010700Y0049800D03*
X0010700Y0049900D03*
X0010800Y0050100D03*
X0010800Y0050200D03*
X0012100Y0054400D03*
X0013600Y0055100D03*
X0020700Y0055500D03*
X0021800Y0055500D03*
X0017000Y0046000D03*
X0017000Y0045900D03*
X0017100Y0045800D03*
X0017100Y0045700D03*
X0017100Y0045600D03*
X0017100Y0045500D03*
X0017100Y0045400D03*
X0017100Y0045300D03*
X0017100Y0045200D03*
X0017100Y0045100D03*
X0017200Y0044900D03*
X0017200Y0044800D03*
X0017200Y0044700D03*
X0017200Y0044600D03*
X0017200Y0044500D03*
X0017200Y0044400D03*
X0017200Y0044300D03*
X0017200Y0044200D03*
X0017200Y0044100D03*
X0017200Y0044000D03*
X0017200Y0043900D03*
X0017200Y0043800D03*
X0017200Y0043700D03*
X0017200Y0043600D03*
X0017200Y0043500D03*
X0017200Y0043400D03*
X0017200Y0043300D03*
X0017200Y0043200D03*
X0017200Y0043100D03*
X0017200Y0043000D03*
X0017200Y0042900D03*
X0017200Y0042800D03*
X0017200Y0042700D03*
X0017200Y0042600D03*
X0017200Y0042500D03*
X0017200Y0042400D03*
X0017200Y0042300D03*
X0017200Y0042200D03*
X0017200Y0042100D03*
X0017200Y0042000D03*
X0017200Y0041900D03*
X0017200Y0041800D03*
X0017200Y0041700D03*
X0017200Y0041600D03*
X0017200Y0041500D03*
X0017200Y0041400D03*
X0017200Y0041300D03*
X0017200Y0041200D03*
X0017200Y0041100D03*
X0017200Y0041000D03*
X0017200Y0040900D03*
X0017200Y0040800D03*
X0017200Y0040700D03*
X0017200Y0040600D03*
X0017200Y0040500D03*
X0017200Y0040400D03*
X0017200Y0040300D03*
X0017200Y0040200D03*
X0017200Y0040100D03*
X0017200Y0040000D03*
X0017200Y0039900D03*
X0017200Y0039800D03*
X0017200Y0039700D03*
X0017200Y0039600D03*
X0017200Y0039500D03*
X0017200Y0039400D03*
X0017200Y0039300D03*
X0017200Y0039200D03*
X0017200Y0039100D03*
X0017200Y0039000D03*
X0017200Y0038900D03*
X0017200Y0038800D03*
X0017200Y0038700D03*
X0017200Y0038600D03*
X0017200Y0038500D03*
X0017200Y0038400D03*
X0017200Y0038300D03*
X0017200Y0038200D03*
X0017200Y0038100D03*
X0017200Y0038000D03*
X0017200Y0037900D03*
X0017200Y0037800D03*
X0017200Y0037700D03*
X0017200Y0037600D03*
X0017200Y0037500D03*
X0017200Y0037400D03*
X0017200Y0037300D03*
X0017500Y0036400D03*
X0017500Y0036300D03*
X0017500Y0036200D03*
X0017500Y0036100D03*
X0017400Y0035900D03*
X0017400Y0035800D03*
X0017400Y0035700D03*
X0017400Y0035600D03*
X0017400Y0035500D03*
X0017400Y0035400D03*
X0017400Y0035300D03*
X0017400Y0035200D03*
X0017400Y0035100D03*
X0018800Y0034200D03*
X0018700Y0033900D03*
X0018600Y0033800D03*
X0018600Y0033700D03*
X0018500Y0033600D03*
X0018300Y0033100D03*
X0018200Y0032900D03*
X0018100Y0032600D03*
X0018000Y0032400D03*
X0018000Y0032300D03*
X0018000Y0032200D03*
X0017900Y0031800D03*
X0017900Y0031700D03*
X0018000Y0031500D03*
X0019900Y0035400D03*
X0019900Y0035500D03*
X0019900Y0035600D03*
X0019900Y0035700D03*
X0019900Y0035800D03*
X0019900Y0035900D03*
X0019900Y0036000D03*
X0019900Y0036100D03*
X0019900Y0036200D03*
X0015300Y0036600D03*
X0015300Y0036700D03*
X0015300Y0036800D03*
X0010500Y0035700D03*
X0010500Y0035600D03*
X0010400Y0035800D03*
X0010400Y0035900D03*
X0010400Y0036000D03*
X0010400Y0036100D03*
X0010400Y0036200D03*
X0010400Y0036300D03*
X0010300Y0037500D03*
X0010300Y0037600D03*
X0010300Y0037700D03*
X0010300Y0037800D03*
X0010300Y0037900D03*
X0010300Y0038000D03*
X0010300Y0038100D03*
X0010400Y0038500D03*
X0010500Y0038700D03*
X0028200Y0035400D03*
X0028600Y0036300D03*
X0028700Y0036400D03*
X0028800Y0036600D03*
X0028800Y0036700D03*
X0028800Y0036800D03*
X0028800Y0036900D03*
X0028900Y0037500D03*
X0028900Y0037600D03*
X0031900Y0037600D03*
X0031900Y0037700D03*
X0031900Y0037800D03*
X0031900Y0037900D03*
X0031900Y0038000D03*
X0031900Y0038100D03*
X0031900Y0038200D03*
X0031800Y0038600D03*
X0031700Y0038800D03*
X0031200Y0039700D03*
X0031200Y0039800D03*
X0031200Y0039900D03*
X0031200Y0040000D03*
X0031200Y0040100D03*
X0031200Y0040200D03*
X0031200Y0040300D03*
X0031200Y0040400D03*
X0031200Y0040500D03*
X0031200Y0040600D03*
X0031200Y0041300D03*
X0031200Y0041400D03*
X0031200Y0041500D03*
X0031800Y0042500D03*
X0031900Y0042900D03*
X0031900Y0043000D03*
X0031900Y0043100D03*
X0031900Y0043200D03*
X0031900Y0043300D03*
X0031900Y0043400D03*
X0031900Y0043500D03*
X0031900Y0043600D03*
X0031900Y0043700D03*
X0031900Y0043800D03*
X0031900Y0043900D03*
X0031900Y0044000D03*
X0031900Y0044100D03*
X0031900Y0044200D03*
X0031900Y0044300D03*
X0031900Y0044400D03*
X0031900Y0044500D03*
X0031900Y0044600D03*
X0031900Y0044700D03*
X0031900Y0044800D03*
X0031900Y0044900D03*
X0031900Y0045000D03*
X0031900Y0037500D03*
X0031900Y0037400D03*
X0031900Y0037300D03*
X0031900Y0037200D03*
X0031900Y0037100D03*
X0031900Y0037000D03*
X0031900Y0036900D03*
X0031900Y0036800D03*
X0031900Y0036700D03*
X0031900Y0036600D03*
D20*
X0031850Y0036500D03*
X0031850Y0036400D03*
X0031850Y0036300D03*
X0031850Y0036200D03*
X0031850Y0036100D03*
X0031850Y0036000D03*
X0031850Y0035900D03*
X0031850Y0035800D03*
X0031750Y0035700D03*
X0031750Y0035600D03*
X0031650Y0035500D03*
X0031850Y0038300D03*
X0031850Y0038400D03*
X0031850Y0038500D03*
X0031750Y0038700D03*
X0031150Y0039500D03*
X0031150Y0039600D03*
X0031150Y0040700D03*
X0031150Y0040800D03*
X0031150Y0040900D03*
X0031150Y0041000D03*
X0031150Y0041100D03*
X0031150Y0041200D03*
X0031650Y0042200D03*
X0031750Y0042300D03*
X0031750Y0042400D03*
X0031850Y0042600D03*
X0031850Y0042700D03*
X0031850Y0042800D03*
X0031750Y0047700D03*
X0028550Y0051600D03*
X0028550Y0051700D03*
X0028450Y0052000D03*
X0028050Y0054500D03*
X0028050Y0054600D03*
X0027950Y0055100D03*
X0027850Y0055200D03*
X0027850Y0055300D03*
X0027750Y0055600D03*
X0027650Y0055900D03*
X0027550Y0056100D03*
X0027550Y0056200D03*
X0026850Y0057300D03*
X0026650Y0057600D03*
X0026250Y0058200D03*
X0026150Y0058400D03*
X0026150Y0058500D03*
X0026150Y0058600D03*
X0026050Y0058800D03*
X0026050Y0058900D03*
X0026050Y0059000D03*
X0025950Y0059200D03*
X0025850Y0059500D03*
X0025850Y0059600D03*
X0025750Y0059800D03*
X0025750Y0059900D03*
X0025750Y0060000D03*
X0025650Y0060100D03*
X0025650Y0060200D03*
X0025550Y0060400D03*
X0025550Y0060500D03*
X0025450Y0060600D03*
X0025450Y0060700D03*
X0025450Y0060800D03*
X0025350Y0060900D03*
X0025250Y0061100D03*
X0028750Y0056900D03*
X0030050Y0056400D03*
X0028650Y0055100D03*
X0030150Y0054400D03*
X0021250Y0056200D03*
X0021250Y0056300D03*
X0021250Y0056400D03*
X0021250Y0056500D03*
X0019650Y0058700D03*
X0016350Y0059400D03*
X0016350Y0059500D03*
X0016450Y0059800D03*
X0016550Y0060100D03*
X0016650Y0060300D03*
X0016750Y0060600D03*
X0016850Y0060800D03*
X0016250Y0059200D03*
X0016250Y0059100D03*
X0016150Y0058900D03*
X0016150Y0058800D03*
X0016150Y0058700D03*
X0016050Y0058400D03*
X0016050Y0058300D03*
X0014650Y0056000D03*
X0014550Y0055800D03*
X0014550Y0055700D03*
X0014450Y0055500D03*
X0014450Y0055400D03*
X0014350Y0055300D03*
X0014350Y0055200D03*
X0014050Y0053900D03*
X0013550Y0056900D03*
X0012150Y0056400D03*
X0013350Y0045100D03*
X0010350Y0043100D03*
X0010350Y0043000D03*
X0010450Y0042600D03*
X0010450Y0038600D03*
X0010350Y0038400D03*
X0010350Y0038300D03*
X0010350Y0038200D03*
X0010350Y0037400D03*
X0010350Y0037300D03*
X0010350Y0037200D03*
X0010350Y0037100D03*
X0010350Y0037000D03*
X0010350Y0036900D03*
X0010350Y0036800D03*
X0010350Y0036700D03*
X0010350Y0036600D03*
X0010350Y0036500D03*
X0010350Y0036400D03*
X0018350Y0033300D03*
X0018350Y0033200D03*
X0018450Y0033400D03*
X0018450Y0033500D03*
X0018250Y0033000D03*
X0018150Y0032800D03*
X0018150Y0032700D03*
X0018050Y0032500D03*
X0017950Y0032100D03*
X0017950Y0032000D03*
X0017950Y0031900D03*
X0017950Y0031600D03*
X0018750Y0034000D03*
X0018750Y0034100D03*
X0019850Y0034700D03*
X0019850Y0034800D03*
X0019850Y0034900D03*
X0019850Y0035000D03*
X0019850Y0035100D03*
X0019850Y0035200D03*
X0019850Y0035300D03*
X0021150Y0032400D03*
X0022450Y0034700D03*
X0022450Y0034800D03*
X0022450Y0034900D03*
X0023450Y0034100D03*
X0023650Y0033800D03*
X0023750Y0033600D03*
X0023850Y0033400D03*
X0023850Y0033300D03*
X0024050Y0032900D03*
X0024050Y0032800D03*
X0024150Y0032700D03*
X0024150Y0032600D03*
X0024250Y0032300D03*
X0024250Y0032200D03*
X0024350Y0031800D03*
X0024350Y0031700D03*
X0024850Y0035100D03*
X0024850Y0035200D03*
X0024750Y0036100D03*
X0024750Y0036200D03*
X0024750Y0036300D03*
X0024750Y0036400D03*
X0027050Y0036200D03*
X0027050Y0036100D03*
X0027050Y0036000D03*
X0027050Y0035900D03*
X0027050Y0035800D03*
X0028850Y0037000D03*
X0028850Y0037100D03*
X0028850Y0037200D03*
X0028850Y0037300D03*
X0028850Y0037400D03*
X0017150Y0045000D03*
D21*
X0015100Y0039200D03*
X0015100Y0039100D03*
X0015100Y0038500D03*
X0015100Y0038400D03*
X0015000Y0037400D03*
X0013800Y0037900D03*
X0015800Y0035200D03*
X0021000Y0037700D03*
X0021100Y0031800D03*
X0027300Y0037400D03*
X0027100Y0038500D03*
X0027100Y0039200D03*
X0030000Y0037500D03*
X0030000Y0037400D03*
X0024300Y0056100D03*
X0021100Y0059900D03*
X0017400Y0061200D03*
X0018400Y0056100D03*
D22*
X0018350Y0056000D03*
X0018350Y0055900D03*
X0018350Y0056400D03*
X0018350Y0056500D03*
X0021250Y0055800D03*
X0024250Y0055900D03*
X0024250Y0056000D03*
X0024250Y0056400D03*
X0024250Y0056500D03*
X0022650Y0059300D03*
X0024750Y0061200D03*
X0017450Y0061300D03*
X0013950Y0051100D03*
X0021150Y0038900D03*
X0026150Y0035100D03*
X0027550Y0037500D03*
X0027150Y0038400D03*
X0027150Y0039300D03*
X0028550Y0038000D03*
X0030050Y0037300D03*
X0030050Y0037200D03*
X0021150Y0032000D03*
X0021150Y0031900D03*
X0014750Y0037500D03*
X0014550Y0037600D03*
X0012250Y0037600D03*
X0012250Y0037500D03*
X0012250Y0037400D03*
X0012250Y0037300D03*
X0012250Y0037200D03*
X0012250Y0037100D03*
D23*
X0011850Y0032000D03*
X0021150Y0046000D03*
X0014650Y0051300D03*
X0011850Y0050500D03*
X0027350Y0053300D03*
X0027650Y0051300D03*
D24*
X0026050Y0051500D03*
X0029950Y0033600D03*
X0012250Y0032100D03*
D25*
X0014150Y0035900D03*
X0012250Y0036900D03*
X0012250Y0037700D03*
X0012250Y0037800D03*
X0013650Y0038100D03*
X0020850Y0036200D03*
X0021150Y0039000D03*
X0027150Y0039400D03*
X0027150Y0038300D03*
X0028650Y0038100D03*
X0029950Y0036900D03*
X0027950Y0035800D03*
X0021150Y0032100D03*
X0028150Y0052200D03*
X0028050Y0053100D03*
X0024250Y0055800D03*
X0024250Y0056600D03*
X0018350Y0056600D03*
X0018350Y0055800D03*
D26*
X0021200Y0036400D03*
X0021100Y0034300D03*
X0012300Y0034000D03*
X0030000Y0032100D03*
D27*
X0030000Y0032300D03*
X0030000Y0033400D03*
X0012300Y0033400D03*
X0012300Y0032200D03*
X0016300Y0051500D03*
D28*
X0012300Y0033300D03*
X0012300Y0032300D03*
X0030000Y0033100D03*
D29*
X0031550Y0035400D03*
X0029950Y0036700D03*
X0030050Y0037900D03*
X0028850Y0038200D03*
X0028750Y0036500D03*
X0028550Y0036200D03*
X0028450Y0036100D03*
X0025050Y0037300D03*
X0025050Y0037400D03*
X0025050Y0037500D03*
X0025050Y0037600D03*
X0025050Y0037700D03*
X0025050Y0037800D03*
X0025050Y0037900D03*
X0025050Y0038000D03*
X0025050Y0038100D03*
X0025050Y0038200D03*
X0025050Y0038300D03*
X0025050Y0038400D03*
X0025050Y0038500D03*
X0025050Y0038600D03*
X0025050Y0038700D03*
X0025050Y0038800D03*
X0025050Y0038900D03*
X0025050Y0039000D03*
X0025050Y0039100D03*
X0025050Y0039200D03*
X0025050Y0039300D03*
X0025050Y0039400D03*
X0025050Y0039500D03*
X0025050Y0039600D03*
X0025050Y0039700D03*
X0025050Y0039800D03*
X0025050Y0039900D03*
X0025050Y0040000D03*
X0025050Y0040100D03*
X0025050Y0040200D03*
X0025050Y0040300D03*
X0025050Y0040400D03*
X0025050Y0040500D03*
X0025050Y0040600D03*
X0025050Y0040700D03*
X0025050Y0040800D03*
X0025050Y0040900D03*
X0025050Y0041000D03*
X0025050Y0041100D03*
X0025050Y0041200D03*
X0025050Y0041300D03*
X0025050Y0041400D03*
X0025050Y0041500D03*
X0025050Y0041600D03*
X0025050Y0041700D03*
X0025050Y0041800D03*
X0025050Y0041900D03*
X0025050Y0042000D03*
X0025050Y0042100D03*
X0025050Y0042200D03*
X0025050Y0042300D03*
X0025050Y0042400D03*
X0025050Y0042500D03*
X0025050Y0042600D03*
X0025050Y0042700D03*
X0025050Y0042800D03*
X0025050Y0042900D03*
X0025050Y0043000D03*
X0025050Y0043100D03*
X0025050Y0043200D03*
X0025050Y0043300D03*
X0025050Y0043400D03*
X0025050Y0043500D03*
X0025050Y0043600D03*
X0025150Y0045100D03*
X0025150Y0045200D03*
X0025150Y0045300D03*
X0025150Y0045400D03*
X0025150Y0045500D03*
X0025150Y0045600D03*
X0025150Y0045700D03*
X0025150Y0045800D03*
X0025150Y0045900D03*
X0028650Y0050000D03*
X0028650Y0050100D03*
X0028650Y0050200D03*
X0028650Y0050300D03*
X0028650Y0050400D03*
X0028650Y0050500D03*
X0028750Y0049400D03*
X0028750Y0049300D03*
X0028750Y0049200D03*
X0028750Y0049100D03*
X0028750Y0049000D03*
X0028750Y0048900D03*
X0028750Y0048800D03*
X0028750Y0048700D03*
X0028750Y0048600D03*
X0028750Y0048500D03*
X0028750Y0048400D03*
X0028750Y0048300D03*
X0028850Y0048000D03*
X0028850Y0047900D03*
X0028850Y0047800D03*
X0028850Y0047700D03*
X0028850Y0047600D03*
X0028850Y0047500D03*
X0028850Y0047400D03*
X0028850Y0047300D03*
X0028850Y0047200D03*
X0028850Y0047100D03*
X0028850Y0047000D03*
X0028850Y0046300D03*
X0028850Y0046200D03*
X0028850Y0046100D03*
X0028850Y0046000D03*
X0028850Y0045900D03*
X0028850Y0045800D03*
X0028850Y0045700D03*
X0028850Y0045600D03*
X0028850Y0045500D03*
X0028850Y0045400D03*
X0028850Y0045300D03*
X0028850Y0045200D03*
X0031850Y0046100D03*
X0031850Y0046200D03*
X0031850Y0046300D03*
X0031850Y0046400D03*
X0031850Y0046500D03*
X0031850Y0046600D03*
X0031850Y0046700D03*
X0031850Y0046800D03*
X0031650Y0049200D03*
X0031650Y0049300D03*
X0031550Y0049700D03*
X0031550Y0049800D03*
X0031550Y0049900D03*
X0031450Y0050100D03*
X0031450Y0050200D03*
X0028350Y0052900D03*
X0028350Y0053000D03*
X0028150Y0054700D03*
X0027550Y0056300D03*
X0030050Y0054500D03*
X0024250Y0055600D03*
X0024250Y0056800D03*
X0021750Y0055600D03*
X0021250Y0056000D03*
X0021250Y0056100D03*
X0020750Y0055600D03*
X0018350Y0055600D03*
X0018350Y0056800D03*
X0018750Y0060000D03*
X0018650Y0060100D03*
X0018550Y0060300D03*
X0018450Y0060400D03*
X0018350Y0060500D03*
X0018250Y0060700D03*
X0018150Y0060800D03*
X0018050Y0060900D03*
X0023250Y0059700D03*
X0023450Y0059900D03*
X0023650Y0060200D03*
X0023950Y0060600D03*
X0014650Y0056300D03*
X0013950Y0053000D03*
X0013850Y0052100D03*
X0013750Y0052000D03*
X0013750Y0051900D03*
X0013750Y0051800D03*
X0013550Y0050500D03*
X0013550Y0050000D03*
X0013550Y0049900D03*
X0013550Y0049800D03*
X0013550Y0049700D03*
X0013550Y0049600D03*
X0013550Y0049500D03*
X0013550Y0049400D03*
X0013550Y0049300D03*
X0013550Y0049200D03*
X0013450Y0048500D03*
X0013450Y0048400D03*
X0010550Y0048400D03*
X0010550Y0048500D03*
X0010550Y0048600D03*
X0010550Y0048700D03*
X0010650Y0049600D03*
X0010650Y0049700D03*
X0010750Y0050000D03*
X0010850Y0050300D03*
X0010950Y0050400D03*
X0010450Y0047200D03*
X0010450Y0047100D03*
X0010450Y0047000D03*
X0010350Y0045500D03*
X0011050Y0041100D03*
X0011050Y0041000D03*
X0011050Y0040900D03*
X0011050Y0040800D03*
X0011050Y0040700D03*
X0011050Y0040600D03*
X0011050Y0040500D03*
X0011050Y0040400D03*
X0011050Y0040300D03*
X0010650Y0038900D03*
X0010550Y0038800D03*
X0010550Y0035500D03*
X0010650Y0035400D03*
X0013450Y0036600D03*
X0013550Y0036500D03*
X0013550Y0036400D03*
X0013650Y0036300D03*
X0014050Y0035400D03*
X0015250Y0035900D03*
X0015250Y0036000D03*
X0015250Y0036100D03*
X0015250Y0036200D03*
X0015250Y0036300D03*
X0015250Y0036400D03*
X0015250Y0036500D03*
X0015050Y0038100D03*
X0015050Y0039500D03*
X0017150Y0037200D03*
X0017450Y0036000D03*
X0021050Y0039100D03*
X0021150Y0032300D03*
X0031550Y0038900D03*
X0031450Y0042100D03*
X0016950Y0046100D03*
D30*
X0016450Y0052600D03*
X0025750Y0052600D03*
X0029950Y0033300D03*
X0029950Y0033200D03*
X0029950Y0032400D03*
D31*
X0021100Y0048700D03*
X0021100Y0052000D03*
X0012300Y0032800D03*
X0012300Y0032700D03*
X0012300Y0032600D03*
D32*
X0012300Y0033700D03*
X0030000Y0033500D03*
D33*
X0030000Y0033700D03*
X0012300Y0033800D03*
X0012300Y0033900D03*
D34*
X0021150Y0034400D03*
X0029950Y0033800D03*
X0021150Y0054000D03*
D35*
X0012250Y0034100D03*
X0029950Y0034000D03*
X0029950Y0033900D03*
D36*
X0029900Y0034100D03*
X0012300Y0034200D03*
D37*
X0021100Y0034200D03*
X0021100Y0040500D03*
X0021100Y0045600D03*
D38*
X0012300Y0034300D03*
X0029900Y0034200D03*
D39*
X0029950Y0034300D03*
X0012350Y0034400D03*
X0021150Y0059500D03*
D40*
X0021100Y0048800D03*
X0012400Y0034500D03*
X0029900Y0034400D03*
D41*
X0029900Y0034500D03*
X0012400Y0034600D03*
X0012400Y0034700D03*
D42*
X0021100Y0034600D03*
X0021100Y0049400D03*
X0021100Y0050400D03*
D43*
X0015750Y0053400D03*
X0020750Y0059700D03*
X0026450Y0053400D03*
X0029850Y0034600D03*
D44*
X0030000Y0039400D03*
X0021100Y0040200D03*
X0017900Y0034700D03*
X0012700Y0051000D03*
X0014900Y0052400D03*
D45*
X0013300Y0054800D03*
X0013300Y0056700D03*
X0029000Y0056700D03*
X0028900Y0054800D03*
X0024200Y0034700D03*
X0017300Y0034800D03*
D46*
X0012450Y0034900D03*
X0012350Y0035300D03*
X0021150Y0041300D03*
X0021150Y0041400D03*
X0021150Y0041500D03*
X0021150Y0041600D03*
X0021150Y0041700D03*
X0021150Y0041800D03*
X0021150Y0042500D03*
X0021150Y0042600D03*
X0021150Y0042700D03*
X0021150Y0042800D03*
X0021150Y0042900D03*
X0021150Y0043000D03*
X0021150Y0043100D03*
X0021150Y0043200D03*
X0021150Y0043300D03*
X0021150Y0043400D03*
X0021150Y0043500D03*
X0021150Y0043600D03*
X0021150Y0043700D03*
X0021150Y0043800D03*
X0021150Y0043900D03*
X0027150Y0046500D03*
X0029850Y0034800D03*
X0029850Y0034700D03*
D47*
X0027100Y0046400D03*
X0012400Y0034800D03*
D48*
X0024800Y0034800D03*
X0014600Y0052300D03*
X0013400Y0054900D03*
X0028800Y0054900D03*
D49*
X0016950Y0034900D03*
X0016650Y0035000D03*
D50*
X0022200Y0041900D03*
X0022200Y0042400D03*
X0025300Y0034900D03*
X0014400Y0051200D03*
X0014600Y0053200D03*
X0013300Y0056800D03*
X0029000Y0056800D03*
D51*
X0021150Y0050800D03*
X0021150Y0044900D03*
X0021150Y0040900D03*
X0027250Y0046700D03*
X0029850Y0035300D03*
X0029850Y0035200D03*
X0029850Y0035100D03*
X0029850Y0035000D03*
X0029850Y0034900D03*
X0012450Y0035000D03*
X0012350Y0035200D03*
D52*
X0025550Y0035000D03*
D53*
X0021100Y0040800D03*
X0021100Y0045000D03*
X0015000Y0046600D03*
X0021100Y0052100D03*
X0026800Y0052500D03*
X0012400Y0035100D03*
D54*
X0015350Y0037300D03*
X0016150Y0035100D03*
X0021050Y0037900D03*
X0021050Y0038000D03*
X0021050Y0038100D03*
X0019950Y0041900D03*
X0019950Y0042000D03*
X0019950Y0042100D03*
X0019950Y0042200D03*
X0019950Y0044200D03*
X0020050Y0044700D03*
X0021150Y0046100D03*
X0025750Y0046200D03*
X0030950Y0042000D03*
X0028350Y0037800D03*
X0027550Y0035600D03*
X0027550Y0035500D03*
X0021250Y0055700D03*
D55*
X0019500Y0059300D03*
X0024800Y0061300D03*
X0028300Y0051100D03*
X0023700Y0049200D03*
X0022700Y0047200D03*
X0019600Y0047200D03*
X0014100Y0052200D03*
X0014200Y0053100D03*
X0015100Y0039300D03*
X0015100Y0038300D03*
X0013700Y0038000D03*
X0012300Y0037000D03*
X0021000Y0037600D03*
X0026400Y0035200D03*
X0026700Y0035300D03*
X0027000Y0035400D03*
X0027700Y0037600D03*
X0030000Y0037600D03*
X0030000Y0037700D03*
X0030000Y0037100D03*
X0030000Y0037000D03*
D56*
X0027600Y0035700D03*
X0027000Y0037300D03*
X0027200Y0038800D03*
X0027200Y0038900D03*
X0021100Y0038700D03*
X0021100Y0038600D03*
X0015500Y0035300D03*
X0013900Y0037800D03*
X0019900Y0044300D03*
X0019900Y0044400D03*
X0019900Y0044500D03*
X0020000Y0044600D03*
X0016400Y0046300D03*
X0029500Y0054700D03*
D57*
X0027650Y0053200D03*
X0027750Y0052300D03*
X0027950Y0051200D03*
X0022150Y0044800D03*
X0022150Y0044200D03*
X0022250Y0042300D03*
X0022250Y0042200D03*
X0022250Y0042100D03*
X0022250Y0042000D03*
X0021150Y0040100D03*
X0015650Y0037200D03*
X0014650Y0035800D03*
X0014750Y0035500D03*
X0026650Y0037200D03*
X0028250Y0037700D03*
X0013650Y0055000D03*
D58*
X0012300Y0054600D03*
X0014600Y0056400D03*
X0017400Y0061400D03*
X0019600Y0059200D03*
X0021100Y0059200D03*
X0021100Y0059300D03*
X0021100Y0059400D03*
X0022500Y0059200D03*
X0027700Y0056400D03*
X0021200Y0046200D03*
X0015100Y0039400D03*
X0015100Y0038200D03*
X0014000Y0036000D03*
X0028100Y0035900D03*
X0030000Y0037800D03*
D59*
X0027200Y0039500D03*
X0025100Y0037200D03*
X0021000Y0037500D03*
X0025100Y0043700D03*
X0025100Y0043800D03*
X0025100Y0043900D03*
X0025100Y0044000D03*
X0025100Y0044100D03*
X0025100Y0044200D03*
X0025100Y0044300D03*
X0025100Y0044400D03*
X0025100Y0044500D03*
X0025100Y0044600D03*
X0025100Y0044700D03*
X0025100Y0044800D03*
X0025100Y0044900D03*
X0025100Y0045000D03*
X0025200Y0046000D03*
X0025300Y0046100D03*
X0028800Y0046900D03*
X0028800Y0048100D03*
X0028800Y0048200D03*
X0031300Y0050400D03*
X0022400Y0058800D03*
X0022400Y0058900D03*
X0022400Y0059000D03*
X0021100Y0059000D03*
X0021100Y0058900D03*
X0019700Y0058900D03*
X0019700Y0058800D03*
X0012200Y0054500D03*
X0016900Y0046200D03*
X0013500Y0038200D03*
X0013700Y0036200D03*
D60*
X0012050Y0039000D03*
X0012050Y0039100D03*
X0012050Y0042000D03*
X0021150Y0036300D03*
X0025650Y0037000D03*
X0029950Y0050600D03*
X0028750Y0056500D03*
X0028650Y0056600D03*
X0013550Y0056600D03*
D61*
X0021100Y0053000D03*
X0021100Y0036500D03*
D62*
X0021050Y0036600D03*
D63*
X0021100Y0036700D03*
D64*
X0017750Y0036800D03*
X0016850Y0036900D03*
X0021150Y0045100D03*
D65*
X0021150Y0045500D03*
X0027450Y0046800D03*
X0024350Y0036800D03*
D66*
X0025300Y0036900D03*
X0021100Y0041000D03*
X0021100Y0041100D03*
X0021100Y0041200D03*
X0021100Y0044000D03*
X0021100Y0044100D03*
X0015100Y0046400D03*
X0015100Y0046500D03*
X0015400Y0051400D03*
X0015500Y0052500D03*
X0027200Y0046600D03*
D67*
X0029550Y0051000D03*
X0027350Y0052400D03*
X0021150Y0053200D03*
X0021150Y0045900D03*
X0026050Y0037100D03*
X0016150Y0037100D03*
D68*
X0030100Y0038000D03*
X0012000Y0054300D03*
X0021100Y0058700D03*
X0025800Y0059700D03*
X0025900Y0059400D03*
X0025900Y0059300D03*
X0026000Y0059100D03*
D69*
X0029850Y0050800D03*
X0021150Y0045700D03*
X0030150Y0041900D03*
X0012150Y0041800D03*
X0012150Y0039200D03*
X0012450Y0050800D03*
D70*
X0012500Y0050900D03*
X0021100Y0045800D03*
X0021100Y0040300D03*
X0012200Y0039300D03*
X0030100Y0039200D03*
X0030100Y0041800D03*
X0021100Y0059800D03*
D71*
X0029750Y0050900D03*
X0026450Y0046300D03*
X0030050Y0041700D03*
X0030050Y0041600D03*
X0030050Y0039300D03*
X0012250Y0039400D03*
X0012250Y0041600D03*
X0012250Y0041700D03*
D72*
X0014900Y0046700D03*
X0021100Y0045400D03*
X0021100Y0045300D03*
X0021100Y0045200D03*
X0021100Y0040700D03*
X0021100Y0040600D03*
X0027000Y0051400D03*
D73*
X0030400Y0050500D03*
X0014900Y0053300D03*
X0013200Y0054700D03*
X0014400Y0046800D03*
D74*
X0021150Y0047400D03*
D75*
X0021150Y0047500D03*
D76*
X0021200Y0047600D03*
X0021100Y0048400D03*
X0021100Y0053900D03*
D77*
X0021050Y0049300D03*
X0021150Y0047700D03*
D78*
X0021150Y0047800D03*
X0021150Y0047900D03*
X0021150Y0048000D03*
X0021150Y0048100D03*
X0021150Y0048200D03*
X0021050Y0050500D03*
D79*
X0021100Y0048300D03*
D80*
X0021100Y0048500D03*
D81*
X0021100Y0048600D03*
D82*
X0021100Y0049500D03*
X0021100Y0050300D03*
D83*
X0021100Y0050200D03*
X0021100Y0050100D03*
X0021100Y0049600D03*
X0021100Y0051900D03*
D84*
X0021150Y0050000D03*
X0021150Y0049800D03*
X0021150Y0049700D03*
D85*
X0021100Y0049900D03*
D86*
X0021050Y0050600D03*
D87*
X0021100Y0051600D03*
D88*
X0021050Y0051700D03*
X0021150Y0053700D03*
D89*
X0021100Y0051800D03*
D90*
X0021050Y0052700D03*
D91*
X0021100Y0052800D03*
D92*
X0021150Y0052900D03*
D93*
X0016150Y0053500D03*
X0021150Y0059600D03*
X0026150Y0053500D03*
D94*
X0021150Y0053600D03*
D95*
X0021150Y0053800D03*
D96*
X0020650Y0055400D03*
X0021850Y0055400D03*
X0021250Y0056600D03*
X0022450Y0058600D03*
D97*
X0068035Y0098254D02*
X0068035Y0100024D01*
X0068920Y0099139D01*
X0067740Y0099139D01*
X0072858Y0098254D02*
X0074038Y0098254D01*
X0073448Y0098254D02*
X0073448Y0100024D01*
X0074038Y0099434D01*
X0075515Y0103372D02*
X0076105Y0103372D01*
X0076400Y0103667D01*
X0076400Y0104257D02*
X0075810Y0104552D01*
X0075515Y0104552D01*
X0075220Y0104257D01*
X0075220Y0103667D01*
X0075515Y0103372D01*
X0076400Y0104257D02*
X0076400Y0105142D01*
X0075220Y0105142D01*
X0077385Y0106718D02*
X0078565Y0106718D01*
X0077385Y0107898D01*
X0077385Y0108193D01*
X0077680Y0108488D01*
X0078270Y0108488D01*
X0078565Y0108193D01*
X0078861Y0101402D02*
X0078566Y0101107D01*
X0078566Y0100812D01*
X0078861Y0100516D01*
X0078566Y0100221D01*
X0078566Y0099926D01*
X0078861Y0099631D01*
X0079451Y0099631D01*
X0079746Y0099926D01*
X0079156Y0100516D02*
X0078861Y0100516D01*
X0078861Y0101402D02*
X0079451Y0101402D01*
X0079746Y0101107D01*
X0074432Y0093626D02*
X0073842Y0093921D01*
X0074432Y0093626D02*
X0075022Y0093036D01*
X0074137Y0093036D01*
X0073842Y0092741D01*
X0073842Y0092446D01*
X0074137Y0092151D01*
X0074727Y0092151D01*
X0075022Y0092446D01*
X0075022Y0093036D01*
D98*
X0045170Y0076799D02*
X0045170Y0074110D01*
X0044498Y0073437D01*
X0043153Y0073437D01*
X0042481Y0074110D01*
X0041182Y0073437D02*
X0038493Y0073437D01*
X0037195Y0073437D02*
X0034505Y0073437D01*
X0035850Y0073437D02*
X0035850Y0077472D01*
X0037195Y0076127D01*
X0039838Y0077472D02*
X0039838Y0073437D01*
X0041182Y0076127D02*
X0039838Y0077472D01*
X0042481Y0076799D02*
X0043153Y0077472D01*
X0044498Y0077472D01*
X0045170Y0076799D01*
X0084994Y0057896D02*
X0084994Y0057289D01*
X0085601Y0056683D01*
X0084994Y0056076D01*
X0084994Y0055469D01*
X0085601Y0054863D01*
X0086814Y0054863D01*
X0087421Y0055469D01*
X0088619Y0054863D02*
X0089833Y0056076D01*
X0089226Y0056076D02*
X0091046Y0056076D01*
X0091046Y0054863D02*
X0091046Y0058503D01*
X0089226Y0058503D01*
X0088619Y0057896D01*
X0088619Y0056683D01*
X0089226Y0056076D01*
X0087421Y0057896D02*
X0086814Y0058503D01*
X0085601Y0058503D01*
X0084994Y0057896D01*
X0085601Y0056683D02*
X0086208Y0056683D01*
X0134793Y0082179D02*
X0137220Y0079753D01*
X0137220Y0079146D01*
X0138418Y0079753D02*
X0139025Y0079146D01*
X0140239Y0079146D01*
X0140845Y0079753D01*
X0140845Y0082179D01*
X0140239Y0082786D01*
X0139025Y0082786D01*
X0138418Y0082179D01*
X0137220Y0082786D02*
X0134793Y0082786D01*
X0134793Y0082179D01*
X0157041Y0104469D02*
X0159468Y0104469D01*
X0157041Y0106896D01*
X0157041Y0107502D01*
X0157648Y0108109D01*
X0158861Y0108109D01*
X0159468Y0107502D01*
X0160667Y0107502D02*
X0161273Y0108109D01*
X0163093Y0108109D01*
X0163093Y0104469D01*
X0163093Y0105682D02*
X0161273Y0105682D01*
X0160667Y0106289D01*
X0160667Y0107502D01*
X0161880Y0105682D02*
X0160667Y0104469D01*
X0143626Y0124028D02*
X0142413Y0124028D01*
X0141806Y0124635D01*
X0140607Y0124028D02*
X0138181Y0124028D01*
X0139394Y0124028D02*
X0139394Y0127668D01*
X0140607Y0126455D01*
X0141806Y0127061D02*
X0142413Y0127668D01*
X0143626Y0127668D01*
X0144233Y0127061D01*
X0144233Y0124635D01*
X0143626Y0124028D01*
X0136982Y0124635D02*
X0136376Y0124028D01*
X0135162Y0124028D01*
X0134556Y0124635D01*
X0134556Y0125241D01*
X0135162Y0125848D01*
X0135769Y0125848D01*
X0135162Y0125848D02*
X0134556Y0126455D01*
X0134556Y0127061D01*
X0135162Y0127668D01*
X0136376Y0127668D01*
X0136982Y0127061D01*
X0132672Y0139902D02*
X0131458Y0139902D01*
X0130852Y0140509D01*
X0129653Y0139902D02*
X0127226Y0139902D01*
X0128440Y0139902D02*
X0128440Y0143542D01*
X0129653Y0142329D01*
X0130852Y0142935D02*
X0131458Y0143542D01*
X0132672Y0143542D01*
X0133278Y0142935D01*
X0133278Y0140509D01*
X0132672Y0139902D01*
X0139113Y0152650D02*
X0139113Y0155077D01*
X0140326Y0153864D02*
X0137900Y0153864D01*
X0126153Y0154619D02*
X0125546Y0154012D01*
X0124333Y0154012D01*
X0123726Y0154619D01*
X0123726Y0155226D01*
X0124333Y0155832D01*
X0126153Y0155832D01*
X0126153Y0154619D01*
X0126153Y0155832D02*
X0124940Y0157046D01*
X0123726Y0157652D01*
X0120248Y0154257D02*
X0117821Y0154257D01*
X0119034Y0153044D02*
X0119034Y0155471D01*
X0105287Y0155832D02*
X0104074Y0156439D01*
X0103467Y0156439D01*
X0102860Y0155832D01*
X0102860Y0154619D01*
X0103467Y0154012D01*
X0104680Y0154012D01*
X0105287Y0154619D01*
X0105287Y0155832D02*
X0105287Y0157652D01*
X0102860Y0157652D01*
X0100563Y0154257D02*
X0098136Y0154257D01*
X0099349Y0153044D02*
X0099349Y0155471D01*
X0095444Y0155832D02*
X0093018Y0155832D01*
X0093624Y0154012D02*
X0093624Y0157652D01*
X0095444Y0155832D01*
X0080484Y0154257D02*
X0078057Y0154257D01*
X0079270Y0153044D02*
X0079270Y0155471D01*
X0070248Y0155077D02*
X0069641Y0155684D01*
X0068428Y0155684D01*
X0067821Y0155077D01*
X0067821Y0154470D01*
X0068428Y0153864D01*
X0067821Y0153257D01*
X0067821Y0152650D01*
X0068428Y0152044D01*
X0069641Y0152044D01*
X0070248Y0152650D01*
X0069034Y0153864D02*
X0068428Y0153864D01*
X0060405Y0153864D02*
X0057978Y0153864D01*
X0059192Y0155077D02*
X0059192Y0152650D01*
X0054106Y0153225D02*
X0051679Y0155652D01*
X0051679Y0156258D01*
X0052286Y0156865D01*
X0053499Y0156865D01*
X0054106Y0156258D01*
X0054106Y0153225D02*
X0051679Y0153225D01*
X0040326Y0153864D02*
X0037900Y0153864D01*
X0039113Y0155077D02*
X0039113Y0152650D01*
X0026941Y0152831D02*
X0024514Y0152831D01*
X0025727Y0152831D02*
X0025727Y0156471D01*
X0026941Y0155258D01*
X0137237Y0044597D02*
X0136630Y0043991D01*
X0136630Y0041564D01*
X0137237Y0040957D01*
X0138450Y0040957D01*
X0139057Y0041564D01*
X0140256Y0040957D02*
X0142682Y0040957D01*
X0143881Y0040957D02*
X0145094Y0042170D01*
X0144487Y0042170D02*
X0146307Y0042170D01*
X0146307Y0040957D02*
X0146307Y0044597D01*
X0144487Y0044597D01*
X0143881Y0043991D01*
X0143881Y0042777D01*
X0144487Y0042170D01*
X0142682Y0043384D02*
X0141469Y0044597D01*
X0141469Y0040957D01*
X0139057Y0043384D02*
X0138450Y0042777D01*
X0136630Y0042777D01*
X0137237Y0044597D02*
X0138450Y0044597D01*
X0139057Y0043991D01*
X0139057Y0043384D01*
X0138844Y0022944D02*
X0137631Y0022944D01*
X0137024Y0022337D01*
X0137024Y0021730D01*
X0137631Y0021124D01*
X0138844Y0021124D01*
X0139451Y0021730D01*
X0139451Y0022337D01*
X0138844Y0022944D01*
X0138844Y0021124D02*
X0139451Y0020517D01*
X0139451Y0019910D01*
X0138844Y0019304D01*
X0137631Y0019304D01*
X0137024Y0019910D01*
X0137024Y0020517D01*
X0137631Y0021124D01*
X0140649Y0019304D02*
X0143076Y0019304D01*
X0144274Y0019304D02*
X0145488Y0020517D01*
X0144881Y0020517D02*
X0146701Y0020517D01*
X0146701Y0019304D02*
X0146701Y0022944D01*
X0144881Y0022944D01*
X0144274Y0022337D01*
X0144274Y0021124D01*
X0144881Y0020517D01*
X0143076Y0021730D02*
X0141863Y0022944D01*
X0141863Y0019304D01*
X0162737Y0134945D02*
X0166377Y0134945D01*
X0166377Y0136765D01*
X0165770Y0137371D01*
X0164557Y0137371D01*
X0163950Y0136765D01*
X0163950Y0134945D01*
X0163950Y0136158D02*
X0162737Y0137371D01*
X0162737Y0138570D02*
X0162737Y0140996D01*
X0162737Y0139783D02*
X0166377Y0139783D01*
X0165163Y0138570D01*
X0165770Y0142195D02*
X0166377Y0142802D01*
X0166377Y0144015D01*
X0165770Y0144622D01*
X0165163Y0144622D01*
X0164557Y0144015D01*
X0163950Y0144622D01*
X0163343Y0144622D01*
X0162737Y0144015D01*
X0162737Y0142802D01*
X0163343Y0142195D01*
X0164557Y0143408D02*
X0164557Y0144015D01*
D99*
X0126111Y0152895D02*
X0126111Y0125695D01*
X0122111Y0125695D01*
X0122111Y0128095D02*
X0126111Y0132095D01*
X0126111Y0152895D02*
X0122111Y0152895D01*
X0104511Y0152895D02*
X0100511Y0152895D01*
X0100511Y0125695D01*
X0104511Y0125695D01*
X0104511Y0128095D02*
X0100511Y0132095D01*
X0105425Y0088571D02*
X0094425Y0088571D01*
X0094365Y0088569D01*
X0094304Y0088564D01*
X0094245Y0088555D01*
X0094186Y0088542D01*
X0094127Y0088526D01*
X0094070Y0088506D01*
X0094015Y0088483D01*
X0093960Y0088456D01*
X0093908Y0088427D01*
X0093857Y0088394D01*
X0093808Y0088358D01*
X0093762Y0088320D01*
X0093718Y0088278D01*
X0093676Y0088234D01*
X0093638Y0088188D01*
X0093602Y0088139D01*
X0093569Y0088088D01*
X0093540Y0088036D01*
X0093513Y0087981D01*
X0093490Y0087926D01*
X0093470Y0087869D01*
X0093454Y0087810D01*
X0093441Y0087751D01*
X0093432Y0087692D01*
X0093427Y0087631D01*
X0093425Y0087571D01*
X0093425Y0081571D01*
X0093427Y0081511D01*
X0093432Y0081450D01*
X0093441Y0081391D01*
X0093454Y0081332D01*
X0093470Y0081273D01*
X0093490Y0081216D01*
X0093513Y0081161D01*
X0093540Y0081106D01*
X0093569Y0081054D01*
X0093602Y0081003D01*
X0093638Y0080954D01*
X0093676Y0080908D01*
X0093718Y0080864D01*
X0093762Y0080822D01*
X0093808Y0080784D01*
X0093857Y0080748D01*
X0093908Y0080715D01*
X0093960Y0080686D01*
X0094015Y0080659D01*
X0094070Y0080636D01*
X0094127Y0080616D01*
X0094186Y0080600D01*
X0094245Y0080587D01*
X0094304Y0080578D01*
X0094365Y0080573D01*
X0094425Y0080571D01*
X0105425Y0080571D01*
X0105485Y0080573D01*
X0105546Y0080578D01*
X0105605Y0080587D01*
X0105664Y0080600D01*
X0105723Y0080616D01*
X0105780Y0080636D01*
X0105835Y0080659D01*
X0105890Y0080686D01*
X0105942Y0080715D01*
X0105993Y0080748D01*
X0106042Y0080784D01*
X0106088Y0080822D01*
X0106132Y0080864D01*
X0106174Y0080908D01*
X0106212Y0080954D01*
X0106248Y0081003D01*
X0106281Y0081054D01*
X0106310Y0081106D01*
X0106337Y0081161D01*
X0106360Y0081216D01*
X0106380Y0081273D01*
X0106396Y0081332D01*
X0106409Y0081391D01*
X0106418Y0081450D01*
X0106423Y0081511D01*
X0106425Y0081571D01*
X0106425Y0087571D01*
X0106423Y0087631D01*
X0106418Y0087692D01*
X0106409Y0087751D01*
X0106396Y0087810D01*
X0106380Y0087869D01*
X0106360Y0087926D01*
X0106337Y0087981D01*
X0106310Y0088036D01*
X0106281Y0088088D01*
X0106248Y0088139D01*
X0106212Y0088188D01*
X0106174Y0088234D01*
X0106132Y0088278D01*
X0106088Y0088320D01*
X0106042Y0088358D01*
X0105993Y0088394D01*
X0105942Y0088427D01*
X0105890Y0088456D01*
X0105835Y0088483D01*
X0105780Y0088506D01*
X0105723Y0088526D01*
X0105664Y0088542D01*
X0105605Y0088555D01*
X0105546Y0088564D01*
X0105485Y0088569D01*
X0105425Y0088571D01*
X0111142Y0087965D02*
X0111142Y0081965D01*
X0111144Y0081905D01*
X0111149Y0081844D01*
X0111158Y0081785D01*
X0111171Y0081726D01*
X0111187Y0081667D01*
X0111207Y0081610D01*
X0111230Y0081555D01*
X0111257Y0081500D01*
X0111286Y0081448D01*
X0111319Y0081397D01*
X0111355Y0081348D01*
X0111393Y0081302D01*
X0111435Y0081258D01*
X0111479Y0081216D01*
X0111525Y0081178D01*
X0111574Y0081142D01*
X0111625Y0081109D01*
X0111677Y0081080D01*
X0111732Y0081053D01*
X0111787Y0081030D01*
X0111844Y0081010D01*
X0111903Y0080994D01*
X0111962Y0080981D01*
X0112021Y0080972D01*
X0112082Y0080967D01*
X0112142Y0080965D01*
X0123142Y0080965D01*
X0123202Y0080967D01*
X0123263Y0080972D01*
X0123322Y0080981D01*
X0123381Y0080994D01*
X0123440Y0081010D01*
X0123497Y0081030D01*
X0123552Y0081053D01*
X0123607Y0081080D01*
X0123659Y0081109D01*
X0123710Y0081142D01*
X0123759Y0081178D01*
X0123805Y0081216D01*
X0123849Y0081258D01*
X0123891Y0081302D01*
X0123929Y0081348D01*
X0123965Y0081397D01*
X0123998Y0081448D01*
X0124027Y0081500D01*
X0124054Y0081555D01*
X0124077Y0081610D01*
X0124097Y0081667D01*
X0124113Y0081726D01*
X0124126Y0081785D01*
X0124135Y0081844D01*
X0124140Y0081905D01*
X0124142Y0081965D01*
X0124142Y0087965D01*
X0124140Y0088025D01*
X0124135Y0088086D01*
X0124126Y0088145D01*
X0124113Y0088204D01*
X0124097Y0088263D01*
X0124077Y0088320D01*
X0124054Y0088375D01*
X0124027Y0088430D01*
X0123998Y0088482D01*
X0123965Y0088533D01*
X0123929Y0088582D01*
X0123891Y0088628D01*
X0123849Y0088672D01*
X0123805Y0088714D01*
X0123759Y0088752D01*
X0123710Y0088788D01*
X0123659Y0088821D01*
X0123607Y0088850D01*
X0123552Y0088877D01*
X0123497Y0088900D01*
X0123440Y0088920D01*
X0123381Y0088936D01*
X0123322Y0088949D01*
X0123263Y0088958D01*
X0123202Y0088963D01*
X0123142Y0088965D01*
X0112142Y0088965D01*
X0112082Y0088963D01*
X0112021Y0088958D01*
X0111962Y0088949D01*
X0111903Y0088936D01*
X0111844Y0088920D01*
X0111787Y0088900D01*
X0111732Y0088877D01*
X0111677Y0088850D01*
X0111625Y0088821D01*
X0111574Y0088788D01*
X0111525Y0088752D01*
X0111479Y0088714D01*
X0111435Y0088672D01*
X0111393Y0088628D01*
X0111355Y0088582D01*
X0111319Y0088533D01*
X0111286Y0088482D01*
X0111257Y0088430D01*
X0111230Y0088375D01*
X0111207Y0088320D01*
X0111187Y0088263D01*
X0111171Y0088204D01*
X0111158Y0088145D01*
X0111149Y0088086D01*
X0111144Y0088025D01*
X0111142Y0087965D01*
X0053289Y0126495D02*
X0026089Y0126495D01*
X0026089Y0130495D01*
X0026089Y0148095D02*
X0026089Y0152095D01*
X0053289Y0152095D01*
X0053289Y0148095D01*
X0050889Y0148095D02*
X0046889Y0152095D01*
X0050889Y0130495D02*
X0046889Y0126495D01*
X0053289Y0126495D02*
X0053289Y0130495D01*
D100*
X0043223Y0137554D02*
X0043223Y0141094D01*
X0043223Y0137554D02*
X0040863Y0137554D01*
X0039598Y0137554D02*
X0037238Y0137554D01*
X0038418Y0137554D02*
X0038418Y0141094D01*
X0039598Y0139914D01*
X0095795Y0119057D02*
X0095795Y0115517D01*
X0095205Y0117287D02*
X0097565Y0117287D01*
X0095795Y0119057D01*
X0098830Y0115517D02*
X0101190Y0115517D01*
X0101190Y0119057D01*
X0110466Y0127120D02*
X0111056Y0126530D01*
X0112236Y0126530D01*
X0112826Y0127120D01*
X0114091Y0126530D02*
X0116451Y0126530D01*
X0116451Y0130070D01*
X0112826Y0129480D02*
X0112236Y0130070D01*
X0111056Y0130070D01*
X0110466Y0129480D01*
X0110466Y0128890D01*
X0111056Y0128300D01*
X0110466Y0127710D01*
X0110466Y0127120D01*
X0111056Y0128300D02*
X0111646Y0128300D01*
X0114248Y0094047D02*
X0114248Y0090507D01*
X0115428Y0090507D02*
X0113068Y0090507D01*
X0115428Y0092867D02*
X0114248Y0094047D01*
X0116694Y0094047D02*
X0117874Y0094047D01*
X0117284Y0094047D02*
X0117284Y0091097D01*
X0117874Y0090507D01*
X0118464Y0090507D01*
X0119054Y0091097D01*
X0120319Y0091097D02*
X0120909Y0090507D01*
X0122089Y0090507D01*
X0122679Y0091097D01*
X0122089Y0092277D02*
X0120909Y0092277D01*
X0120319Y0091687D01*
X0120319Y0091097D01*
X0122089Y0092277D02*
X0122679Y0092867D01*
X0122679Y0093457D01*
X0122089Y0094047D01*
X0120909Y0094047D01*
X0120319Y0093457D01*
X0104962Y0093063D02*
X0104962Y0092473D01*
X0104372Y0091883D01*
X0103192Y0091883D01*
X0102602Y0091293D01*
X0102602Y0090703D01*
X0103192Y0090113D01*
X0104372Y0090113D01*
X0104962Y0090703D01*
X0104962Y0093063D02*
X0104372Y0093653D01*
X0103192Y0093653D01*
X0102602Y0093063D01*
X0100157Y0093653D02*
X0098977Y0093653D01*
X0099567Y0093653D02*
X0099567Y0090703D01*
X0100157Y0090113D01*
X0100747Y0090113D01*
X0101337Y0090703D01*
X0097712Y0090113D02*
X0095352Y0092473D01*
X0095352Y0093063D01*
X0095942Y0093653D01*
X0097122Y0093653D01*
X0097712Y0093063D01*
X0097712Y0090113D02*
X0095352Y0090113D01*
X0126193Y0058328D02*
X0128494Y0056026D01*
X0125425Y0056026D01*
X0126193Y0053724D02*
X0126193Y0058328D01*
X0130029Y0057560D02*
X0130029Y0056026D01*
X0130796Y0055258D01*
X0133098Y0055258D01*
X0131564Y0055258D02*
X0130029Y0053724D01*
X0133098Y0053724D02*
X0133098Y0058328D01*
X0130796Y0058328D01*
X0130029Y0057560D01*
D101*
X0138737Y0049526D03*
X0144537Y0049526D03*
X0144537Y0027478D03*
X0138737Y0027478D03*
X0151335Y0139289D03*
X0157135Y0139289D03*
D102*
X0159774Y0098474D03*
X0159774Y0092674D03*
X0129053Y0070169D03*
X0129053Y0064369D03*
X0088120Y0064328D03*
X0088120Y0070128D03*
M02*
