G75*
%MOIN*%
%OFA0B0*%
%FSLAX25Y25*%
%IPPOS*%
%LPD*%
%AMOC8*
5,1,8,0,0,1.08239X$1,22.5*
%
%ADD10C,0.00000*%
%ADD11R,0.01378X0.06693*%
%ADD12C,0.01000*%
%ADD13C,0.02381*%
%ADD14C,0.01600*%
%ADD15C,0.19685*%
%ADD16C,0.03562*%
D10*
X0013311Y0018636D02*
X0155043Y0018636D01*
X0155328Y0018639D01*
X0155614Y0018650D01*
X0155899Y0018667D01*
X0156183Y0018691D01*
X0156467Y0018722D01*
X0156750Y0018760D01*
X0157031Y0018805D01*
X0157312Y0018856D01*
X0157592Y0018914D01*
X0157870Y0018979D01*
X0158146Y0019051D01*
X0158420Y0019129D01*
X0158693Y0019214D01*
X0158963Y0019306D01*
X0159231Y0019404D01*
X0159497Y0019508D01*
X0159760Y0019619D01*
X0160020Y0019736D01*
X0160278Y0019859D01*
X0160532Y0019989D01*
X0160783Y0020125D01*
X0161031Y0020266D01*
X0161275Y0020414D01*
X0161516Y0020567D01*
X0161752Y0020727D01*
X0161985Y0020892D01*
X0162214Y0021062D01*
X0162439Y0021238D01*
X0162659Y0021420D01*
X0162875Y0021606D01*
X0163086Y0021798D01*
X0163293Y0021995D01*
X0163495Y0022197D01*
X0163692Y0022404D01*
X0163884Y0022615D01*
X0164070Y0022831D01*
X0164252Y0023051D01*
X0164428Y0023276D01*
X0164598Y0023505D01*
X0164763Y0023738D01*
X0164923Y0023974D01*
X0165076Y0024215D01*
X0165224Y0024459D01*
X0165365Y0024707D01*
X0165501Y0024958D01*
X0165631Y0025212D01*
X0165754Y0025470D01*
X0165871Y0025730D01*
X0165982Y0025993D01*
X0166086Y0026259D01*
X0166184Y0026527D01*
X0166276Y0026797D01*
X0166361Y0027070D01*
X0166439Y0027344D01*
X0166511Y0027620D01*
X0166576Y0027898D01*
X0166634Y0028178D01*
X0166685Y0028459D01*
X0166730Y0028740D01*
X0166768Y0029023D01*
X0166799Y0029307D01*
X0166823Y0029591D01*
X0166840Y0029876D01*
X0166851Y0030162D01*
X0166854Y0030447D01*
X0166854Y0172179D01*
X0166851Y0172464D01*
X0166840Y0172750D01*
X0166823Y0173035D01*
X0166799Y0173319D01*
X0166768Y0173603D01*
X0166730Y0173886D01*
X0166685Y0174167D01*
X0166634Y0174448D01*
X0166576Y0174728D01*
X0166511Y0175006D01*
X0166439Y0175282D01*
X0166361Y0175556D01*
X0166276Y0175829D01*
X0166184Y0176099D01*
X0166086Y0176367D01*
X0165982Y0176633D01*
X0165871Y0176896D01*
X0165754Y0177156D01*
X0165631Y0177414D01*
X0165501Y0177668D01*
X0165365Y0177919D01*
X0165224Y0178167D01*
X0165076Y0178411D01*
X0164923Y0178652D01*
X0164763Y0178888D01*
X0164598Y0179121D01*
X0164428Y0179350D01*
X0164252Y0179575D01*
X0164070Y0179795D01*
X0163884Y0180011D01*
X0163692Y0180222D01*
X0163495Y0180429D01*
X0163293Y0180631D01*
X0163086Y0180828D01*
X0162875Y0181020D01*
X0162659Y0181206D01*
X0162439Y0181388D01*
X0162214Y0181564D01*
X0161985Y0181734D01*
X0161752Y0181899D01*
X0161516Y0182059D01*
X0161275Y0182212D01*
X0161031Y0182360D01*
X0160783Y0182501D01*
X0160532Y0182637D01*
X0160278Y0182767D01*
X0160020Y0182890D01*
X0159760Y0183007D01*
X0159497Y0183118D01*
X0159231Y0183222D01*
X0158963Y0183320D01*
X0158693Y0183412D01*
X0158420Y0183497D01*
X0158146Y0183575D01*
X0157870Y0183647D01*
X0157592Y0183712D01*
X0157312Y0183770D01*
X0157031Y0183821D01*
X0156750Y0183866D01*
X0156467Y0183904D01*
X0156183Y0183935D01*
X0155899Y0183959D01*
X0155614Y0183976D01*
X0155328Y0183987D01*
X0155043Y0183990D01*
X0013311Y0183990D01*
X0013026Y0183987D01*
X0012740Y0183976D01*
X0012455Y0183959D01*
X0012171Y0183935D01*
X0011887Y0183904D01*
X0011604Y0183866D01*
X0011323Y0183821D01*
X0011042Y0183770D01*
X0010762Y0183712D01*
X0010484Y0183647D01*
X0010208Y0183575D01*
X0009934Y0183497D01*
X0009661Y0183412D01*
X0009391Y0183320D01*
X0009123Y0183222D01*
X0008857Y0183118D01*
X0008594Y0183007D01*
X0008334Y0182890D01*
X0008076Y0182767D01*
X0007822Y0182637D01*
X0007571Y0182501D01*
X0007323Y0182360D01*
X0007079Y0182212D01*
X0006838Y0182059D01*
X0006602Y0181899D01*
X0006369Y0181734D01*
X0006140Y0181564D01*
X0005915Y0181388D01*
X0005695Y0181206D01*
X0005479Y0181020D01*
X0005268Y0180828D01*
X0005061Y0180631D01*
X0004859Y0180429D01*
X0004662Y0180222D01*
X0004470Y0180011D01*
X0004284Y0179795D01*
X0004102Y0179575D01*
X0003926Y0179350D01*
X0003756Y0179121D01*
X0003591Y0178888D01*
X0003431Y0178652D01*
X0003278Y0178411D01*
X0003130Y0178167D01*
X0002989Y0177919D01*
X0002853Y0177668D01*
X0002723Y0177414D01*
X0002600Y0177156D01*
X0002483Y0176896D01*
X0002372Y0176633D01*
X0002268Y0176367D01*
X0002170Y0176099D01*
X0002078Y0175829D01*
X0001993Y0175556D01*
X0001915Y0175282D01*
X0001843Y0175006D01*
X0001778Y0174728D01*
X0001720Y0174448D01*
X0001669Y0174167D01*
X0001624Y0173886D01*
X0001586Y0173603D01*
X0001555Y0173319D01*
X0001531Y0173035D01*
X0001514Y0172750D01*
X0001503Y0172464D01*
X0001500Y0172179D01*
X0001500Y0030447D01*
X0001503Y0030162D01*
X0001514Y0029876D01*
X0001531Y0029591D01*
X0001555Y0029307D01*
X0001586Y0029023D01*
X0001624Y0028740D01*
X0001669Y0028459D01*
X0001720Y0028178D01*
X0001778Y0027898D01*
X0001843Y0027620D01*
X0001915Y0027344D01*
X0001993Y0027070D01*
X0002078Y0026797D01*
X0002170Y0026527D01*
X0002268Y0026259D01*
X0002372Y0025993D01*
X0002483Y0025730D01*
X0002600Y0025470D01*
X0002723Y0025212D01*
X0002853Y0024958D01*
X0002989Y0024707D01*
X0003130Y0024459D01*
X0003278Y0024215D01*
X0003431Y0023974D01*
X0003591Y0023738D01*
X0003756Y0023505D01*
X0003926Y0023276D01*
X0004102Y0023051D01*
X0004284Y0022831D01*
X0004470Y0022615D01*
X0004662Y0022404D01*
X0004859Y0022197D01*
X0005061Y0021995D01*
X0005268Y0021798D01*
X0005479Y0021606D01*
X0005695Y0021420D01*
X0005915Y0021238D01*
X0006140Y0021062D01*
X0006369Y0020892D01*
X0006602Y0020727D01*
X0006838Y0020567D01*
X0007079Y0020414D01*
X0007323Y0020266D01*
X0007571Y0020125D01*
X0007822Y0019989D01*
X0008076Y0019859D01*
X0008334Y0019736D01*
X0008594Y0019619D01*
X0008857Y0019508D01*
X0009123Y0019404D01*
X0009391Y0019306D01*
X0009661Y0019214D01*
X0009934Y0019129D01*
X0010208Y0019051D01*
X0010484Y0018979D01*
X0010762Y0018914D01*
X0011042Y0018856D01*
X0011323Y0018805D01*
X0011604Y0018760D01*
X0011887Y0018722D01*
X0012171Y0018691D01*
X0012455Y0018667D01*
X0012740Y0018650D01*
X0013026Y0018639D01*
X0013311Y0018636D01*
X0039098Y0052100D02*
X0039100Y0052174D01*
X0039106Y0052248D01*
X0039116Y0052321D01*
X0039130Y0052394D01*
X0039147Y0052466D01*
X0039169Y0052536D01*
X0039194Y0052606D01*
X0039223Y0052674D01*
X0039256Y0052740D01*
X0039292Y0052805D01*
X0039332Y0052867D01*
X0039374Y0052928D01*
X0039420Y0052986D01*
X0039469Y0053041D01*
X0039521Y0053094D01*
X0039576Y0053144D01*
X0039633Y0053190D01*
X0039693Y0053234D01*
X0039755Y0053274D01*
X0039819Y0053311D01*
X0039885Y0053345D01*
X0039953Y0053375D01*
X0040022Y0053401D01*
X0040093Y0053424D01*
X0040164Y0053442D01*
X0040237Y0053457D01*
X0040310Y0053468D01*
X0040384Y0053475D01*
X0040458Y0053478D01*
X0040531Y0053477D01*
X0040605Y0053472D01*
X0040679Y0053463D01*
X0040752Y0053450D01*
X0040824Y0053433D01*
X0040895Y0053413D01*
X0040965Y0053388D01*
X0041033Y0053360D01*
X0041100Y0053329D01*
X0041165Y0053293D01*
X0041228Y0053255D01*
X0041289Y0053213D01*
X0041348Y0053167D01*
X0041404Y0053119D01*
X0041457Y0053068D01*
X0041507Y0053014D01*
X0041555Y0052957D01*
X0041599Y0052898D01*
X0041641Y0052836D01*
X0041679Y0052773D01*
X0041713Y0052707D01*
X0041744Y0052640D01*
X0041771Y0052571D01*
X0041794Y0052501D01*
X0041814Y0052430D01*
X0041830Y0052357D01*
X0041842Y0052284D01*
X0041850Y0052211D01*
X0041854Y0052137D01*
X0041854Y0052063D01*
X0041850Y0051989D01*
X0041842Y0051916D01*
X0041830Y0051843D01*
X0041814Y0051770D01*
X0041794Y0051699D01*
X0041771Y0051629D01*
X0041744Y0051560D01*
X0041713Y0051493D01*
X0041679Y0051427D01*
X0041641Y0051364D01*
X0041599Y0051302D01*
X0041555Y0051243D01*
X0041507Y0051186D01*
X0041457Y0051132D01*
X0041404Y0051081D01*
X0041348Y0051033D01*
X0041289Y0050987D01*
X0041228Y0050945D01*
X0041165Y0050907D01*
X0041100Y0050871D01*
X0041033Y0050840D01*
X0040965Y0050812D01*
X0040895Y0050787D01*
X0040824Y0050767D01*
X0040752Y0050750D01*
X0040679Y0050737D01*
X0040605Y0050728D01*
X0040531Y0050723D01*
X0040458Y0050722D01*
X0040384Y0050725D01*
X0040310Y0050732D01*
X0040237Y0050743D01*
X0040164Y0050758D01*
X0040093Y0050776D01*
X0040022Y0050799D01*
X0039953Y0050825D01*
X0039885Y0050855D01*
X0039819Y0050889D01*
X0039755Y0050926D01*
X0039693Y0050966D01*
X0039633Y0051010D01*
X0039576Y0051056D01*
X0039521Y0051106D01*
X0039469Y0051159D01*
X0039420Y0051214D01*
X0039374Y0051272D01*
X0039332Y0051333D01*
X0039292Y0051395D01*
X0039256Y0051460D01*
X0039223Y0051526D01*
X0039194Y0051594D01*
X0039169Y0051664D01*
X0039147Y0051734D01*
X0039130Y0051806D01*
X0039116Y0051879D01*
X0039106Y0051952D01*
X0039100Y0052026D01*
X0039098Y0052100D01*
X0039098Y0053281D02*
X0039100Y0053355D01*
X0039106Y0053429D01*
X0039116Y0053502D01*
X0039130Y0053575D01*
X0039147Y0053647D01*
X0039169Y0053717D01*
X0039194Y0053787D01*
X0039223Y0053855D01*
X0039256Y0053921D01*
X0039292Y0053986D01*
X0039332Y0054048D01*
X0039374Y0054109D01*
X0039420Y0054167D01*
X0039469Y0054222D01*
X0039521Y0054275D01*
X0039576Y0054325D01*
X0039633Y0054371D01*
X0039693Y0054415D01*
X0039755Y0054455D01*
X0039819Y0054492D01*
X0039885Y0054526D01*
X0039953Y0054556D01*
X0040022Y0054582D01*
X0040093Y0054605D01*
X0040164Y0054623D01*
X0040237Y0054638D01*
X0040310Y0054649D01*
X0040384Y0054656D01*
X0040458Y0054659D01*
X0040531Y0054658D01*
X0040605Y0054653D01*
X0040679Y0054644D01*
X0040752Y0054631D01*
X0040824Y0054614D01*
X0040895Y0054594D01*
X0040965Y0054569D01*
X0041033Y0054541D01*
X0041100Y0054510D01*
X0041165Y0054474D01*
X0041228Y0054436D01*
X0041289Y0054394D01*
X0041348Y0054348D01*
X0041404Y0054300D01*
X0041457Y0054249D01*
X0041507Y0054195D01*
X0041555Y0054138D01*
X0041599Y0054079D01*
X0041641Y0054017D01*
X0041679Y0053954D01*
X0041713Y0053888D01*
X0041744Y0053821D01*
X0041771Y0053752D01*
X0041794Y0053682D01*
X0041814Y0053611D01*
X0041830Y0053538D01*
X0041842Y0053465D01*
X0041850Y0053392D01*
X0041854Y0053318D01*
X0041854Y0053244D01*
X0041850Y0053170D01*
X0041842Y0053097D01*
X0041830Y0053024D01*
X0041814Y0052951D01*
X0041794Y0052880D01*
X0041771Y0052810D01*
X0041744Y0052741D01*
X0041713Y0052674D01*
X0041679Y0052608D01*
X0041641Y0052545D01*
X0041599Y0052483D01*
X0041555Y0052424D01*
X0041507Y0052367D01*
X0041457Y0052313D01*
X0041404Y0052262D01*
X0041348Y0052214D01*
X0041289Y0052168D01*
X0041228Y0052126D01*
X0041165Y0052088D01*
X0041100Y0052052D01*
X0041033Y0052021D01*
X0040965Y0051993D01*
X0040895Y0051968D01*
X0040824Y0051948D01*
X0040752Y0051931D01*
X0040679Y0051918D01*
X0040605Y0051909D01*
X0040531Y0051904D01*
X0040458Y0051903D01*
X0040384Y0051906D01*
X0040310Y0051913D01*
X0040237Y0051924D01*
X0040164Y0051939D01*
X0040093Y0051957D01*
X0040022Y0051980D01*
X0039953Y0052006D01*
X0039885Y0052036D01*
X0039819Y0052070D01*
X0039755Y0052107D01*
X0039693Y0052147D01*
X0039633Y0052191D01*
X0039576Y0052237D01*
X0039521Y0052287D01*
X0039469Y0052340D01*
X0039420Y0052395D01*
X0039374Y0052453D01*
X0039332Y0052514D01*
X0039292Y0052576D01*
X0039256Y0052641D01*
X0039223Y0052707D01*
X0039194Y0052775D01*
X0039169Y0052845D01*
X0039147Y0052915D01*
X0039130Y0052987D01*
X0039116Y0053060D01*
X0039106Y0053133D01*
X0039100Y0053207D01*
X0039098Y0053281D01*
X0125713Y0053281D02*
X0125715Y0053374D01*
X0125721Y0053466D01*
X0125731Y0053558D01*
X0125745Y0053649D01*
X0125762Y0053740D01*
X0125784Y0053830D01*
X0125809Y0053919D01*
X0125838Y0054007D01*
X0125871Y0054093D01*
X0125908Y0054178D01*
X0125948Y0054262D01*
X0125992Y0054343D01*
X0126039Y0054423D01*
X0126089Y0054501D01*
X0126143Y0054576D01*
X0126200Y0054649D01*
X0126260Y0054719D01*
X0126323Y0054787D01*
X0126389Y0054852D01*
X0126457Y0054914D01*
X0126528Y0054974D01*
X0126602Y0055030D01*
X0126678Y0055083D01*
X0126756Y0055132D01*
X0126836Y0055179D01*
X0126918Y0055221D01*
X0127002Y0055261D01*
X0127087Y0055296D01*
X0127174Y0055328D01*
X0127262Y0055357D01*
X0127351Y0055381D01*
X0127441Y0055402D01*
X0127532Y0055418D01*
X0127624Y0055431D01*
X0127716Y0055440D01*
X0127809Y0055445D01*
X0127901Y0055446D01*
X0127994Y0055443D01*
X0128086Y0055436D01*
X0128178Y0055425D01*
X0128269Y0055410D01*
X0128360Y0055392D01*
X0128450Y0055369D01*
X0128538Y0055343D01*
X0128626Y0055313D01*
X0128712Y0055279D01*
X0128796Y0055242D01*
X0128879Y0055200D01*
X0128960Y0055156D01*
X0129040Y0055108D01*
X0129117Y0055057D01*
X0129191Y0055002D01*
X0129264Y0054944D01*
X0129334Y0054884D01*
X0129401Y0054820D01*
X0129465Y0054754D01*
X0129527Y0054684D01*
X0129585Y0054613D01*
X0129640Y0054539D01*
X0129692Y0054462D01*
X0129741Y0054383D01*
X0129787Y0054303D01*
X0129829Y0054220D01*
X0129867Y0054136D01*
X0129902Y0054050D01*
X0129933Y0053963D01*
X0129960Y0053875D01*
X0129983Y0053785D01*
X0130003Y0053695D01*
X0130019Y0053604D01*
X0130031Y0053512D01*
X0130039Y0053420D01*
X0130043Y0053327D01*
X0130043Y0053235D01*
X0130039Y0053142D01*
X0130031Y0053050D01*
X0130019Y0052958D01*
X0130003Y0052867D01*
X0129983Y0052777D01*
X0129960Y0052687D01*
X0129933Y0052599D01*
X0129902Y0052512D01*
X0129867Y0052426D01*
X0129829Y0052342D01*
X0129787Y0052259D01*
X0129741Y0052179D01*
X0129692Y0052100D01*
X0129640Y0052023D01*
X0129585Y0051949D01*
X0129527Y0051878D01*
X0129465Y0051808D01*
X0129401Y0051742D01*
X0129334Y0051678D01*
X0129264Y0051618D01*
X0129191Y0051560D01*
X0129117Y0051505D01*
X0129040Y0051454D01*
X0128961Y0051406D01*
X0128879Y0051362D01*
X0128796Y0051320D01*
X0128712Y0051283D01*
X0128626Y0051249D01*
X0128538Y0051219D01*
X0128450Y0051193D01*
X0128360Y0051170D01*
X0128269Y0051152D01*
X0128178Y0051137D01*
X0128086Y0051126D01*
X0127994Y0051119D01*
X0127901Y0051116D01*
X0127809Y0051117D01*
X0127716Y0051122D01*
X0127624Y0051131D01*
X0127532Y0051144D01*
X0127441Y0051160D01*
X0127351Y0051181D01*
X0127262Y0051205D01*
X0127174Y0051234D01*
X0127087Y0051266D01*
X0127002Y0051301D01*
X0126918Y0051341D01*
X0126836Y0051383D01*
X0126756Y0051430D01*
X0126678Y0051479D01*
X0126602Y0051532D01*
X0126528Y0051588D01*
X0126457Y0051648D01*
X0126389Y0051710D01*
X0126323Y0051775D01*
X0126260Y0051843D01*
X0126200Y0051913D01*
X0126143Y0051986D01*
X0126089Y0052061D01*
X0126039Y0052139D01*
X0125992Y0052219D01*
X0125948Y0052300D01*
X0125908Y0052384D01*
X0125871Y0052469D01*
X0125838Y0052555D01*
X0125809Y0052643D01*
X0125784Y0052732D01*
X0125762Y0052822D01*
X0125745Y0052913D01*
X0125731Y0053004D01*
X0125721Y0053096D01*
X0125715Y0053188D01*
X0125713Y0053281D01*
X0125713Y0052100D02*
X0125715Y0052193D01*
X0125721Y0052285D01*
X0125731Y0052377D01*
X0125745Y0052468D01*
X0125762Y0052559D01*
X0125784Y0052649D01*
X0125809Y0052738D01*
X0125838Y0052826D01*
X0125871Y0052912D01*
X0125908Y0052997D01*
X0125948Y0053081D01*
X0125992Y0053162D01*
X0126039Y0053242D01*
X0126089Y0053320D01*
X0126143Y0053395D01*
X0126200Y0053468D01*
X0126260Y0053538D01*
X0126323Y0053606D01*
X0126389Y0053671D01*
X0126457Y0053733D01*
X0126528Y0053793D01*
X0126602Y0053849D01*
X0126678Y0053902D01*
X0126756Y0053951D01*
X0126836Y0053998D01*
X0126918Y0054040D01*
X0127002Y0054080D01*
X0127087Y0054115D01*
X0127174Y0054147D01*
X0127262Y0054176D01*
X0127351Y0054200D01*
X0127441Y0054221D01*
X0127532Y0054237D01*
X0127624Y0054250D01*
X0127716Y0054259D01*
X0127809Y0054264D01*
X0127901Y0054265D01*
X0127994Y0054262D01*
X0128086Y0054255D01*
X0128178Y0054244D01*
X0128269Y0054229D01*
X0128360Y0054211D01*
X0128450Y0054188D01*
X0128538Y0054162D01*
X0128626Y0054132D01*
X0128712Y0054098D01*
X0128796Y0054061D01*
X0128879Y0054019D01*
X0128960Y0053975D01*
X0129040Y0053927D01*
X0129117Y0053876D01*
X0129191Y0053821D01*
X0129264Y0053763D01*
X0129334Y0053703D01*
X0129401Y0053639D01*
X0129465Y0053573D01*
X0129527Y0053503D01*
X0129585Y0053432D01*
X0129640Y0053358D01*
X0129692Y0053281D01*
X0129741Y0053202D01*
X0129787Y0053122D01*
X0129829Y0053039D01*
X0129867Y0052955D01*
X0129902Y0052869D01*
X0129933Y0052782D01*
X0129960Y0052694D01*
X0129983Y0052604D01*
X0130003Y0052514D01*
X0130019Y0052423D01*
X0130031Y0052331D01*
X0130039Y0052239D01*
X0130043Y0052146D01*
X0130043Y0052054D01*
X0130039Y0051961D01*
X0130031Y0051869D01*
X0130019Y0051777D01*
X0130003Y0051686D01*
X0129983Y0051596D01*
X0129960Y0051506D01*
X0129933Y0051418D01*
X0129902Y0051331D01*
X0129867Y0051245D01*
X0129829Y0051161D01*
X0129787Y0051078D01*
X0129741Y0050998D01*
X0129692Y0050919D01*
X0129640Y0050842D01*
X0129585Y0050768D01*
X0129527Y0050697D01*
X0129465Y0050627D01*
X0129401Y0050561D01*
X0129334Y0050497D01*
X0129264Y0050437D01*
X0129191Y0050379D01*
X0129117Y0050324D01*
X0129040Y0050273D01*
X0128961Y0050225D01*
X0128879Y0050181D01*
X0128796Y0050139D01*
X0128712Y0050102D01*
X0128626Y0050068D01*
X0128538Y0050038D01*
X0128450Y0050012D01*
X0128360Y0049989D01*
X0128269Y0049971D01*
X0128178Y0049956D01*
X0128086Y0049945D01*
X0127994Y0049938D01*
X0127901Y0049935D01*
X0127809Y0049936D01*
X0127716Y0049941D01*
X0127624Y0049950D01*
X0127532Y0049963D01*
X0127441Y0049979D01*
X0127351Y0050000D01*
X0127262Y0050024D01*
X0127174Y0050053D01*
X0127087Y0050085D01*
X0127002Y0050120D01*
X0126918Y0050160D01*
X0126836Y0050202D01*
X0126756Y0050249D01*
X0126678Y0050298D01*
X0126602Y0050351D01*
X0126528Y0050407D01*
X0126457Y0050467D01*
X0126389Y0050529D01*
X0126323Y0050594D01*
X0126260Y0050662D01*
X0126200Y0050732D01*
X0126143Y0050805D01*
X0126089Y0050880D01*
X0126039Y0050958D01*
X0125992Y0051038D01*
X0125948Y0051119D01*
X0125908Y0051203D01*
X0125871Y0051288D01*
X0125838Y0051374D01*
X0125809Y0051462D01*
X0125784Y0051551D01*
X0125762Y0051641D01*
X0125745Y0051732D01*
X0125731Y0051823D01*
X0125721Y0051915D01*
X0125715Y0052007D01*
X0125713Y0052100D01*
D11*
X0118429Y0057415D03*
X0116067Y0057415D03*
X0113705Y0057415D03*
X0111343Y0057415D03*
X0108980Y0057415D03*
X0106618Y0057415D03*
X0104256Y0057415D03*
X0101894Y0057415D03*
X0099531Y0057415D03*
X0097169Y0057415D03*
X0094807Y0057415D03*
X0092445Y0057415D03*
X0090083Y0057415D03*
X0087720Y0057415D03*
X0085358Y0057415D03*
X0082996Y0057415D03*
X0080634Y0057415D03*
X0078272Y0057415D03*
X0075909Y0057415D03*
X0073547Y0057415D03*
X0071185Y0057415D03*
X0068823Y0057415D03*
X0066461Y0057415D03*
X0064098Y0057415D03*
X0061736Y0057415D03*
X0059374Y0057415D03*
X0057012Y0057415D03*
X0054650Y0057415D03*
X0052287Y0057415D03*
X0049925Y0057415D03*
X0049925Y0034974D03*
X0052287Y0034974D03*
X0054650Y0034974D03*
X0057012Y0034974D03*
X0059374Y0034974D03*
X0061736Y0034974D03*
X0064098Y0034974D03*
X0066461Y0034974D03*
X0068823Y0034974D03*
X0071185Y0034974D03*
X0073547Y0034974D03*
X0075909Y0034974D03*
X0078272Y0034974D03*
X0080634Y0034974D03*
X0082996Y0034974D03*
X0085358Y0034974D03*
X0087720Y0034974D03*
X0090083Y0034974D03*
X0092445Y0034974D03*
X0094807Y0034974D03*
X0097169Y0034974D03*
X0099531Y0034974D03*
X0101894Y0034974D03*
X0104256Y0034974D03*
X0106618Y0034974D03*
X0108980Y0034974D03*
X0111343Y0034974D03*
X0113705Y0034974D03*
X0116067Y0034974D03*
X0118429Y0034974D03*
D12*
X0118429Y0028281D01*
X0116622Y0030007D02*
X0116312Y0029696D01*
X0115931Y0028778D01*
X0115931Y0027785D01*
X0116312Y0026867D01*
X0117014Y0026164D01*
X0117932Y0025784D01*
X0118926Y0025784D01*
X0119844Y0026164D01*
X0120547Y0026867D01*
X0120927Y0027785D01*
X0120927Y0028778D01*
X0120547Y0029696D01*
X0120236Y0030007D01*
X0120236Y0030898D01*
X0120425Y0031087D01*
X0120425Y0038862D01*
X0119660Y0039628D01*
X0110405Y0039628D01*
X0110248Y0039719D01*
X0109867Y0039821D01*
X0108980Y0039821D01*
X0108094Y0039821D01*
X0107799Y0039742D01*
X0107505Y0039821D01*
X0106618Y0039821D01*
X0105732Y0039821D01*
X0105437Y0039742D01*
X0105142Y0039821D01*
X0104256Y0039821D01*
X0104256Y0034975D01*
X0104256Y0034975D01*
X0104256Y0039821D01*
X0103369Y0039821D01*
X0103075Y0039742D01*
X0102780Y0039821D01*
X0101894Y0039821D01*
X0101894Y0034975D01*
X0101894Y0034975D01*
X0101894Y0034974D02*
X0104256Y0034974D01*
X0104256Y0030128D01*
X0105142Y0030128D01*
X0105437Y0030207D01*
X0105732Y0030128D01*
X0106618Y0030128D01*
X0106618Y0034974D01*
X0106618Y0034974D01*
X0106618Y0030128D01*
X0107505Y0030128D01*
X0107799Y0030207D01*
X0108094Y0030128D01*
X0108980Y0030128D01*
X0108980Y0034974D01*
X0108980Y0034974D01*
X0106791Y0034974D01*
X0106618Y0034974D01*
X0104429Y0034974D01*
X0104256Y0034974D01*
X0104256Y0034974D01*
X0104256Y0030128D01*
X0103369Y0030128D01*
X0103075Y0030207D01*
X0102780Y0030128D01*
X0101894Y0030128D01*
X0101894Y0034974D01*
X0101894Y0034974D01*
X0101894Y0034974D01*
X0102067Y0034974D01*
X0104256Y0034974D01*
X0104256Y0034974D01*
X0104256Y0034974D01*
X0101894Y0034974D01*
X0101894Y0030128D01*
X0101007Y0030128D01*
X0100626Y0030230D01*
X0100469Y0030321D01*
X0094528Y0030321D01*
X0094562Y0030287D01*
X0094943Y0029369D01*
X0094943Y0028375D01*
X0094562Y0027457D01*
X0093860Y0026755D01*
X0092942Y0026374D01*
X0091948Y0026374D01*
X0091030Y0026755D01*
X0090327Y0027457D01*
X0089947Y0028375D01*
X0089947Y0029369D01*
X0090262Y0030128D01*
X0090083Y0030128D01*
X0090083Y0034974D01*
X0090083Y0034974D01*
X0090083Y0030128D01*
X0089196Y0030128D01*
X0088902Y0030207D01*
X0088607Y0030128D01*
X0087721Y0030128D01*
X0087721Y0034974D01*
X0087721Y0034974D01*
X0089909Y0034974D01*
X0090083Y0034974D01*
X0090083Y0043439D01*
X0094807Y0048163D01*
X0094807Y0048557D01*
X0095988Y0047376D01*
X0100713Y0047376D01*
X0101894Y0046195D01*
X0101894Y0034974D01*
X0101894Y0028872D01*
X0101894Y0030618D02*
X0101894Y0030618D01*
X0101894Y0031616D02*
X0101894Y0031616D01*
X0101894Y0032615D02*
X0101894Y0032615D01*
X0101894Y0033613D02*
X0101894Y0033613D01*
X0101894Y0034612D02*
X0101894Y0034612D01*
X0101894Y0034975D02*
X0101894Y0039821D01*
X0101007Y0039821D01*
X0100626Y0039719D01*
X0100469Y0039628D01*
X0091508Y0039628D01*
X0091351Y0039719D01*
X0090969Y0039821D01*
X0090083Y0039821D01*
X0090083Y0034975D01*
X0090083Y0034975D01*
X0090083Y0039821D01*
X0089196Y0039821D01*
X0088902Y0039742D01*
X0088607Y0039821D01*
X0087721Y0039821D01*
X0087721Y0034975D01*
X0087720Y0034975D01*
X0087720Y0039821D01*
X0086834Y0039821D01*
X0086539Y0039742D01*
X0086245Y0039821D01*
X0085358Y0039821D01*
X0084472Y0039821D01*
X0084177Y0039742D01*
X0083883Y0039821D01*
X0082996Y0039821D01*
X0082110Y0039821D01*
X0081728Y0039719D01*
X0081571Y0039628D01*
X0054094Y0039628D01*
X0054094Y0043006D01*
X0053036Y0044065D01*
X0052520Y0044581D01*
X0051461Y0045640D01*
X0042583Y0045640D01*
X0042583Y0045887D01*
X0039040Y0049430D01*
X0039040Y0049580D01*
X0039904Y0049222D01*
X0041049Y0049222D01*
X0042107Y0049661D01*
X0042916Y0050470D01*
X0043354Y0051528D01*
X0043354Y0052673D01*
X0043347Y0052691D01*
X0043354Y0052709D01*
X0043354Y0053854D01*
X0042916Y0054912D01*
X0042107Y0055721D01*
X0041049Y0056159D01*
X0039904Y0056159D01*
X0039040Y0055802D01*
X0039040Y0088629D01*
X0062662Y0112251D01*
X0062662Y0163274D01*
X0062673Y0163284D01*
X0063053Y0164202D01*
X0063053Y0165196D01*
X0062673Y0166114D01*
X0061970Y0166816D01*
X0061052Y0167196D01*
X0060058Y0167196D01*
X0059140Y0166816D01*
X0058438Y0166114D01*
X0058057Y0165196D01*
X0058057Y0164202D01*
X0058438Y0163284D01*
X0058448Y0163274D01*
X0058448Y0113997D01*
X0036060Y0091609D01*
X0035103Y0090652D01*
X0035103Y0090991D01*
X0046914Y0102802D01*
X0046914Y0162880D01*
X0046924Y0162890D01*
X0047305Y0163808D01*
X0047305Y0164802D01*
X0046924Y0165720D01*
X0046222Y0166423D01*
X0045304Y0166803D01*
X0044310Y0166803D01*
X0043392Y0166423D01*
X0042690Y0165720D01*
X0042309Y0164802D01*
X0042309Y0163808D01*
X0042690Y0162890D01*
X0042700Y0162880D01*
X0042700Y0104548D01*
X0032123Y0093971D01*
X0031166Y0093014D01*
X0031166Y0162880D01*
X0031176Y0162890D01*
X0031557Y0163808D01*
X0031557Y0164802D01*
X0031176Y0165720D01*
X0030474Y0166423D01*
X0029556Y0166803D01*
X0028562Y0166803D01*
X0027644Y0166423D01*
X0026942Y0165720D01*
X0026561Y0164802D01*
X0026561Y0163808D01*
X0026942Y0162890D01*
X0026952Y0162880D01*
X0026952Y0029574D01*
X0036390Y0020136D01*
X0017751Y0020136D01*
X0020157Y0021525D01*
X0022233Y0023601D01*
X0023701Y0026143D01*
X0024461Y0028979D01*
X0024461Y0031915D01*
X0023701Y0034750D01*
X0022233Y0037293D01*
X0020157Y0039369D01*
X0017615Y0040837D01*
X0014779Y0041596D01*
X0011843Y0041596D01*
X0009007Y0040837D01*
X0006465Y0039369D01*
X0004389Y0037293D01*
X0003000Y0034887D01*
X0003000Y0167739D01*
X0004389Y0165333D01*
X0006465Y0163257D01*
X0009007Y0161789D01*
X0011843Y0161030D01*
X0014779Y0161030D01*
X0017615Y0161789D01*
X0020157Y0163257D01*
X0022233Y0165333D01*
X0023701Y0167876D01*
X0024461Y0170711D01*
X0024461Y0173647D01*
X0023701Y0176483D01*
X0022233Y0179025D01*
X0020157Y0181101D01*
X0017751Y0182490D01*
X0150603Y0182490D01*
X0148197Y0181101D01*
X0146121Y0179025D01*
X0144654Y0176483D01*
X0143894Y0173647D01*
X0143894Y0170711D01*
X0144654Y0167876D01*
X0146121Y0165333D01*
X0148197Y0163257D01*
X0150740Y0161789D01*
X0153575Y0161030D01*
X0156511Y0161030D01*
X0159347Y0161789D01*
X0161889Y0163257D01*
X0163965Y0165333D01*
X0165354Y0167739D01*
X0165354Y0034887D01*
X0163965Y0037293D01*
X0161889Y0039369D01*
X0159347Y0040837D01*
X0156511Y0041596D01*
X0153575Y0041596D01*
X0150740Y0040837D01*
X0148197Y0039369D01*
X0146121Y0037293D01*
X0144654Y0034750D01*
X0143894Y0031915D01*
X0143894Y0028979D01*
X0144654Y0026143D01*
X0146121Y0023601D01*
X0148197Y0021525D01*
X0150603Y0020136D01*
X0055586Y0020136D01*
X0056757Y0021306D01*
X0056757Y0024691D01*
X0056767Y0024701D01*
X0057012Y0025292D01*
X0057257Y0024701D01*
X0057959Y0023999D01*
X0058877Y0023619D01*
X0059871Y0023619D01*
X0060789Y0023999D01*
X0061491Y0024701D01*
X0061736Y0025292D01*
X0061981Y0024701D01*
X0062684Y0023999D01*
X0063602Y0023619D01*
X0064595Y0023619D01*
X0065513Y0023999D01*
X0066216Y0024701D01*
X0066461Y0025292D01*
X0066705Y0024701D01*
X0067408Y0023999D01*
X0068326Y0023619D01*
X0069320Y0023619D01*
X0070238Y0023999D01*
X0070940Y0024701D01*
X0071185Y0025292D01*
X0071430Y0024701D01*
X0072132Y0023999D01*
X0073050Y0023619D01*
X0073489Y0023619D01*
X0075555Y0021553D01*
X0123115Y0021553D01*
X0135984Y0034423D01*
X0135984Y0057573D01*
X0134926Y0058632D01*
X0125798Y0067759D01*
X0125665Y0068082D01*
X0124962Y0068785D01*
X0124044Y0069165D01*
X0123050Y0069165D01*
X0122132Y0068785D01*
X0121430Y0068082D01*
X0121050Y0067164D01*
X0121050Y0066170D01*
X0121430Y0065253D01*
X0122132Y0064550D01*
X0123050Y0064170D01*
X0124044Y0064170D01*
X0124209Y0064238D01*
X0132370Y0056076D01*
X0132370Y0035920D01*
X0121618Y0025167D01*
X0080582Y0025167D01*
X0080769Y0025619D01*
X0080769Y0026613D01*
X0080705Y0026768D01*
X0081131Y0026768D01*
X0082049Y0027148D01*
X0082751Y0027851D01*
X0083131Y0028769D01*
X0083131Y0029763D01*
X0082980Y0030128D01*
X0082996Y0030128D01*
X0082996Y0034974D01*
X0082996Y0034974D01*
X0082996Y0030128D01*
X0083883Y0030128D01*
X0084177Y0030207D01*
X0084472Y0030128D01*
X0085358Y0030128D01*
X0085358Y0034974D01*
X0085358Y0034974D01*
X0083169Y0034974D01*
X0082996Y0034974D01*
X0082996Y0034974D01*
X0082996Y0026116D01*
X0082523Y0027622D02*
X0090259Y0027622D01*
X0089947Y0028621D02*
X0083070Y0028621D01*
X0083131Y0029619D02*
X0090051Y0029619D01*
X0090083Y0030618D02*
X0090083Y0030618D01*
X0090083Y0031616D02*
X0090083Y0031616D01*
X0090083Y0032615D02*
X0090083Y0032615D01*
X0090083Y0033613D02*
X0090083Y0033613D01*
X0090083Y0034612D02*
X0090083Y0034612D01*
X0090083Y0034974D02*
X0090083Y0034974D01*
X0087720Y0034974D01*
X0087721Y0034974D01*
X0090083Y0034974D01*
X0090083Y0035611D02*
X0090083Y0035611D01*
X0090083Y0036609D02*
X0090083Y0036609D01*
X0090083Y0037608D02*
X0090083Y0037608D01*
X0090083Y0038606D02*
X0090083Y0038606D01*
X0090083Y0039605D02*
X0090083Y0039605D01*
X0092445Y0037140D02*
X0092445Y0034974D01*
X0092445Y0028872D01*
X0093544Y0026624D02*
X0116555Y0026624D01*
X0115999Y0027622D02*
X0094631Y0027622D01*
X0094943Y0028621D02*
X0115931Y0028621D01*
X0116280Y0029619D02*
X0094839Y0029619D01*
X0091346Y0026624D02*
X0080765Y0026624D01*
X0080769Y0025625D02*
X0122076Y0025625D01*
X0123074Y0026624D02*
X0120304Y0026624D01*
X0120860Y0027622D02*
X0124073Y0027622D01*
X0125071Y0028621D02*
X0120927Y0028621D01*
X0120578Y0029619D02*
X0126070Y0029619D01*
X0127068Y0030618D02*
X0120236Y0030618D01*
X0120425Y0031616D02*
X0128067Y0031616D01*
X0129065Y0032615D02*
X0120425Y0032615D01*
X0120425Y0033613D02*
X0130064Y0033613D01*
X0131062Y0034612D02*
X0120425Y0034612D01*
X0120425Y0035611D02*
X0132061Y0035611D01*
X0132370Y0036609D02*
X0120425Y0036609D01*
X0120425Y0037608D02*
X0132370Y0037608D01*
X0132370Y0038606D02*
X0120425Y0038606D01*
X0119683Y0039605D02*
X0132370Y0039605D01*
X0132370Y0040603D02*
X0054094Y0040603D01*
X0054094Y0041602D02*
X0132370Y0041602D01*
X0132370Y0042600D02*
X0054094Y0042600D01*
X0053502Y0043599D02*
X0132370Y0043599D01*
X0132370Y0044597D02*
X0052504Y0044597D01*
X0052520Y0044581D02*
X0052520Y0044581D01*
X0053036Y0044065D02*
X0053036Y0044065D01*
X0052287Y0042258D02*
X0052287Y0034974D01*
X0052287Y0029266D01*
X0049925Y0026116D02*
X0049925Y0034974D01*
X0054650Y0034974D02*
X0054650Y0026116D01*
X0056757Y0024627D02*
X0057331Y0024627D01*
X0056757Y0023628D02*
X0058853Y0023628D01*
X0059895Y0023628D02*
X0063578Y0023628D01*
X0064619Y0023628D02*
X0068302Y0023628D01*
X0069343Y0023628D02*
X0073027Y0023628D01*
X0074478Y0022630D02*
X0056757Y0022630D01*
X0056757Y0021631D02*
X0075476Y0021631D01*
X0076303Y0023360D02*
X0073547Y0026116D01*
X0073547Y0034974D01*
X0071185Y0034974D02*
X0070988Y0035171D01*
X0070988Y0037730D01*
X0071185Y0037533D01*
X0071185Y0034974D01*
X0071185Y0029266D01*
X0068823Y0026116D02*
X0068823Y0034974D01*
X0068823Y0033793D02*
X0068818Y0033792D01*
X0068814Y0033788D01*
X0068813Y0033783D01*
X0066461Y0034974D02*
X0066461Y0029266D01*
X0064098Y0026116D02*
X0064098Y0034974D01*
X0063902Y0035171D01*
X0063902Y0037337D01*
X0064098Y0037140D01*
X0064098Y0034974D01*
X0061736Y0034974D02*
X0061736Y0029266D01*
X0059374Y0026116D02*
X0059374Y0034974D01*
X0057012Y0034974D02*
X0057012Y0029266D01*
X0061417Y0024627D02*
X0062055Y0024627D01*
X0066141Y0024627D02*
X0066780Y0024627D01*
X0070866Y0024627D02*
X0071504Y0024627D01*
X0075909Y0029266D02*
X0075909Y0034974D01*
X0078272Y0034974D02*
X0078272Y0026116D01*
X0080634Y0029266D02*
X0080634Y0034974D01*
X0082996Y0034975D02*
X0082996Y0039821D01*
X0082996Y0034975D01*
X0082996Y0034975D01*
X0082996Y0034974D02*
X0085358Y0034974D01*
X0085358Y0034974D01*
X0085358Y0030128D01*
X0086245Y0030128D01*
X0086539Y0030207D01*
X0086834Y0030128D01*
X0087720Y0030128D01*
X0087720Y0034974D01*
X0087547Y0034974D01*
X0085358Y0034974D01*
X0087720Y0034974D01*
X0087720Y0034974D01*
X0085358Y0034974D01*
X0082996Y0034974D01*
X0082996Y0034612D02*
X0082996Y0034612D01*
X0082996Y0033613D02*
X0082996Y0033613D01*
X0082996Y0032615D02*
X0082996Y0032615D01*
X0082996Y0031616D02*
X0082996Y0031616D01*
X0082996Y0030618D02*
X0082996Y0030618D01*
X0085358Y0030618D02*
X0085358Y0030618D01*
X0085358Y0031616D02*
X0085358Y0031616D01*
X0085358Y0032615D02*
X0085358Y0032615D01*
X0085358Y0033613D02*
X0085358Y0033613D01*
X0085358Y0034612D02*
X0085358Y0034612D01*
X0085358Y0034974D02*
X0085358Y0034974D01*
X0085358Y0034975D02*
X0085358Y0039821D01*
X0085358Y0034975D01*
X0085358Y0034975D01*
X0085358Y0035611D02*
X0085358Y0035611D01*
X0085358Y0036609D02*
X0085358Y0036609D01*
X0085358Y0037608D02*
X0085358Y0037608D01*
X0085358Y0038606D02*
X0085358Y0038606D01*
X0085358Y0039605D02*
X0085358Y0039605D01*
X0082996Y0039605D02*
X0082996Y0039605D01*
X0082996Y0038606D02*
X0082996Y0038606D01*
X0082996Y0037608D02*
X0082996Y0037608D01*
X0082996Y0036609D02*
X0082996Y0036609D01*
X0082996Y0035611D02*
X0082996Y0035611D01*
X0087720Y0035611D02*
X0087721Y0035611D01*
X0087720Y0036609D02*
X0087721Y0036609D01*
X0087720Y0037608D02*
X0087721Y0037608D01*
X0087720Y0038606D02*
X0087721Y0038606D01*
X0087720Y0039605D02*
X0087721Y0039605D01*
X0087720Y0034612D02*
X0087721Y0034612D01*
X0087720Y0033613D02*
X0087721Y0033613D01*
X0087720Y0032615D02*
X0087721Y0032615D01*
X0087720Y0031616D02*
X0087721Y0031616D01*
X0087720Y0030618D02*
X0087721Y0030618D01*
X0092445Y0034974D02*
X0094807Y0034974D01*
X0097169Y0034974D01*
X0099531Y0034974D01*
X0101894Y0035611D02*
X0101894Y0035611D01*
X0101894Y0036609D02*
X0101894Y0036609D01*
X0101894Y0037608D02*
X0101894Y0037608D01*
X0101894Y0038606D02*
X0101894Y0038606D01*
X0101894Y0039605D02*
X0101894Y0039605D01*
X0104256Y0039605D02*
X0104256Y0039605D01*
X0104256Y0038606D02*
X0104256Y0038606D01*
X0104256Y0037608D02*
X0104256Y0037608D01*
X0104256Y0036609D02*
X0104256Y0036609D01*
X0104256Y0035611D02*
X0104256Y0035611D01*
X0104256Y0034974D02*
X0106618Y0034974D01*
X0106618Y0034974D01*
X0106618Y0034974D01*
X0104256Y0034974D01*
X0104256Y0034612D02*
X0104256Y0034612D01*
X0104256Y0033613D02*
X0104256Y0033613D01*
X0104256Y0032615D02*
X0104256Y0032615D01*
X0104256Y0031616D02*
X0104256Y0031616D01*
X0104256Y0030618D02*
X0104256Y0030618D01*
X0106618Y0030618D02*
X0106618Y0030618D01*
X0106618Y0031616D02*
X0106618Y0031616D01*
X0106618Y0032615D02*
X0106618Y0032615D01*
X0106618Y0033613D02*
X0106618Y0033613D01*
X0106618Y0034612D02*
X0106618Y0034612D01*
X0106618Y0034974D02*
X0108980Y0034974D01*
X0108980Y0034974D01*
X0108980Y0030128D01*
X0109867Y0030128D01*
X0110248Y0030230D01*
X0110405Y0030321D01*
X0116622Y0030321D01*
X0116622Y0030007D01*
X0116067Y0034974D02*
X0113705Y0034974D01*
X0111343Y0034974D01*
X0108980Y0034975D02*
X0108980Y0034975D01*
X0108980Y0039821D01*
X0108980Y0034975D01*
X0108980Y0034974D02*
X0106618Y0034974D01*
X0106618Y0034975D02*
X0106618Y0039821D01*
X0106618Y0034975D01*
X0106618Y0034975D01*
X0106618Y0035611D02*
X0106618Y0035611D01*
X0106618Y0036609D02*
X0106618Y0036609D01*
X0106618Y0037608D02*
X0106618Y0037608D01*
X0106618Y0038606D02*
X0106618Y0038606D01*
X0106618Y0039605D02*
X0106618Y0039605D01*
X0108980Y0039605D02*
X0108980Y0039605D01*
X0108980Y0038606D02*
X0108980Y0038606D01*
X0108980Y0037608D02*
X0108980Y0037608D01*
X0108980Y0036609D02*
X0108980Y0036609D01*
X0108980Y0035611D02*
X0108980Y0035611D01*
X0108980Y0034612D02*
X0108980Y0034612D01*
X0108980Y0033613D02*
X0108980Y0033613D01*
X0108980Y0032615D02*
X0108980Y0032615D01*
X0108980Y0031616D02*
X0108980Y0031616D01*
X0108980Y0030618D02*
X0108980Y0030618D01*
X0116067Y0034974D02*
X0118429Y0034974D01*
X0118429Y0037435D01*
X0110161Y0047376D02*
X0105437Y0047376D01*
X0104256Y0048557D01*
X0104256Y0054955D01*
X0104256Y0063124D01*
X0104256Y0057415D01*
X0104256Y0052569D01*
X0105142Y0052569D01*
X0105524Y0052671D01*
X0105681Y0052762D01*
X0109917Y0052762D01*
X0110075Y0052671D01*
X0110456Y0052569D01*
X0111342Y0052569D01*
X0111342Y0057415D01*
X0111343Y0057415D01*
X0111343Y0057415D01*
X0113705Y0057415D01*
X0113705Y0052569D01*
X0114591Y0052569D01*
X0114973Y0052671D01*
X0115130Y0052762D01*
X0119660Y0052762D01*
X0120097Y0053199D01*
X0120558Y0052739D01*
X0121476Y0052359D01*
X0122469Y0052359D01*
X0123387Y0052739D01*
X0124090Y0053441D01*
X0124213Y0053738D01*
X0124213Y0051371D01*
X0124771Y0050024D01*
X0125802Y0048993D01*
X0127149Y0048435D01*
X0128607Y0048435D01*
X0129954Y0048993D01*
X0130985Y0050024D01*
X0131543Y0051371D01*
X0131543Y0054011D01*
X0130985Y0055358D01*
X0129954Y0056389D01*
X0128607Y0056947D01*
X0127149Y0056947D01*
X0125802Y0056389D01*
X0124771Y0055358D01*
X0124470Y0054632D01*
X0124470Y0055353D01*
X0124090Y0056271D01*
X0123387Y0056974D01*
X0122469Y0057354D01*
X0122030Y0057354D01*
X0120425Y0058959D01*
X0120425Y0061303D01*
X0119660Y0062069D01*
X0115130Y0062069D01*
X0114973Y0062160D01*
X0114591Y0062262D01*
X0113705Y0062262D01*
X0113705Y0057415D01*
X0113705Y0057415D01*
X0113705Y0052569D01*
X0112818Y0052569D01*
X0112524Y0052648D01*
X0112229Y0052569D01*
X0111343Y0052569D01*
X0111343Y0057415D01*
X0113531Y0057415D01*
X0113705Y0057415D01*
X0113705Y0063124D01*
X0113705Y0062262D02*
X0112818Y0062262D01*
X0112524Y0062183D01*
X0112229Y0062262D01*
X0111343Y0062262D01*
X0111343Y0057415D01*
X0111343Y0048557D01*
X0110161Y0047376D01*
X0110395Y0052585D02*
X0105203Y0052585D01*
X0104256Y0052585D02*
X0104256Y0052585D01*
X0104256Y0052569D02*
X0104256Y0057415D01*
X0104256Y0057415D01*
X0101894Y0057415D01*
X0101894Y0052569D01*
X0102780Y0052569D01*
X0103075Y0052648D01*
X0103369Y0052569D01*
X0104256Y0052569D01*
X0103309Y0052585D02*
X0102841Y0052585D01*
X0101894Y0052585D02*
X0101894Y0052585D01*
X0101894Y0052569D02*
X0101894Y0057415D01*
X0101894Y0057415D01*
X0101894Y0057415D01*
X0104083Y0057415D01*
X0104256Y0057415D01*
X0104256Y0057415D01*
X0101894Y0057415D01*
X0101894Y0057415D01*
X0101894Y0062262D01*
X0102780Y0062262D01*
X0103075Y0062183D01*
X0103369Y0062262D01*
X0104256Y0062262D01*
X0104256Y0057415D01*
X0104256Y0057415D01*
X0104256Y0062262D01*
X0105142Y0062262D01*
X0105524Y0062160D01*
X0105681Y0062069D01*
X0106714Y0062069D01*
X0106483Y0062627D01*
X0106483Y0063621D01*
X0106863Y0064539D01*
X0107566Y0065241D01*
X0108483Y0065622D01*
X0109477Y0065622D01*
X0110395Y0065241D01*
X0111098Y0064539D01*
X0111478Y0063621D01*
X0111478Y0062627D01*
X0111327Y0062262D01*
X0111342Y0062262D01*
X0111342Y0057415D01*
X0111343Y0057415D02*
X0113705Y0057415D01*
X0113705Y0057415D01*
X0113705Y0057415D01*
X0113705Y0062262D01*
X0113705Y0061572D02*
X0113705Y0061572D01*
X0113705Y0060573D02*
X0113705Y0060573D01*
X0113705Y0059575D02*
X0113705Y0059575D01*
X0113705Y0058576D02*
X0113705Y0058576D01*
X0113705Y0057578D02*
X0113705Y0057578D01*
X0113705Y0056579D02*
X0113705Y0056579D01*
X0113705Y0055581D02*
X0113705Y0055581D01*
X0113705Y0054582D02*
X0113705Y0054582D01*
X0113705Y0053584D02*
X0113705Y0053584D01*
X0113705Y0052585D02*
X0113705Y0052585D01*
X0114652Y0052585D02*
X0120929Y0052585D01*
X0123016Y0052585D02*
X0124213Y0052585D01*
X0124213Y0051587D02*
X0043354Y0051587D01*
X0043354Y0052585D02*
X0053702Y0052585D01*
X0053763Y0052569D02*
X0054650Y0052569D01*
X0055536Y0052569D01*
X0055918Y0052671D01*
X0056075Y0052762D01*
X0062673Y0052762D01*
X0062830Y0052671D01*
X0063212Y0052569D01*
X0064098Y0052569D01*
X0064098Y0057415D01*
X0064098Y0057415D01*
X0064098Y0052569D01*
X0064985Y0052569D01*
X0065280Y0052648D01*
X0065574Y0052569D01*
X0066461Y0052569D01*
X0067347Y0052569D01*
X0067729Y0052671D01*
X0067886Y0052762D01*
X0072122Y0052762D01*
X0072279Y0052671D01*
X0072661Y0052569D01*
X0073547Y0052569D01*
X0073547Y0057415D01*
X0073547Y0057415D01*
X0073547Y0052569D01*
X0074434Y0052569D01*
X0074728Y0052648D01*
X0075023Y0052569D01*
X0075909Y0052569D01*
X0075909Y0057415D01*
X0073547Y0057415D01*
X0073547Y0063124D01*
X0072992Y0063569D02*
X0075774Y0063569D01*
X0075774Y0063621D02*
X0075774Y0062627D01*
X0075925Y0062262D01*
X0075909Y0062262D01*
X0075023Y0062262D01*
X0074728Y0062183D01*
X0074434Y0062262D01*
X0073547Y0062262D01*
X0072992Y0062262D01*
X0072992Y0065336D01*
X0073302Y0065646D01*
X0073683Y0066564D01*
X0073683Y0067558D01*
X0073302Y0068476D01*
X0072600Y0069178D01*
X0071682Y0069559D01*
X0070688Y0069559D01*
X0069770Y0069178D01*
X0069068Y0068476D01*
X0068687Y0067558D01*
X0068687Y0066564D01*
X0069068Y0065646D01*
X0069378Y0065336D01*
X0069378Y0062069D01*
X0067886Y0062069D01*
X0067729Y0062160D01*
X0067347Y0062262D01*
X0066461Y0062262D01*
X0066461Y0057415D01*
X0066461Y0052569D01*
X0066461Y0057415D01*
X0066461Y0057415D01*
X0066461Y0048557D01*
X0068035Y0046982D01*
X0071972Y0046982D01*
X0073547Y0048557D01*
X0073547Y0057415D01*
X0075909Y0057415D01*
X0075909Y0057415D01*
X0075909Y0057415D01*
X0075736Y0057415D01*
X0073547Y0057415D01*
X0073547Y0057415D01*
X0073547Y0062262D01*
X0073547Y0057415D01*
X0073547Y0057415D01*
X0073547Y0057578D02*
X0073547Y0057578D01*
X0073547Y0058576D02*
X0073547Y0058576D01*
X0073547Y0059575D02*
X0073547Y0059575D01*
X0073547Y0060573D02*
X0073547Y0060573D01*
X0073547Y0061572D02*
X0073547Y0061572D01*
X0072992Y0062570D02*
X0075798Y0062570D01*
X0075909Y0062262D02*
X0075909Y0057415D01*
X0075909Y0052569D01*
X0076796Y0052569D01*
X0077177Y0052671D01*
X0077334Y0052762D01*
X0081571Y0052762D01*
X0081728Y0052671D01*
X0082110Y0052569D01*
X0082996Y0052569D01*
X0082996Y0057415D01*
X0082996Y0057415D01*
X0082996Y0052569D01*
X0083883Y0052569D01*
X0084177Y0052648D01*
X0084472Y0052569D01*
X0085358Y0052569D01*
X0085358Y0057415D01*
X0085358Y0057415D01*
X0082996Y0057415D01*
X0082996Y0057415D01*
X0082996Y0063124D01*
X0082996Y0062262D02*
X0082110Y0062262D01*
X0081728Y0062160D01*
X0081571Y0062069D01*
X0080538Y0062069D01*
X0080769Y0062627D01*
X0080769Y0063621D01*
X0080389Y0064539D01*
X0079686Y0065241D01*
X0078768Y0065622D01*
X0077775Y0065622D01*
X0076857Y0065241D01*
X0076154Y0064539D01*
X0075774Y0063621D01*
X0076183Y0064567D02*
X0072992Y0064567D01*
X0073222Y0065566D02*
X0077640Y0065566D01*
X0078903Y0065566D02*
X0089451Y0065566D01*
X0089586Y0065622D02*
X0088668Y0065241D01*
X0087965Y0064539D01*
X0087585Y0063621D01*
X0087585Y0062627D01*
X0087816Y0062069D01*
X0086783Y0062069D01*
X0086626Y0062160D01*
X0086245Y0062262D01*
X0085358Y0062262D01*
X0084472Y0062262D01*
X0084177Y0062183D01*
X0083883Y0062262D01*
X0082996Y0062262D01*
X0082996Y0057415D01*
X0085358Y0057415D01*
X0085358Y0057415D01*
X0085358Y0052569D01*
X0086245Y0052569D01*
X0086626Y0052671D01*
X0086783Y0052762D01*
X0091020Y0052762D01*
X0091177Y0052671D01*
X0091558Y0052569D01*
X0092445Y0052569D01*
X0093331Y0052569D01*
X0093626Y0052648D01*
X0093921Y0052569D01*
X0094807Y0052569D01*
X0094807Y0057415D01*
X0094807Y0057415D01*
X0094807Y0052569D01*
X0095694Y0052569D01*
X0096075Y0052671D01*
X0096232Y0052762D01*
X0098677Y0052762D01*
X0098783Y0052656D01*
X0100280Y0052656D01*
X0100386Y0052762D01*
X0100469Y0052762D01*
X0100626Y0052671D01*
X0101007Y0052569D01*
X0101894Y0052569D01*
X0100946Y0052585D02*
X0095754Y0052585D01*
X0094807Y0052585D02*
X0094807Y0052585D01*
X0093860Y0052585D02*
X0093392Y0052585D01*
X0092445Y0052585D02*
X0092445Y0052585D01*
X0092445Y0052569D02*
X0092445Y0057415D01*
X0092445Y0057415D01*
X0092445Y0057415D01*
X0094807Y0057415D01*
X0094807Y0057415D01*
X0094807Y0063124D01*
X0094807Y0062262D02*
X0093921Y0062262D01*
X0093626Y0062183D01*
X0093331Y0062262D01*
X0092445Y0062262D01*
X0092445Y0057415D01*
X0092445Y0052569D01*
X0091498Y0052585D02*
X0086306Y0052585D01*
X0085358Y0052585D02*
X0085358Y0052585D01*
X0084411Y0052585D02*
X0083943Y0052585D01*
X0082996Y0052585D02*
X0082996Y0052585D01*
X0082049Y0052585D02*
X0076857Y0052585D01*
X0075909Y0052585D02*
X0075909Y0052585D01*
X0074962Y0052585D02*
X0074495Y0052585D01*
X0073547Y0052585D02*
X0073547Y0052585D01*
X0072600Y0052585D02*
X0067408Y0052585D01*
X0066461Y0052585D02*
X0066461Y0052585D01*
X0065513Y0052585D02*
X0065046Y0052585D01*
X0064098Y0052585D02*
X0064098Y0052585D01*
X0063151Y0052585D02*
X0055597Y0052585D01*
X0054650Y0052585D02*
X0054650Y0052585D01*
X0054650Y0052569D02*
X0054650Y0057415D01*
X0054650Y0057415D01*
X0054650Y0052569D01*
X0053763Y0052569D02*
X0053382Y0052671D01*
X0053225Y0052762D01*
X0048695Y0052762D01*
X0047929Y0053527D01*
X0047929Y0061303D01*
X0048071Y0061446D01*
X0047808Y0061709D01*
X0047428Y0062627D01*
X0047428Y0063621D01*
X0047808Y0064539D01*
X0048510Y0065241D01*
X0049428Y0065622D01*
X0050195Y0065622D01*
X0050170Y0065646D01*
X0049790Y0066564D01*
X0049790Y0067558D01*
X0050170Y0068476D01*
X0050873Y0069178D01*
X0051791Y0069559D01*
X0052784Y0069559D01*
X0053702Y0069178D01*
X0054405Y0068476D01*
X0054650Y0067885D01*
X0054894Y0068476D01*
X0055597Y0069178D01*
X0056515Y0069559D01*
X0057509Y0069559D01*
X0058427Y0069178D01*
X0059129Y0068476D01*
X0059374Y0067885D01*
X0059619Y0068476D01*
X0060321Y0069178D01*
X0061239Y0069559D01*
X0062233Y0069559D01*
X0063151Y0069178D01*
X0063854Y0068476D01*
X0064234Y0067558D01*
X0064234Y0066564D01*
X0063854Y0065646D01*
X0063543Y0065336D01*
X0063543Y0062262D01*
X0064098Y0062262D01*
X0064098Y0057415D01*
X0064098Y0063124D01*
X0063543Y0063569D02*
X0069378Y0063569D01*
X0069378Y0064567D02*
X0063543Y0064567D01*
X0063773Y0065566D02*
X0069148Y0065566D01*
X0068687Y0066564D02*
X0064234Y0066564D01*
X0064232Y0067563D02*
X0068689Y0067563D01*
X0069153Y0068561D02*
X0063768Y0068561D01*
X0061736Y0067061D02*
X0061736Y0057415D01*
X0059374Y0057415D02*
X0059374Y0063124D01*
X0063543Y0062570D02*
X0069378Y0062570D01*
X0066461Y0062262D02*
X0065574Y0062262D01*
X0065280Y0062183D01*
X0064985Y0062262D01*
X0064098Y0062262D01*
X0064098Y0057415D01*
X0066461Y0057415D01*
X0066461Y0057415D01*
X0066460Y0057415D02*
X0064099Y0057415D01*
X0064099Y0057415D01*
X0066287Y0057415D01*
X0066460Y0057415D01*
X0066460Y0057415D01*
X0066461Y0057415D02*
X0066461Y0062262D01*
X0066461Y0061572D02*
X0066461Y0061572D01*
X0066461Y0060573D02*
X0066461Y0060573D01*
X0066461Y0059575D02*
X0066461Y0059575D01*
X0066461Y0058576D02*
X0066461Y0058576D01*
X0066461Y0057578D02*
X0066461Y0057578D01*
X0066461Y0056579D02*
X0066461Y0056579D01*
X0066461Y0055581D02*
X0066461Y0055581D01*
X0066461Y0054582D02*
X0066461Y0054582D01*
X0066461Y0053584D02*
X0066461Y0053584D01*
X0064098Y0053584D02*
X0064098Y0053584D01*
X0064098Y0054582D02*
X0064098Y0054582D01*
X0064098Y0055581D02*
X0064098Y0055581D01*
X0064098Y0056579D02*
X0064098Y0056579D01*
X0064098Y0057415D02*
X0064098Y0048557D01*
X0062917Y0047376D01*
X0055831Y0047376D01*
X0054650Y0048557D01*
X0054650Y0057415D01*
X0054650Y0063124D01*
X0055205Y0063569D02*
X0054094Y0063569D01*
X0054094Y0064567D02*
X0055205Y0064567D01*
X0055205Y0065336D02*
X0055205Y0062262D01*
X0054650Y0062262D01*
X0054650Y0057415D01*
X0054650Y0057415D01*
X0054650Y0062262D01*
X0054094Y0062262D01*
X0054094Y0065336D01*
X0054405Y0065646D01*
X0054650Y0066237D01*
X0054894Y0065646D01*
X0055205Y0065336D01*
X0054975Y0065566D02*
X0054324Y0065566D01*
X0054319Y0068561D02*
X0054980Y0068561D01*
X0057012Y0067061D02*
X0057012Y0057415D01*
X0054650Y0057578D02*
X0054650Y0057578D01*
X0054650Y0058576D02*
X0054650Y0058576D01*
X0054650Y0059575D02*
X0054650Y0059575D01*
X0054650Y0060573D02*
X0054650Y0060573D01*
X0054650Y0061572D02*
X0054650Y0061572D01*
X0055205Y0062570D02*
X0054094Y0062570D01*
X0049925Y0063124D02*
X0049925Y0057415D01*
X0047929Y0057578D02*
X0039040Y0057578D01*
X0039040Y0058576D02*
X0047929Y0058576D01*
X0047929Y0059575D02*
X0039040Y0059575D01*
X0039040Y0060573D02*
X0047929Y0060573D01*
X0047945Y0061572D02*
X0039040Y0061572D01*
X0039040Y0062570D02*
X0047451Y0062570D01*
X0047428Y0063569D02*
X0039040Y0063569D01*
X0039040Y0064567D02*
X0047836Y0064567D01*
X0049294Y0065566D02*
X0039040Y0065566D01*
X0039040Y0066564D02*
X0049790Y0066564D01*
X0049792Y0067563D02*
X0039040Y0067563D01*
X0039040Y0068561D02*
X0050256Y0068561D01*
X0052287Y0067061D02*
X0052287Y0057415D01*
X0054650Y0056579D02*
X0054650Y0056579D01*
X0054650Y0055581D02*
X0054650Y0055581D01*
X0054650Y0054582D02*
X0054650Y0054582D01*
X0054650Y0053584D02*
X0054650Y0053584D01*
X0047929Y0053584D02*
X0043354Y0053584D01*
X0043053Y0054582D02*
X0047929Y0054582D01*
X0047929Y0055581D02*
X0042247Y0055581D01*
X0039040Y0056579D02*
X0047929Y0056579D01*
X0042965Y0050588D02*
X0124537Y0050588D01*
X0125205Y0049590D02*
X0041935Y0049590D01*
X0040877Y0047593D02*
X0132370Y0047593D01*
X0132370Y0048591D02*
X0128984Y0048591D01*
X0130551Y0049590D02*
X0132370Y0049590D01*
X0132370Y0050588D02*
X0131219Y0050588D01*
X0131543Y0051587D02*
X0132370Y0051587D01*
X0132370Y0052585D02*
X0131543Y0052585D01*
X0131543Y0053584D02*
X0132370Y0053584D01*
X0132370Y0054582D02*
X0131307Y0054582D01*
X0130762Y0055581D02*
X0132370Y0055581D01*
X0131867Y0056579D02*
X0129494Y0056579D01*
X0130869Y0057578D02*
X0121807Y0057578D01*
X0120808Y0058576D02*
X0129870Y0058576D01*
X0128872Y0059575D02*
X0120425Y0059575D01*
X0120425Y0060573D02*
X0127873Y0060573D01*
X0126875Y0061572D02*
X0120157Y0061572D01*
X0122115Y0064567D02*
X0111069Y0064567D01*
X0111478Y0063569D02*
X0124878Y0063569D01*
X0125876Y0062570D02*
X0111454Y0062570D01*
X0111342Y0061572D02*
X0111343Y0061572D01*
X0111342Y0060573D02*
X0111343Y0060573D01*
X0111342Y0059575D02*
X0111343Y0059575D01*
X0111342Y0058576D02*
X0111343Y0058576D01*
X0111342Y0057578D02*
X0111343Y0057578D01*
X0111343Y0057415D02*
X0111342Y0057415D01*
X0111342Y0056579D02*
X0111343Y0056579D01*
X0111342Y0055581D02*
X0111343Y0055581D01*
X0111342Y0054582D02*
X0111343Y0054582D01*
X0111342Y0053584D02*
X0111343Y0053584D01*
X0111342Y0052585D02*
X0111343Y0052585D01*
X0112290Y0052585D02*
X0112757Y0052585D01*
X0116067Y0057415D02*
X0118429Y0057415D01*
X0119413Y0057415D01*
X0121972Y0054856D01*
X0123782Y0056579D02*
X0126261Y0056579D01*
X0124994Y0055581D02*
X0124376Y0055581D01*
X0124213Y0053584D02*
X0124149Y0053584D01*
X0126772Y0048591D02*
X0039879Y0048591D01*
X0041876Y0046594D02*
X0132370Y0046594D01*
X0132370Y0045596D02*
X0051505Y0045596D01*
X0050713Y0043833D02*
X0041657Y0043833D01*
X0040476Y0045014D01*
X0050713Y0043833D02*
X0052287Y0042258D01*
X0064098Y0057415D02*
X0064098Y0057415D01*
X0064098Y0057578D02*
X0064098Y0057578D01*
X0064098Y0058576D02*
X0064098Y0058576D01*
X0064098Y0059575D02*
X0064098Y0059575D01*
X0064098Y0060573D02*
X0064098Y0060573D01*
X0064098Y0061572D02*
X0064098Y0061572D01*
X0068823Y0057415D02*
X0071185Y0057415D01*
X0071185Y0067061D01*
X0073217Y0068561D02*
X0121909Y0068561D01*
X0121215Y0067563D02*
X0073681Y0067563D01*
X0073683Y0066564D02*
X0121050Y0066564D01*
X0121300Y0065566D02*
X0109612Y0065566D01*
X0108349Y0065566D02*
X0100163Y0065566D01*
X0100028Y0065622D02*
X0099035Y0065622D01*
X0098117Y0065241D01*
X0097414Y0064539D01*
X0097034Y0063621D01*
X0097034Y0062627D01*
X0097265Y0062069D01*
X0096232Y0062069D01*
X0096075Y0062160D01*
X0095694Y0062262D01*
X0094807Y0062262D01*
X0094807Y0057415D01*
X0092445Y0057415D01*
X0092445Y0048557D01*
X0091264Y0047376D01*
X0086539Y0047376D01*
X0085358Y0046195D01*
X0085358Y0057415D01*
X0085185Y0057415D01*
X0082996Y0057415D01*
X0082996Y0048557D01*
X0081815Y0047376D01*
X0077091Y0047376D01*
X0075909Y0048557D01*
X0075909Y0057415D01*
X0075909Y0057415D01*
X0075909Y0062262D01*
X0075909Y0061572D02*
X0075909Y0061572D01*
X0075909Y0060573D02*
X0075909Y0060573D01*
X0075909Y0059575D02*
X0075909Y0059575D01*
X0075909Y0058576D02*
X0075909Y0058576D01*
X0075909Y0057578D02*
X0075909Y0057578D01*
X0075909Y0056579D02*
X0075909Y0056579D01*
X0075909Y0055581D02*
X0075909Y0055581D01*
X0075909Y0054582D02*
X0075909Y0054582D01*
X0075909Y0053584D02*
X0075909Y0053584D01*
X0073547Y0053584D02*
X0073547Y0053584D01*
X0073547Y0054582D02*
X0073547Y0054582D01*
X0073547Y0055581D02*
X0073547Y0055581D01*
X0073547Y0056579D02*
X0073547Y0056579D01*
X0078272Y0057415D02*
X0078272Y0063124D01*
X0080746Y0062570D02*
X0087609Y0062570D01*
X0087585Y0063569D02*
X0080769Y0063569D01*
X0080360Y0064567D02*
X0087994Y0064567D01*
X0089586Y0065622D02*
X0090579Y0065622D01*
X0091497Y0065241D01*
X0092200Y0064539D01*
X0092580Y0063621D01*
X0092580Y0062627D01*
X0092429Y0062262D01*
X0092445Y0062262D01*
X0092445Y0057415D01*
X0094634Y0057415D01*
X0094807Y0057415D01*
X0094807Y0057415D01*
X0094807Y0062262D01*
X0094807Y0061572D02*
X0094807Y0061572D01*
X0094807Y0060573D02*
X0094807Y0060573D01*
X0094807Y0059575D02*
X0094807Y0059575D01*
X0094807Y0058576D02*
X0094807Y0058576D01*
X0094807Y0057578D02*
X0094807Y0057578D01*
X0094807Y0056579D02*
X0094807Y0056579D01*
X0094807Y0055581D02*
X0094807Y0055581D01*
X0094807Y0054856D02*
X0094807Y0048557D01*
X0094807Y0053584D02*
X0094807Y0053584D01*
X0094807Y0054582D02*
X0094807Y0054582D01*
X0097169Y0057415D02*
X0099531Y0057415D01*
X0099531Y0063124D01*
X0098900Y0065566D02*
X0090714Y0065566D01*
X0092172Y0064567D02*
X0097443Y0064567D01*
X0097034Y0063569D02*
X0092580Y0063569D01*
X0092557Y0062570D02*
X0097057Y0062570D01*
X0100028Y0065622D02*
X0100946Y0065241D01*
X0101649Y0064539D01*
X0102029Y0063621D01*
X0102029Y0062627D01*
X0101878Y0062262D01*
X0101894Y0062262D01*
X0101894Y0057415D01*
X0101894Y0057578D02*
X0101894Y0057578D01*
X0101894Y0058576D02*
X0101894Y0058576D01*
X0101894Y0059575D02*
X0101894Y0059575D01*
X0101894Y0060573D02*
X0101894Y0060573D01*
X0101894Y0061572D02*
X0101894Y0061572D01*
X0102006Y0062570D02*
X0106506Y0062570D01*
X0106483Y0063569D02*
X0102029Y0063569D01*
X0101620Y0064567D02*
X0106891Y0064567D01*
X0108980Y0063124D02*
X0108980Y0057415D01*
X0106618Y0057415D01*
X0104256Y0057578D02*
X0104256Y0057578D01*
X0104256Y0058576D02*
X0104256Y0058576D01*
X0104256Y0059575D02*
X0104256Y0059575D01*
X0104256Y0060573D02*
X0104256Y0060573D01*
X0104256Y0061572D02*
X0104256Y0061572D01*
X0104256Y0056579D02*
X0104256Y0056579D01*
X0104256Y0055581D02*
X0104256Y0055581D01*
X0104256Y0054955D02*
X0101894Y0054955D01*
X0101894Y0048557D01*
X0100713Y0047376D01*
X0101894Y0053584D02*
X0101894Y0053584D01*
X0101894Y0054582D02*
X0101894Y0054582D01*
X0101894Y0055581D02*
X0101894Y0055581D01*
X0101894Y0056579D02*
X0101894Y0056579D01*
X0104256Y0054582D02*
X0104256Y0054582D01*
X0104256Y0053584D02*
X0104256Y0053584D01*
X0099531Y0054463D02*
X0099531Y0057415D01*
X0092445Y0057415D02*
X0092445Y0057415D01*
X0092445Y0057578D02*
X0092445Y0057578D01*
X0092445Y0058576D02*
X0092445Y0058576D01*
X0092445Y0059575D02*
X0092445Y0059575D01*
X0092445Y0060573D02*
X0092445Y0060573D01*
X0092445Y0061572D02*
X0092445Y0061572D01*
X0090083Y0063124D02*
X0090083Y0057415D01*
X0087720Y0057415D01*
X0085358Y0057415D02*
X0085358Y0057415D01*
X0085358Y0062262D01*
X0085358Y0057415D01*
X0085358Y0057578D02*
X0085358Y0057578D01*
X0085358Y0058576D02*
X0085358Y0058576D01*
X0085358Y0059575D02*
X0085358Y0059575D01*
X0085358Y0060573D02*
X0085358Y0060573D01*
X0085358Y0061572D02*
X0085358Y0061572D01*
X0082996Y0061572D02*
X0082996Y0061572D01*
X0082996Y0062262D02*
X0082996Y0057415D01*
X0082996Y0057415D01*
X0082996Y0057578D02*
X0082996Y0057578D01*
X0082996Y0058576D02*
X0082996Y0058576D01*
X0082996Y0059575D02*
X0082996Y0059575D01*
X0082996Y0060573D02*
X0082996Y0060573D01*
X0080634Y0057415D02*
X0078272Y0057415D01*
X0082996Y0056579D02*
X0082996Y0056579D01*
X0082996Y0055581D02*
X0082996Y0055581D01*
X0082996Y0054582D02*
X0082996Y0054582D01*
X0082996Y0053584D02*
X0082996Y0053584D01*
X0085358Y0053584D02*
X0085358Y0053584D01*
X0085358Y0054582D02*
X0085358Y0054582D01*
X0085358Y0055581D02*
X0085358Y0055581D01*
X0085358Y0056579D02*
X0085358Y0056579D01*
X0092445Y0056579D02*
X0092445Y0056579D01*
X0092445Y0055581D02*
X0092445Y0055581D01*
X0092445Y0054582D02*
X0092445Y0054582D01*
X0092445Y0053584D02*
X0092445Y0053584D01*
X0076303Y0023360D02*
X0122366Y0023360D01*
X0134177Y0035171D01*
X0134177Y0056825D01*
X0124335Y0066667D01*
X0123547Y0066667D01*
X0125185Y0068561D02*
X0165354Y0068561D01*
X0165354Y0067563D02*
X0125995Y0067563D01*
X0126993Y0066564D02*
X0165354Y0066564D01*
X0165354Y0065566D02*
X0127992Y0065566D01*
X0128990Y0064567D02*
X0165354Y0064567D01*
X0165354Y0063569D02*
X0129989Y0063569D01*
X0130987Y0062570D02*
X0165354Y0062570D01*
X0165354Y0061572D02*
X0131986Y0061572D01*
X0132984Y0060573D02*
X0165354Y0060573D01*
X0165354Y0059575D02*
X0133983Y0059575D01*
X0134981Y0058576D02*
X0165354Y0058576D01*
X0165354Y0057578D02*
X0135980Y0057578D01*
X0135984Y0056579D02*
X0165354Y0056579D01*
X0165354Y0055581D02*
X0135984Y0055581D01*
X0135984Y0054582D02*
X0165354Y0054582D01*
X0165354Y0053584D02*
X0135984Y0053584D01*
X0135984Y0052585D02*
X0165354Y0052585D01*
X0165354Y0051587D02*
X0135984Y0051587D01*
X0135984Y0050588D02*
X0165354Y0050588D01*
X0165354Y0049590D02*
X0135984Y0049590D01*
X0135984Y0048591D02*
X0165354Y0048591D01*
X0165354Y0047593D02*
X0135984Y0047593D01*
X0135984Y0046594D02*
X0165354Y0046594D01*
X0165354Y0045596D02*
X0135984Y0045596D01*
X0135984Y0044597D02*
X0165354Y0044597D01*
X0165354Y0043599D02*
X0135984Y0043599D01*
X0135984Y0042600D02*
X0165354Y0042600D01*
X0165354Y0041602D02*
X0135984Y0041602D01*
X0135984Y0040603D02*
X0150335Y0040603D01*
X0148606Y0039605D02*
X0135984Y0039605D01*
X0135984Y0038606D02*
X0147435Y0038606D01*
X0146436Y0037608D02*
X0135984Y0037608D01*
X0135984Y0036609D02*
X0145727Y0036609D01*
X0145150Y0035611D02*
X0135984Y0035611D01*
X0135984Y0034612D02*
X0144616Y0034612D01*
X0144349Y0033613D02*
X0135175Y0033613D01*
X0134176Y0032615D02*
X0144081Y0032615D01*
X0143894Y0031616D02*
X0133178Y0031616D01*
X0132179Y0030618D02*
X0143894Y0030618D01*
X0143894Y0029619D02*
X0131181Y0029619D01*
X0130182Y0028621D02*
X0143990Y0028621D01*
X0144257Y0027622D02*
X0129184Y0027622D01*
X0128185Y0026624D02*
X0144525Y0026624D01*
X0144953Y0025625D02*
X0127187Y0025625D01*
X0126188Y0024627D02*
X0145529Y0024627D01*
X0146105Y0023628D02*
X0125190Y0023628D01*
X0124191Y0022630D02*
X0147092Y0022630D01*
X0148091Y0021631D02*
X0123193Y0021631D01*
X0149742Y0020633D02*
X0056083Y0020633D01*
X0035893Y0020633D02*
X0018612Y0020633D01*
X0020263Y0021631D02*
X0034895Y0021631D01*
X0033896Y0022630D02*
X0021262Y0022630D01*
X0022249Y0023628D02*
X0032898Y0023628D01*
X0031899Y0024627D02*
X0022825Y0024627D01*
X0023402Y0025625D02*
X0030901Y0025625D01*
X0029902Y0026624D02*
X0023830Y0026624D01*
X0024097Y0027622D02*
X0028904Y0027622D01*
X0027905Y0028621D02*
X0024365Y0028621D01*
X0024461Y0029619D02*
X0026952Y0029619D01*
X0026952Y0030618D02*
X0024461Y0030618D01*
X0024461Y0031616D02*
X0026952Y0031616D01*
X0026952Y0032615D02*
X0024273Y0032615D01*
X0024005Y0033613D02*
X0026952Y0033613D01*
X0026952Y0034612D02*
X0023738Y0034612D01*
X0023204Y0035611D02*
X0026952Y0035611D01*
X0026952Y0036609D02*
X0022628Y0036609D01*
X0021918Y0037608D02*
X0026952Y0037608D01*
X0026952Y0038606D02*
X0020920Y0038606D01*
X0019749Y0039605D02*
X0026952Y0039605D01*
X0026952Y0040603D02*
X0018019Y0040603D01*
X0026952Y0041602D02*
X0003000Y0041602D01*
X0003000Y0042600D02*
X0026952Y0042600D01*
X0026952Y0043599D02*
X0003000Y0043599D01*
X0003000Y0044597D02*
X0026952Y0044597D01*
X0026952Y0045596D02*
X0003000Y0045596D01*
X0003000Y0046594D02*
X0026952Y0046594D01*
X0026952Y0047593D02*
X0003000Y0047593D01*
X0003000Y0048591D02*
X0026952Y0048591D01*
X0026952Y0049590D02*
X0003000Y0049590D01*
X0003000Y0050588D02*
X0026952Y0050588D01*
X0026952Y0051587D02*
X0003000Y0051587D01*
X0003000Y0052585D02*
X0026952Y0052585D01*
X0026952Y0053584D02*
X0003000Y0053584D01*
X0003000Y0054582D02*
X0026952Y0054582D01*
X0026952Y0055581D02*
X0003000Y0055581D01*
X0003000Y0056579D02*
X0026952Y0056579D01*
X0026952Y0057578D02*
X0003000Y0057578D01*
X0003000Y0058576D02*
X0026952Y0058576D01*
X0026952Y0059575D02*
X0003000Y0059575D01*
X0003000Y0060573D02*
X0026952Y0060573D01*
X0026952Y0061572D02*
X0003000Y0061572D01*
X0003000Y0062570D02*
X0026952Y0062570D01*
X0026952Y0063569D02*
X0003000Y0063569D01*
X0003000Y0064567D02*
X0026952Y0064567D01*
X0026952Y0065566D02*
X0003000Y0065566D01*
X0003000Y0066564D02*
X0026952Y0066564D01*
X0026952Y0067563D02*
X0003000Y0067563D01*
X0003000Y0068561D02*
X0026952Y0068561D01*
X0026952Y0069560D02*
X0003000Y0069560D01*
X0003000Y0070558D02*
X0026952Y0070558D01*
X0026952Y0071557D02*
X0003000Y0071557D01*
X0003000Y0072555D02*
X0026952Y0072555D01*
X0026952Y0073554D02*
X0003000Y0073554D01*
X0003000Y0074552D02*
X0026952Y0074552D01*
X0026952Y0075551D02*
X0003000Y0075551D01*
X0003000Y0076549D02*
X0026952Y0076549D01*
X0026952Y0077548D02*
X0003000Y0077548D01*
X0003000Y0078547D02*
X0026952Y0078547D01*
X0026952Y0079545D02*
X0003000Y0079545D01*
X0003000Y0080544D02*
X0026952Y0080544D01*
X0026952Y0081542D02*
X0003000Y0081542D01*
X0003000Y0082541D02*
X0026952Y0082541D01*
X0026952Y0083539D02*
X0003000Y0083539D01*
X0003000Y0084538D02*
X0026952Y0084538D01*
X0026952Y0085536D02*
X0003000Y0085536D01*
X0003000Y0086535D02*
X0026952Y0086535D01*
X0026952Y0087533D02*
X0003000Y0087533D01*
X0003000Y0088532D02*
X0026952Y0088532D01*
X0026952Y0089530D02*
X0003000Y0089530D01*
X0003000Y0090529D02*
X0026952Y0090529D01*
X0026952Y0091527D02*
X0003000Y0091527D01*
X0003000Y0092526D02*
X0026952Y0092526D01*
X0026952Y0093524D02*
X0003000Y0093524D01*
X0003000Y0094523D02*
X0026952Y0094523D01*
X0026952Y0095521D02*
X0003000Y0095521D01*
X0003000Y0096520D02*
X0026952Y0096520D01*
X0026952Y0097518D02*
X0003000Y0097518D01*
X0003000Y0098517D02*
X0026952Y0098517D01*
X0026952Y0099515D02*
X0003000Y0099515D01*
X0003000Y0100514D02*
X0026952Y0100514D01*
X0026952Y0101512D02*
X0003000Y0101512D01*
X0003000Y0102511D02*
X0026952Y0102511D01*
X0026952Y0103509D02*
X0003000Y0103509D01*
X0003000Y0104508D02*
X0026952Y0104508D01*
X0026952Y0105506D02*
X0003000Y0105506D01*
X0003000Y0106505D02*
X0026952Y0106505D01*
X0026952Y0107503D02*
X0003000Y0107503D01*
X0003000Y0108502D02*
X0026952Y0108502D01*
X0026952Y0109500D02*
X0003000Y0109500D01*
X0003000Y0110499D02*
X0026952Y0110499D01*
X0026952Y0111497D02*
X0003000Y0111497D01*
X0003000Y0112496D02*
X0026952Y0112496D01*
X0026952Y0113494D02*
X0003000Y0113494D01*
X0003000Y0114493D02*
X0026952Y0114493D01*
X0026952Y0115491D02*
X0003000Y0115491D01*
X0003000Y0116490D02*
X0026952Y0116490D01*
X0026952Y0117488D02*
X0003000Y0117488D01*
X0003000Y0118487D02*
X0026952Y0118487D01*
X0026952Y0119485D02*
X0003000Y0119485D01*
X0003000Y0120484D02*
X0026952Y0120484D01*
X0026952Y0121482D02*
X0003000Y0121482D01*
X0003000Y0122481D02*
X0026952Y0122481D01*
X0026952Y0123480D02*
X0003000Y0123480D01*
X0003000Y0124478D02*
X0026952Y0124478D01*
X0026952Y0125477D02*
X0003000Y0125477D01*
X0003000Y0126475D02*
X0026952Y0126475D01*
X0026952Y0127474D02*
X0003000Y0127474D01*
X0003000Y0128472D02*
X0026952Y0128472D01*
X0026952Y0129471D02*
X0003000Y0129471D01*
X0003000Y0130469D02*
X0026952Y0130469D01*
X0026952Y0131468D02*
X0003000Y0131468D01*
X0003000Y0132466D02*
X0026952Y0132466D01*
X0026952Y0133465D02*
X0003000Y0133465D01*
X0003000Y0134463D02*
X0026952Y0134463D01*
X0026952Y0135462D02*
X0003000Y0135462D01*
X0003000Y0136460D02*
X0026952Y0136460D01*
X0026952Y0137459D02*
X0003000Y0137459D01*
X0003000Y0138457D02*
X0026952Y0138457D01*
X0026952Y0139456D02*
X0003000Y0139456D01*
X0003000Y0140454D02*
X0026952Y0140454D01*
X0026952Y0141453D02*
X0003000Y0141453D01*
X0003000Y0142451D02*
X0026952Y0142451D01*
X0026952Y0143450D02*
X0003000Y0143450D01*
X0003000Y0144448D02*
X0026952Y0144448D01*
X0026952Y0145447D02*
X0003000Y0145447D01*
X0003000Y0146445D02*
X0026952Y0146445D01*
X0026952Y0147444D02*
X0003000Y0147444D01*
X0003000Y0148442D02*
X0026952Y0148442D01*
X0026952Y0149441D02*
X0003000Y0149441D01*
X0003000Y0150439D02*
X0026952Y0150439D01*
X0026952Y0151438D02*
X0003000Y0151438D01*
X0003000Y0152436D02*
X0026952Y0152436D01*
X0026952Y0153435D02*
X0003000Y0153435D01*
X0003000Y0154433D02*
X0026952Y0154433D01*
X0026952Y0155432D02*
X0003000Y0155432D01*
X0003000Y0156430D02*
X0026952Y0156430D01*
X0026952Y0157429D02*
X0003000Y0157429D01*
X0003000Y0158427D02*
X0026952Y0158427D01*
X0026952Y0159426D02*
X0003000Y0159426D01*
X0003000Y0160424D02*
X0026952Y0160424D01*
X0026952Y0161423D02*
X0016247Y0161423D01*
X0018709Y0162421D02*
X0026952Y0162421D01*
X0026722Y0163420D02*
X0020320Y0163420D01*
X0021318Y0164418D02*
X0026561Y0164418D01*
X0026816Y0165417D02*
X0022281Y0165417D01*
X0022858Y0166416D02*
X0027637Y0166416D01*
X0030481Y0166416D02*
X0043385Y0166416D01*
X0042564Y0165417D02*
X0031302Y0165417D01*
X0031557Y0164418D02*
X0042309Y0164418D01*
X0042470Y0163420D02*
X0031396Y0163420D01*
X0031166Y0162421D02*
X0042700Y0162421D01*
X0042700Y0161423D02*
X0031166Y0161423D01*
X0031166Y0160424D02*
X0042700Y0160424D01*
X0042700Y0159426D02*
X0031166Y0159426D01*
X0031166Y0158427D02*
X0042700Y0158427D01*
X0042700Y0157429D02*
X0031166Y0157429D01*
X0031166Y0156430D02*
X0042700Y0156430D01*
X0042700Y0155432D02*
X0031166Y0155432D01*
X0031166Y0154433D02*
X0042700Y0154433D01*
X0042700Y0153435D02*
X0031166Y0153435D01*
X0031166Y0152436D02*
X0042700Y0152436D01*
X0042700Y0151438D02*
X0031166Y0151438D01*
X0031166Y0150439D02*
X0042700Y0150439D01*
X0042700Y0149441D02*
X0031166Y0149441D01*
X0031166Y0148442D02*
X0042700Y0148442D01*
X0042700Y0147444D02*
X0031166Y0147444D01*
X0031166Y0146445D02*
X0042700Y0146445D01*
X0042700Y0145447D02*
X0031166Y0145447D01*
X0031166Y0144448D02*
X0042700Y0144448D01*
X0042700Y0143450D02*
X0031166Y0143450D01*
X0031166Y0142451D02*
X0042700Y0142451D01*
X0042700Y0141453D02*
X0031166Y0141453D01*
X0031166Y0140454D02*
X0042700Y0140454D01*
X0042700Y0139456D02*
X0031166Y0139456D01*
X0031166Y0138457D02*
X0042700Y0138457D01*
X0042700Y0137459D02*
X0031166Y0137459D01*
X0031166Y0136460D02*
X0042700Y0136460D01*
X0042700Y0135462D02*
X0031166Y0135462D01*
X0031166Y0134463D02*
X0042700Y0134463D01*
X0042700Y0133465D02*
X0031166Y0133465D01*
X0031166Y0132466D02*
X0042700Y0132466D01*
X0042700Y0131468D02*
X0031166Y0131468D01*
X0031166Y0130469D02*
X0042700Y0130469D01*
X0042700Y0129471D02*
X0031166Y0129471D01*
X0031166Y0128472D02*
X0042700Y0128472D01*
X0042700Y0127474D02*
X0031166Y0127474D01*
X0031166Y0126475D02*
X0042700Y0126475D01*
X0042700Y0125477D02*
X0031166Y0125477D01*
X0031166Y0124478D02*
X0042700Y0124478D01*
X0042700Y0123480D02*
X0031166Y0123480D01*
X0031166Y0122481D02*
X0042700Y0122481D01*
X0042700Y0121482D02*
X0031166Y0121482D01*
X0031166Y0120484D02*
X0042700Y0120484D01*
X0042700Y0119485D02*
X0031166Y0119485D01*
X0031166Y0118487D02*
X0042700Y0118487D01*
X0042700Y0117488D02*
X0031166Y0117488D01*
X0031166Y0116490D02*
X0042700Y0116490D01*
X0042700Y0115491D02*
X0031166Y0115491D01*
X0031166Y0114493D02*
X0042700Y0114493D01*
X0042700Y0113494D02*
X0031166Y0113494D01*
X0031166Y0112496D02*
X0042700Y0112496D01*
X0042700Y0111497D02*
X0031166Y0111497D01*
X0031166Y0110499D02*
X0042700Y0110499D01*
X0042700Y0109500D02*
X0031166Y0109500D01*
X0031166Y0108502D02*
X0042700Y0108502D01*
X0042700Y0107503D02*
X0031166Y0107503D01*
X0031166Y0106505D02*
X0042700Y0106505D01*
X0042700Y0105506D02*
X0031166Y0105506D01*
X0031166Y0104508D02*
X0042660Y0104508D01*
X0041661Y0103509D02*
X0031166Y0103509D01*
X0031166Y0102511D02*
X0040663Y0102511D01*
X0039664Y0101512D02*
X0031166Y0101512D01*
X0031166Y0100514D02*
X0038666Y0100514D01*
X0037667Y0099515D02*
X0031166Y0099515D01*
X0031166Y0098517D02*
X0036669Y0098517D01*
X0035670Y0097518D02*
X0031166Y0097518D01*
X0031166Y0096520D02*
X0034672Y0096520D01*
X0033673Y0095521D02*
X0031166Y0095521D01*
X0031166Y0094523D02*
X0032675Y0094523D01*
X0031676Y0093524D02*
X0031166Y0093524D01*
X0035639Y0091527D02*
X0035978Y0091527D01*
X0036637Y0092526D02*
X0036977Y0092526D01*
X0037636Y0093524D02*
X0037975Y0093524D01*
X0038634Y0094523D02*
X0038974Y0094523D01*
X0039633Y0095521D02*
X0039972Y0095521D01*
X0040631Y0096520D02*
X0040971Y0096520D01*
X0041630Y0097518D02*
X0041969Y0097518D01*
X0042628Y0098517D02*
X0042968Y0098517D01*
X0043627Y0099515D02*
X0043966Y0099515D01*
X0044626Y0100514D02*
X0044965Y0100514D01*
X0045624Y0101512D02*
X0045964Y0101512D01*
X0046623Y0102511D02*
X0046962Y0102511D01*
X0046914Y0103509D02*
X0047961Y0103509D01*
X0048959Y0104508D02*
X0046914Y0104508D01*
X0046914Y0105506D02*
X0049958Y0105506D01*
X0050956Y0106505D02*
X0046914Y0106505D01*
X0046914Y0107503D02*
X0051955Y0107503D01*
X0052953Y0108502D02*
X0046914Y0108502D01*
X0046914Y0109500D02*
X0053952Y0109500D01*
X0054950Y0110499D02*
X0046914Y0110499D01*
X0046914Y0111497D02*
X0055949Y0111497D01*
X0056947Y0112496D02*
X0046914Y0112496D01*
X0046914Y0113494D02*
X0057946Y0113494D01*
X0058448Y0114493D02*
X0046914Y0114493D01*
X0046914Y0115491D02*
X0058448Y0115491D01*
X0058448Y0116490D02*
X0046914Y0116490D01*
X0046914Y0117488D02*
X0058448Y0117488D01*
X0058448Y0118487D02*
X0046914Y0118487D01*
X0046914Y0119485D02*
X0058448Y0119485D01*
X0058448Y0120484D02*
X0046914Y0120484D01*
X0046914Y0121482D02*
X0058448Y0121482D01*
X0058448Y0122481D02*
X0046914Y0122481D01*
X0046914Y0123480D02*
X0058448Y0123480D01*
X0058448Y0124478D02*
X0046914Y0124478D01*
X0046914Y0125477D02*
X0058448Y0125477D01*
X0058448Y0126475D02*
X0046914Y0126475D01*
X0046914Y0127474D02*
X0058448Y0127474D01*
X0058448Y0128472D02*
X0046914Y0128472D01*
X0046914Y0129471D02*
X0058448Y0129471D01*
X0058448Y0130469D02*
X0046914Y0130469D01*
X0046914Y0131468D02*
X0058448Y0131468D01*
X0058448Y0132466D02*
X0046914Y0132466D01*
X0046914Y0133465D02*
X0058448Y0133465D01*
X0058448Y0134463D02*
X0046914Y0134463D01*
X0046914Y0135462D02*
X0058448Y0135462D01*
X0058448Y0136460D02*
X0046914Y0136460D01*
X0046914Y0137459D02*
X0058448Y0137459D01*
X0058448Y0138457D02*
X0046914Y0138457D01*
X0046914Y0139456D02*
X0058448Y0139456D01*
X0058448Y0140454D02*
X0046914Y0140454D01*
X0046914Y0141453D02*
X0058448Y0141453D01*
X0058448Y0142451D02*
X0046914Y0142451D01*
X0046914Y0143450D02*
X0058448Y0143450D01*
X0058448Y0144448D02*
X0046914Y0144448D01*
X0046914Y0145447D02*
X0058448Y0145447D01*
X0058448Y0146445D02*
X0046914Y0146445D01*
X0046914Y0147444D02*
X0058448Y0147444D01*
X0058448Y0148442D02*
X0046914Y0148442D01*
X0046914Y0149441D02*
X0058448Y0149441D01*
X0058448Y0150439D02*
X0046914Y0150439D01*
X0046914Y0151438D02*
X0058448Y0151438D01*
X0058448Y0152436D02*
X0046914Y0152436D01*
X0046914Y0153435D02*
X0058448Y0153435D01*
X0058448Y0154433D02*
X0046914Y0154433D01*
X0046914Y0155432D02*
X0058448Y0155432D01*
X0058448Y0156430D02*
X0046914Y0156430D01*
X0046914Y0157429D02*
X0058448Y0157429D01*
X0058448Y0158427D02*
X0046914Y0158427D01*
X0046914Y0159426D02*
X0058448Y0159426D01*
X0058448Y0160424D02*
X0046914Y0160424D01*
X0046914Y0161423D02*
X0058448Y0161423D01*
X0058448Y0162421D02*
X0046914Y0162421D01*
X0047144Y0163420D02*
X0058381Y0163420D01*
X0058057Y0164418D02*
X0047305Y0164418D01*
X0047050Y0165417D02*
X0058149Y0165417D01*
X0058740Y0166416D02*
X0046229Y0166416D01*
X0062371Y0166416D02*
X0086614Y0166416D01*
X0086601Y0166447D02*
X0087071Y0165312D01*
X0087940Y0164443D01*
X0089075Y0163973D01*
X0090303Y0163973D01*
X0091438Y0164443D01*
X0091719Y0164724D01*
X0091719Y0164085D01*
X0092189Y0162949D01*
X0093058Y0162081D01*
X0094193Y0161611D01*
X0095421Y0161611D01*
X0096556Y0162081D01*
X0096837Y0162361D01*
X0096837Y0161329D01*
X0097307Y0160194D01*
X0098176Y0159325D01*
X0099311Y0158855D01*
X0100539Y0158855D01*
X0101675Y0159325D01*
X0102543Y0160194D01*
X0103013Y0161329D01*
X0103013Y0162557D01*
X0102543Y0163692D01*
X0101675Y0164561D01*
X0100539Y0165031D01*
X0099311Y0165031D01*
X0098176Y0164561D01*
X0097895Y0164280D01*
X0097895Y0165313D01*
X0097425Y0166448D01*
X0096556Y0167317D01*
X0095421Y0167787D01*
X0094193Y0167787D01*
X0093058Y0167317D01*
X0092777Y0167036D01*
X0092777Y0167675D01*
X0092307Y0168810D01*
X0091438Y0169679D01*
X0091105Y0169817D01*
X0091438Y0169955D01*
X0092307Y0170824D01*
X0092777Y0171959D01*
X0092777Y0173187D01*
X0092307Y0174322D01*
X0091438Y0175191D01*
X0091105Y0175329D01*
X0091438Y0175467D01*
X0092307Y0176335D01*
X0092777Y0177470D01*
X0092777Y0178699D01*
X0092307Y0179834D01*
X0091438Y0180703D01*
X0090303Y0181173D01*
X0089075Y0181173D01*
X0087940Y0180703D01*
X0087071Y0179834D01*
X0086601Y0178699D01*
X0086601Y0177470D01*
X0087071Y0176335D01*
X0087940Y0175467D01*
X0088273Y0175329D01*
X0087940Y0175191D01*
X0087071Y0174322D01*
X0086601Y0173187D01*
X0086601Y0171959D01*
X0087071Y0170824D01*
X0087940Y0169955D01*
X0088273Y0169817D01*
X0087940Y0169679D01*
X0087071Y0168810D01*
X0086601Y0167675D01*
X0086601Y0166447D01*
X0086601Y0167414D02*
X0023434Y0167414D01*
X0023845Y0168413D02*
X0086906Y0168413D01*
X0087672Y0169411D02*
X0024112Y0169411D01*
X0024380Y0170410D02*
X0087485Y0170410D01*
X0086829Y0171408D02*
X0024461Y0171408D01*
X0024461Y0172407D02*
X0086601Y0172407D01*
X0086691Y0173405D02*
X0024461Y0173405D01*
X0024258Y0174404D02*
X0087152Y0174404D01*
X0088095Y0175402D02*
X0023990Y0175402D01*
X0023723Y0176401D02*
X0087044Y0176401D01*
X0086630Y0177399D02*
X0023172Y0177399D01*
X0022595Y0178398D02*
X0086601Y0178398D01*
X0086890Y0179396D02*
X0021862Y0179396D01*
X0020863Y0180395D02*
X0087632Y0180395D01*
X0091746Y0180395D02*
X0129364Y0180395D01*
X0129672Y0180703D02*
X0128803Y0179834D01*
X0128333Y0178699D01*
X0128333Y0177470D01*
X0128803Y0176335D01*
X0129672Y0175467D01*
X0130005Y0175329D01*
X0129672Y0175191D01*
X0128803Y0174322D01*
X0128333Y0173187D01*
X0128333Y0171959D01*
X0128803Y0170824D01*
X0129672Y0169955D01*
X0130807Y0169485D01*
X0132036Y0169485D01*
X0133171Y0169955D01*
X0134039Y0170824D01*
X0134509Y0171959D01*
X0134509Y0173187D01*
X0134039Y0174322D01*
X0133171Y0175191D01*
X0132838Y0175329D01*
X0133171Y0175467D01*
X0134039Y0176335D01*
X0134509Y0177470D01*
X0134509Y0178699D01*
X0134039Y0179834D01*
X0133171Y0180703D01*
X0132036Y0181173D01*
X0130807Y0181173D01*
X0129672Y0180703D01*
X0128622Y0179396D02*
X0092488Y0179396D01*
X0092777Y0178398D02*
X0128333Y0178398D01*
X0128363Y0177399D02*
X0092748Y0177399D01*
X0092334Y0176401D02*
X0128776Y0176401D01*
X0129828Y0175402D02*
X0123212Y0175402D01*
X0123722Y0175191D02*
X0122587Y0175661D01*
X0121358Y0175661D01*
X0120223Y0175191D01*
X0119354Y0174322D01*
X0118884Y0173187D01*
X0118884Y0171959D01*
X0119354Y0170824D01*
X0120223Y0169955D01*
X0121358Y0169485D01*
X0122587Y0169485D01*
X0123722Y0169955D01*
X0124590Y0170824D01*
X0125061Y0171959D01*
X0125061Y0173187D01*
X0124590Y0174322D01*
X0123722Y0175191D01*
X0124509Y0174404D02*
X0128885Y0174404D01*
X0128423Y0173405D02*
X0124970Y0173405D01*
X0125061Y0172407D02*
X0128333Y0172407D01*
X0128561Y0171408D02*
X0124833Y0171408D01*
X0124177Y0170410D02*
X0129217Y0170410D01*
X0133625Y0170410D02*
X0143975Y0170410D01*
X0143894Y0171408D02*
X0134281Y0171408D01*
X0134509Y0172407D02*
X0143894Y0172407D01*
X0143894Y0173405D02*
X0134419Y0173405D01*
X0133958Y0174404D02*
X0144096Y0174404D01*
X0144364Y0175402D02*
X0133015Y0175402D01*
X0134066Y0176401D02*
X0144632Y0176401D01*
X0145183Y0177399D02*
X0134480Y0177399D01*
X0134509Y0178398D02*
X0145759Y0178398D01*
X0146492Y0179396D02*
X0134221Y0179396D01*
X0133479Y0180395D02*
X0147491Y0180395D01*
X0148703Y0181393D02*
X0019651Y0181393D01*
X0017922Y0182392D02*
X0150433Y0182392D01*
X0144242Y0169411D02*
X0091706Y0169411D01*
X0091893Y0170410D02*
X0109532Y0170410D01*
X0109118Y0170824D02*
X0109987Y0169955D01*
X0111122Y0169485D01*
X0112350Y0169485D01*
X0113486Y0169955D01*
X0114354Y0170824D01*
X0114824Y0171959D01*
X0114824Y0173187D01*
X0114354Y0174322D01*
X0113486Y0175191D01*
X0112350Y0175661D01*
X0111122Y0175661D01*
X0109987Y0175191D01*
X0109118Y0174322D01*
X0108648Y0173187D01*
X0108648Y0171959D01*
X0109118Y0170824D01*
X0108876Y0171408D02*
X0092549Y0171408D01*
X0092777Y0172407D02*
X0108648Y0172407D01*
X0108738Y0173405D02*
X0092687Y0173405D01*
X0092226Y0174404D02*
X0109200Y0174404D01*
X0110497Y0175402D02*
X0091283Y0175402D01*
X0092472Y0168413D02*
X0144510Y0168413D01*
X0144920Y0167414D02*
X0096322Y0167414D01*
X0097439Y0166416D02*
X0145496Y0166416D01*
X0146073Y0165417D02*
X0097852Y0165417D01*
X0097895Y0164418D02*
X0098033Y0164418D01*
X0096837Y0161423D02*
X0062662Y0161423D01*
X0062662Y0162421D02*
X0092717Y0162421D01*
X0091994Y0163420D02*
X0062729Y0163420D01*
X0063053Y0164418D02*
X0087999Y0164418D01*
X0087027Y0165417D02*
X0062961Y0165417D01*
X0062662Y0160424D02*
X0097212Y0160424D01*
X0098075Y0159426D02*
X0062662Y0159426D01*
X0062662Y0158427D02*
X0165354Y0158427D01*
X0165354Y0157429D02*
X0062662Y0157429D01*
X0062662Y0156430D02*
X0165354Y0156430D01*
X0165354Y0155432D02*
X0062662Y0155432D01*
X0062662Y0154433D02*
X0165354Y0154433D01*
X0165354Y0153435D02*
X0062662Y0153435D01*
X0062662Y0152436D02*
X0165354Y0152436D01*
X0165354Y0151438D02*
X0062662Y0151438D01*
X0062662Y0150439D02*
X0165354Y0150439D01*
X0165354Y0149441D02*
X0062662Y0149441D01*
X0062662Y0148442D02*
X0165354Y0148442D01*
X0165354Y0147444D02*
X0062662Y0147444D01*
X0062662Y0146445D02*
X0165354Y0146445D01*
X0165354Y0145447D02*
X0062662Y0145447D01*
X0062662Y0144448D02*
X0165354Y0144448D01*
X0165354Y0143450D02*
X0062662Y0143450D01*
X0062662Y0142451D02*
X0165354Y0142451D01*
X0165354Y0141453D02*
X0062662Y0141453D01*
X0062662Y0140454D02*
X0165354Y0140454D01*
X0165354Y0139456D02*
X0062662Y0139456D01*
X0062662Y0138457D02*
X0165354Y0138457D01*
X0165354Y0137459D02*
X0062662Y0137459D01*
X0062662Y0136460D02*
X0165354Y0136460D01*
X0165354Y0135462D02*
X0062662Y0135462D01*
X0062662Y0134463D02*
X0165354Y0134463D01*
X0165354Y0133465D02*
X0062662Y0133465D01*
X0062662Y0132466D02*
X0165354Y0132466D01*
X0165354Y0131468D02*
X0062662Y0131468D01*
X0062662Y0130469D02*
X0165354Y0130469D01*
X0165354Y0129471D02*
X0062662Y0129471D01*
X0062662Y0128472D02*
X0165354Y0128472D01*
X0165354Y0127474D02*
X0062662Y0127474D01*
X0062662Y0126475D02*
X0165354Y0126475D01*
X0165354Y0125477D02*
X0062662Y0125477D01*
X0062662Y0124478D02*
X0165354Y0124478D01*
X0165354Y0123480D02*
X0062662Y0123480D01*
X0062662Y0122481D02*
X0165354Y0122481D01*
X0165354Y0121482D02*
X0062662Y0121482D01*
X0062662Y0120484D02*
X0165354Y0120484D01*
X0165354Y0119485D02*
X0062662Y0119485D01*
X0062662Y0118487D02*
X0165354Y0118487D01*
X0165354Y0117488D02*
X0062662Y0117488D01*
X0062662Y0116490D02*
X0165354Y0116490D01*
X0165354Y0115491D02*
X0062662Y0115491D01*
X0062662Y0114493D02*
X0165354Y0114493D01*
X0165354Y0113494D02*
X0062662Y0113494D01*
X0062662Y0112496D02*
X0165354Y0112496D01*
X0165354Y0111497D02*
X0061908Y0111497D01*
X0060910Y0110499D02*
X0165354Y0110499D01*
X0165354Y0109500D02*
X0059911Y0109500D01*
X0058913Y0108502D02*
X0165354Y0108502D01*
X0165354Y0107503D02*
X0057914Y0107503D01*
X0056916Y0106505D02*
X0165354Y0106505D01*
X0165354Y0105506D02*
X0055917Y0105506D01*
X0054919Y0104508D02*
X0165354Y0104508D01*
X0165354Y0103509D02*
X0053920Y0103509D01*
X0052922Y0102511D02*
X0165354Y0102511D01*
X0165354Y0101512D02*
X0051923Y0101512D01*
X0050925Y0100514D02*
X0165354Y0100514D01*
X0165354Y0099515D02*
X0049926Y0099515D01*
X0048928Y0098517D02*
X0165354Y0098517D01*
X0165354Y0097518D02*
X0047929Y0097518D01*
X0046931Y0096520D02*
X0165354Y0096520D01*
X0165354Y0095521D02*
X0045932Y0095521D01*
X0044934Y0094523D02*
X0165354Y0094523D01*
X0165354Y0093524D02*
X0043935Y0093524D01*
X0042937Y0092526D02*
X0165354Y0092526D01*
X0165354Y0091527D02*
X0041938Y0091527D01*
X0040940Y0090529D02*
X0165354Y0090529D01*
X0165354Y0089530D02*
X0039941Y0089530D01*
X0039040Y0088532D02*
X0165354Y0088532D01*
X0165354Y0087533D02*
X0039040Y0087533D01*
X0039040Y0086535D02*
X0165354Y0086535D01*
X0165354Y0085536D02*
X0039040Y0085536D01*
X0039040Y0084538D02*
X0165354Y0084538D01*
X0165354Y0083539D02*
X0039040Y0083539D01*
X0039040Y0082541D02*
X0165354Y0082541D01*
X0165354Y0081542D02*
X0039040Y0081542D01*
X0039040Y0080544D02*
X0165354Y0080544D01*
X0165354Y0079545D02*
X0039040Y0079545D01*
X0039040Y0078547D02*
X0165354Y0078547D01*
X0165354Y0077548D02*
X0039040Y0077548D01*
X0039040Y0076549D02*
X0165354Y0076549D01*
X0165354Y0075551D02*
X0039040Y0075551D01*
X0039040Y0074552D02*
X0165354Y0074552D01*
X0165354Y0073554D02*
X0039040Y0073554D01*
X0039040Y0072555D02*
X0165354Y0072555D01*
X0165354Y0071557D02*
X0039040Y0071557D01*
X0039040Y0070558D02*
X0165354Y0070558D01*
X0165354Y0069560D02*
X0039040Y0069560D01*
X0059044Y0068561D02*
X0059704Y0068561D01*
X0008603Y0040603D02*
X0003000Y0040603D01*
X0003000Y0039605D02*
X0006873Y0039605D01*
X0005702Y0038606D02*
X0003000Y0038606D01*
X0003000Y0037608D02*
X0004704Y0037608D01*
X0003994Y0036609D02*
X0003000Y0036609D01*
X0003000Y0035611D02*
X0003418Y0035611D01*
X0094010Y0001500D02*
X0094011Y0001505D01*
X0094015Y0001509D01*
X0094020Y0001510D01*
X0159751Y0040603D02*
X0165354Y0040603D01*
X0165354Y0039605D02*
X0161481Y0039605D01*
X0162652Y0038606D02*
X0165354Y0038606D01*
X0165354Y0037608D02*
X0163651Y0037608D01*
X0164360Y0036609D02*
X0165354Y0036609D01*
X0165354Y0035611D02*
X0164936Y0035611D01*
X0165354Y0159426D02*
X0133272Y0159426D01*
X0133171Y0159325D02*
X0134039Y0160194D01*
X0134509Y0161329D01*
X0134509Y0162557D01*
X0134039Y0163692D01*
X0133171Y0164561D01*
X0132036Y0165031D01*
X0130807Y0165031D01*
X0129672Y0164561D01*
X0128803Y0163692D01*
X0128333Y0162557D01*
X0128333Y0161329D01*
X0128803Y0160194D01*
X0129672Y0159325D01*
X0130807Y0158855D01*
X0132036Y0158855D01*
X0133171Y0159325D01*
X0134135Y0160424D02*
X0165354Y0160424D01*
X0165354Y0161423D02*
X0157979Y0161423D01*
X0160442Y0162421D02*
X0165354Y0162421D01*
X0165354Y0163420D02*
X0162052Y0163420D01*
X0163051Y0164418D02*
X0165354Y0164418D01*
X0165354Y0165417D02*
X0164014Y0165417D01*
X0164590Y0166416D02*
X0165354Y0166416D01*
X0165354Y0167414D02*
X0165167Y0167414D01*
X0152107Y0161423D02*
X0134509Y0161423D01*
X0134509Y0162421D02*
X0149645Y0162421D01*
X0148035Y0163420D02*
X0134152Y0163420D01*
X0133313Y0164418D02*
X0147036Y0164418D01*
X0129529Y0164418D02*
X0117565Y0164418D01*
X0117423Y0164561D02*
X0116287Y0165031D01*
X0115059Y0165031D01*
X0113924Y0164561D01*
X0113055Y0163692D01*
X0112585Y0162557D01*
X0112585Y0161329D01*
X0113055Y0160194D01*
X0113924Y0159325D01*
X0115059Y0158855D01*
X0116287Y0158855D01*
X0117423Y0159325D01*
X0118291Y0160194D01*
X0118761Y0161329D01*
X0118761Y0162557D01*
X0118291Y0163692D01*
X0117423Y0164561D01*
X0118404Y0163420D02*
X0128690Y0163420D01*
X0128333Y0162421D02*
X0118761Y0162421D01*
X0118761Y0161423D02*
X0128333Y0161423D01*
X0128708Y0160424D02*
X0118387Y0160424D01*
X0117524Y0159426D02*
X0129571Y0159426D01*
X0119768Y0170410D02*
X0113940Y0170410D01*
X0114596Y0171408D02*
X0119112Y0171408D01*
X0118884Y0172407D02*
X0114824Y0172407D01*
X0114734Y0173405D02*
X0118975Y0173405D01*
X0119436Y0174404D02*
X0114273Y0174404D01*
X0112976Y0175402D02*
X0120733Y0175402D01*
X0113781Y0164418D02*
X0101817Y0164418D01*
X0102656Y0163420D02*
X0112942Y0163420D01*
X0112585Y0162421D02*
X0103013Y0162421D01*
X0103013Y0161423D02*
X0112585Y0161423D01*
X0112960Y0160424D02*
X0102639Y0160424D01*
X0101776Y0159426D02*
X0113823Y0159426D01*
X0093292Y0167414D02*
X0092777Y0167414D01*
X0091719Y0164418D02*
X0091379Y0164418D01*
X0010375Y0161423D02*
X0003000Y0161423D01*
X0003000Y0162421D02*
X0007913Y0162421D01*
X0006302Y0163420D02*
X0003000Y0163420D01*
X0003000Y0164418D02*
X0005304Y0164418D01*
X0004341Y0165417D02*
X0003000Y0165417D01*
X0003000Y0166416D02*
X0003764Y0166416D01*
X0003188Y0167414D02*
X0003000Y0167414D01*
D13*
X0029059Y0164305D03*
X0044807Y0164305D03*
X0060555Y0164699D03*
X0061736Y0067061D03*
X0059374Y0063124D03*
X0057012Y0067061D03*
X0054650Y0063124D03*
X0052287Y0067061D03*
X0049925Y0063124D03*
X0064098Y0063124D03*
X0071185Y0067061D03*
X0073547Y0063124D03*
X0078272Y0063124D03*
X0082996Y0063124D03*
X0090083Y0063124D03*
X0094807Y0063124D03*
X0099531Y0063124D03*
X0104256Y0063124D03*
X0108980Y0063124D03*
X0113705Y0063124D03*
X0121972Y0054856D03*
X0123547Y0066667D03*
X0118429Y0028281D03*
X0101894Y0028872D03*
X0092445Y0028872D03*
X0082996Y0026116D03*
X0080634Y0029266D03*
X0078272Y0026116D03*
X0075909Y0029266D03*
X0073547Y0026116D03*
X0071185Y0029266D03*
X0068823Y0026116D03*
X0066461Y0029266D03*
X0064098Y0026116D03*
X0061736Y0029266D03*
X0059374Y0026116D03*
X0057012Y0029266D03*
X0054650Y0026116D03*
X0052287Y0029266D03*
X0049925Y0026116D03*
X0085358Y0046195D03*
D14*
X0054650Y0026116D02*
X0054650Y0022179D01*
X0053075Y0020604D01*
X0038902Y0020604D01*
X0029059Y0030447D01*
X0029059Y0164305D01*
X0044807Y0164305D02*
X0044807Y0103675D01*
X0032996Y0091864D01*
X0032996Y0034384D01*
X0041264Y0026116D01*
X0049925Y0026116D01*
X0040476Y0045014D02*
X0036933Y0048557D01*
X0036933Y0089502D01*
X0060555Y0113124D01*
X0060555Y0164699D01*
D15*
X0013311Y0172179D03*
X0013311Y0030447D03*
X0155043Y0030447D03*
X0155043Y0172179D03*
D16*
X0131421Y0172573D03*
X0131421Y0178085D03*
X0121972Y0172573D03*
X0111736Y0172573D03*
X0115673Y0161943D03*
X0099925Y0161943D03*
X0094807Y0164699D03*
X0089689Y0167061D03*
X0089689Y0172573D03*
X0089689Y0178085D03*
X0131421Y0161943D03*
M02*
