G75*
%MOIN*%
%OFA0B0*%
%FSLAX25Y25*%
%IPPOS*%
%LPD*%
%AMOC8*
5,1,8,0,0,1.08239X$1,22.5*
%
%ADD10C,0.00000*%
%ADD11R,0.01378X0.09646*%
%ADD12R,0.07087X0.11811*%
%ADD13R,0.05906X0.05118*%
%ADD14R,0.06102X0.03937*%
%ADD15R,0.02165X0.02559*%
%ADD16R,0.02559X0.05709*%
%ADD17C,0.02381*%
%ADD18C,0.01000*%
%ADD19C,0.01600*%
%ADD20C,0.19685*%
%ADD21C,0.04000*%
%ADD22C,0.03562*%
D10*
X0013311Y0018636D02*
X0155043Y0018636D01*
X0155328Y0018639D01*
X0155614Y0018650D01*
X0155899Y0018667D01*
X0156183Y0018691D01*
X0156467Y0018722D01*
X0156750Y0018760D01*
X0157031Y0018805D01*
X0157312Y0018856D01*
X0157592Y0018914D01*
X0157870Y0018979D01*
X0158146Y0019051D01*
X0158420Y0019129D01*
X0158693Y0019214D01*
X0158963Y0019306D01*
X0159231Y0019404D01*
X0159497Y0019508D01*
X0159760Y0019619D01*
X0160020Y0019736D01*
X0160278Y0019859D01*
X0160532Y0019989D01*
X0160783Y0020125D01*
X0161031Y0020266D01*
X0161275Y0020414D01*
X0161516Y0020567D01*
X0161752Y0020727D01*
X0161985Y0020892D01*
X0162214Y0021062D01*
X0162439Y0021238D01*
X0162659Y0021420D01*
X0162875Y0021606D01*
X0163086Y0021798D01*
X0163293Y0021995D01*
X0163495Y0022197D01*
X0163692Y0022404D01*
X0163884Y0022615D01*
X0164070Y0022831D01*
X0164252Y0023051D01*
X0164428Y0023276D01*
X0164598Y0023505D01*
X0164763Y0023738D01*
X0164923Y0023974D01*
X0165076Y0024215D01*
X0165224Y0024459D01*
X0165365Y0024707D01*
X0165501Y0024958D01*
X0165631Y0025212D01*
X0165754Y0025470D01*
X0165871Y0025730D01*
X0165982Y0025993D01*
X0166086Y0026259D01*
X0166184Y0026527D01*
X0166276Y0026797D01*
X0166361Y0027070D01*
X0166439Y0027344D01*
X0166511Y0027620D01*
X0166576Y0027898D01*
X0166634Y0028178D01*
X0166685Y0028459D01*
X0166730Y0028740D01*
X0166768Y0029023D01*
X0166799Y0029307D01*
X0166823Y0029591D01*
X0166840Y0029876D01*
X0166851Y0030162D01*
X0166854Y0030447D01*
X0166854Y0172179D01*
X0166851Y0172464D01*
X0166840Y0172750D01*
X0166823Y0173035D01*
X0166799Y0173319D01*
X0166768Y0173603D01*
X0166730Y0173886D01*
X0166685Y0174167D01*
X0166634Y0174448D01*
X0166576Y0174728D01*
X0166511Y0175006D01*
X0166439Y0175282D01*
X0166361Y0175556D01*
X0166276Y0175829D01*
X0166184Y0176099D01*
X0166086Y0176367D01*
X0165982Y0176633D01*
X0165871Y0176896D01*
X0165754Y0177156D01*
X0165631Y0177414D01*
X0165501Y0177668D01*
X0165365Y0177919D01*
X0165224Y0178167D01*
X0165076Y0178411D01*
X0164923Y0178652D01*
X0164763Y0178888D01*
X0164598Y0179121D01*
X0164428Y0179350D01*
X0164252Y0179575D01*
X0164070Y0179795D01*
X0163884Y0180011D01*
X0163692Y0180222D01*
X0163495Y0180429D01*
X0163293Y0180631D01*
X0163086Y0180828D01*
X0162875Y0181020D01*
X0162659Y0181206D01*
X0162439Y0181388D01*
X0162214Y0181564D01*
X0161985Y0181734D01*
X0161752Y0181899D01*
X0161516Y0182059D01*
X0161275Y0182212D01*
X0161031Y0182360D01*
X0160783Y0182501D01*
X0160532Y0182637D01*
X0160278Y0182767D01*
X0160020Y0182890D01*
X0159760Y0183007D01*
X0159497Y0183118D01*
X0159231Y0183222D01*
X0158963Y0183320D01*
X0158693Y0183412D01*
X0158420Y0183497D01*
X0158146Y0183575D01*
X0157870Y0183647D01*
X0157592Y0183712D01*
X0157312Y0183770D01*
X0157031Y0183821D01*
X0156750Y0183866D01*
X0156467Y0183904D01*
X0156183Y0183935D01*
X0155899Y0183959D01*
X0155614Y0183976D01*
X0155328Y0183987D01*
X0155043Y0183990D01*
X0013311Y0183990D01*
X0013026Y0183987D01*
X0012740Y0183976D01*
X0012455Y0183959D01*
X0012171Y0183935D01*
X0011887Y0183904D01*
X0011604Y0183866D01*
X0011323Y0183821D01*
X0011042Y0183770D01*
X0010762Y0183712D01*
X0010484Y0183647D01*
X0010208Y0183575D01*
X0009934Y0183497D01*
X0009661Y0183412D01*
X0009391Y0183320D01*
X0009123Y0183222D01*
X0008857Y0183118D01*
X0008594Y0183007D01*
X0008334Y0182890D01*
X0008076Y0182767D01*
X0007822Y0182637D01*
X0007571Y0182501D01*
X0007323Y0182360D01*
X0007079Y0182212D01*
X0006838Y0182059D01*
X0006602Y0181899D01*
X0006369Y0181734D01*
X0006140Y0181564D01*
X0005915Y0181388D01*
X0005695Y0181206D01*
X0005479Y0181020D01*
X0005268Y0180828D01*
X0005061Y0180631D01*
X0004859Y0180429D01*
X0004662Y0180222D01*
X0004470Y0180011D01*
X0004284Y0179795D01*
X0004102Y0179575D01*
X0003926Y0179350D01*
X0003756Y0179121D01*
X0003591Y0178888D01*
X0003431Y0178652D01*
X0003278Y0178411D01*
X0003130Y0178167D01*
X0002989Y0177919D01*
X0002853Y0177668D01*
X0002723Y0177414D01*
X0002600Y0177156D01*
X0002483Y0176896D01*
X0002372Y0176633D01*
X0002268Y0176367D01*
X0002170Y0176099D01*
X0002078Y0175829D01*
X0001993Y0175556D01*
X0001915Y0175282D01*
X0001843Y0175006D01*
X0001778Y0174728D01*
X0001720Y0174448D01*
X0001669Y0174167D01*
X0001624Y0173886D01*
X0001586Y0173603D01*
X0001555Y0173319D01*
X0001531Y0173035D01*
X0001514Y0172750D01*
X0001503Y0172464D01*
X0001500Y0172179D01*
X0001500Y0030447D01*
X0001503Y0030162D01*
X0001514Y0029876D01*
X0001531Y0029591D01*
X0001555Y0029307D01*
X0001586Y0029023D01*
X0001624Y0028740D01*
X0001669Y0028459D01*
X0001720Y0028178D01*
X0001778Y0027898D01*
X0001843Y0027620D01*
X0001915Y0027344D01*
X0001993Y0027070D01*
X0002078Y0026797D01*
X0002170Y0026527D01*
X0002268Y0026259D01*
X0002372Y0025993D01*
X0002483Y0025730D01*
X0002600Y0025470D01*
X0002723Y0025212D01*
X0002853Y0024958D01*
X0002989Y0024707D01*
X0003130Y0024459D01*
X0003278Y0024215D01*
X0003431Y0023974D01*
X0003591Y0023738D01*
X0003756Y0023505D01*
X0003926Y0023276D01*
X0004102Y0023051D01*
X0004284Y0022831D01*
X0004470Y0022615D01*
X0004662Y0022404D01*
X0004859Y0022197D01*
X0005061Y0021995D01*
X0005268Y0021798D01*
X0005479Y0021606D01*
X0005695Y0021420D01*
X0005915Y0021238D01*
X0006140Y0021062D01*
X0006369Y0020892D01*
X0006602Y0020727D01*
X0006838Y0020567D01*
X0007079Y0020414D01*
X0007323Y0020266D01*
X0007571Y0020125D01*
X0007822Y0019989D01*
X0008076Y0019859D01*
X0008334Y0019736D01*
X0008594Y0019619D01*
X0008857Y0019508D01*
X0009123Y0019404D01*
X0009391Y0019306D01*
X0009661Y0019214D01*
X0009934Y0019129D01*
X0010208Y0019051D01*
X0010484Y0018979D01*
X0010762Y0018914D01*
X0011042Y0018856D01*
X0011323Y0018805D01*
X0011604Y0018760D01*
X0011887Y0018722D01*
X0012171Y0018691D01*
X0012455Y0018667D01*
X0012740Y0018650D01*
X0013026Y0018639D01*
X0013311Y0018636D01*
X0039098Y0052100D02*
X0039100Y0052174D01*
X0039106Y0052248D01*
X0039116Y0052321D01*
X0039130Y0052394D01*
X0039147Y0052466D01*
X0039169Y0052536D01*
X0039194Y0052606D01*
X0039223Y0052674D01*
X0039256Y0052740D01*
X0039292Y0052805D01*
X0039332Y0052867D01*
X0039374Y0052928D01*
X0039420Y0052986D01*
X0039469Y0053041D01*
X0039521Y0053094D01*
X0039576Y0053144D01*
X0039633Y0053190D01*
X0039693Y0053234D01*
X0039755Y0053274D01*
X0039819Y0053311D01*
X0039885Y0053345D01*
X0039953Y0053375D01*
X0040022Y0053401D01*
X0040093Y0053424D01*
X0040164Y0053442D01*
X0040237Y0053457D01*
X0040310Y0053468D01*
X0040384Y0053475D01*
X0040458Y0053478D01*
X0040531Y0053477D01*
X0040605Y0053472D01*
X0040679Y0053463D01*
X0040752Y0053450D01*
X0040824Y0053433D01*
X0040895Y0053413D01*
X0040965Y0053388D01*
X0041033Y0053360D01*
X0041100Y0053329D01*
X0041165Y0053293D01*
X0041228Y0053255D01*
X0041289Y0053213D01*
X0041348Y0053167D01*
X0041404Y0053119D01*
X0041457Y0053068D01*
X0041507Y0053014D01*
X0041555Y0052957D01*
X0041599Y0052898D01*
X0041641Y0052836D01*
X0041679Y0052773D01*
X0041713Y0052707D01*
X0041744Y0052640D01*
X0041771Y0052571D01*
X0041794Y0052501D01*
X0041814Y0052430D01*
X0041830Y0052357D01*
X0041842Y0052284D01*
X0041850Y0052211D01*
X0041854Y0052137D01*
X0041854Y0052063D01*
X0041850Y0051989D01*
X0041842Y0051916D01*
X0041830Y0051843D01*
X0041814Y0051770D01*
X0041794Y0051699D01*
X0041771Y0051629D01*
X0041744Y0051560D01*
X0041713Y0051493D01*
X0041679Y0051427D01*
X0041641Y0051364D01*
X0041599Y0051302D01*
X0041555Y0051243D01*
X0041507Y0051186D01*
X0041457Y0051132D01*
X0041404Y0051081D01*
X0041348Y0051033D01*
X0041289Y0050987D01*
X0041228Y0050945D01*
X0041165Y0050907D01*
X0041100Y0050871D01*
X0041033Y0050840D01*
X0040965Y0050812D01*
X0040895Y0050787D01*
X0040824Y0050767D01*
X0040752Y0050750D01*
X0040679Y0050737D01*
X0040605Y0050728D01*
X0040531Y0050723D01*
X0040458Y0050722D01*
X0040384Y0050725D01*
X0040310Y0050732D01*
X0040237Y0050743D01*
X0040164Y0050758D01*
X0040093Y0050776D01*
X0040022Y0050799D01*
X0039953Y0050825D01*
X0039885Y0050855D01*
X0039819Y0050889D01*
X0039755Y0050926D01*
X0039693Y0050966D01*
X0039633Y0051010D01*
X0039576Y0051056D01*
X0039521Y0051106D01*
X0039469Y0051159D01*
X0039420Y0051214D01*
X0039374Y0051272D01*
X0039332Y0051333D01*
X0039292Y0051395D01*
X0039256Y0051460D01*
X0039223Y0051526D01*
X0039194Y0051594D01*
X0039169Y0051664D01*
X0039147Y0051734D01*
X0039130Y0051806D01*
X0039116Y0051879D01*
X0039106Y0051952D01*
X0039100Y0052026D01*
X0039098Y0052100D01*
X0039098Y0053281D02*
X0039100Y0053355D01*
X0039106Y0053429D01*
X0039116Y0053502D01*
X0039130Y0053575D01*
X0039147Y0053647D01*
X0039169Y0053717D01*
X0039194Y0053787D01*
X0039223Y0053855D01*
X0039256Y0053921D01*
X0039292Y0053986D01*
X0039332Y0054048D01*
X0039374Y0054109D01*
X0039420Y0054167D01*
X0039469Y0054222D01*
X0039521Y0054275D01*
X0039576Y0054325D01*
X0039633Y0054371D01*
X0039693Y0054415D01*
X0039755Y0054455D01*
X0039819Y0054492D01*
X0039885Y0054526D01*
X0039953Y0054556D01*
X0040022Y0054582D01*
X0040093Y0054605D01*
X0040164Y0054623D01*
X0040237Y0054638D01*
X0040310Y0054649D01*
X0040384Y0054656D01*
X0040458Y0054659D01*
X0040531Y0054658D01*
X0040605Y0054653D01*
X0040679Y0054644D01*
X0040752Y0054631D01*
X0040824Y0054614D01*
X0040895Y0054594D01*
X0040965Y0054569D01*
X0041033Y0054541D01*
X0041100Y0054510D01*
X0041165Y0054474D01*
X0041228Y0054436D01*
X0041289Y0054394D01*
X0041348Y0054348D01*
X0041404Y0054300D01*
X0041457Y0054249D01*
X0041507Y0054195D01*
X0041555Y0054138D01*
X0041599Y0054079D01*
X0041641Y0054017D01*
X0041679Y0053954D01*
X0041713Y0053888D01*
X0041744Y0053821D01*
X0041771Y0053752D01*
X0041794Y0053682D01*
X0041814Y0053611D01*
X0041830Y0053538D01*
X0041842Y0053465D01*
X0041850Y0053392D01*
X0041854Y0053318D01*
X0041854Y0053244D01*
X0041850Y0053170D01*
X0041842Y0053097D01*
X0041830Y0053024D01*
X0041814Y0052951D01*
X0041794Y0052880D01*
X0041771Y0052810D01*
X0041744Y0052741D01*
X0041713Y0052674D01*
X0041679Y0052608D01*
X0041641Y0052545D01*
X0041599Y0052483D01*
X0041555Y0052424D01*
X0041507Y0052367D01*
X0041457Y0052313D01*
X0041404Y0052262D01*
X0041348Y0052214D01*
X0041289Y0052168D01*
X0041228Y0052126D01*
X0041165Y0052088D01*
X0041100Y0052052D01*
X0041033Y0052021D01*
X0040965Y0051993D01*
X0040895Y0051968D01*
X0040824Y0051948D01*
X0040752Y0051931D01*
X0040679Y0051918D01*
X0040605Y0051909D01*
X0040531Y0051904D01*
X0040458Y0051903D01*
X0040384Y0051906D01*
X0040310Y0051913D01*
X0040237Y0051924D01*
X0040164Y0051939D01*
X0040093Y0051957D01*
X0040022Y0051980D01*
X0039953Y0052006D01*
X0039885Y0052036D01*
X0039819Y0052070D01*
X0039755Y0052107D01*
X0039693Y0052147D01*
X0039633Y0052191D01*
X0039576Y0052237D01*
X0039521Y0052287D01*
X0039469Y0052340D01*
X0039420Y0052395D01*
X0039374Y0052453D01*
X0039332Y0052514D01*
X0039292Y0052576D01*
X0039256Y0052641D01*
X0039223Y0052707D01*
X0039194Y0052775D01*
X0039169Y0052845D01*
X0039147Y0052915D01*
X0039130Y0052987D01*
X0039116Y0053060D01*
X0039106Y0053133D01*
X0039100Y0053207D01*
X0039098Y0053281D01*
X0125713Y0053281D02*
X0125715Y0053374D01*
X0125721Y0053466D01*
X0125731Y0053558D01*
X0125745Y0053649D01*
X0125762Y0053740D01*
X0125784Y0053830D01*
X0125809Y0053919D01*
X0125838Y0054007D01*
X0125871Y0054093D01*
X0125908Y0054178D01*
X0125948Y0054262D01*
X0125992Y0054343D01*
X0126039Y0054423D01*
X0126089Y0054501D01*
X0126143Y0054576D01*
X0126200Y0054649D01*
X0126260Y0054719D01*
X0126323Y0054787D01*
X0126389Y0054852D01*
X0126457Y0054914D01*
X0126528Y0054974D01*
X0126602Y0055030D01*
X0126678Y0055083D01*
X0126756Y0055132D01*
X0126836Y0055179D01*
X0126918Y0055221D01*
X0127002Y0055261D01*
X0127087Y0055296D01*
X0127174Y0055328D01*
X0127262Y0055357D01*
X0127351Y0055381D01*
X0127441Y0055402D01*
X0127532Y0055418D01*
X0127624Y0055431D01*
X0127716Y0055440D01*
X0127809Y0055445D01*
X0127901Y0055446D01*
X0127994Y0055443D01*
X0128086Y0055436D01*
X0128178Y0055425D01*
X0128269Y0055410D01*
X0128360Y0055392D01*
X0128450Y0055369D01*
X0128538Y0055343D01*
X0128626Y0055313D01*
X0128712Y0055279D01*
X0128796Y0055242D01*
X0128879Y0055200D01*
X0128960Y0055156D01*
X0129040Y0055108D01*
X0129117Y0055057D01*
X0129191Y0055002D01*
X0129264Y0054944D01*
X0129334Y0054884D01*
X0129401Y0054820D01*
X0129465Y0054754D01*
X0129527Y0054684D01*
X0129585Y0054613D01*
X0129640Y0054539D01*
X0129692Y0054462D01*
X0129741Y0054383D01*
X0129787Y0054303D01*
X0129829Y0054220D01*
X0129867Y0054136D01*
X0129902Y0054050D01*
X0129933Y0053963D01*
X0129960Y0053875D01*
X0129983Y0053785D01*
X0130003Y0053695D01*
X0130019Y0053604D01*
X0130031Y0053512D01*
X0130039Y0053420D01*
X0130043Y0053327D01*
X0130043Y0053235D01*
X0130039Y0053142D01*
X0130031Y0053050D01*
X0130019Y0052958D01*
X0130003Y0052867D01*
X0129983Y0052777D01*
X0129960Y0052687D01*
X0129933Y0052599D01*
X0129902Y0052512D01*
X0129867Y0052426D01*
X0129829Y0052342D01*
X0129787Y0052259D01*
X0129741Y0052179D01*
X0129692Y0052100D01*
X0129640Y0052023D01*
X0129585Y0051949D01*
X0129527Y0051878D01*
X0129465Y0051808D01*
X0129401Y0051742D01*
X0129334Y0051678D01*
X0129264Y0051618D01*
X0129191Y0051560D01*
X0129117Y0051505D01*
X0129040Y0051454D01*
X0128961Y0051406D01*
X0128879Y0051362D01*
X0128796Y0051320D01*
X0128712Y0051283D01*
X0128626Y0051249D01*
X0128538Y0051219D01*
X0128450Y0051193D01*
X0128360Y0051170D01*
X0128269Y0051152D01*
X0128178Y0051137D01*
X0128086Y0051126D01*
X0127994Y0051119D01*
X0127901Y0051116D01*
X0127809Y0051117D01*
X0127716Y0051122D01*
X0127624Y0051131D01*
X0127532Y0051144D01*
X0127441Y0051160D01*
X0127351Y0051181D01*
X0127262Y0051205D01*
X0127174Y0051234D01*
X0127087Y0051266D01*
X0127002Y0051301D01*
X0126918Y0051341D01*
X0126836Y0051383D01*
X0126756Y0051430D01*
X0126678Y0051479D01*
X0126602Y0051532D01*
X0126528Y0051588D01*
X0126457Y0051648D01*
X0126389Y0051710D01*
X0126323Y0051775D01*
X0126260Y0051843D01*
X0126200Y0051913D01*
X0126143Y0051986D01*
X0126089Y0052061D01*
X0126039Y0052139D01*
X0125992Y0052219D01*
X0125948Y0052300D01*
X0125908Y0052384D01*
X0125871Y0052469D01*
X0125838Y0052555D01*
X0125809Y0052643D01*
X0125784Y0052732D01*
X0125762Y0052822D01*
X0125745Y0052913D01*
X0125731Y0053004D01*
X0125721Y0053096D01*
X0125715Y0053188D01*
X0125713Y0053281D01*
X0125713Y0052100D02*
X0125715Y0052193D01*
X0125721Y0052285D01*
X0125731Y0052377D01*
X0125745Y0052468D01*
X0125762Y0052559D01*
X0125784Y0052649D01*
X0125809Y0052738D01*
X0125838Y0052826D01*
X0125871Y0052912D01*
X0125908Y0052997D01*
X0125948Y0053081D01*
X0125992Y0053162D01*
X0126039Y0053242D01*
X0126089Y0053320D01*
X0126143Y0053395D01*
X0126200Y0053468D01*
X0126260Y0053538D01*
X0126323Y0053606D01*
X0126389Y0053671D01*
X0126457Y0053733D01*
X0126528Y0053793D01*
X0126602Y0053849D01*
X0126678Y0053902D01*
X0126756Y0053951D01*
X0126836Y0053998D01*
X0126918Y0054040D01*
X0127002Y0054080D01*
X0127087Y0054115D01*
X0127174Y0054147D01*
X0127262Y0054176D01*
X0127351Y0054200D01*
X0127441Y0054221D01*
X0127532Y0054237D01*
X0127624Y0054250D01*
X0127716Y0054259D01*
X0127809Y0054264D01*
X0127901Y0054265D01*
X0127994Y0054262D01*
X0128086Y0054255D01*
X0128178Y0054244D01*
X0128269Y0054229D01*
X0128360Y0054211D01*
X0128450Y0054188D01*
X0128538Y0054162D01*
X0128626Y0054132D01*
X0128712Y0054098D01*
X0128796Y0054061D01*
X0128879Y0054019D01*
X0128960Y0053975D01*
X0129040Y0053927D01*
X0129117Y0053876D01*
X0129191Y0053821D01*
X0129264Y0053763D01*
X0129334Y0053703D01*
X0129401Y0053639D01*
X0129465Y0053573D01*
X0129527Y0053503D01*
X0129585Y0053432D01*
X0129640Y0053358D01*
X0129692Y0053281D01*
X0129741Y0053202D01*
X0129787Y0053122D01*
X0129829Y0053039D01*
X0129867Y0052955D01*
X0129902Y0052869D01*
X0129933Y0052782D01*
X0129960Y0052694D01*
X0129983Y0052604D01*
X0130003Y0052514D01*
X0130019Y0052423D01*
X0130031Y0052331D01*
X0130039Y0052239D01*
X0130043Y0052146D01*
X0130043Y0052054D01*
X0130039Y0051961D01*
X0130031Y0051869D01*
X0130019Y0051777D01*
X0130003Y0051686D01*
X0129983Y0051596D01*
X0129960Y0051506D01*
X0129933Y0051418D01*
X0129902Y0051331D01*
X0129867Y0051245D01*
X0129829Y0051161D01*
X0129787Y0051078D01*
X0129741Y0050998D01*
X0129692Y0050919D01*
X0129640Y0050842D01*
X0129585Y0050768D01*
X0129527Y0050697D01*
X0129465Y0050627D01*
X0129401Y0050561D01*
X0129334Y0050497D01*
X0129264Y0050437D01*
X0129191Y0050379D01*
X0129117Y0050324D01*
X0129040Y0050273D01*
X0128961Y0050225D01*
X0128879Y0050181D01*
X0128796Y0050139D01*
X0128712Y0050102D01*
X0128626Y0050068D01*
X0128538Y0050038D01*
X0128450Y0050012D01*
X0128360Y0049989D01*
X0128269Y0049971D01*
X0128178Y0049956D01*
X0128086Y0049945D01*
X0127994Y0049938D01*
X0127901Y0049935D01*
X0127809Y0049936D01*
X0127716Y0049941D01*
X0127624Y0049950D01*
X0127532Y0049963D01*
X0127441Y0049979D01*
X0127351Y0050000D01*
X0127262Y0050024D01*
X0127174Y0050053D01*
X0127087Y0050085D01*
X0127002Y0050120D01*
X0126918Y0050160D01*
X0126836Y0050202D01*
X0126756Y0050249D01*
X0126678Y0050298D01*
X0126602Y0050351D01*
X0126528Y0050407D01*
X0126457Y0050467D01*
X0126389Y0050529D01*
X0126323Y0050594D01*
X0126260Y0050662D01*
X0126200Y0050732D01*
X0126143Y0050805D01*
X0126089Y0050880D01*
X0126039Y0050958D01*
X0125992Y0051038D01*
X0125948Y0051119D01*
X0125908Y0051203D01*
X0125871Y0051288D01*
X0125838Y0051374D01*
X0125809Y0051462D01*
X0125784Y0051551D01*
X0125762Y0051641D01*
X0125745Y0051732D01*
X0125731Y0051823D01*
X0125721Y0051915D01*
X0125715Y0052007D01*
X0125713Y0052100D01*
D11*
X0118429Y0054955D03*
X0116067Y0054955D03*
X0113705Y0054955D03*
X0111343Y0054955D03*
X0108980Y0054955D03*
X0106618Y0054955D03*
X0104256Y0054955D03*
X0101894Y0054955D03*
X0099531Y0054955D03*
X0097169Y0054955D03*
X0094807Y0054955D03*
X0092445Y0054955D03*
X0090083Y0054955D03*
X0087720Y0054955D03*
X0085358Y0054955D03*
X0082996Y0054955D03*
X0080634Y0054955D03*
X0078272Y0054955D03*
X0075909Y0054955D03*
X0073547Y0054955D03*
X0071185Y0054955D03*
X0068823Y0054955D03*
X0066461Y0054955D03*
X0064098Y0054955D03*
X0061736Y0054955D03*
X0059374Y0054955D03*
X0057012Y0054955D03*
X0054650Y0054955D03*
X0052287Y0054955D03*
X0049925Y0054955D03*
X0049925Y0037435D03*
X0052287Y0037435D03*
X0054650Y0037435D03*
X0057012Y0037435D03*
X0059374Y0037435D03*
X0061736Y0037435D03*
X0064098Y0037435D03*
X0066461Y0037435D03*
X0068823Y0037435D03*
X0071185Y0037435D03*
X0073547Y0037435D03*
X0075909Y0037435D03*
X0078272Y0037435D03*
X0080634Y0037435D03*
X0082996Y0037435D03*
X0085358Y0037435D03*
X0087720Y0037435D03*
X0090083Y0037435D03*
X0092445Y0037435D03*
X0094807Y0037435D03*
X0097169Y0037435D03*
X0099531Y0037435D03*
X0101894Y0037435D03*
X0104256Y0037435D03*
X0106618Y0037435D03*
X0108980Y0037435D03*
X0111343Y0037435D03*
X0113705Y0037435D03*
X0116067Y0037435D03*
X0118429Y0037435D03*
D12*
X0123506Y0076510D03*
X0139254Y0076510D03*
X0107758Y0076510D03*
X0092010Y0076510D03*
X0076262Y0076510D03*
X0060514Y0076510D03*
X0044766Y0076510D03*
X0029018Y0076510D03*
X0029018Y0155250D03*
X0044766Y0155250D03*
X0060514Y0155250D03*
X0076262Y0155250D03*
X0092010Y0155250D03*
X0107758Y0155250D03*
X0123506Y0155250D03*
X0139254Y0155250D03*
D13*
X0026697Y0056628D03*
X0026697Y0049935D03*
X0014886Y0049935D03*
X0014886Y0056628D03*
D14*
X0121776Y0166667D03*
X0121776Y0178478D03*
X0139295Y0178478D03*
X0139295Y0172573D03*
X0139295Y0166667D03*
D15*
X0100024Y0168734D03*
X0100024Y0176411D03*
D16*
X0104059Y0172573D03*
X0095988Y0172573D03*
D17*
X0060555Y0164699D03*
X0044807Y0164305D03*
X0029059Y0164305D03*
X0052287Y0067061D03*
X0049925Y0063124D03*
X0054650Y0063124D03*
X0057012Y0067061D03*
X0059374Y0063124D03*
X0061736Y0067061D03*
X0064098Y0063124D03*
X0071185Y0067061D03*
X0073547Y0063124D03*
X0078272Y0063124D03*
X0082996Y0063124D03*
X0090083Y0063124D03*
X0094807Y0063124D03*
X0099531Y0063124D03*
X0104256Y0063124D03*
X0108980Y0063124D03*
X0113705Y0063124D03*
X0121972Y0054856D03*
X0123547Y0066667D03*
X0118429Y0028281D03*
X0101894Y0028872D03*
X0092445Y0028872D03*
X0082996Y0026116D03*
X0080634Y0029266D03*
X0078272Y0026116D03*
X0075909Y0029266D03*
X0073547Y0026116D03*
X0071185Y0029266D03*
X0068823Y0026116D03*
X0066461Y0029266D03*
X0064098Y0026116D03*
X0061736Y0029266D03*
X0059374Y0026116D03*
X0057012Y0029266D03*
X0054650Y0026116D03*
X0052287Y0029266D03*
X0049925Y0026116D03*
X0085358Y0046195D03*
D18*
X0085358Y0037435D01*
X0083169Y0037435D01*
X0082996Y0037435D01*
X0082996Y0026116D01*
X0082049Y0027148D02*
X0082751Y0027851D01*
X0083131Y0028769D01*
X0083131Y0029763D01*
X0082751Y0030681D01*
X0082441Y0030991D01*
X0082441Y0031112D01*
X0082996Y0031112D01*
X0082996Y0037435D01*
X0085358Y0037435D01*
X0085358Y0037435D01*
X0082996Y0037435D01*
X0082996Y0037435D01*
X0082996Y0031112D01*
X0083883Y0031112D01*
X0084177Y0031191D01*
X0084472Y0031112D01*
X0085358Y0031112D01*
X0085358Y0037435D01*
X0085358Y0037435D01*
X0085358Y0043758D01*
X0084472Y0043758D01*
X0084177Y0043679D01*
X0083883Y0043758D01*
X0082996Y0043758D01*
X0082110Y0043758D01*
X0081728Y0043656D01*
X0081571Y0043565D01*
X0077717Y0043565D01*
X0077717Y0044581D01*
X0076658Y0045640D01*
X0073902Y0048396D01*
X0046737Y0048396D01*
X0046573Y0048559D01*
X0046573Y0069297D01*
X0048851Y0069297D01*
X0049617Y0070063D01*
X0049617Y0082957D01*
X0048851Y0083722D01*
X0040681Y0083722D01*
X0039916Y0082957D01*
X0039916Y0070063D01*
X0040681Y0069297D01*
X0042959Y0069297D01*
X0042959Y0054808D01*
X0042916Y0054912D01*
X0042107Y0055721D01*
X0041049Y0056159D01*
X0039904Y0056159D01*
X0038846Y0055721D01*
X0038740Y0055615D01*
X0038740Y0085210D01*
X0039256Y0085726D01*
X0058625Y0085726D01*
X0058748Y0085604D01*
X0058748Y0083722D01*
X0056429Y0083722D01*
X0055664Y0082957D01*
X0055664Y0070063D01*
X0056270Y0069457D01*
X0055597Y0069178D01*
X0054894Y0068476D01*
X0054650Y0067885D01*
X0054405Y0068476D01*
X0053702Y0069178D01*
X0052784Y0069559D01*
X0051791Y0069559D01*
X0050873Y0069178D01*
X0050170Y0068476D01*
X0049790Y0067558D01*
X0049790Y0066564D01*
X0050170Y0065646D01*
X0050195Y0065622D01*
X0049428Y0065622D01*
X0048510Y0065241D01*
X0047808Y0064539D01*
X0047428Y0063621D01*
X0047428Y0062627D01*
X0047808Y0061709D01*
X0048118Y0061399D01*
X0048118Y0060508D01*
X0047929Y0060319D01*
X0047929Y0049590D01*
X0048695Y0048825D01*
X0053225Y0048825D01*
X0053382Y0048734D01*
X0053763Y0048632D01*
X0054650Y0048632D01*
X0055536Y0048632D01*
X0055918Y0048734D01*
X0056075Y0048825D01*
X0062673Y0048825D01*
X0062830Y0048734D01*
X0063212Y0048632D01*
X0064098Y0048632D01*
X0064098Y0054955D01*
X0064098Y0061278D01*
X0063543Y0061278D01*
X0063543Y0065336D01*
X0063854Y0065646D01*
X0064234Y0066564D01*
X0064234Y0067558D01*
X0063854Y0068476D01*
X0063151Y0069178D01*
X0062864Y0069297D01*
X0064599Y0069297D01*
X0065365Y0070063D01*
X0065365Y0082957D01*
X0064599Y0083722D01*
X0062362Y0083722D01*
X0062362Y0087101D01*
X0061304Y0088159D01*
X0060123Y0089341D01*
X0037759Y0089341D01*
X0036701Y0088282D01*
X0036378Y0087959D01*
X0036378Y0091116D01*
X0078069Y0132807D01*
X0078069Y0148037D01*
X0080347Y0148037D01*
X0081113Y0148803D01*
X0081113Y0161697D01*
X0080347Y0162463D01*
X0072177Y0162463D01*
X0071412Y0161697D01*
X0071412Y0148803D01*
X0072177Y0148037D01*
X0074455Y0148037D01*
X0074455Y0134304D01*
X0033822Y0093671D01*
X0032764Y0092613D01*
X0032764Y0083914D01*
X0032759Y0083915D01*
X0029518Y0083915D01*
X0029518Y0077010D01*
X0028518Y0077010D01*
X0028518Y0083915D01*
X0025277Y0083915D01*
X0024896Y0083813D01*
X0024554Y0083616D01*
X0024275Y0083336D01*
X0024077Y0082994D01*
X0023975Y0082613D01*
X0023975Y0077010D01*
X0028518Y0077010D01*
X0028518Y0076010D01*
X0023975Y0076010D01*
X0023975Y0070407D01*
X0024077Y0070025D01*
X0024275Y0069683D01*
X0024554Y0069404D01*
X0024896Y0069207D01*
X0025277Y0069104D01*
X0028518Y0069104D01*
X0028518Y0076010D01*
X0029518Y0076010D01*
X0029518Y0069104D01*
X0032759Y0069104D01*
X0032764Y0069106D01*
X0032764Y0029722D01*
X0028804Y0033682D01*
X0028804Y0046069D01*
X0030191Y0046069D01*
X0030957Y0046835D01*
X0030957Y0053036D01*
X0030847Y0053145D01*
X0030850Y0053148D01*
X0031047Y0053490D01*
X0031150Y0053871D01*
X0031150Y0056128D01*
X0027197Y0056128D01*
X0027197Y0057128D01*
X0031150Y0057128D01*
X0031150Y0059384D01*
X0031047Y0059766D01*
X0030850Y0060108D01*
X0030571Y0060387D01*
X0030229Y0060585D01*
X0029847Y0060687D01*
X0027197Y0060687D01*
X0027197Y0057128D01*
X0026197Y0057128D01*
X0026197Y0060687D01*
X0023547Y0060687D01*
X0023165Y0060585D01*
X0022823Y0060387D01*
X0022544Y0060108D01*
X0022346Y0059766D01*
X0022244Y0059384D01*
X0022244Y0057128D01*
X0026197Y0057128D01*
X0026197Y0056128D01*
X0022244Y0056128D01*
X0022244Y0053871D01*
X0022346Y0053490D01*
X0022544Y0053148D01*
X0022547Y0053145D01*
X0022437Y0053036D01*
X0022437Y0052042D01*
X0019146Y0052042D01*
X0019146Y0053036D01*
X0019036Y0053145D01*
X0019039Y0053148D01*
X0019236Y0053490D01*
X0019339Y0053871D01*
X0019339Y0056128D01*
X0015386Y0056128D01*
X0015386Y0057128D01*
X0019339Y0057128D01*
X0019339Y0059384D01*
X0019236Y0059766D01*
X0019039Y0060108D01*
X0018760Y0060387D01*
X0018418Y0060585D01*
X0018036Y0060687D01*
X0015386Y0060687D01*
X0015386Y0057128D01*
X0014386Y0057128D01*
X0014386Y0060687D01*
X0011736Y0060687D01*
X0011354Y0060585D01*
X0011012Y0060387D01*
X0010733Y0060108D01*
X0010535Y0059766D01*
X0010433Y0059384D01*
X0010433Y0057128D01*
X0014386Y0057128D01*
X0014386Y0056128D01*
X0010433Y0056128D01*
X0010433Y0053871D01*
X0010535Y0053490D01*
X0010733Y0053148D01*
X0010736Y0053145D01*
X0010626Y0053036D01*
X0010626Y0046835D01*
X0011392Y0046069D01*
X0018380Y0046069D01*
X0019146Y0046835D01*
X0019146Y0047828D01*
X0022437Y0047828D01*
X0022437Y0046835D01*
X0023203Y0046069D01*
X0024590Y0046069D01*
X0024590Y0031936D01*
X0036390Y0020136D01*
X0017751Y0020136D01*
X0020157Y0021525D01*
X0022233Y0023601D01*
X0023701Y0026143D01*
X0024461Y0028979D01*
X0024461Y0031915D01*
X0023701Y0034750D01*
X0022233Y0037293D01*
X0020157Y0039369D01*
X0017615Y0040837D01*
X0014779Y0041596D01*
X0011843Y0041596D01*
X0009007Y0040837D01*
X0006769Y0039544D01*
X0004882Y0041432D01*
X0004882Y0164344D01*
X0005130Y0164592D01*
X0006465Y0163257D01*
X0009007Y0161789D01*
X0011843Y0161030D01*
X0014779Y0161030D01*
X0017615Y0161789D01*
X0020157Y0163257D01*
X0022233Y0165333D01*
X0023701Y0167876D01*
X0024461Y0170711D01*
X0024461Y0173647D01*
X0023701Y0176483D01*
X0022233Y0179025D01*
X0020650Y0180608D01*
X0087845Y0180608D01*
X0087071Y0179834D01*
X0086601Y0178699D01*
X0086601Y0177470D01*
X0087071Y0176335D01*
X0087940Y0175467D01*
X0088273Y0175329D01*
X0087940Y0175191D01*
X0087071Y0174322D01*
X0086601Y0173187D01*
X0086601Y0171959D01*
X0087071Y0170824D01*
X0087940Y0169955D01*
X0088273Y0169817D01*
X0087940Y0169679D01*
X0087071Y0168810D01*
X0086601Y0167675D01*
X0086601Y0166447D01*
X0087071Y0165312D01*
X0087940Y0164443D01*
X0089075Y0163973D01*
X0090303Y0163973D01*
X0091438Y0164443D01*
X0091719Y0164724D01*
X0091719Y0164085D01*
X0092189Y0162949D01*
X0092676Y0162463D01*
X0087926Y0162463D01*
X0087160Y0161697D01*
X0087160Y0148803D01*
X0087926Y0148037D01*
X0096095Y0148037D01*
X0096861Y0148803D01*
X0096861Y0161272D01*
X0097307Y0160194D01*
X0098176Y0159325D01*
X0099311Y0158855D01*
X0100539Y0158855D01*
X0101675Y0159325D01*
X0102543Y0160194D01*
X0102908Y0161074D01*
X0102908Y0148803D01*
X0103674Y0148037D01*
X0111843Y0148037D01*
X0112609Y0148803D01*
X0112609Y0161272D01*
X0113055Y0160194D01*
X0113924Y0159325D01*
X0115059Y0158855D01*
X0116287Y0158855D01*
X0117423Y0159325D01*
X0118291Y0160194D01*
X0118463Y0160608D01*
X0118463Y0155750D01*
X0123006Y0155750D01*
X0123006Y0154750D01*
X0118463Y0154750D01*
X0118463Y0149147D01*
X0118565Y0148766D01*
X0118763Y0148423D01*
X0119042Y0148144D01*
X0119384Y0147947D01*
X0119766Y0147844D01*
X0123006Y0147844D01*
X0123006Y0154750D01*
X0124006Y0154750D01*
X0124006Y0147844D01*
X0127247Y0147844D01*
X0127629Y0147947D01*
X0127971Y0148144D01*
X0128250Y0148423D01*
X0128447Y0148766D01*
X0128550Y0149147D01*
X0128550Y0154750D01*
X0124006Y0154750D01*
X0124006Y0155750D01*
X0123006Y0155750D01*
X0123006Y0162655D01*
X0119766Y0162655D01*
X0119384Y0162553D01*
X0119042Y0162356D01*
X0118763Y0162077D01*
X0118761Y0162074D01*
X0118761Y0162557D01*
X0118416Y0163392D01*
X0125368Y0163392D01*
X0126134Y0164157D01*
X0126134Y0169177D01*
X0125368Y0169943D01*
X0123693Y0169943D01*
X0123722Y0169955D01*
X0124590Y0170824D01*
X0125061Y0171959D01*
X0125061Y0173187D01*
X0124590Y0174322D01*
X0123722Y0175191D01*
X0123693Y0175203D01*
X0125368Y0175203D01*
X0126134Y0175968D01*
X0126134Y0180608D01*
X0129578Y0180608D01*
X0128803Y0179834D01*
X0128333Y0178699D01*
X0128333Y0177470D01*
X0128803Y0176335D01*
X0129672Y0175467D01*
X0130005Y0175329D01*
X0129672Y0175191D01*
X0128803Y0174322D01*
X0128333Y0173187D01*
X0128333Y0171959D01*
X0128803Y0170824D01*
X0129672Y0169955D01*
X0130807Y0169485D01*
X0132036Y0169485D01*
X0133171Y0169955D01*
X0134039Y0170824D01*
X0134509Y0171959D01*
X0134509Y0173187D01*
X0134039Y0174322D01*
X0133171Y0175191D01*
X0132838Y0175329D01*
X0133171Y0175467D01*
X0134039Y0176335D01*
X0134509Y0177470D01*
X0134509Y0178699D01*
X0134039Y0179834D01*
X0133265Y0180608D01*
X0134744Y0180608D01*
X0134744Y0178963D01*
X0138811Y0178963D01*
X0138811Y0177994D01*
X0134744Y0177994D01*
X0134744Y0176312D01*
X0134846Y0175931D01*
X0135044Y0175589D01*
X0135243Y0175389D01*
X0134937Y0175083D01*
X0134937Y0170063D01*
X0135380Y0169620D01*
X0134937Y0169177D01*
X0134937Y0164157D01*
X0135703Y0163392D01*
X0135947Y0163392D01*
X0135947Y0162463D01*
X0135170Y0162463D01*
X0134509Y0161802D01*
X0134509Y0162557D01*
X0134039Y0163692D01*
X0133171Y0164561D01*
X0132036Y0165031D01*
X0130807Y0165031D01*
X0129672Y0164561D01*
X0128803Y0163692D01*
X0128333Y0162557D01*
X0128333Y0161932D01*
X0128250Y0162077D01*
X0127971Y0162356D01*
X0127629Y0162553D01*
X0127247Y0162655D01*
X0124006Y0162655D01*
X0124006Y0155750D01*
X0128550Y0155750D01*
X0128550Y0160806D01*
X0128803Y0160194D01*
X0129672Y0159325D01*
X0130807Y0158855D01*
X0132036Y0158855D01*
X0133171Y0159325D01*
X0134039Y0160194D01*
X0134404Y0161074D01*
X0134404Y0148803D01*
X0135170Y0148037D01*
X0143339Y0148037D01*
X0144105Y0148803D01*
X0144105Y0161697D01*
X0143339Y0162463D01*
X0142561Y0162463D01*
X0142561Y0163392D01*
X0142888Y0163392D01*
X0143654Y0164157D01*
X0143654Y0169177D01*
X0143211Y0169620D01*
X0143654Y0170063D01*
X0143654Y0175083D01*
X0143347Y0175389D01*
X0143547Y0175589D01*
X0143744Y0175931D01*
X0143846Y0176312D01*
X0143846Y0177994D01*
X0139780Y0177994D01*
X0139780Y0178963D01*
X0143846Y0178963D01*
X0143846Y0180608D01*
X0147705Y0180608D01*
X0146121Y0179025D01*
X0144654Y0176483D01*
X0143894Y0173647D01*
X0143894Y0170711D01*
X0144654Y0167876D01*
X0146121Y0165333D01*
X0148197Y0163257D01*
X0150740Y0161789D01*
X0153575Y0161030D01*
X0156511Y0161030D01*
X0159347Y0161789D01*
X0161889Y0163257D01*
X0163472Y0164840D01*
X0163472Y0037786D01*
X0161889Y0039369D01*
X0159347Y0040837D01*
X0156511Y0041596D01*
X0153575Y0041596D01*
X0150740Y0040837D01*
X0148197Y0039369D01*
X0146121Y0037293D01*
X0144654Y0034750D01*
X0143894Y0031915D01*
X0143894Y0028979D01*
X0144654Y0026143D01*
X0146121Y0023601D01*
X0148197Y0021525D01*
X0150603Y0020136D01*
X0098106Y0020136D01*
X0099223Y0021253D01*
X0131113Y0021253D01*
X0132347Y0022487D01*
X0141361Y0031502D01*
X0141361Y0069297D01*
X0143339Y0069297D01*
X0144105Y0070063D01*
X0144105Y0082957D01*
X0143339Y0083722D01*
X0135170Y0083722D01*
X0134404Y0082957D01*
X0134404Y0070063D01*
X0135170Y0069297D01*
X0137147Y0069297D01*
X0137147Y0033247D01*
X0129367Y0025467D01*
X0098829Y0025467D01*
X0094943Y0029354D01*
X0094943Y0029369D01*
X0094562Y0030287D01*
X0094252Y0030597D01*
X0094252Y0031305D01*
X0100469Y0031305D01*
X0100626Y0031214D01*
X0101007Y0031112D01*
X0101894Y0031112D01*
X0102780Y0031112D01*
X0103075Y0031191D01*
X0103369Y0031112D01*
X0104256Y0031112D01*
X0105142Y0031112D01*
X0105437Y0031191D01*
X0105732Y0031112D01*
X0106618Y0031112D01*
X0106618Y0037435D01*
X0104429Y0037435D01*
X0104256Y0037435D01*
X0104256Y0037435D01*
X0106618Y0037435D01*
X0106618Y0037435D01*
X0106618Y0037435D01*
X0108980Y0037435D01*
X0106791Y0037435D01*
X0106618Y0037435D01*
X0104256Y0037435D01*
X0104256Y0031112D01*
X0104256Y0037435D01*
X0104256Y0037435D01*
X0101894Y0037435D01*
X0101894Y0037435D01*
X0102067Y0037435D01*
X0104256Y0037435D01*
X0104256Y0037435D01*
X0104256Y0043758D01*
X0105142Y0043758D01*
X0105437Y0043679D01*
X0105732Y0043758D01*
X0106618Y0043758D01*
X0106618Y0037435D01*
X0106618Y0037435D01*
X0106618Y0031112D01*
X0107505Y0031112D01*
X0107799Y0031191D01*
X0108094Y0031112D01*
X0108980Y0031112D01*
X0108980Y0037435D01*
X0108980Y0037435D01*
X0106618Y0037435D01*
X0106618Y0043758D01*
X0107505Y0043758D01*
X0107799Y0043679D01*
X0108094Y0043758D01*
X0108980Y0043758D01*
X0108980Y0037435D01*
X0108980Y0037435D01*
X0108980Y0037435D01*
X0108980Y0031112D01*
X0109867Y0031112D01*
X0110248Y0031214D01*
X0110405Y0031305D01*
X0116622Y0031305D01*
X0116622Y0030007D01*
X0116312Y0029696D01*
X0115931Y0028778D01*
X0115931Y0027785D01*
X0116312Y0026867D01*
X0117014Y0026164D01*
X0117932Y0025784D01*
X0118926Y0025784D01*
X0119844Y0026164D01*
X0120547Y0026867D01*
X0120927Y0027785D01*
X0120927Y0028778D01*
X0120547Y0029696D01*
X0120236Y0030007D01*
X0120236Y0031882D01*
X0120425Y0032071D01*
X0120425Y0042799D01*
X0119660Y0043565D01*
X0110405Y0043565D01*
X0110248Y0043656D01*
X0109867Y0043758D01*
X0108980Y0043758D01*
X0108980Y0037435D01*
X0108980Y0037608D02*
X0108980Y0037608D01*
X0108980Y0038606D02*
X0108980Y0038606D01*
X0108980Y0039605D02*
X0108980Y0039605D01*
X0108980Y0040603D02*
X0108980Y0040603D01*
X0108980Y0041602D02*
X0108980Y0041602D01*
X0108980Y0042600D02*
X0108980Y0042600D01*
X0108980Y0043599D02*
X0108980Y0043599D01*
X0110347Y0043599D02*
X0137147Y0043599D01*
X0137147Y0044597D02*
X0077701Y0044597D01*
X0077717Y0043599D02*
X0081629Y0043599D01*
X0082996Y0043599D02*
X0082996Y0043599D01*
X0082996Y0043758D02*
X0082996Y0037435D01*
X0082996Y0037435D01*
X0082996Y0037435D01*
X0082996Y0043758D01*
X0082996Y0042600D02*
X0082996Y0042600D01*
X0082996Y0041602D02*
X0082996Y0041602D01*
X0082996Y0040603D02*
X0082996Y0040603D01*
X0082996Y0039605D02*
X0082996Y0039605D01*
X0082996Y0038606D02*
X0082996Y0038606D01*
X0082996Y0037608D02*
X0082996Y0037608D01*
X0082996Y0036609D02*
X0082996Y0036609D01*
X0082996Y0035611D02*
X0082996Y0035611D01*
X0082996Y0034612D02*
X0082996Y0034612D01*
X0082996Y0033613D02*
X0082996Y0033613D01*
X0082996Y0032615D02*
X0082996Y0032615D01*
X0082996Y0031616D02*
X0082996Y0031616D01*
X0082777Y0030618D02*
X0090638Y0030618D01*
X0090638Y0030597D02*
X0090327Y0030287D01*
X0089947Y0029369D01*
X0089947Y0028375D01*
X0090327Y0027457D01*
X0091030Y0026755D01*
X0091948Y0026374D01*
X0091963Y0026374D01*
X0095174Y0023163D01*
X0094722Y0022711D01*
X0071911Y0022711D01*
X0071934Y0022734D01*
X0072886Y0023687D01*
X0073050Y0023619D01*
X0074044Y0023619D01*
X0074962Y0023999D01*
X0075665Y0024701D01*
X0075909Y0025292D01*
X0076154Y0024701D01*
X0076857Y0023999D01*
X0077775Y0023619D01*
X0078768Y0023619D01*
X0079686Y0023999D01*
X0080389Y0024701D01*
X0080769Y0025619D01*
X0080769Y0026613D01*
X0080705Y0026768D01*
X0081131Y0026768D01*
X0082049Y0027148D01*
X0082523Y0027622D02*
X0090259Y0027622D01*
X0089947Y0028621D02*
X0083070Y0028621D01*
X0083131Y0029619D02*
X0090051Y0029619D01*
X0090638Y0030597D02*
X0090638Y0031112D01*
X0090083Y0031112D01*
X0090083Y0037435D01*
X0090083Y0037435D01*
X0090083Y0037435D01*
X0090083Y0043758D01*
X0090969Y0043758D01*
X0091351Y0043656D01*
X0091508Y0043565D01*
X0100469Y0043565D01*
X0100626Y0043656D01*
X0101007Y0043758D01*
X0101894Y0043758D01*
X0101894Y0037435D01*
X0104256Y0037435D01*
X0104256Y0037435D01*
X0104256Y0043758D01*
X0103369Y0043758D01*
X0103075Y0043679D01*
X0102780Y0043758D01*
X0101894Y0043758D01*
X0101894Y0037435D01*
X0101894Y0031112D01*
X0101894Y0037435D01*
X0101894Y0037435D01*
X0101894Y0037435D01*
X0101894Y0028872D01*
X0101894Y0031616D02*
X0101894Y0031616D01*
X0101894Y0032615D02*
X0101894Y0032615D01*
X0101894Y0033613D02*
X0101894Y0033613D01*
X0101894Y0034612D02*
X0101894Y0034612D01*
X0101894Y0035611D02*
X0101894Y0035611D01*
X0101894Y0036609D02*
X0101894Y0036609D01*
X0101894Y0037608D02*
X0101894Y0037608D01*
X0101894Y0038606D02*
X0101894Y0038606D01*
X0101894Y0039605D02*
X0101894Y0039605D01*
X0101894Y0040603D02*
X0101894Y0040603D01*
X0101894Y0041602D02*
X0101894Y0041602D01*
X0101894Y0042600D02*
X0101894Y0042600D01*
X0101894Y0043599D02*
X0101894Y0043599D01*
X0100527Y0043599D02*
X0091449Y0043599D01*
X0090083Y0043599D02*
X0090083Y0043599D01*
X0090083Y0043758D02*
X0089196Y0043758D01*
X0088902Y0043679D01*
X0088607Y0043758D01*
X0087721Y0043758D01*
X0087721Y0037435D01*
X0090083Y0037435D01*
X0087720Y0037435D01*
X0087547Y0037435D01*
X0085358Y0037435D01*
X0085358Y0037435D01*
X0087720Y0037435D01*
X0087720Y0037435D01*
X0085358Y0037435D01*
X0085358Y0031112D01*
X0086245Y0031112D01*
X0086539Y0031191D01*
X0086834Y0031112D01*
X0087720Y0031112D01*
X0087720Y0037435D01*
X0087721Y0037435D01*
X0087721Y0037435D01*
X0087894Y0037435D01*
X0090083Y0037435D01*
X0090083Y0031112D01*
X0089196Y0031112D01*
X0088902Y0031191D01*
X0088607Y0031112D01*
X0087721Y0031112D01*
X0087721Y0037435D01*
X0087720Y0037435D01*
X0087720Y0043758D01*
X0086834Y0043758D01*
X0086539Y0043679D01*
X0086245Y0043758D01*
X0085358Y0043758D01*
X0085358Y0037435D01*
X0085358Y0037435D01*
X0085358Y0037608D02*
X0085358Y0037608D01*
X0085358Y0038606D02*
X0085358Y0038606D01*
X0085358Y0039605D02*
X0085358Y0039605D01*
X0085358Y0040603D02*
X0085358Y0040603D01*
X0085358Y0041602D02*
X0085358Y0041602D01*
X0085358Y0042600D02*
X0085358Y0042600D01*
X0085358Y0043599D02*
X0085358Y0043599D01*
X0087720Y0043599D02*
X0087721Y0043599D01*
X0087720Y0042600D02*
X0087721Y0042600D01*
X0087720Y0041602D02*
X0087721Y0041602D01*
X0087720Y0040603D02*
X0087721Y0040603D01*
X0087720Y0039605D02*
X0087721Y0039605D01*
X0087720Y0038606D02*
X0087721Y0038606D01*
X0087720Y0037608D02*
X0087721Y0037608D01*
X0087720Y0036609D02*
X0087721Y0036609D01*
X0087720Y0035611D02*
X0087721Y0035611D01*
X0087720Y0034612D02*
X0087721Y0034612D01*
X0087720Y0033613D02*
X0087721Y0033613D01*
X0087720Y0032615D02*
X0087721Y0032615D01*
X0087720Y0031616D02*
X0087721Y0031616D01*
X0085358Y0031616D02*
X0085358Y0031616D01*
X0085358Y0032615D02*
X0085358Y0032615D01*
X0085358Y0033613D02*
X0085358Y0033613D01*
X0085358Y0034612D02*
X0085358Y0034612D01*
X0085358Y0035611D02*
X0085358Y0035611D01*
X0085358Y0036609D02*
X0085358Y0036609D01*
X0090083Y0036609D02*
X0090083Y0036609D01*
X0090083Y0037435D02*
X0090083Y0037435D01*
X0090083Y0043758D01*
X0090083Y0042600D02*
X0090083Y0042600D01*
X0090083Y0041602D02*
X0090083Y0041602D01*
X0090083Y0040603D02*
X0090083Y0040603D01*
X0090083Y0039605D02*
X0090083Y0039605D01*
X0090083Y0038606D02*
X0090083Y0038606D01*
X0090083Y0037608D02*
X0090083Y0037608D01*
X0090083Y0035611D02*
X0090083Y0035611D01*
X0090083Y0034612D02*
X0090083Y0034612D01*
X0090083Y0033613D02*
X0090083Y0033613D01*
X0090083Y0032615D02*
X0090083Y0032615D01*
X0090083Y0031616D02*
X0090083Y0031616D01*
X0092445Y0028872D02*
X0092445Y0037238D01*
X0099335Y0037238D01*
X0099531Y0037435D01*
X0097169Y0037435D01*
X0094807Y0037435D01*
X0092445Y0037435D01*
X0094252Y0030618D02*
X0116622Y0030618D01*
X0116280Y0029619D02*
X0094839Y0029619D01*
X0095676Y0028621D02*
X0115931Y0028621D01*
X0115999Y0027622D02*
X0096674Y0027622D01*
X0097673Y0026624D02*
X0116555Y0026624D01*
X0118429Y0028281D02*
X0118429Y0037435D01*
X0116067Y0037435D01*
X0113705Y0037435D01*
X0111343Y0037435D01*
X0108980Y0036609D02*
X0108980Y0036609D01*
X0108980Y0035611D02*
X0108980Y0035611D01*
X0108980Y0034612D02*
X0108980Y0034612D01*
X0108980Y0033613D02*
X0108980Y0033613D01*
X0108980Y0032615D02*
X0108980Y0032615D01*
X0108980Y0031616D02*
X0108980Y0031616D01*
X0106618Y0031616D02*
X0106618Y0031616D01*
X0106618Y0032615D02*
X0106618Y0032615D01*
X0106618Y0033613D02*
X0106618Y0033613D01*
X0106618Y0034612D02*
X0106618Y0034612D01*
X0106618Y0035611D02*
X0106618Y0035611D01*
X0106618Y0036609D02*
X0106618Y0036609D01*
X0106618Y0037435D02*
X0106618Y0037435D01*
X0106618Y0037608D02*
X0106618Y0037608D01*
X0106618Y0038606D02*
X0106618Y0038606D01*
X0106618Y0039605D02*
X0106618Y0039605D01*
X0106618Y0040603D02*
X0106618Y0040603D01*
X0106618Y0041602D02*
X0106618Y0041602D01*
X0106618Y0042600D02*
X0106618Y0042600D01*
X0106618Y0043599D02*
X0106618Y0043599D01*
X0104256Y0043599D02*
X0104256Y0043599D01*
X0104256Y0042600D02*
X0104256Y0042600D01*
X0104256Y0041602D02*
X0104256Y0041602D01*
X0104256Y0040603D02*
X0104256Y0040603D01*
X0104256Y0039605D02*
X0104256Y0039605D01*
X0104256Y0038606D02*
X0104256Y0038606D01*
X0104256Y0037608D02*
X0104256Y0037608D01*
X0104256Y0036609D02*
X0104256Y0036609D01*
X0104256Y0035611D02*
X0104256Y0035611D01*
X0104256Y0034612D02*
X0104256Y0034612D01*
X0104256Y0033613D02*
X0104256Y0033613D01*
X0104256Y0032615D02*
X0104256Y0032615D01*
X0104256Y0031616D02*
X0104256Y0031616D01*
X0098671Y0025625D02*
X0129525Y0025625D01*
X0130524Y0026624D02*
X0120304Y0026624D01*
X0120860Y0027622D02*
X0131522Y0027622D01*
X0132521Y0028621D02*
X0120927Y0028621D01*
X0120578Y0029619D02*
X0133520Y0029619D01*
X0134518Y0030618D02*
X0120236Y0030618D01*
X0120236Y0031616D02*
X0135517Y0031616D01*
X0136515Y0032615D02*
X0120425Y0032615D01*
X0120425Y0033613D02*
X0137147Y0033613D01*
X0137147Y0034612D02*
X0120425Y0034612D01*
X0120425Y0035611D02*
X0137147Y0035611D01*
X0137147Y0036609D02*
X0120425Y0036609D01*
X0120425Y0037608D02*
X0137147Y0037608D01*
X0137147Y0038606D02*
X0120425Y0038606D01*
X0120425Y0039605D02*
X0137147Y0039605D01*
X0137147Y0040603D02*
X0120425Y0040603D01*
X0120425Y0041602D02*
X0137147Y0041602D01*
X0137147Y0042600D02*
X0120425Y0042600D01*
X0119660Y0048825D02*
X0115130Y0048825D01*
X0114973Y0048734D01*
X0114591Y0048632D01*
X0113705Y0048632D01*
X0113705Y0054955D01*
X0113705Y0054955D01*
X0113705Y0061278D01*
X0114591Y0061278D01*
X0114973Y0061175D01*
X0115130Y0061085D01*
X0119660Y0061085D01*
X0120425Y0060319D01*
X0120425Y0056841D01*
X0120558Y0056974D01*
X0121476Y0057354D01*
X0122469Y0057354D01*
X0123387Y0056974D01*
X0124090Y0056271D01*
X0124470Y0055353D01*
X0124470Y0054632D01*
X0124771Y0055358D01*
X0125802Y0056389D01*
X0127149Y0056947D01*
X0128607Y0056947D01*
X0129954Y0056389D01*
X0130985Y0055358D01*
X0131543Y0054011D01*
X0131543Y0051371D01*
X0130985Y0050024D01*
X0129954Y0048993D01*
X0128607Y0048435D01*
X0127149Y0048435D01*
X0125802Y0048993D01*
X0124771Y0050024D01*
X0124213Y0051371D01*
X0124213Y0053738D01*
X0124090Y0053441D01*
X0123387Y0052739D01*
X0122469Y0052359D01*
X0121476Y0052359D01*
X0120558Y0052739D01*
X0120425Y0052871D01*
X0120425Y0049590D01*
X0119660Y0048825D01*
X0120424Y0049590D02*
X0125205Y0049590D01*
X0124537Y0050588D02*
X0120425Y0050588D01*
X0120425Y0051587D02*
X0124213Y0051587D01*
X0124213Y0052585D02*
X0123016Y0052585D01*
X0124149Y0053584D02*
X0124213Y0053584D01*
X0124376Y0055581D02*
X0124994Y0055581D01*
X0123782Y0056579D02*
X0126261Y0056579D01*
X0129494Y0056579D02*
X0137147Y0056579D01*
X0137147Y0055581D02*
X0130762Y0055581D01*
X0131307Y0054582D02*
X0137147Y0054582D01*
X0137147Y0053584D02*
X0131543Y0053584D01*
X0131543Y0052585D02*
X0137147Y0052585D01*
X0137147Y0051587D02*
X0131543Y0051587D01*
X0131219Y0050588D02*
X0137147Y0050588D01*
X0137147Y0049590D02*
X0130551Y0049590D01*
X0128984Y0048591D02*
X0137147Y0048591D01*
X0137147Y0047593D02*
X0074705Y0047593D01*
X0074434Y0048632D02*
X0073547Y0048632D01*
X0073547Y0054955D01*
X0073547Y0061278D01*
X0072992Y0061278D01*
X0072992Y0065336D01*
X0073302Y0065646D01*
X0073683Y0066564D01*
X0073683Y0067558D01*
X0073302Y0068476D01*
X0072600Y0069178D01*
X0072313Y0069297D01*
X0080347Y0069297D01*
X0081113Y0070063D01*
X0081113Y0071901D01*
X0081976Y0071037D01*
X0081976Y0068281D01*
X0084339Y0065919D01*
X0085397Y0064860D01*
X0088287Y0064860D01*
X0087965Y0064539D01*
X0087585Y0063621D01*
X0087585Y0062627D01*
X0087965Y0061709D01*
X0088276Y0061399D01*
X0088276Y0061085D01*
X0086783Y0061085D01*
X0086626Y0061175D01*
X0086245Y0061278D01*
X0085358Y0061278D01*
X0084472Y0061278D01*
X0084177Y0061199D01*
X0083883Y0061278D01*
X0082996Y0061278D01*
X0082110Y0061278D01*
X0081728Y0061175D01*
X0081571Y0061085D01*
X0080079Y0061085D01*
X0080079Y0061399D01*
X0080389Y0061709D01*
X0080769Y0062627D01*
X0080769Y0063621D01*
X0080389Y0064539D01*
X0079686Y0065241D01*
X0078768Y0065622D01*
X0077775Y0065622D01*
X0076857Y0065241D01*
X0076154Y0064539D01*
X0075774Y0063621D01*
X0075774Y0062627D01*
X0076154Y0061709D01*
X0076465Y0061399D01*
X0076465Y0061278D01*
X0075909Y0061278D01*
X0075023Y0061278D01*
X0074728Y0061199D01*
X0074434Y0061278D01*
X0073547Y0061278D01*
X0073547Y0054955D01*
X0073547Y0054955D01*
X0073547Y0063124D01*
X0072992Y0063569D02*
X0075774Y0063569D01*
X0075798Y0062570D02*
X0072992Y0062570D01*
X0072992Y0061572D02*
X0076292Y0061572D01*
X0075909Y0061278D02*
X0075909Y0054955D01*
X0075909Y0054955D01*
X0075736Y0054955D01*
X0073547Y0054955D01*
X0075909Y0054955D01*
X0075909Y0061278D01*
X0075909Y0060573D02*
X0075909Y0060573D01*
X0075909Y0059575D02*
X0075909Y0059575D01*
X0075909Y0058576D02*
X0075909Y0058576D01*
X0075909Y0057578D02*
X0075909Y0057578D01*
X0075909Y0056579D02*
X0075909Y0056579D01*
X0075909Y0055581D02*
X0075909Y0055581D01*
X0075909Y0054955D02*
X0075909Y0054955D01*
X0073547Y0054955D01*
X0073547Y0054955D01*
X0073547Y0054955D01*
X0073547Y0048632D01*
X0072661Y0048632D01*
X0072279Y0048734D01*
X0072122Y0048825D01*
X0067886Y0048825D01*
X0067729Y0048734D01*
X0067347Y0048632D01*
X0066461Y0048632D01*
X0066461Y0054955D01*
X0066461Y0054955D01*
X0066461Y0061278D01*
X0067347Y0061278D01*
X0067729Y0061175D01*
X0067886Y0061085D01*
X0069378Y0061085D01*
X0069378Y0065336D01*
X0069068Y0065646D01*
X0068687Y0066564D01*
X0068687Y0067558D01*
X0069068Y0068476D01*
X0069770Y0069178D01*
X0070688Y0069559D01*
X0071682Y0069559D01*
X0072082Y0069393D01*
X0071412Y0070063D01*
X0071412Y0082957D01*
X0072177Y0083722D01*
X0080347Y0083722D01*
X0081113Y0082957D01*
X0081113Y0077012D01*
X0084532Y0073593D01*
X0085591Y0072534D01*
X0085591Y0069778D01*
X0086894Y0068474D01*
X0121822Y0068474D01*
X0122132Y0068785D01*
X0122904Y0069104D01*
X0119766Y0069104D01*
X0119384Y0069207D01*
X0119042Y0069404D01*
X0118763Y0069683D01*
X0118565Y0070025D01*
X0118463Y0070407D01*
X0118463Y0076010D01*
X0123006Y0076010D01*
X0123006Y0077010D01*
X0118463Y0077010D01*
X0118463Y0082613D01*
X0118565Y0082994D01*
X0118763Y0083336D01*
X0119042Y0083616D01*
X0119384Y0083813D01*
X0119766Y0083915D01*
X0123006Y0083915D01*
X0123006Y0077010D01*
X0124006Y0077010D01*
X0124006Y0083915D01*
X0127247Y0083915D01*
X0127629Y0083813D01*
X0127971Y0083616D01*
X0128250Y0083336D01*
X0128447Y0082994D01*
X0128550Y0082613D01*
X0128550Y0077010D01*
X0124006Y0077010D01*
X0124006Y0076010D01*
X0128550Y0076010D01*
X0128550Y0070407D01*
X0128447Y0070025D01*
X0128250Y0069683D01*
X0127971Y0069404D01*
X0127629Y0069207D01*
X0127247Y0069104D01*
X0124190Y0069104D01*
X0124962Y0068785D01*
X0125665Y0068082D01*
X0126045Y0067164D01*
X0126045Y0066170D01*
X0125665Y0065253D01*
X0124962Y0064550D01*
X0124044Y0064170D01*
X0123050Y0064170D01*
X0122132Y0064550D01*
X0121822Y0064860D01*
X0110776Y0064860D01*
X0111098Y0064539D01*
X0111478Y0063621D01*
X0111478Y0062627D01*
X0111098Y0061709D01*
X0110787Y0061399D01*
X0110787Y0061278D01*
X0111342Y0061278D01*
X0111342Y0054955D01*
X0111343Y0054955D01*
X0113531Y0054955D01*
X0113705Y0054955D01*
X0113705Y0061278D01*
X0112818Y0061278D01*
X0112524Y0061199D01*
X0112229Y0061278D01*
X0111343Y0061278D01*
X0111343Y0054955D01*
X0111343Y0054955D01*
X0113705Y0054955D01*
X0113705Y0063124D01*
X0111478Y0063569D02*
X0137147Y0063569D01*
X0137147Y0064567D02*
X0124979Y0064567D01*
X0125794Y0065566D02*
X0137147Y0065566D01*
X0137147Y0066564D02*
X0126045Y0066564D01*
X0125880Y0067563D02*
X0137147Y0067563D01*
X0137147Y0068561D02*
X0125185Y0068561D01*
X0123547Y0066667D02*
X0086146Y0066667D01*
X0083783Y0069030D01*
X0083783Y0071785D01*
X0079059Y0076510D01*
X0076262Y0076510D01*
X0071412Y0076549D02*
X0065365Y0076549D01*
X0065365Y0075551D02*
X0071412Y0075551D01*
X0071412Y0074552D02*
X0065365Y0074552D01*
X0065365Y0073554D02*
X0071412Y0073554D01*
X0071412Y0072555D02*
X0065365Y0072555D01*
X0065365Y0071557D02*
X0071412Y0071557D01*
X0071412Y0070558D02*
X0065365Y0070558D01*
X0064862Y0069560D02*
X0071915Y0069560D01*
X0073217Y0068561D02*
X0081976Y0068561D01*
X0081976Y0069560D02*
X0080610Y0069560D01*
X0081113Y0070558D02*
X0081976Y0070558D01*
X0081456Y0071557D02*
X0081113Y0071557D01*
X0083572Y0074552D02*
X0087160Y0074552D01*
X0087160Y0073554D02*
X0084571Y0073554D01*
X0085569Y0072555D02*
X0087160Y0072555D01*
X0087160Y0071557D02*
X0085591Y0071557D01*
X0085591Y0070558D02*
X0087160Y0070558D01*
X0087160Y0070063D02*
X0087926Y0069297D01*
X0096095Y0069297D01*
X0096861Y0070063D01*
X0096861Y0082957D01*
X0096095Y0083722D01*
X0087926Y0083722D01*
X0087160Y0082957D01*
X0087160Y0070063D01*
X0087663Y0069560D02*
X0085809Y0069560D01*
X0086807Y0068561D02*
X0121909Y0068561D01*
X0118886Y0069560D02*
X0112106Y0069560D01*
X0111843Y0069297D02*
X0112609Y0070063D01*
X0112609Y0082957D01*
X0111843Y0083722D01*
X0103674Y0083722D01*
X0102908Y0082957D01*
X0102908Y0070063D01*
X0103674Y0069297D01*
X0111843Y0069297D01*
X0112609Y0070558D02*
X0118463Y0070558D01*
X0118463Y0071557D02*
X0112609Y0071557D01*
X0112609Y0072555D02*
X0118463Y0072555D01*
X0118463Y0073554D02*
X0112609Y0073554D01*
X0112609Y0074552D02*
X0118463Y0074552D01*
X0118463Y0075551D02*
X0112609Y0075551D01*
X0112609Y0076549D02*
X0123006Y0076549D01*
X0123006Y0077548D02*
X0124006Y0077548D01*
X0124006Y0076549D02*
X0134404Y0076549D01*
X0134404Y0075551D02*
X0128550Y0075551D01*
X0128550Y0074552D02*
X0134404Y0074552D01*
X0134404Y0073554D02*
X0128550Y0073554D01*
X0128550Y0072555D02*
X0134404Y0072555D01*
X0134404Y0071557D02*
X0128550Y0071557D01*
X0128550Y0070558D02*
X0134404Y0070558D01*
X0134907Y0069560D02*
X0128126Y0069560D01*
X0122115Y0064567D02*
X0111069Y0064567D01*
X0111454Y0062570D02*
X0137147Y0062570D01*
X0137147Y0061572D02*
X0110960Y0061572D01*
X0111342Y0060573D02*
X0111343Y0060573D01*
X0111342Y0059575D02*
X0111343Y0059575D01*
X0111342Y0058576D02*
X0111343Y0058576D01*
X0111342Y0057578D02*
X0111343Y0057578D01*
X0111342Y0056579D02*
X0111343Y0056579D01*
X0111342Y0055581D02*
X0111343Y0055581D01*
X0111343Y0054955D02*
X0113705Y0054955D01*
X0113705Y0054955D01*
X0113705Y0054955D01*
X0113705Y0048632D01*
X0112818Y0048632D01*
X0112524Y0048711D01*
X0112229Y0048632D01*
X0111343Y0048632D01*
X0111343Y0054955D01*
X0111342Y0054955D01*
X0111342Y0048632D01*
X0110456Y0048632D01*
X0110075Y0048734D01*
X0109917Y0048825D01*
X0105681Y0048825D01*
X0105524Y0048734D01*
X0105142Y0048632D01*
X0104256Y0048632D01*
X0104256Y0054955D01*
X0104256Y0054955D01*
X0104256Y0061278D01*
X0105142Y0061278D01*
X0105524Y0061175D01*
X0105681Y0061085D01*
X0107173Y0061085D01*
X0107173Y0061399D01*
X0106863Y0061709D01*
X0106483Y0062627D01*
X0106483Y0063621D01*
X0106863Y0064539D01*
X0107184Y0064860D01*
X0101327Y0064860D01*
X0101649Y0064539D01*
X0102029Y0063621D01*
X0102029Y0062627D01*
X0101649Y0061709D01*
X0101339Y0061399D01*
X0101339Y0061278D01*
X0101894Y0061278D01*
X0101894Y0054955D01*
X0104083Y0054955D01*
X0104256Y0054955D01*
X0104256Y0061278D01*
X0103369Y0061278D01*
X0103075Y0061199D01*
X0102780Y0061278D01*
X0101894Y0061278D01*
X0101894Y0054955D01*
X0101894Y0054955D01*
X0101894Y0054955D01*
X0104256Y0054955D01*
X0104256Y0063124D01*
X0102029Y0063569D02*
X0106483Y0063569D01*
X0106506Y0062570D02*
X0102006Y0062570D01*
X0101511Y0061572D02*
X0107000Y0061572D01*
X0108980Y0063124D02*
X0108980Y0054955D01*
X0106618Y0054955D01*
X0104256Y0054955D02*
X0104256Y0054955D01*
X0101894Y0054955D01*
X0101894Y0048632D01*
X0102780Y0048632D01*
X0103075Y0048711D01*
X0103369Y0048632D01*
X0104256Y0048632D01*
X0104256Y0054955D01*
X0104256Y0054955D01*
X0104256Y0054582D02*
X0104256Y0054582D01*
X0104256Y0053584D02*
X0104256Y0053584D01*
X0104256Y0052585D02*
X0104256Y0052585D01*
X0104256Y0051587D02*
X0104256Y0051587D01*
X0104256Y0050588D02*
X0104256Y0050588D01*
X0104256Y0049590D02*
X0104256Y0049590D01*
X0101894Y0049590D02*
X0101894Y0049590D01*
X0101894Y0048632D02*
X0101894Y0054955D01*
X0101894Y0054955D01*
X0101894Y0054582D02*
X0101894Y0054582D01*
X0101894Y0053584D02*
X0101894Y0053584D01*
X0101894Y0052585D02*
X0101894Y0052585D01*
X0101894Y0051587D02*
X0101894Y0051587D01*
X0101894Y0050588D02*
X0101894Y0050588D01*
X0101894Y0048632D02*
X0101007Y0048632D01*
X0100626Y0048734D01*
X0100469Y0048825D01*
X0096232Y0048825D01*
X0096075Y0048734D01*
X0095694Y0048632D01*
X0094807Y0048632D01*
X0094807Y0054955D01*
X0094807Y0061278D01*
X0093921Y0061278D01*
X0093626Y0061199D01*
X0093331Y0061278D01*
X0092445Y0061278D01*
X0092445Y0054955D01*
X0092445Y0054955D01*
X0094634Y0054955D01*
X0094807Y0054955D01*
X0094807Y0054955D01*
X0094807Y0061278D01*
X0095694Y0061278D01*
X0096075Y0061175D01*
X0096232Y0061085D01*
X0097724Y0061085D01*
X0097724Y0061399D01*
X0097414Y0061709D01*
X0097034Y0062627D01*
X0097034Y0063621D01*
X0097414Y0064539D01*
X0097736Y0064860D01*
X0091879Y0064860D01*
X0092200Y0064539D01*
X0092580Y0063621D01*
X0092580Y0062627D01*
X0092200Y0061709D01*
X0091890Y0061399D01*
X0091890Y0061278D01*
X0092445Y0061278D01*
X0092445Y0054955D01*
X0092445Y0054955D01*
X0094807Y0054955D01*
X0094807Y0054955D01*
X0094807Y0063124D01*
X0092580Y0063569D02*
X0097034Y0063569D01*
X0097057Y0062570D02*
X0092557Y0062570D01*
X0092063Y0061572D02*
X0097552Y0061572D01*
X0099531Y0063124D02*
X0099531Y0054955D01*
X0097169Y0054955D01*
X0094807Y0054955D02*
X0094807Y0048632D01*
X0093921Y0048632D01*
X0093626Y0048711D01*
X0093331Y0048632D01*
X0092445Y0048632D01*
X0092445Y0054955D01*
X0094807Y0054955D01*
X0094807Y0054955D01*
X0094807Y0054582D02*
X0094807Y0054582D01*
X0094807Y0053584D02*
X0094807Y0053584D01*
X0094807Y0052585D02*
X0094807Y0052585D01*
X0094807Y0051587D02*
X0094807Y0051587D01*
X0094807Y0050588D02*
X0094807Y0050588D01*
X0094807Y0049590D02*
X0094807Y0049590D01*
X0092445Y0049590D02*
X0092445Y0049590D01*
X0092445Y0048632D02*
X0092445Y0054955D01*
X0092445Y0054955D01*
X0092445Y0054582D02*
X0092445Y0054582D01*
X0092445Y0053584D02*
X0092445Y0053584D01*
X0092445Y0052585D02*
X0092445Y0052585D01*
X0092445Y0051587D02*
X0092445Y0051587D01*
X0092445Y0050588D02*
X0092445Y0050588D01*
X0092445Y0048632D02*
X0091558Y0048632D01*
X0091177Y0048734D01*
X0091020Y0048825D01*
X0086783Y0048825D01*
X0086626Y0048734D01*
X0086245Y0048632D01*
X0085358Y0048632D01*
X0085358Y0054955D01*
X0085358Y0061278D01*
X0085358Y0054955D01*
X0085358Y0054955D01*
X0085358Y0054955D01*
X0085185Y0054955D01*
X0082996Y0054955D01*
X0082996Y0061278D01*
X0082996Y0054955D01*
X0082996Y0054955D01*
X0082996Y0063124D01*
X0084692Y0065566D02*
X0078903Y0065566D01*
X0077640Y0065566D02*
X0073222Y0065566D01*
X0072992Y0064567D02*
X0076183Y0064567D01*
X0078272Y0063124D02*
X0078272Y0054955D01*
X0080634Y0054955D01*
X0082996Y0054955D02*
X0082996Y0054955D01*
X0085358Y0054955D01*
X0082996Y0054955D01*
X0082996Y0054955D01*
X0082996Y0048632D01*
X0082110Y0048632D01*
X0081728Y0048734D01*
X0081571Y0048825D01*
X0077334Y0048825D01*
X0077177Y0048734D01*
X0076796Y0048632D01*
X0075909Y0048632D01*
X0075909Y0054955D01*
X0075909Y0054955D01*
X0075909Y0048632D01*
X0075023Y0048632D01*
X0074728Y0048711D01*
X0074434Y0048632D01*
X0073547Y0049590D02*
X0073547Y0049590D01*
X0073547Y0050588D02*
X0073547Y0050588D01*
X0073547Y0051587D02*
X0073547Y0051587D01*
X0073547Y0052585D02*
X0073547Y0052585D01*
X0073547Y0053584D02*
X0073547Y0053584D01*
X0073547Y0054582D02*
X0073547Y0054582D01*
X0073547Y0055581D02*
X0073547Y0055581D01*
X0073547Y0056579D02*
X0073547Y0056579D01*
X0073547Y0057578D02*
X0073547Y0057578D01*
X0073547Y0058576D02*
X0073547Y0058576D01*
X0073547Y0059575D02*
X0073547Y0059575D01*
X0073547Y0060573D02*
X0073547Y0060573D01*
X0069378Y0061572D02*
X0063543Y0061572D01*
X0064098Y0061278D02*
X0064098Y0054955D01*
X0064098Y0054955D01*
X0064098Y0063124D01*
X0063543Y0063569D02*
X0069378Y0063569D01*
X0069378Y0064567D02*
X0063543Y0064567D01*
X0063773Y0065566D02*
X0069148Y0065566D01*
X0068687Y0066564D02*
X0064234Y0066564D01*
X0064232Y0067563D02*
X0068689Y0067563D01*
X0069153Y0068561D02*
X0063768Y0068561D01*
X0061736Y0067061D02*
X0061736Y0054955D01*
X0059374Y0054955D02*
X0059374Y0063124D01*
X0063543Y0062570D02*
X0069378Y0062570D01*
X0066461Y0061278D02*
X0065574Y0061278D01*
X0065280Y0061199D01*
X0064985Y0061278D01*
X0064098Y0061278D01*
X0064098Y0060573D02*
X0064098Y0060573D01*
X0064098Y0059575D02*
X0064098Y0059575D01*
X0064098Y0058576D02*
X0064098Y0058576D01*
X0064098Y0057578D02*
X0064098Y0057578D01*
X0064098Y0056579D02*
X0064098Y0056579D01*
X0064098Y0055581D02*
X0064098Y0055581D01*
X0064099Y0054955D02*
X0066287Y0054955D01*
X0066460Y0054955D01*
X0066460Y0054955D01*
X0066461Y0054955D02*
X0066461Y0061278D01*
X0066461Y0060573D02*
X0066461Y0060573D01*
X0066461Y0059575D02*
X0066461Y0059575D01*
X0066461Y0058576D02*
X0066461Y0058576D01*
X0066461Y0057578D02*
X0066461Y0057578D01*
X0066461Y0056579D02*
X0066461Y0056579D01*
X0066461Y0055581D02*
X0066461Y0055581D01*
X0066461Y0054955D02*
X0064098Y0054955D01*
X0064098Y0054955D01*
X0064099Y0054955D02*
X0064099Y0054955D01*
X0066460Y0054955D01*
X0066461Y0054955D02*
X0066461Y0054955D01*
X0066461Y0048632D01*
X0065574Y0048632D01*
X0065280Y0048711D01*
X0064985Y0048632D01*
X0064098Y0048632D01*
X0064098Y0054955D01*
X0064098Y0054582D02*
X0064098Y0054582D01*
X0064098Y0053584D02*
X0064098Y0053584D01*
X0064098Y0052585D02*
X0064098Y0052585D01*
X0064098Y0051587D02*
X0064098Y0051587D01*
X0064098Y0050588D02*
X0064098Y0050588D01*
X0064098Y0049590D02*
X0064098Y0049590D01*
X0066461Y0049590D02*
X0066461Y0049590D01*
X0066461Y0050588D02*
X0066461Y0050588D01*
X0066461Y0051587D02*
X0066461Y0051587D01*
X0066461Y0052585D02*
X0066461Y0052585D01*
X0066461Y0053584D02*
X0066461Y0053584D01*
X0066461Y0054582D02*
X0066461Y0054582D01*
X0068823Y0054955D02*
X0071185Y0054955D01*
X0071185Y0067061D01*
X0073681Y0067563D02*
X0082695Y0067563D01*
X0083693Y0066564D02*
X0073683Y0066564D01*
X0080360Y0064567D02*
X0087994Y0064567D01*
X0087585Y0063569D02*
X0080769Y0063569D01*
X0080746Y0062570D02*
X0087609Y0062570D01*
X0088103Y0061572D02*
X0080252Y0061572D01*
X0082996Y0060573D02*
X0082996Y0060573D01*
X0082996Y0059575D02*
X0082996Y0059575D01*
X0082996Y0058576D02*
X0082996Y0058576D01*
X0082996Y0057578D02*
X0082996Y0057578D01*
X0082996Y0056579D02*
X0082996Y0056579D01*
X0082996Y0055581D02*
X0082996Y0055581D01*
X0082996Y0054955D02*
X0082996Y0048632D01*
X0083883Y0048632D01*
X0084177Y0048711D01*
X0084472Y0048632D01*
X0085358Y0048632D01*
X0085358Y0054955D01*
X0085358Y0054955D01*
X0085358Y0054582D02*
X0085358Y0054582D01*
X0085358Y0053584D02*
X0085358Y0053584D01*
X0085358Y0052585D02*
X0085358Y0052585D01*
X0085358Y0051587D02*
X0085358Y0051587D01*
X0085358Y0050588D02*
X0085358Y0050588D01*
X0085358Y0049590D02*
X0085358Y0049590D01*
X0082996Y0049590D02*
X0082996Y0049590D01*
X0082996Y0050588D02*
X0082996Y0050588D01*
X0082996Y0051587D02*
X0082996Y0051587D01*
X0082996Y0052585D02*
X0082996Y0052585D01*
X0082996Y0053584D02*
X0082996Y0053584D01*
X0082996Y0054582D02*
X0082996Y0054582D01*
X0085358Y0055581D02*
X0085358Y0055581D01*
X0085358Y0056579D02*
X0085358Y0056579D01*
X0085358Y0057578D02*
X0085358Y0057578D01*
X0085358Y0058576D02*
X0085358Y0058576D01*
X0085358Y0059575D02*
X0085358Y0059575D01*
X0085358Y0060573D02*
X0085358Y0060573D01*
X0090083Y0063124D02*
X0090083Y0054955D01*
X0087720Y0054955D01*
X0092445Y0055581D02*
X0092445Y0055581D01*
X0092445Y0056579D02*
X0092445Y0056579D01*
X0092445Y0057578D02*
X0092445Y0057578D01*
X0092445Y0058576D02*
X0092445Y0058576D01*
X0092445Y0059575D02*
X0092445Y0059575D01*
X0092445Y0060573D02*
X0092445Y0060573D01*
X0094807Y0060573D02*
X0094807Y0060573D01*
X0094807Y0059575D02*
X0094807Y0059575D01*
X0094807Y0058576D02*
X0094807Y0058576D01*
X0094807Y0057578D02*
X0094807Y0057578D01*
X0094807Y0056579D02*
X0094807Y0056579D01*
X0094807Y0055581D02*
X0094807Y0055581D01*
X0101894Y0055581D02*
X0101894Y0055581D01*
X0101894Y0056579D02*
X0101894Y0056579D01*
X0101894Y0057578D02*
X0101894Y0057578D01*
X0101894Y0058576D02*
X0101894Y0058576D01*
X0101894Y0059575D02*
X0101894Y0059575D01*
X0101894Y0060573D02*
X0101894Y0060573D01*
X0104256Y0060573D02*
X0104256Y0060573D01*
X0104256Y0059575D02*
X0104256Y0059575D01*
X0104256Y0058576D02*
X0104256Y0058576D01*
X0104256Y0057578D02*
X0104256Y0057578D01*
X0104256Y0056579D02*
X0104256Y0056579D01*
X0104256Y0055581D02*
X0104256Y0055581D01*
X0111342Y0054582D02*
X0111343Y0054582D01*
X0111342Y0053584D02*
X0111343Y0053584D01*
X0111342Y0052585D02*
X0111343Y0052585D01*
X0111342Y0051587D02*
X0111343Y0051587D01*
X0111342Y0050588D02*
X0111343Y0050588D01*
X0111342Y0049590D02*
X0111343Y0049590D01*
X0113705Y0049590D02*
X0113705Y0049590D01*
X0113705Y0050588D02*
X0113705Y0050588D01*
X0113705Y0051587D02*
X0113705Y0051587D01*
X0113705Y0052585D02*
X0113705Y0052585D01*
X0113705Y0053584D02*
X0113705Y0053584D01*
X0113705Y0054582D02*
X0113705Y0054582D01*
X0113705Y0055581D02*
X0113705Y0055581D01*
X0113705Y0056579D02*
X0113705Y0056579D01*
X0113705Y0057578D02*
X0113705Y0057578D01*
X0113705Y0058576D02*
X0113705Y0058576D01*
X0113705Y0059575D02*
X0113705Y0059575D01*
X0113705Y0060573D02*
X0113705Y0060573D01*
X0118429Y0054955D02*
X0118528Y0054856D01*
X0121972Y0054856D01*
X0120929Y0052585D02*
X0120425Y0052585D01*
X0120425Y0057578D02*
X0137147Y0057578D01*
X0137147Y0058576D02*
X0120425Y0058576D01*
X0120425Y0059575D02*
X0137147Y0059575D01*
X0137147Y0060573D02*
X0120171Y0060573D01*
X0126772Y0048591D02*
X0046573Y0048591D01*
X0046573Y0049590D02*
X0047930Y0049590D01*
X0047929Y0050588D02*
X0046573Y0050588D01*
X0046573Y0051587D02*
X0047929Y0051587D01*
X0047929Y0052585D02*
X0046573Y0052585D01*
X0046573Y0053584D02*
X0047929Y0053584D01*
X0047929Y0054582D02*
X0046573Y0054582D01*
X0046573Y0055581D02*
X0047929Y0055581D01*
X0047929Y0056579D02*
X0046573Y0056579D01*
X0046573Y0057578D02*
X0047929Y0057578D01*
X0047929Y0058576D02*
X0046573Y0058576D01*
X0046573Y0059575D02*
X0047929Y0059575D01*
X0048118Y0060573D02*
X0046573Y0060573D01*
X0046573Y0061572D02*
X0047945Y0061572D01*
X0047451Y0062570D02*
X0046573Y0062570D01*
X0046573Y0063569D02*
X0047428Y0063569D01*
X0047836Y0064567D02*
X0046573Y0064567D01*
X0046573Y0065566D02*
X0049294Y0065566D01*
X0049790Y0066564D02*
X0046573Y0066564D01*
X0046573Y0067563D02*
X0049792Y0067563D01*
X0050256Y0068561D02*
X0046573Y0068561D01*
X0049114Y0069560D02*
X0056167Y0069560D01*
X0055664Y0070558D02*
X0049617Y0070558D01*
X0049617Y0071557D02*
X0055664Y0071557D01*
X0055664Y0072555D02*
X0049617Y0072555D01*
X0049617Y0073554D02*
X0055664Y0073554D01*
X0055664Y0074552D02*
X0049617Y0074552D01*
X0049617Y0075551D02*
X0055664Y0075551D01*
X0055664Y0076549D02*
X0049617Y0076549D01*
X0049617Y0077548D02*
X0055664Y0077548D01*
X0055664Y0078547D02*
X0049617Y0078547D01*
X0049617Y0079545D02*
X0055664Y0079545D01*
X0055664Y0080544D02*
X0049617Y0080544D01*
X0049617Y0081542D02*
X0055664Y0081542D01*
X0055664Y0082541D02*
X0049617Y0082541D01*
X0049034Y0083539D02*
X0056246Y0083539D01*
X0058748Y0084538D02*
X0038740Y0084538D01*
X0038740Y0083539D02*
X0040498Y0083539D01*
X0039916Y0082541D02*
X0038740Y0082541D01*
X0038740Y0081542D02*
X0039916Y0081542D01*
X0039916Y0080544D02*
X0038740Y0080544D01*
X0038740Y0079545D02*
X0039916Y0079545D01*
X0039916Y0078547D02*
X0038740Y0078547D01*
X0038740Y0077548D02*
X0039916Y0077548D01*
X0039916Y0076549D02*
X0038740Y0076549D01*
X0038740Y0075551D02*
X0039916Y0075551D01*
X0039916Y0074552D02*
X0038740Y0074552D01*
X0038740Y0073554D02*
X0039916Y0073554D01*
X0039916Y0072555D02*
X0038740Y0072555D01*
X0038740Y0071557D02*
X0039916Y0071557D01*
X0039916Y0070558D02*
X0038740Y0070558D01*
X0038740Y0069560D02*
X0040419Y0069560D01*
X0038740Y0068561D02*
X0042959Y0068561D01*
X0042959Y0067563D02*
X0038740Y0067563D01*
X0038740Y0066564D02*
X0042959Y0066564D01*
X0042959Y0065566D02*
X0038740Y0065566D01*
X0038740Y0064567D02*
X0042959Y0064567D01*
X0042959Y0063569D02*
X0038740Y0063569D01*
X0038740Y0062570D02*
X0042959Y0062570D01*
X0042959Y0061572D02*
X0038740Y0061572D01*
X0038740Y0060573D02*
X0042959Y0060573D01*
X0042959Y0059575D02*
X0038740Y0059575D01*
X0038740Y0058576D02*
X0042959Y0058576D01*
X0042959Y0057578D02*
X0038740Y0057578D01*
X0038740Y0056579D02*
X0042959Y0056579D01*
X0042959Y0055581D02*
X0042247Y0055581D01*
X0049925Y0054955D02*
X0049925Y0063124D01*
X0052287Y0067061D02*
X0052287Y0054955D01*
X0054650Y0054955D02*
X0054650Y0054955D01*
X0054650Y0054955D01*
X0054650Y0061278D01*
X0055205Y0061278D01*
X0055205Y0065336D01*
X0054894Y0065646D01*
X0054650Y0066237D01*
X0054405Y0065646D01*
X0054094Y0065336D01*
X0054094Y0061278D01*
X0054650Y0061278D01*
X0054650Y0054955D01*
X0054650Y0063124D01*
X0055205Y0063569D02*
X0054094Y0063569D01*
X0054094Y0064567D02*
X0055205Y0064567D01*
X0054975Y0065566D02*
X0054324Y0065566D01*
X0054319Y0068561D02*
X0054980Y0068561D01*
X0057012Y0067061D02*
X0057012Y0054955D01*
X0054650Y0054955D02*
X0054650Y0048632D01*
X0054650Y0054955D01*
X0054650Y0054582D02*
X0054650Y0054582D01*
X0054650Y0053584D02*
X0054650Y0053584D01*
X0054650Y0052585D02*
X0054650Y0052585D01*
X0054650Y0051587D02*
X0054650Y0051587D01*
X0054650Y0050588D02*
X0054650Y0050588D01*
X0054650Y0049590D02*
X0054650Y0049590D01*
X0055437Y0044226D02*
X0041657Y0044226D01*
X0036933Y0048951D01*
X0036933Y0085959D01*
X0038508Y0087533D01*
X0059374Y0087533D01*
X0060555Y0086352D01*
X0060555Y0076551D01*
X0060514Y0076510D01*
X0065365Y0077548D02*
X0071412Y0077548D01*
X0071412Y0078547D02*
X0065365Y0078547D01*
X0065365Y0079545D02*
X0071412Y0079545D01*
X0071412Y0080544D02*
X0065365Y0080544D01*
X0065365Y0081542D02*
X0071412Y0081542D01*
X0071412Y0082541D02*
X0065365Y0082541D01*
X0064782Y0083539D02*
X0071994Y0083539D01*
X0080530Y0083539D02*
X0087742Y0083539D01*
X0087160Y0082541D02*
X0081113Y0082541D01*
X0081113Y0081542D02*
X0087160Y0081542D01*
X0087160Y0080544D02*
X0081113Y0080544D01*
X0081113Y0079545D02*
X0087160Y0079545D01*
X0087160Y0078547D02*
X0081113Y0078547D01*
X0081113Y0077548D02*
X0087160Y0077548D01*
X0087160Y0076549D02*
X0081575Y0076549D01*
X0082574Y0075551D02*
X0087160Y0075551D01*
X0096861Y0075551D02*
X0102908Y0075551D01*
X0102908Y0076549D02*
X0096861Y0076549D01*
X0096861Y0077548D02*
X0102908Y0077548D01*
X0102908Y0078547D02*
X0096861Y0078547D01*
X0096861Y0079545D02*
X0102908Y0079545D01*
X0102908Y0080544D02*
X0096861Y0080544D01*
X0096861Y0081542D02*
X0102908Y0081542D01*
X0102908Y0082541D02*
X0096861Y0082541D01*
X0096278Y0083539D02*
X0103490Y0083539D01*
X0112026Y0083539D02*
X0118965Y0083539D01*
X0118463Y0082541D02*
X0112609Y0082541D01*
X0112609Y0081542D02*
X0118463Y0081542D01*
X0118463Y0080544D02*
X0112609Y0080544D01*
X0112609Y0079545D02*
X0118463Y0079545D01*
X0118463Y0078547D02*
X0112609Y0078547D01*
X0112609Y0077548D02*
X0118463Y0077548D01*
X0123006Y0078547D02*
X0124006Y0078547D01*
X0124006Y0079545D02*
X0123006Y0079545D01*
X0123006Y0080544D02*
X0124006Y0080544D01*
X0124006Y0081542D02*
X0123006Y0081542D01*
X0123006Y0082541D02*
X0124006Y0082541D01*
X0124006Y0083539D02*
X0123006Y0083539D01*
X0128047Y0083539D02*
X0134986Y0083539D01*
X0134404Y0082541D02*
X0128550Y0082541D01*
X0128550Y0081542D02*
X0134404Y0081542D01*
X0134404Y0080544D02*
X0128550Y0080544D01*
X0128550Y0079545D02*
X0134404Y0079545D01*
X0134404Y0078547D02*
X0128550Y0078547D01*
X0128550Y0077548D02*
X0134404Y0077548D01*
X0141361Y0068561D02*
X0163472Y0068561D01*
X0163472Y0067563D02*
X0141361Y0067563D01*
X0141361Y0066564D02*
X0163472Y0066564D01*
X0163472Y0065566D02*
X0141361Y0065566D01*
X0141361Y0064567D02*
X0163472Y0064567D01*
X0163472Y0063569D02*
X0141361Y0063569D01*
X0141361Y0062570D02*
X0163472Y0062570D01*
X0163472Y0061572D02*
X0141361Y0061572D01*
X0141361Y0060573D02*
X0163472Y0060573D01*
X0163472Y0059575D02*
X0141361Y0059575D01*
X0141361Y0058576D02*
X0163472Y0058576D01*
X0163472Y0057578D02*
X0141361Y0057578D01*
X0141361Y0056579D02*
X0163472Y0056579D01*
X0163472Y0055581D02*
X0141361Y0055581D01*
X0141361Y0054582D02*
X0163472Y0054582D01*
X0163472Y0053584D02*
X0141361Y0053584D01*
X0141361Y0052585D02*
X0163472Y0052585D01*
X0163472Y0051587D02*
X0141361Y0051587D01*
X0141361Y0050588D02*
X0163472Y0050588D01*
X0163472Y0049590D02*
X0141361Y0049590D01*
X0141361Y0048591D02*
X0163472Y0048591D01*
X0163472Y0047593D02*
X0141361Y0047593D01*
X0141361Y0046594D02*
X0163472Y0046594D01*
X0163472Y0045596D02*
X0141361Y0045596D01*
X0141361Y0044597D02*
X0163472Y0044597D01*
X0163472Y0043599D02*
X0141361Y0043599D01*
X0141361Y0042600D02*
X0163472Y0042600D01*
X0163472Y0041602D02*
X0141361Y0041602D01*
X0141361Y0040603D02*
X0150335Y0040603D01*
X0148606Y0039605D02*
X0141361Y0039605D01*
X0141361Y0038606D02*
X0147435Y0038606D01*
X0146436Y0037608D02*
X0141361Y0037608D01*
X0141361Y0036609D02*
X0145727Y0036609D01*
X0145150Y0035611D02*
X0141361Y0035611D01*
X0141361Y0034612D02*
X0144616Y0034612D01*
X0144349Y0033613D02*
X0141361Y0033613D01*
X0141361Y0032615D02*
X0144081Y0032615D01*
X0143894Y0031616D02*
X0141361Y0031616D01*
X0140478Y0030618D02*
X0143894Y0030618D01*
X0143894Y0029619D02*
X0139479Y0029619D01*
X0138481Y0028621D02*
X0143990Y0028621D01*
X0144257Y0027622D02*
X0137482Y0027622D01*
X0136484Y0026624D02*
X0144525Y0026624D01*
X0144953Y0025625D02*
X0135485Y0025625D01*
X0134487Y0024627D02*
X0145529Y0024627D01*
X0146105Y0023628D02*
X0133488Y0023628D01*
X0132490Y0022630D02*
X0147092Y0022630D01*
X0148091Y0021631D02*
X0131491Y0021631D01*
X0149742Y0020633D02*
X0098603Y0020633D01*
X0094709Y0023628D02*
X0078792Y0023628D01*
X0077751Y0023628D02*
X0074068Y0023628D01*
X0073027Y0023628D02*
X0072828Y0023628D01*
X0071185Y0024541D02*
X0071185Y0029266D01*
X0071185Y0037435D01*
X0073547Y0037435D02*
X0073547Y0026116D01*
X0075590Y0024627D02*
X0076229Y0024627D01*
X0078272Y0026116D02*
X0078272Y0037435D01*
X0080634Y0037435D02*
X0080634Y0029266D01*
X0080765Y0026624D02*
X0091346Y0026624D01*
X0092712Y0025625D02*
X0080769Y0025625D01*
X0080315Y0024627D02*
X0093710Y0024627D01*
X0075909Y0029266D02*
X0075909Y0037435D01*
X0075909Y0043833D01*
X0073154Y0046589D01*
X0045988Y0046589D01*
X0044766Y0047811D01*
X0044766Y0076510D01*
X0039066Y0085536D02*
X0058748Y0085536D01*
X0062362Y0085536D02*
X0163472Y0085536D01*
X0163472Y0084538D02*
X0062362Y0084538D01*
X0062362Y0086535D02*
X0163472Y0086535D01*
X0163472Y0087533D02*
X0061930Y0087533D01*
X0060931Y0088532D02*
X0163472Y0088532D01*
X0163472Y0089530D02*
X0036378Y0089530D01*
X0036378Y0088532D02*
X0036950Y0088532D01*
X0036378Y0090529D02*
X0163472Y0090529D01*
X0163472Y0091527D02*
X0036789Y0091527D01*
X0037788Y0092526D02*
X0163472Y0092526D01*
X0163472Y0093524D02*
X0038786Y0093524D01*
X0039785Y0094523D02*
X0163472Y0094523D01*
X0163472Y0095521D02*
X0040783Y0095521D01*
X0041782Y0096520D02*
X0163472Y0096520D01*
X0163472Y0097518D02*
X0042781Y0097518D01*
X0043779Y0098517D02*
X0163472Y0098517D01*
X0163472Y0099515D02*
X0044778Y0099515D01*
X0045776Y0100514D02*
X0163472Y0100514D01*
X0163472Y0101512D02*
X0046775Y0101512D01*
X0047773Y0102511D02*
X0163472Y0102511D01*
X0163472Y0103509D02*
X0048772Y0103509D01*
X0049770Y0104508D02*
X0163472Y0104508D01*
X0163472Y0105506D02*
X0050769Y0105506D01*
X0051767Y0106505D02*
X0163472Y0106505D01*
X0163472Y0107503D02*
X0052766Y0107503D01*
X0053764Y0108502D02*
X0163472Y0108502D01*
X0163472Y0109500D02*
X0054763Y0109500D01*
X0055761Y0110499D02*
X0163472Y0110499D01*
X0163472Y0111497D02*
X0056760Y0111497D01*
X0057758Y0112496D02*
X0163472Y0112496D01*
X0163472Y0113494D02*
X0058757Y0113494D01*
X0059755Y0114493D02*
X0163472Y0114493D01*
X0163472Y0115491D02*
X0060754Y0115491D01*
X0061752Y0116490D02*
X0163472Y0116490D01*
X0163472Y0117488D02*
X0062751Y0117488D01*
X0063749Y0118487D02*
X0163472Y0118487D01*
X0163472Y0119485D02*
X0064748Y0119485D01*
X0065746Y0120484D02*
X0163472Y0120484D01*
X0163472Y0121482D02*
X0066745Y0121482D01*
X0067743Y0122481D02*
X0163472Y0122481D01*
X0163472Y0123480D02*
X0068742Y0123480D01*
X0069740Y0124478D02*
X0163472Y0124478D01*
X0163472Y0125477D02*
X0070739Y0125477D01*
X0071737Y0126475D02*
X0163472Y0126475D01*
X0163472Y0127474D02*
X0072736Y0127474D01*
X0073734Y0128472D02*
X0163472Y0128472D01*
X0163472Y0129471D02*
X0074733Y0129471D01*
X0075731Y0130469D02*
X0163472Y0130469D01*
X0163472Y0131468D02*
X0076730Y0131468D01*
X0077728Y0132466D02*
X0163472Y0132466D01*
X0163472Y0133465D02*
X0078069Y0133465D01*
X0078069Y0134463D02*
X0163472Y0134463D01*
X0163472Y0135462D02*
X0078069Y0135462D01*
X0078069Y0136460D02*
X0163472Y0136460D01*
X0163472Y0137459D02*
X0078069Y0137459D01*
X0078069Y0138457D02*
X0163472Y0138457D01*
X0163472Y0139456D02*
X0078069Y0139456D01*
X0078069Y0140454D02*
X0163472Y0140454D01*
X0163472Y0141453D02*
X0078069Y0141453D01*
X0078069Y0142451D02*
X0163472Y0142451D01*
X0163472Y0143450D02*
X0078069Y0143450D01*
X0078069Y0144448D02*
X0163472Y0144448D01*
X0163472Y0145447D02*
X0078069Y0145447D01*
X0078069Y0146445D02*
X0163472Y0146445D01*
X0163472Y0147444D02*
X0078069Y0147444D01*
X0080752Y0148442D02*
X0087521Y0148442D01*
X0087160Y0149441D02*
X0081113Y0149441D01*
X0081113Y0150439D02*
X0087160Y0150439D01*
X0087160Y0151438D02*
X0081113Y0151438D01*
X0081113Y0152436D02*
X0087160Y0152436D01*
X0087160Y0153435D02*
X0081113Y0153435D01*
X0081113Y0154433D02*
X0087160Y0154433D01*
X0087160Y0155432D02*
X0081113Y0155432D01*
X0081113Y0156430D02*
X0087160Y0156430D01*
X0087160Y0157429D02*
X0081113Y0157429D01*
X0081113Y0158427D02*
X0087160Y0158427D01*
X0087160Y0159426D02*
X0081113Y0159426D01*
X0081113Y0160424D02*
X0087160Y0160424D01*
X0087160Y0161423D02*
X0081113Y0161423D01*
X0080388Y0162421D02*
X0087884Y0162421D01*
X0087999Y0164418D02*
X0063053Y0164418D01*
X0063053Y0164202D02*
X0063053Y0165196D01*
X0062673Y0166114D01*
X0061970Y0166816D01*
X0061052Y0167196D01*
X0060058Y0167196D01*
X0059140Y0166816D01*
X0058438Y0166114D01*
X0058057Y0165196D01*
X0058057Y0164202D01*
X0058407Y0163358D01*
X0058407Y0162463D01*
X0056429Y0162463D01*
X0055664Y0161697D01*
X0055664Y0148803D01*
X0056429Y0148037D01*
X0064599Y0148037D01*
X0065365Y0148803D01*
X0065365Y0161697D01*
X0064599Y0162463D01*
X0062621Y0162463D01*
X0062621Y0163233D01*
X0062673Y0163284D01*
X0063053Y0164202D01*
X0062729Y0163420D02*
X0091994Y0163420D01*
X0091719Y0164418D02*
X0091379Y0164418D01*
X0087027Y0165417D02*
X0062961Y0165417D01*
X0062371Y0166416D02*
X0086614Y0166416D01*
X0086601Y0167414D02*
X0023434Y0167414D01*
X0023845Y0168413D02*
X0086906Y0168413D01*
X0087672Y0169411D02*
X0024112Y0169411D01*
X0024380Y0170410D02*
X0087485Y0170410D01*
X0086829Y0171408D02*
X0024461Y0171408D01*
X0024461Y0172407D02*
X0086601Y0172407D01*
X0086691Y0173405D02*
X0024461Y0173405D01*
X0024258Y0174404D02*
X0087152Y0174404D01*
X0088095Y0175402D02*
X0023990Y0175402D01*
X0023723Y0176401D02*
X0087044Y0176401D01*
X0086630Y0177399D02*
X0023172Y0177399D01*
X0022595Y0178398D02*
X0086601Y0178398D01*
X0086890Y0179396D02*
X0021862Y0179396D01*
X0020863Y0180395D02*
X0087632Y0180395D01*
X0072136Y0162421D02*
X0064640Y0162421D01*
X0065365Y0161423D02*
X0071412Y0161423D01*
X0071412Y0160424D02*
X0065365Y0160424D01*
X0065365Y0159426D02*
X0071412Y0159426D01*
X0071412Y0158427D02*
X0065365Y0158427D01*
X0065365Y0157429D02*
X0071412Y0157429D01*
X0071412Y0156430D02*
X0065365Y0156430D01*
X0065365Y0155432D02*
X0071412Y0155432D01*
X0071412Y0154433D02*
X0065365Y0154433D01*
X0065365Y0153435D02*
X0071412Y0153435D01*
X0071412Y0152436D02*
X0065365Y0152436D01*
X0065365Y0151438D02*
X0071412Y0151438D01*
X0071412Y0150439D02*
X0065365Y0150439D01*
X0065365Y0149441D02*
X0071412Y0149441D01*
X0071773Y0148442D02*
X0065004Y0148442D01*
X0056025Y0148442D02*
X0049256Y0148442D01*
X0049617Y0148803D02*
X0048851Y0148037D01*
X0040681Y0148037D01*
X0039916Y0148803D01*
X0039916Y0161697D01*
X0040681Y0162463D01*
X0042659Y0162463D01*
X0042659Y0162964D01*
X0042309Y0163808D01*
X0042309Y0164802D01*
X0042690Y0165720D01*
X0043392Y0166423D01*
X0044310Y0166803D01*
X0045304Y0166803D01*
X0046222Y0166423D01*
X0046924Y0165720D01*
X0047305Y0164802D01*
X0047305Y0163808D01*
X0046924Y0162890D01*
X0046873Y0162839D01*
X0046873Y0162463D01*
X0048851Y0162463D01*
X0049617Y0161697D01*
X0049617Y0148803D01*
X0049617Y0149441D02*
X0055664Y0149441D01*
X0055664Y0150439D02*
X0049617Y0150439D01*
X0049617Y0151438D02*
X0055664Y0151438D01*
X0055664Y0152436D02*
X0049617Y0152436D01*
X0049617Y0153435D02*
X0055664Y0153435D01*
X0055664Y0154433D02*
X0049617Y0154433D01*
X0049617Y0155432D02*
X0055664Y0155432D01*
X0055664Y0156430D02*
X0049617Y0156430D01*
X0049617Y0157429D02*
X0055664Y0157429D01*
X0055664Y0158427D02*
X0049617Y0158427D01*
X0049617Y0159426D02*
X0055664Y0159426D01*
X0055664Y0160424D02*
X0049617Y0160424D01*
X0049617Y0161423D02*
X0055664Y0161423D01*
X0056388Y0162421D02*
X0048892Y0162421D01*
X0047144Y0163420D02*
X0058381Y0163420D01*
X0058057Y0164418D02*
X0047305Y0164418D01*
X0047050Y0165417D02*
X0058149Y0165417D01*
X0058740Y0166416D02*
X0046229Y0166416D01*
X0043385Y0166416D02*
X0030481Y0166416D01*
X0030474Y0166423D02*
X0029556Y0166803D01*
X0028562Y0166803D01*
X0027644Y0166423D01*
X0026942Y0165720D01*
X0026561Y0164802D01*
X0026561Y0163808D01*
X0026911Y0162964D01*
X0026911Y0162463D01*
X0024933Y0162463D01*
X0024168Y0161697D01*
X0024168Y0148803D01*
X0024933Y0148037D01*
X0033103Y0148037D01*
X0033868Y0148803D01*
X0033868Y0161697D01*
X0033103Y0162463D01*
X0031125Y0162463D01*
X0031125Y0162839D01*
X0031176Y0162890D01*
X0031557Y0163808D01*
X0031557Y0164802D01*
X0031176Y0165720D01*
X0030474Y0166423D01*
X0031302Y0165417D02*
X0042564Y0165417D01*
X0042309Y0164418D02*
X0031557Y0164418D01*
X0031396Y0163420D02*
X0042470Y0163420D01*
X0040640Y0162421D02*
X0033144Y0162421D01*
X0033868Y0161423D02*
X0039916Y0161423D01*
X0039916Y0160424D02*
X0033868Y0160424D01*
X0033868Y0159426D02*
X0039916Y0159426D01*
X0039916Y0158427D02*
X0033868Y0158427D01*
X0033868Y0157429D02*
X0039916Y0157429D01*
X0039916Y0156430D02*
X0033868Y0156430D01*
X0033868Y0155432D02*
X0039916Y0155432D01*
X0039916Y0154433D02*
X0033868Y0154433D01*
X0033868Y0153435D02*
X0039916Y0153435D01*
X0039916Y0152436D02*
X0033868Y0152436D01*
X0033868Y0151438D02*
X0039916Y0151438D01*
X0039916Y0150439D02*
X0033868Y0150439D01*
X0033868Y0149441D02*
X0039916Y0149441D01*
X0040277Y0148442D02*
X0033508Y0148442D01*
X0024528Y0148442D02*
X0004882Y0148442D01*
X0004882Y0147444D02*
X0074455Y0147444D01*
X0074455Y0146445D02*
X0004882Y0146445D01*
X0004882Y0145447D02*
X0074455Y0145447D01*
X0074455Y0144448D02*
X0004882Y0144448D01*
X0004882Y0143450D02*
X0074455Y0143450D01*
X0074455Y0142451D02*
X0004882Y0142451D01*
X0004882Y0141453D02*
X0074455Y0141453D01*
X0074455Y0140454D02*
X0004882Y0140454D01*
X0004882Y0139456D02*
X0074455Y0139456D01*
X0074455Y0138457D02*
X0004882Y0138457D01*
X0004882Y0137459D02*
X0074455Y0137459D01*
X0074455Y0136460D02*
X0004882Y0136460D01*
X0004882Y0135462D02*
X0074455Y0135462D01*
X0074455Y0134463D02*
X0004882Y0134463D01*
X0004882Y0133465D02*
X0073616Y0133465D01*
X0072617Y0132466D02*
X0004882Y0132466D01*
X0004882Y0131468D02*
X0071619Y0131468D01*
X0070620Y0130469D02*
X0004882Y0130469D01*
X0004882Y0129471D02*
X0069622Y0129471D01*
X0068623Y0128472D02*
X0004882Y0128472D01*
X0004882Y0127474D02*
X0067625Y0127474D01*
X0066626Y0126475D02*
X0004882Y0126475D01*
X0004882Y0125477D02*
X0065628Y0125477D01*
X0064629Y0124478D02*
X0004882Y0124478D01*
X0004882Y0123480D02*
X0063631Y0123480D01*
X0062632Y0122481D02*
X0004882Y0122481D01*
X0004882Y0121482D02*
X0061634Y0121482D01*
X0060635Y0120484D02*
X0004882Y0120484D01*
X0004882Y0119485D02*
X0059637Y0119485D01*
X0058638Y0118487D02*
X0004882Y0118487D01*
X0004882Y0117488D02*
X0057640Y0117488D01*
X0056641Y0116490D02*
X0004882Y0116490D01*
X0004882Y0115491D02*
X0055643Y0115491D01*
X0054644Y0114493D02*
X0004882Y0114493D01*
X0004882Y0113494D02*
X0053645Y0113494D01*
X0052647Y0112496D02*
X0004882Y0112496D01*
X0004882Y0111497D02*
X0051648Y0111497D01*
X0050650Y0110499D02*
X0004882Y0110499D01*
X0004882Y0109500D02*
X0049651Y0109500D01*
X0048653Y0108502D02*
X0004882Y0108502D01*
X0004882Y0107503D02*
X0047654Y0107503D01*
X0046656Y0106505D02*
X0004882Y0106505D01*
X0004882Y0105506D02*
X0045657Y0105506D01*
X0044659Y0104508D02*
X0004882Y0104508D01*
X0004882Y0103509D02*
X0043660Y0103509D01*
X0042662Y0102511D02*
X0004882Y0102511D01*
X0004882Y0101512D02*
X0041663Y0101512D01*
X0040665Y0100514D02*
X0004882Y0100514D01*
X0004882Y0099515D02*
X0039666Y0099515D01*
X0038668Y0098517D02*
X0004882Y0098517D01*
X0004882Y0097518D02*
X0037669Y0097518D01*
X0036671Y0096520D02*
X0004882Y0096520D01*
X0004882Y0095521D02*
X0035672Y0095521D01*
X0034674Y0094523D02*
X0004882Y0094523D01*
X0004882Y0093524D02*
X0033675Y0093524D01*
X0032764Y0092526D02*
X0004882Y0092526D01*
X0004882Y0091527D02*
X0032764Y0091527D01*
X0032764Y0090529D02*
X0004882Y0090529D01*
X0004882Y0089530D02*
X0032764Y0089530D01*
X0032764Y0088532D02*
X0004882Y0088532D01*
X0004882Y0087533D02*
X0032764Y0087533D01*
X0032764Y0086535D02*
X0004882Y0086535D01*
X0004882Y0085536D02*
X0032764Y0085536D01*
X0032764Y0084538D02*
X0004882Y0084538D01*
X0004882Y0083539D02*
X0024477Y0083539D01*
X0023975Y0082541D02*
X0004882Y0082541D01*
X0004882Y0081542D02*
X0023975Y0081542D01*
X0023975Y0080544D02*
X0004882Y0080544D01*
X0004882Y0079545D02*
X0023975Y0079545D01*
X0023975Y0078547D02*
X0004882Y0078547D01*
X0004882Y0077548D02*
X0023975Y0077548D01*
X0023975Y0075551D02*
X0004882Y0075551D01*
X0004882Y0076549D02*
X0028518Y0076549D01*
X0028518Y0075551D02*
X0029518Y0075551D01*
X0029518Y0074552D02*
X0028518Y0074552D01*
X0028518Y0073554D02*
X0029518Y0073554D01*
X0029518Y0072555D02*
X0028518Y0072555D01*
X0028518Y0071557D02*
X0029518Y0071557D01*
X0029518Y0070558D02*
X0028518Y0070558D01*
X0028518Y0069560D02*
X0029518Y0069560D01*
X0032764Y0068561D02*
X0004882Y0068561D01*
X0004882Y0067563D02*
X0032764Y0067563D01*
X0032764Y0066564D02*
X0004882Y0066564D01*
X0004882Y0065566D02*
X0032764Y0065566D01*
X0032764Y0064567D02*
X0004882Y0064567D01*
X0004882Y0063569D02*
X0032764Y0063569D01*
X0032764Y0062570D02*
X0004882Y0062570D01*
X0004882Y0061572D02*
X0032764Y0061572D01*
X0032764Y0060573D02*
X0030248Y0060573D01*
X0031099Y0059575D02*
X0032764Y0059575D01*
X0032764Y0058576D02*
X0031150Y0058576D01*
X0031150Y0057578D02*
X0032764Y0057578D01*
X0032764Y0056579D02*
X0027197Y0056579D01*
X0027197Y0057578D02*
X0026197Y0057578D01*
X0026197Y0058576D02*
X0027197Y0058576D01*
X0027197Y0059575D02*
X0026197Y0059575D01*
X0026197Y0060573D02*
X0027197Y0060573D01*
X0026197Y0056579D02*
X0015386Y0056579D01*
X0015386Y0057578D02*
X0014386Y0057578D01*
X0014386Y0058576D02*
X0015386Y0058576D01*
X0015386Y0059575D02*
X0014386Y0059575D01*
X0014386Y0060573D02*
X0015386Y0060573D01*
X0018437Y0060573D02*
X0023145Y0060573D01*
X0022295Y0059575D02*
X0019288Y0059575D01*
X0019339Y0058576D02*
X0022244Y0058576D01*
X0022244Y0057578D02*
X0019339Y0057578D01*
X0019339Y0055581D02*
X0022244Y0055581D01*
X0022244Y0054582D02*
X0019339Y0054582D01*
X0019261Y0053584D02*
X0022321Y0053584D01*
X0022437Y0052585D02*
X0019146Y0052585D01*
X0019146Y0047593D02*
X0022437Y0047593D01*
X0022677Y0046594D02*
X0018905Y0046594D01*
X0024590Y0045596D02*
X0004882Y0045596D01*
X0004882Y0046594D02*
X0010866Y0046594D01*
X0010626Y0047593D02*
X0004882Y0047593D01*
X0004882Y0048591D02*
X0010626Y0048591D01*
X0010626Y0049590D02*
X0004882Y0049590D01*
X0004882Y0050588D02*
X0010626Y0050588D01*
X0010626Y0051587D02*
X0004882Y0051587D01*
X0004882Y0052585D02*
X0010626Y0052585D01*
X0010510Y0053584D02*
X0004882Y0053584D01*
X0004882Y0054582D02*
X0010433Y0054582D01*
X0010433Y0055581D02*
X0004882Y0055581D01*
X0004882Y0056579D02*
X0014386Y0056579D01*
X0010433Y0057578D02*
X0004882Y0057578D01*
X0004882Y0058576D02*
X0010433Y0058576D01*
X0010484Y0059575D02*
X0004882Y0059575D01*
X0004882Y0060573D02*
X0011334Y0060573D01*
X0004882Y0069560D02*
X0024398Y0069560D01*
X0023975Y0070558D02*
X0004882Y0070558D01*
X0004882Y0071557D02*
X0023975Y0071557D01*
X0023975Y0072555D02*
X0004882Y0072555D01*
X0004882Y0073554D02*
X0023975Y0073554D01*
X0023975Y0074552D02*
X0004882Y0074552D01*
X0028518Y0077548D02*
X0029518Y0077548D01*
X0029518Y0078547D02*
X0028518Y0078547D01*
X0028518Y0079545D02*
X0029518Y0079545D01*
X0029518Y0080544D02*
X0028518Y0080544D01*
X0028518Y0081542D02*
X0029518Y0081542D01*
X0029518Y0082541D02*
X0028518Y0082541D01*
X0028518Y0083539D02*
X0029518Y0083539D01*
X0034571Y0091864D02*
X0034571Y0029659D01*
X0040870Y0023360D01*
X0070004Y0023360D01*
X0071185Y0024541D01*
X0068823Y0026116D02*
X0068823Y0037435D01*
X0066461Y0037435D02*
X0066461Y0029266D01*
X0064098Y0026116D02*
X0064098Y0037435D01*
X0061736Y0037435D02*
X0061736Y0029266D01*
X0059374Y0026116D02*
X0059374Y0037435D01*
X0057012Y0037435D02*
X0057012Y0042652D01*
X0055437Y0044226D01*
X0054650Y0037435D02*
X0054650Y0026116D01*
X0057012Y0029266D02*
X0057012Y0037435D01*
X0052287Y0037435D02*
X0052287Y0029266D01*
X0049925Y0026116D02*
X0049925Y0037435D01*
X0054650Y0055581D02*
X0054650Y0055581D01*
X0054650Y0056579D02*
X0054650Y0056579D01*
X0054650Y0057578D02*
X0054650Y0057578D01*
X0054650Y0058576D02*
X0054650Y0058576D01*
X0054650Y0059575D02*
X0054650Y0059575D01*
X0054650Y0060573D02*
X0054650Y0060573D01*
X0055205Y0061572D02*
X0054094Y0061572D01*
X0054094Y0062570D02*
X0055205Y0062570D01*
X0075909Y0054582D02*
X0075909Y0054582D01*
X0075909Y0053584D02*
X0075909Y0053584D01*
X0075909Y0052585D02*
X0075909Y0052585D01*
X0075909Y0051587D02*
X0075909Y0051587D01*
X0075909Y0050588D02*
X0075909Y0050588D01*
X0075909Y0049590D02*
X0075909Y0049590D01*
X0075704Y0046594D02*
X0137147Y0046594D01*
X0137147Y0045596D02*
X0076702Y0045596D01*
X0076658Y0045640D02*
X0076658Y0045640D01*
X0092172Y0064567D02*
X0097443Y0064567D01*
X0101620Y0064567D02*
X0106891Y0064567D01*
X0103411Y0069560D02*
X0096358Y0069560D01*
X0096861Y0070558D02*
X0102908Y0070558D01*
X0102908Y0071557D02*
X0096861Y0071557D01*
X0096861Y0072555D02*
X0102908Y0072555D01*
X0102908Y0073554D02*
X0096861Y0073554D01*
X0096861Y0074552D02*
X0102908Y0074552D01*
X0143602Y0069560D02*
X0163472Y0069560D01*
X0163472Y0070558D02*
X0144105Y0070558D01*
X0144105Y0071557D02*
X0163472Y0071557D01*
X0163472Y0072555D02*
X0144105Y0072555D01*
X0144105Y0073554D02*
X0163472Y0073554D01*
X0163472Y0074552D02*
X0144105Y0074552D01*
X0144105Y0075551D02*
X0163472Y0075551D01*
X0163472Y0076549D02*
X0144105Y0076549D01*
X0144105Y0077548D02*
X0163472Y0077548D01*
X0163472Y0078547D02*
X0144105Y0078547D01*
X0144105Y0079545D02*
X0163472Y0079545D01*
X0163472Y0080544D02*
X0144105Y0080544D01*
X0144105Y0081542D02*
X0163472Y0081542D01*
X0163472Y0082541D02*
X0144105Y0082541D01*
X0143522Y0083539D02*
X0163472Y0083539D01*
X0163472Y0040603D02*
X0159751Y0040603D01*
X0161481Y0039605D02*
X0163472Y0039605D01*
X0163472Y0038606D02*
X0162652Y0038606D01*
X0165280Y0033990D02*
X0161343Y0030447D01*
X0155043Y0030447D01*
X0165280Y0033990D02*
X0165280Y0168242D01*
X0160949Y0172179D01*
X0155043Y0172179D01*
X0155043Y0178478D01*
X0151500Y0182415D01*
X0019217Y0182415D01*
X0013311Y0176116D01*
X0013311Y0172179D01*
X0010161Y0172179D01*
X0003075Y0165093D01*
X0003075Y0040683D01*
X0013311Y0030447D01*
X0021262Y0022630D02*
X0033896Y0022630D01*
X0032898Y0023628D02*
X0022249Y0023628D01*
X0022825Y0024627D02*
X0031899Y0024627D01*
X0030901Y0025625D02*
X0023402Y0025625D01*
X0023830Y0026624D02*
X0029902Y0026624D01*
X0028904Y0027622D02*
X0024097Y0027622D01*
X0024365Y0028621D02*
X0027905Y0028621D01*
X0026907Y0029619D02*
X0024461Y0029619D01*
X0024461Y0030618D02*
X0025908Y0030618D01*
X0024910Y0031616D02*
X0024461Y0031616D01*
X0024590Y0032615D02*
X0024273Y0032615D01*
X0024005Y0033613D02*
X0024590Y0033613D01*
X0024590Y0034612D02*
X0023738Y0034612D01*
X0023204Y0035611D02*
X0024590Y0035611D01*
X0024590Y0036609D02*
X0022628Y0036609D01*
X0021918Y0037608D02*
X0024590Y0037608D01*
X0024590Y0038606D02*
X0020920Y0038606D01*
X0019749Y0039605D02*
X0024590Y0039605D01*
X0024590Y0040603D02*
X0018019Y0040603D01*
X0024590Y0041602D02*
X0004882Y0041602D01*
X0004882Y0042600D02*
X0024590Y0042600D01*
X0024590Y0043599D02*
X0004882Y0043599D01*
X0004882Y0044597D02*
X0024590Y0044597D01*
X0028804Y0044597D02*
X0032764Y0044597D01*
X0032764Y0043599D02*
X0028804Y0043599D01*
X0028804Y0042600D02*
X0032764Y0042600D01*
X0032764Y0041602D02*
X0028804Y0041602D01*
X0028804Y0040603D02*
X0032764Y0040603D01*
X0032764Y0039605D02*
X0028804Y0039605D01*
X0028804Y0038606D02*
X0032764Y0038606D01*
X0032764Y0037608D02*
X0028804Y0037608D01*
X0028804Y0036609D02*
X0032764Y0036609D01*
X0032764Y0035611D02*
X0028804Y0035611D01*
X0028804Y0034612D02*
X0032764Y0034612D01*
X0032764Y0033613D02*
X0028872Y0033613D01*
X0029871Y0032615D02*
X0032764Y0032615D01*
X0032764Y0031616D02*
X0030869Y0031616D01*
X0031868Y0030618D02*
X0032764Y0030618D01*
X0034895Y0021631D02*
X0020263Y0021631D01*
X0018612Y0020633D02*
X0035893Y0020633D01*
X0032764Y0045596D02*
X0028804Y0045596D01*
X0030716Y0046594D02*
X0032764Y0046594D01*
X0032764Y0047593D02*
X0030957Y0047593D01*
X0030957Y0048591D02*
X0032764Y0048591D01*
X0032764Y0049590D02*
X0030957Y0049590D01*
X0030957Y0050588D02*
X0032764Y0050588D01*
X0032764Y0051587D02*
X0030957Y0051587D01*
X0030957Y0052585D02*
X0032764Y0052585D01*
X0032764Y0053584D02*
X0031073Y0053584D01*
X0031150Y0054582D02*
X0032764Y0054582D01*
X0032764Y0055581D02*
X0031150Y0055581D01*
X0008603Y0040603D02*
X0005710Y0040603D01*
X0006709Y0039605D02*
X0006873Y0039605D01*
X0034571Y0091864D02*
X0076262Y0133556D01*
X0076262Y0155250D01*
X0096861Y0155432D02*
X0102908Y0155432D01*
X0102908Y0156430D02*
X0096861Y0156430D01*
X0096861Y0157429D02*
X0102908Y0157429D01*
X0102908Y0158427D02*
X0096861Y0158427D01*
X0096861Y0159426D02*
X0098075Y0159426D01*
X0097212Y0160424D02*
X0096861Y0160424D01*
X0101776Y0159426D02*
X0102908Y0159426D01*
X0102908Y0160424D02*
X0102639Y0160424D01*
X0102908Y0154433D02*
X0096861Y0154433D01*
X0096861Y0153435D02*
X0102908Y0153435D01*
X0102908Y0152436D02*
X0096861Y0152436D01*
X0096861Y0151438D02*
X0102908Y0151438D01*
X0102908Y0150439D02*
X0096861Y0150439D01*
X0096861Y0149441D02*
X0102908Y0149441D01*
X0103269Y0148442D02*
X0096500Y0148442D01*
X0112248Y0148442D02*
X0118752Y0148442D01*
X0118463Y0149441D02*
X0112609Y0149441D01*
X0112609Y0150439D02*
X0118463Y0150439D01*
X0118463Y0151438D02*
X0112609Y0151438D01*
X0112609Y0152436D02*
X0118463Y0152436D01*
X0118463Y0153435D02*
X0112609Y0153435D01*
X0112609Y0154433D02*
X0118463Y0154433D01*
X0118463Y0156430D02*
X0112609Y0156430D01*
X0112609Y0155432D02*
X0123006Y0155432D01*
X0123006Y0156430D02*
X0124006Y0156430D01*
X0124006Y0155432D02*
X0134404Y0155432D01*
X0134404Y0156430D02*
X0128550Y0156430D01*
X0128550Y0157429D02*
X0134404Y0157429D01*
X0134404Y0158427D02*
X0128550Y0158427D01*
X0128550Y0159426D02*
X0129571Y0159426D01*
X0128708Y0160424D02*
X0128550Y0160424D01*
X0128333Y0162421D02*
X0127857Y0162421D01*
X0128690Y0163420D02*
X0125396Y0163420D01*
X0126134Y0164418D02*
X0129529Y0164418D01*
X0126134Y0165417D02*
X0134937Y0165417D01*
X0134937Y0166416D02*
X0126134Y0166416D01*
X0126134Y0167414D02*
X0134937Y0167414D01*
X0134937Y0168413D02*
X0126134Y0168413D01*
X0125900Y0169411D02*
X0135171Y0169411D01*
X0134937Y0170410D02*
X0133625Y0170410D01*
X0134281Y0171408D02*
X0134937Y0171408D01*
X0134937Y0172407D02*
X0134509Y0172407D01*
X0134419Y0173405D02*
X0134937Y0173405D01*
X0134937Y0174404D02*
X0133958Y0174404D01*
X0133015Y0175402D02*
X0135231Y0175402D01*
X0134744Y0176401D02*
X0134066Y0176401D01*
X0134480Y0177399D02*
X0134744Y0177399D01*
X0134509Y0178398D02*
X0138811Y0178398D01*
X0139780Y0178398D02*
X0145759Y0178398D01*
X0145183Y0177399D02*
X0143846Y0177399D01*
X0143846Y0176401D02*
X0144632Y0176401D01*
X0144364Y0175402D02*
X0143360Y0175402D01*
X0143654Y0174404D02*
X0144096Y0174404D01*
X0143894Y0173405D02*
X0143654Y0173405D01*
X0143654Y0172407D02*
X0143894Y0172407D01*
X0143894Y0171408D02*
X0143654Y0171408D01*
X0143654Y0170410D02*
X0143975Y0170410D01*
X0144242Y0169411D02*
X0143420Y0169411D01*
X0143654Y0168413D02*
X0144510Y0168413D01*
X0144920Y0167414D02*
X0143654Y0167414D01*
X0143654Y0166416D02*
X0145496Y0166416D01*
X0146073Y0165417D02*
X0143654Y0165417D01*
X0143654Y0164418D02*
X0147036Y0164418D01*
X0148035Y0163420D02*
X0142916Y0163420D01*
X0143380Y0162421D02*
X0149645Y0162421D01*
X0152107Y0161423D02*
X0144105Y0161423D01*
X0144105Y0160424D02*
X0163472Y0160424D01*
X0163472Y0159426D02*
X0144105Y0159426D01*
X0144105Y0158427D02*
X0163472Y0158427D01*
X0163472Y0157429D02*
X0144105Y0157429D01*
X0144105Y0156430D02*
X0163472Y0156430D01*
X0163472Y0155432D02*
X0144105Y0155432D01*
X0144105Y0154433D02*
X0163472Y0154433D01*
X0163472Y0153435D02*
X0144105Y0153435D01*
X0144105Y0152436D02*
X0163472Y0152436D01*
X0163472Y0151438D02*
X0144105Y0151438D01*
X0144105Y0150439D02*
X0163472Y0150439D01*
X0163472Y0149441D02*
X0144105Y0149441D01*
X0143744Y0148442D02*
X0163472Y0148442D01*
X0163472Y0161423D02*
X0157979Y0161423D01*
X0160442Y0162421D02*
X0163472Y0162421D01*
X0163472Y0163420D02*
X0162052Y0163420D01*
X0163051Y0164418D02*
X0163472Y0164418D01*
X0147491Y0180395D02*
X0143846Y0180395D01*
X0143846Y0179396D02*
X0146492Y0179396D01*
X0134744Y0179396D02*
X0134221Y0179396D01*
X0134744Y0180395D02*
X0133479Y0180395D01*
X0129364Y0180395D02*
X0126134Y0180395D01*
X0126134Y0179396D02*
X0128622Y0179396D01*
X0128333Y0178398D02*
X0126134Y0178398D01*
X0126134Y0177399D02*
X0128363Y0177399D01*
X0128776Y0176401D02*
X0126134Y0176401D01*
X0125568Y0175402D02*
X0129828Y0175402D01*
X0128885Y0174404D02*
X0124509Y0174404D01*
X0124970Y0173405D02*
X0128423Y0173405D01*
X0128333Y0172407D02*
X0125061Y0172407D01*
X0124833Y0171408D02*
X0128561Y0171408D01*
X0129217Y0170410D02*
X0124177Y0170410D01*
X0124006Y0162421D02*
X0123006Y0162421D01*
X0123006Y0161423D02*
X0124006Y0161423D01*
X0124006Y0160424D02*
X0123006Y0160424D01*
X0123006Y0159426D02*
X0124006Y0159426D01*
X0124006Y0158427D02*
X0123006Y0158427D01*
X0123006Y0157429D02*
X0124006Y0157429D01*
X0124006Y0154433D02*
X0123006Y0154433D01*
X0123006Y0153435D02*
X0124006Y0153435D01*
X0124006Y0152436D02*
X0123006Y0152436D01*
X0123006Y0151438D02*
X0124006Y0151438D01*
X0124006Y0150439D02*
X0123006Y0150439D01*
X0123006Y0149441D02*
X0124006Y0149441D01*
X0124006Y0148442D02*
X0123006Y0148442D01*
X0128261Y0148442D02*
X0134765Y0148442D01*
X0134404Y0149441D02*
X0128550Y0149441D01*
X0128550Y0150439D02*
X0134404Y0150439D01*
X0134404Y0151438D02*
X0128550Y0151438D01*
X0128550Y0152436D02*
X0134404Y0152436D01*
X0134404Y0153435D02*
X0128550Y0153435D01*
X0128550Y0154433D02*
X0134404Y0154433D01*
X0134404Y0159426D02*
X0133272Y0159426D01*
X0134135Y0160424D02*
X0134404Y0160424D01*
X0134509Y0162421D02*
X0135128Y0162421D01*
X0135674Y0163420D02*
X0134152Y0163420D01*
X0134937Y0164418D02*
X0133313Y0164418D01*
X0119156Y0162421D02*
X0118761Y0162421D01*
X0118463Y0160424D02*
X0118387Y0160424D01*
X0118463Y0159426D02*
X0117524Y0159426D01*
X0118463Y0158427D02*
X0112609Y0158427D01*
X0112609Y0157429D02*
X0118463Y0157429D01*
X0113823Y0159426D02*
X0112609Y0159426D01*
X0112609Y0160424D02*
X0112960Y0160424D01*
X0027637Y0166416D02*
X0022858Y0166416D01*
X0022281Y0165417D02*
X0026816Y0165417D01*
X0026561Y0164418D02*
X0021318Y0164418D01*
X0020320Y0163420D02*
X0026722Y0163420D01*
X0024892Y0162421D02*
X0018709Y0162421D01*
X0016247Y0161423D02*
X0024168Y0161423D01*
X0024168Y0160424D02*
X0004882Y0160424D01*
X0004882Y0159426D02*
X0024168Y0159426D01*
X0024168Y0158427D02*
X0004882Y0158427D01*
X0004882Y0157429D02*
X0024168Y0157429D01*
X0024168Y0156430D02*
X0004882Y0156430D01*
X0004882Y0155432D02*
X0024168Y0155432D01*
X0024168Y0154433D02*
X0004882Y0154433D01*
X0004882Y0153435D02*
X0024168Y0153435D01*
X0024168Y0152436D02*
X0004882Y0152436D01*
X0004882Y0151438D02*
X0024168Y0151438D01*
X0024168Y0150439D02*
X0004882Y0150439D01*
X0004882Y0149441D02*
X0024168Y0149441D01*
X0010375Y0161423D02*
X0004882Y0161423D01*
X0004882Y0162421D02*
X0007913Y0162421D01*
X0006302Y0163420D02*
X0004882Y0163420D01*
X0004956Y0164418D02*
X0005304Y0164418D01*
D19*
X0029018Y0164264D02*
X0029018Y0155250D01*
X0029018Y0164264D02*
X0029059Y0164305D01*
X0044766Y0164264D02*
X0044766Y0155250D01*
X0044766Y0164264D02*
X0044807Y0164305D01*
X0060514Y0164658D02*
X0060514Y0155250D01*
X0060514Y0164658D02*
X0060555Y0164699D01*
X0100024Y0168734D02*
X0102091Y0166667D01*
X0121776Y0166667D01*
X0139254Y0076510D02*
X0139254Y0032374D01*
X0130240Y0023360D01*
X0098350Y0023360D01*
X0095594Y0020604D01*
X0038902Y0020604D01*
X0026697Y0032809D01*
X0026697Y0049935D01*
X0014886Y0049935D01*
X0092445Y0028872D02*
X0097957Y0023360D01*
X0098350Y0023360D01*
D20*
X0155043Y0030447D03*
X0155043Y0172179D03*
X0013311Y0172179D03*
X0013311Y0030447D03*
D21*
X0139254Y0155250D02*
X0139254Y0166626D01*
X0139295Y0166667D01*
X0121776Y0178478D02*
X0102091Y0178478D01*
X0100024Y0176411D01*
X0100122Y0176510D01*
X0103862Y0176510D01*
X0103862Y0172770D01*
X0104059Y0172573D01*
X0100122Y0176510D02*
X0095988Y0176510D01*
X0095988Y0172573D01*
D22*
X0089689Y0172573D03*
X0089689Y0178085D03*
X0089689Y0167061D03*
X0094807Y0164699D03*
X0099925Y0161943D03*
X0111736Y0172573D03*
X0121972Y0172573D03*
X0131421Y0172573D03*
X0131421Y0178085D03*
X0131421Y0161943D03*
X0115673Y0161943D03*
M02*
