G75*
%MOIN*%
%OFA0B0*%
%FSLAX25Y25*%
%IPPOS*%
%LPD*%
%AMOC8*
5,1,8,0,0,1.08239X$1,22.5*
%
%ADD10C,0.00000*%
%ADD11C,0.00700*%
%ADD12C,0.03937*%
%ADD13C,0.00400*%
D10*
X0013311Y0001819D02*
X0155043Y0001819D01*
X0155328Y0001822D01*
X0155614Y0001833D01*
X0155899Y0001850D01*
X0156183Y0001874D01*
X0156467Y0001905D01*
X0156750Y0001943D01*
X0157031Y0001988D01*
X0157312Y0002039D01*
X0157592Y0002097D01*
X0157870Y0002162D01*
X0158146Y0002234D01*
X0158420Y0002312D01*
X0158693Y0002397D01*
X0158963Y0002489D01*
X0159231Y0002587D01*
X0159497Y0002691D01*
X0159760Y0002802D01*
X0160020Y0002919D01*
X0160278Y0003042D01*
X0160532Y0003172D01*
X0160783Y0003308D01*
X0161031Y0003449D01*
X0161275Y0003597D01*
X0161516Y0003750D01*
X0161752Y0003910D01*
X0161985Y0004075D01*
X0162214Y0004245D01*
X0162439Y0004421D01*
X0162659Y0004603D01*
X0162875Y0004789D01*
X0163086Y0004981D01*
X0163293Y0005178D01*
X0163495Y0005380D01*
X0163692Y0005587D01*
X0163884Y0005798D01*
X0164070Y0006014D01*
X0164252Y0006234D01*
X0164428Y0006459D01*
X0164598Y0006688D01*
X0164763Y0006921D01*
X0164923Y0007157D01*
X0165076Y0007398D01*
X0165224Y0007642D01*
X0165365Y0007890D01*
X0165501Y0008141D01*
X0165631Y0008395D01*
X0165754Y0008653D01*
X0165871Y0008913D01*
X0165982Y0009176D01*
X0166086Y0009442D01*
X0166184Y0009710D01*
X0166276Y0009980D01*
X0166361Y0010253D01*
X0166439Y0010527D01*
X0166511Y0010803D01*
X0166576Y0011081D01*
X0166634Y0011361D01*
X0166685Y0011642D01*
X0166730Y0011923D01*
X0166768Y0012206D01*
X0166799Y0012490D01*
X0166823Y0012774D01*
X0166840Y0013059D01*
X0166851Y0013345D01*
X0166854Y0013630D01*
X0166854Y0155362D01*
X0166851Y0155647D01*
X0166840Y0155933D01*
X0166823Y0156218D01*
X0166799Y0156502D01*
X0166768Y0156786D01*
X0166730Y0157069D01*
X0166685Y0157350D01*
X0166634Y0157631D01*
X0166576Y0157911D01*
X0166511Y0158189D01*
X0166439Y0158465D01*
X0166361Y0158739D01*
X0166276Y0159012D01*
X0166184Y0159282D01*
X0166086Y0159550D01*
X0165982Y0159816D01*
X0165871Y0160079D01*
X0165754Y0160339D01*
X0165631Y0160597D01*
X0165501Y0160851D01*
X0165365Y0161102D01*
X0165224Y0161350D01*
X0165076Y0161594D01*
X0164923Y0161835D01*
X0164763Y0162071D01*
X0164598Y0162304D01*
X0164428Y0162533D01*
X0164252Y0162758D01*
X0164070Y0162978D01*
X0163884Y0163194D01*
X0163692Y0163405D01*
X0163495Y0163612D01*
X0163293Y0163814D01*
X0163086Y0164011D01*
X0162875Y0164203D01*
X0162659Y0164389D01*
X0162439Y0164571D01*
X0162214Y0164747D01*
X0161985Y0164917D01*
X0161752Y0165082D01*
X0161516Y0165242D01*
X0161275Y0165395D01*
X0161031Y0165543D01*
X0160783Y0165684D01*
X0160532Y0165820D01*
X0160278Y0165950D01*
X0160020Y0166073D01*
X0159760Y0166190D01*
X0159497Y0166301D01*
X0159231Y0166405D01*
X0158963Y0166503D01*
X0158693Y0166595D01*
X0158420Y0166680D01*
X0158146Y0166758D01*
X0157870Y0166830D01*
X0157592Y0166895D01*
X0157312Y0166953D01*
X0157031Y0167004D01*
X0156750Y0167049D01*
X0156467Y0167087D01*
X0156183Y0167118D01*
X0155899Y0167142D01*
X0155614Y0167159D01*
X0155328Y0167170D01*
X0155043Y0167173D01*
X0013311Y0167173D01*
X0013026Y0167170D01*
X0012740Y0167159D01*
X0012455Y0167142D01*
X0012171Y0167118D01*
X0011887Y0167087D01*
X0011604Y0167049D01*
X0011323Y0167004D01*
X0011042Y0166953D01*
X0010762Y0166895D01*
X0010484Y0166830D01*
X0010208Y0166758D01*
X0009934Y0166680D01*
X0009661Y0166595D01*
X0009391Y0166503D01*
X0009123Y0166405D01*
X0008857Y0166301D01*
X0008594Y0166190D01*
X0008334Y0166073D01*
X0008076Y0165950D01*
X0007822Y0165820D01*
X0007571Y0165684D01*
X0007323Y0165543D01*
X0007079Y0165395D01*
X0006838Y0165242D01*
X0006602Y0165082D01*
X0006369Y0164917D01*
X0006140Y0164747D01*
X0005915Y0164571D01*
X0005695Y0164389D01*
X0005479Y0164203D01*
X0005268Y0164011D01*
X0005061Y0163814D01*
X0004859Y0163612D01*
X0004662Y0163405D01*
X0004470Y0163194D01*
X0004284Y0162978D01*
X0004102Y0162758D01*
X0003926Y0162533D01*
X0003756Y0162304D01*
X0003591Y0162071D01*
X0003431Y0161835D01*
X0003278Y0161594D01*
X0003130Y0161350D01*
X0002989Y0161102D01*
X0002853Y0160851D01*
X0002723Y0160597D01*
X0002600Y0160339D01*
X0002483Y0160079D01*
X0002372Y0159816D01*
X0002268Y0159550D01*
X0002170Y0159282D01*
X0002078Y0159012D01*
X0001993Y0158739D01*
X0001915Y0158465D01*
X0001843Y0158189D01*
X0001778Y0157911D01*
X0001720Y0157631D01*
X0001669Y0157350D01*
X0001624Y0157069D01*
X0001586Y0156786D01*
X0001555Y0156502D01*
X0001531Y0156218D01*
X0001514Y0155933D01*
X0001503Y0155647D01*
X0001500Y0155362D01*
X0001500Y0013630D01*
X0001503Y0013345D01*
X0001514Y0013059D01*
X0001531Y0012774D01*
X0001555Y0012490D01*
X0001586Y0012206D01*
X0001624Y0011923D01*
X0001669Y0011642D01*
X0001720Y0011361D01*
X0001778Y0011081D01*
X0001843Y0010803D01*
X0001915Y0010527D01*
X0001993Y0010253D01*
X0002078Y0009980D01*
X0002170Y0009710D01*
X0002268Y0009442D01*
X0002372Y0009176D01*
X0002483Y0008913D01*
X0002600Y0008653D01*
X0002723Y0008395D01*
X0002853Y0008141D01*
X0002989Y0007890D01*
X0003130Y0007642D01*
X0003278Y0007398D01*
X0003431Y0007157D01*
X0003591Y0006921D01*
X0003756Y0006688D01*
X0003926Y0006459D01*
X0004102Y0006234D01*
X0004284Y0006014D01*
X0004470Y0005798D01*
X0004662Y0005587D01*
X0004859Y0005380D01*
X0005061Y0005178D01*
X0005268Y0004981D01*
X0005479Y0004789D01*
X0005695Y0004603D01*
X0005915Y0004421D01*
X0006140Y0004245D01*
X0006369Y0004075D01*
X0006602Y0003910D01*
X0006838Y0003750D01*
X0007079Y0003597D01*
X0007323Y0003449D01*
X0007571Y0003308D01*
X0007822Y0003172D01*
X0008076Y0003042D01*
X0008334Y0002919D01*
X0008594Y0002802D01*
X0008857Y0002691D01*
X0009123Y0002587D01*
X0009391Y0002489D01*
X0009661Y0002397D01*
X0009934Y0002312D01*
X0010208Y0002234D01*
X0010484Y0002162D01*
X0010762Y0002097D01*
X0011042Y0002039D01*
X0011323Y0001988D01*
X0011604Y0001943D01*
X0011887Y0001905D01*
X0012171Y0001874D01*
X0012455Y0001850D01*
X0012740Y0001833D01*
X0013026Y0001822D01*
X0013311Y0001819D01*
D11*
X0027116Y0104168D02*
X0027116Y0112075D01*
X0031069Y0112075D01*
X0032387Y0110757D01*
X0032387Y0108121D01*
X0031069Y0106804D01*
X0027116Y0106804D01*
X0029752Y0106804D02*
X0032387Y0104168D01*
X0035035Y0105486D02*
X0036353Y0106804D01*
X0040306Y0106804D01*
X0040306Y0108121D02*
X0040306Y0104168D01*
X0036353Y0104168D01*
X0035035Y0105486D01*
X0036353Y0109439D02*
X0038988Y0109439D01*
X0040306Y0108121D01*
X0042954Y0108121D02*
X0042954Y0105486D01*
X0044271Y0104168D01*
X0048225Y0104168D01*
X0048225Y0112075D01*
X0048225Y0109439D02*
X0044271Y0109439D01*
X0042954Y0108121D01*
X0050872Y0109439D02*
X0052190Y0109439D01*
X0052190Y0104168D01*
X0050872Y0104168D02*
X0053508Y0104168D01*
X0056152Y0105486D02*
X0057469Y0104168D01*
X0060105Y0104168D01*
X0061423Y0105486D01*
X0061423Y0108121D01*
X0060105Y0109439D01*
X0057469Y0109439D01*
X0056152Y0108121D01*
X0056152Y0105486D01*
X0052190Y0112075D02*
X0052190Y0113393D01*
X0071989Y0110757D02*
X0071989Y0105486D01*
X0073307Y0104168D01*
X0075942Y0104168D01*
X0077260Y0105486D01*
X0077260Y0108121D01*
X0074625Y0108121D01*
X0077260Y0110757D02*
X0075942Y0112075D01*
X0073307Y0112075D01*
X0071989Y0110757D01*
X0079908Y0108121D02*
X0079908Y0105486D01*
X0081226Y0104168D01*
X0083861Y0104168D01*
X0085179Y0105486D01*
X0085179Y0108121D01*
X0083861Y0109439D01*
X0081226Y0109439D01*
X0079908Y0108121D01*
X0087827Y0108121D02*
X0087827Y0105486D01*
X0089144Y0104168D01*
X0091780Y0104168D01*
X0093098Y0106804D02*
X0087827Y0106804D01*
X0087827Y0108121D02*
X0089144Y0109439D01*
X0091780Y0109439D01*
X0093098Y0108121D01*
X0093098Y0106804D01*
X0095745Y0108121D02*
X0097063Y0109439D01*
X0101017Y0109439D01*
X0099699Y0106804D02*
X0097063Y0106804D01*
X0095745Y0108121D01*
X0095745Y0104168D02*
X0099699Y0104168D01*
X0101017Y0105486D01*
X0099699Y0106804D01*
X0111583Y0108121D02*
X0116854Y0108121D01*
X0119502Y0108121D02*
X0120819Y0109439D01*
X0123455Y0109439D01*
X0124773Y0108121D01*
X0124773Y0106804D01*
X0119502Y0106804D01*
X0119502Y0108121D02*
X0119502Y0105486D01*
X0120819Y0104168D01*
X0123455Y0104168D01*
X0127420Y0104168D02*
X0127420Y0109439D01*
X0127420Y0106804D02*
X0130056Y0109439D01*
X0131374Y0109439D01*
X0134019Y0108121D02*
X0134019Y0105486D01*
X0135337Y0104168D01*
X0137973Y0104168D01*
X0139291Y0106804D02*
X0134019Y0106804D01*
X0134019Y0108121D02*
X0135337Y0109439D01*
X0137973Y0109439D01*
X0139291Y0108121D01*
X0139291Y0106804D01*
X0116854Y0104168D02*
X0116854Y0112075D01*
X0111583Y0112075D02*
X0111583Y0104168D01*
D12*
X0147128Y0138433D02*
X0158939Y0138433D01*
X0158939Y0059693D01*
X0147128Y0059693D01*
X0147128Y0043945D02*
X0139254Y0043945D01*
X0139254Y0040008D01*
X0143191Y0040008D01*
X0137623Y0040008D02*
X0137625Y0040157D01*
X0137631Y0040306D01*
X0137641Y0040454D01*
X0137655Y0040602D01*
X0137673Y0040750D01*
X0137694Y0040897D01*
X0137720Y0041044D01*
X0137750Y0041190D01*
X0137783Y0041335D01*
X0137821Y0041479D01*
X0137862Y0041622D01*
X0137907Y0041764D01*
X0137956Y0041905D01*
X0138009Y0042044D01*
X0138065Y0042182D01*
X0138125Y0042318D01*
X0138188Y0042453D01*
X0138255Y0042585D01*
X0138326Y0042716D01*
X0138400Y0042846D01*
X0138478Y0042973D01*
X0138559Y0043098D01*
X0138643Y0043220D01*
X0138731Y0043341D01*
X0138821Y0043459D01*
X0138915Y0043574D01*
X0139012Y0043687D01*
X0139112Y0043798D01*
X0139215Y0043905D01*
X0139320Y0044010D01*
X0139429Y0044112D01*
X0139540Y0044212D01*
X0139653Y0044308D01*
X0139770Y0044401D01*
X0139888Y0044491D01*
X0140009Y0044577D01*
X0140132Y0044661D01*
X0140258Y0044741D01*
X0140386Y0044818D01*
X0140515Y0044891D01*
X0140647Y0044961D01*
X0140780Y0045027D01*
X0140915Y0045090D01*
X0141052Y0045149D01*
X0141190Y0045204D01*
X0141329Y0045256D01*
X0141470Y0045303D01*
X0141613Y0045348D01*
X0141756Y0045388D01*
X0141900Y0045424D01*
X0142045Y0045457D01*
X0142192Y0045486D01*
X0142338Y0045510D01*
X0142486Y0045531D01*
X0142634Y0045548D01*
X0142782Y0045561D01*
X0142931Y0045570D01*
X0143079Y0045575D01*
X0143228Y0045576D01*
X0143377Y0045573D01*
X0143526Y0045566D01*
X0143674Y0045555D01*
X0143822Y0045540D01*
X0143970Y0045521D01*
X0144117Y0045498D01*
X0144264Y0045472D01*
X0144409Y0045441D01*
X0144554Y0045407D01*
X0144698Y0045368D01*
X0144841Y0045326D01*
X0144982Y0045280D01*
X0145123Y0045230D01*
X0145261Y0045177D01*
X0145399Y0045120D01*
X0145535Y0045059D01*
X0145669Y0044994D01*
X0145801Y0044926D01*
X0145932Y0044855D01*
X0146061Y0044780D01*
X0146187Y0044701D01*
X0146311Y0044619D01*
X0146434Y0044534D01*
X0146553Y0044446D01*
X0146671Y0044355D01*
X0146786Y0044260D01*
X0146898Y0044162D01*
X0147008Y0044062D01*
X0147115Y0043958D01*
X0147219Y0043852D01*
X0147321Y0043743D01*
X0147419Y0043631D01*
X0147514Y0043517D01*
X0147607Y0043400D01*
X0147696Y0043281D01*
X0147781Y0043159D01*
X0147864Y0043035D01*
X0147943Y0042909D01*
X0148019Y0042781D01*
X0148092Y0042651D01*
X0148161Y0042519D01*
X0148226Y0042385D01*
X0148288Y0042250D01*
X0148346Y0042113D01*
X0148400Y0041974D01*
X0148451Y0041834D01*
X0148498Y0041693D01*
X0148541Y0041551D01*
X0148580Y0041407D01*
X0148616Y0041263D01*
X0148647Y0041117D01*
X0148675Y0040971D01*
X0148699Y0040824D01*
X0148719Y0040676D01*
X0148735Y0040528D01*
X0148747Y0040380D01*
X0148755Y0040231D01*
X0148759Y0040082D01*
X0148759Y0039934D01*
X0148755Y0039785D01*
X0148747Y0039636D01*
X0148735Y0039488D01*
X0148719Y0039340D01*
X0148699Y0039192D01*
X0148675Y0039045D01*
X0148647Y0038899D01*
X0148616Y0038753D01*
X0148580Y0038609D01*
X0148541Y0038465D01*
X0148498Y0038323D01*
X0148451Y0038182D01*
X0148400Y0038042D01*
X0148346Y0037903D01*
X0148288Y0037766D01*
X0148226Y0037631D01*
X0148161Y0037497D01*
X0148092Y0037365D01*
X0148019Y0037235D01*
X0147943Y0037107D01*
X0147864Y0036981D01*
X0147781Y0036857D01*
X0147696Y0036735D01*
X0147607Y0036616D01*
X0147514Y0036499D01*
X0147419Y0036385D01*
X0147321Y0036273D01*
X0147219Y0036164D01*
X0147115Y0036058D01*
X0147008Y0035954D01*
X0146898Y0035854D01*
X0146786Y0035756D01*
X0146671Y0035661D01*
X0146553Y0035570D01*
X0146434Y0035482D01*
X0146311Y0035397D01*
X0146187Y0035315D01*
X0146061Y0035236D01*
X0145932Y0035161D01*
X0145801Y0035090D01*
X0145669Y0035022D01*
X0145535Y0034957D01*
X0145399Y0034896D01*
X0145261Y0034839D01*
X0145123Y0034786D01*
X0144982Y0034736D01*
X0144841Y0034690D01*
X0144698Y0034648D01*
X0144554Y0034609D01*
X0144409Y0034575D01*
X0144264Y0034544D01*
X0144117Y0034518D01*
X0143970Y0034495D01*
X0143822Y0034476D01*
X0143674Y0034461D01*
X0143526Y0034450D01*
X0143377Y0034443D01*
X0143228Y0034440D01*
X0143079Y0034441D01*
X0142931Y0034446D01*
X0142782Y0034455D01*
X0142634Y0034468D01*
X0142486Y0034485D01*
X0142338Y0034506D01*
X0142192Y0034530D01*
X0142045Y0034559D01*
X0141900Y0034592D01*
X0141756Y0034628D01*
X0141613Y0034668D01*
X0141470Y0034713D01*
X0141329Y0034760D01*
X0141190Y0034812D01*
X0141052Y0034867D01*
X0140915Y0034926D01*
X0140780Y0034989D01*
X0140647Y0035055D01*
X0140515Y0035125D01*
X0140386Y0035198D01*
X0140258Y0035275D01*
X0140132Y0035355D01*
X0140009Y0035439D01*
X0139888Y0035525D01*
X0139770Y0035615D01*
X0139653Y0035708D01*
X0139540Y0035804D01*
X0139429Y0035904D01*
X0139320Y0036006D01*
X0139215Y0036111D01*
X0139112Y0036218D01*
X0139012Y0036329D01*
X0138915Y0036442D01*
X0138821Y0036557D01*
X0138731Y0036675D01*
X0138643Y0036796D01*
X0138559Y0036918D01*
X0138478Y0037043D01*
X0138400Y0037170D01*
X0138326Y0037300D01*
X0138255Y0037431D01*
X0138188Y0037563D01*
X0138125Y0037698D01*
X0138065Y0037834D01*
X0138009Y0037972D01*
X0137956Y0038111D01*
X0137907Y0038252D01*
X0137862Y0038394D01*
X0137821Y0038537D01*
X0137783Y0038681D01*
X0137750Y0038826D01*
X0137720Y0038972D01*
X0137694Y0039119D01*
X0137673Y0039266D01*
X0137655Y0039414D01*
X0137641Y0039562D01*
X0137631Y0039710D01*
X0137625Y0039859D01*
X0137623Y0040008D01*
X0139254Y0036071D02*
X0143191Y0036071D01*
X0143191Y0040008D01*
X0143191Y0043945D01*
X0143191Y0040008D02*
X0147128Y0040008D01*
X0147128Y0043945D01*
X0147128Y0040008D02*
X0147128Y0036071D01*
X0143191Y0036071D01*
X0021144Y0059693D02*
X0009333Y0059693D01*
X0009333Y0138433D01*
X0021144Y0138433D01*
D13*
X0023925Y0049985D02*
X0023157Y0049218D01*
X0023157Y0046148D01*
X0023925Y0045381D01*
X0025459Y0045381D01*
X0026227Y0046148D01*
X0027761Y0045381D02*
X0030831Y0048450D01*
X0030831Y0049218D01*
X0030063Y0049985D01*
X0028529Y0049985D01*
X0027761Y0049218D01*
X0026227Y0049218D02*
X0025459Y0049985D01*
X0023925Y0049985D01*
X0027761Y0045381D02*
X0030831Y0045381D01*
X0018626Y0045381D02*
X0015557Y0045381D01*
X0017091Y0045381D02*
X0017091Y0049985D01*
X0015557Y0048450D01*
X0014022Y0049218D02*
X0013255Y0049985D01*
X0011720Y0049985D01*
X0010953Y0049218D01*
X0010953Y0046148D01*
X0011720Y0045381D01*
X0013255Y0045381D01*
X0014022Y0046148D01*
M02*
