%
M48
M72
T01C0.01181
T02C0.02362
T03C0.02756
T04C0.04331
T05C0.07874
%
T01
X49925Y63124
X52287Y67061
X54650Y63124
X57012Y67061
X59374Y63124
X61736Y67061
X64098Y63124
X71185Y67061
X73547Y63124
X78272Y63124
X82996Y63124
X90083Y63124
X94807Y63124
X99531Y63124
X104256Y63124
X108980Y63124
X113705Y63124
X121972Y54856
X123547Y66667
X118429Y28281
X101894Y28872
X92445Y28872
X82996Y26116
X80634Y29266
X78272Y26116
X75909Y29266
X73547Y26116
X71185Y29266
X68823Y26116
X66461Y29266
X64098Y26116
X61736Y29266
X59374Y26116
X57012Y29266
X54650Y26116
X52287Y29266
X49925Y26116
X85358Y46195
X60555Y164699
X44807Y164305
X29059Y164305
T02
X131421Y161943
X131421Y172573
X131421Y178085
X121972Y172573
X111736Y172573
X115673Y161943
X99925Y161943
X94807Y164699
X89689Y167061
X89689Y172573
X89689Y178085
T03
X40476Y53281
X40476Y52100
T04
X127878Y53281
X127878Y52100
T05
X13311Y30447
X13311Y172179
X155043Y172179
X155043Y30447
M30
