%
M48
M72
T01C0.01181
T02C0.02362
T03C0.07874
%
T01
X49925Y46307
X52287Y50244
X54650Y46307
X57012Y50244
X59374Y46307
X61736Y50244
X64098Y46307
X71185Y50244
X73547Y46307
X78272Y46307
X82996Y46307
X90083Y46307
X94807Y46307
X99531Y46307
X104256Y46307
X108980Y46307
X113705Y46307
X121972Y38039
X123547Y49850
X101894Y12055
X92445Y12055
X82996Y9299
X80634Y12449
X78272Y9299
X75909Y12449
X73547Y9299
X71185Y12449
X68823Y9299
X66461Y12449
X64098Y9299
X61736Y12449
X59374Y9299
X57012Y12449
X54650Y9299
X52287Y12449
X49925Y9299
X85358Y29378
X118429Y11465
X60555Y147882
X44807Y147488
X29059Y147488
T02
X131421Y145126
X131421Y155756
X131421Y161268
X121972Y155756
X111736Y155756
X115673Y145126
X99925Y145126
X94807Y147882
X89689Y150244
X89689Y155756
X89689Y161268
T03
X13311Y13630
X13311Y155362
X155043Y155362
X155043Y13630
M30
