G75*
%MOIN*%
%OFA0B0*%
%FSLAX25Y25*%
%IPPOS*%
%LPD*%
%AMOC8*
5,1,8,0,0,1.08239X$1,22.5*
%
%ADD10C,0.00000*%
%ADD11R,0.01378X0.06693*%
%ADD12C,0.01000*%
%ADD13C,0.02381*%
%ADD14C,0.01600*%
%ADD15C,0.19685*%
%ADD16C,0.03562*%
D10*
X0013311Y0001819D02*
X0155043Y0001819D01*
X0155328Y0001822D01*
X0155614Y0001833D01*
X0155899Y0001850D01*
X0156183Y0001874D01*
X0156467Y0001905D01*
X0156750Y0001943D01*
X0157031Y0001988D01*
X0157312Y0002039D01*
X0157592Y0002097D01*
X0157870Y0002162D01*
X0158146Y0002234D01*
X0158420Y0002312D01*
X0158693Y0002397D01*
X0158963Y0002489D01*
X0159231Y0002587D01*
X0159497Y0002691D01*
X0159760Y0002802D01*
X0160020Y0002919D01*
X0160278Y0003042D01*
X0160532Y0003172D01*
X0160783Y0003308D01*
X0161031Y0003449D01*
X0161275Y0003597D01*
X0161516Y0003750D01*
X0161752Y0003910D01*
X0161985Y0004075D01*
X0162214Y0004245D01*
X0162439Y0004421D01*
X0162659Y0004603D01*
X0162875Y0004789D01*
X0163086Y0004981D01*
X0163293Y0005178D01*
X0163495Y0005380D01*
X0163692Y0005587D01*
X0163884Y0005798D01*
X0164070Y0006014D01*
X0164252Y0006234D01*
X0164428Y0006459D01*
X0164598Y0006688D01*
X0164763Y0006921D01*
X0164923Y0007157D01*
X0165076Y0007398D01*
X0165224Y0007642D01*
X0165365Y0007890D01*
X0165501Y0008141D01*
X0165631Y0008395D01*
X0165754Y0008653D01*
X0165871Y0008913D01*
X0165982Y0009176D01*
X0166086Y0009442D01*
X0166184Y0009710D01*
X0166276Y0009980D01*
X0166361Y0010253D01*
X0166439Y0010527D01*
X0166511Y0010803D01*
X0166576Y0011081D01*
X0166634Y0011361D01*
X0166685Y0011642D01*
X0166730Y0011923D01*
X0166768Y0012206D01*
X0166799Y0012490D01*
X0166823Y0012774D01*
X0166840Y0013059D01*
X0166851Y0013345D01*
X0166854Y0013630D01*
X0166854Y0155362D01*
X0166851Y0155647D01*
X0166840Y0155933D01*
X0166823Y0156218D01*
X0166799Y0156502D01*
X0166768Y0156786D01*
X0166730Y0157069D01*
X0166685Y0157350D01*
X0166634Y0157631D01*
X0166576Y0157911D01*
X0166511Y0158189D01*
X0166439Y0158465D01*
X0166361Y0158739D01*
X0166276Y0159012D01*
X0166184Y0159282D01*
X0166086Y0159550D01*
X0165982Y0159816D01*
X0165871Y0160079D01*
X0165754Y0160339D01*
X0165631Y0160597D01*
X0165501Y0160851D01*
X0165365Y0161102D01*
X0165224Y0161350D01*
X0165076Y0161594D01*
X0164923Y0161835D01*
X0164763Y0162071D01*
X0164598Y0162304D01*
X0164428Y0162533D01*
X0164252Y0162758D01*
X0164070Y0162978D01*
X0163884Y0163194D01*
X0163692Y0163405D01*
X0163495Y0163612D01*
X0163293Y0163814D01*
X0163086Y0164011D01*
X0162875Y0164203D01*
X0162659Y0164389D01*
X0162439Y0164571D01*
X0162214Y0164747D01*
X0161985Y0164917D01*
X0161752Y0165082D01*
X0161516Y0165242D01*
X0161275Y0165395D01*
X0161031Y0165543D01*
X0160783Y0165684D01*
X0160532Y0165820D01*
X0160278Y0165950D01*
X0160020Y0166073D01*
X0159760Y0166190D01*
X0159497Y0166301D01*
X0159231Y0166405D01*
X0158963Y0166503D01*
X0158693Y0166595D01*
X0158420Y0166680D01*
X0158146Y0166758D01*
X0157870Y0166830D01*
X0157592Y0166895D01*
X0157312Y0166953D01*
X0157031Y0167004D01*
X0156750Y0167049D01*
X0156467Y0167087D01*
X0156183Y0167118D01*
X0155899Y0167142D01*
X0155614Y0167159D01*
X0155328Y0167170D01*
X0155043Y0167173D01*
X0013311Y0167173D01*
X0013026Y0167170D01*
X0012740Y0167159D01*
X0012455Y0167142D01*
X0012171Y0167118D01*
X0011887Y0167087D01*
X0011604Y0167049D01*
X0011323Y0167004D01*
X0011042Y0166953D01*
X0010762Y0166895D01*
X0010484Y0166830D01*
X0010208Y0166758D01*
X0009934Y0166680D01*
X0009661Y0166595D01*
X0009391Y0166503D01*
X0009123Y0166405D01*
X0008857Y0166301D01*
X0008594Y0166190D01*
X0008334Y0166073D01*
X0008076Y0165950D01*
X0007822Y0165820D01*
X0007571Y0165684D01*
X0007323Y0165543D01*
X0007079Y0165395D01*
X0006838Y0165242D01*
X0006602Y0165082D01*
X0006369Y0164917D01*
X0006140Y0164747D01*
X0005915Y0164571D01*
X0005695Y0164389D01*
X0005479Y0164203D01*
X0005268Y0164011D01*
X0005061Y0163814D01*
X0004859Y0163612D01*
X0004662Y0163405D01*
X0004470Y0163194D01*
X0004284Y0162978D01*
X0004102Y0162758D01*
X0003926Y0162533D01*
X0003756Y0162304D01*
X0003591Y0162071D01*
X0003431Y0161835D01*
X0003278Y0161594D01*
X0003130Y0161350D01*
X0002989Y0161102D01*
X0002853Y0160851D01*
X0002723Y0160597D01*
X0002600Y0160339D01*
X0002483Y0160079D01*
X0002372Y0159816D01*
X0002268Y0159550D01*
X0002170Y0159282D01*
X0002078Y0159012D01*
X0001993Y0158739D01*
X0001915Y0158465D01*
X0001843Y0158189D01*
X0001778Y0157911D01*
X0001720Y0157631D01*
X0001669Y0157350D01*
X0001624Y0157069D01*
X0001586Y0156786D01*
X0001555Y0156502D01*
X0001531Y0156218D01*
X0001514Y0155933D01*
X0001503Y0155647D01*
X0001500Y0155362D01*
X0001500Y0013630D01*
X0001503Y0013345D01*
X0001514Y0013059D01*
X0001531Y0012774D01*
X0001555Y0012490D01*
X0001586Y0012206D01*
X0001624Y0011923D01*
X0001669Y0011642D01*
X0001720Y0011361D01*
X0001778Y0011081D01*
X0001843Y0010803D01*
X0001915Y0010527D01*
X0001993Y0010253D01*
X0002078Y0009980D01*
X0002170Y0009710D01*
X0002268Y0009442D01*
X0002372Y0009176D01*
X0002483Y0008913D01*
X0002600Y0008653D01*
X0002723Y0008395D01*
X0002853Y0008141D01*
X0002989Y0007890D01*
X0003130Y0007642D01*
X0003278Y0007398D01*
X0003431Y0007157D01*
X0003591Y0006921D01*
X0003756Y0006688D01*
X0003926Y0006459D01*
X0004102Y0006234D01*
X0004284Y0006014D01*
X0004470Y0005798D01*
X0004662Y0005587D01*
X0004859Y0005380D01*
X0005061Y0005178D01*
X0005268Y0004981D01*
X0005479Y0004789D01*
X0005695Y0004603D01*
X0005915Y0004421D01*
X0006140Y0004245D01*
X0006369Y0004075D01*
X0006602Y0003910D01*
X0006838Y0003750D01*
X0007079Y0003597D01*
X0007323Y0003449D01*
X0007571Y0003308D01*
X0007822Y0003172D01*
X0008076Y0003042D01*
X0008334Y0002919D01*
X0008594Y0002802D01*
X0008857Y0002691D01*
X0009123Y0002587D01*
X0009391Y0002489D01*
X0009661Y0002397D01*
X0009934Y0002312D01*
X0010208Y0002234D01*
X0010484Y0002162D01*
X0010762Y0002097D01*
X0011042Y0002039D01*
X0011323Y0001988D01*
X0011604Y0001943D01*
X0011887Y0001905D01*
X0012171Y0001874D01*
X0012455Y0001850D01*
X0012740Y0001833D01*
X0013026Y0001822D01*
X0013311Y0001819D01*
D11*
X0049925Y0018157D03*
X0052287Y0018157D03*
X0054650Y0018157D03*
X0057012Y0018157D03*
X0059374Y0018157D03*
X0061736Y0018157D03*
X0064098Y0018157D03*
X0066461Y0018157D03*
X0068823Y0018157D03*
X0071185Y0018157D03*
X0073547Y0018157D03*
X0075909Y0018157D03*
X0078272Y0018157D03*
X0080634Y0018157D03*
X0082996Y0018157D03*
X0085358Y0018157D03*
X0087720Y0018157D03*
X0090083Y0018157D03*
X0092445Y0018157D03*
X0094807Y0018157D03*
X0097169Y0018157D03*
X0099531Y0018157D03*
X0101894Y0018157D03*
X0104256Y0018157D03*
X0106618Y0018157D03*
X0108980Y0018157D03*
X0111343Y0018157D03*
X0113705Y0018157D03*
X0116067Y0018157D03*
X0118429Y0018157D03*
X0118429Y0040598D03*
X0116067Y0040598D03*
X0113705Y0040598D03*
X0111343Y0040598D03*
X0108980Y0040598D03*
X0106618Y0040598D03*
X0104256Y0040598D03*
X0101894Y0040598D03*
X0099531Y0040598D03*
X0097169Y0040598D03*
X0094807Y0040598D03*
X0092445Y0040598D03*
X0090083Y0040598D03*
X0087720Y0040598D03*
X0085358Y0040598D03*
X0082996Y0040598D03*
X0080634Y0040598D03*
X0078272Y0040598D03*
X0075909Y0040598D03*
X0073547Y0040598D03*
X0071185Y0040598D03*
X0068823Y0040598D03*
X0066461Y0040598D03*
X0064098Y0040598D03*
X0061736Y0040598D03*
X0059374Y0040598D03*
X0057012Y0040598D03*
X0054650Y0040598D03*
X0052287Y0040598D03*
X0049925Y0040598D03*
D12*
X0049925Y0046307D01*
X0048071Y0044629D02*
X0047929Y0044486D01*
X0047929Y0036711D01*
X0048695Y0035945D01*
X0053225Y0035945D01*
X0053382Y0035854D01*
X0053763Y0035752D01*
X0054650Y0035752D01*
X0055536Y0035752D01*
X0055918Y0035854D01*
X0056075Y0035945D01*
X0062673Y0035945D01*
X0062830Y0035854D01*
X0063212Y0035752D01*
X0064098Y0035752D01*
X0064098Y0040598D01*
X0064098Y0040598D01*
X0064098Y0035752D01*
X0064985Y0035752D01*
X0065280Y0035831D01*
X0065574Y0035752D01*
X0066461Y0035752D01*
X0067347Y0035752D01*
X0067729Y0035854D01*
X0067886Y0035945D01*
X0072122Y0035945D01*
X0072279Y0035854D01*
X0072661Y0035752D01*
X0073547Y0035752D01*
X0073547Y0040598D01*
X0073547Y0040598D01*
X0073547Y0035752D01*
X0074434Y0035752D01*
X0074728Y0035831D01*
X0075023Y0035752D01*
X0075909Y0035752D01*
X0075909Y0040598D01*
X0075909Y0040598D01*
X0073547Y0040598D01*
X0073547Y0046307D01*
X0072992Y0046752D02*
X0075774Y0046752D01*
X0075774Y0046804D02*
X0075774Y0045810D01*
X0075925Y0045445D01*
X0075909Y0045445D01*
X0075023Y0045445D01*
X0074728Y0045366D01*
X0074434Y0045445D01*
X0073547Y0045445D01*
X0072992Y0045445D01*
X0072992Y0048519D01*
X0073302Y0048829D01*
X0073683Y0049747D01*
X0073683Y0050741D01*
X0073302Y0051659D01*
X0072600Y0052361D01*
X0071682Y0052742D01*
X0070688Y0052742D01*
X0069770Y0052361D01*
X0069068Y0051659D01*
X0068687Y0050741D01*
X0068687Y0049747D01*
X0069068Y0048829D01*
X0069378Y0048519D01*
X0069378Y0045252D01*
X0067886Y0045252D01*
X0067729Y0045343D01*
X0067347Y0045445D01*
X0066461Y0045445D01*
X0066461Y0040599D01*
X0066461Y0040599D01*
X0066461Y0045445D01*
X0065574Y0045445D01*
X0065280Y0045366D01*
X0064985Y0045445D01*
X0064098Y0045445D01*
X0063543Y0045445D01*
X0063543Y0048519D01*
X0063854Y0048829D01*
X0064234Y0049747D01*
X0064234Y0050741D01*
X0063854Y0051659D01*
X0063151Y0052361D01*
X0062233Y0052742D01*
X0061239Y0052742D01*
X0060321Y0052361D01*
X0059619Y0051659D01*
X0059374Y0051068D01*
X0059129Y0051659D01*
X0058427Y0052361D01*
X0057509Y0052742D01*
X0056515Y0052742D01*
X0055597Y0052361D01*
X0054894Y0051659D01*
X0054650Y0051068D01*
X0054405Y0051659D01*
X0053702Y0052361D01*
X0052784Y0052742D01*
X0051791Y0052742D01*
X0050873Y0052361D01*
X0050170Y0051659D01*
X0049790Y0050741D01*
X0049790Y0049747D01*
X0050170Y0048829D01*
X0050195Y0048805D01*
X0049428Y0048805D01*
X0048510Y0048424D01*
X0047808Y0047722D01*
X0047428Y0046804D01*
X0047428Y0045810D01*
X0047808Y0044892D01*
X0048071Y0044629D01*
X0047945Y0044755D02*
X0039040Y0044755D01*
X0039040Y0045753D02*
X0047451Y0045753D01*
X0047428Y0046752D02*
X0039040Y0046752D01*
X0039040Y0047750D02*
X0047836Y0047750D01*
X0049294Y0048749D02*
X0039040Y0048749D01*
X0039040Y0049747D02*
X0049790Y0049747D01*
X0049792Y0050746D02*
X0039040Y0050746D01*
X0039040Y0051744D02*
X0050256Y0051744D01*
X0052287Y0050244D02*
X0052287Y0040598D01*
X0054650Y0040599D02*
X0054650Y0045445D01*
X0054650Y0040599D01*
X0054650Y0040599D01*
X0054650Y0040598D02*
X0054650Y0046307D01*
X0055205Y0046752D02*
X0054094Y0046752D01*
X0054094Y0047750D02*
X0055205Y0047750D01*
X0055205Y0048519D02*
X0055205Y0045445D01*
X0054650Y0045445D01*
X0054094Y0045445D01*
X0054094Y0048519D01*
X0054405Y0048829D01*
X0054650Y0049420D01*
X0054894Y0048829D01*
X0055205Y0048519D01*
X0054975Y0048749D02*
X0054324Y0048749D01*
X0054094Y0045753D02*
X0055205Y0045753D01*
X0054650Y0044755D02*
X0054650Y0044755D01*
X0054650Y0043756D02*
X0054650Y0043756D01*
X0054650Y0042758D02*
X0054650Y0042758D01*
X0054650Y0041759D02*
X0054650Y0041759D01*
X0054650Y0040761D02*
X0054650Y0040761D01*
X0054650Y0040598D02*
X0054650Y0031740D01*
X0055831Y0030559D01*
X0062917Y0030559D01*
X0064098Y0031740D01*
X0064098Y0040598D01*
X0064098Y0046307D01*
X0063543Y0046752D02*
X0069378Y0046752D01*
X0069378Y0047750D02*
X0063543Y0047750D01*
X0063773Y0048749D02*
X0069148Y0048749D01*
X0068687Y0049747D02*
X0064234Y0049747D01*
X0064232Y0050746D02*
X0068689Y0050746D01*
X0069153Y0051744D02*
X0063768Y0051744D01*
X0061736Y0050244D02*
X0061736Y0040598D01*
X0059374Y0040598D02*
X0059374Y0046307D01*
X0063543Y0045753D02*
X0069378Y0045753D01*
X0066461Y0044755D02*
X0066461Y0044755D01*
X0066461Y0043756D02*
X0066461Y0043756D01*
X0066461Y0042758D02*
X0066461Y0042758D01*
X0066461Y0041759D02*
X0066461Y0041759D01*
X0066461Y0040761D02*
X0066461Y0040761D01*
X0066460Y0040598D02*
X0066460Y0040598D01*
X0064099Y0040598D01*
X0064099Y0040598D01*
X0066287Y0040598D01*
X0066460Y0040598D01*
X0066461Y0040598D02*
X0066461Y0040598D01*
X0066461Y0035752D01*
X0066461Y0040598D01*
X0066461Y0031740D01*
X0068035Y0030165D01*
X0071972Y0030165D01*
X0073547Y0031740D01*
X0073547Y0040598D01*
X0075909Y0040598D01*
X0075909Y0040598D01*
X0075909Y0035752D01*
X0076796Y0035752D01*
X0077177Y0035854D01*
X0077334Y0035945D01*
X0081571Y0035945D01*
X0081728Y0035854D01*
X0082110Y0035752D01*
X0082996Y0035752D01*
X0082996Y0040598D01*
X0082996Y0040598D01*
X0082996Y0035752D01*
X0083883Y0035752D01*
X0084177Y0035831D01*
X0084472Y0035752D01*
X0085358Y0035752D01*
X0085358Y0040598D01*
X0085358Y0040598D01*
X0082996Y0040598D01*
X0082996Y0040598D01*
X0082996Y0046307D01*
X0082996Y0045445D02*
X0082110Y0045445D01*
X0081728Y0045343D01*
X0081571Y0045252D01*
X0080538Y0045252D01*
X0080769Y0045810D01*
X0080769Y0046804D01*
X0080389Y0047722D01*
X0079686Y0048424D01*
X0078768Y0048805D01*
X0077775Y0048805D01*
X0076857Y0048424D01*
X0076154Y0047722D01*
X0075774Y0046804D01*
X0076183Y0047750D02*
X0072992Y0047750D01*
X0073222Y0048749D02*
X0077640Y0048749D01*
X0078903Y0048749D02*
X0089451Y0048749D01*
X0089586Y0048805D02*
X0088668Y0048424D01*
X0087965Y0047722D01*
X0087585Y0046804D01*
X0087585Y0045810D01*
X0087816Y0045252D01*
X0086783Y0045252D01*
X0086626Y0045343D01*
X0086245Y0045445D01*
X0085358Y0045445D01*
X0084472Y0045445D01*
X0084177Y0045366D01*
X0083883Y0045445D01*
X0082996Y0045445D01*
X0082996Y0040599D01*
X0082996Y0040599D01*
X0082996Y0045445D01*
X0082996Y0044755D02*
X0082996Y0044755D01*
X0082996Y0043756D02*
X0082996Y0043756D01*
X0082996Y0042758D02*
X0082996Y0042758D01*
X0082996Y0041759D02*
X0082996Y0041759D01*
X0082996Y0040761D02*
X0082996Y0040761D01*
X0082996Y0040598D02*
X0085185Y0040598D01*
X0085358Y0040598D01*
X0085358Y0040598D01*
X0085358Y0035752D01*
X0086245Y0035752D01*
X0086626Y0035854D01*
X0086783Y0035945D01*
X0091020Y0035945D01*
X0091177Y0035854D01*
X0091558Y0035752D01*
X0092445Y0035752D01*
X0093331Y0035752D01*
X0093626Y0035831D01*
X0093921Y0035752D01*
X0094807Y0035752D01*
X0094807Y0040598D01*
X0094807Y0040598D01*
X0094807Y0035752D01*
X0095694Y0035752D01*
X0096075Y0035854D01*
X0096232Y0035945D01*
X0098677Y0035945D01*
X0098783Y0035839D01*
X0100280Y0035839D01*
X0100386Y0035945D01*
X0100469Y0035945D01*
X0100626Y0035854D01*
X0101007Y0035752D01*
X0101894Y0035752D01*
X0102780Y0035752D01*
X0103075Y0035831D01*
X0103369Y0035752D01*
X0104256Y0035752D01*
X0105142Y0035752D01*
X0105524Y0035854D01*
X0105681Y0035945D01*
X0109917Y0035945D01*
X0110075Y0035854D01*
X0110456Y0035752D01*
X0111342Y0035752D01*
X0111342Y0040598D01*
X0111343Y0040598D01*
X0111343Y0040598D01*
X0113705Y0040598D01*
X0113705Y0035752D01*
X0114591Y0035752D01*
X0114973Y0035854D01*
X0115130Y0035945D01*
X0119660Y0035945D01*
X0120097Y0036382D01*
X0120558Y0035922D01*
X0121476Y0035542D01*
X0122469Y0035542D01*
X0123387Y0035922D01*
X0124090Y0036625D01*
X0124470Y0037543D01*
X0124470Y0038536D01*
X0124090Y0039454D01*
X0123387Y0040157D01*
X0122469Y0040537D01*
X0122030Y0040537D01*
X0120425Y0042142D01*
X0120425Y0044486D01*
X0119660Y0045252D01*
X0115130Y0045252D01*
X0114973Y0045343D01*
X0114591Y0045445D01*
X0113705Y0045445D01*
X0113705Y0040599D01*
X0113705Y0040599D01*
X0113705Y0045445D01*
X0112818Y0045445D01*
X0112524Y0045366D01*
X0112229Y0045445D01*
X0111343Y0045445D01*
X0111343Y0040599D01*
X0111342Y0040599D01*
X0111342Y0045445D01*
X0111327Y0045445D01*
X0111478Y0045810D01*
X0111478Y0046804D01*
X0111098Y0047722D01*
X0110395Y0048424D01*
X0109477Y0048805D01*
X0108483Y0048805D01*
X0107566Y0048424D01*
X0106863Y0047722D01*
X0106483Y0046804D01*
X0106483Y0045810D01*
X0106714Y0045252D01*
X0105681Y0045252D01*
X0105524Y0045343D01*
X0105142Y0045445D01*
X0104256Y0045445D01*
X0104256Y0040599D01*
X0104256Y0040599D01*
X0104256Y0045445D01*
X0103369Y0045445D01*
X0103075Y0045366D01*
X0102780Y0045445D01*
X0101894Y0045445D01*
X0101894Y0040599D01*
X0101894Y0040599D01*
X0101894Y0040598D02*
X0104083Y0040598D01*
X0104256Y0040598D01*
X0104256Y0035752D01*
X0104256Y0040598D01*
X0104256Y0040598D01*
X0101894Y0040598D01*
X0101894Y0035752D01*
X0101894Y0040598D01*
X0101894Y0040598D01*
X0101894Y0040598D01*
X0104256Y0040598D01*
X0104256Y0040598D01*
X0104256Y0046307D01*
X0104256Y0038138D01*
X0104256Y0031740D01*
X0105437Y0030559D01*
X0110161Y0030559D01*
X0111343Y0031740D01*
X0111343Y0040598D01*
X0111343Y0035752D01*
X0112229Y0035752D01*
X0112524Y0035831D01*
X0112818Y0035752D01*
X0113705Y0035752D01*
X0113705Y0040598D01*
X0113705Y0040598D01*
X0113705Y0046307D01*
X0113705Y0044755D02*
X0113705Y0044755D01*
X0113705Y0043756D02*
X0113705Y0043756D01*
X0113705Y0042758D02*
X0113705Y0042758D01*
X0113705Y0041759D02*
X0113705Y0041759D01*
X0113705Y0040761D02*
X0113705Y0040761D01*
X0113705Y0040598D02*
X0113705Y0040598D01*
X0111343Y0040598D01*
X0113531Y0040598D01*
X0113705Y0040598D01*
X0113705Y0039762D02*
X0113705Y0039762D01*
X0113705Y0038764D02*
X0113705Y0038764D01*
X0113705Y0037765D02*
X0113705Y0037765D01*
X0113705Y0036767D02*
X0113705Y0036767D01*
X0113705Y0035768D02*
X0113705Y0035768D01*
X0114652Y0035768D02*
X0120929Y0035768D01*
X0123016Y0035768D02*
X0124496Y0035768D01*
X0124496Y0034770D02*
X0039040Y0034770D01*
X0039040Y0035768D02*
X0053702Y0035768D01*
X0054650Y0035768D02*
X0054650Y0035768D01*
X0054650Y0035752D02*
X0054650Y0040598D01*
X0054650Y0040598D01*
X0054650Y0035752D01*
X0055597Y0035768D02*
X0063151Y0035768D01*
X0064098Y0035768D02*
X0064098Y0035768D01*
X0065046Y0035768D02*
X0065513Y0035768D01*
X0066461Y0035768D02*
X0066461Y0035768D01*
X0067408Y0035768D02*
X0072600Y0035768D01*
X0073547Y0035768D02*
X0073547Y0035768D01*
X0074495Y0035768D02*
X0074962Y0035768D01*
X0075909Y0035768D02*
X0075909Y0035768D01*
X0076857Y0035768D02*
X0082049Y0035768D01*
X0082996Y0035768D02*
X0082996Y0035768D01*
X0083943Y0035768D02*
X0084411Y0035768D01*
X0085358Y0035768D02*
X0085358Y0035768D01*
X0086306Y0035768D02*
X0091498Y0035768D01*
X0092445Y0035768D02*
X0092445Y0035768D01*
X0092445Y0035752D02*
X0092445Y0040598D01*
X0092445Y0040598D01*
X0092445Y0035752D01*
X0093392Y0035768D02*
X0093860Y0035768D01*
X0094807Y0035768D02*
X0094807Y0035768D01*
X0095754Y0035768D02*
X0100946Y0035768D01*
X0101894Y0035768D02*
X0101894Y0035768D01*
X0102841Y0035768D02*
X0103309Y0035768D01*
X0104256Y0035768D02*
X0104256Y0035768D01*
X0105203Y0035768D02*
X0110395Y0035768D01*
X0111342Y0035768D02*
X0111343Y0035768D01*
X0112290Y0035768D02*
X0112757Y0035768D01*
X0111343Y0036767D02*
X0111342Y0036767D01*
X0111342Y0037765D02*
X0111343Y0037765D01*
X0111342Y0038764D02*
X0111343Y0038764D01*
X0111342Y0039762D02*
X0111343Y0039762D01*
X0111342Y0040761D02*
X0111343Y0040761D01*
X0111342Y0041759D02*
X0111343Y0041759D01*
X0111342Y0042758D02*
X0111343Y0042758D01*
X0111342Y0043756D02*
X0111343Y0043756D01*
X0111342Y0044755D02*
X0111343Y0044755D01*
X0111454Y0045753D02*
X0124496Y0045753D01*
X0124496Y0044755D02*
X0120157Y0044755D01*
X0120425Y0043756D02*
X0124496Y0043756D01*
X0124496Y0042758D02*
X0120425Y0042758D01*
X0120808Y0041759D02*
X0124496Y0041759D01*
X0124496Y0040761D02*
X0121807Y0040761D01*
X0123782Y0039762D02*
X0124496Y0039762D01*
X0124496Y0038764D02*
X0124376Y0038764D01*
X0124470Y0037765D02*
X0124496Y0037765D01*
X0124496Y0036767D02*
X0124149Y0036767D01*
X0121972Y0038039D02*
X0119413Y0040598D01*
X0118429Y0040598D01*
X0116067Y0040598D01*
X0111478Y0046752D02*
X0124496Y0046752D01*
X0124496Y0047133D02*
X0124496Y0011229D01*
X0121618Y0008350D01*
X0080582Y0008350D01*
X0080769Y0008802D01*
X0080769Y0009796D01*
X0080705Y0009951D01*
X0081131Y0009951D01*
X0082049Y0010331D01*
X0082751Y0011034D01*
X0083131Y0011952D01*
X0083131Y0012946D01*
X0082980Y0013311D01*
X0082996Y0013311D01*
X0082996Y0018157D01*
X0082996Y0018157D01*
X0082996Y0013311D01*
X0083883Y0013311D01*
X0084177Y0013390D01*
X0084472Y0013311D01*
X0085358Y0013311D01*
X0085358Y0018157D01*
X0085358Y0018157D01*
X0083169Y0018157D01*
X0082996Y0018157D01*
X0082996Y0018158D01*
X0082996Y0023004D01*
X0082110Y0023004D01*
X0081728Y0022902D01*
X0081571Y0022811D01*
X0054094Y0022811D01*
X0054094Y0026189D01*
X0053036Y0027248D01*
X0052520Y0027764D01*
X0051461Y0028823D01*
X0042583Y0028823D01*
X0042583Y0029070D01*
X0039040Y0032613D01*
X0039040Y0071812D01*
X0062662Y0095434D01*
X0062662Y0146457D01*
X0062673Y0146467D01*
X0063053Y0147385D01*
X0063053Y0148379D01*
X0062673Y0149297D01*
X0061970Y0149999D01*
X0061052Y0150380D01*
X0060058Y0150380D01*
X0059140Y0149999D01*
X0058438Y0149297D01*
X0058057Y0148379D01*
X0058057Y0147385D01*
X0058438Y0146467D01*
X0058448Y0146457D01*
X0058448Y0097180D01*
X0036060Y0074792D01*
X0035103Y0073835D01*
X0035103Y0074174D01*
X0046914Y0085985D01*
X0046914Y0146063D01*
X0046924Y0146073D01*
X0047305Y0146991D01*
X0047305Y0147985D01*
X0046924Y0148903D01*
X0046222Y0149606D01*
X0045304Y0149986D01*
X0044310Y0149986D01*
X0043392Y0149606D01*
X0042690Y0148903D01*
X0042309Y0147985D01*
X0042309Y0146991D01*
X0042690Y0146073D01*
X0042700Y0146063D01*
X0042700Y0087731D01*
X0032123Y0077154D01*
X0031166Y0076197D01*
X0031166Y0146063D01*
X0031176Y0146073D01*
X0031557Y0146991D01*
X0031557Y0147985D01*
X0031176Y0148903D01*
X0030474Y0149606D01*
X0029556Y0149986D01*
X0028562Y0149986D01*
X0027644Y0149606D01*
X0026942Y0148903D01*
X0026561Y0147985D01*
X0026561Y0146991D01*
X0026942Y0146073D01*
X0026952Y0146063D01*
X0026952Y0012757D01*
X0036390Y0003319D01*
X0017751Y0003319D01*
X0020157Y0004708D01*
X0022233Y0006784D01*
X0023701Y0009326D01*
X0024461Y0012162D01*
X0024461Y0015098D01*
X0023701Y0017934D01*
X0022233Y0020476D01*
X0020157Y0022552D01*
X0017615Y0024020D01*
X0014779Y0024780D01*
X0011843Y0024780D01*
X0009007Y0024020D01*
X0006465Y0022552D01*
X0004389Y0020476D01*
X0003000Y0018070D01*
X0003000Y0150922D01*
X0004389Y0148516D01*
X0006465Y0146440D01*
X0009007Y0144972D01*
X0011843Y0144213D01*
X0014779Y0144213D01*
X0017615Y0144972D01*
X0020157Y0146440D01*
X0022233Y0148516D01*
X0023701Y0151059D01*
X0024461Y0153894D01*
X0024461Y0156830D01*
X0023701Y0159666D01*
X0022233Y0162208D01*
X0020157Y0164284D01*
X0017751Y0165673D01*
X0150603Y0165673D01*
X0148197Y0164284D01*
X0146121Y0162208D01*
X0144654Y0159666D01*
X0143894Y0156830D01*
X0143894Y0153894D01*
X0144654Y0151059D01*
X0146121Y0148516D01*
X0148197Y0146440D01*
X0150740Y0144972D01*
X0153575Y0144213D01*
X0156511Y0144213D01*
X0159347Y0144972D01*
X0161889Y0146440D01*
X0163965Y0148516D01*
X0165354Y0150922D01*
X0165354Y0018070D01*
X0163965Y0020476D01*
X0161889Y0022552D01*
X0159347Y0024020D01*
X0156511Y0024780D01*
X0153575Y0024780D01*
X0150740Y0024020D01*
X0148197Y0022552D01*
X0146121Y0020476D01*
X0144654Y0017934D01*
X0143894Y0015098D01*
X0143894Y0012162D01*
X0144654Y0009326D01*
X0146121Y0006784D01*
X0148197Y0004708D01*
X0150603Y0003319D01*
X0055586Y0003319D01*
X0056757Y0004489D01*
X0056757Y0007874D01*
X0056767Y0007884D01*
X0057012Y0008475D01*
X0057257Y0007884D01*
X0057959Y0007182D01*
X0058877Y0006802D01*
X0059871Y0006802D01*
X0060789Y0007182D01*
X0061491Y0007884D01*
X0061736Y0008475D01*
X0061981Y0007884D01*
X0062684Y0007182D01*
X0063602Y0006802D01*
X0064595Y0006802D01*
X0065513Y0007182D01*
X0066216Y0007884D01*
X0066461Y0008475D01*
X0066705Y0007884D01*
X0067408Y0007182D01*
X0068326Y0006802D01*
X0069320Y0006802D01*
X0070238Y0007182D01*
X0070940Y0007884D01*
X0071185Y0008475D01*
X0071430Y0007884D01*
X0072132Y0007182D01*
X0073050Y0006802D01*
X0073489Y0006802D01*
X0075555Y0004736D01*
X0123115Y0004736D01*
X0124173Y0005795D01*
X0128110Y0009732D01*
X0128110Y0048630D01*
X0127052Y0049689D01*
X0125798Y0050942D01*
X0125665Y0051265D01*
X0124962Y0051968D01*
X0124044Y0052348D01*
X0123050Y0052348D01*
X0122132Y0051968D01*
X0121430Y0051265D01*
X0121050Y0050347D01*
X0121050Y0049354D01*
X0121430Y0048436D01*
X0122132Y0047733D01*
X0123050Y0047353D01*
X0124044Y0047353D01*
X0124209Y0047421D01*
X0124496Y0047133D01*
X0126303Y0047882D02*
X0126303Y0010480D01*
X0122366Y0006543D01*
X0076303Y0006543D01*
X0073547Y0009299D01*
X0073547Y0018157D01*
X0071185Y0018157D02*
X0070988Y0018354D01*
X0070988Y0020913D01*
X0071185Y0020717D01*
X0071185Y0018157D01*
X0071185Y0012449D01*
X0068823Y0009299D02*
X0068823Y0018157D01*
X0066461Y0018157D02*
X0066461Y0012449D01*
X0064098Y0009299D02*
X0064098Y0018157D01*
X0063902Y0018354D01*
X0063902Y0020520D01*
X0064098Y0020323D01*
X0064098Y0018157D01*
X0061736Y0018157D02*
X0061736Y0012449D01*
X0059374Y0009299D02*
X0059374Y0018157D01*
X0057012Y0018157D02*
X0057012Y0012449D01*
X0054650Y0009299D02*
X0054650Y0018157D01*
X0052287Y0018157D02*
X0052287Y0025441D01*
X0050713Y0027016D01*
X0041657Y0027016D01*
X0040476Y0028197D01*
X0041876Y0029777D02*
X0124496Y0029777D01*
X0124496Y0028779D02*
X0051505Y0028779D01*
X0052504Y0027780D02*
X0124496Y0027780D01*
X0124496Y0026782D02*
X0053502Y0026782D01*
X0054094Y0025783D02*
X0124496Y0025783D01*
X0124496Y0024785D02*
X0054094Y0024785D01*
X0054094Y0023786D02*
X0124496Y0023786D01*
X0124496Y0022788D02*
X0119683Y0022788D01*
X0119660Y0022811D02*
X0110405Y0022811D01*
X0110248Y0022902D01*
X0109867Y0023004D01*
X0108980Y0023004D01*
X0108094Y0023004D01*
X0107799Y0022925D01*
X0107505Y0023004D01*
X0106618Y0023004D01*
X0105732Y0023004D01*
X0105437Y0022925D01*
X0105142Y0023004D01*
X0104256Y0023004D01*
X0104256Y0018158D01*
X0104256Y0018158D01*
X0104256Y0023004D01*
X0103369Y0023004D01*
X0103075Y0022925D01*
X0102780Y0023004D01*
X0101894Y0023004D01*
X0101894Y0018158D01*
X0101894Y0018158D01*
X0104256Y0018158D01*
X0106618Y0018158D01*
X0106618Y0023004D01*
X0106618Y0018158D01*
X0106618Y0018158D01*
X0106618Y0018157D01*
X0106618Y0018157D01*
X0106618Y0013311D01*
X0105732Y0013311D01*
X0105437Y0013390D01*
X0105142Y0013311D01*
X0104256Y0013311D01*
X0104256Y0018157D01*
X0104256Y0018157D01*
X0104256Y0013311D01*
X0103369Y0013311D01*
X0103075Y0013390D01*
X0102780Y0013311D01*
X0101894Y0013311D01*
X0101894Y0018157D01*
X0101894Y0018157D01*
X0101894Y0018158D01*
X0101894Y0023004D01*
X0101007Y0023004D01*
X0100626Y0022902D01*
X0100469Y0022811D01*
X0091508Y0022811D01*
X0091351Y0022902D01*
X0090969Y0023004D01*
X0090083Y0023004D01*
X0090083Y0018158D01*
X0090083Y0018158D01*
X0090083Y0023004D01*
X0089196Y0023004D01*
X0088902Y0022925D01*
X0088607Y0023004D01*
X0087721Y0023004D01*
X0087721Y0018158D01*
X0090083Y0018158D01*
X0090083Y0018157D02*
X0090083Y0026622D01*
X0094807Y0031346D01*
X0094807Y0031740D01*
X0095988Y0030559D01*
X0100713Y0030559D01*
X0101894Y0029378D01*
X0101894Y0018157D01*
X0102067Y0018157D01*
X0104256Y0018157D01*
X0104256Y0018158D01*
X0104256Y0018157D01*
X0104429Y0018157D01*
X0106618Y0018157D01*
X0106618Y0013311D01*
X0107505Y0013311D01*
X0107799Y0013390D01*
X0108094Y0013311D01*
X0108980Y0013311D01*
X0108980Y0018157D01*
X0108980Y0018157D01*
X0106791Y0018157D01*
X0106618Y0018157D01*
X0106618Y0018158D01*
X0108980Y0018158D01*
X0108980Y0023004D01*
X0108980Y0018158D01*
X0108980Y0018158D01*
X0108980Y0018157D01*
X0108980Y0013311D01*
X0109867Y0013311D01*
X0110248Y0013413D01*
X0110405Y0013504D01*
X0116622Y0013504D01*
X0116622Y0013190D01*
X0116312Y0012879D01*
X0115931Y0011961D01*
X0115931Y0010968D01*
X0116312Y0010050D01*
X0117014Y0009347D01*
X0117932Y0008967D01*
X0118926Y0008967D01*
X0119844Y0009347D01*
X0120547Y0010050D01*
X0120927Y0010968D01*
X0120927Y0011961D01*
X0120547Y0012879D01*
X0120236Y0013190D01*
X0120236Y0014081D01*
X0120425Y0014270D01*
X0120425Y0022045D01*
X0119660Y0022811D01*
X0120425Y0021789D02*
X0124496Y0021789D01*
X0124496Y0020791D02*
X0120425Y0020791D01*
X0120425Y0019792D02*
X0124496Y0019792D01*
X0124496Y0018794D02*
X0120425Y0018794D01*
X0120425Y0017795D02*
X0124496Y0017795D01*
X0124496Y0016797D02*
X0120425Y0016797D01*
X0120425Y0015798D02*
X0124496Y0015798D01*
X0124496Y0014800D02*
X0120425Y0014800D01*
X0120236Y0013801D02*
X0124496Y0013801D01*
X0124496Y0012803D02*
X0120578Y0012803D01*
X0120927Y0011804D02*
X0124496Y0011804D01*
X0124073Y0010805D02*
X0120860Y0010805D01*
X0120304Y0009807D02*
X0123074Y0009807D01*
X0122076Y0008808D02*
X0080769Y0008808D01*
X0080765Y0009807D02*
X0091346Y0009807D01*
X0091030Y0009938D02*
X0091948Y0009557D01*
X0092942Y0009557D01*
X0093860Y0009938D01*
X0094562Y0010640D01*
X0094943Y0011558D01*
X0094943Y0012552D01*
X0094562Y0013470D01*
X0094528Y0013504D01*
X0100469Y0013504D01*
X0100626Y0013413D01*
X0101007Y0013311D01*
X0101894Y0013311D01*
X0101894Y0018157D01*
X0101894Y0012055D01*
X0101894Y0013801D02*
X0101894Y0013801D01*
X0101894Y0014800D02*
X0101894Y0014800D01*
X0101894Y0015798D02*
X0101894Y0015798D01*
X0101894Y0016797D02*
X0101894Y0016797D01*
X0101894Y0017795D02*
X0101894Y0017795D01*
X0101894Y0018157D02*
X0104256Y0018157D01*
X0106618Y0018157D01*
X0108980Y0018157D01*
X0108980Y0017795D02*
X0108980Y0017795D01*
X0108980Y0016797D02*
X0108980Y0016797D01*
X0108980Y0015798D02*
X0108980Y0015798D01*
X0108980Y0014800D02*
X0108980Y0014800D01*
X0108980Y0013801D02*
X0108980Y0013801D01*
X0106618Y0013801D02*
X0106618Y0013801D01*
X0106618Y0014800D02*
X0106618Y0014800D01*
X0106618Y0015798D02*
X0106618Y0015798D01*
X0106618Y0016797D02*
X0106618Y0016797D01*
X0106618Y0017795D02*
X0106618Y0017795D01*
X0106618Y0018794D02*
X0106618Y0018794D01*
X0106618Y0019792D02*
X0106618Y0019792D01*
X0106618Y0020791D02*
X0106618Y0020791D01*
X0106618Y0021789D02*
X0106618Y0021789D01*
X0106618Y0022788D02*
X0106618Y0022788D01*
X0108980Y0022788D02*
X0108980Y0022788D01*
X0108980Y0021789D02*
X0108980Y0021789D01*
X0108980Y0020791D02*
X0108980Y0020791D01*
X0108980Y0019792D02*
X0108980Y0019792D01*
X0108980Y0018794D02*
X0108980Y0018794D01*
X0111343Y0018157D02*
X0113705Y0018157D01*
X0116067Y0018157D01*
X0118429Y0018157D01*
X0118429Y0011465D01*
X0116555Y0009807D02*
X0093544Y0009807D01*
X0094631Y0010805D02*
X0115999Y0010805D01*
X0115931Y0011804D02*
X0094943Y0011804D01*
X0094839Y0012803D02*
X0116280Y0012803D01*
X0118429Y0018157D02*
X0118429Y0020618D01*
X0128110Y0020791D02*
X0146436Y0020791D01*
X0145727Y0019792D02*
X0128110Y0019792D01*
X0128110Y0018794D02*
X0145150Y0018794D01*
X0144616Y0017795D02*
X0128110Y0017795D01*
X0128110Y0016797D02*
X0144349Y0016797D01*
X0144081Y0015798D02*
X0128110Y0015798D01*
X0128110Y0014800D02*
X0143894Y0014800D01*
X0143894Y0013801D02*
X0128110Y0013801D01*
X0128110Y0012803D02*
X0143894Y0012803D01*
X0143990Y0011804D02*
X0128110Y0011804D01*
X0128110Y0010805D02*
X0144257Y0010805D01*
X0144525Y0009807D02*
X0128110Y0009807D01*
X0127187Y0008808D02*
X0144953Y0008808D01*
X0145529Y0007810D02*
X0126188Y0007810D01*
X0125190Y0006811D02*
X0146105Y0006811D01*
X0147092Y0005813D02*
X0124191Y0005813D01*
X0123193Y0004814D02*
X0148091Y0004814D01*
X0149742Y0003816D02*
X0056083Y0003816D01*
X0056757Y0004814D02*
X0075476Y0004814D01*
X0074478Y0005813D02*
X0056757Y0005813D01*
X0056757Y0006811D02*
X0058853Y0006811D01*
X0059895Y0006811D02*
X0063578Y0006811D01*
X0064619Y0006811D02*
X0068302Y0006811D01*
X0069343Y0006811D02*
X0073027Y0006811D01*
X0071504Y0007810D02*
X0070866Y0007810D01*
X0066780Y0007810D02*
X0066141Y0007810D01*
X0062055Y0007810D02*
X0061417Y0007810D01*
X0057331Y0007810D02*
X0056757Y0007810D01*
X0052287Y0012449D02*
X0052287Y0018157D01*
X0049925Y0018157D02*
X0049925Y0009299D01*
X0035893Y0003816D02*
X0018612Y0003816D01*
X0020263Y0004814D02*
X0034895Y0004814D01*
X0033896Y0005813D02*
X0021262Y0005813D01*
X0022249Y0006811D02*
X0032898Y0006811D01*
X0031899Y0007810D02*
X0022825Y0007810D01*
X0023402Y0008808D02*
X0030901Y0008808D01*
X0029902Y0009807D02*
X0023830Y0009807D01*
X0024097Y0010805D02*
X0028904Y0010805D01*
X0027905Y0011804D02*
X0024365Y0011804D01*
X0024461Y0012803D02*
X0026952Y0012803D01*
X0026952Y0013801D02*
X0024461Y0013801D01*
X0024461Y0014800D02*
X0026952Y0014800D01*
X0026952Y0015798D02*
X0024273Y0015798D01*
X0024005Y0016797D02*
X0026952Y0016797D01*
X0026952Y0017795D02*
X0023738Y0017795D01*
X0023204Y0018794D02*
X0026952Y0018794D01*
X0026952Y0019792D02*
X0022628Y0019792D01*
X0021918Y0020791D02*
X0026952Y0020791D01*
X0026952Y0021789D02*
X0020920Y0021789D01*
X0019749Y0022788D02*
X0026952Y0022788D01*
X0026952Y0023786D02*
X0018019Y0023786D01*
X0026952Y0024785D02*
X0003000Y0024785D01*
X0003000Y0025783D02*
X0026952Y0025783D01*
X0026952Y0026782D02*
X0003000Y0026782D01*
X0003000Y0027780D02*
X0026952Y0027780D01*
X0026952Y0028779D02*
X0003000Y0028779D01*
X0003000Y0029777D02*
X0026952Y0029777D01*
X0026952Y0030776D02*
X0003000Y0030776D01*
X0003000Y0031774D02*
X0026952Y0031774D01*
X0026952Y0032773D02*
X0003000Y0032773D01*
X0003000Y0033771D02*
X0026952Y0033771D01*
X0026952Y0034770D02*
X0003000Y0034770D01*
X0003000Y0035768D02*
X0026952Y0035768D01*
X0026952Y0036767D02*
X0003000Y0036767D01*
X0003000Y0037765D02*
X0026952Y0037765D01*
X0026952Y0038764D02*
X0003000Y0038764D01*
X0003000Y0039762D02*
X0026952Y0039762D01*
X0026952Y0040761D02*
X0003000Y0040761D01*
X0003000Y0041759D02*
X0026952Y0041759D01*
X0026952Y0042758D02*
X0003000Y0042758D01*
X0003000Y0043756D02*
X0026952Y0043756D01*
X0026952Y0044755D02*
X0003000Y0044755D01*
X0003000Y0045753D02*
X0026952Y0045753D01*
X0026952Y0046752D02*
X0003000Y0046752D01*
X0003000Y0047750D02*
X0026952Y0047750D01*
X0026952Y0048749D02*
X0003000Y0048749D01*
X0003000Y0049747D02*
X0026952Y0049747D01*
X0026952Y0050746D02*
X0003000Y0050746D01*
X0003000Y0051744D02*
X0026952Y0051744D01*
X0026952Y0052743D02*
X0003000Y0052743D01*
X0003000Y0053741D02*
X0026952Y0053741D01*
X0026952Y0054740D02*
X0003000Y0054740D01*
X0003000Y0055739D02*
X0026952Y0055739D01*
X0026952Y0056737D02*
X0003000Y0056737D01*
X0003000Y0057736D02*
X0026952Y0057736D01*
X0026952Y0058734D02*
X0003000Y0058734D01*
X0003000Y0059733D02*
X0026952Y0059733D01*
X0026952Y0060731D02*
X0003000Y0060731D01*
X0003000Y0061730D02*
X0026952Y0061730D01*
X0026952Y0062728D02*
X0003000Y0062728D01*
X0003000Y0063727D02*
X0026952Y0063727D01*
X0026952Y0064725D02*
X0003000Y0064725D01*
X0003000Y0065724D02*
X0026952Y0065724D01*
X0026952Y0066722D02*
X0003000Y0066722D01*
X0003000Y0067721D02*
X0026952Y0067721D01*
X0026952Y0068719D02*
X0003000Y0068719D01*
X0003000Y0069718D02*
X0026952Y0069718D01*
X0026952Y0070716D02*
X0003000Y0070716D01*
X0003000Y0071715D02*
X0026952Y0071715D01*
X0026952Y0072713D02*
X0003000Y0072713D01*
X0003000Y0073712D02*
X0026952Y0073712D01*
X0026952Y0074710D02*
X0003000Y0074710D01*
X0003000Y0075709D02*
X0026952Y0075709D01*
X0026952Y0076707D02*
X0003000Y0076707D01*
X0003000Y0077706D02*
X0026952Y0077706D01*
X0026952Y0078704D02*
X0003000Y0078704D01*
X0003000Y0079703D02*
X0026952Y0079703D01*
X0026952Y0080701D02*
X0003000Y0080701D01*
X0003000Y0081700D02*
X0026952Y0081700D01*
X0026952Y0082698D02*
X0003000Y0082698D01*
X0003000Y0083697D02*
X0026952Y0083697D01*
X0026952Y0084695D02*
X0003000Y0084695D01*
X0003000Y0085694D02*
X0026952Y0085694D01*
X0026952Y0086692D02*
X0003000Y0086692D01*
X0003000Y0087691D02*
X0026952Y0087691D01*
X0026952Y0088689D02*
X0003000Y0088689D01*
X0003000Y0089688D02*
X0026952Y0089688D01*
X0026952Y0090686D02*
X0003000Y0090686D01*
X0003000Y0091685D02*
X0026952Y0091685D01*
X0026952Y0092683D02*
X0003000Y0092683D01*
X0003000Y0093682D02*
X0026952Y0093682D01*
X0026952Y0094680D02*
X0003000Y0094680D01*
X0003000Y0095679D02*
X0026952Y0095679D01*
X0026952Y0096677D02*
X0003000Y0096677D01*
X0003000Y0097676D02*
X0026952Y0097676D01*
X0026952Y0098674D02*
X0003000Y0098674D01*
X0003000Y0099673D02*
X0026952Y0099673D01*
X0026952Y0100672D02*
X0003000Y0100672D01*
X0003000Y0101670D02*
X0026952Y0101670D01*
X0026952Y0102669D02*
X0003000Y0102669D01*
X0003000Y0103667D02*
X0026952Y0103667D01*
X0026952Y0104666D02*
X0003000Y0104666D01*
X0003000Y0105664D02*
X0026952Y0105664D01*
X0026952Y0106663D02*
X0003000Y0106663D01*
X0003000Y0107661D02*
X0026952Y0107661D01*
X0026952Y0108660D02*
X0003000Y0108660D01*
X0003000Y0109658D02*
X0026952Y0109658D01*
X0026952Y0110657D02*
X0003000Y0110657D01*
X0003000Y0111655D02*
X0026952Y0111655D01*
X0026952Y0112654D02*
X0003000Y0112654D01*
X0003000Y0113652D02*
X0026952Y0113652D01*
X0026952Y0114651D02*
X0003000Y0114651D01*
X0003000Y0115649D02*
X0026952Y0115649D01*
X0026952Y0116648D02*
X0003000Y0116648D01*
X0003000Y0117646D02*
X0026952Y0117646D01*
X0026952Y0118645D02*
X0003000Y0118645D01*
X0003000Y0119643D02*
X0026952Y0119643D01*
X0026952Y0120642D02*
X0003000Y0120642D01*
X0003000Y0121640D02*
X0026952Y0121640D01*
X0026952Y0122639D02*
X0003000Y0122639D01*
X0003000Y0123637D02*
X0026952Y0123637D01*
X0026952Y0124636D02*
X0003000Y0124636D01*
X0003000Y0125634D02*
X0026952Y0125634D01*
X0026952Y0126633D02*
X0003000Y0126633D01*
X0003000Y0127631D02*
X0026952Y0127631D01*
X0026952Y0128630D02*
X0003000Y0128630D01*
X0003000Y0129628D02*
X0026952Y0129628D01*
X0026952Y0130627D02*
X0003000Y0130627D01*
X0003000Y0131625D02*
X0026952Y0131625D01*
X0026952Y0132624D02*
X0003000Y0132624D01*
X0003000Y0133622D02*
X0026952Y0133622D01*
X0026952Y0134621D02*
X0003000Y0134621D01*
X0003000Y0135619D02*
X0026952Y0135619D01*
X0026952Y0136618D02*
X0003000Y0136618D01*
X0003000Y0137616D02*
X0026952Y0137616D01*
X0026952Y0138615D02*
X0003000Y0138615D01*
X0003000Y0139613D02*
X0026952Y0139613D01*
X0026952Y0140612D02*
X0003000Y0140612D01*
X0003000Y0141610D02*
X0026952Y0141610D01*
X0026952Y0142609D02*
X0003000Y0142609D01*
X0003000Y0143608D02*
X0026952Y0143608D01*
X0026952Y0144606D02*
X0016247Y0144606D01*
X0018709Y0145605D02*
X0026952Y0145605D01*
X0026722Y0146603D02*
X0020320Y0146603D01*
X0021318Y0147602D02*
X0026561Y0147602D01*
X0026816Y0148600D02*
X0022281Y0148600D01*
X0022858Y0149599D02*
X0027637Y0149599D01*
X0030481Y0149599D02*
X0043385Y0149599D01*
X0042564Y0148600D02*
X0031302Y0148600D01*
X0031557Y0147602D02*
X0042309Y0147602D01*
X0042470Y0146603D02*
X0031396Y0146603D01*
X0031166Y0145605D02*
X0042700Y0145605D01*
X0042700Y0144606D02*
X0031166Y0144606D01*
X0031166Y0143608D02*
X0042700Y0143608D01*
X0042700Y0142609D02*
X0031166Y0142609D01*
X0031166Y0141610D02*
X0042700Y0141610D01*
X0042700Y0140612D02*
X0031166Y0140612D01*
X0031166Y0139613D02*
X0042700Y0139613D01*
X0042700Y0138615D02*
X0031166Y0138615D01*
X0031166Y0137616D02*
X0042700Y0137616D01*
X0042700Y0136618D02*
X0031166Y0136618D01*
X0031166Y0135619D02*
X0042700Y0135619D01*
X0042700Y0134621D02*
X0031166Y0134621D01*
X0031166Y0133622D02*
X0042700Y0133622D01*
X0042700Y0132624D02*
X0031166Y0132624D01*
X0031166Y0131625D02*
X0042700Y0131625D01*
X0042700Y0130627D02*
X0031166Y0130627D01*
X0031166Y0129628D02*
X0042700Y0129628D01*
X0042700Y0128630D02*
X0031166Y0128630D01*
X0031166Y0127631D02*
X0042700Y0127631D01*
X0042700Y0126633D02*
X0031166Y0126633D01*
X0031166Y0125634D02*
X0042700Y0125634D01*
X0042700Y0124636D02*
X0031166Y0124636D01*
X0031166Y0123637D02*
X0042700Y0123637D01*
X0042700Y0122639D02*
X0031166Y0122639D01*
X0031166Y0121640D02*
X0042700Y0121640D01*
X0042700Y0120642D02*
X0031166Y0120642D01*
X0031166Y0119643D02*
X0042700Y0119643D01*
X0042700Y0118645D02*
X0031166Y0118645D01*
X0031166Y0117646D02*
X0042700Y0117646D01*
X0042700Y0116648D02*
X0031166Y0116648D01*
X0031166Y0115649D02*
X0042700Y0115649D01*
X0042700Y0114651D02*
X0031166Y0114651D01*
X0031166Y0113652D02*
X0042700Y0113652D01*
X0042700Y0112654D02*
X0031166Y0112654D01*
X0031166Y0111655D02*
X0042700Y0111655D01*
X0042700Y0110657D02*
X0031166Y0110657D01*
X0031166Y0109658D02*
X0042700Y0109658D01*
X0042700Y0108660D02*
X0031166Y0108660D01*
X0031166Y0107661D02*
X0042700Y0107661D01*
X0042700Y0106663D02*
X0031166Y0106663D01*
X0031166Y0105664D02*
X0042700Y0105664D01*
X0042700Y0104666D02*
X0031166Y0104666D01*
X0031166Y0103667D02*
X0042700Y0103667D01*
X0042700Y0102669D02*
X0031166Y0102669D01*
X0031166Y0101670D02*
X0042700Y0101670D01*
X0042700Y0100672D02*
X0031166Y0100672D01*
X0031166Y0099673D02*
X0042700Y0099673D01*
X0042700Y0098674D02*
X0031166Y0098674D01*
X0031166Y0097676D02*
X0042700Y0097676D01*
X0042700Y0096677D02*
X0031166Y0096677D01*
X0031166Y0095679D02*
X0042700Y0095679D01*
X0042700Y0094680D02*
X0031166Y0094680D01*
X0031166Y0093682D02*
X0042700Y0093682D01*
X0042700Y0092683D02*
X0031166Y0092683D01*
X0031166Y0091685D02*
X0042700Y0091685D01*
X0042700Y0090686D02*
X0031166Y0090686D01*
X0031166Y0089688D02*
X0042700Y0089688D01*
X0042700Y0088689D02*
X0031166Y0088689D01*
X0031166Y0087691D02*
X0042660Y0087691D01*
X0041661Y0086692D02*
X0031166Y0086692D01*
X0031166Y0085694D02*
X0040663Y0085694D01*
X0039664Y0084695D02*
X0031166Y0084695D01*
X0031166Y0083697D02*
X0038666Y0083697D01*
X0037667Y0082698D02*
X0031166Y0082698D01*
X0031166Y0081700D02*
X0036669Y0081700D01*
X0035670Y0080701D02*
X0031166Y0080701D01*
X0031166Y0079703D02*
X0034672Y0079703D01*
X0033673Y0078704D02*
X0031166Y0078704D01*
X0031166Y0077706D02*
X0032675Y0077706D01*
X0031676Y0076707D02*
X0031166Y0076707D01*
X0035639Y0074710D02*
X0035978Y0074710D01*
X0036637Y0075709D02*
X0036977Y0075709D01*
X0037636Y0076707D02*
X0037975Y0076707D01*
X0038634Y0077706D02*
X0038974Y0077706D01*
X0039633Y0078704D02*
X0039972Y0078704D01*
X0040631Y0079703D02*
X0040971Y0079703D01*
X0041630Y0080701D02*
X0041969Y0080701D01*
X0042628Y0081700D02*
X0042968Y0081700D01*
X0043627Y0082698D02*
X0043966Y0082698D01*
X0044626Y0083697D02*
X0044965Y0083697D01*
X0045624Y0084695D02*
X0045964Y0084695D01*
X0046623Y0085694D02*
X0046962Y0085694D01*
X0046914Y0086692D02*
X0047961Y0086692D01*
X0048959Y0087691D02*
X0046914Y0087691D01*
X0046914Y0088689D02*
X0049958Y0088689D01*
X0050956Y0089688D02*
X0046914Y0089688D01*
X0046914Y0090686D02*
X0051955Y0090686D01*
X0052953Y0091685D02*
X0046914Y0091685D01*
X0046914Y0092683D02*
X0053952Y0092683D01*
X0054950Y0093682D02*
X0046914Y0093682D01*
X0046914Y0094680D02*
X0055949Y0094680D01*
X0056947Y0095679D02*
X0046914Y0095679D01*
X0046914Y0096677D02*
X0057946Y0096677D01*
X0058448Y0097676D02*
X0046914Y0097676D01*
X0046914Y0098674D02*
X0058448Y0098674D01*
X0058448Y0099673D02*
X0046914Y0099673D01*
X0046914Y0100672D02*
X0058448Y0100672D01*
X0058448Y0101670D02*
X0046914Y0101670D01*
X0046914Y0102669D02*
X0058448Y0102669D01*
X0058448Y0103667D02*
X0046914Y0103667D01*
X0046914Y0104666D02*
X0058448Y0104666D01*
X0058448Y0105664D02*
X0046914Y0105664D01*
X0046914Y0106663D02*
X0058448Y0106663D01*
X0058448Y0107661D02*
X0046914Y0107661D01*
X0046914Y0108660D02*
X0058448Y0108660D01*
X0058448Y0109658D02*
X0046914Y0109658D01*
X0046914Y0110657D02*
X0058448Y0110657D01*
X0058448Y0111655D02*
X0046914Y0111655D01*
X0046914Y0112654D02*
X0058448Y0112654D01*
X0058448Y0113652D02*
X0046914Y0113652D01*
X0046914Y0114651D02*
X0058448Y0114651D01*
X0058448Y0115649D02*
X0046914Y0115649D01*
X0046914Y0116648D02*
X0058448Y0116648D01*
X0058448Y0117646D02*
X0046914Y0117646D01*
X0046914Y0118645D02*
X0058448Y0118645D01*
X0058448Y0119643D02*
X0046914Y0119643D01*
X0046914Y0120642D02*
X0058448Y0120642D01*
X0058448Y0121640D02*
X0046914Y0121640D01*
X0046914Y0122639D02*
X0058448Y0122639D01*
X0058448Y0123637D02*
X0046914Y0123637D01*
X0046914Y0124636D02*
X0058448Y0124636D01*
X0058448Y0125634D02*
X0046914Y0125634D01*
X0046914Y0126633D02*
X0058448Y0126633D01*
X0058448Y0127631D02*
X0046914Y0127631D01*
X0046914Y0128630D02*
X0058448Y0128630D01*
X0058448Y0129628D02*
X0046914Y0129628D01*
X0046914Y0130627D02*
X0058448Y0130627D01*
X0058448Y0131625D02*
X0046914Y0131625D01*
X0046914Y0132624D02*
X0058448Y0132624D01*
X0058448Y0133622D02*
X0046914Y0133622D01*
X0046914Y0134621D02*
X0058448Y0134621D01*
X0058448Y0135619D02*
X0046914Y0135619D01*
X0046914Y0136618D02*
X0058448Y0136618D01*
X0058448Y0137616D02*
X0046914Y0137616D01*
X0046914Y0138615D02*
X0058448Y0138615D01*
X0058448Y0139613D02*
X0046914Y0139613D01*
X0046914Y0140612D02*
X0058448Y0140612D01*
X0058448Y0141610D02*
X0046914Y0141610D01*
X0046914Y0142609D02*
X0058448Y0142609D01*
X0058448Y0143608D02*
X0046914Y0143608D01*
X0046914Y0144606D02*
X0058448Y0144606D01*
X0058448Y0145605D02*
X0046914Y0145605D01*
X0047144Y0146603D02*
X0058381Y0146603D01*
X0058057Y0147602D02*
X0047305Y0147602D01*
X0047050Y0148600D02*
X0058149Y0148600D01*
X0058740Y0149599D02*
X0046229Y0149599D01*
X0062371Y0149599D02*
X0086614Y0149599D01*
X0086601Y0149630D02*
X0087071Y0148495D01*
X0087940Y0147626D01*
X0089075Y0147156D01*
X0090303Y0147156D01*
X0091438Y0147626D01*
X0091719Y0147907D01*
X0091719Y0147268D01*
X0092189Y0146133D01*
X0093058Y0145264D01*
X0094193Y0144794D01*
X0095421Y0144794D01*
X0096556Y0145264D01*
X0096837Y0145544D01*
X0096837Y0144512D01*
X0097307Y0143377D01*
X0098176Y0142508D01*
X0099311Y0142038D01*
X0100539Y0142038D01*
X0101675Y0142508D01*
X0102543Y0143377D01*
X0103013Y0144512D01*
X0103013Y0145740D01*
X0102543Y0146875D01*
X0101675Y0147744D01*
X0100539Y0148214D01*
X0099311Y0148214D01*
X0098176Y0147744D01*
X0097895Y0147463D01*
X0097895Y0148496D01*
X0097425Y0149631D01*
X0096556Y0150500D01*
X0095421Y0150970D01*
X0094193Y0150970D01*
X0093058Y0150500D01*
X0092777Y0150219D01*
X0092777Y0150858D01*
X0092307Y0151993D01*
X0091438Y0152862D01*
X0091105Y0153000D01*
X0091438Y0153138D01*
X0092307Y0154007D01*
X0092777Y0155142D01*
X0092777Y0156370D01*
X0092307Y0157505D01*
X0091438Y0158374D01*
X0091105Y0158512D01*
X0091438Y0158650D01*
X0092307Y0159518D01*
X0092777Y0160653D01*
X0092777Y0161882D01*
X0092307Y0163017D01*
X0091438Y0163886D01*
X0090303Y0164356D01*
X0089075Y0164356D01*
X0087940Y0163886D01*
X0087071Y0163017D01*
X0086601Y0161882D01*
X0086601Y0160653D01*
X0087071Y0159518D01*
X0087940Y0158650D01*
X0088273Y0158512D01*
X0087940Y0158374D01*
X0087071Y0157505D01*
X0086601Y0156370D01*
X0086601Y0155142D01*
X0087071Y0154007D01*
X0087940Y0153138D01*
X0088273Y0153000D01*
X0087940Y0152862D01*
X0087071Y0151993D01*
X0086601Y0150858D01*
X0086601Y0149630D01*
X0086601Y0150597D02*
X0023434Y0150597D01*
X0023845Y0151596D02*
X0086906Y0151596D01*
X0087672Y0152594D02*
X0024112Y0152594D01*
X0024380Y0153593D02*
X0087485Y0153593D01*
X0086829Y0154591D02*
X0024461Y0154591D01*
X0024461Y0155590D02*
X0086601Y0155590D01*
X0086691Y0156588D02*
X0024461Y0156588D01*
X0024258Y0157587D02*
X0087152Y0157587D01*
X0088095Y0158585D02*
X0023990Y0158585D01*
X0023723Y0159584D02*
X0087044Y0159584D01*
X0086630Y0160582D02*
X0023172Y0160582D01*
X0022595Y0161581D02*
X0086601Y0161581D01*
X0086890Y0162579D02*
X0021862Y0162579D01*
X0020863Y0163578D02*
X0087632Y0163578D01*
X0091746Y0163578D02*
X0129364Y0163578D01*
X0129672Y0163886D02*
X0128803Y0163017D01*
X0128333Y0161882D01*
X0128333Y0160653D01*
X0128803Y0159518D01*
X0129672Y0158650D01*
X0130005Y0158512D01*
X0129672Y0158374D01*
X0128803Y0157505D01*
X0128333Y0156370D01*
X0128333Y0155142D01*
X0128803Y0154007D01*
X0129672Y0153138D01*
X0130807Y0152668D01*
X0132036Y0152668D01*
X0133171Y0153138D01*
X0134039Y0154007D01*
X0134509Y0155142D01*
X0134509Y0156370D01*
X0134039Y0157505D01*
X0133171Y0158374D01*
X0132838Y0158512D01*
X0133171Y0158650D01*
X0134039Y0159518D01*
X0134509Y0160653D01*
X0134509Y0161882D01*
X0134039Y0163017D01*
X0133171Y0163886D01*
X0132036Y0164356D01*
X0130807Y0164356D01*
X0129672Y0163886D01*
X0128622Y0162579D02*
X0092488Y0162579D01*
X0092777Y0161581D02*
X0128333Y0161581D01*
X0128363Y0160582D02*
X0092748Y0160582D01*
X0092334Y0159584D02*
X0128776Y0159584D01*
X0129828Y0158585D02*
X0123212Y0158585D01*
X0123722Y0158374D02*
X0122587Y0158844D01*
X0121358Y0158844D01*
X0120223Y0158374D01*
X0119354Y0157505D01*
X0118884Y0156370D01*
X0118884Y0155142D01*
X0119354Y0154007D01*
X0120223Y0153138D01*
X0121358Y0152668D01*
X0122587Y0152668D01*
X0123722Y0153138D01*
X0124590Y0154007D01*
X0125061Y0155142D01*
X0125061Y0156370D01*
X0124590Y0157505D01*
X0123722Y0158374D01*
X0124509Y0157587D02*
X0128885Y0157587D01*
X0128423Y0156588D02*
X0124970Y0156588D01*
X0125061Y0155590D02*
X0128333Y0155590D01*
X0128561Y0154591D02*
X0124833Y0154591D01*
X0124177Y0153593D02*
X0129217Y0153593D01*
X0133625Y0153593D02*
X0143975Y0153593D01*
X0143894Y0154591D02*
X0134281Y0154591D01*
X0134509Y0155590D02*
X0143894Y0155590D01*
X0143894Y0156588D02*
X0134419Y0156588D01*
X0133958Y0157587D02*
X0144096Y0157587D01*
X0144364Y0158585D02*
X0133015Y0158585D01*
X0134066Y0159584D02*
X0144632Y0159584D01*
X0145183Y0160582D02*
X0134480Y0160582D01*
X0134509Y0161581D02*
X0145759Y0161581D01*
X0146492Y0162579D02*
X0134221Y0162579D01*
X0133479Y0163578D02*
X0147491Y0163578D01*
X0148703Y0164576D02*
X0019651Y0164576D01*
X0017922Y0165575D02*
X0150433Y0165575D01*
X0144242Y0152594D02*
X0091706Y0152594D01*
X0091893Y0153593D02*
X0109532Y0153593D01*
X0109118Y0154007D02*
X0109987Y0153138D01*
X0111122Y0152668D01*
X0112350Y0152668D01*
X0113486Y0153138D01*
X0114354Y0154007D01*
X0114824Y0155142D01*
X0114824Y0156370D01*
X0114354Y0157505D01*
X0113486Y0158374D01*
X0112350Y0158844D01*
X0111122Y0158844D01*
X0109987Y0158374D01*
X0109118Y0157505D01*
X0108648Y0156370D01*
X0108648Y0155142D01*
X0109118Y0154007D01*
X0108876Y0154591D02*
X0092549Y0154591D01*
X0092777Y0155590D02*
X0108648Y0155590D01*
X0108738Y0156588D02*
X0092687Y0156588D01*
X0092226Y0157587D02*
X0109200Y0157587D01*
X0110497Y0158585D02*
X0091283Y0158585D01*
X0092472Y0151596D02*
X0144510Y0151596D01*
X0144920Y0150597D02*
X0096322Y0150597D01*
X0097439Y0149599D02*
X0145496Y0149599D01*
X0146073Y0148600D02*
X0097852Y0148600D01*
X0097895Y0147602D02*
X0098033Y0147602D01*
X0096837Y0144606D02*
X0062662Y0144606D01*
X0062662Y0143608D02*
X0097212Y0143608D01*
X0098075Y0142609D02*
X0062662Y0142609D01*
X0062662Y0141610D02*
X0165354Y0141610D01*
X0165354Y0140612D02*
X0062662Y0140612D01*
X0062662Y0139613D02*
X0165354Y0139613D01*
X0165354Y0138615D02*
X0062662Y0138615D01*
X0062662Y0137616D02*
X0165354Y0137616D01*
X0165354Y0136618D02*
X0062662Y0136618D01*
X0062662Y0135619D02*
X0165354Y0135619D01*
X0165354Y0134621D02*
X0062662Y0134621D01*
X0062662Y0133622D02*
X0165354Y0133622D01*
X0165354Y0132624D02*
X0062662Y0132624D01*
X0062662Y0131625D02*
X0165354Y0131625D01*
X0165354Y0130627D02*
X0062662Y0130627D01*
X0062662Y0129628D02*
X0165354Y0129628D01*
X0165354Y0128630D02*
X0062662Y0128630D01*
X0062662Y0127631D02*
X0165354Y0127631D01*
X0165354Y0126633D02*
X0062662Y0126633D01*
X0062662Y0125634D02*
X0165354Y0125634D01*
X0165354Y0124636D02*
X0062662Y0124636D01*
X0062662Y0123637D02*
X0165354Y0123637D01*
X0165354Y0122639D02*
X0062662Y0122639D01*
X0062662Y0121640D02*
X0165354Y0121640D01*
X0165354Y0120642D02*
X0062662Y0120642D01*
X0062662Y0119643D02*
X0165354Y0119643D01*
X0165354Y0118645D02*
X0062662Y0118645D01*
X0062662Y0117646D02*
X0165354Y0117646D01*
X0165354Y0116648D02*
X0062662Y0116648D01*
X0062662Y0115649D02*
X0165354Y0115649D01*
X0165354Y0114651D02*
X0062662Y0114651D01*
X0062662Y0113652D02*
X0165354Y0113652D01*
X0165354Y0112654D02*
X0062662Y0112654D01*
X0062662Y0111655D02*
X0165354Y0111655D01*
X0165354Y0110657D02*
X0062662Y0110657D01*
X0062662Y0109658D02*
X0165354Y0109658D01*
X0165354Y0108660D02*
X0062662Y0108660D01*
X0062662Y0107661D02*
X0165354Y0107661D01*
X0165354Y0106663D02*
X0062662Y0106663D01*
X0062662Y0105664D02*
X0165354Y0105664D01*
X0165354Y0104666D02*
X0062662Y0104666D01*
X0062662Y0103667D02*
X0165354Y0103667D01*
X0165354Y0102669D02*
X0062662Y0102669D01*
X0062662Y0101670D02*
X0165354Y0101670D01*
X0165354Y0100672D02*
X0062662Y0100672D01*
X0062662Y0099673D02*
X0165354Y0099673D01*
X0165354Y0098674D02*
X0062662Y0098674D01*
X0062662Y0097676D02*
X0165354Y0097676D01*
X0165354Y0096677D02*
X0062662Y0096677D01*
X0062662Y0095679D02*
X0165354Y0095679D01*
X0165354Y0094680D02*
X0061908Y0094680D01*
X0060910Y0093682D02*
X0165354Y0093682D01*
X0165354Y0092683D02*
X0059911Y0092683D01*
X0058913Y0091685D02*
X0165354Y0091685D01*
X0165354Y0090686D02*
X0057914Y0090686D01*
X0056916Y0089688D02*
X0165354Y0089688D01*
X0165354Y0088689D02*
X0055917Y0088689D01*
X0054919Y0087691D02*
X0165354Y0087691D01*
X0165354Y0086692D02*
X0053920Y0086692D01*
X0052922Y0085694D02*
X0165354Y0085694D01*
X0165354Y0084695D02*
X0051923Y0084695D01*
X0050925Y0083697D02*
X0165354Y0083697D01*
X0165354Y0082698D02*
X0049926Y0082698D01*
X0048928Y0081700D02*
X0165354Y0081700D01*
X0165354Y0080701D02*
X0047929Y0080701D01*
X0046931Y0079703D02*
X0165354Y0079703D01*
X0165354Y0078704D02*
X0045932Y0078704D01*
X0044934Y0077706D02*
X0165354Y0077706D01*
X0165354Y0076707D02*
X0043935Y0076707D01*
X0042937Y0075709D02*
X0165354Y0075709D01*
X0165354Y0074710D02*
X0041938Y0074710D01*
X0040940Y0073712D02*
X0165354Y0073712D01*
X0165354Y0072713D02*
X0039941Y0072713D01*
X0039040Y0071715D02*
X0165354Y0071715D01*
X0165354Y0070716D02*
X0039040Y0070716D01*
X0039040Y0069718D02*
X0165354Y0069718D01*
X0165354Y0068719D02*
X0039040Y0068719D01*
X0039040Y0067721D02*
X0165354Y0067721D01*
X0165354Y0066722D02*
X0039040Y0066722D01*
X0039040Y0065724D02*
X0165354Y0065724D01*
X0165354Y0064725D02*
X0039040Y0064725D01*
X0039040Y0063727D02*
X0165354Y0063727D01*
X0165354Y0062728D02*
X0039040Y0062728D01*
X0039040Y0061730D02*
X0165354Y0061730D01*
X0165354Y0060731D02*
X0039040Y0060731D01*
X0039040Y0059733D02*
X0165354Y0059733D01*
X0165354Y0058734D02*
X0039040Y0058734D01*
X0039040Y0057736D02*
X0165354Y0057736D01*
X0165354Y0056737D02*
X0039040Y0056737D01*
X0039040Y0055739D02*
X0165354Y0055739D01*
X0165354Y0054740D02*
X0039040Y0054740D01*
X0039040Y0053741D02*
X0165354Y0053741D01*
X0165354Y0052743D02*
X0039040Y0052743D01*
X0039040Y0043756D02*
X0047929Y0043756D01*
X0047929Y0042758D02*
X0039040Y0042758D01*
X0039040Y0041759D02*
X0047929Y0041759D01*
X0047929Y0040761D02*
X0039040Y0040761D01*
X0039040Y0039762D02*
X0047929Y0039762D01*
X0047929Y0038764D02*
X0039040Y0038764D01*
X0039040Y0037765D02*
X0047929Y0037765D01*
X0047929Y0036767D02*
X0039040Y0036767D01*
X0039040Y0033771D02*
X0124496Y0033771D01*
X0124496Y0032773D02*
X0039040Y0032773D01*
X0039879Y0031774D02*
X0124496Y0031774D01*
X0124496Y0030776D02*
X0040877Y0030776D01*
X0054650Y0036767D02*
X0054650Y0036767D01*
X0054650Y0037765D02*
X0054650Y0037765D01*
X0054650Y0038764D02*
X0054650Y0038764D01*
X0054650Y0039762D02*
X0054650Y0039762D01*
X0057012Y0040598D02*
X0057012Y0050244D01*
X0059044Y0051744D02*
X0059704Y0051744D01*
X0054980Y0051744D02*
X0054319Y0051744D01*
X0064098Y0045445D02*
X0064098Y0040599D01*
X0064098Y0040599D01*
X0064098Y0045445D01*
X0064098Y0044755D02*
X0064098Y0044755D01*
X0064098Y0043756D02*
X0064098Y0043756D01*
X0064098Y0042758D02*
X0064098Y0042758D01*
X0064098Y0041759D02*
X0064098Y0041759D01*
X0064098Y0040761D02*
X0064098Y0040761D01*
X0064098Y0040598D02*
X0066461Y0040598D01*
X0066461Y0039762D02*
X0066461Y0039762D01*
X0066461Y0038764D02*
X0066461Y0038764D01*
X0066461Y0037765D02*
X0066461Y0037765D01*
X0066461Y0036767D02*
X0066461Y0036767D01*
X0064098Y0036767D02*
X0064098Y0036767D01*
X0064098Y0037765D02*
X0064098Y0037765D01*
X0064098Y0038764D02*
X0064098Y0038764D01*
X0064098Y0039762D02*
X0064098Y0039762D01*
X0068823Y0040598D02*
X0071185Y0040598D01*
X0071185Y0050244D01*
X0073217Y0051744D02*
X0121909Y0051744D01*
X0121215Y0050746D02*
X0073681Y0050746D01*
X0073683Y0049747D02*
X0121050Y0049747D01*
X0121300Y0048749D02*
X0109612Y0048749D01*
X0108349Y0048749D02*
X0100163Y0048749D01*
X0100028Y0048805D02*
X0099035Y0048805D01*
X0098117Y0048424D01*
X0097414Y0047722D01*
X0097034Y0046804D01*
X0097034Y0045810D01*
X0097265Y0045252D01*
X0096232Y0045252D01*
X0096075Y0045343D01*
X0095694Y0045445D01*
X0094807Y0045445D01*
X0093921Y0045445D01*
X0093626Y0045366D01*
X0093331Y0045445D01*
X0092445Y0045445D01*
X0092445Y0040599D01*
X0092445Y0040599D01*
X0092445Y0045445D01*
X0092429Y0045445D01*
X0092580Y0045810D01*
X0092580Y0046804D01*
X0092200Y0047722D01*
X0091497Y0048424D01*
X0090579Y0048805D01*
X0089586Y0048805D01*
X0090714Y0048749D02*
X0098900Y0048749D01*
X0100028Y0048805D02*
X0100946Y0048424D01*
X0101649Y0047722D01*
X0102029Y0046804D01*
X0102029Y0045810D01*
X0101878Y0045445D01*
X0101894Y0045445D01*
X0101894Y0040599D01*
X0101894Y0040761D02*
X0101894Y0040761D01*
X0101894Y0041759D02*
X0101894Y0041759D01*
X0101894Y0042758D02*
X0101894Y0042758D01*
X0101894Y0043756D02*
X0101894Y0043756D01*
X0101894Y0044755D02*
X0101894Y0044755D01*
X0102006Y0045753D02*
X0106506Y0045753D01*
X0106483Y0046752D02*
X0102029Y0046752D01*
X0101620Y0047750D02*
X0106891Y0047750D01*
X0108980Y0046307D02*
X0108980Y0040598D01*
X0106618Y0040598D01*
X0104256Y0040761D02*
X0104256Y0040761D01*
X0104256Y0041759D02*
X0104256Y0041759D01*
X0104256Y0042758D02*
X0104256Y0042758D01*
X0104256Y0043756D02*
X0104256Y0043756D01*
X0104256Y0044755D02*
X0104256Y0044755D01*
X0099531Y0046307D02*
X0099531Y0040598D01*
X0099531Y0037646D01*
X0101894Y0037765D02*
X0101894Y0037765D01*
X0101894Y0038138D02*
X0104256Y0038138D01*
X0104256Y0037765D02*
X0104256Y0037765D01*
X0104256Y0036767D02*
X0104256Y0036767D01*
X0104256Y0038764D02*
X0104256Y0038764D01*
X0104256Y0039762D02*
X0104256Y0039762D01*
X0101894Y0039762D02*
X0101894Y0039762D01*
X0101894Y0038764D02*
X0101894Y0038764D01*
X0101894Y0038138D02*
X0101894Y0031740D01*
X0100713Y0030559D01*
X0094807Y0031740D02*
X0094807Y0038039D01*
X0094807Y0037765D02*
X0094807Y0037765D01*
X0094807Y0036767D02*
X0094807Y0036767D01*
X0094807Y0038764D02*
X0094807Y0038764D01*
X0094807Y0039762D02*
X0094807Y0039762D01*
X0094807Y0040598D02*
X0092445Y0040598D01*
X0092445Y0040598D01*
X0092445Y0031740D01*
X0091264Y0030559D01*
X0086539Y0030559D01*
X0085358Y0029378D01*
X0085358Y0040598D01*
X0082996Y0040598D01*
X0082996Y0031740D01*
X0081815Y0030559D01*
X0077091Y0030559D01*
X0075909Y0031740D01*
X0075909Y0040598D01*
X0075736Y0040598D01*
X0073547Y0040598D01*
X0073547Y0040598D01*
X0073547Y0040599D02*
X0073547Y0045445D01*
X0073547Y0040599D01*
X0073547Y0040599D01*
X0073547Y0040761D02*
X0073547Y0040761D01*
X0073547Y0041759D02*
X0073547Y0041759D01*
X0073547Y0042758D02*
X0073547Y0042758D01*
X0073547Y0043756D02*
X0073547Y0043756D01*
X0073547Y0044755D02*
X0073547Y0044755D01*
X0072992Y0045753D02*
X0075798Y0045753D01*
X0075909Y0045445D02*
X0075909Y0040599D01*
X0075909Y0040599D01*
X0075909Y0045445D01*
X0075909Y0044755D02*
X0075909Y0044755D01*
X0075909Y0043756D02*
X0075909Y0043756D01*
X0075909Y0042758D02*
X0075909Y0042758D01*
X0075909Y0041759D02*
X0075909Y0041759D01*
X0075909Y0040761D02*
X0075909Y0040761D01*
X0075909Y0039762D02*
X0075909Y0039762D01*
X0075909Y0038764D02*
X0075909Y0038764D01*
X0075909Y0037765D02*
X0075909Y0037765D01*
X0075909Y0036767D02*
X0075909Y0036767D01*
X0073547Y0036767D02*
X0073547Y0036767D01*
X0073547Y0037765D02*
X0073547Y0037765D01*
X0073547Y0038764D02*
X0073547Y0038764D01*
X0073547Y0039762D02*
X0073547Y0039762D01*
X0078272Y0040598D02*
X0078272Y0046307D01*
X0080746Y0045753D02*
X0087609Y0045753D01*
X0087585Y0046752D02*
X0080769Y0046752D01*
X0080360Y0047750D02*
X0087994Y0047750D01*
X0090083Y0046307D02*
X0090083Y0040598D01*
X0087720Y0040598D01*
X0085358Y0040599D02*
X0085358Y0040599D01*
X0085358Y0045445D01*
X0085358Y0040599D01*
X0085358Y0040761D02*
X0085358Y0040761D01*
X0085358Y0041759D02*
X0085358Y0041759D01*
X0085358Y0042758D02*
X0085358Y0042758D01*
X0085358Y0043756D02*
X0085358Y0043756D01*
X0085358Y0044755D02*
X0085358Y0044755D01*
X0085358Y0039762D02*
X0085358Y0039762D01*
X0085358Y0038764D02*
X0085358Y0038764D01*
X0085358Y0037765D02*
X0085358Y0037765D01*
X0085358Y0036767D02*
X0085358Y0036767D01*
X0082996Y0036767D02*
X0082996Y0036767D01*
X0082996Y0037765D02*
X0082996Y0037765D01*
X0082996Y0038764D02*
X0082996Y0038764D01*
X0082996Y0039762D02*
X0082996Y0039762D01*
X0080634Y0040598D02*
X0078272Y0040598D01*
X0092445Y0040598D02*
X0094807Y0040598D01*
X0094807Y0040598D01*
X0094807Y0046307D01*
X0094807Y0045445D02*
X0094807Y0040599D01*
X0094807Y0040599D01*
X0094807Y0045445D01*
X0094807Y0044755D02*
X0094807Y0044755D01*
X0094807Y0043756D02*
X0094807Y0043756D01*
X0094807Y0042758D02*
X0094807Y0042758D01*
X0094807Y0041759D02*
X0094807Y0041759D01*
X0094807Y0040761D02*
X0094807Y0040761D01*
X0094807Y0040598D02*
X0094634Y0040598D01*
X0092445Y0040598D01*
X0092445Y0040761D02*
X0092445Y0040761D01*
X0092445Y0041759D02*
X0092445Y0041759D01*
X0092445Y0042758D02*
X0092445Y0042758D01*
X0092445Y0043756D02*
X0092445Y0043756D01*
X0092445Y0044755D02*
X0092445Y0044755D01*
X0092557Y0045753D02*
X0097057Y0045753D01*
X0097034Y0046752D02*
X0092580Y0046752D01*
X0092172Y0047750D02*
X0097443Y0047750D01*
X0097169Y0040598D02*
X0099531Y0040598D01*
X0101894Y0036767D02*
X0101894Y0036767D01*
X0092445Y0036767D02*
X0092445Y0036767D01*
X0092445Y0037765D02*
X0092445Y0037765D01*
X0092445Y0038764D02*
X0092445Y0038764D01*
X0092445Y0039762D02*
X0092445Y0039762D01*
X0090083Y0022788D02*
X0090083Y0022788D01*
X0090083Y0021789D02*
X0090083Y0021789D01*
X0090083Y0020791D02*
X0090083Y0020791D01*
X0090083Y0019792D02*
X0090083Y0019792D01*
X0090083Y0018794D02*
X0090083Y0018794D01*
X0090083Y0018158D02*
X0090083Y0018157D01*
X0090083Y0013311D01*
X0090262Y0013311D01*
X0089947Y0012552D01*
X0089947Y0011558D01*
X0090327Y0010640D01*
X0091030Y0009938D01*
X0090259Y0010805D02*
X0082523Y0010805D01*
X0083070Y0011804D02*
X0089947Y0011804D01*
X0090051Y0012803D02*
X0083131Y0012803D01*
X0082996Y0013801D02*
X0082996Y0013801D01*
X0082996Y0014800D02*
X0082996Y0014800D01*
X0082996Y0015798D02*
X0082996Y0015798D01*
X0082996Y0016797D02*
X0082996Y0016797D01*
X0082996Y0017795D02*
X0082996Y0017795D01*
X0082996Y0018157D02*
X0082996Y0009299D01*
X0080634Y0012449D02*
X0080634Y0018157D01*
X0078272Y0018157D02*
X0078272Y0009299D01*
X0075909Y0012449D02*
X0075909Y0018157D01*
X0082996Y0018158D02*
X0082996Y0018158D01*
X0082996Y0023004D01*
X0083883Y0023004D01*
X0084177Y0022925D01*
X0084472Y0023004D01*
X0085358Y0023004D01*
X0085358Y0018158D01*
X0085358Y0018158D01*
X0085358Y0018157D01*
X0085358Y0013311D01*
X0086245Y0013311D01*
X0086539Y0013390D01*
X0086834Y0013311D01*
X0087720Y0013311D01*
X0087720Y0018157D01*
X0087547Y0018157D01*
X0085358Y0018157D01*
X0085358Y0018158D02*
X0082996Y0018158D01*
X0082996Y0018157D02*
X0085358Y0018157D01*
X0087720Y0018157D01*
X0087720Y0018158D01*
X0087720Y0023004D01*
X0086834Y0023004D01*
X0086539Y0022925D01*
X0086245Y0023004D01*
X0085358Y0023004D01*
X0085358Y0018158D01*
X0087720Y0018158D01*
X0087721Y0018158D01*
X0087721Y0018157D01*
X0089909Y0018157D01*
X0090083Y0018157D01*
X0090083Y0018157D01*
X0090083Y0013311D01*
X0089196Y0013311D01*
X0088902Y0013390D01*
X0088607Y0013311D01*
X0087721Y0013311D01*
X0087721Y0018157D01*
X0087720Y0018157D01*
X0090083Y0018157D01*
X0090083Y0017795D02*
X0090083Y0017795D01*
X0090083Y0016797D02*
X0090083Y0016797D01*
X0090083Y0015798D02*
X0090083Y0015798D01*
X0090083Y0014800D02*
X0090083Y0014800D01*
X0090083Y0013801D02*
X0090083Y0013801D01*
X0092445Y0012055D02*
X0092445Y0018157D01*
X0092445Y0020323D01*
X0092445Y0018157D02*
X0094807Y0018157D01*
X0097169Y0018157D01*
X0099531Y0018157D01*
X0101894Y0018794D02*
X0101894Y0018794D01*
X0101894Y0019792D02*
X0101894Y0019792D01*
X0101894Y0020791D02*
X0101894Y0020791D01*
X0101894Y0021789D02*
X0101894Y0021789D01*
X0101894Y0022788D02*
X0101894Y0022788D01*
X0104256Y0022788D02*
X0104256Y0022788D01*
X0104256Y0021789D02*
X0104256Y0021789D01*
X0104256Y0020791D02*
X0104256Y0020791D01*
X0104256Y0019792D02*
X0104256Y0019792D01*
X0104256Y0018794D02*
X0104256Y0018794D01*
X0104256Y0017795D02*
X0104256Y0017795D01*
X0104256Y0016797D02*
X0104256Y0016797D01*
X0104256Y0015798D02*
X0104256Y0015798D01*
X0104256Y0014800D02*
X0104256Y0014800D01*
X0104256Y0013801D02*
X0104256Y0013801D01*
X0087721Y0013801D02*
X0087720Y0013801D01*
X0087720Y0014800D02*
X0087721Y0014800D01*
X0087720Y0015798D02*
X0087721Y0015798D01*
X0087720Y0016797D02*
X0087721Y0016797D01*
X0087720Y0017795D02*
X0087721Y0017795D01*
X0087720Y0018794D02*
X0087721Y0018794D01*
X0087720Y0019792D02*
X0087721Y0019792D01*
X0087720Y0020791D02*
X0087721Y0020791D01*
X0087720Y0021789D02*
X0087721Y0021789D01*
X0087720Y0022788D02*
X0087721Y0022788D01*
X0085358Y0022788D02*
X0085358Y0022788D01*
X0085358Y0021789D02*
X0085358Y0021789D01*
X0085358Y0020791D02*
X0085358Y0020791D01*
X0085358Y0019792D02*
X0085358Y0019792D01*
X0085358Y0018794D02*
X0085358Y0018794D01*
X0085358Y0018158D02*
X0085358Y0018157D01*
X0085358Y0017795D02*
X0085358Y0017795D01*
X0085358Y0016797D02*
X0085358Y0016797D01*
X0085358Y0015798D02*
X0085358Y0015798D01*
X0085358Y0014800D02*
X0085358Y0014800D01*
X0085358Y0013801D02*
X0085358Y0013801D01*
X0082996Y0018794D02*
X0082996Y0018794D01*
X0082996Y0019792D02*
X0082996Y0019792D01*
X0082996Y0020791D02*
X0082996Y0020791D01*
X0082996Y0021789D02*
X0082996Y0021789D01*
X0082996Y0022788D02*
X0082996Y0022788D01*
X0111069Y0047750D02*
X0122115Y0047750D01*
X0123547Y0049850D02*
X0124335Y0049850D01*
X0126303Y0047882D01*
X0128110Y0047750D02*
X0165354Y0047750D01*
X0165354Y0046752D02*
X0128110Y0046752D01*
X0128110Y0045753D02*
X0165354Y0045753D01*
X0165354Y0044755D02*
X0128110Y0044755D01*
X0128110Y0043756D02*
X0165354Y0043756D01*
X0165354Y0042758D02*
X0128110Y0042758D01*
X0128110Y0041759D02*
X0165354Y0041759D01*
X0165354Y0040761D02*
X0128110Y0040761D01*
X0128110Y0039762D02*
X0165354Y0039762D01*
X0165354Y0038764D02*
X0128110Y0038764D01*
X0128110Y0037765D02*
X0165354Y0037765D01*
X0165354Y0036767D02*
X0128110Y0036767D01*
X0128110Y0035768D02*
X0165354Y0035768D01*
X0165354Y0034770D02*
X0128110Y0034770D01*
X0128110Y0033771D02*
X0165354Y0033771D01*
X0165354Y0032773D02*
X0128110Y0032773D01*
X0128110Y0031774D02*
X0165354Y0031774D01*
X0165354Y0030776D02*
X0128110Y0030776D01*
X0128110Y0029777D02*
X0165354Y0029777D01*
X0165354Y0028779D02*
X0128110Y0028779D01*
X0128110Y0027780D02*
X0165354Y0027780D01*
X0165354Y0026782D02*
X0128110Y0026782D01*
X0128110Y0025783D02*
X0165354Y0025783D01*
X0165354Y0024785D02*
X0128110Y0024785D01*
X0128110Y0023786D02*
X0150335Y0023786D01*
X0148606Y0022788D02*
X0128110Y0022788D01*
X0128110Y0021789D02*
X0147435Y0021789D01*
X0159751Y0023786D02*
X0165354Y0023786D01*
X0165354Y0022788D02*
X0161481Y0022788D01*
X0162652Y0021789D02*
X0165354Y0021789D01*
X0165354Y0020791D02*
X0163651Y0020791D01*
X0164360Y0019792D02*
X0165354Y0019792D01*
X0165354Y0018794D02*
X0164936Y0018794D01*
X0165354Y0048749D02*
X0127992Y0048749D01*
X0126993Y0049747D02*
X0165354Y0049747D01*
X0165354Y0050746D02*
X0125995Y0050746D01*
X0125185Y0051744D02*
X0165354Y0051744D01*
X0165354Y0142609D02*
X0133272Y0142609D01*
X0133171Y0142508D02*
X0134039Y0143377D01*
X0134509Y0144512D01*
X0134509Y0145740D01*
X0134039Y0146875D01*
X0133171Y0147744D01*
X0132036Y0148214D01*
X0130807Y0148214D01*
X0129672Y0147744D01*
X0128803Y0146875D01*
X0128333Y0145740D01*
X0128333Y0144512D01*
X0128803Y0143377D01*
X0129672Y0142508D01*
X0130807Y0142038D01*
X0132036Y0142038D01*
X0133171Y0142508D01*
X0134135Y0143608D02*
X0165354Y0143608D01*
X0165354Y0144606D02*
X0157979Y0144606D01*
X0160442Y0145605D02*
X0165354Y0145605D01*
X0165354Y0146603D02*
X0162052Y0146603D01*
X0163051Y0147602D02*
X0165354Y0147602D01*
X0165354Y0148600D02*
X0164014Y0148600D01*
X0164590Y0149599D02*
X0165354Y0149599D01*
X0165354Y0150597D02*
X0165167Y0150597D01*
X0152107Y0144606D02*
X0134509Y0144606D01*
X0134509Y0145605D02*
X0149645Y0145605D01*
X0148035Y0146603D02*
X0134152Y0146603D01*
X0133313Y0147602D02*
X0147036Y0147602D01*
X0129529Y0147602D02*
X0117565Y0147602D01*
X0117423Y0147744D02*
X0116287Y0148214D01*
X0115059Y0148214D01*
X0113924Y0147744D01*
X0113055Y0146875D01*
X0112585Y0145740D01*
X0112585Y0144512D01*
X0113055Y0143377D01*
X0113924Y0142508D01*
X0115059Y0142038D01*
X0116287Y0142038D01*
X0117423Y0142508D01*
X0118291Y0143377D01*
X0118761Y0144512D01*
X0118761Y0145740D01*
X0118291Y0146875D01*
X0117423Y0147744D01*
X0118404Y0146603D02*
X0128690Y0146603D01*
X0128333Y0145605D02*
X0118761Y0145605D01*
X0118761Y0144606D02*
X0128333Y0144606D01*
X0128708Y0143608D02*
X0118387Y0143608D01*
X0117524Y0142609D02*
X0129571Y0142609D01*
X0119768Y0153593D02*
X0113940Y0153593D01*
X0114596Y0154591D02*
X0119112Y0154591D01*
X0118884Y0155590D02*
X0114824Y0155590D01*
X0114734Y0156588D02*
X0118975Y0156588D01*
X0119436Y0157587D02*
X0114273Y0157587D01*
X0112976Y0158585D02*
X0120733Y0158585D01*
X0113781Y0147602D02*
X0101817Y0147602D01*
X0102656Y0146603D02*
X0112942Y0146603D01*
X0112585Y0145605D02*
X0103013Y0145605D01*
X0103013Y0144606D02*
X0112585Y0144606D01*
X0112960Y0143608D02*
X0102639Y0143608D01*
X0101776Y0142609D02*
X0113823Y0142609D01*
X0093292Y0150597D02*
X0092777Y0150597D01*
X0091719Y0147602D02*
X0091379Y0147602D01*
X0091994Y0146603D02*
X0062729Y0146603D01*
X0062662Y0145605D02*
X0092717Y0145605D01*
X0087999Y0147602D02*
X0063053Y0147602D01*
X0062961Y0148600D02*
X0087027Y0148600D01*
X0010375Y0144606D02*
X0003000Y0144606D01*
X0003000Y0145605D02*
X0007913Y0145605D01*
X0006302Y0146603D02*
X0003000Y0146603D01*
X0003000Y0147602D02*
X0005304Y0147602D01*
X0004341Y0148600D02*
X0003000Y0148600D01*
X0003000Y0149599D02*
X0003764Y0149599D01*
X0003188Y0150597D02*
X0003000Y0150597D01*
X0003000Y0023786D02*
X0008603Y0023786D01*
X0006873Y0022788D02*
X0003000Y0022788D01*
X0003000Y0021789D02*
X0005702Y0021789D01*
X0004704Y0020791D02*
X0003000Y0020791D01*
X0003000Y0019792D02*
X0003994Y0019792D01*
X0003418Y0018794D02*
X0003000Y0018794D01*
D13*
X0049925Y0009299D03*
X0052287Y0012449D03*
X0054650Y0009299D03*
X0057012Y0012449D03*
X0059374Y0009299D03*
X0061736Y0012449D03*
X0064098Y0009299D03*
X0066461Y0012449D03*
X0068823Y0009299D03*
X0071185Y0012449D03*
X0073547Y0009299D03*
X0075909Y0012449D03*
X0078272Y0009299D03*
X0080634Y0012449D03*
X0082996Y0009299D03*
X0092445Y0012055D03*
X0101894Y0012055D03*
X0118429Y0011465D03*
X0121972Y0038039D03*
X0113705Y0046307D03*
X0108980Y0046307D03*
X0104256Y0046307D03*
X0099531Y0046307D03*
X0094807Y0046307D03*
X0090083Y0046307D03*
X0082996Y0046307D03*
X0078272Y0046307D03*
X0073547Y0046307D03*
X0071185Y0050244D03*
X0064098Y0046307D03*
X0061736Y0050244D03*
X0059374Y0046307D03*
X0057012Y0050244D03*
X0054650Y0046307D03*
X0052287Y0050244D03*
X0049925Y0046307D03*
X0085358Y0029378D03*
X0123547Y0049850D03*
X0060555Y0147882D03*
X0044807Y0147488D03*
X0029059Y0147488D03*
D14*
X0029059Y0013630D01*
X0038902Y0003787D01*
X0053075Y0003787D01*
X0054650Y0005362D01*
X0054650Y0009299D01*
X0049925Y0009299D02*
X0041264Y0009299D01*
X0032996Y0017567D01*
X0032996Y0075047D01*
X0044807Y0086858D01*
X0044807Y0147488D01*
X0060555Y0147882D02*
X0060555Y0096307D01*
X0036933Y0072685D01*
X0036933Y0031740D01*
X0040476Y0028197D01*
D15*
X0013311Y0013630D03*
X0013311Y0155362D03*
X0155043Y0155362D03*
X0155043Y0013630D03*
D16*
X0131421Y0145126D03*
X0131421Y0155756D03*
X0131421Y0161268D03*
X0121972Y0155756D03*
X0111736Y0155756D03*
X0115673Y0145126D03*
X0099925Y0145126D03*
X0094807Y0147882D03*
X0089689Y0150244D03*
X0089689Y0155756D03*
X0089689Y0161268D03*
M02*
