G75*
%MOIN*%
%OFA0B0*%
%FSLAX25Y25*%
%IPPOS*%
%LPD*%
%AMOC8*
5,1,8,0,0,1.08239X$1,22.5*
%
%ADD10C,0.01600*%
%ADD11C,0.00000*%
%ADD12R,0.05000X0.02500*%
%ADD13C,0.00256*%
%ADD14R,0.02500X0.05000*%
%ADD15OC8,0.07600*%
%ADD16R,0.10000X0.05000*%
%ADD17R,0.05000X0.10000*%
%ADD18R,0.03562X0.03562*%
D10*
X0005000Y0005000D02*
X0201850Y0005000D01*
X0201850Y0201850D01*
X0005000Y0201850D01*
X0005000Y0005000D01*
X0009921Y0091614D02*
X0025669Y0091614D01*
X0042363Y0096574D02*
X0047323Y0091614D01*
X0057165Y0091614D01*
X0054545Y0096574D02*
X0094529Y0096574D01*
X0094567Y0096535D01*
X0097520Y0099488D01*
X0097520Y0103425D01*
X0104371Y0110277D01*
X0152305Y0110277D01*
X0149685Y0115236D02*
X0159528Y0115236D01*
X0164487Y0110277D01*
X0199550Y0110277D01*
X0196929Y0115236D02*
X0184134Y0115236D01*
X0115236Y0057165D02*
X0115236Y0048307D01*
X0110277Y0043347D01*
X0110277Y0007301D01*
X0115236Y0009921D02*
X0115236Y0022717D01*
X0110277Y0054545D02*
X0110277Y0090668D01*
X0097520Y0103425D01*
X0097520Y0112283D01*
X0096574Y0113229D01*
X0096574Y0152305D01*
X0091614Y0149685D02*
X0091614Y0147717D01*
X0091614Y0149685D02*
X0091614Y0159528D01*
X0096574Y0164487D01*
X0096574Y0199550D01*
X0091614Y0196929D02*
X0091614Y0185118D01*
X0042363Y0096574D02*
X0007301Y0096574D01*
D11*
X0008937Y0028622D02*
X0008939Y0028747D01*
X0008945Y0028872D01*
X0008955Y0028996D01*
X0008969Y0029120D01*
X0008986Y0029244D01*
X0009008Y0029367D01*
X0009034Y0029489D01*
X0009063Y0029611D01*
X0009096Y0029731D01*
X0009134Y0029850D01*
X0009174Y0029969D01*
X0009219Y0030085D01*
X0009267Y0030200D01*
X0009319Y0030314D01*
X0009375Y0030426D01*
X0009434Y0030536D01*
X0009496Y0030644D01*
X0009562Y0030751D01*
X0009631Y0030855D01*
X0009704Y0030956D01*
X0009779Y0031056D01*
X0009858Y0031153D01*
X0009940Y0031247D01*
X0010025Y0031339D01*
X0010112Y0031428D01*
X0010203Y0031514D01*
X0010296Y0031597D01*
X0010392Y0031678D01*
X0010490Y0031755D01*
X0010590Y0031829D01*
X0010693Y0031900D01*
X0010798Y0031967D01*
X0010906Y0032032D01*
X0011015Y0032092D01*
X0011126Y0032150D01*
X0011239Y0032203D01*
X0011353Y0032253D01*
X0011469Y0032300D01*
X0011586Y0032342D01*
X0011705Y0032381D01*
X0011825Y0032417D01*
X0011946Y0032448D01*
X0012068Y0032476D01*
X0012190Y0032499D01*
X0012314Y0032519D01*
X0012438Y0032535D01*
X0012562Y0032547D01*
X0012687Y0032555D01*
X0012812Y0032559D01*
X0012936Y0032559D01*
X0013061Y0032555D01*
X0013186Y0032547D01*
X0013310Y0032535D01*
X0013434Y0032519D01*
X0013558Y0032499D01*
X0013680Y0032476D01*
X0013802Y0032448D01*
X0013923Y0032417D01*
X0014043Y0032381D01*
X0014162Y0032342D01*
X0014279Y0032300D01*
X0014395Y0032253D01*
X0014509Y0032203D01*
X0014622Y0032150D01*
X0014733Y0032092D01*
X0014843Y0032032D01*
X0014950Y0031967D01*
X0015055Y0031900D01*
X0015158Y0031829D01*
X0015258Y0031755D01*
X0015356Y0031678D01*
X0015452Y0031597D01*
X0015545Y0031514D01*
X0015636Y0031428D01*
X0015723Y0031339D01*
X0015808Y0031247D01*
X0015890Y0031153D01*
X0015969Y0031056D01*
X0016044Y0030956D01*
X0016117Y0030855D01*
X0016186Y0030751D01*
X0016252Y0030644D01*
X0016314Y0030536D01*
X0016373Y0030426D01*
X0016429Y0030314D01*
X0016481Y0030200D01*
X0016529Y0030085D01*
X0016574Y0029969D01*
X0016614Y0029850D01*
X0016652Y0029731D01*
X0016685Y0029611D01*
X0016714Y0029489D01*
X0016740Y0029367D01*
X0016762Y0029244D01*
X0016779Y0029120D01*
X0016793Y0028996D01*
X0016803Y0028872D01*
X0016809Y0028747D01*
X0016811Y0028622D01*
X0016809Y0028497D01*
X0016803Y0028372D01*
X0016793Y0028248D01*
X0016779Y0028124D01*
X0016762Y0028000D01*
X0016740Y0027877D01*
X0016714Y0027755D01*
X0016685Y0027633D01*
X0016652Y0027513D01*
X0016614Y0027394D01*
X0016574Y0027275D01*
X0016529Y0027159D01*
X0016481Y0027044D01*
X0016429Y0026930D01*
X0016373Y0026818D01*
X0016314Y0026708D01*
X0016252Y0026600D01*
X0016186Y0026493D01*
X0016117Y0026389D01*
X0016044Y0026288D01*
X0015969Y0026188D01*
X0015890Y0026091D01*
X0015808Y0025997D01*
X0015723Y0025905D01*
X0015636Y0025816D01*
X0015545Y0025730D01*
X0015452Y0025647D01*
X0015356Y0025566D01*
X0015258Y0025489D01*
X0015158Y0025415D01*
X0015055Y0025344D01*
X0014950Y0025277D01*
X0014842Y0025212D01*
X0014733Y0025152D01*
X0014622Y0025094D01*
X0014509Y0025041D01*
X0014395Y0024991D01*
X0014279Y0024944D01*
X0014162Y0024902D01*
X0014043Y0024863D01*
X0013923Y0024827D01*
X0013802Y0024796D01*
X0013680Y0024768D01*
X0013558Y0024745D01*
X0013434Y0024725D01*
X0013310Y0024709D01*
X0013186Y0024697D01*
X0013061Y0024689D01*
X0012936Y0024685D01*
X0012812Y0024685D01*
X0012687Y0024689D01*
X0012562Y0024697D01*
X0012438Y0024709D01*
X0012314Y0024725D01*
X0012190Y0024745D01*
X0012068Y0024768D01*
X0011946Y0024796D01*
X0011825Y0024827D01*
X0011705Y0024863D01*
X0011586Y0024902D01*
X0011469Y0024944D01*
X0011353Y0024991D01*
X0011239Y0025041D01*
X0011126Y0025094D01*
X0011015Y0025152D01*
X0010905Y0025212D01*
X0010798Y0025277D01*
X0010693Y0025344D01*
X0010590Y0025415D01*
X0010490Y0025489D01*
X0010392Y0025566D01*
X0010296Y0025647D01*
X0010203Y0025730D01*
X0010112Y0025816D01*
X0010025Y0025905D01*
X0009940Y0025997D01*
X0009858Y0026091D01*
X0009779Y0026188D01*
X0009704Y0026288D01*
X0009631Y0026389D01*
X0009562Y0026493D01*
X0009496Y0026600D01*
X0009434Y0026708D01*
X0009375Y0026818D01*
X0009319Y0026930D01*
X0009267Y0027044D01*
X0009219Y0027159D01*
X0009174Y0027275D01*
X0009134Y0027394D01*
X0009096Y0027513D01*
X0009063Y0027633D01*
X0009034Y0027755D01*
X0009008Y0027877D01*
X0008986Y0028000D01*
X0008969Y0028124D01*
X0008955Y0028248D01*
X0008945Y0028372D01*
X0008939Y0028497D01*
X0008937Y0028622D01*
X0020748Y0192992D02*
X0020750Y0193117D01*
X0020756Y0193242D01*
X0020766Y0193366D01*
X0020780Y0193490D01*
X0020797Y0193614D01*
X0020819Y0193737D01*
X0020845Y0193859D01*
X0020874Y0193981D01*
X0020907Y0194101D01*
X0020945Y0194220D01*
X0020985Y0194339D01*
X0021030Y0194455D01*
X0021078Y0194570D01*
X0021130Y0194684D01*
X0021186Y0194796D01*
X0021245Y0194906D01*
X0021307Y0195014D01*
X0021373Y0195121D01*
X0021442Y0195225D01*
X0021515Y0195326D01*
X0021590Y0195426D01*
X0021669Y0195523D01*
X0021751Y0195617D01*
X0021836Y0195709D01*
X0021923Y0195798D01*
X0022014Y0195884D01*
X0022107Y0195967D01*
X0022203Y0196048D01*
X0022301Y0196125D01*
X0022401Y0196199D01*
X0022504Y0196270D01*
X0022609Y0196337D01*
X0022717Y0196402D01*
X0022826Y0196462D01*
X0022937Y0196520D01*
X0023050Y0196573D01*
X0023164Y0196623D01*
X0023280Y0196670D01*
X0023397Y0196712D01*
X0023516Y0196751D01*
X0023636Y0196787D01*
X0023757Y0196818D01*
X0023879Y0196846D01*
X0024001Y0196869D01*
X0024125Y0196889D01*
X0024249Y0196905D01*
X0024373Y0196917D01*
X0024498Y0196925D01*
X0024623Y0196929D01*
X0024747Y0196929D01*
X0024872Y0196925D01*
X0024997Y0196917D01*
X0025121Y0196905D01*
X0025245Y0196889D01*
X0025369Y0196869D01*
X0025491Y0196846D01*
X0025613Y0196818D01*
X0025734Y0196787D01*
X0025854Y0196751D01*
X0025973Y0196712D01*
X0026090Y0196670D01*
X0026206Y0196623D01*
X0026320Y0196573D01*
X0026433Y0196520D01*
X0026544Y0196462D01*
X0026654Y0196402D01*
X0026761Y0196337D01*
X0026866Y0196270D01*
X0026969Y0196199D01*
X0027069Y0196125D01*
X0027167Y0196048D01*
X0027263Y0195967D01*
X0027356Y0195884D01*
X0027447Y0195798D01*
X0027534Y0195709D01*
X0027619Y0195617D01*
X0027701Y0195523D01*
X0027780Y0195426D01*
X0027855Y0195326D01*
X0027928Y0195225D01*
X0027997Y0195121D01*
X0028063Y0195014D01*
X0028125Y0194906D01*
X0028184Y0194796D01*
X0028240Y0194684D01*
X0028292Y0194570D01*
X0028340Y0194455D01*
X0028385Y0194339D01*
X0028425Y0194220D01*
X0028463Y0194101D01*
X0028496Y0193981D01*
X0028525Y0193859D01*
X0028551Y0193737D01*
X0028573Y0193614D01*
X0028590Y0193490D01*
X0028604Y0193366D01*
X0028614Y0193242D01*
X0028620Y0193117D01*
X0028622Y0192992D01*
X0028620Y0192867D01*
X0028614Y0192742D01*
X0028604Y0192618D01*
X0028590Y0192494D01*
X0028573Y0192370D01*
X0028551Y0192247D01*
X0028525Y0192125D01*
X0028496Y0192003D01*
X0028463Y0191883D01*
X0028425Y0191764D01*
X0028385Y0191645D01*
X0028340Y0191529D01*
X0028292Y0191414D01*
X0028240Y0191300D01*
X0028184Y0191188D01*
X0028125Y0191078D01*
X0028063Y0190970D01*
X0027997Y0190863D01*
X0027928Y0190759D01*
X0027855Y0190658D01*
X0027780Y0190558D01*
X0027701Y0190461D01*
X0027619Y0190367D01*
X0027534Y0190275D01*
X0027447Y0190186D01*
X0027356Y0190100D01*
X0027263Y0190017D01*
X0027167Y0189936D01*
X0027069Y0189859D01*
X0026969Y0189785D01*
X0026866Y0189714D01*
X0026761Y0189647D01*
X0026653Y0189582D01*
X0026544Y0189522D01*
X0026433Y0189464D01*
X0026320Y0189411D01*
X0026206Y0189361D01*
X0026090Y0189314D01*
X0025973Y0189272D01*
X0025854Y0189233D01*
X0025734Y0189197D01*
X0025613Y0189166D01*
X0025491Y0189138D01*
X0025369Y0189115D01*
X0025245Y0189095D01*
X0025121Y0189079D01*
X0024997Y0189067D01*
X0024872Y0189059D01*
X0024747Y0189055D01*
X0024623Y0189055D01*
X0024498Y0189059D01*
X0024373Y0189067D01*
X0024249Y0189079D01*
X0024125Y0189095D01*
X0024001Y0189115D01*
X0023879Y0189138D01*
X0023757Y0189166D01*
X0023636Y0189197D01*
X0023516Y0189233D01*
X0023397Y0189272D01*
X0023280Y0189314D01*
X0023164Y0189361D01*
X0023050Y0189411D01*
X0022937Y0189464D01*
X0022826Y0189522D01*
X0022716Y0189582D01*
X0022609Y0189647D01*
X0022504Y0189714D01*
X0022401Y0189785D01*
X0022301Y0189859D01*
X0022203Y0189936D01*
X0022107Y0190017D01*
X0022014Y0190100D01*
X0021923Y0190186D01*
X0021836Y0190275D01*
X0021751Y0190367D01*
X0021669Y0190461D01*
X0021590Y0190558D01*
X0021515Y0190658D01*
X0021442Y0190759D01*
X0021373Y0190863D01*
X0021307Y0190970D01*
X0021245Y0191078D01*
X0021186Y0191188D01*
X0021130Y0191300D01*
X0021078Y0191414D01*
X0021030Y0191529D01*
X0020985Y0191645D01*
X0020945Y0191764D01*
X0020907Y0191883D01*
X0020874Y0192003D01*
X0020845Y0192125D01*
X0020819Y0192247D01*
X0020797Y0192370D01*
X0020780Y0192494D01*
X0020766Y0192618D01*
X0020756Y0192742D01*
X0020750Y0192867D01*
X0020748Y0192992D01*
X0190039Y0178228D02*
X0190041Y0178353D01*
X0190047Y0178478D01*
X0190057Y0178602D01*
X0190071Y0178726D01*
X0190088Y0178850D01*
X0190110Y0178973D01*
X0190136Y0179095D01*
X0190165Y0179217D01*
X0190198Y0179337D01*
X0190236Y0179456D01*
X0190276Y0179575D01*
X0190321Y0179691D01*
X0190369Y0179806D01*
X0190421Y0179920D01*
X0190477Y0180032D01*
X0190536Y0180142D01*
X0190598Y0180250D01*
X0190664Y0180357D01*
X0190733Y0180461D01*
X0190806Y0180562D01*
X0190881Y0180662D01*
X0190960Y0180759D01*
X0191042Y0180853D01*
X0191127Y0180945D01*
X0191214Y0181034D01*
X0191305Y0181120D01*
X0191398Y0181203D01*
X0191494Y0181284D01*
X0191592Y0181361D01*
X0191692Y0181435D01*
X0191795Y0181506D01*
X0191900Y0181573D01*
X0192008Y0181638D01*
X0192117Y0181698D01*
X0192228Y0181756D01*
X0192341Y0181809D01*
X0192455Y0181859D01*
X0192571Y0181906D01*
X0192688Y0181948D01*
X0192807Y0181987D01*
X0192927Y0182023D01*
X0193048Y0182054D01*
X0193170Y0182082D01*
X0193292Y0182105D01*
X0193416Y0182125D01*
X0193540Y0182141D01*
X0193664Y0182153D01*
X0193789Y0182161D01*
X0193914Y0182165D01*
X0194038Y0182165D01*
X0194163Y0182161D01*
X0194288Y0182153D01*
X0194412Y0182141D01*
X0194536Y0182125D01*
X0194660Y0182105D01*
X0194782Y0182082D01*
X0194904Y0182054D01*
X0195025Y0182023D01*
X0195145Y0181987D01*
X0195264Y0181948D01*
X0195381Y0181906D01*
X0195497Y0181859D01*
X0195611Y0181809D01*
X0195724Y0181756D01*
X0195835Y0181698D01*
X0195945Y0181638D01*
X0196052Y0181573D01*
X0196157Y0181506D01*
X0196260Y0181435D01*
X0196360Y0181361D01*
X0196458Y0181284D01*
X0196554Y0181203D01*
X0196647Y0181120D01*
X0196738Y0181034D01*
X0196825Y0180945D01*
X0196910Y0180853D01*
X0196992Y0180759D01*
X0197071Y0180662D01*
X0197146Y0180562D01*
X0197219Y0180461D01*
X0197288Y0180357D01*
X0197354Y0180250D01*
X0197416Y0180142D01*
X0197475Y0180032D01*
X0197531Y0179920D01*
X0197583Y0179806D01*
X0197631Y0179691D01*
X0197676Y0179575D01*
X0197716Y0179456D01*
X0197754Y0179337D01*
X0197787Y0179217D01*
X0197816Y0179095D01*
X0197842Y0178973D01*
X0197864Y0178850D01*
X0197881Y0178726D01*
X0197895Y0178602D01*
X0197905Y0178478D01*
X0197911Y0178353D01*
X0197913Y0178228D01*
X0197911Y0178103D01*
X0197905Y0177978D01*
X0197895Y0177854D01*
X0197881Y0177730D01*
X0197864Y0177606D01*
X0197842Y0177483D01*
X0197816Y0177361D01*
X0197787Y0177239D01*
X0197754Y0177119D01*
X0197716Y0177000D01*
X0197676Y0176881D01*
X0197631Y0176765D01*
X0197583Y0176650D01*
X0197531Y0176536D01*
X0197475Y0176424D01*
X0197416Y0176314D01*
X0197354Y0176206D01*
X0197288Y0176099D01*
X0197219Y0175995D01*
X0197146Y0175894D01*
X0197071Y0175794D01*
X0196992Y0175697D01*
X0196910Y0175603D01*
X0196825Y0175511D01*
X0196738Y0175422D01*
X0196647Y0175336D01*
X0196554Y0175253D01*
X0196458Y0175172D01*
X0196360Y0175095D01*
X0196260Y0175021D01*
X0196157Y0174950D01*
X0196052Y0174883D01*
X0195944Y0174818D01*
X0195835Y0174758D01*
X0195724Y0174700D01*
X0195611Y0174647D01*
X0195497Y0174597D01*
X0195381Y0174550D01*
X0195264Y0174508D01*
X0195145Y0174469D01*
X0195025Y0174433D01*
X0194904Y0174402D01*
X0194782Y0174374D01*
X0194660Y0174351D01*
X0194536Y0174331D01*
X0194412Y0174315D01*
X0194288Y0174303D01*
X0194163Y0174295D01*
X0194038Y0174291D01*
X0193914Y0174291D01*
X0193789Y0174295D01*
X0193664Y0174303D01*
X0193540Y0174315D01*
X0193416Y0174331D01*
X0193292Y0174351D01*
X0193170Y0174374D01*
X0193048Y0174402D01*
X0192927Y0174433D01*
X0192807Y0174469D01*
X0192688Y0174508D01*
X0192571Y0174550D01*
X0192455Y0174597D01*
X0192341Y0174647D01*
X0192228Y0174700D01*
X0192117Y0174758D01*
X0192007Y0174818D01*
X0191900Y0174883D01*
X0191795Y0174950D01*
X0191692Y0175021D01*
X0191592Y0175095D01*
X0191494Y0175172D01*
X0191398Y0175253D01*
X0191305Y0175336D01*
X0191214Y0175422D01*
X0191127Y0175511D01*
X0191042Y0175603D01*
X0190960Y0175697D01*
X0190881Y0175794D01*
X0190806Y0175894D01*
X0190733Y0175995D01*
X0190664Y0176099D01*
X0190598Y0176206D01*
X0190536Y0176314D01*
X0190477Y0176424D01*
X0190421Y0176536D01*
X0190369Y0176650D01*
X0190321Y0176765D01*
X0190276Y0176881D01*
X0190236Y0177000D01*
X0190198Y0177119D01*
X0190165Y0177239D01*
X0190136Y0177361D01*
X0190110Y0177483D01*
X0190088Y0177606D01*
X0190071Y0177730D01*
X0190057Y0177854D01*
X0190047Y0177978D01*
X0190041Y0178103D01*
X0190039Y0178228D01*
X0174291Y0012874D02*
X0174293Y0012999D01*
X0174299Y0013124D01*
X0174309Y0013248D01*
X0174323Y0013372D01*
X0174340Y0013496D01*
X0174362Y0013619D01*
X0174388Y0013741D01*
X0174417Y0013863D01*
X0174450Y0013983D01*
X0174488Y0014102D01*
X0174528Y0014221D01*
X0174573Y0014337D01*
X0174621Y0014452D01*
X0174673Y0014566D01*
X0174729Y0014678D01*
X0174788Y0014788D01*
X0174850Y0014896D01*
X0174916Y0015003D01*
X0174985Y0015107D01*
X0175058Y0015208D01*
X0175133Y0015308D01*
X0175212Y0015405D01*
X0175294Y0015499D01*
X0175379Y0015591D01*
X0175466Y0015680D01*
X0175557Y0015766D01*
X0175650Y0015849D01*
X0175746Y0015930D01*
X0175844Y0016007D01*
X0175944Y0016081D01*
X0176047Y0016152D01*
X0176152Y0016219D01*
X0176260Y0016284D01*
X0176369Y0016344D01*
X0176480Y0016402D01*
X0176593Y0016455D01*
X0176707Y0016505D01*
X0176823Y0016552D01*
X0176940Y0016594D01*
X0177059Y0016633D01*
X0177179Y0016669D01*
X0177300Y0016700D01*
X0177422Y0016728D01*
X0177544Y0016751D01*
X0177668Y0016771D01*
X0177792Y0016787D01*
X0177916Y0016799D01*
X0178041Y0016807D01*
X0178166Y0016811D01*
X0178290Y0016811D01*
X0178415Y0016807D01*
X0178540Y0016799D01*
X0178664Y0016787D01*
X0178788Y0016771D01*
X0178912Y0016751D01*
X0179034Y0016728D01*
X0179156Y0016700D01*
X0179277Y0016669D01*
X0179397Y0016633D01*
X0179516Y0016594D01*
X0179633Y0016552D01*
X0179749Y0016505D01*
X0179863Y0016455D01*
X0179976Y0016402D01*
X0180087Y0016344D01*
X0180197Y0016284D01*
X0180304Y0016219D01*
X0180409Y0016152D01*
X0180512Y0016081D01*
X0180612Y0016007D01*
X0180710Y0015930D01*
X0180806Y0015849D01*
X0180899Y0015766D01*
X0180990Y0015680D01*
X0181077Y0015591D01*
X0181162Y0015499D01*
X0181244Y0015405D01*
X0181323Y0015308D01*
X0181398Y0015208D01*
X0181471Y0015107D01*
X0181540Y0015003D01*
X0181606Y0014896D01*
X0181668Y0014788D01*
X0181727Y0014678D01*
X0181783Y0014566D01*
X0181835Y0014452D01*
X0181883Y0014337D01*
X0181928Y0014221D01*
X0181968Y0014102D01*
X0182006Y0013983D01*
X0182039Y0013863D01*
X0182068Y0013741D01*
X0182094Y0013619D01*
X0182116Y0013496D01*
X0182133Y0013372D01*
X0182147Y0013248D01*
X0182157Y0013124D01*
X0182163Y0012999D01*
X0182165Y0012874D01*
X0182163Y0012749D01*
X0182157Y0012624D01*
X0182147Y0012500D01*
X0182133Y0012376D01*
X0182116Y0012252D01*
X0182094Y0012129D01*
X0182068Y0012007D01*
X0182039Y0011885D01*
X0182006Y0011765D01*
X0181968Y0011646D01*
X0181928Y0011527D01*
X0181883Y0011411D01*
X0181835Y0011296D01*
X0181783Y0011182D01*
X0181727Y0011070D01*
X0181668Y0010960D01*
X0181606Y0010852D01*
X0181540Y0010745D01*
X0181471Y0010641D01*
X0181398Y0010540D01*
X0181323Y0010440D01*
X0181244Y0010343D01*
X0181162Y0010249D01*
X0181077Y0010157D01*
X0180990Y0010068D01*
X0180899Y0009982D01*
X0180806Y0009899D01*
X0180710Y0009818D01*
X0180612Y0009741D01*
X0180512Y0009667D01*
X0180409Y0009596D01*
X0180304Y0009529D01*
X0180196Y0009464D01*
X0180087Y0009404D01*
X0179976Y0009346D01*
X0179863Y0009293D01*
X0179749Y0009243D01*
X0179633Y0009196D01*
X0179516Y0009154D01*
X0179397Y0009115D01*
X0179277Y0009079D01*
X0179156Y0009048D01*
X0179034Y0009020D01*
X0178912Y0008997D01*
X0178788Y0008977D01*
X0178664Y0008961D01*
X0178540Y0008949D01*
X0178415Y0008941D01*
X0178290Y0008937D01*
X0178166Y0008937D01*
X0178041Y0008941D01*
X0177916Y0008949D01*
X0177792Y0008961D01*
X0177668Y0008977D01*
X0177544Y0008997D01*
X0177422Y0009020D01*
X0177300Y0009048D01*
X0177179Y0009079D01*
X0177059Y0009115D01*
X0176940Y0009154D01*
X0176823Y0009196D01*
X0176707Y0009243D01*
X0176593Y0009293D01*
X0176480Y0009346D01*
X0176369Y0009404D01*
X0176259Y0009464D01*
X0176152Y0009529D01*
X0176047Y0009596D01*
X0175944Y0009667D01*
X0175844Y0009741D01*
X0175746Y0009818D01*
X0175650Y0009899D01*
X0175557Y0009982D01*
X0175466Y0010068D01*
X0175379Y0010157D01*
X0175294Y0010249D01*
X0175212Y0010343D01*
X0175133Y0010440D01*
X0175058Y0010540D01*
X0174985Y0010641D01*
X0174916Y0010745D01*
X0174850Y0010852D01*
X0174788Y0010960D01*
X0174729Y0011070D01*
X0174673Y0011182D01*
X0174621Y0011296D01*
X0174573Y0011411D01*
X0174528Y0011527D01*
X0174488Y0011646D01*
X0174450Y0011765D01*
X0174417Y0011885D01*
X0174388Y0012007D01*
X0174362Y0012129D01*
X0174340Y0012252D01*
X0174323Y0012376D01*
X0174309Y0012500D01*
X0174299Y0012624D01*
X0174293Y0012749D01*
X0174291Y0012874D01*
D12*
X0152305Y0110277D03*
X0199550Y0110277D03*
X0054545Y0096574D03*
X0007301Y0096574D03*
D13*
X0005205Y0004744D02*
X0028724Y0004744D01*
X0111555Y0004744D01*
X0111555Y0044114D01*
X0098261Y0044114D01*
X0098261Y0043603D01*
X0091614Y0043603D01*
X0091614Y0043092D01*
X0087012Y0043092D01*
X0087012Y0042581D01*
X0082922Y0042581D01*
X0082922Y0042069D01*
X0079854Y0042069D01*
X0079854Y0041558D01*
X0076786Y0041558D01*
X0076786Y0041047D01*
X0074230Y0041047D01*
X0074230Y0040535D01*
X0071673Y0040535D01*
X0071673Y0040024D01*
X0069117Y0040024D01*
X0069117Y0039513D01*
X0067072Y0039513D01*
X0067072Y0039001D01*
X0064515Y0039001D01*
X0064515Y0038490D01*
X0062470Y0038490D01*
X0062470Y0037979D01*
X0060425Y0037979D01*
X0060425Y0037468D01*
X0058891Y0037468D01*
X0058891Y0036956D01*
X0057357Y0036956D01*
X0057357Y0036445D01*
X0055312Y0036445D01*
X0055312Y0035934D01*
X0053267Y0035934D01*
X0053267Y0035422D01*
X0052244Y0035422D01*
X0052244Y0034911D01*
X0050199Y0034911D01*
X0050199Y0034400D01*
X0048665Y0034400D01*
X0048665Y0033888D01*
X0047131Y0033888D01*
X0047131Y0033377D01*
X0045597Y0033377D01*
X0045597Y0032866D01*
X0044063Y0032866D01*
X0044063Y0032355D01*
X0043041Y0032355D01*
X0043041Y0031843D01*
X0041507Y0031843D01*
X0041507Y0031332D01*
X0039973Y0031332D01*
X0039973Y0030821D01*
X0038950Y0030821D01*
X0038950Y0030309D01*
X0037416Y0030309D01*
X0037416Y0029798D01*
X0035883Y0029798D01*
X0035883Y0029287D01*
X0034349Y0029287D01*
X0034349Y0028775D01*
X0033326Y0028775D01*
X0033326Y0028264D01*
X0032303Y0028264D01*
X0032303Y0027753D01*
X0030770Y0027753D01*
X0030770Y0027242D01*
X0029747Y0027242D01*
X0029747Y0026730D01*
X0028724Y0026730D01*
X0028724Y0026219D01*
X0027702Y0026219D01*
X0027702Y0025708D01*
X0026679Y0025708D01*
X0026679Y0025196D01*
X0025657Y0025196D01*
X0025657Y0024685D01*
X0024634Y0024685D01*
X0024634Y0024174D01*
X0024123Y0024174D01*
X0024123Y0023662D01*
X0023611Y0023662D01*
X0023611Y0023151D01*
X0023100Y0023151D01*
X0023100Y0022640D01*
X0022589Y0022640D01*
X0022589Y0022129D01*
X0022077Y0022129D01*
X0022077Y0021617D01*
X0021566Y0021617D01*
X0021566Y0021106D01*
X0021055Y0021106D01*
X0021055Y0020595D01*
X0020544Y0020595D01*
X0020544Y0020083D01*
X0020032Y0020083D01*
X0020032Y0019572D01*
X0019521Y0019572D01*
X0019521Y0019061D01*
X0019010Y0019061D01*
X0019010Y0018549D01*
X0018498Y0018549D01*
X0018498Y0018038D01*
X0017987Y0018038D01*
X0017987Y0017527D01*
X0017476Y0017527D01*
X0017476Y0017016D01*
X0016964Y0017016D01*
X0016964Y0016504D01*
X0016453Y0016504D01*
X0016453Y0015993D01*
X0015942Y0015993D01*
X0015942Y0015482D01*
X0015431Y0015482D01*
X0015431Y0014970D01*
X0014919Y0014970D01*
X0014919Y0014459D01*
X0014408Y0014459D01*
X0014408Y0013948D01*
X0013897Y0013948D01*
X0013897Y0013436D01*
X0013385Y0013436D01*
X0013385Y0012925D01*
X0012874Y0012925D01*
X0012874Y0012414D01*
X0012363Y0012414D01*
X0012363Y0011903D01*
X0011851Y0011903D01*
X0011851Y0011391D01*
X0011340Y0011391D01*
X0011340Y0010880D01*
X0010829Y0010880D01*
X0010829Y0010369D01*
X0010318Y0010369D01*
X0010318Y0009857D01*
X0009806Y0009857D01*
X0009806Y0009346D01*
X0009295Y0009346D01*
X0009295Y0008835D01*
X0008784Y0008835D01*
X0008784Y0008323D01*
X0008272Y0008323D01*
X0008272Y0007812D01*
X0007761Y0007812D01*
X0007761Y0007301D01*
X0007250Y0007301D01*
X0007250Y0006790D01*
X0006738Y0006790D01*
X0006738Y0006278D01*
X0006227Y0006278D01*
X0006227Y0005767D01*
X0005716Y0005767D01*
X0005716Y0005256D01*
X0005205Y0005256D01*
X0005205Y0004744D01*
X0005205Y0004746D02*
X0111555Y0004746D01*
X0111555Y0005000D02*
X0005205Y0005000D01*
X0005205Y0005254D02*
X0111555Y0005254D01*
X0111555Y0005508D02*
X0005716Y0005508D01*
X0005716Y0005762D02*
X0111555Y0005762D01*
X0111555Y0006017D02*
X0006227Y0006017D01*
X0006227Y0006271D02*
X0111555Y0006271D01*
X0111555Y0006525D02*
X0006738Y0006525D01*
X0006738Y0006779D02*
X0111555Y0006779D01*
X0111555Y0007033D02*
X0007250Y0007033D01*
X0007250Y0007287D02*
X0111555Y0007287D01*
X0111555Y0007542D02*
X0007761Y0007542D01*
X0007761Y0007796D02*
X0111555Y0007796D01*
X0111555Y0008050D02*
X0008272Y0008050D01*
X0008272Y0008304D02*
X0111555Y0008304D01*
X0111555Y0008558D02*
X0008784Y0008558D01*
X0008784Y0008812D02*
X0111555Y0008812D01*
X0111555Y0009067D02*
X0009295Y0009067D01*
X0009295Y0009321D02*
X0111555Y0009321D01*
X0111555Y0009575D02*
X0009806Y0009575D01*
X0009806Y0009829D02*
X0111555Y0009829D01*
X0111555Y0010083D02*
X0010318Y0010083D01*
X0010318Y0010337D02*
X0111555Y0010337D01*
X0111555Y0010591D02*
X0010829Y0010591D01*
X0010829Y0010846D02*
X0111555Y0010846D01*
X0111555Y0011100D02*
X0011340Y0011100D01*
X0011340Y0011354D02*
X0111555Y0011354D01*
X0111555Y0011608D02*
X0011851Y0011608D01*
X0011851Y0011862D02*
X0111555Y0011862D01*
X0111555Y0012116D02*
X0012363Y0012116D01*
X0012363Y0012371D02*
X0111555Y0012371D01*
X0111555Y0012625D02*
X0012874Y0012625D01*
X0012874Y0012879D02*
X0111555Y0012879D01*
X0111555Y0013133D02*
X0013385Y0013133D01*
X0013385Y0013387D02*
X0111555Y0013387D01*
X0111555Y0013641D02*
X0013897Y0013641D01*
X0013897Y0013896D02*
X0111555Y0013896D01*
X0111555Y0014150D02*
X0014408Y0014150D01*
X0014408Y0014404D02*
X0111555Y0014404D01*
X0111555Y0014658D02*
X0014919Y0014658D01*
X0014919Y0014912D02*
X0111555Y0014912D01*
X0111555Y0015166D02*
X0015431Y0015166D01*
X0015431Y0015420D02*
X0111555Y0015420D01*
X0111555Y0015675D02*
X0015942Y0015675D01*
X0015942Y0015929D02*
X0111555Y0015929D01*
X0111555Y0016183D02*
X0016453Y0016183D01*
X0016453Y0016437D02*
X0111555Y0016437D01*
X0111555Y0016691D02*
X0016964Y0016691D01*
X0016964Y0016945D02*
X0111555Y0016945D01*
X0111555Y0017200D02*
X0017476Y0017200D01*
X0017476Y0017454D02*
X0111555Y0017454D01*
X0111555Y0017708D02*
X0017987Y0017708D01*
X0017987Y0017962D02*
X0111555Y0017962D01*
X0111555Y0018216D02*
X0018498Y0018216D01*
X0018498Y0018470D02*
X0111555Y0018470D01*
X0111555Y0018725D02*
X0019010Y0018725D01*
X0019010Y0018979D02*
X0111555Y0018979D01*
X0111555Y0019233D02*
X0019521Y0019233D01*
X0019521Y0019487D02*
X0111555Y0019487D01*
X0111555Y0019741D02*
X0020032Y0019741D01*
X0020032Y0019995D02*
X0111555Y0019995D01*
X0111555Y0020250D02*
X0020544Y0020250D01*
X0020544Y0020504D02*
X0111555Y0020504D01*
X0111555Y0020758D02*
X0021055Y0020758D01*
X0021055Y0021012D02*
X0111555Y0021012D01*
X0111555Y0021266D02*
X0021566Y0021266D01*
X0021566Y0021520D02*
X0111555Y0021520D01*
X0111555Y0021774D02*
X0022077Y0021774D01*
X0022077Y0022029D02*
X0111555Y0022029D01*
X0111555Y0022283D02*
X0022589Y0022283D01*
X0022589Y0022537D02*
X0111555Y0022537D01*
X0111555Y0022791D02*
X0023100Y0022791D01*
X0023100Y0023045D02*
X0111555Y0023045D01*
X0111555Y0023299D02*
X0023611Y0023299D01*
X0023611Y0023554D02*
X0111555Y0023554D01*
X0111555Y0023808D02*
X0024123Y0023808D01*
X0024123Y0024062D02*
X0111555Y0024062D01*
X0111555Y0024316D02*
X0024634Y0024316D01*
X0024634Y0024570D02*
X0111555Y0024570D01*
X0111555Y0024824D02*
X0025657Y0024824D01*
X0025657Y0025079D02*
X0111555Y0025079D01*
X0111555Y0025333D02*
X0026679Y0025333D01*
X0026679Y0025587D02*
X0111555Y0025587D01*
X0111555Y0025841D02*
X0027702Y0025841D01*
X0027702Y0026095D02*
X0111555Y0026095D01*
X0111555Y0026349D02*
X0028724Y0026349D01*
X0028724Y0026603D02*
X0111555Y0026603D01*
X0111555Y0026858D02*
X0029747Y0026858D01*
X0029747Y0027112D02*
X0111555Y0027112D01*
X0111555Y0027366D02*
X0030770Y0027366D01*
X0030770Y0027620D02*
X0111555Y0027620D01*
X0111555Y0027874D02*
X0032303Y0027874D01*
X0032303Y0028128D02*
X0111555Y0028128D01*
X0111555Y0028383D02*
X0033326Y0028383D01*
X0033326Y0028637D02*
X0111555Y0028637D01*
X0111555Y0028891D02*
X0034349Y0028891D01*
X0034349Y0029145D02*
X0111555Y0029145D01*
X0111555Y0029399D02*
X0035883Y0029399D01*
X0035883Y0029653D02*
X0111555Y0029653D01*
X0111555Y0029908D02*
X0037416Y0029908D01*
X0037416Y0030162D02*
X0111555Y0030162D01*
X0111555Y0030416D02*
X0038950Y0030416D01*
X0038950Y0030670D02*
X0111555Y0030670D01*
X0111555Y0030924D02*
X0039973Y0030924D01*
X0039973Y0031178D02*
X0111555Y0031178D01*
X0111555Y0031432D02*
X0041507Y0031432D01*
X0041507Y0031687D02*
X0111555Y0031687D01*
X0111555Y0031941D02*
X0043041Y0031941D01*
X0043041Y0032195D02*
X0111555Y0032195D01*
X0111555Y0032449D02*
X0044063Y0032449D01*
X0044063Y0032703D02*
X0111555Y0032703D01*
X0111555Y0032957D02*
X0045597Y0032957D01*
X0045597Y0033212D02*
X0111555Y0033212D01*
X0111555Y0033466D02*
X0047131Y0033466D01*
X0047131Y0033720D02*
X0111555Y0033720D01*
X0111555Y0033974D02*
X0048665Y0033974D01*
X0048665Y0034228D02*
X0111555Y0034228D01*
X0111555Y0034482D02*
X0050199Y0034482D01*
X0050199Y0034737D02*
X0111555Y0034737D01*
X0111555Y0034991D02*
X0052244Y0034991D01*
X0052244Y0035245D02*
X0111555Y0035245D01*
X0111555Y0035499D02*
X0053267Y0035499D01*
X0053267Y0035753D02*
X0111555Y0035753D01*
X0111555Y0036007D02*
X0055312Y0036007D01*
X0055312Y0036261D02*
X0111555Y0036261D01*
X0111555Y0036516D02*
X0057357Y0036516D01*
X0057357Y0036770D02*
X0111555Y0036770D01*
X0111555Y0037024D02*
X0058891Y0037024D01*
X0058891Y0037278D02*
X0111555Y0037278D01*
X0111555Y0037532D02*
X0060425Y0037532D01*
X0060425Y0037786D02*
X0111555Y0037786D01*
X0111555Y0038041D02*
X0062470Y0038041D01*
X0062470Y0038295D02*
X0111555Y0038295D01*
X0111555Y0038549D02*
X0064515Y0038549D01*
X0064515Y0038803D02*
X0111555Y0038803D01*
X0111555Y0039057D02*
X0067072Y0039057D01*
X0067072Y0039311D02*
X0111555Y0039311D01*
X0111555Y0039566D02*
X0069117Y0039566D01*
X0069117Y0039820D02*
X0111555Y0039820D01*
X0111555Y0040074D02*
X0071673Y0040074D01*
X0071673Y0040328D02*
X0111555Y0040328D01*
X0111555Y0040582D02*
X0074230Y0040582D01*
X0074230Y0040836D02*
X0111555Y0040836D01*
X0111555Y0041091D02*
X0076786Y0041091D01*
X0076786Y0041345D02*
X0111555Y0041345D01*
X0111555Y0041599D02*
X0079854Y0041599D01*
X0079854Y0041853D02*
X0111555Y0041853D01*
X0111555Y0042107D02*
X0082922Y0042107D01*
X0082922Y0042361D02*
X0111555Y0042361D01*
X0111555Y0042615D02*
X0087012Y0042615D01*
X0087012Y0042870D02*
X0111555Y0042870D01*
X0111555Y0043124D02*
X0091614Y0043124D01*
X0091614Y0043378D02*
X0111555Y0043378D01*
X0111555Y0043632D02*
X0098261Y0043632D01*
X0098261Y0043886D02*
X0111555Y0043886D01*
X0111555Y0051988D02*
X0028724Y0051988D01*
X0005205Y0051988D01*
X0005205Y0052500D01*
X0005716Y0052500D01*
X0005716Y0053011D01*
X0006227Y0053011D01*
X0006227Y0053522D01*
X0006738Y0053522D01*
X0006738Y0054034D01*
X0007250Y0054034D01*
X0007250Y0054545D01*
X0007761Y0054545D01*
X0007761Y0055056D01*
X0008272Y0055056D01*
X0008272Y0055568D01*
X0008784Y0055568D01*
X0008784Y0056079D01*
X0009295Y0056079D01*
X0009295Y0056590D01*
X0009806Y0056590D01*
X0009806Y0057101D01*
X0010318Y0057101D01*
X0010318Y0057613D01*
X0010829Y0057613D01*
X0010829Y0058124D01*
X0011340Y0058124D01*
X0011340Y0058635D01*
X0011851Y0058635D01*
X0011851Y0059147D01*
X0012363Y0059147D01*
X0012363Y0059658D01*
X0012874Y0059658D01*
X0012874Y0060169D01*
X0013385Y0060169D01*
X0013385Y0060681D01*
X0013897Y0060681D01*
X0013897Y0061192D01*
X0014408Y0061192D01*
X0014408Y0061703D01*
X0014919Y0061703D01*
X0014919Y0062214D01*
X0015431Y0062214D01*
X0015431Y0062726D01*
X0015942Y0062726D01*
X0015942Y0063237D01*
X0016453Y0063237D01*
X0016453Y0063748D01*
X0016964Y0063748D01*
X0016964Y0064260D01*
X0017476Y0064260D01*
X0017476Y0064771D01*
X0017987Y0064771D01*
X0017987Y0065282D01*
X0018498Y0065282D01*
X0018498Y0065794D01*
X0019010Y0065794D01*
X0019010Y0066305D01*
X0019521Y0066305D01*
X0019521Y0066816D01*
X0020032Y0066816D01*
X0020032Y0067327D01*
X0020544Y0067327D01*
X0020544Y0067839D01*
X0021055Y0067839D01*
X0021055Y0068350D01*
X0021566Y0068350D01*
X0021566Y0068861D01*
X0022077Y0068861D01*
X0022077Y0069373D01*
X0022589Y0069373D01*
X0022589Y0069884D01*
X0023100Y0069884D01*
X0023100Y0070395D01*
X0023611Y0070395D01*
X0023611Y0070907D01*
X0024123Y0070907D01*
X0024123Y0071418D01*
X0024634Y0071418D01*
X0024634Y0071929D01*
X0025657Y0071929D01*
X0025657Y0072440D01*
X0026679Y0072440D01*
X0026679Y0072952D01*
X0027702Y0072952D01*
X0027702Y0073463D01*
X0028724Y0073463D01*
X0028724Y0073974D01*
X0029747Y0073974D01*
X0029747Y0074486D01*
X0030770Y0074486D01*
X0030770Y0074997D01*
X0032303Y0074997D01*
X0032303Y0075508D01*
X0033326Y0075508D01*
X0033326Y0076020D01*
X0034349Y0076020D01*
X0034349Y0076531D01*
X0035883Y0076531D01*
X0035883Y0077042D01*
X0037416Y0077042D01*
X0037416Y0077553D01*
X0038950Y0077553D01*
X0038950Y0078065D01*
X0039973Y0078065D01*
X0039973Y0078576D01*
X0041507Y0078576D01*
X0041507Y0079087D01*
X0043041Y0079087D01*
X0043041Y0079599D01*
X0044063Y0079599D01*
X0044063Y0080110D01*
X0045597Y0080110D01*
X0045597Y0080621D01*
X0047131Y0080621D01*
X0047131Y0081133D01*
X0048665Y0081133D01*
X0048665Y0081644D01*
X0050199Y0081644D01*
X0050199Y0082155D01*
X0052244Y0082155D01*
X0052244Y0082666D01*
X0053267Y0082666D01*
X0053267Y0083178D01*
X0055312Y0083178D01*
X0055312Y0083689D01*
X0057357Y0083689D01*
X0057357Y0084200D01*
X0058891Y0084200D01*
X0058891Y0084712D01*
X0060425Y0084712D01*
X0060425Y0085223D01*
X0062470Y0085223D01*
X0062470Y0085734D01*
X0064515Y0085734D01*
X0064515Y0086246D01*
X0067072Y0086246D01*
X0067072Y0086757D01*
X0069117Y0086757D01*
X0069117Y0087268D01*
X0071673Y0087268D01*
X0071673Y0087779D01*
X0074230Y0087779D01*
X0074230Y0088291D01*
X0076786Y0088291D01*
X0076786Y0088802D01*
X0079854Y0088802D01*
X0079854Y0089313D01*
X0082922Y0089313D01*
X0082922Y0089825D01*
X0087012Y0089825D01*
X0087012Y0090336D01*
X0091614Y0090336D01*
X0091614Y0090847D01*
X0098261Y0090847D01*
X0098261Y0091359D01*
X0111555Y0091359D01*
X0111555Y0051988D01*
X0111555Y0052019D02*
X0005205Y0052019D01*
X0005205Y0052273D02*
X0111555Y0052273D01*
X0111555Y0052528D02*
X0005716Y0052528D01*
X0005716Y0052782D02*
X0111555Y0052782D01*
X0111555Y0053036D02*
X0006227Y0053036D01*
X0006227Y0053290D02*
X0111555Y0053290D01*
X0111555Y0053544D02*
X0006738Y0053544D01*
X0006738Y0053798D02*
X0111555Y0053798D01*
X0111555Y0054053D02*
X0007250Y0054053D01*
X0007250Y0054307D02*
X0111555Y0054307D01*
X0111555Y0054561D02*
X0007761Y0054561D01*
X0007761Y0054815D02*
X0111555Y0054815D01*
X0111555Y0055069D02*
X0008272Y0055069D01*
X0008272Y0055323D02*
X0111555Y0055323D01*
X0111555Y0055578D02*
X0008784Y0055578D01*
X0008784Y0055832D02*
X0111555Y0055832D01*
X0111555Y0056086D02*
X0009295Y0056086D01*
X0009295Y0056340D02*
X0111555Y0056340D01*
X0111555Y0056594D02*
X0009806Y0056594D01*
X0009806Y0056848D02*
X0111555Y0056848D01*
X0111555Y0057102D02*
X0010318Y0057102D01*
X0010318Y0057357D02*
X0111555Y0057357D01*
X0111555Y0057611D02*
X0010318Y0057611D01*
X0010829Y0057865D02*
X0111555Y0057865D01*
X0111555Y0058119D02*
X0010829Y0058119D01*
X0011340Y0058373D02*
X0111555Y0058373D01*
X0111555Y0058627D02*
X0011340Y0058627D01*
X0011851Y0058882D02*
X0111555Y0058882D01*
X0111555Y0059136D02*
X0011851Y0059136D01*
X0012363Y0059390D02*
X0111555Y0059390D01*
X0111555Y0059644D02*
X0012363Y0059644D01*
X0012874Y0059898D02*
X0111555Y0059898D01*
X0111555Y0060152D02*
X0012874Y0060152D01*
X0013385Y0060407D02*
X0111555Y0060407D01*
X0111555Y0060661D02*
X0013385Y0060661D01*
X0013897Y0060915D02*
X0111555Y0060915D01*
X0111555Y0061169D02*
X0013897Y0061169D01*
X0014408Y0061423D02*
X0111555Y0061423D01*
X0111555Y0061677D02*
X0014408Y0061677D01*
X0014919Y0061931D02*
X0111555Y0061931D01*
X0111555Y0062186D02*
X0014919Y0062186D01*
X0015431Y0062440D02*
X0111555Y0062440D01*
X0111555Y0062694D02*
X0015431Y0062694D01*
X0015942Y0062948D02*
X0111555Y0062948D01*
X0111555Y0063202D02*
X0015942Y0063202D01*
X0016453Y0063456D02*
X0111555Y0063456D01*
X0111555Y0063711D02*
X0016453Y0063711D01*
X0016964Y0063965D02*
X0111555Y0063965D01*
X0111555Y0064219D02*
X0016964Y0064219D01*
X0017476Y0064473D02*
X0111555Y0064473D01*
X0111555Y0064727D02*
X0017476Y0064727D01*
X0017987Y0064981D02*
X0111555Y0064981D01*
X0111555Y0065236D02*
X0017987Y0065236D01*
X0018498Y0065490D02*
X0111555Y0065490D01*
X0111555Y0065744D02*
X0018498Y0065744D01*
X0019010Y0065998D02*
X0111555Y0065998D01*
X0111555Y0066252D02*
X0019010Y0066252D01*
X0019521Y0066506D02*
X0111555Y0066506D01*
X0111555Y0066761D02*
X0019521Y0066761D01*
X0020032Y0067015D02*
X0111555Y0067015D01*
X0111555Y0067269D02*
X0020032Y0067269D01*
X0020544Y0067523D02*
X0111555Y0067523D01*
X0111555Y0067777D02*
X0020544Y0067777D01*
X0021055Y0068031D02*
X0111555Y0068031D01*
X0111555Y0068285D02*
X0021055Y0068285D01*
X0021566Y0068540D02*
X0111555Y0068540D01*
X0111555Y0068794D02*
X0021566Y0068794D01*
X0022077Y0069048D02*
X0111555Y0069048D01*
X0111555Y0069302D02*
X0022077Y0069302D01*
X0022589Y0069556D02*
X0111555Y0069556D01*
X0111555Y0069810D02*
X0022589Y0069810D01*
X0023100Y0070065D02*
X0111555Y0070065D01*
X0111555Y0070319D02*
X0023100Y0070319D01*
X0023611Y0070573D02*
X0111555Y0070573D01*
X0111555Y0070827D02*
X0023611Y0070827D01*
X0024123Y0071081D02*
X0111555Y0071081D01*
X0111555Y0071335D02*
X0024123Y0071335D01*
X0024634Y0071590D02*
X0111555Y0071590D01*
X0111555Y0071844D02*
X0024634Y0071844D01*
X0025657Y0072098D02*
X0111555Y0072098D01*
X0111555Y0072352D02*
X0025657Y0072352D01*
X0026679Y0072606D02*
X0111555Y0072606D01*
X0111555Y0072860D02*
X0026679Y0072860D01*
X0027702Y0073114D02*
X0111555Y0073114D01*
X0111555Y0073369D02*
X0027702Y0073369D01*
X0028724Y0073623D02*
X0111555Y0073623D01*
X0111555Y0073877D02*
X0028724Y0073877D01*
X0029747Y0074131D02*
X0111555Y0074131D01*
X0111555Y0074385D02*
X0029747Y0074385D01*
X0030770Y0074639D02*
X0111555Y0074639D01*
X0111555Y0074894D02*
X0030770Y0074894D01*
X0032303Y0075148D02*
X0111555Y0075148D01*
X0111555Y0075402D02*
X0032303Y0075402D01*
X0033326Y0075656D02*
X0111555Y0075656D01*
X0111555Y0075910D02*
X0033326Y0075910D01*
X0034349Y0076164D02*
X0111555Y0076164D01*
X0111555Y0076419D02*
X0034349Y0076419D01*
X0035883Y0076673D02*
X0111555Y0076673D01*
X0111555Y0076927D02*
X0035883Y0076927D01*
X0037416Y0077181D02*
X0111555Y0077181D01*
X0111555Y0077435D02*
X0037416Y0077435D01*
X0038950Y0077689D02*
X0111555Y0077689D01*
X0111555Y0077943D02*
X0038950Y0077943D01*
X0039973Y0078198D02*
X0111555Y0078198D01*
X0111555Y0078452D02*
X0039973Y0078452D01*
X0041507Y0078706D02*
X0111555Y0078706D01*
X0111555Y0078960D02*
X0041507Y0078960D01*
X0043041Y0079214D02*
X0111555Y0079214D01*
X0111555Y0079468D02*
X0043041Y0079468D01*
X0044063Y0079723D02*
X0111555Y0079723D01*
X0111555Y0079977D02*
X0044063Y0079977D01*
X0045597Y0080231D02*
X0111555Y0080231D01*
X0111555Y0080485D02*
X0045597Y0080485D01*
X0047131Y0080739D02*
X0111555Y0080739D01*
X0111555Y0080993D02*
X0047131Y0080993D01*
X0048665Y0081248D02*
X0111555Y0081248D01*
X0111555Y0081502D02*
X0048665Y0081502D01*
X0050199Y0081756D02*
X0111555Y0081756D01*
X0111555Y0082010D02*
X0050199Y0082010D01*
X0052244Y0082264D02*
X0111555Y0082264D01*
X0111555Y0082518D02*
X0052244Y0082518D01*
X0053267Y0082772D02*
X0111555Y0082772D01*
X0111555Y0083027D02*
X0053267Y0083027D01*
X0055312Y0083281D02*
X0111555Y0083281D01*
X0111555Y0083535D02*
X0055312Y0083535D01*
X0057357Y0083789D02*
X0111555Y0083789D01*
X0111555Y0084043D02*
X0057357Y0084043D01*
X0058891Y0084297D02*
X0111555Y0084297D01*
X0111555Y0084552D02*
X0058891Y0084552D01*
X0060425Y0084806D02*
X0111555Y0084806D01*
X0111555Y0085060D02*
X0060425Y0085060D01*
X0062470Y0085314D02*
X0111555Y0085314D01*
X0111555Y0085568D02*
X0062470Y0085568D01*
X0064515Y0085822D02*
X0111555Y0085822D01*
X0111555Y0086077D02*
X0064515Y0086077D01*
X0067072Y0086331D02*
X0111555Y0086331D01*
X0111555Y0086585D02*
X0067072Y0086585D01*
X0069117Y0086839D02*
X0111555Y0086839D01*
X0111555Y0087093D02*
X0069117Y0087093D01*
X0071673Y0087347D02*
X0111555Y0087347D01*
X0111555Y0087602D02*
X0071673Y0087602D01*
X0074230Y0087856D02*
X0111555Y0087856D01*
X0111555Y0088110D02*
X0074230Y0088110D01*
X0076786Y0088364D02*
X0111555Y0088364D01*
X0111555Y0088618D02*
X0076786Y0088618D01*
X0079854Y0088872D02*
X0111555Y0088872D01*
X0111555Y0089126D02*
X0079854Y0089126D01*
X0082922Y0089381D02*
X0111555Y0089381D01*
X0111555Y0089635D02*
X0082922Y0089635D01*
X0087012Y0089889D02*
X0111555Y0089889D01*
X0111555Y0090143D02*
X0087012Y0090143D01*
X0091614Y0090397D02*
X0111555Y0090397D01*
X0111555Y0090651D02*
X0091614Y0090651D01*
X0091359Y0095296D02*
X0091359Y0108589D01*
X0090847Y0108589D01*
X0090847Y0115236D01*
X0090336Y0115236D01*
X0090336Y0119838D01*
X0089825Y0119838D01*
X0089825Y0123928D01*
X0089313Y0123928D01*
X0089313Y0126996D01*
X0051988Y0126996D01*
X0051988Y0126742D02*
X0089313Y0126742D01*
X0089313Y0126996D02*
X0088802Y0126996D01*
X0088802Y0130064D01*
X0088291Y0130064D01*
X0088291Y0132620D01*
X0087779Y0132620D01*
X0087779Y0135177D01*
X0087268Y0135177D01*
X0087268Y0137733D01*
X0086757Y0137733D01*
X0086757Y0139779D01*
X0086246Y0139779D01*
X0086246Y0142335D01*
X0085734Y0142335D01*
X0085734Y0144380D01*
X0085223Y0144380D01*
X0085223Y0146425D01*
X0084712Y0146425D01*
X0084712Y0147959D01*
X0084200Y0147959D01*
X0084200Y0149493D01*
X0083689Y0149493D01*
X0083689Y0151538D01*
X0083178Y0151538D01*
X0083178Y0153584D01*
X0082666Y0153584D01*
X0082666Y0154606D01*
X0082155Y0154606D01*
X0082155Y0156651D01*
X0081644Y0156651D01*
X0081644Y0158185D01*
X0081133Y0158185D01*
X0081133Y0159719D01*
X0080621Y0159719D01*
X0080621Y0161253D01*
X0080110Y0161253D01*
X0080110Y0162787D01*
X0079599Y0162787D01*
X0079599Y0163810D01*
X0079087Y0163810D01*
X0079087Y0165344D01*
X0078576Y0165344D01*
X0078576Y0166877D01*
X0078065Y0166877D01*
X0078065Y0167900D01*
X0077553Y0167900D01*
X0077553Y0169434D01*
X0077042Y0169434D01*
X0077042Y0170968D01*
X0076531Y0170968D01*
X0076531Y0172502D01*
X0076020Y0172502D01*
X0076020Y0173524D01*
X0075508Y0173524D01*
X0075508Y0174547D01*
X0074997Y0174547D01*
X0074997Y0176081D01*
X0074486Y0176081D01*
X0074486Y0177103D01*
X0073974Y0177103D01*
X0073974Y0178126D01*
X0073463Y0178126D01*
X0073463Y0179149D01*
X0072952Y0179149D01*
X0072952Y0180171D01*
X0072440Y0180171D01*
X0072440Y0181194D01*
X0071929Y0181194D01*
X0071929Y0182216D01*
X0071418Y0182216D01*
X0071418Y0182728D01*
X0070907Y0182728D01*
X0070907Y0183239D01*
X0070395Y0183239D01*
X0070395Y0183750D01*
X0069884Y0183750D01*
X0069884Y0184262D01*
X0069373Y0184262D01*
X0069373Y0184773D01*
X0068861Y0184773D01*
X0068861Y0185284D01*
X0068350Y0185284D01*
X0068350Y0185796D01*
X0067839Y0185796D01*
X0067839Y0186307D01*
X0067327Y0186307D01*
X0067327Y0186818D01*
X0066816Y0186818D01*
X0066816Y0187329D01*
X0066305Y0187329D01*
X0066305Y0187841D01*
X0065794Y0187841D01*
X0065794Y0188352D01*
X0065282Y0188352D01*
X0065282Y0188863D01*
X0064771Y0188863D01*
X0064771Y0189375D01*
X0064260Y0189375D01*
X0064260Y0189886D01*
X0063748Y0189886D01*
X0063748Y0190397D01*
X0063237Y0190397D01*
X0063237Y0190909D01*
X0062726Y0190909D01*
X0062726Y0191420D01*
X0062214Y0191420D01*
X0062214Y0191931D01*
X0061703Y0191931D01*
X0061703Y0192442D01*
X0061192Y0192442D01*
X0061192Y0192954D01*
X0060681Y0192954D01*
X0060681Y0193465D01*
X0060169Y0193465D01*
X0060169Y0193976D01*
X0059658Y0193976D01*
X0059658Y0194488D01*
X0059147Y0194488D01*
X0059147Y0194999D01*
X0058635Y0194999D01*
X0058635Y0195510D01*
X0058124Y0195510D01*
X0058124Y0196022D01*
X0057613Y0196022D01*
X0057613Y0196533D01*
X0057101Y0196533D01*
X0057101Y0197044D01*
X0056590Y0197044D01*
X0056590Y0197555D01*
X0056079Y0197555D01*
X0056079Y0198067D01*
X0055568Y0198067D01*
X0055568Y0198578D01*
X0055056Y0198578D01*
X0055056Y0199089D01*
X0054545Y0199089D01*
X0054545Y0199601D01*
X0054034Y0199601D01*
X0054034Y0200112D01*
X0053522Y0200112D01*
X0053522Y0200623D01*
X0053011Y0200623D01*
X0053011Y0201135D01*
X0052500Y0201135D01*
X0052500Y0201646D01*
X0051988Y0201646D01*
X0051988Y0178126D01*
X0051988Y0095296D01*
X0091359Y0095296D01*
X0091359Y0095480D02*
X0051988Y0095480D01*
X0051988Y0095735D02*
X0091359Y0095735D01*
X0091359Y0095989D02*
X0051988Y0095989D01*
X0051988Y0096243D02*
X0091359Y0096243D01*
X0091359Y0096497D02*
X0051988Y0096497D01*
X0051988Y0096751D02*
X0091359Y0096751D01*
X0091359Y0097005D02*
X0051988Y0097005D01*
X0051988Y0097260D02*
X0091359Y0097260D01*
X0091359Y0097514D02*
X0051988Y0097514D01*
X0051988Y0097768D02*
X0091359Y0097768D01*
X0091359Y0098022D02*
X0051988Y0098022D01*
X0051988Y0098276D02*
X0091359Y0098276D01*
X0091359Y0098530D02*
X0051988Y0098530D01*
X0051988Y0098784D02*
X0091359Y0098784D01*
X0091359Y0099039D02*
X0051988Y0099039D01*
X0051988Y0099293D02*
X0091359Y0099293D01*
X0091359Y0099547D02*
X0051988Y0099547D01*
X0051988Y0099801D02*
X0091359Y0099801D01*
X0091359Y0100055D02*
X0051988Y0100055D01*
X0051988Y0100309D02*
X0091359Y0100309D01*
X0091359Y0100564D02*
X0051988Y0100564D01*
X0051988Y0100818D02*
X0091359Y0100818D01*
X0091359Y0101072D02*
X0051988Y0101072D01*
X0051988Y0101326D02*
X0091359Y0101326D01*
X0091359Y0101580D02*
X0051988Y0101580D01*
X0051988Y0101834D02*
X0091359Y0101834D01*
X0091359Y0102089D02*
X0051988Y0102089D01*
X0051988Y0102343D02*
X0091359Y0102343D01*
X0091359Y0102597D02*
X0051988Y0102597D01*
X0051988Y0102851D02*
X0091359Y0102851D01*
X0091359Y0103105D02*
X0051988Y0103105D01*
X0051988Y0103359D02*
X0091359Y0103359D01*
X0091359Y0103613D02*
X0051988Y0103613D01*
X0051988Y0103868D02*
X0091359Y0103868D01*
X0091359Y0104122D02*
X0051988Y0104122D01*
X0051988Y0104376D02*
X0091359Y0104376D01*
X0091359Y0104630D02*
X0051988Y0104630D01*
X0051988Y0104884D02*
X0091359Y0104884D01*
X0091359Y0105138D02*
X0051988Y0105138D01*
X0051988Y0105393D02*
X0091359Y0105393D01*
X0091359Y0105647D02*
X0051988Y0105647D01*
X0051988Y0105901D02*
X0091359Y0105901D01*
X0091359Y0106155D02*
X0051988Y0106155D01*
X0051988Y0106409D02*
X0091359Y0106409D01*
X0091359Y0106663D02*
X0051988Y0106663D01*
X0051988Y0106918D02*
X0091359Y0106918D01*
X0091359Y0107172D02*
X0051988Y0107172D01*
X0051988Y0107426D02*
X0091359Y0107426D01*
X0091359Y0107680D02*
X0051988Y0107680D01*
X0051988Y0107934D02*
X0091359Y0107934D01*
X0091359Y0108188D02*
X0051988Y0108188D01*
X0051988Y0108442D02*
X0091359Y0108442D01*
X0090847Y0108697D02*
X0051988Y0108697D01*
X0051988Y0108951D02*
X0090847Y0108951D01*
X0090847Y0109205D02*
X0051988Y0109205D01*
X0051988Y0109459D02*
X0090847Y0109459D01*
X0090847Y0109713D02*
X0051988Y0109713D01*
X0051988Y0109967D02*
X0090847Y0109967D01*
X0090847Y0110222D02*
X0051988Y0110222D01*
X0051988Y0110476D02*
X0090847Y0110476D01*
X0090847Y0110730D02*
X0051988Y0110730D01*
X0051988Y0110984D02*
X0090847Y0110984D01*
X0090847Y0111238D02*
X0051988Y0111238D01*
X0051988Y0111492D02*
X0090847Y0111492D01*
X0090847Y0111747D02*
X0051988Y0111747D01*
X0051988Y0112001D02*
X0090847Y0112001D01*
X0090847Y0112255D02*
X0051988Y0112255D01*
X0051988Y0112509D02*
X0090847Y0112509D01*
X0090847Y0112763D02*
X0051988Y0112763D01*
X0051988Y0113017D02*
X0090847Y0113017D01*
X0090847Y0113272D02*
X0051988Y0113272D01*
X0051988Y0113526D02*
X0090847Y0113526D01*
X0090847Y0113780D02*
X0051988Y0113780D01*
X0051988Y0114034D02*
X0090847Y0114034D01*
X0090847Y0114288D02*
X0051988Y0114288D01*
X0051988Y0114542D02*
X0090847Y0114542D01*
X0090847Y0114796D02*
X0051988Y0114796D01*
X0051988Y0115051D02*
X0090847Y0115051D01*
X0090336Y0115305D02*
X0051988Y0115305D01*
X0051988Y0115559D02*
X0090336Y0115559D01*
X0090336Y0115813D02*
X0051988Y0115813D01*
X0051988Y0116067D02*
X0090336Y0116067D01*
X0090336Y0116321D02*
X0051988Y0116321D01*
X0051988Y0116576D02*
X0090336Y0116576D01*
X0090336Y0116830D02*
X0051988Y0116830D01*
X0051988Y0117084D02*
X0090336Y0117084D01*
X0090336Y0117338D02*
X0051988Y0117338D01*
X0051988Y0117592D02*
X0090336Y0117592D01*
X0090336Y0117846D02*
X0051988Y0117846D01*
X0051988Y0118101D02*
X0090336Y0118101D01*
X0090336Y0118355D02*
X0051988Y0118355D01*
X0051988Y0118609D02*
X0090336Y0118609D01*
X0090336Y0118863D02*
X0051988Y0118863D01*
X0051988Y0119117D02*
X0090336Y0119117D01*
X0090336Y0119371D02*
X0051988Y0119371D01*
X0051988Y0119625D02*
X0090336Y0119625D01*
X0089825Y0119880D02*
X0051988Y0119880D01*
X0051988Y0120134D02*
X0089825Y0120134D01*
X0089825Y0120388D02*
X0051988Y0120388D01*
X0051988Y0120642D02*
X0089825Y0120642D01*
X0089825Y0120896D02*
X0051988Y0120896D01*
X0051988Y0121150D02*
X0089825Y0121150D01*
X0089825Y0121405D02*
X0051988Y0121405D01*
X0051988Y0121659D02*
X0089825Y0121659D01*
X0089825Y0121913D02*
X0051988Y0121913D01*
X0051988Y0122167D02*
X0089825Y0122167D01*
X0089825Y0122421D02*
X0051988Y0122421D01*
X0051988Y0122675D02*
X0089825Y0122675D01*
X0089825Y0122930D02*
X0051988Y0122930D01*
X0051988Y0123184D02*
X0089825Y0123184D01*
X0089825Y0123438D02*
X0051988Y0123438D01*
X0051988Y0123692D02*
X0089825Y0123692D01*
X0089313Y0123946D02*
X0051988Y0123946D01*
X0051988Y0124200D02*
X0089313Y0124200D01*
X0089313Y0124454D02*
X0051988Y0124454D01*
X0051988Y0124709D02*
X0089313Y0124709D01*
X0089313Y0124963D02*
X0051988Y0124963D01*
X0051988Y0125217D02*
X0089313Y0125217D01*
X0089313Y0125471D02*
X0051988Y0125471D01*
X0051988Y0125725D02*
X0089313Y0125725D01*
X0089313Y0125979D02*
X0051988Y0125979D01*
X0051988Y0126234D02*
X0089313Y0126234D01*
X0089313Y0126488D02*
X0051988Y0126488D01*
X0051988Y0127250D02*
X0088802Y0127250D01*
X0088802Y0127504D02*
X0051988Y0127504D01*
X0051988Y0127759D02*
X0088802Y0127759D01*
X0088802Y0128013D02*
X0051988Y0128013D01*
X0051988Y0128267D02*
X0088802Y0128267D01*
X0088802Y0128521D02*
X0051988Y0128521D01*
X0051988Y0128775D02*
X0088802Y0128775D01*
X0088802Y0129029D02*
X0051988Y0129029D01*
X0051988Y0129283D02*
X0088802Y0129283D01*
X0088802Y0129538D02*
X0051988Y0129538D01*
X0051988Y0129792D02*
X0088802Y0129792D01*
X0088802Y0130046D02*
X0051988Y0130046D01*
X0051988Y0130300D02*
X0088291Y0130300D01*
X0088291Y0130554D02*
X0051988Y0130554D01*
X0051988Y0130808D02*
X0088291Y0130808D01*
X0088291Y0131063D02*
X0051988Y0131063D01*
X0051988Y0131317D02*
X0088291Y0131317D01*
X0088291Y0131571D02*
X0051988Y0131571D01*
X0051988Y0131825D02*
X0088291Y0131825D01*
X0088291Y0132079D02*
X0051988Y0132079D01*
X0051988Y0132333D02*
X0088291Y0132333D01*
X0088291Y0132588D02*
X0051988Y0132588D01*
X0051988Y0132842D02*
X0087779Y0132842D01*
X0087779Y0133096D02*
X0051988Y0133096D01*
X0051988Y0133350D02*
X0087779Y0133350D01*
X0087779Y0133604D02*
X0051988Y0133604D01*
X0051988Y0133858D02*
X0087779Y0133858D01*
X0087779Y0134113D02*
X0051988Y0134113D01*
X0051988Y0134367D02*
X0087779Y0134367D01*
X0087779Y0134621D02*
X0051988Y0134621D01*
X0051988Y0134875D02*
X0087779Y0134875D01*
X0087779Y0135129D02*
X0051988Y0135129D01*
X0051988Y0135383D02*
X0087268Y0135383D01*
X0087268Y0135637D02*
X0051988Y0135637D01*
X0051988Y0135892D02*
X0087268Y0135892D01*
X0087268Y0136146D02*
X0051988Y0136146D01*
X0051988Y0136400D02*
X0087268Y0136400D01*
X0087268Y0136654D02*
X0051988Y0136654D01*
X0051988Y0136908D02*
X0087268Y0136908D01*
X0087268Y0137162D02*
X0051988Y0137162D01*
X0051988Y0137417D02*
X0087268Y0137417D01*
X0087268Y0137671D02*
X0051988Y0137671D01*
X0051988Y0137925D02*
X0086757Y0137925D01*
X0086757Y0138179D02*
X0051988Y0138179D01*
X0051988Y0138433D02*
X0086757Y0138433D01*
X0086757Y0138687D02*
X0051988Y0138687D01*
X0051988Y0138942D02*
X0086757Y0138942D01*
X0086757Y0139196D02*
X0051988Y0139196D01*
X0051988Y0139450D02*
X0086757Y0139450D01*
X0086757Y0139704D02*
X0051988Y0139704D01*
X0051988Y0139958D02*
X0086246Y0139958D01*
X0086246Y0140212D02*
X0051988Y0140212D01*
X0051988Y0140466D02*
X0086246Y0140466D01*
X0086246Y0140721D02*
X0051988Y0140721D01*
X0051988Y0140975D02*
X0086246Y0140975D01*
X0086246Y0141229D02*
X0051988Y0141229D01*
X0051988Y0141483D02*
X0086246Y0141483D01*
X0086246Y0141737D02*
X0051988Y0141737D01*
X0051988Y0141991D02*
X0086246Y0141991D01*
X0086246Y0142246D02*
X0051988Y0142246D01*
X0051988Y0142500D02*
X0085734Y0142500D01*
X0085734Y0142754D02*
X0051988Y0142754D01*
X0051988Y0143008D02*
X0085734Y0143008D01*
X0085734Y0143262D02*
X0051988Y0143262D01*
X0051988Y0143516D02*
X0085734Y0143516D01*
X0085734Y0143771D02*
X0051988Y0143771D01*
X0051988Y0144025D02*
X0085734Y0144025D01*
X0085734Y0144279D02*
X0051988Y0144279D01*
X0051988Y0144533D02*
X0085223Y0144533D01*
X0085223Y0144787D02*
X0051988Y0144787D01*
X0051988Y0145041D02*
X0085223Y0145041D01*
X0085223Y0145295D02*
X0051988Y0145295D01*
X0051988Y0145550D02*
X0085223Y0145550D01*
X0085223Y0145804D02*
X0051988Y0145804D01*
X0051988Y0146058D02*
X0085223Y0146058D01*
X0085223Y0146312D02*
X0051988Y0146312D01*
X0051988Y0146566D02*
X0084712Y0146566D01*
X0084712Y0146820D02*
X0051988Y0146820D01*
X0051988Y0147075D02*
X0084712Y0147075D01*
X0084712Y0147329D02*
X0051988Y0147329D01*
X0051988Y0147583D02*
X0084712Y0147583D01*
X0084712Y0147837D02*
X0051988Y0147837D01*
X0051988Y0148091D02*
X0084200Y0148091D01*
X0084200Y0148345D02*
X0051988Y0148345D01*
X0051988Y0148600D02*
X0084200Y0148600D01*
X0084200Y0148854D02*
X0051988Y0148854D01*
X0051988Y0149108D02*
X0084200Y0149108D01*
X0084200Y0149362D02*
X0051988Y0149362D01*
X0051988Y0149616D02*
X0083689Y0149616D01*
X0083689Y0149870D02*
X0051988Y0149870D01*
X0051988Y0150124D02*
X0083689Y0150124D01*
X0083689Y0150379D02*
X0051988Y0150379D01*
X0051988Y0150633D02*
X0083689Y0150633D01*
X0083689Y0150887D02*
X0051988Y0150887D01*
X0051988Y0151141D02*
X0083689Y0151141D01*
X0083689Y0151395D02*
X0051988Y0151395D01*
X0051988Y0151649D02*
X0083178Y0151649D01*
X0083178Y0151904D02*
X0051988Y0151904D01*
X0051988Y0152158D02*
X0083178Y0152158D01*
X0083178Y0152412D02*
X0051988Y0152412D01*
X0051988Y0152666D02*
X0083178Y0152666D01*
X0083178Y0152920D02*
X0051988Y0152920D01*
X0051988Y0153174D02*
X0083178Y0153174D01*
X0083178Y0153429D02*
X0051988Y0153429D01*
X0051988Y0153683D02*
X0082666Y0153683D01*
X0082666Y0153937D02*
X0051988Y0153937D01*
X0051988Y0154191D02*
X0082666Y0154191D01*
X0082666Y0154445D02*
X0051988Y0154445D01*
X0051988Y0154699D02*
X0082155Y0154699D01*
X0082155Y0154953D02*
X0051988Y0154953D01*
X0051988Y0155208D02*
X0082155Y0155208D01*
X0082155Y0155462D02*
X0051988Y0155462D01*
X0051988Y0155716D02*
X0082155Y0155716D01*
X0082155Y0155970D02*
X0051988Y0155970D01*
X0051988Y0156224D02*
X0082155Y0156224D01*
X0082155Y0156478D02*
X0051988Y0156478D01*
X0051988Y0156733D02*
X0081644Y0156733D01*
X0081644Y0156987D02*
X0051988Y0156987D01*
X0051988Y0157241D02*
X0081644Y0157241D01*
X0081644Y0157495D02*
X0051988Y0157495D01*
X0051988Y0157749D02*
X0081644Y0157749D01*
X0081644Y0158003D02*
X0051988Y0158003D01*
X0051988Y0158258D02*
X0081133Y0158258D01*
X0081133Y0158512D02*
X0051988Y0158512D01*
X0051988Y0158766D02*
X0081133Y0158766D01*
X0081133Y0159020D02*
X0051988Y0159020D01*
X0051988Y0159274D02*
X0081133Y0159274D01*
X0081133Y0159528D02*
X0051988Y0159528D01*
X0051988Y0159783D02*
X0080621Y0159783D01*
X0080621Y0160037D02*
X0051988Y0160037D01*
X0051988Y0160291D02*
X0080621Y0160291D01*
X0080621Y0160545D02*
X0051988Y0160545D01*
X0051988Y0160799D02*
X0080621Y0160799D01*
X0080621Y0161053D02*
X0051988Y0161053D01*
X0051988Y0161307D02*
X0080110Y0161307D01*
X0080110Y0161562D02*
X0051988Y0161562D01*
X0051988Y0161816D02*
X0080110Y0161816D01*
X0080110Y0162070D02*
X0051988Y0162070D01*
X0051988Y0162324D02*
X0080110Y0162324D01*
X0080110Y0162578D02*
X0051988Y0162578D01*
X0051988Y0162832D02*
X0079599Y0162832D01*
X0079599Y0163087D02*
X0051988Y0163087D01*
X0051988Y0163341D02*
X0079599Y0163341D01*
X0079599Y0163595D02*
X0051988Y0163595D01*
X0051988Y0163849D02*
X0079087Y0163849D01*
X0079087Y0164103D02*
X0051988Y0164103D01*
X0051988Y0164357D02*
X0079087Y0164357D01*
X0079087Y0164612D02*
X0051988Y0164612D01*
X0051988Y0164866D02*
X0079087Y0164866D01*
X0079087Y0165120D02*
X0051988Y0165120D01*
X0051988Y0165374D02*
X0078576Y0165374D01*
X0078576Y0165628D02*
X0051988Y0165628D01*
X0051988Y0165882D02*
X0078576Y0165882D01*
X0078576Y0166136D02*
X0051988Y0166136D01*
X0051988Y0166391D02*
X0078576Y0166391D01*
X0078576Y0166645D02*
X0051988Y0166645D01*
X0051988Y0166899D02*
X0078065Y0166899D01*
X0078065Y0167153D02*
X0051988Y0167153D01*
X0051988Y0167407D02*
X0078065Y0167407D01*
X0078065Y0167661D02*
X0051988Y0167661D01*
X0051988Y0167916D02*
X0077553Y0167916D01*
X0077553Y0168170D02*
X0051988Y0168170D01*
X0051988Y0168424D02*
X0077553Y0168424D01*
X0077553Y0168678D02*
X0051988Y0168678D01*
X0051988Y0168932D02*
X0077553Y0168932D01*
X0077553Y0169186D02*
X0051988Y0169186D01*
X0051988Y0169441D02*
X0077042Y0169441D01*
X0077042Y0169695D02*
X0051988Y0169695D01*
X0051988Y0169949D02*
X0077042Y0169949D01*
X0077042Y0170203D02*
X0051988Y0170203D01*
X0051988Y0170457D02*
X0077042Y0170457D01*
X0077042Y0170711D02*
X0051988Y0170711D01*
X0051988Y0170965D02*
X0077042Y0170965D01*
X0076531Y0171220D02*
X0051988Y0171220D01*
X0051988Y0171474D02*
X0076531Y0171474D01*
X0076531Y0171728D02*
X0051988Y0171728D01*
X0051988Y0171982D02*
X0076531Y0171982D01*
X0076531Y0172236D02*
X0051988Y0172236D01*
X0051988Y0172490D02*
X0076531Y0172490D01*
X0076020Y0172745D02*
X0051988Y0172745D01*
X0051988Y0172999D02*
X0076020Y0172999D01*
X0076020Y0173253D02*
X0051988Y0173253D01*
X0051988Y0173507D02*
X0076020Y0173507D01*
X0075508Y0173761D02*
X0051988Y0173761D01*
X0051988Y0174015D02*
X0075508Y0174015D01*
X0075508Y0174270D02*
X0051988Y0174270D01*
X0051988Y0174524D02*
X0075508Y0174524D01*
X0074997Y0174778D02*
X0051988Y0174778D01*
X0051988Y0175032D02*
X0074997Y0175032D01*
X0074997Y0175286D02*
X0051988Y0175286D01*
X0051988Y0175540D02*
X0074997Y0175540D01*
X0074997Y0175794D02*
X0051988Y0175794D01*
X0051988Y0176049D02*
X0074997Y0176049D01*
X0074486Y0176303D02*
X0051988Y0176303D01*
X0051988Y0176557D02*
X0074486Y0176557D01*
X0074486Y0176811D02*
X0051988Y0176811D01*
X0051988Y0177065D02*
X0074486Y0177065D01*
X0073974Y0177319D02*
X0051988Y0177319D01*
X0051988Y0177574D02*
X0073974Y0177574D01*
X0073974Y0177828D02*
X0051988Y0177828D01*
X0051988Y0178082D02*
X0073974Y0178082D01*
X0073463Y0178336D02*
X0051988Y0178336D01*
X0051988Y0178590D02*
X0073463Y0178590D01*
X0073463Y0178844D02*
X0051988Y0178844D01*
X0051988Y0179099D02*
X0073463Y0179099D01*
X0072952Y0179353D02*
X0051988Y0179353D01*
X0051988Y0179607D02*
X0072952Y0179607D01*
X0072952Y0179861D02*
X0051988Y0179861D01*
X0051988Y0180115D02*
X0072952Y0180115D01*
X0072440Y0180369D02*
X0051988Y0180369D01*
X0051988Y0180623D02*
X0072440Y0180623D01*
X0072440Y0180878D02*
X0051988Y0180878D01*
X0051988Y0181132D02*
X0072440Y0181132D01*
X0071929Y0181386D02*
X0051988Y0181386D01*
X0051988Y0181640D02*
X0071929Y0181640D01*
X0071929Y0181894D02*
X0051988Y0181894D01*
X0051988Y0182148D02*
X0071929Y0182148D01*
X0071418Y0182403D02*
X0051988Y0182403D01*
X0051988Y0182657D02*
X0071418Y0182657D01*
X0070907Y0182911D02*
X0051988Y0182911D01*
X0051988Y0183165D02*
X0070907Y0183165D01*
X0070395Y0183419D02*
X0051988Y0183419D01*
X0051988Y0183673D02*
X0070395Y0183673D01*
X0069884Y0183928D02*
X0051988Y0183928D01*
X0051988Y0184182D02*
X0069884Y0184182D01*
X0069373Y0184436D02*
X0051988Y0184436D01*
X0051988Y0184690D02*
X0069373Y0184690D01*
X0068861Y0184944D02*
X0051988Y0184944D01*
X0051988Y0185198D02*
X0068861Y0185198D01*
X0068350Y0185453D02*
X0051988Y0185453D01*
X0051988Y0185707D02*
X0068350Y0185707D01*
X0067839Y0185961D02*
X0051988Y0185961D01*
X0051988Y0186215D02*
X0067839Y0186215D01*
X0067327Y0186469D02*
X0051988Y0186469D01*
X0051988Y0186723D02*
X0067327Y0186723D01*
X0066816Y0186977D02*
X0051988Y0186977D01*
X0051988Y0187232D02*
X0066816Y0187232D01*
X0066305Y0187486D02*
X0051988Y0187486D01*
X0051988Y0187740D02*
X0066305Y0187740D01*
X0065794Y0187994D02*
X0051988Y0187994D01*
X0051988Y0188248D02*
X0065794Y0188248D01*
X0065282Y0188502D02*
X0051988Y0188502D01*
X0051988Y0188757D02*
X0065282Y0188757D01*
X0064771Y0189011D02*
X0051988Y0189011D01*
X0051988Y0189265D02*
X0064771Y0189265D01*
X0064260Y0189519D02*
X0051988Y0189519D01*
X0051988Y0189773D02*
X0064260Y0189773D01*
X0063748Y0190027D02*
X0051988Y0190027D01*
X0051988Y0190282D02*
X0063748Y0190282D01*
X0063237Y0190536D02*
X0051988Y0190536D01*
X0051988Y0190790D02*
X0063237Y0190790D01*
X0062726Y0191044D02*
X0051988Y0191044D01*
X0051988Y0191298D02*
X0062726Y0191298D01*
X0062214Y0191552D02*
X0051988Y0191552D01*
X0051988Y0191806D02*
X0062214Y0191806D01*
X0061703Y0192061D02*
X0051988Y0192061D01*
X0051988Y0192315D02*
X0061703Y0192315D01*
X0061192Y0192569D02*
X0051988Y0192569D01*
X0051988Y0192823D02*
X0061192Y0192823D01*
X0060681Y0193077D02*
X0051988Y0193077D01*
X0051988Y0193331D02*
X0060681Y0193331D01*
X0060169Y0193586D02*
X0051988Y0193586D01*
X0051988Y0193840D02*
X0060169Y0193840D01*
X0059658Y0194094D02*
X0051988Y0194094D01*
X0051988Y0194348D02*
X0059658Y0194348D01*
X0059147Y0194602D02*
X0051988Y0194602D01*
X0051988Y0194856D02*
X0059147Y0194856D01*
X0058635Y0195111D02*
X0051988Y0195111D01*
X0051988Y0195365D02*
X0058635Y0195365D01*
X0058124Y0195619D02*
X0051988Y0195619D01*
X0051988Y0195873D02*
X0058124Y0195873D01*
X0057613Y0196127D02*
X0051988Y0196127D01*
X0051988Y0196381D02*
X0057613Y0196381D01*
X0057101Y0196635D02*
X0051988Y0196635D01*
X0051988Y0196890D02*
X0057101Y0196890D01*
X0056590Y0197144D02*
X0051988Y0197144D01*
X0051988Y0197398D02*
X0056590Y0197398D01*
X0056079Y0197652D02*
X0051988Y0197652D01*
X0051988Y0197906D02*
X0056079Y0197906D01*
X0055568Y0198160D02*
X0051988Y0198160D01*
X0051988Y0198415D02*
X0055568Y0198415D01*
X0055056Y0198669D02*
X0051988Y0198669D01*
X0051988Y0198923D02*
X0055056Y0198923D01*
X0054545Y0199177D02*
X0051988Y0199177D01*
X0051988Y0199431D02*
X0054545Y0199431D01*
X0054034Y0199685D02*
X0051988Y0199685D01*
X0051988Y0199940D02*
X0054034Y0199940D01*
X0053522Y0200194D02*
X0051988Y0200194D01*
X0051988Y0200448D02*
X0053522Y0200448D01*
X0053011Y0200702D02*
X0051988Y0200702D01*
X0051988Y0200956D02*
X0053011Y0200956D01*
X0052500Y0201210D02*
X0051988Y0201210D01*
X0051988Y0201464D02*
X0052500Y0201464D01*
X0027242Y0177103D02*
X0026730Y0177103D01*
X0026730Y0178126D01*
X0026219Y0178126D01*
X0026219Y0179149D01*
X0025708Y0179149D01*
X0025708Y0180171D01*
X0025196Y0180171D01*
X0025196Y0181194D01*
X0024685Y0181194D01*
X0024685Y0182216D01*
X0024174Y0182216D01*
X0024174Y0182728D01*
X0023662Y0182728D01*
X0023662Y0183239D01*
X0023151Y0183239D01*
X0023151Y0183750D01*
X0022640Y0183750D01*
X0022640Y0184262D01*
X0022129Y0184262D01*
X0022129Y0184773D01*
X0021617Y0184773D01*
X0021617Y0185284D01*
X0021106Y0185284D01*
X0021106Y0185796D01*
X0020595Y0185796D01*
X0020595Y0186307D01*
X0020083Y0186307D01*
X0020083Y0186818D01*
X0019572Y0186818D01*
X0019572Y0187329D01*
X0019061Y0187329D01*
X0019061Y0187841D01*
X0018549Y0187841D01*
X0018549Y0188352D01*
X0018038Y0188352D01*
X0018038Y0188863D01*
X0017527Y0188863D01*
X0017527Y0189375D01*
X0017016Y0189375D01*
X0017016Y0189886D01*
X0016504Y0189886D01*
X0016504Y0190397D01*
X0015993Y0190397D01*
X0015993Y0190909D01*
X0015482Y0190909D01*
X0015482Y0191420D01*
X0014970Y0191420D01*
X0014970Y0191931D01*
X0014459Y0191931D01*
X0014459Y0192442D01*
X0013948Y0192442D01*
X0013948Y0192954D01*
X0013436Y0192954D01*
X0013436Y0193465D01*
X0012925Y0193465D01*
X0012925Y0193976D01*
X0012414Y0193976D01*
X0012414Y0194488D01*
X0011903Y0194488D01*
X0011903Y0194999D01*
X0011391Y0194999D01*
X0011391Y0195510D01*
X0010880Y0195510D01*
X0010880Y0196022D01*
X0010369Y0196022D01*
X0010369Y0196533D01*
X0009857Y0196533D01*
X0009857Y0197044D01*
X0009346Y0197044D01*
X0009346Y0197555D01*
X0008835Y0197555D01*
X0008835Y0198067D01*
X0008323Y0198067D01*
X0008323Y0198578D01*
X0007812Y0198578D01*
X0007812Y0199089D01*
X0007301Y0199089D01*
X0007301Y0199601D01*
X0006790Y0199601D01*
X0006790Y0200112D01*
X0006278Y0200112D01*
X0006278Y0200623D01*
X0005767Y0200623D01*
X0005767Y0201135D01*
X0005256Y0201135D01*
X0005256Y0201646D01*
X0004744Y0201646D01*
X0004744Y0178126D01*
X0004744Y0095296D01*
X0044114Y0095296D01*
X0044114Y0108589D01*
X0043603Y0108589D01*
X0043603Y0115236D01*
X0043092Y0115236D01*
X0043092Y0119838D01*
X0042581Y0119838D01*
X0042581Y0123928D01*
X0042069Y0123928D01*
X0042069Y0126996D01*
X0004744Y0126996D01*
X0004744Y0126742D02*
X0042069Y0126742D01*
X0042069Y0126996D02*
X0041558Y0126996D01*
X0041558Y0130064D01*
X0041047Y0130064D01*
X0041047Y0132620D01*
X0040535Y0132620D01*
X0040535Y0135177D01*
X0040024Y0135177D01*
X0040024Y0137733D01*
X0039513Y0137733D01*
X0039513Y0139779D01*
X0039001Y0139779D01*
X0039001Y0142335D01*
X0038490Y0142335D01*
X0038490Y0144380D01*
X0037979Y0144380D01*
X0037979Y0146425D01*
X0037468Y0146425D01*
X0037468Y0147959D01*
X0036956Y0147959D01*
X0036956Y0149493D01*
X0036445Y0149493D01*
X0036445Y0151538D01*
X0035934Y0151538D01*
X0035934Y0153584D01*
X0035422Y0153584D01*
X0035422Y0154606D01*
X0034911Y0154606D01*
X0034911Y0156651D01*
X0034400Y0156651D01*
X0034400Y0158185D01*
X0033888Y0158185D01*
X0033888Y0159719D01*
X0033377Y0159719D01*
X0033377Y0161253D01*
X0032866Y0161253D01*
X0032866Y0162787D01*
X0032355Y0162787D01*
X0032355Y0163810D01*
X0031843Y0163810D01*
X0031843Y0165344D01*
X0031332Y0165344D01*
X0031332Y0166877D01*
X0030821Y0166877D01*
X0030821Y0167900D01*
X0030309Y0167900D01*
X0030309Y0169434D01*
X0029798Y0169434D01*
X0029798Y0170968D01*
X0029287Y0170968D01*
X0029287Y0172502D01*
X0028775Y0172502D01*
X0028775Y0173524D01*
X0028264Y0173524D01*
X0028264Y0174547D01*
X0027753Y0174547D01*
X0027753Y0176081D01*
X0027242Y0176081D01*
X0027242Y0177103D01*
X0027242Y0177065D02*
X0004744Y0177065D01*
X0004744Y0176811D02*
X0027242Y0176811D01*
X0027242Y0176557D02*
X0004744Y0176557D01*
X0004744Y0176303D02*
X0027242Y0176303D01*
X0027753Y0176049D02*
X0004744Y0176049D01*
X0004744Y0175794D02*
X0027753Y0175794D01*
X0027753Y0175540D02*
X0004744Y0175540D01*
X0004744Y0175286D02*
X0027753Y0175286D01*
X0027753Y0175032D02*
X0004744Y0175032D01*
X0004744Y0174778D02*
X0027753Y0174778D01*
X0028264Y0174524D02*
X0004744Y0174524D01*
X0004744Y0174270D02*
X0028264Y0174270D01*
X0028264Y0174015D02*
X0004744Y0174015D01*
X0004744Y0173761D02*
X0028264Y0173761D01*
X0028775Y0173507D02*
X0004744Y0173507D01*
X0004744Y0173253D02*
X0028775Y0173253D01*
X0028775Y0172999D02*
X0004744Y0172999D01*
X0004744Y0172745D02*
X0028775Y0172745D01*
X0029287Y0172490D02*
X0004744Y0172490D01*
X0004744Y0172236D02*
X0029287Y0172236D01*
X0029287Y0171982D02*
X0004744Y0171982D01*
X0004744Y0171728D02*
X0029287Y0171728D01*
X0029287Y0171474D02*
X0004744Y0171474D01*
X0004744Y0171220D02*
X0029287Y0171220D01*
X0029798Y0170965D02*
X0004744Y0170965D01*
X0004744Y0170711D02*
X0029798Y0170711D01*
X0029798Y0170457D02*
X0004744Y0170457D01*
X0004744Y0170203D02*
X0029798Y0170203D01*
X0029798Y0169949D02*
X0004744Y0169949D01*
X0004744Y0169695D02*
X0029798Y0169695D01*
X0029798Y0169441D02*
X0004744Y0169441D01*
X0004744Y0169186D02*
X0030309Y0169186D01*
X0030309Y0168932D02*
X0004744Y0168932D01*
X0004744Y0168678D02*
X0030309Y0168678D01*
X0030309Y0168424D02*
X0004744Y0168424D01*
X0004744Y0168170D02*
X0030309Y0168170D01*
X0030309Y0167916D02*
X0004744Y0167916D01*
X0004744Y0167661D02*
X0030821Y0167661D01*
X0030821Y0167407D02*
X0004744Y0167407D01*
X0004744Y0167153D02*
X0030821Y0167153D01*
X0030821Y0166899D02*
X0004744Y0166899D01*
X0004744Y0166645D02*
X0031332Y0166645D01*
X0031332Y0166391D02*
X0004744Y0166391D01*
X0004744Y0166136D02*
X0031332Y0166136D01*
X0031332Y0165882D02*
X0004744Y0165882D01*
X0004744Y0165628D02*
X0031332Y0165628D01*
X0031332Y0165374D02*
X0004744Y0165374D01*
X0004744Y0165120D02*
X0031843Y0165120D01*
X0031843Y0164866D02*
X0004744Y0164866D01*
X0004744Y0164612D02*
X0031843Y0164612D01*
X0031843Y0164357D02*
X0004744Y0164357D01*
X0004744Y0164103D02*
X0031843Y0164103D01*
X0031843Y0163849D02*
X0004744Y0163849D01*
X0004744Y0163595D02*
X0032355Y0163595D01*
X0032355Y0163341D02*
X0004744Y0163341D01*
X0004744Y0163087D02*
X0032355Y0163087D01*
X0032355Y0162832D02*
X0004744Y0162832D01*
X0004744Y0162578D02*
X0032866Y0162578D01*
X0032866Y0162324D02*
X0004744Y0162324D01*
X0004744Y0162070D02*
X0032866Y0162070D01*
X0032866Y0161816D02*
X0004744Y0161816D01*
X0004744Y0161562D02*
X0032866Y0161562D01*
X0032866Y0161307D02*
X0004744Y0161307D01*
X0004744Y0161053D02*
X0033377Y0161053D01*
X0033377Y0160799D02*
X0004744Y0160799D01*
X0004744Y0160545D02*
X0033377Y0160545D01*
X0033377Y0160291D02*
X0004744Y0160291D01*
X0004744Y0160037D02*
X0033377Y0160037D01*
X0033377Y0159783D02*
X0004744Y0159783D01*
X0004744Y0159528D02*
X0033888Y0159528D01*
X0033888Y0159274D02*
X0004744Y0159274D01*
X0004744Y0159020D02*
X0033888Y0159020D01*
X0033888Y0158766D02*
X0004744Y0158766D01*
X0004744Y0158512D02*
X0033888Y0158512D01*
X0033888Y0158258D02*
X0004744Y0158258D01*
X0004744Y0158003D02*
X0034400Y0158003D01*
X0034400Y0157749D02*
X0004744Y0157749D01*
X0004744Y0157495D02*
X0034400Y0157495D01*
X0034400Y0157241D02*
X0004744Y0157241D01*
X0004744Y0156987D02*
X0034400Y0156987D01*
X0034400Y0156733D02*
X0004744Y0156733D01*
X0004744Y0156478D02*
X0034911Y0156478D01*
X0034911Y0156224D02*
X0004744Y0156224D01*
X0004744Y0155970D02*
X0034911Y0155970D01*
X0034911Y0155716D02*
X0004744Y0155716D01*
X0004744Y0155462D02*
X0034911Y0155462D01*
X0034911Y0155208D02*
X0004744Y0155208D01*
X0004744Y0154953D02*
X0034911Y0154953D01*
X0034911Y0154699D02*
X0004744Y0154699D01*
X0004744Y0154445D02*
X0035422Y0154445D01*
X0035422Y0154191D02*
X0004744Y0154191D01*
X0004744Y0153937D02*
X0035422Y0153937D01*
X0035422Y0153683D02*
X0004744Y0153683D01*
X0004744Y0153429D02*
X0035934Y0153429D01*
X0035934Y0153174D02*
X0004744Y0153174D01*
X0004744Y0152920D02*
X0035934Y0152920D01*
X0035934Y0152666D02*
X0004744Y0152666D01*
X0004744Y0152412D02*
X0035934Y0152412D01*
X0035934Y0152158D02*
X0004744Y0152158D01*
X0004744Y0151904D02*
X0035934Y0151904D01*
X0035934Y0151649D02*
X0004744Y0151649D01*
X0004744Y0151395D02*
X0036445Y0151395D01*
X0036445Y0151141D02*
X0004744Y0151141D01*
X0004744Y0150887D02*
X0036445Y0150887D01*
X0036445Y0150633D02*
X0004744Y0150633D01*
X0004744Y0150379D02*
X0036445Y0150379D01*
X0036445Y0150124D02*
X0004744Y0150124D01*
X0004744Y0149870D02*
X0036445Y0149870D01*
X0036445Y0149616D02*
X0004744Y0149616D01*
X0004744Y0149362D02*
X0036956Y0149362D01*
X0036956Y0149108D02*
X0004744Y0149108D01*
X0004744Y0148854D02*
X0036956Y0148854D01*
X0036956Y0148600D02*
X0004744Y0148600D01*
X0004744Y0148345D02*
X0036956Y0148345D01*
X0036956Y0148091D02*
X0004744Y0148091D01*
X0004744Y0147837D02*
X0037468Y0147837D01*
X0037468Y0147583D02*
X0004744Y0147583D01*
X0004744Y0147329D02*
X0037468Y0147329D01*
X0037468Y0147075D02*
X0004744Y0147075D01*
X0004744Y0146820D02*
X0037468Y0146820D01*
X0037468Y0146566D02*
X0004744Y0146566D01*
X0004744Y0146312D02*
X0037979Y0146312D01*
X0037979Y0146058D02*
X0004744Y0146058D01*
X0004744Y0145804D02*
X0037979Y0145804D01*
X0037979Y0145550D02*
X0004744Y0145550D01*
X0004744Y0145295D02*
X0037979Y0145295D01*
X0037979Y0145041D02*
X0004744Y0145041D01*
X0004744Y0144787D02*
X0037979Y0144787D01*
X0037979Y0144533D02*
X0004744Y0144533D01*
X0004744Y0144279D02*
X0038490Y0144279D01*
X0038490Y0144025D02*
X0004744Y0144025D01*
X0004744Y0143771D02*
X0038490Y0143771D01*
X0038490Y0143516D02*
X0004744Y0143516D01*
X0004744Y0143262D02*
X0038490Y0143262D01*
X0038490Y0143008D02*
X0004744Y0143008D01*
X0004744Y0142754D02*
X0038490Y0142754D01*
X0038490Y0142500D02*
X0004744Y0142500D01*
X0004744Y0142246D02*
X0039001Y0142246D01*
X0039001Y0141991D02*
X0004744Y0141991D01*
X0004744Y0141737D02*
X0039001Y0141737D01*
X0039001Y0141483D02*
X0004744Y0141483D01*
X0004744Y0141229D02*
X0039001Y0141229D01*
X0039001Y0140975D02*
X0004744Y0140975D01*
X0004744Y0140721D02*
X0039001Y0140721D01*
X0039001Y0140466D02*
X0004744Y0140466D01*
X0004744Y0140212D02*
X0039001Y0140212D01*
X0039001Y0139958D02*
X0004744Y0139958D01*
X0004744Y0139704D02*
X0039513Y0139704D01*
X0039513Y0139450D02*
X0004744Y0139450D01*
X0004744Y0139196D02*
X0039513Y0139196D01*
X0039513Y0138942D02*
X0004744Y0138942D01*
X0004744Y0138687D02*
X0039513Y0138687D01*
X0039513Y0138433D02*
X0004744Y0138433D01*
X0004744Y0138179D02*
X0039513Y0138179D01*
X0039513Y0137925D02*
X0004744Y0137925D01*
X0004744Y0137671D02*
X0040024Y0137671D01*
X0040024Y0137417D02*
X0004744Y0137417D01*
X0004744Y0137162D02*
X0040024Y0137162D01*
X0040024Y0136908D02*
X0004744Y0136908D01*
X0004744Y0136654D02*
X0040024Y0136654D01*
X0040024Y0136400D02*
X0004744Y0136400D01*
X0004744Y0136146D02*
X0040024Y0136146D01*
X0040024Y0135892D02*
X0004744Y0135892D01*
X0004744Y0135637D02*
X0040024Y0135637D01*
X0040024Y0135383D02*
X0004744Y0135383D01*
X0004744Y0135129D02*
X0040535Y0135129D01*
X0040535Y0134875D02*
X0004744Y0134875D01*
X0004744Y0134621D02*
X0040535Y0134621D01*
X0040535Y0134367D02*
X0004744Y0134367D01*
X0004744Y0134113D02*
X0040535Y0134113D01*
X0040535Y0133858D02*
X0004744Y0133858D01*
X0004744Y0133604D02*
X0040535Y0133604D01*
X0040535Y0133350D02*
X0004744Y0133350D01*
X0004744Y0133096D02*
X0040535Y0133096D01*
X0040535Y0132842D02*
X0004744Y0132842D01*
X0004744Y0132588D02*
X0041047Y0132588D01*
X0041047Y0132333D02*
X0004744Y0132333D01*
X0004744Y0132079D02*
X0041047Y0132079D01*
X0041047Y0131825D02*
X0004744Y0131825D01*
X0004744Y0131571D02*
X0041047Y0131571D01*
X0041047Y0131317D02*
X0004744Y0131317D01*
X0004744Y0131063D02*
X0041047Y0131063D01*
X0041047Y0130808D02*
X0004744Y0130808D01*
X0004744Y0130554D02*
X0041047Y0130554D01*
X0041047Y0130300D02*
X0004744Y0130300D01*
X0004744Y0130046D02*
X0041558Y0130046D01*
X0041558Y0129792D02*
X0004744Y0129792D01*
X0004744Y0129538D02*
X0041558Y0129538D01*
X0041558Y0129283D02*
X0004744Y0129283D01*
X0004744Y0129029D02*
X0041558Y0129029D01*
X0041558Y0128775D02*
X0004744Y0128775D01*
X0004744Y0128521D02*
X0041558Y0128521D01*
X0041558Y0128267D02*
X0004744Y0128267D01*
X0004744Y0128013D02*
X0041558Y0128013D01*
X0041558Y0127759D02*
X0004744Y0127759D01*
X0004744Y0127504D02*
X0041558Y0127504D01*
X0041558Y0127250D02*
X0004744Y0127250D01*
X0004744Y0126488D02*
X0042069Y0126488D01*
X0042069Y0126234D02*
X0004744Y0126234D01*
X0004744Y0125979D02*
X0042069Y0125979D01*
X0042069Y0125725D02*
X0004744Y0125725D01*
X0004744Y0125471D02*
X0042069Y0125471D01*
X0042069Y0125217D02*
X0004744Y0125217D01*
X0004744Y0124963D02*
X0042069Y0124963D01*
X0042069Y0124709D02*
X0004744Y0124709D01*
X0004744Y0124454D02*
X0042069Y0124454D01*
X0042069Y0124200D02*
X0004744Y0124200D01*
X0004744Y0123946D02*
X0042069Y0123946D01*
X0042581Y0123692D02*
X0004744Y0123692D01*
X0004744Y0123438D02*
X0042581Y0123438D01*
X0042581Y0123184D02*
X0004744Y0123184D01*
X0004744Y0122930D02*
X0042581Y0122930D01*
X0042581Y0122675D02*
X0004744Y0122675D01*
X0004744Y0122421D02*
X0042581Y0122421D01*
X0042581Y0122167D02*
X0004744Y0122167D01*
X0004744Y0121913D02*
X0042581Y0121913D01*
X0042581Y0121659D02*
X0004744Y0121659D01*
X0004744Y0121405D02*
X0042581Y0121405D01*
X0042581Y0121150D02*
X0004744Y0121150D01*
X0004744Y0120896D02*
X0042581Y0120896D01*
X0042581Y0120642D02*
X0004744Y0120642D01*
X0004744Y0120388D02*
X0042581Y0120388D01*
X0042581Y0120134D02*
X0004744Y0120134D01*
X0004744Y0119880D02*
X0042581Y0119880D01*
X0043092Y0119625D02*
X0004744Y0119625D01*
X0004744Y0119371D02*
X0043092Y0119371D01*
X0043092Y0119117D02*
X0004744Y0119117D01*
X0004744Y0118863D02*
X0043092Y0118863D01*
X0043092Y0118609D02*
X0004744Y0118609D01*
X0004744Y0118355D02*
X0043092Y0118355D01*
X0043092Y0118101D02*
X0004744Y0118101D01*
X0004744Y0117846D02*
X0043092Y0117846D01*
X0043092Y0117592D02*
X0004744Y0117592D01*
X0004744Y0117338D02*
X0043092Y0117338D01*
X0043092Y0117084D02*
X0004744Y0117084D01*
X0004744Y0116830D02*
X0043092Y0116830D01*
X0043092Y0116576D02*
X0004744Y0116576D01*
X0004744Y0116321D02*
X0043092Y0116321D01*
X0043092Y0116067D02*
X0004744Y0116067D01*
X0004744Y0115813D02*
X0043092Y0115813D01*
X0043092Y0115559D02*
X0004744Y0115559D01*
X0004744Y0115305D02*
X0043092Y0115305D01*
X0043603Y0115051D02*
X0004744Y0115051D01*
X0004744Y0114796D02*
X0043603Y0114796D01*
X0043603Y0114542D02*
X0004744Y0114542D01*
X0004744Y0114288D02*
X0043603Y0114288D01*
X0043603Y0114034D02*
X0004744Y0114034D01*
X0004744Y0113780D02*
X0043603Y0113780D01*
X0043603Y0113526D02*
X0004744Y0113526D01*
X0004744Y0113272D02*
X0043603Y0113272D01*
X0043603Y0113017D02*
X0004744Y0113017D01*
X0004744Y0112763D02*
X0043603Y0112763D01*
X0043603Y0112509D02*
X0004744Y0112509D01*
X0004744Y0112255D02*
X0043603Y0112255D01*
X0043603Y0112001D02*
X0004744Y0112001D01*
X0004744Y0111747D02*
X0043603Y0111747D01*
X0043603Y0111492D02*
X0004744Y0111492D01*
X0004744Y0111238D02*
X0043603Y0111238D01*
X0043603Y0110984D02*
X0004744Y0110984D01*
X0004744Y0110730D02*
X0043603Y0110730D01*
X0043603Y0110476D02*
X0004744Y0110476D01*
X0004744Y0110222D02*
X0043603Y0110222D01*
X0043603Y0109967D02*
X0004744Y0109967D01*
X0004744Y0109713D02*
X0043603Y0109713D01*
X0043603Y0109459D02*
X0004744Y0109459D01*
X0004744Y0109205D02*
X0043603Y0109205D01*
X0043603Y0108951D02*
X0004744Y0108951D01*
X0004744Y0108697D02*
X0043603Y0108697D01*
X0044114Y0108442D02*
X0004744Y0108442D01*
X0004744Y0108188D02*
X0044114Y0108188D01*
X0044114Y0107934D02*
X0004744Y0107934D01*
X0004744Y0107680D02*
X0044114Y0107680D01*
X0044114Y0107426D02*
X0004744Y0107426D01*
X0004744Y0107172D02*
X0044114Y0107172D01*
X0044114Y0106918D02*
X0004744Y0106918D01*
X0004744Y0106663D02*
X0044114Y0106663D01*
X0044114Y0106409D02*
X0004744Y0106409D01*
X0004744Y0106155D02*
X0044114Y0106155D01*
X0044114Y0105901D02*
X0004744Y0105901D01*
X0004744Y0105647D02*
X0044114Y0105647D01*
X0044114Y0105393D02*
X0004744Y0105393D01*
X0004744Y0105138D02*
X0044114Y0105138D01*
X0044114Y0104884D02*
X0004744Y0104884D01*
X0004744Y0104630D02*
X0044114Y0104630D01*
X0044114Y0104376D02*
X0004744Y0104376D01*
X0004744Y0104122D02*
X0044114Y0104122D01*
X0044114Y0103868D02*
X0004744Y0103868D01*
X0004744Y0103613D02*
X0044114Y0103613D01*
X0044114Y0103359D02*
X0004744Y0103359D01*
X0004744Y0103105D02*
X0044114Y0103105D01*
X0044114Y0102851D02*
X0004744Y0102851D01*
X0004744Y0102597D02*
X0044114Y0102597D01*
X0044114Y0102343D02*
X0004744Y0102343D01*
X0004744Y0102089D02*
X0044114Y0102089D01*
X0044114Y0101834D02*
X0004744Y0101834D01*
X0004744Y0101580D02*
X0044114Y0101580D01*
X0044114Y0101326D02*
X0004744Y0101326D01*
X0004744Y0101072D02*
X0044114Y0101072D01*
X0044114Y0100818D02*
X0004744Y0100818D01*
X0004744Y0100564D02*
X0044114Y0100564D01*
X0044114Y0100309D02*
X0004744Y0100309D01*
X0004744Y0100055D02*
X0044114Y0100055D01*
X0044114Y0099801D02*
X0004744Y0099801D01*
X0004744Y0099547D02*
X0044114Y0099547D01*
X0044114Y0099293D02*
X0004744Y0099293D01*
X0004744Y0099039D02*
X0044114Y0099039D01*
X0044114Y0098784D02*
X0004744Y0098784D01*
X0004744Y0098530D02*
X0044114Y0098530D01*
X0044114Y0098276D02*
X0004744Y0098276D01*
X0004744Y0098022D02*
X0044114Y0098022D01*
X0044114Y0097768D02*
X0004744Y0097768D01*
X0004744Y0097514D02*
X0044114Y0097514D01*
X0044114Y0097260D02*
X0004744Y0097260D01*
X0004744Y0097005D02*
X0044114Y0097005D01*
X0044114Y0096751D02*
X0004744Y0096751D01*
X0004744Y0096497D02*
X0044114Y0096497D01*
X0044114Y0096243D02*
X0004744Y0096243D01*
X0004744Y0095989D02*
X0044114Y0095989D01*
X0044114Y0095735D02*
X0004744Y0095735D01*
X0004744Y0095480D02*
X0044114Y0095480D01*
X0095296Y0115492D02*
X0108589Y0115492D01*
X0108589Y0116003D01*
X0115236Y0116003D01*
X0115236Y0116514D01*
X0119838Y0116514D01*
X0119838Y0117026D01*
X0123928Y0117026D01*
X0123928Y0117537D01*
X0126996Y0117537D01*
X0126996Y0118048D01*
X0130064Y0118048D01*
X0130064Y0118560D01*
X0132620Y0118560D01*
X0132620Y0119071D01*
X0135177Y0119071D01*
X0135177Y0119582D01*
X0137733Y0119582D01*
X0137733Y0120094D01*
X0139779Y0120094D01*
X0139779Y0120605D01*
X0142335Y0120605D01*
X0142335Y0121116D01*
X0144380Y0121116D01*
X0144380Y0121627D01*
X0146425Y0121627D01*
X0146425Y0122139D01*
X0147959Y0122139D01*
X0147959Y0122650D01*
X0149493Y0122650D01*
X0149493Y0123161D01*
X0151538Y0123161D01*
X0151538Y0123673D01*
X0153584Y0123673D01*
X0153584Y0124184D01*
X0154606Y0124184D01*
X0154606Y0124695D01*
X0156651Y0124695D01*
X0156651Y0125207D01*
X0158185Y0125207D01*
X0158185Y0125718D01*
X0159719Y0125718D01*
X0159719Y0126229D01*
X0161253Y0126229D01*
X0161253Y0126740D01*
X0162787Y0126740D01*
X0162787Y0127252D01*
X0163810Y0127252D01*
X0163810Y0127763D01*
X0165344Y0127763D01*
X0165344Y0128274D01*
X0166877Y0128274D01*
X0166877Y0128786D01*
X0167900Y0128786D01*
X0167900Y0129297D01*
X0169434Y0129297D01*
X0169434Y0129808D01*
X0170968Y0129808D01*
X0170968Y0130320D01*
X0172502Y0130320D01*
X0172502Y0130831D01*
X0173524Y0130831D01*
X0173524Y0131342D01*
X0174547Y0131342D01*
X0174547Y0131853D01*
X0176081Y0131853D01*
X0176081Y0132365D01*
X0177103Y0132365D01*
X0177103Y0132876D01*
X0178126Y0132876D01*
X0178126Y0133387D01*
X0179149Y0133387D01*
X0179149Y0133899D01*
X0180171Y0133899D01*
X0180171Y0134410D01*
X0181194Y0134410D01*
X0181194Y0134921D01*
X0182216Y0134921D01*
X0182216Y0135433D01*
X0182728Y0135433D01*
X0182728Y0135944D01*
X0183239Y0135944D01*
X0183239Y0136455D01*
X0183750Y0136455D01*
X0183750Y0136966D01*
X0184262Y0136966D01*
X0184262Y0137478D01*
X0184773Y0137478D01*
X0184773Y0137989D01*
X0185284Y0137989D01*
X0185284Y0138500D01*
X0185796Y0138500D01*
X0185796Y0139012D01*
X0186307Y0139012D01*
X0186307Y0139523D01*
X0186818Y0139523D01*
X0186818Y0140034D01*
X0187329Y0140034D01*
X0187329Y0140546D01*
X0187841Y0140546D01*
X0187841Y0141057D01*
X0188352Y0141057D01*
X0188352Y0141568D01*
X0188863Y0141568D01*
X0188863Y0142079D01*
X0189375Y0142079D01*
X0189375Y0142591D01*
X0189886Y0142591D01*
X0189886Y0143102D01*
X0190397Y0143102D01*
X0190397Y0143613D01*
X0190909Y0143613D01*
X0190909Y0144125D01*
X0191420Y0144125D01*
X0191420Y0144636D01*
X0191931Y0144636D01*
X0191931Y0145147D01*
X0192442Y0145147D01*
X0192442Y0145659D01*
X0192954Y0145659D01*
X0192954Y0146170D01*
X0193465Y0146170D01*
X0193465Y0146681D01*
X0193976Y0146681D01*
X0193976Y0147192D01*
X0194488Y0147192D01*
X0194488Y0147704D01*
X0194999Y0147704D01*
X0194999Y0148215D01*
X0195510Y0148215D01*
X0195510Y0148726D01*
X0196022Y0148726D01*
X0196022Y0149238D01*
X0196533Y0149238D01*
X0196533Y0149749D01*
X0197044Y0149749D01*
X0197044Y0150260D01*
X0197555Y0150260D01*
X0197555Y0150772D01*
X0198067Y0150772D01*
X0198067Y0151283D01*
X0198578Y0151283D01*
X0198578Y0151794D01*
X0199089Y0151794D01*
X0199089Y0152305D01*
X0199601Y0152305D01*
X0199601Y0152817D01*
X0200112Y0152817D01*
X0200112Y0153328D01*
X0200623Y0153328D01*
X0200623Y0153839D01*
X0201135Y0153839D01*
X0201135Y0154351D01*
X0201646Y0154351D01*
X0201646Y0154862D01*
X0178126Y0154862D01*
X0095296Y0154862D01*
X0095296Y0115492D01*
X0095296Y0115559D02*
X0108589Y0115559D01*
X0108589Y0115813D02*
X0095296Y0115813D01*
X0095296Y0116067D02*
X0115236Y0116067D01*
X0115236Y0116321D02*
X0095296Y0116321D01*
X0095296Y0116576D02*
X0119838Y0116576D01*
X0119838Y0116830D02*
X0095296Y0116830D01*
X0095296Y0117084D02*
X0123928Y0117084D01*
X0123928Y0117338D02*
X0095296Y0117338D01*
X0095296Y0117592D02*
X0126996Y0117592D01*
X0126996Y0117846D02*
X0095296Y0117846D01*
X0095296Y0118101D02*
X0130064Y0118101D01*
X0130064Y0118355D02*
X0095296Y0118355D01*
X0095296Y0118609D02*
X0132620Y0118609D01*
X0132620Y0118863D02*
X0095296Y0118863D01*
X0095296Y0119117D02*
X0135177Y0119117D01*
X0135177Y0119371D02*
X0095296Y0119371D01*
X0095296Y0119625D02*
X0137733Y0119625D01*
X0137733Y0119880D02*
X0095296Y0119880D01*
X0095296Y0120134D02*
X0139779Y0120134D01*
X0139779Y0120388D02*
X0095296Y0120388D01*
X0095296Y0120642D02*
X0142335Y0120642D01*
X0142335Y0120896D02*
X0095296Y0120896D01*
X0095296Y0121150D02*
X0144380Y0121150D01*
X0144380Y0121405D02*
X0095296Y0121405D01*
X0095296Y0121659D02*
X0146425Y0121659D01*
X0146425Y0121913D02*
X0095296Y0121913D01*
X0095296Y0122167D02*
X0147959Y0122167D01*
X0147959Y0122421D02*
X0095296Y0122421D01*
X0095296Y0122675D02*
X0149493Y0122675D01*
X0149493Y0122930D02*
X0095296Y0122930D01*
X0095296Y0123184D02*
X0151538Y0123184D01*
X0151538Y0123438D02*
X0095296Y0123438D01*
X0095296Y0123692D02*
X0153584Y0123692D01*
X0153584Y0123946D02*
X0095296Y0123946D01*
X0095296Y0124200D02*
X0154606Y0124200D01*
X0154606Y0124454D02*
X0095296Y0124454D01*
X0095296Y0124709D02*
X0156651Y0124709D01*
X0156651Y0124963D02*
X0095296Y0124963D01*
X0095296Y0125217D02*
X0158185Y0125217D01*
X0158185Y0125471D02*
X0095296Y0125471D01*
X0095296Y0125725D02*
X0159719Y0125725D01*
X0159719Y0125979D02*
X0095296Y0125979D01*
X0095296Y0126234D02*
X0161253Y0126234D01*
X0161253Y0126488D02*
X0095296Y0126488D01*
X0095296Y0126742D02*
X0162787Y0126742D01*
X0162787Y0126996D02*
X0095296Y0126996D01*
X0095296Y0127250D02*
X0162787Y0127250D01*
X0163810Y0127504D02*
X0095296Y0127504D01*
X0095296Y0127759D02*
X0163810Y0127759D01*
X0165344Y0128013D02*
X0095296Y0128013D01*
X0095296Y0128267D02*
X0165344Y0128267D01*
X0166877Y0128521D02*
X0095296Y0128521D01*
X0095296Y0128775D02*
X0166877Y0128775D01*
X0167900Y0129029D02*
X0095296Y0129029D01*
X0095296Y0129283D02*
X0167900Y0129283D01*
X0169434Y0129538D02*
X0095296Y0129538D01*
X0095296Y0129792D02*
X0169434Y0129792D01*
X0170968Y0130046D02*
X0095296Y0130046D01*
X0095296Y0130300D02*
X0170968Y0130300D01*
X0172502Y0130554D02*
X0095296Y0130554D01*
X0095296Y0130808D02*
X0172502Y0130808D01*
X0173524Y0131063D02*
X0095296Y0131063D01*
X0095296Y0131317D02*
X0173524Y0131317D01*
X0174547Y0131571D02*
X0095296Y0131571D01*
X0095296Y0131825D02*
X0174547Y0131825D01*
X0176081Y0132079D02*
X0095296Y0132079D01*
X0095296Y0132333D02*
X0176081Y0132333D01*
X0177103Y0132588D02*
X0095296Y0132588D01*
X0095296Y0132842D02*
X0177103Y0132842D01*
X0178126Y0133096D02*
X0095296Y0133096D01*
X0095296Y0133350D02*
X0178126Y0133350D01*
X0179149Y0133604D02*
X0095296Y0133604D01*
X0095296Y0133858D02*
X0179149Y0133858D01*
X0180171Y0134113D02*
X0095296Y0134113D01*
X0095296Y0134367D02*
X0180171Y0134367D01*
X0181194Y0134621D02*
X0095296Y0134621D01*
X0095296Y0134875D02*
X0181194Y0134875D01*
X0182216Y0135129D02*
X0095296Y0135129D01*
X0095296Y0135383D02*
X0182216Y0135383D01*
X0182728Y0135637D02*
X0095296Y0135637D01*
X0095296Y0135892D02*
X0182728Y0135892D01*
X0183239Y0136146D02*
X0095296Y0136146D01*
X0095296Y0136400D02*
X0183239Y0136400D01*
X0183750Y0136654D02*
X0095296Y0136654D01*
X0095296Y0136908D02*
X0183750Y0136908D01*
X0184262Y0137162D02*
X0095296Y0137162D01*
X0095296Y0137417D02*
X0184262Y0137417D01*
X0184773Y0137671D02*
X0095296Y0137671D01*
X0095296Y0137925D02*
X0184773Y0137925D01*
X0185284Y0138179D02*
X0095296Y0138179D01*
X0095296Y0138433D02*
X0185284Y0138433D01*
X0185796Y0138687D02*
X0095296Y0138687D01*
X0095296Y0138942D02*
X0185796Y0138942D01*
X0186307Y0139196D02*
X0095296Y0139196D01*
X0095296Y0139450D02*
X0186307Y0139450D01*
X0186818Y0139704D02*
X0095296Y0139704D01*
X0095296Y0139958D02*
X0186818Y0139958D01*
X0187329Y0140212D02*
X0095296Y0140212D01*
X0095296Y0140466D02*
X0187329Y0140466D01*
X0187841Y0140721D02*
X0095296Y0140721D01*
X0095296Y0140975D02*
X0187841Y0140975D01*
X0188352Y0141229D02*
X0095296Y0141229D01*
X0095296Y0141483D02*
X0188352Y0141483D01*
X0188863Y0141737D02*
X0095296Y0141737D01*
X0095296Y0141991D02*
X0188863Y0141991D01*
X0189375Y0142246D02*
X0095296Y0142246D01*
X0095296Y0142500D02*
X0189375Y0142500D01*
X0189886Y0142754D02*
X0095296Y0142754D01*
X0095296Y0143008D02*
X0189886Y0143008D01*
X0190397Y0143262D02*
X0095296Y0143262D01*
X0095296Y0143516D02*
X0190397Y0143516D01*
X0190909Y0143771D02*
X0095296Y0143771D01*
X0095296Y0144025D02*
X0190909Y0144025D01*
X0191420Y0144279D02*
X0095296Y0144279D01*
X0095296Y0144533D02*
X0191420Y0144533D01*
X0191931Y0144787D02*
X0095296Y0144787D01*
X0095296Y0145041D02*
X0191931Y0145041D01*
X0192442Y0145295D02*
X0095296Y0145295D01*
X0095296Y0145550D02*
X0192442Y0145550D01*
X0192954Y0145804D02*
X0095296Y0145804D01*
X0095296Y0146058D02*
X0192954Y0146058D01*
X0193465Y0146312D02*
X0095296Y0146312D01*
X0095296Y0146566D02*
X0193465Y0146566D01*
X0193976Y0146820D02*
X0095296Y0146820D01*
X0095296Y0147075D02*
X0193976Y0147075D01*
X0194488Y0147329D02*
X0095296Y0147329D01*
X0095296Y0147583D02*
X0194488Y0147583D01*
X0194999Y0147837D02*
X0095296Y0147837D01*
X0095296Y0148091D02*
X0194999Y0148091D01*
X0195510Y0148345D02*
X0095296Y0148345D01*
X0095296Y0148600D02*
X0195510Y0148600D01*
X0196022Y0148854D02*
X0095296Y0148854D01*
X0095296Y0149108D02*
X0196022Y0149108D01*
X0196533Y0149362D02*
X0095296Y0149362D01*
X0095296Y0149616D02*
X0196533Y0149616D01*
X0197044Y0149870D02*
X0095296Y0149870D01*
X0095296Y0150124D02*
X0197044Y0150124D01*
X0197555Y0150379D02*
X0095296Y0150379D01*
X0095296Y0150633D02*
X0197555Y0150633D01*
X0198067Y0150887D02*
X0095296Y0150887D01*
X0095296Y0151141D02*
X0198067Y0151141D01*
X0198578Y0151395D02*
X0095296Y0151395D01*
X0095296Y0151649D02*
X0198578Y0151649D01*
X0199089Y0151904D02*
X0095296Y0151904D01*
X0095296Y0152158D02*
X0199089Y0152158D01*
X0199601Y0152412D02*
X0095296Y0152412D01*
X0095296Y0152666D02*
X0199601Y0152666D01*
X0200112Y0152920D02*
X0095296Y0152920D01*
X0095296Y0153174D02*
X0200112Y0153174D01*
X0200623Y0153429D02*
X0095296Y0153429D01*
X0095296Y0153683D02*
X0200623Y0153683D01*
X0201135Y0153937D02*
X0095296Y0153937D01*
X0095296Y0154191D02*
X0201135Y0154191D01*
X0201646Y0154445D02*
X0095296Y0154445D01*
X0095296Y0154699D02*
X0201646Y0154699D01*
X0177103Y0179609D02*
X0177103Y0180120D01*
X0178126Y0180120D01*
X0178126Y0180631D01*
X0179149Y0180631D01*
X0179149Y0181143D01*
X0180171Y0181143D01*
X0180171Y0181654D01*
X0181194Y0181654D01*
X0181194Y0182165D01*
X0182216Y0182165D01*
X0182216Y0182677D01*
X0182728Y0182677D01*
X0182728Y0183188D01*
X0183239Y0183188D01*
X0183239Y0183699D01*
X0183750Y0183699D01*
X0183750Y0184211D01*
X0184262Y0184211D01*
X0184262Y0184722D01*
X0184773Y0184722D01*
X0184773Y0185233D01*
X0185284Y0185233D01*
X0185284Y0185744D01*
X0185796Y0185744D01*
X0185796Y0186256D01*
X0186307Y0186256D01*
X0186307Y0186767D01*
X0186818Y0186767D01*
X0186818Y0187278D01*
X0187329Y0187278D01*
X0187329Y0187790D01*
X0187841Y0187790D01*
X0187841Y0188301D01*
X0188352Y0188301D01*
X0188352Y0188812D01*
X0188863Y0188812D01*
X0188863Y0189324D01*
X0189375Y0189324D01*
X0189375Y0189835D01*
X0189886Y0189835D01*
X0189886Y0190346D01*
X0190397Y0190346D01*
X0190397Y0190857D01*
X0190909Y0190857D01*
X0190909Y0191369D01*
X0191420Y0191369D01*
X0191420Y0191880D01*
X0191931Y0191880D01*
X0191931Y0192391D01*
X0192442Y0192391D01*
X0192442Y0192903D01*
X0192954Y0192903D01*
X0192954Y0193414D01*
X0193465Y0193414D01*
X0193465Y0193925D01*
X0193976Y0193925D01*
X0193976Y0194437D01*
X0194488Y0194437D01*
X0194488Y0194948D01*
X0194999Y0194948D01*
X0194999Y0195459D01*
X0195510Y0195459D01*
X0195510Y0195970D01*
X0196022Y0195970D01*
X0196022Y0196482D01*
X0196533Y0196482D01*
X0196533Y0196993D01*
X0197044Y0196993D01*
X0197044Y0197504D01*
X0197555Y0197504D01*
X0197555Y0198016D01*
X0198067Y0198016D01*
X0198067Y0198527D01*
X0198578Y0198527D01*
X0198578Y0199038D01*
X0199089Y0199038D01*
X0199089Y0199550D01*
X0199601Y0199550D01*
X0199601Y0200061D01*
X0200112Y0200061D01*
X0200112Y0200572D01*
X0200623Y0200572D01*
X0200623Y0201083D01*
X0201135Y0201083D01*
X0201135Y0201595D01*
X0201646Y0201595D01*
X0201646Y0202106D01*
X0178126Y0202106D01*
X0095296Y0202106D01*
X0095296Y0162736D01*
X0108589Y0162736D01*
X0108589Y0163247D01*
X0115236Y0163247D01*
X0115236Y0163759D01*
X0119838Y0163759D01*
X0119838Y0164270D01*
X0123928Y0164270D01*
X0123928Y0164781D01*
X0126996Y0164781D01*
X0126996Y0165292D01*
X0130064Y0165292D01*
X0130064Y0165804D01*
X0132620Y0165804D01*
X0132620Y0166315D01*
X0135177Y0166315D01*
X0135177Y0166826D01*
X0137733Y0166826D01*
X0137733Y0167338D01*
X0139779Y0167338D01*
X0139779Y0167849D01*
X0142335Y0167849D01*
X0142335Y0168360D01*
X0144380Y0168360D01*
X0144380Y0168872D01*
X0146425Y0168872D01*
X0146425Y0169383D01*
X0147959Y0169383D01*
X0147959Y0169894D01*
X0149493Y0169894D01*
X0149493Y0170405D01*
X0151538Y0170405D01*
X0151538Y0170917D01*
X0153584Y0170917D01*
X0153584Y0171428D01*
X0154606Y0171428D01*
X0154606Y0171939D01*
X0156651Y0171939D01*
X0156651Y0172451D01*
X0158185Y0172451D01*
X0158185Y0172962D01*
X0159719Y0172962D01*
X0159719Y0173473D01*
X0161253Y0173473D01*
X0161253Y0173985D01*
X0162787Y0173985D01*
X0162787Y0174496D01*
X0163810Y0174496D01*
X0163810Y0175007D01*
X0165344Y0175007D01*
X0165344Y0175518D01*
X0166877Y0175518D01*
X0166877Y0176030D01*
X0167900Y0176030D01*
X0167900Y0176541D01*
X0169434Y0176541D01*
X0169434Y0177052D01*
X0170968Y0177052D01*
X0170968Y0177564D01*
X0172502Y0177564D01*
X0172502Y0178075D01*
X0173524Y0178075D01*
X0173524Y0178586D01*
X0174547Y0178586D01*
X0174547Y0179098D01*
X0176081Y0179098D01*
X0176081Y0179609D01*
X0177103Y0179609D01*
X0177103Y0179861D02*
X0095296Y0179861D01*
X0095296Y0179607D02*
X0176081Y0179607D01*
X0176081Y0179353D02*
X0095296Y0179353D01*
X0095296Y0179099D02*
X0176081Y0179099D01*
X0177103Y0180115D02*
X0095296Y0180115D01*
X0095296Y0180369D02*
X0178126Y0180369D01*
X0178126Y0180623D02*
X0095296Y0180623D01*
X0095296Y0180878D02*
X0179149Y0180878D01*
X0179149Y0181132D02*
X0095296Y0181132D01*
X0095296Y0181386D02*
X0180171Y0181386D01*
X0180171Y0181640D02*
X0095296Y0181640D01*
X0095296Y0181894D02*
X0181194Y0181894D01*
X0181194Y0182148D02*
X0095296Y0182148D01*
X0095296Y0182403D02*
X0182216Y0182403D01*
X0182216Y0182657D02*
X0095296Y0182657D01*
X0095296Y0182911D02*
X0182728Y0182911D01*
X0182728Y0183165D02*
X0095296Y0183165D01*
X0095296Y0183419D02*
X0183239Y0183419D01*
X0183239Y0183673D02*
X0095296Y0183673D01*
X0095296Y0183928D02*
X0183750Y0183928D01*
X0183750Y0184182D02*
X0095296Y0184182D01*
X0095296Y0184436D02*
X0184262Y0184436D01*
X0184262Y0184690D02*
X0095296Y0184690D01*
X0095296Y0184944D02*
X0184773Y0184944D01*
X0184773Y0185198D02*
X0095296Y0185198D01*
X0095296Y0185453D02*
X0185284Y0185453D01*
X0185284Y0185707D02*
X0095296Y0185707D01*
X0095296Y0185961D02*
X0185796Y0185961D01*
X0185796Y0186215D02*
X0095296Y0186215D01*
X0095296Y0186469D02*
X0186307Y0186469D01*
X0186307Y0186723D02*
X0095296Y0186723D01*
X0095296Y0186977D02*
X0186818Y0186977D01*
X0186818Y0187232D02*
X0095296Y0187232D01*
X0095296Y0187486D02*
X0187329Y0187486D01*
X0187329Y0187740D02*
X0095296Y0187740D01*
X0095296Y0187994D02*
X0187841Y0187994D01*
X0187841Y0188248D02*
X0095296Y0188248D01*
X0095296Y0188502D02*
X0188352Y0188502D01*
X0188352Y0188757D02*
X0095296Y0188757D01*
X0095296Y0189011D02*
X0188863Y0189011D01*
X0188863Y0189265D02*
X0095296Y0189265D01*
X0095296Y0189519D02*
X0189375Y0189519D01*
X0189375Y0189773D02*
X0095296Y0189773D01*
X0095296Y0190027D02*
X0189886Y0190027D01*
X0189886Y0190282D02*
X0095296Y0190282D01*
X0095296Y0190536D02*
X0190397Y0190536D01*
X0190397Y0190790D02*
X0095296Y0190790D01*
X0095296Y0191044D02*
X0190909Y0191044D01*
X0190909Y0191298D02*
X0095296Y0191298D01*
X0095296Y0191552D02*
X0191420Y0191552D01*
X0191420Y0191806D02*
X0095296Y0191806D01*
X0095296Y0192061D02*
X0191931Y0192061D01*
X0191931Y0192315D02*
X0095296Y0192315D01*
X0095296Y0192569D02*
X0192442Y0192569D01*
X0192442Y0192823D02*
X0095296Y0192823D01*
X0095296Y0193077D02*
X0192954Y0193077D01*
X0192954Y0193331D02*
X0095296Y0193331D01*
X0095296Y0193586D02*
X0193465Y0193586D01*
X0193465Y0193840D02*
X0095296Y0193840D01*
X0095296Y0194094D02*
X0193976Y0194094D01*
X0193976Y0194348D02*
X0095296Y0194348D01*
X0095296Y0194602D02*
X0194488Y0194602D01*
X0194488Y0194856D02*
X0095296Y0194856D01*
X0095296Y0195111D02*
X0194999Y0195111D01*
X0194999Y0195365D02*
X0095296Y0195365D01*
X0095296Y0195619D02*
X0195510Y0195619D01*
X0195510Y0195873D02*
X0095296Y0195873D01*
X0095296Y0196127D02*
X0196022Y0196127D01*
X0196022Y0196381D02*
X0095296Y0196381D01*
X0095296Y0196635D02*
X0196533Y0196635D01*
X0196533Y0196890D02*
X0095296Y0196890D01*
X0095296Y0197144D02*
X0197044Y0197144D01*
X0197044Y0197398D02*
X0095296Y0197398D01*
X0095296Y0197652D02*
X0197555Y0197652D01*
X0197555Y0197906D02*
X0095296Y0197906D01*
X0095296Y0198160D02*
X0198067Y0198160D01*
X0198067Y0198415D02*
X0095296Y0198415D01*
X0095296Y0198669D02*
X0198578Y0198669D01*
X0198578Y0198923D02*
X0095296Y0198923D01*
X0095296Y0199177D02*
X0199089Y0199177D01*
X0199089Y0199431D02*
X0095296Y0199431D01*
X0095296Y0199685D02*
X0199601Y0199685D01*
X0199601Y0199940D02*
X0095296Y0199940D01*
X0095296Y0200194D02*
X0200112Y0200194D01*
X0200112Y0200448D02*
X0095296Y0200448D01*
X0095296Y0200702D02*
X0200623Y0200702D01*
X0200623Y0200956D02*
X0095296Y0200956D01*
X0095296Y0201210D02*
X0201135Y0201210D01*
X0201135Y0201464D02*
X0095296Y0201464D01*
X0095296Y0201719D02*
X0201646Y0201719D01*
X0201646Y0201973D02*
X0095296Y0201973D01*
X0095296Y0178844D02*
X0174547Y0178844D01*
X0174547Y0178590D02*
X0095296Y0178590D01*
X0095296Y0178336D02*
X0173524Y0178336D01*
X0173524Y0178082D02*
X0095296Y0178082D01*
X0095296Y0177828D02*
X0172502Y0177828D01*
X0172502Y0177574D02*
X0095296Y0177574D01*
X0095296Y0177319D02*
X0170968Y0177319D01*
X0170968Y0177065D02*
X0095296Y0177065D01*
X0095296Y0176811D02*
X0169434Y0176811D01*
X0169434Y0176557D02*
X0095296Y0176557D01*
X0095296Y0176303D02*
X0167900Y0176303D01*
X0167900Y0176049D02*
X0095296Y0176049D01*
X0095296Y0175794D02*
X0166877Y0175794D01*
X0166877Y0175540D02*
X0095296Y0175540D01*
X0095296Y0175286D02*
X0165344Y0175286D01*
X0165344Y0175032D02*
X0095296Y0175032D01*
X0095296Y0174778D02*
X0163810Y0174778D01*
X0163810Y0174524D02*
X0095296Y0174524D01*
X0095296Y0174270D02*
X0162787Y0174270D01*
X0162787Y0174015D02*
X0095296Y0174015D01*
X0095296Y0173761D02*
X0161253Y0173761D01*
X0161253Y0173507D02*
X0095296Y0173507D01*
X0095296Y0173253D02*
X0159719Y0173253D01*
X0159719Y0172999D02*
X0095296Y0172999D01*
X0095296Y0172745D02*
X0158185Y0172745D01*
X0158185Y0172490D02*
X0095296Y0172490D01*
X0095296Y0172236D02*
X0156651Y0172236D01*
X0156651Y0171982D02*
X0095296Y0171982D01*
X0095296Y0171728D02*
X0154606Y0171728D01*
X0154606Y0171474D02*
X0095296Y0171474D01*
X0095296Y0171220D02*
X0153584Y0171220D01*
X0153584Y0170965D02*
X0095296Y0170965D01*
X0095296Y0170711D02*
X0151538Y0170711D01*
X0151538Y0170457D02*
X0095296Y0170457D01*
X0095296Y0170203D02*
X0149493Y0170203D01*
X0149493Y0169949D02*
X0095296Y0169949D01*
X0095296Y0169695D02*
X0147959Y0169695D01*
X0147959Y0169441D02*
X0095296Y0169441D01*
X0095296Y0169186D02*
X0146425Y0169186D01*
X0146425Y0168932D02*
X0095296Y0168932D01*
X0095296Y0168678D02*
X0144380Y0168678D01*
X0144380Y0168424D02*
X0095296Y0168424D01*
X0095296Y0168170D02*
X0142335Y0168170D01*
X0142335Y0167916D02*
X0095296Y0167916D01*
X0095296Y0167661D02*
X0139779Y0167661D01*
X0139779Y0167407D02*
X0095296Y0167407D01*
X0095296Y0167153D02*
X0137733Y0167153D01*
X0137733Y0166899D02*
X0095296Y0166899D01*
X0095296Y0166645D02*
X0135177Y0166645D01*
X0135177Y0166391D02*
X0095296Y0166391D01*
X0095296Y0166136D02*
X0132620Y0166136D01*
X0132620Y0165882D02*
X0095296Y0165882D01*
X0095296Y0165628D02*
X0130064Y0165628D01*
X0130064Y0165374D02*
X0095296Y0165374D01*
X0095296Y0165120D02*
X0126996Y0165120D01*
X0126996Y0164866D02*
X0095296Y0164866D01*
X0095296Y0164612D02*
X0123928Y0164612D01*
X0123928Y0164357D02*
X0095296Y0164357D01*
X0095296Y0164103D02*
X0119838Y0164103D01*
X0119838Y0163849D02*
X0095296Y0163849D01*
X0095296Y0163595D02*
X0115236Y0163595D01*
X0115236Y0163341D02*
X0095296Y0163341D01*
X0095296Y0163087D02*
X0108589Y0163087D01*
X0108589Y0162832D02*
X0095296Y0162832D01*
X0115492Y0111555D02*
X0115492Y0098261D01*
X0116003Y0098261D01*
X0116003Y0091614D01*
X0116514Y0091614D01*
X0116514Y0087012D01*
X0117026Y0087012D01*
X0117026Y0082922D01*
X0117537Y0082922D01*
X0117537Y0079854D01*
X0118048Y0079854D01*
X0118048Y0076786D01*
X0118560Y0076786D01*
X0118560Y0074230D01*
X0119071Y0074230D01*
X0119071Y0071673D01*
X0119582Y0071673D01*
X0119582Y0069117D01*
X0120094Y0069117D01*
X0120094Y0067072D01*
X0120605Y0067072D01*
X0120605Y0064515D01*
X0121116Y0064515D01*
X0121116Y0062470D01*
X0121627Y0062470D01*
X0121627Y0060425D01*
X0122139Y0060425D01*
X0122139Y0058891D01*
X0122650Y0058891D01*
X0122650Y0057357D01*
X0123161Y0057357D01*
X0123161Y0055312D01*
X0123673Y0055312D01*
X0123673Y0053267D01*
X0124184Y0053267D01*
X0124184Y0052244D01*
X0124695Y0052244D01*
X0124695Y0050199D01*
X0125207Y0050199D01*
X0125207Y0048665D01*
X0125718Y0048665D01*
X0125718Y0047131D01*
X0126229Y0047131D01*
X0126229Y0045597D01*
X0126740Y0045597D01*
X0126740Y0044063D01*
X0127252Y0044063D01*
X0127252Y0043041D01*
X0127763Y0043041D01*
X0127763Y0041507D01*
X0128274Y0041507D01*
X0128274Y0039973D01*
X0128786Y0039973D01*
X0128786Y0038950D01*
X0129297Y0038950D01*
X0129297Y0037416D01*
X0129808Y0037416D01*
X0129808Y0035883D01*
X0130320Y0035883D01*
X0130320Y0034349D01*
X0130831Y0034349D01*
X0130831Y0033326D01*
X0131342Y0033326D01*
X0131342Y0032303D01*
X0131853Y0032303D01*
X0131853Y0030770D01*
X0132365Y0030770D01*
X0132365Y0029747D01*
X0132876Y0029747D01*
X0132876Y0028724D01*
X0133387Y0028724D01*
X0133387Y0027702D01*
X0133899Y0027702D01*
X0133899Y0026679D01*
X0134410Y0026679D01*
X0134410Y0025657D01*
X0134921Y0025657D01*
X0134921Y0024634D01*
X0135433Y0024634D01*
X0135433Y0024123D01*
X0135944Y0024123D01*
X0135944Y0023611D01*
X0136455Y0023611D01*
X0136455Y0023100D01*
X0136966Y0023100D01*
X0136966Y0022589D01*
X0137478Y0022589D01*
X0137478Y0022077D01*
X0137989Y0022077D01*
X0137989Y0021566D01*
X0138500Y0021566D01*
X0138500Y0021055D01*
X0139012Y0021055D01*
X0139012Y0020544D01*
X0139523Y0020544D01*
X0139523Y0020032D01*
X0140034Y0020032D01*
X0140034Y0019521D01*
X0140546Y0019521D01*
X0140546Y0019010D01*
X0141057Y0019010D01*
X0141057Y0018498D01*
X0141568Y0018498D01*
X0141568Y0017987D01*
X0142079Y0017987D01*
X0142079Y0017476D01*
X0142591Y0017476D01*
X0142591Y0016964D01*
X0143102Y0016964D01*
X0143102Y0016453D01*
X0143613Y0016453D01*
X0143613Y0015942D01*
X0144125Y0015942D01*
X0144125Y0015431D01*
X0144636Y0015431D01*
X0144636Y0014919D01*
X0145147Y0014919D01*
X0145147Y0014408D01*
X0145659Y0014408D01*
X0145659Y0013897D01*
X0146170Y0013897D01*
X0146170Y0013385D01*
X0146681Y0013385D01*
X0146681Y0012874D01*
X0147192Y0012874D01*
X0147192Y0012363D01*
X0147704Y0012363D01*
X0147704Y0011851D01*
X0148215Y0011851D01*
X0148215Y0011340D01*
X0148726Y0011340D01*
X0148726Y0010829D01*
X0149238Y0010829D01*
X0149238Y0010318D01*
X0149749Y0010318D01*
X0149749Y0009806D01*
X0150260Y0009806D01*
X0150260Y0009295D01*
X0150772Y0009295D01*
X0150772Y0008784D01*
X0151283Y0008784D01*
X0151283Y0008272D01*
X0151794Y0008272D01*
X0151794Y0007761D01*
X0152305Y0007761D01*
X0152305Y0007250D01*
X0152817Y0007250D01*
X0152817Y0006738D01*
X0153328Y0006738D01*
X0153328Y0006227D01*
X0153839Y0006227D01*
X0153839Y0005716D01*
X0154351Y0005716D01*
X0154351Y0005205D01*
X0154862Y0005205D01*
X0154862Y0028724D01*
X0154862Y0111555D01*
X0115492Y0111555D01*
X0115492Y0111492D02*
X0154862Y0111492D01*
X0154862Y0111238D02*
X0115492Y0111238D01*
X0115492Y0110984D02*
X0154862Y0110984D01*
X0154862Y0110730D02*
X0115492Y0110730D01*
X0115492Y0110476D02*
X0154862Y0110476D01*
X0154862Y0110222D02*
X0115492Y0110222D01*
X0115492Y0109967D02*
X0154862Y0109967D01*
X0154862Y0109713D02*
X0115492Y0109713D01*
X0115492Y0109459D02*
X0154862Y0109459D01*
X0154862Y0109205D02*
X0115492Y0109205D01*
X0115492Y0108951D02*
X0154862Y0108951D01*
X0154862Y0108697D02*
X0115492Y0108697D01*
X0115492Y0108442D02*
X0154862Y0108442D01*
X0154862Y0108188D02*
X0115492Y0108188D01*
X0115492Y0107934D02*
X0154862Y0107934D01*
X0154862Y0107680D02*
X0115492Y0107680D01*
X0115492Y0107426D02*
X0154862Y0107426D01*
X0154862Y0107172D02*
X0115492Y0107172D01*
X0115492Y0106918D02*
X0154862Y0106918D01*
X0154862Y0106663D02*
X0115492Y0106663D01*
X0115492Y0106409D02*
X0154862Y0106409D01*
X0154862Y0106155D02*
X0115492Y0106155D01*
X0115492Y0105901D02*
X0154862Y0105901D01*
X0154862Y0105647D02*
X0115492Y0105647D01*
X0115492Y0105393D02*
X0154862Y0105393D01*
X0154862Y0105138D02*
X0115492Y0105138D01*
X0115492Y0104884D02*
X0154862Y0104884D01*
X0154862Y0104630D02*
X0115492Y0104630D01*
X0115492Y0104376D02*
X0154862Y0104376D01*
X0154862Y0104122D02*
X0115492Y0104122D01*
X0115492Y0103868D02*
X0154862Y0103868D01*
X0154862Y0103613D02*
X0115492Y0103613D01*
X0115492Y0103359D02*
X0154862Y0103359D01*
X0154862Y0103105D02*
X0115492Y0103105D01*
X0115492Y0102851D02*
X0154862Y0102851D01*
X0154862Y0102597D02*
X0115492Y0102597D01*
X0115492Y0102343D02*
X0154862Y0102343D01*
X0154862Y0102089D02*
X0115492Y0102089D01*
X0115492Y0101834D02*
X0154862Y0101834D01*
X0154862Y0101580D02*
X0115492Y0101580D01*
X0115492Y0101326D02*
X0154862Y0101326D01*
X0154862Y0101072D02*
X0115492Y0101072D01*
X0115492Y0100818D02*
X0154862Y0100818D01*
X0154862Y0100564D02*
X0115492Y0100564D01*
X0115492Y0100309D02*
X0154862Y0100309D01*
X0154862Y0100055D02*
X0115492Y0100055D01*
X0115492Y0099801D02*
X0154862Y0099801D01*
X0154862Y0099547D02*
X0115492Y0099547D01*
X0115492Y0099293D02*
X0154862Y0099293D01*
X0154862Y0099039D02*
X0115492Y0099039D01*
X0115492Y0098784D02*
X0154862Y0098784D01*
X0154862Y0098530D02*
X0115492Y0098530D01*
X0115492Y0098276D02*
X0154862Y0098276D01*
X0154862Y0098022D02*
X0116003Y0098022D01*
X0116003Y0097768D02*
X0154862Y0097768D01*
X0154862Y0097514D02*
X0116003Y0097514D01*
X0116003Y0097260D02*
X0154862Y0097260D01*
X0154862Y0097005D02*
X0116003Y0097005D01*
X0116003Y0096751D02*
X0154862Y0096751D01*
X0154862Y0096497D02*
X0116003Y0096497D01*
X0116003Y0096243D02*
X0154862Y0096243D01*
X0154862Y0095989D02*
X0116003Y0095989D01*
X0116003Y0095735D02*
X0154862Y0095735D01*
X0154862Y0095480D02*
X0116003Y0095480D01*
X0116003Y0095226D02*
X0154862Y0095226D01*
X0154862Y0094972D02*
X0116003Y0094972D01*
X0116003Y0094718D02*
X0154862Y0094718D01*
X0154862Y0094464D02*
X0116003Y0094464D01*
X0116003Y0094210D02*
X0154862Y0094210D01*
X0154862Y0093955D02*
X0116003Y0093955D01*
X0116003Y0093701D02*
X0154862Y0093701D01*
X0154862Y0093447D02*
X0116003Y0093447D01*
X0116003Y0093193D02*
X0154862Y0093193D01*
X0154862Y0092939D02*
X0116003Y0092939D01*
X0116003Y0092685D02*
X0154862Y0092685D01*
X0154862Y0092431D02*
X0116003Y0092431D01*
X0116003Y0092176D02*
X0154862Y0092176D01*
X0154862Y0091922D02*
X0116003Y0091922D01*
X0116003Y0091668D02*
X0154862Y0091668D01*
X0154862Y0091414D02*
X0116514Y0091414D01*
X0116514Y0091160D02*
X0154862Y0091160D01*
X0154862Y0090906D02*
X0116514Y0090906D01*
X0116514Y0090651D02*
X0154862Y0090651D01*
X0154862Y0090397D02*
X0116514Y0090397D01*
X0116514Y0090143D02*
X0154862Y0090143D01*
X0154862Y0089889D02*
X0116514Y0089889D01*
X0116514Y0089635D02*
X0154862Y0089635D01*
X0154862Y0089381D02*
X0116514Y0089381D01*
X0116514Y0089126D02*
X0154862Y0089126D01*
X0154862Y0088872D02*
X0116514Y0088872D01*
X0116514Y0088618D02*
X0154862Y0088618D01*
X0154862Y0088364D02*
X0116514Y0088364D01*
X0116514Y0088110D02*
X0154862Y0088110D01*
X0154862Y0087856D02*
X0116514Y0087856D01*
X0116514Y0087602D02*
X0154862Y0087602D01*
X0154862Y0087347D02*
X0116514Y0087347D01*
X0116514Y0087093D02*
X0154862Y0087093D01*
X0154862Y0086839D02*
X0117026Y0086839D01*
X0117026Y0086585D02*
X0154862Y0086585D01*
X0154862Y0086331D02*
X0117026Y0086331D01*
X0117026Y0086077D02*
X0154862Y0086077D01*
X0154862Y0085822D02*
X0117026Y0085822D01*
X0117026Y0085568D02*
X0154862Y0085568D01*
X0154862Y0085314D02*
X0117026Y0085314D01*
X0117026Y0085060D02*
X0154862Y0085060D01*
X0154862Y0084806D02*
X0117026Y0084806D01*
X0117026Y0084552D02*
X0154862Y0084552D01*
X0154862Y0084297D02*
X0117026Y0084297D01*
X0117026Y0084043D02*
X0154862Y0084043D01*
X0154862Y0083789D02*
X0117026Y0083789D01*
X0117026Y0083535D02*
X0154862Y0083535D01*
X0154862Y0083281D02*
X0117026Y0083281D01*
X0117026Y0083027D02*
X0154862Y0083027D01*
X0154862Y0082772D02*
X0117537Y0082772D01*
X0117537Y0082518D02*
X0154862Y0082518D01*
X0154862Y0082264D02*
X0117537Y0082264D01*
X0117537Y0082010D02*
X0154862Y0082010D01*
X0154862Y0081756D02*
X0117537Y0081756D01*
X0117537Y0081502D02*
X0154862Y0081502D01*
X0154862Y0081248D02*
X0117537Y0081248D01*
X0117537Y0080993D02*
X0154862Y0080993D01*
X0154862Y0080739D02*
X0117537Y0080739D01*
X0117537Y0080485D02*
X0154862Y0080485D01*
X0154862Y0080231D02*
X0117537Y0080231D01*
X0117537Y0079977D02*
X0154862Y0079977D01*
X0154862Y0079723D02*
X0118048Y0079723D01*
X0118048Y0079468D02*
X0154862Y0079468D01*
X0154862Y0079214D02*
X0118048Y0079214D01*
X0118048Y0078960D02*
X0154862Y0078960D01*
X0154862Y0078706D02*
X0118048Y0078706D01*
X0118048Y0078452D02*
X0154862Y0078452D01*
X0154862Y0078198D02*
X0118048Y0078198D01*
X0118048Y0077943D02*
X0154862Y0077943D01*
X0154862Y0077689D02*
X0118048Y0077689D01*
X0118048Y0077435D02*
X0154862Y0077435D01*
X0154862Y0077181D02*
X0118048Y0077181D01*
X0118048Y0076927D02*
X0154862Y0076927D01*
X0154862Y0076673D02*
X0118560Y0076673D01*
X0118560Y0076419D02*
X0154862Y0076419D01*
X0154862Y0076164D02*
X0118560Y0076164D01*
X0118560Y0075910D02*
X0154862Y0075910D01*
X0154862Y0075656D02*
X0118560Y0075656D01*
X0118560Y0075402D02*
X0154862Y0075402D01*
X0154862Y0075148D02*
X0118560Y0075148D01*
X0118560Y0074894D02*
X0154862Y0074894D01*
X0154862Y0074639D02*
X0118560Y0074639D01*
X0118560Y0074385D02*
X0154862Y0074385D01*
X0154862Y0074131D02*
X0119071Y0074131D01*
X0119071Y0073877D02*
X0154862Y0073877D01*
X0154862Y0073623D02*
X0119071Y0073623D01*
X0119071Y0073369D02*
X0154862Y0073369D01*
X0154862Y0073114D02*
X0119071Y0073114D01*
X0119071Y0072860D02*
X0154862Y0072860D01*
X0154862Y0072606D02*
X0119071Y0072606D01*
X0119071Y0072352D02*
X0154862Y0072352D01*
X0154862Y0072098D02*
X0119071Y0072098D01*
X0119071Y0071844D02*
X0154862Y0071844D01*
X0154862Y0071590D02*
X0119582Y0071590D01*
X0119582Y0071335D02*
X0154862Y0071335D01*
X0154862Y0071081D02*
X0119582Y0071081D01*
X0119582Y0070827D02*
X0154862Y0070827D01*
X0154862Y0070573D02*
X0119582Y0070573D01*
X0119582Y0070319D02*
X0154862Y0070319D01*
X0154862Y0070065D02*
X0119582Y0070065D01*
X0119582Y0069810D02*
X0154862Y0069810D01*
X0154862Y0069556D02*
X0119582Y0069556D01*
X0119582Y0069302D02*
X0154862Y0069302D01*
X0154862Y0069048D02*
X0120094Y0069048D01*
X0120094Y0068794D02*
X0154862Y0068794D01*
X0154862Y0068540D02*
X0120094Y0068540D01*
X0120094Y0068285D02*
X0154862Y0068285D01*
X0154862Y0068031D02*
X0120094Y0068031D01*
X0120094Y0067777D02*
X0154862Y0067777D01*
X0154862Y0067523D02*
X0120094Y0067523D01*
X0120094Y0067269D02*
X0154862Y0067269D01*
X0154862Y0067015D02*
X0120605Y0067015D01*
X0120605Y0066761D02*
X0154862Y0066761D01*
X0154862Y0066506D02*
X0120605Y0066506D01*
X0120605Y0066252D02*
X0154862Y0066252D01*
X0154862Y0065998D02*
X0120605Y0065998D01*
X0120605Y0065744D02*
X0154862Y0065744D01*
X0154862Y0065490D02*
X0120605Y0065490D01*
X0120605Y0065236D02*
X0154862Y0065236D01*
X0154862Y0064981D02*
X0120605Y0064981D01*
X0120605Y0064727D02*
X0154862Y0064727D01*
X0154862Y0064473D02*
X0121116Y0064473D01*
X0121116Y0064219D02*
X0154862Y0064219D01*
X0154862Y0063965D02*
X0121116Y0063965D01*
X0121116Y0063711D02*
X0154862Y0063711D01*
X0154862Y0063456D02*
X0121116Y0063456D01*
X0121116Y0063202D02*
X0154862Y0063202D01*
X0154862Y0062948D02*
X0121116Y0062948D01*
X0121116Y0062694D02*
X0154862Y0062694D01*
X0154862Y0062440D02*
X0121627Y0062440D01*
X0121627Y0062186D02*
X0154862Y0062186D01*
X0154862Y0061931D02*
X0121627Y0061931D01*
X0121627Y0061677D02*
X0154862Y0061677D01*
X0154862Y0061423D02*
X0121627Y0061423D01*
X0121627Y0061169D02*
X0154862Y0061169D01*
X0154862Y0060915D02*
X0121627Y0060915D01*
X0121627Y0060661D02*
X0154862Y0060661D01*
X0154862Y0060407D02*
X0122139Y0060407D01*
X0122139Y0060152D02*
X0154862Y0060152D01*
X0154862Y0059898D02*
X0122139Y0059898D01*
X0122139Y0059644D02*
X0154862Y0059644D01*
X0154862Y0059390D02*
X0122139Y0059390D01*
X0122139Y0059136D02*
X0154862Y0059136D01*
X0154862Y0058882D02*
X0122650Y0058882D01*
X0122650Y0058627D02*
X0154862Y0058627D01*
X0154862Y0058373D02*
X0122650Y0058373D01*
X0122650Y0058119D02*
X0154862Y0058119D01*
X0154862Y0057865D02*
X0122650Y0057865D01*
X0122650Y0057611D02*
X0154862Y0057611D01*
X0154862Y0057357D02*
X0123161Y0057357D01*
X0123161Y0057102D02*
X0154862Y0057102D01*
X0154862Y0056848D02*
X0123161Y0056848D01*
X0123161Y0056594D02*
X0154862Y0056594D01*
X0154862Y0056340D02*
X0123161Y0056340D01*
X0123161Y0056086D02*
X0154862Y0056086D01*
X0154862Y0055832D02*
X0123161Y0055832D01*
X0123161Y0055578D02*
X0154862Y0055578D01*
X0154862Y0055323D02*
X0123161Y0055323D01*
X0123673Y0055069D02*
X0154862Y0055069D01*
X0154862Y0054815D02*
X0123673Y0054815D01*
X0123673Y0054561D02*
X0154862Y0054561D01*
X0154862Y0054307D02*
X0123673Y0054307D01*
X0123673Y0054053D02*
X0154862Y0054053D01*
X0154862Y0053798D02*
X0123673Y0053798D01*
X0123673Y0053544D02*
X0154862Y0053544D01*
X0154862Y0053290D02*
X0123673Y0053290D01*
X0124184Y0053036D02*
X0154862Y0053036D01*
X0154862Y0052782D02*
X0124184Y0052782D01*
X0124184Y0052528D02*
X0154862Y0052528D01*
X0154862Y0052273D02*
X0124184Y0052273D01*
X0124695Y0052019D02*
X0154862Y0052019D01*
X0154862Y0051765D02*
X0124695Y0051765D01*
X0124695Y0051511D02*
X0154862Y0051511D01*
X0154862Y0051257D02*
X0124695Y0051257D01*
X0124695Y0051003D02*
X0154862Y0051003D01*
X0154862Y0050749D02*
X0124695Y0050749D01*
X0124695Y0050494D02*
X0154862Y0050494D01*
X0154862Y0050240D02*
X0124695Y0050240D01*
X0125207Y0049986D02*
X0154862Y0049986D01*
X0154862Y0049732D02*
X0125207Y0049732D01*
X0125207Y0049478D02*
X0154862Y0049478D01*
X0154862Y0049224D02*
X0125207Y0049224D01*
X0125207Y0048969D02*
X0154862Y0048969D01*
X0154862Y0048715D02*
X0125207Y0048715D01*
X0125718Y0048461D02*
X0154862Y0048461D01*
X0154862Y0048207D02*
X0125718Y0048207D01*
X0125718Y0047953D02*
X0154862Y0047953D01*
X0154862Y0047699D02*
X0125718Y0047699D01*
X0125718Y0047444D02*
X0154862Y0047444D01*
X0154862Y0047190D02*
X0125718Y0047190D01*
X0126229Y0046936D02*
X0154862Y0046936D01*
X0154862Y0046682D02*
X0126229Y0046682D01*
X0126229Y0046428D02*
X0154862Y0046428D01*
X0154862Y0046174D02*
X0126229Y0046174D01*
X0126229Y0045920D02*
X0154862Y0045920D01*
X0154862Y0045665D02*
X0126229Y0045665D01*
X0126740Y0045411D02*
X0154862Y0045411D01*
X0154862Y0045157D02*
X0126740Y0045157D01*
X0126740Y0044903D02*
X0154862Y0044903D01*
X0154862Y0044649D02*
X0126740Y0044649D01*
X0126740Y0044395D02*
X0154862Y0044395D01*
X0154862Y0044140D02*
X0126740Y0044140D01*
X0127252Y0043886D02*
X0154862Y0043886D01*
X0154862Y0043632D02*
X0127252Y0043632D01*
X0127252Y0043378D02*
X0154862Y0043378D01*
X0154862Y0043124D02*
X0127252Y0043124D01*
X0127763Y0042870D02*
X0154862Y0042870D01*
X0154862Y0042615D02*
X0127763Y0042615D01*
X0127763Y0042361D02*
X0154862Y0042361D01*
X0154862Y0042107D02*
X0127763Y0042107D01*
X0127763Y0041853D02*
X0154862Y0041853D01*
X0154862Y0041599D02*
X0127763Y0041599D01*
X0128274Y0041345D02*
X0154862Y0041345D01*
X0154862Y0041091D02*
X0128274Y0041091D01*
X0128274Y0040836D02*
X0154862Y0040836D01*
X0154862Y0040582D02*
X0128274Y0040582D01*
X0128274Y0040328D02*
X0154862Y0040328D01*
X0154862Y0040074D02*
X0128274Y0040074D01*
X0128786Y0039820D02*
X0154862Y0039820D01*
X0154862Y0039566D02*
X0128786Y0039566D01*
X0128786Y0039311D02*
X0154862Y0039311D01*
X0154862Y0039057D02*
X0128786Y0039057D01*
X0129297Y0038803D02*
X0154862Y0038803D01*
X0154862Y0038549D02*
X0129297Y0038549D01*
X0129297Y0038295D02*
X0154862Y0038295D01*
X0154862Y0038041D02*
X0129297Y0038041D01*
X0129297Y0037786D02*
X0154862Y0037786D01*
X0154862Y0037532D02*
X0129297Y0037532D01*
X0129808Y0037278D02*
X0154862Y0037278D01*
X0154862Y0037024D02*
X0129808Y0037024D01*
X0129808Y0036770D02*
X0154862Y0036770D01*
X0154862Y0036516D02*
X0129808Y0036516D01*
X0129808Y0036261D02*
X0154862Y0036261D01*
X0154862Y0036007D02*
X0129808Y0036007D01*
X0130320Y0035753D02*
X0154862Y0035753D01*
X0154862Y0035499D02*
X0130320Y0035499D01*
X0130320Y0035245D02*
X0154862Y0035245D01*
X0154862Y0034991D02*
X0130320Y0034991D01*
X0130320Y0034737D02*
X0154862Y0034737D01*
X0154862Y0034482D02*
X0130320Y0034482D01*
X0130831Y0034228D02*
X0154862Y0034228D01*
X0154862Y0033974D02*
X0130831Y0033974D01*
X0130831Y0033720D02*
X0154862Y0033720D01*
X0154862Y0033466D02*
X0130831Y0033466D01*
X0131342Y0033212D02*
X0154862Y0033212D01*
X0154862Y0032957D02*
X0131342Y0032957D01*
X0131342Y0032703D02*
X0154862Y0032703D01*
X0154862Y0032449D02*
X0131342Y0032449D01*
X0131853Y0032195D02*
X0154862Y0032195D01*
X0154862Y0031941D02*
X0131853Y0031941D01*
X0131853Y0031687D02*
X0154862Y0031687D01*
X0154862Y0031432D02*
X0131853Y0031432D01*
X0131853Y0031178D02*
X0154862Y0031178D01*
X0154862Y0030924D02*
X0131853Y0030924D01*
X0132365Y0030670D02*
X0154862Y0030670D01*
X0154862Y0030416D02*
X0132365Y0030416D01*
X0132365Y0030162D02*
X0154862Y0030162D01*
X0154862Y0029908D02*
X0132365Y0029908D01*
X0132876Y0029653D02*
X0154862Y0029653D01*
X0154862Y0029399D02*
X0132876Y0029399D01*
X0132876Y0029145D02*
X0154862Y0029145D01*
X0154862Y0028891D02*
X0132876Y0028891D01*
X0133387Y0028637D02*
X0154862Y0028637D01*
X0154862Y0028383D02*
X0133387Y0028383D01*
X0133387Y0028128D02*
X0154862Y0028128D01*
X0154862Y0027874D02*
X0133387Y0027874D01*
X0133899Y0027620D02*
X0154862Y0027620D01*
X0154862Y0027366D02*
X0133899Y0027366D01*
X0133899Y0027112D02*
X0154862Y0027112D01*
X0154862Y0026858D02*
X0133899Y0026858D01*
X0134410Y0026603D02*
X0154862Y0026603D01*
X0154862Y0026349D02*
X0134410Y0026349D01*
X0134410Y0026095D02*
X0154862Y0026095D01*
X0154862Y0025841D02*
X0134410Y0025841D01*
X0134921Y0025587D02*
X0154862Y0025587D01*
X0154862Y0025333D02*
X0134921Y0025333D01*
X0134921Y0025079D02*
X0154862Y0025079D01*
X0154862Y0024824D02*
X0134921Y0024824D01*
X0135433Y0024570D02*
X0154862Y0024570D01*
X0154862Y0024316D02*
X0135433Y0024316D01*
X0135944Y0024062D02*
X0154862Y0024062D01*
X0154862Y0023808D02*
X0135944Y0023808D01*
X0136455Y0023554D02*
X0154862Y0023554D01*
X0154862Y0023299D02*
X0136455Y0023299D01*
X0136966Y0023045D02*
X0154862Y0023045D01*
X0154862Y0022791D02*
X0136966Y0022791D01*
X0137478Y0022537D02*
X0154862Y0022537D01*
X0154862Y0022283D02*
X0137478Y0022283D01*
X0137989Y0022029D02*
X0154862Y0022029D01*
X0154862Y0021774D02*
X0137989Y0021774D01*
X0138500Y0021520D02*
X0154862Y0021520D01*
X0154862Y0021266D02*
X0138500Y0021266D01*
X0139012Y0021012D02*
X0154862Y0021012D01*
X0154862Y0020758D02*
X0139012Y0020758D01*
X0139523Y0020504D02*
X0154862Y0020504D01*
X0154862Y0020250D02*
X0139523Y0020250D01*
X0140034Y0019995D02*
X0154862Y0019995D01*
X0154862Y0019741D02*
X0140034Y0019741D01*
X0140546Y0019487D02*
X0154862Y0019487D01*
X0154862Y0019233D02*
X0140546Y0019233D01*
X0141057Y0018979D02*
X0154862Y0018979D01*
X0154862Y0018725D02*
X0141057Y0018725D01*
X0141568Y0018470D02*
X0154862Y0018470D01*
X0154862Y0018216D02*
X0141568Y0018216D01*
X0142079Y0017962D02*
X0154862Y0017962D01*
X0154862Y0017708D02*
X0142079Y0017708D01*
X0142591Y0017454D02*
X0154862Y0017454D01*
X0154862Y0017200D02*
X0142591Y0017200D01*
X0143102Y0016945D02*
X0154862Y0016945D01*
X0154862Y0016691D02*
X0143102Y0016691D01*
X0143613Y0016437D02*
X0154862Y0016437D01*
X0154862Y0016183D02*
X0143613Y0016183D01*
X0144125Y0015929D02*
X0154862Y0015929D01*
X0154862Y0015675D02*
X0144125Y0015675D01*
X0144636Y0015420D02*
X0154862Y0015420D01*
X0154862Y0015166D02*
X0144636Y0015166D01*
X0145147Y0014912D02*
X0154862Y0014912D01*
X0154862Y0014658D02*
X0145147Y0014658D01*
X0145659Y0014404D02*
X0154862Y0014404D01*
X0154862Y0014150D02*
X0145659Y0014150D01*
X0146170Y0013896D02*
X0154862Y0013896D01*
X0154862Y0013641D02*
X0146170Y0013641D01*
X0146170Y0013387D02*
X0154862Y0013387D01*
X0154862Y0013133D02*
X0146681Y0013133D01*
X0146681Y0012879D02*
X0154862Y0012879D01*
X0154862Y0012625D02*
X0147192Y0012625D01*
X0147192Y0012371D02*
X0154862Y0012371D01*
X0154862Y0012116D02*
X0147704Y0012116D01*
X0147704Y0011862D02*
X0154862Y0011862D01*
X0154862Y0011608D02*
X0148215Y0011608D01*
X0148215Y0011354D02*
X0154862Y0011354D01*
X0154862Y0011100D02*
X0148726Y0011100D01*
X0148726Y0010846D02*
X0154862Y0010846D01*
X0154862Y0010591D02*
X0149238Y0010591D01*
X0149238Y0010337D02*
X0154862Y0010337D01*
X0154862Y0010083D02*
X0149749Y0010083D01*
X0149749Y0009829D02*
X0154862Y0009829D01*
X0154862Y0009575D02*
X0150260Y0009575D01*
X0150260Y0009321D02*
X0154862Y0009321D01*
X0154862Y0009067D02*
X0150772Y0009067D01*
X0150772Y0008812D02*
X0154862Y0008812D01*
X0154862Y0008558D02*
X0151283Y0008558D01*
X0151283Y0008304D02*
X0154862Y0008304D01*
X0154862Y0008050D02*
X0151794Y0008050D01*
X0151794Y0007796D02*
X0154862Y0007796D01*
X0154862Y0007542D02*
X0152305Y0007542D01*
X0152305Y0007287D02*
X0154862Y0007287D01*
X0154862Y0007033D02*
X0152817Y0007033D01*
X0152817Y0006779D02*
X0154862Y0006779D01*
X0154862Y0006525D02*
X0153328Y0006525D01*
X0153328Y0006271D02*
X0154862Y0006271D01*
X0154862Y0006017D02*
X0153839Y0006017D01*
X0153839Y0005762D02*
X0154862Y0005762D01*
X0154862Y0005508D02*
X0154351Y0005508D01*
X0154351Y0005254D02*
X0154862Y0005254D01*
X0179609Y0029747D02*
X0180120Y0029747D01*
X0180120Y0028724D01*
X0180631Y0028724D01*
X0180631Y0027702D01*
X0181143Y0027702D01*
X0181143Y0026679D01*
X0181654Y0026679D01*
X0181654Y0025657D01*
X0182165Y0025657D01*
X0182165Y0024634D01*
X0182677Y0024634D01*
X0182677Y0024123D01*
X0183188Y0024123D01*
X0183188Y0023611D01*
X0183699Y0023611D01*
X0183699Y0023100D01*
X0184211Y0023100D01*
X0184211Y0022589D01*
X0184722Y0022589D01*
X0184722Y0022077D01*
X0185233Y0022077D01*
X0185233Y0021566D01*
X0185744Y0021566D01*
X0185744Y0021055D01*
X0186256Y0021055D01*
X0186256Y0020544D01*
X0186767Y0020544D01*
X0186767Y0020032D01*
X0187278Y0020032D01*
X0187278Y0019521D01*
X0187790Y0019521D01*
X0187790Y0019010D01*
X0188301Y0019010D01*
X0188301Y0018498D01*
X0188812Y0018498D01*
X0188812Y0017987D01*
X0189324Y0017987D01*
X0189324Y0017476D01*
X0189835Y0017476D01*
X0189835Y0016964D01*
X0190346Y0016964D01*
X0190346Y0016453D01*
X0190857Y0016453D01*
X0190857Y0015942D01*
X0191369Y0015942D01*
X0191369Y0015431D01*
X0191880Y0015431D01*
X0191880Y0014919D01*
X0192391Y0014919D01*
X0192391Y0014408D01*
X0192903Y0014408D01*
X0192903Y0013897D01*
X0193414Y0013897D01*
X0193414Y0013385D01*
X0193925Y0013385D01*
X0193925Y0012874D01*
X0194437Y0012874D01*
X0194437Y0012363D01*
X0194948Y0012363D01*
X0194948Y0011851D01*
X0195459Y0011851D01*
X0195459Y0011340D01*
X0195970Y0011340D01*
X0195970Y0010829D01*
X0196482Y0010829D01*
X0196482Y0010318D01*
X0196993Y0010318D01*
X0196993Y0009806D01*
X0197504Y0009806D01*
X0197504Y0009295D01*
X0198016Y0009295D01*
X0198016Y0008784D01*
X0198527Y0008784D01*
X0198527Y0008272D01*
X0199038Y0008272D01*
X0199038Y0007761D01*
X0199550Y0007761D01*
X0199550Y0007250D01*
X0200061Y0007250D01*
X0200061Y0006738D01*
X0200572Y0006738D01*
X0200572Y0006227D01*
X0201083Y0006227D01*
X0201083Y0005716D01*
X0201595Y0005716D01*
X0201595Y0005205D01*
X0202106Y0005205D01*
X0202106Y0028724D01*
X0202106Y0111555D01*
X0162736Y0111555D01*
X0162736Y0098261D01*
X0163247Y0098261D01*
X0163247Y0091614D01*
X0163759Y0091614D01*
X0163759Y0087012D01*
X0164270Y0087012D01*
X0164270Y0082922D01*
X0164781Y0082922D01*
X0164781Y0079854D01*
X0165292Y0079854D01*
X0165292Y0076786D01*
X0165804Y0076786D01*
X0165804Y0074230D01*
X0166315Y0074230D01*
X0166315Y0071673D01*
X0166826Y0071673D01*
X0166826Y0069117D01*
X0167338Y0069117D01*
X0167338Y0067072D01*
X0167849Y0067072D01*
X0167849Y0064515D01*
X0168360Y0064515D01*
X0168360Y0062470D01*
X0168872Y0062470D01*
X0168872Y0060425D01*
X0169383Y0060425D01*
X0169383Y0058891D01*
X0169894Y0058891D01*
X0169894Y0057357D01*
X0170405Y0057357D01*
X0170405Y0055312D01*
X0170917Y0055312D01*
X0170917Y0053267D01*
X0171428Y0053267D01*
X0171428Y0052244D01*
X0171939Y0052244D01*
X0171939Y0050199D01*
X0172451Y0050199D01*
X0172451Y0048665D01*
X0172962Y0048665D01*
X0172962Y0047131D01*
X0173473Y0047131D01*
X0173473Y0045597D01*
X0173985Y0045597D01*
X0173985Y0044063D01*
X0174496Y0044063D01*
X0174496Y0043041D01*
X0175007Y0043041D01*
X0175007Y0041507D01*
X0175518Y0041507D01*
X0175518Y0039973D01*
X0176030Y0039973D01*
X0176030Y0038950D01*
X0176541Y0038950D01*
X0176541Y0037416D01*
X0177052Y0037416D01*
X0177052Y0035883D01*
X0177564Y0035883D01*
X0177564Y0034349D01*
X0178075Y0034349D01*
X0178075Y0033326D01*
X0178586Y0033326D01*
X0178586Y0032303D01*
X0179098Y0032303D01*
X0179098Y0030770D01*
X0179609Y0030770D01*
X0179609Y0029747D01*
X0179609Y0029908D02*
X0202106Y0029908D01*
X0202106Y0030162D02*
X0179609Y0030162D01*
X0179609Y0030416D02*
X0202106Y0030416D01*
X0202106Y0030670D02*
X0179609Y0030670D01*
X0179098Y0030924D02*
X0202106Y0030924D01*
X0202106Y0031178D02*
X0179098Y0031178D01*
X0179098Y0031432D02*
X0202106Y0031432D01*
X0202106Y0031687D02*
X0179098Y0031687D01*
X0179098Y0031941D02*
X0202106Y0031941D01*
X0202106Y0032195D02*
X0179098Y0032195D01*
X0178586Y0032449D02*
X0202106Y0032449D01*
X0202106Y0032703D02*
X0178586Y0032703D01*
X0178586Y0032957D02*
X0202106Y0032957D01*
X0202106Y0033212D02*
X0178586Y0033212D01*
X0178075Y0033466D02*
X0202106Y0033466D01*
X0202106Y0033720D02*
X0178075Y0033720D01*
X0178075Y0033974D02*
X0202106Y0033974D01*
X0202106Y0034228D02*
X0178075Y0034228D01*
X0177564Y0034482D02*
X0202106Y0034482D01*
X0202106Y0034737D02*
X0177564Y0034737D01*
X0177564Y0034991D02*
X0202106Y0034991D01*
X0202106Y0035245D02*
X0177564Y0035245D01*
X0177564Y0035499D02*
X0202106Y0035499D01*
X0202106Y0035753D02*
X0177564Y0035753D01*
X0177052Y0036007D02*
X0202106Y0036007D01*
X0202106Y0036261D02*
X0177052Y0036261D01*
X0177052Y0036516D02*
X0202106Y0036516D01*
X0202106Y0036770D02*
X0177052Y0036770D01*
X0177052Y0037024D02*
X0202106Y0037024D01*
X0202106Y0037278D02*
X0177052Y0037278D01*
X0176541Y0037532D02*
X0202106Y0037532D01*
X0202106Y0037786D02*
X0176541Y0037786D01*
X0176541Y0038041D02*
X0202106Y0038041D01*
X0202106Y0038295D02*
X0176541Y0038295D01*
X0176541Y0038549D02*
X0202106Y0038549D01*
X0202106Y0038803D02*
X0176541Y0038803D01*
X0176030Y0039057D02*
X0202106Y0039057D01*
X0202106Y0039311D02*
X0176030Y0039311D01*
X0176030Y0039566D02*
X0202106Y0039566D01*
X0202106Y0039820D02*
X0176030Y0039820D01*
X0175518Y0040074D02*
X0202106Y0040074D01*
X0202106Y0040328D02*
X0175518Y0040328D01*
X0175518Y0040582D02*
X0202106Y0040582D01*
X0202106Y0040836D02*
X0175518Y0040836D01*
X0175518Y0041091D02*
X0202106Y0041091D01*
X0202106Y0041345D02*
X0175518Y0041345D01*
X0175007Y0041599D02*
X0202106Y0041599D01*
X0202106Y0041853D02*
X0175007Y0041853D01*
X0175007Y0042107D02*
X0202106Y0042107D01*
X0202106Y0042361D02*
X0175007Y0042361D01*
X0175007Y0042615D02*
X0202106Y0042615D01*
X0202106Y0042870D02*
X0175007Y0042870D01*
X0174496Y0043124D02*
X0202106Y0043124D01*
X0202106Y0043378D02*
X0174496Y0043378D01*
X0174496Y0043632D02*
X0202106Y0043632D01*
X0202106Y0043886D02*
X0174496Y0043886D01*
X0173985Y0044140D02*
X0202106Y0044140D01*
X0202106Y0044395D02*
X0173985Y0044395D01*
X0173985Y0044649D02*
X0202106Y0044649D01*
X0202106Y0044903D02*
X0173985Y0044903D01*
X0173985Y0045157D02*
X0202106Y0045157D01*
X0202106Y0045411D02*
X0173985Y0045411D01*
X0173473Y0045665D02*
X0202106Y0045665D01*
X0202106Y0045920D02*
X0173473Y0045920D01*
X0173473Y0046174D02*
X0202106Y0046174D01*
X0202106Y0046428D02*
X0173473Y0046428D01*
X0173473Y0046682D02*
X0202106Y0046682D01*
X0202106Y0046936D02*
X0173473Y0046936D01*
X0172962Y0047190D02*
X0202106Y0047190D01*
X0202106Y0047444D02*
X0172962Y0047444D01*
X0172962Y0047699D02*
X0202106Y0047699D01*
X0202106Y0047953D02*
X0172962Y0047953D01*
X0172962Y0048207D02*
X0202106Y0048207D01*
X0202106Y0048461D02*
X0172962Y0048461D01*
X0172451Y0048715D02*
X0202106Y0048715D01*
X0202106Y0048969D02*
X0172451Y0048969D01*
X0172451Y0049224D02*
X0202106Y0049224D01*
X0202106Y0049478D02*
X0172451Y0049478D01*
X0172451Y0049732D02*
X0202106Y0049732D01*
X0202106Y0049986D02*
X0172451Y0049986D01*
X0171939Y0050240D02*
X0202106Y0050240D01*
X0202106Y0050494D02*
X0171939Y0050494D01*
X0171939Y0050749D02*
X0202106Y0050749D01*
X0202106Y0051003D02*
X0171939Y0051003D01*
X0171939Y0051257D02*
X0202106Y0051257D01*
X0202106Y0051511D02*
X0171939Y0051511D01*
X0171939Y0051765D02*
X0202106Y0051765D01*
X0202106Y0052019D02*
X0171939Y0052019D01*
X0171428Y0052273D02*
X0202106Y0052273D01*
X0202106Y0052528D02*
X0171428Y0052528D01*
X0171428Y0052782D02*
X0202106Y0052782D01*
X0202106Y0053036D02*
X0171428Y0053036D01*
X0170917Y0053290D02*
X0202106Y0053290D01*
X0202106Y0053544D02*
X0170917Y0053544D01*
X0170917Y0053798D02*
X0202106Y0053798D01*
X0202106Y0054053D02*
X0170917Y0054053D01*
X0170917Y0054307D02*
X0202106Y0054307D01*
X0202106Y0054561D02*
X0170917Y0054561D01*
X0170917Y0054815D02*
X0202106Y0054815D01*
X0202106Y0055069D02*
X0170917Y0055069D01*
X0170405Y0055323D02*
X0202106Y0055323D01*
X0202106Y0055578D02*
X0170405Y0055578D01*
X0170405Y0055832D02*
X0202106Y0055832D01*
X0202106Y0056086D02*
X0170405Y0056086D01*
X0170405Y0056340D02*
X0202106Y0056340D01*
X0202106Y0056594D02*
X0170405Y0056594D01*
X0170405Y0056848D02*
X0202106Y0056848D01*
X0202106Y0057102D02*
X0170405Y0057102D01*
X0170405Y0057357D02*
X0202106Y0057357D01*
X0202106Y0057611D02*
X0169894Y0057611D01*
X0169894Y0057865D02*
X0202106Y0057865D01*
X0202106Y0058119D02*
X0169894Y0058119D01*
X0169894Y0058373D02*
X0202106Y0058373D01*
X0202106Y0058627D02*
X0169894Y0058627D01*
X0169894Y0058882D02*
X0202106Y0058882D01*
X0202106Y0059136D02*
X0169383Y0059136D01*
X0169383Y0059390D02*
X0202106Y0059390D01*
X0202106Y0059644D02*
X0169383Y0059644D01*
X0169383Y0059898D02*
X0202106Y0059898D01*
X0202106Y0060152D02*
X0169383Y0060152D01*
X0169383Y0060407D02*
X0202106Y0060407D01*
X0202106Y0060661D02*
X0168872Y0060661D01*
X0168872Y0060915D02*
X0202106Y0060915D01*
X0202106Y0061169D02*
X0168872Y0061169D01*
X0168872Y0061423D02*
X0202106Y0061423D01*
X0202106Y0061677D02*
X0168872Y0061677D01*
X0168872Y0061931D02*
X0202106Y0061931D01*
X0202106Y0062186D02*
X0168872Y0062186D01*
X0168872Y0062440D02*
X0202106Y0062440D01*
X0202106Y0062694D02*
X0168360Y0062694D01*
X0168360Y0062948D02*
X0202106Y0062948D01*
X0202106Y0063202D02*
X0168360Y0063202D01*
X0168360Y0063456D02*
X0202106Y0063456D01*
X0202106Y0063711D02*
X0168360Y0063711D01*
X0168360Y0063965D02*
X0202106Y0063965D01*
X0202106Y0064219D02*
X0168360Y0064219D01*
X0168360Y0064473D02*
X0202106Y0064473D01*
X0202106Y0064727D02*
X0167849Y0064727D01*
X0167849Y0064981D02*
X0202106Y0064981D01*
X0202106Y0065236D02*
X0167849Y0065236D01*
X0167849Y0065490D02*
X0202106Y0065490D01*
X0202106Y0065744D02*
X0167849Y0065744D01*
X0167849Y0065998D02*
X0202106Y0065998D01*
X0202106Y0066252D02*
X0167849Y0066252D01*
X0167849Y0066506D02*
X0202106Y0066506D01*
X0202106Y0066761D02*
X0167849Y0066761D01*
X0167849Y0067015D02*
X0202106Y0067015D01*
X0202106Y0067269D02*
X0167338Y0067269D01*
X0167338Y0067523D02*
X0202106Y0067523D01*
X0202106Y0067777D02*
X0167338Y0067777D01*
X0167338Y0068031D02*
X0202106Y0068031D01*
X0202106Y0068285D02*
X0167338Y0068285D01*
X0167338Y0068540D02*
X0202106Y0068540D01*
X0202106Y0068794D02*
X0167338Y0068794D01*
X0167338Y0069048D02*
X0202106Y0069048D01*
X0202106Y0069302D02*
X0166826Y0069302D01*
X0166826Y0069556D02*
X0202106Y0069556D01*
X0202106Y0069810D02*
X0166826Y0069810D01*
X0166826Y0070065D02*
X0202106Y0070065D01*
X0202106Y0070319D02*
X0166826Y0070319D01*
X0166826Y0070573D02*
X0202106Y0070573D01*
X0202106Y0070827D02*
X0166826Y0070827D01*
X0166826Y0071081D02*
X0202106Y0071081D01*
X0202106Y0071335D02*
X0166826Y0071335D01*
X0166826Y0071590D02*
X0202106Y0071590D01*
X0202106Y0071844D02*
X0166315Y0071844D01*
X0166315Y0072098D02*
X0202106Y0072098D01*
X0202106Y0072352D02*
X0166315Y0072352D01*
X0166315Y0072606D02*
X0202106Y0072606D01*
X0202106Y0072860D02*
X0166315Y0072860D01*
X0166315Y0073114D02*
X0202106Y0073114D01*
X0202106Y0073369D02*
X0166315Y0073369D01*
X0166315Y0073623D02*
X0202106Y0073623D01*
X0202106Y0073877D02*
X0166315Y0073877D01*
X0166315Y0074131D02*
X0202106Y0074131D01*
X0202106Y0074385D02*
X0165804Y0074385D01*
X0165804Y0074639D02*
X0202106Y0074639D01*
X0202106Y0074894D02*
X0165804Y0074894D01*
X0165804Y0075148D02*
X0202106Y0075148D01*
X0202106Y0075402D02*
X0165804Y0075402D01*
X0165804Y0075656D02*
X0202106Y0075656D01*
X0202106Y0075910D02*
X0165804Y0075910D01*
X0165804Y0076164D02*
X0202106Y0076164D01*
X0202106Y0076419D02*
X0165804Y0076419D01*
X0165804Y0076673D02*
X0202106Y0076673D01*
X0202106Y0076927D02*
X0165292Y0076927D01*
X0165292Y0077181D02*
X0202106Y0077181D01*
X0202106Y0077435D02*
X0165292Y0077435D01*
X0165292Y0077689D02*
X0202106Y0077689D01*
X0202106Y0077943D02*
X0165292Y0077943D01*
X0165292Y0078198D02*
X0202106Y0078198D01*
X0202106Y0078452D02*
X0165292Y0078452D01*
X0165292Y0078706D02*
X0202106Y0078706D01*
X0202106Y0078960D02*
X0165292Y0078960D01*
X0165292Y0079214D02*
X0202106Y0079214D01*
X0202106Y0079468D02*
X0165292Y0079468D01*
X0165292Y0079723D02*
X0202106Y0079723D01*
X0202106Y0079977D02*
X0164781Y0079977D01*
X0164781Y0080231D02*
X0202106Y0080231D01*
X0202106Y0080485D02*
X0164781Y0080485D01*
X0164781Y0080739D02*
X0202106Y0080739D01*
X0202106Y0080993D02*
X0164781Y0080993D01*
X0164781Y0081248D02*
X0202106Y0081248D01*
X0202106Y0081502D02*
X0164781Y0081502D01*
X0164781Y0081756D02*
X0202106Y0081756D01*
X0202106Y0082010D02*
X0164781Y0082010D01*
X0164781Y0082264D02*
X0202106Y0082264D01*
X0202106Y0082518D02*
X0164781Y0082518D01*
X0164781Y0082772D02*
X0202106Y0082772D01*
X0202106Y0083027D02*
X0164270Y0083027D01*
X0164270Y0083281D02*
X0202106Y0083281D01*
X0202106Y0083535D02*
X0164270Y0083535D01*
X0164270Y0083789D02*
X0202106Y0083789D01*
X0202106Y0084043D02*
X0164270Y0084043D01*
X0164270Y0084297D02*
X0202106Y0084297D01*
X0202106Y0084552D02*
X0164270Y0084552D01*
X0164270Y0084806D02*
X0202106Y0084806D01*
X0202106Y0085060D02*
X0164270Y0085060D01*
X0164270Y0085314D02*
X0202106Y0085314D01*
X0202106Y0085568D02*
X0164270Y0085568D01*
X0164270Y0085822D02*
X0202106Y0085822D01*
X0202106Y0086077D02*
X0164270Y0086077D01*
X0164270Y0086331D02*
X0202106Y0086331D01*
X0202106Y0086585D02*
X0164270Y0086585D01*
X0164270Y0086839D02*
X0202106Y0086839D01*
X0202106Y0087093D02*
X0163759Y0087093D01*
X0163759Y0087347D02*
X0202106Y0087347D01*
X0202106Y0087602D02*
X0163759Y0087602D01*
X0163759Y0087856D02*
X0202106Y0087856D01*
X0202106Y0088110D02*
X0163759Y0088110D01*
X0163759Y0088364D02*
X0202106Y0088364D01*
X0202106Y0088618D02*
X0163759Y0088618D01*
X0163759Y0088872D02*
X0202106Y0088872D01*
X0202106Y0089126D02*
X0163759Y0089126D01*
X0163759Y0089381D02*
X0202106Y0089381D01*
X0202106Y0089635D02*
X0163759Y0089635D01*
X0163759Y0089889D02*
X0202106Y0089889D01*
X0202106Y0090143D02*
X0163759Y0090143D01*
X0163759Y0090397D02*
X0202106Y0090397D01*
X0202106Y0090651D02*
X0163759Y0090651D01*
X0163759Y0090906D02*
X0202106Y0090906D01*
X0202106Y0091160D02*
X0163759Y0091160D01*
X0163759Y0091414D02*
X0202106Y0091414D01*
X0202106Y0091668D02*
X0163247Y0091668D01*
X0163247Y0091922D02*
X0202106Y0091922D01*
X0202106Y0092176D02*
X0163247Y0092176D01*
X0163247Y0092431D02*
X0202106Y0092431D01*
X0202106Y0092685D02*
X0163247Y0092685D01*
X0163247Y0092939D02*
X0202106Y0092939D01*
X0202106Y0093193D02*
X0163247Y0093193D01*
X0163247Y0093447D02*
X0202106Y0093447D01*
X0202106Y0093701D02*
X0163247Y0093701D01*
X0163247Y0093955D02*
X0202106Y0093955D01*
X0202106Y0094210D02*
X0163247Y0094210D01*
X0163247Y0094464D02*
X0202106Y0094464D01*
X0202106Y0094718D02*
X0163247Y0094718D01*
X0163247Y0094972D02*
X0202106Y0094972D01*
X0202106Y0095226D02*
X0163247Y0095226D01*
X0163247Y0095480D02*
X0202106Y0095480D01*
X0202106Y0095735D02*
X0163247Y0095735D01*
X0163247Y0095989D02*
X0202106Y0095989D01*
X0202106Y0096243D02*
X0163247Y0096243D01*
X0163247Y0096497D02*
X0202106Y0096497D01*
X0202106Y0096751D02*
X0163247Y0096751D01*
X0163247Y0097005D02*
X0202106Y0097005D01*
X0202106Y0097260D02*
X0163247Y0097260D01*
X0163247Y0097514D02*
X0202106Y0097514D01*
X0202106Y0097768D02*
X0163247Y0097768D01*
X0163247Y0098022D02*
X0202106Y0098022D01*
X0202106Y0098276D02*
X0162736Y0098276D01*
X0162736Y0098530D02*
X0202106Y0098530D01*
X0202106Y0098784D02*
X0162736Y0098784D01*
X0162736Y0099039D02*
X0202106Y0099039D01*
X0202106Y0099293D02*
X0162736Y0099293D01*
X0162736Y0099547D02*
X0202106Y0099547D01*
X0202106Y0099801D02*
X0162736Y0099801D01*
X0162736Y0100055D02*
X0202106Y0100055D01*
X0202106Y0100309D02*
X0162736Y0100309D01*
X0162736Y0100564D02*
X0202106Y0100564D01*
X0202106Y0100818D02*
X0162736Y0100818D01*
X0162736Y0101072D02*
X0202106Y0101072D01*
X0202106Y0101326D02*
X0162736Y0101326D01*
X0162736Y0101580D02*
X0202106Y0101580D01*
X0202106Y0101834D02*
X0162736Y0101834D01*
X0162736Y0102089D02*
X0202106Y0102089D01*
X0202106Y0102343D02*
X0162736Y0102343D01*
X0162736Y0102597D02*
X0202106Y0102597D01*
X0202106Y0102851D02*
X0162736Y0102851D01*
X0162736Y0103105D02*
X0202106Y0103105D01*
X0202106Y0103359D02*
X0162736Y0103359D01*
X0162736Y0103613D02*
X0202106Y0103613D01*
X0202106Y0103868D02*
X0162736Y0103868D01*
X0162736Y0104122D02*
X0202106Y0104122D01*
X0202106Y0104376D02*
X0162736Y0104376D01*
X0162736Y0104630D02*
X0202106Y0104630D01*
X0202106Y0104884D02*
X0162736Y0104884D01*
X0162736Y0105138D02*
X0202106Y0105138D01*
X0202106Y0105393D02*
X0162736Y0105393D01*
X0162736Y0105647D02*
X0202106Y0105647D01*
X0202106Y0105901D02*
X0162736Y0105901D01*
X0162736Y0106155D02*
X0202106Y0106155D01*
X0202106Y0106409D02*
X0162736Y0106409D01*
X0162736Y0106663D02*
X0202106Y0106663D01*
X0202106Y0106918D02*
X0162736Y0106918D01*
X0162736Y0107172D02*
X0202106Y0107172D01*
X0202106Y0107426D02*
X0162736Y0107426D01*
X0162736Y0107680D02*
X0202106Y0107680D01*
X0202106Y0107934D02*
X0162736Y0107934D01*
X0162736Y0108188D02*
X0202106Y0108188D01*
X0202106Y0108442D02*
X0162736Y0108442D01*
X0162736Y0108697D02*
X0202106Y0108697D01*
X0202106Y0108951D02*
X0162736Y0108951D01*
X0162736Y0109205D02*
X0202106Y0109205D01*
X0202106Y0109459D02*
X0162736Y0109459D01*
X0162736Y0109713D02*
X0202106Y0109713D01*
X0202106Y0109967D02*
X0162736Y0109967D01*
X0162736Y0110222D02*
X0202106Y0110222D01*
X0202106Y0110476D02*
X0162736Y0110476D01*
X0162736Y0110730D02*
X0202106Y0110730D01*
X0202106Y0110984D02*
X0162736Y0110984D01*
X0162736Y0111238D02*
X0202106Y0111238D01*
X0202106Y0111492D02*
X0162736Y0111492D01*
X0111555Y0091160D02*
X0098261Y0091160D01*
X0098261Y0090906D02*
X0111555Y0090906D01*
X0180120Y0029653D02*
X0202106Y0029653D01*
X0202106Y0029399D02*
X0180120Y0029399D01*
X0180120Y0029145D02*
X0202106Y0029145D01*
X0202106Y0028891D02*
X0180120Y0028891D01*
X0180631Y0028637D02*
X0202106Y0028637D01*
X0202106Y0028383D02*
X0180631Y0028383D01*
X0180631Y0028128D02*
X0202106Y0028128D01*
X0202106Y0027874D02*
X0180631Y0027874D01*
X0181143Y0027620D02*
X0202106Y0027620D01*
X0202106Y0027366D02*
X0181143Y0027366D01*
X0181143Y0027112D02*
X0202106Y0027112D01*
X0202106Y0026858D02*
X0181143Y0026858D01*
X0181654Y0026603D02*
X0202106Y0026603D01*
X0202106Y0026349D02*
X0181654Y0026349D01*
X0181654Y0026095D02*
X0202106Y0026095D01*
X0202106Y0025841D02*
X0181654Y0025841D01*
X0182165Y0025587D02*
X0202106Y0025587D01*
X0202106Y0025333D02*
X0182165Y0025333D01*
X0182165Y0025079D02*
X0202106Y0025079D01*
X0202106Y0024824D02*
X0182165Y0024824D01*
X0182677Y0024570D02*
X0202106Y0024570D01*
X0202106Y0024316D02*
X0182677Y0024316D01*
X0183188Y0024062D02*
X0202106Y0024062D01*
X0202106Y0023808D02*
X0183188Y0023808D01*
X0183699Y0023554D02*
X0202106Y0023554D01*
X0202106Y0023299D02*
X0183699Y0023299D01*
X0184211Y0023045D02*
X0202106Y0023045D01*
X0202106Y0022791D02*
X0184211Y0022791D01*
X0184722Y0022537D02*
X0202106Y0022537D01*
X0202106Y0022283D02*
X0184722Y0022283D01*
X0185233Y0022029D02*
X0202106Y0022029D01*
X0202106Y0021774D02*
X0185233Y0021774D01*
X0185744Y0021520D02*
X0202106Y0021520D01*
X0202106Y0021266D02*
X0185744Y0021266D01*
X0186256Y0021012D02*
X0202106Y0021012D01*
X0202106Y0020758D02*
X0186256Y0020758D01*
X0186767Y0020504D02*
X0202106Y0020504D01*
X0202106Y0020250D02*
X0186767Y0020250D01*
X0187278Y0019995D02*
X0202106Y0019995D01*
X0202106Y0019741D02*
X0187278Y0019741D01*
X0187790Y0019487D02*
X0202106Y0019487D01*
X0202106Y0019233D02*
X0187790Y0019233D01*
X0188301Y0018979D02*
X0202106Y0018979D01*
X0202106Y0018725D02*
X0188301Y0018725D01*
X0188812Y0018470D02*
X0202106Y0018470D01*
X0202106Y0018216D02*
X0188812Y0018216D01*
X0189324Y0017962D02*
X0202106Y0017962D01*
X0202106Y0017708D02*
X0189324Y0017708D01*
X0189835Y0017454D02*
X0202106Y0017454D01*
X0202106Y0017200D02*
X0189835Y0017200D01*
X0190346Y0016945D02*
X0202106Y0016945D01*
X0202106Y0016691D02*
X0190346Y0016691D01*
X0190857Y0016437D02*
X0202106Y0016437D01*
X0202106Y0016183D02*
X0190857Y0016183D01*
X0191369Y0015929D02*
X0202106Y0015929D01*
X0202106Y0015675D02*
X0191369Y0015675D01*
X0191880Y0015420D02*
X0202106Y0015420D01*
X0202106Y0015166D02*
X0191880Y0015166D01*
X0192391Y0014912D02*
X0202106Y0014912D01*
X0202106Y0014658D02*
X0192391Y0014658D01*
X0192903Y0014404D02*
X0202106Y0014404D01*
X0202106Y0014150D02*
X0192903Y0014150D01*
X0193414Y0013896D02*
X0202106Y0013896D01*
X0202106Y0013641D02*
X0193414Y0013641D01*
X0193414Y0013387D02*
X0202106Y0013387D01*
X0202106Y0013133D02*
X0193925Y0013133D01*
X0193925Y0012879D02*
X0202106Y0012879D01*
X0202106Y0012625D02*
X0194437Y0012625D01*
X0194437Y0012371D02*
X0202106Y0012371D01*
X0202106Y0012116D02*
X0194948Y0012116D01*
X0194948Y0011862D02*
X0202106Y0011862D01*
X0202106Y0011608D02*
X0195459Y0011608D01*
X0195459Y0011354D02*
X0202106Y0011354D01*
X0202106Y0011100D02*
X0195970Y0011100D01*
X0195970Y0010846D02*
X0202106Y0010846D01*
X0202106Y0010591D02*
X0196482Y0010591D01*
X0196482Y0010337D02*
X0202106Y0010337D01*
X0202106Y0010083D02*
X0196993Y0010083D01*
X0196993Y0009829D02*
X0202106Y0009829D01*
X0202106Y0009575D02*
X0197504Y0009575D01*
X0197504Y0009321D02*
X0202106Y0009321D01*
X0202106Y0009067D02*
X0198016Y0009067D01*
X0198016Y0008812D02*
X0202106Y0008812D01*
X0202106Y0008558D02*
X0198527Y0008558D01*
X0198527Y0008304D02*
X0202106Y0008304D01*
X0202106Y0008050D02*
X0199038Y0008050D01*
X0199038Y0007796D02*
X0202106Y0007796D01*
X0202106Y0007542D02*
X0199550Y0007542D01*
X0199550Y0007287D02*
X0202106Y0007287D01*
X0202106Y0007033D02*
X0200061Y0007033D01*
X0200061Y0006779D02*
X0202106Y0006779D01*
X0202106Y0006525D02*
X0200572Y0006525D01*
X0200572Y0006271D02*
X0202106Y0006271D01*
X0202106Y0006017D02*
X0201083Y0006017D01*
X0201083Y0005762D02*
X0202106Y0005762D01*
X0202106Y0005508D02*
X0201595Y0005508D01*
X0201595Y0005254D02*
X0202106Y0005254D01*
X0026730Y0177319D02*
X0004744Y0177319D01*
X0004744Y0177574D02*
X0026730Y0177574D01*
X0026730Y0177828D02*
X0004744Y0177828D01*
X0004744Y0178082D02*
X0026730Y0178082D01*
X0026219Y0178336D02*
X0004744Y0178336D01*
X0004744Y0178590D02*
X0026219Y0178590D01*
X0026219Y0178844D02*
X0004744Y0178844D01*
X0004744Y0179099D02*
X0026219Y0179099D01*
X0025708Y0179353D02*
X0004744Y0179353D01*
X0004744Y0179607D02*
X0025708Y0179607D01*
X0025708Y0179861D02*
X0004744Y0179861D01*
X0004744Y0180115D02*
X0025708Y0180115D01*
X0025196Y0180369D02*
X0004744Y0180369D01*
X0004744Y0180623D02*
X0025196Y0180623D01*
X0025196Y0180878D02*
X0004744Y0180878D01*
X0004744Y0181132D02*
X0025196Y0181132D01*
X0024685Y0181386D02*
X0004744Y0181386D01*
X0004744Y0181640D02*
X0024685Y0181640D01*
X0024685Y0181894D02*
X0004744Y0181894D01*
X0004744Y0182148D02*
X0024685Y0182148D01*
X0024174Y0182403D02*
X0004744Y0182403D01*
X0004744Y0182657D02*
X0024174Y0182657D01*
X0023662Y0182911D02*
X0004744Y0182911D01*
X0004744Y0183165D02*
X0023662Y0183165D01*
X0023151Y0183419D02*
X0004744Y0183419D01*
X0004744Y0183673D02*
X0023151Y0183673D01*
X0022640Y0183928D02*
X0004744Y0183928D01*
X0004744Y0184182D02*
X0022640Y0184182D01*
X0022129Y0184436D02*
X0004744Y0184436D01*
X0004744Y0184690D02*
X0022129Y0184690D01*
X0021617Y0184944D02*
X0004744Y0184944D01*
X0004744Y0185198D02*
X0021617Y0185198D01*
X0021106Y0185453D02*
X0004744Y0185453D01*
X0004744Y0185707D02*
X0021106Y0185707D01*
X0020595Y0185961D02*
X0004744Y0185961D01*
X0004744Y0186215D02*
X0020595Y0186215D01*
X0020083Y0186469D02*
X0004744Y0186469D01*
X0004744Y0186723D02*
X0020083Y0186723D01*
X0019572Y0186977D02*
X0004744Y0186977D01*
X0004744Y0187232D02*
X0019572Y0187232D01*
X0019061Y0187486D02*
X0004744Y0187486D01*
X0004744Y0187740D02*
X0019061Y0187740D01*
X0018549Y0187994D02*
X0004744Y0187994D01*
X0004744Y0188248D02*
X0018549Y0188248D01*
X0018038Y0188502D02*
X0004744Y0188502D01*
X0004744Y0188757D02*
X0018038Y0188757D01*
X0017527Y0189011D02*
X0004744Y0189011D01*
X0004744Y0189265D02*
X0017527Y0189265D01*
X0017016Y0189519D02*
X0004744Y0189519D01*
X0004744Y0189773D02*
X0017016Y0189773D01*
X0016504Y0190027D02*
X0004744Y0190027D01*
X0004744Y0190282D02*
X0016504Y0190282D01*
X0015993Y0190536D02*
X0004744Y0190536D01*
X0004744Y0190790D02*
X0015993Y0190790D01*
X0015482Y0191044D02*
X0004744Y0191044D01*
X0004744Y0191298D02*
X0015482Y0191298D01*
X0014970Y0191552D02*
X0004744Y0191552D01*
X0004744Y0191806D02*
X0014970Y0191806D01*
X0014459Y0192061D02*
X0004744Y0192061D01*
X0004744Y0192315D02*
X0014459Y0192315D01*
X0013948Y0192569D02*
X0004744Y0192569D01*
X0004744Y0192823D02*
X0013948Y0192823D01*
X0013436Y0193077D02*
X0004744Y0193077D01*
X0004744Y0193331D02*
X0013436Y0193331D01*
X0012925Y0193586D02*
X0004744Y0193586D01*
X0004744Y0193840D02*
X0012925Y0193840D01*
X0012414Y0194094D02*
X0004744Y0194094D01*
X0004744Y0194348D02*
X0012414Y0194348D01*
X0011903Y0194602D02*
X0004744Y0194602D01*
X0004744Y0194856D02*
X0011903Y0194856D01*
X0011391Y0195111D02*
X0004744Y0195111D01*
X0004744Y0195365D02*
X0011391Y0195365D01*
X0010880Y0195619D02*
X0004744Y0195619D01*
X0004744Y0195873D02*
X0010880Y0195873D01*
X0010369Y0196127D02*
X0004744Y0196127D01*
X0004744Y0196381D02*
X0010369Y0196381D01*
X0009857Y0196635D02*
X0004744Y0196635D01*
X0004744Y0196890D02*
X0009857Y0196890D01*
X0009346Y0197144D02*
X0004744Y0197144D01*
X0004744Y0197398D02*
X0009346Y0197398D01*
X0008835Y0197652D02*
X0004744Y0197652D01*
X0004744Y0197906D02*
X0008835Y0197906D01*
X0008323Y0198160D02*
X0004744Y0198160D01*
X0004744Y0198415D02*
X0008323Y0198415D01*
X0007812Y0198669D02*
X0004744Y0198669D01*
X0004744Y0198923D02*
X0007812Y0198923D01*
X0007301Y0199177D02*
X0004744Y0199177D01*
X0004744Y0199431D02*
X0007301Y0199431D01*
X0006790Y0199685D02*
X0004744Y0199685D01*
X0004744Y0199940D02*
X0006790Y0199940D01*
X0006278Y0200194D02*
X0004744Y0200194D01*
X0004744Y0200448D02*
X0006278Y0200448D01*
X0005767Y0200702D02*
X0004744Y0200702D01*
X0004744Y0200956D02*
X0005767Y0200956D01*
X0005256Y0201210D02*
X0004744Y0201210D01*
X0004744Y0201464D02*
X0005256Y0201464D01*
D14*
X0096574Y0199550D03*
X0096574Y0152305D03*
X0110277Y0054545D03*
X0110277Y0007301D03*
D15*
X0109331Y0103425D03*
X0097520Y0103425D03*
D16*
X0057165Y0091614D03*
X0009921Y0091614D03*
X0149685Y0115236D03*
X0196929Y0115236D03*
D17*
X0115236Y0057165D03*
X0115236Y0009921D03*
X0091614Y0149685D03*
X0091614Y0196929D03*
D18*
X0091614Y0185118D03*
X0025669Y0091614D03*
X0115236Y0022717D03*
X0184134Y0115236D03*
M02*
